<?xml version="1.0" encoding="UTF-8" standalone="no"?>
<!DOCTYPE svg PUBLIC "-//W3C//DTD SVG 1.1//EN"
 "http://www.w3.org/Graphics/SVG/1.1/DTD/svg11.dtd">
<!-- Generated by graphviz version 9.0.0 (20230911.1827)
 -->
<!-- Title: G Pages: 1 -->
<svg width="2022pt" height="1402pt"
 viewBox="0.00 0.00 2022.25 1401.50" xmlns="http://www.w3.org/2000/svg" xmlns:xlink="http://www.w3.org/1999/xlink">
<g id="graph0" class="graph" transform="scale(1 1) rotate(0) translate(4 1397.5)">
<title>G</title>
<polygon fill="white" stroke="none" points="-4,4 -4,-1397.5 2018.25,-1397.5 2018.25,4 -4,4"/>
<g id="clust1" class="cluster">
<title>cluster_0</title>
<polygon fill="none" stroke="black" points="8,-602 8,-1385.5 478,-1385.5 478,-602 8,-602"/>
</g>
<g id="clust2" class="cluster">
<title>cluster_1</title>
<polygon fill="none" stroke="black" points="486,-8 486,-874 1028,-874 1028,-8 486,-8"/>
</g>
<g id="clust3" class="cluster">
<title>cluster_2</title>
<polygon fill="none" stroke="black" points="1196,-8 1196,-1264.5 1906,-1264.5 1906,-8 1196,-8"/>
</g>
<!-- f f::$r0 = new BasicTest -->
<g id="node1" class="node">
<title>f f::$r0 = new BasicTest</title>
<polygon fill="none" stroke="black" points="317.75,-1377.5 168.25,-1377.5 168.25,-1341.5 317.75,-1341.5 317.75,-1377.5"/>
<text text-anchor="middle" x="243" y="-1354.45" font-family="Times,serif" font-size="14.00">f f::$r0 = new BasicTest</text>
</g>
<!-- f specialinvoke f::$r0.&lt;BasicTest: void &lt;init&gt;()&gt;() -->
<g id="node2" class="node">
<title>f specialinvoke f::$r0.&lt;BasicTest: void &lt;init&gt;()&gt;()</title>
<polygon fill="none" stroke="black" points="389.75,-1256.5 96.25,-1256.5 96.25,-1220.5 389.75,-1220.5 389.75,-1256.5"/>
<text text-anchor="middle" x="243" y="-1233.45" font-family="Times,serif" font-size="14.00">f specialinvoke f::$r0.&lt;BasicTest: void &lt;init&gt;()&gt;()</text>
</g>
<!-- f f::$r0 = new BasicTest&#45;&gt;f specialinvoke f::$r0.&lt;BasicTest: void &lt;init&gt;()&gt;() -->
<g id="edge1" class="edge">
<title>f f::$r0 = new BasicTest&#45;&gt;f specialinvoke f::$r0.&lt;BasicTest: void &lt;init&gt;()&gt;()</title>
<path fill="none" stroke="black" d="M243,-1341.2C243,-1322.07 243,-1290.96 243,-1268.18"/>
<polygon fill="black" stroke="black" points="246.5,-1268.34 243,-1258.34 239.5,-1268.34 246.5,-1268.34"/>
<text text-anchor="middle" x="318.38" y="-1310.2" font-family="Times,serif" font-size="14.00">[] =&gt; {f::$r0 &#45;&gt; [f.new00], </text>
<text text-anchor="middle" x="318.38" y="-1293.7" font-family="Times,serif" font-size="14.00">}</text>
</g>
<!-- f f::$r1 = staticinvoke &lt;BasicTest: BasicTest REC_TEST_1(BasicTest)&gt;(f::$r0) -->
<g id="node3" class="node">
<title>f f::$r1 = staticinvoke &lt;BasicTest: BasicTest REC_TEST_1(BasicTest)&gt;(f::$r0)</title>
<polygon fill="none" stroke="black" points="469.62,-1069.5 16.38,-1069.5 16.38,-1033.5 469.62,-1033.5 469.62,-1069.5"/>
<text text-anchor="middle" x="243" y="-1046.45" font-family="Times,serif" font-size="14.00">f f::$r1 = staticinvoke &lt;BasicTest: BasicTest REC_TEST_1(BasicTest)&gt;(f::$r0)</text>
</g>
<!-- f specialinvoke f::$r0.&lt;BasicTest: void &lt;init&gt;()&gt;()&#45;&gt;f f::$r1 = staticinvoke &lt;BasicTest: BasicTest REC_TEST_1(BasicTest)&gt;(f::$r0) -->
<g id="edge2" class="edge">
<title>f specialinvoke f::$r0.&lt;BasicTest: void &lt;init&gt;()&gt;()&#45;&gt;f f::$r1 = staticinvoke &lt;BasicTest: BasicTest REC_TEST_1(BasicTest)&gt;(f::$r0)</title>
<path fill="none" stroke="black" d="M243,-1220.1C243,-1188.21 243,-1120.14 243,-1081.27"/>
<polygon fill="black" stroke="black" points="246.5,-1081.51 243,-1071.51 239.5,-1081.51 246.5,-1081.51"/>
<text text-anchor="middle" x="318.38" y="-1156.2" font-family="Times,serif" font-size="14.00">[] =&gt; {f::$r0 &#45;&gt; [f.new00], </text>
<text text-anchor="middle" x="318.38" y="-1139.7" font-family="Times,serif" font-size="14.00">}</text>
</g>
<!-- f f::$r1.&lt;BasicTest: BasicTest f&gt; = null -->
<g id="node4" class="node">
<title>f f::$r1.&lt;BasicTest: BasicTest f&gt; = null</title>
<polygon fill="none" stroke="black" points="326.75,-866 93.25,-866 93.25,-830 326.75,-830 326.75,-866"/>
<text text-anchor="middle" x="210" y="-842.95" font-family="Times,serif" font-size="14.00">f f::$r1.&lt;BasicTest: BasicTest f&gt; = null</text>
</g>
<!-- f f::$r1 = staticinvoke &lt;BasicTest: BasicTest REC_TEST_1(BasicTest)&gt;(f::$r0)&#45;&gt;f f::$r1.&lt;BasicTest: BasicTest f&gt; = null -->
<g id="edge3" class="edge">
<title>f f::$r1 = staticinvoke &lt;BasicTest: BasicTest REC_TEST_1(BasicTest)&gt;(f::$r0)&#45;&gt;f f::$r1.&lt;BasicTest: BasicTest f&gt; = null</title>
<path fill="none" stroke="black" d="M240.19,-1033.32C234.51,-998.68 221.65,-920.16 214.69,-877.64"/>
<polygon fill="black" stroke="black" points="218.17,-877.22 213.1,-867.92 211.26,-878.35 218.17,-877.22"/>
<text text-anchor="middle" x="366.75" y="-1002.2" font-family="Times,serif" font-size="14.00">[] =&gt; {rec_test_2::$r0 &#45;&gt; [rec_test_2.new01], </text>
<text text-anchor="middle" x="366.75" y="-985.7" font-family="Times,serif" font-size="14.00">f::$r0 &#45;&gt; [f.new00], </text>
<text text-anchor="middle" x="366.75" y="-969.2" font-family="Times,serif" font-size="14.00">REC_TEST_1::$r0 &#45;&gt; [REC_TEST_1.new01], </text>
<text text-anchor="middle" x="366.75" y="-952.7" font-family="Times,serif" font-size="14.00">f::$r1 &#45;&gt; [REC_TEST_1.new01], </text>
<text text-anchor="middle" x="366.75" y="-936.2" font-family="Times,serif" font-size="14.00">REC_TEST_1::r1 &#45;&gt; [f.new00], </text>
<text text-anchor="middle" x="366.75" y="-919.7" font-family="Times,serif" font-size="14.00">rec_test_2::r1 &#45;&gt; [f.new00], </text>
<text text-anchor="middle" x="366.75" y="-903.2" font-family="Times,serif" font-size="14.00">}</text>
</g>
<!-- REC_TEST_1 REC_TEST_1::r1 := @parameter0: BasicTest -->
<g id="node6" class="node">
<title>REC_TEST_1 REC_TEST_1::r1 := @parameter0: BasicTest</title>
<polygon fill="none" stroke="black" points="844.25,-866 493.75,-866 493.75,-830 844.25,-830 844.25,-866"/>
<text text-anchor="middle" x="669" y="-842.95" font-family="Times,serif" font-size="14.00">REC_TEST_1 REC_TEST_1::r1 := @parameter0: BasicTest</text>
</g>
<!-- f f::$r1 = staticinvoke &lt;BasicTest: BasicTest REC_TEST_1(BasicTest)&gt;(f::$r0)&#45;&gt;REC_TEST_1 REC_TEST_1::r1 := @parameter0: BasicTest -->
<g id="edge16" class="edge">
<title>f f::$r1 = staticinvoke &lt;BasicTest: BasicTest REC_TEST_1(BasicTest)&gt;(f::$r0)&#45;&gt;REC_TEST_1 REC_TEST_1::r1 := @parameter0: BasicTest</title>
<path fill="none" stroke="black" stroke-dasharray="1,5" d="M429.82,-1033.03C459.86,-1028.3 485.75,-1022.5 500,-1015.5 566.8,-982.68 623.49,-913.25 651.07,-875.23"/>
<polygon fill="black" stroke="black" points="653.61,-877.69 656.56,-867.52 647.91,-873.63 653.61,-877.69"/>
<text text-anchor="middle" x="687.62" y="-944.7" font-family="Times,serif" font-size="14.00">BasicTest.f.in02</text>
</g>
<!-- f return -->
<g id="node5" class="node">
<title>f return</title>
<polygon fill="none" stroke="black" points="261.25,-646 204.75,-646 204.75,-610 261.25,-610 261.25,-646"/>
<text text-anchor="middle" x="233" y="-622.95" font-family="Times,serif" font-size="14.00">f return</text>
</g>
<!-- f f::$r1.&lt;BasicTest: BasicTest f&gt; = null&#45;&gt;f return -->
<g id="edge4" class="edge">
<title>f f::$r1.&lt;BasicTest: BasicTest f&gt; = null&#45;&gt;f return</title>
<path fill="none" stroke="black" d="M209.9,-829.69C210,-797.02 211.56,-724.16 222.5,-664 222.9,-661.8 223.39,-659.54 223.93,-657.28"/>
<polygon fill="black" stroke="black" points="227.29,-658.29 226.58,-647.72 220.54,-656.42 227.29,-658.29"/>
<text text-anchor="middle" x="352.75" y="-798.7" font-family="Times,serif" font-size="14.00">[] =&gt; {rec_test_2::$r0 &#45;&gt; [rec_test_2.new01], </text>
<text text-anchor="middle" x="352.75" y="-782.2" font-family="Times,serif" font-size="14.00">f::$r0 &#45;&gt; [f.new00], </text>
<text text-anchor="middle" x="352.75" y="-765.7" font-family="Times,serif" font-size="14.00">REC_TEST_1::$r0 &#45;&gt; [REC_TEST_1.new01], </text>
<text text-anchor="middle" x="352.75" y="-749.2" font-family="Times,serif" font-size="14.00">f::$r1 &#45;&gt; [REC_TEST_1.new01], </text>
<text text-anchor="middle" x="352.75" y="-732.7" font-family="Times,serif" font-size="14.00">REC_TEST_1::r1 &#45;&gt; [f.new00], </text>
<text text-anchor="middle" x="352.75" y="-716.2" font-family="Times,serif" font-size="14.00">rec_test_2::r1 &#45;&gt; [f.new00], </text>
<text text-anchor="middle" x="352.75" y="-699.7" font-family="Times,serif" font-size="14.00">REC_TEST_1.new01.f &#45;&gt; [null]</text>
<text text-anchor="middle" x="352.75" y="-683.2" font-family="Times,serif" font-size="14.00">}</text>
</g>
<!-- REC_TEST_1 REC_TEST_1::$r0 = new BasicTest -->
<g id="node7" class="node">
<title>REC_TEST_1 REC_TEST_1::$r0 = new BasicTest</title>
<polygon fill="none" stroke="black" points="818,-646 520,-646 520,-610 818,-610 818,-646"/>
<text text-anchor="middle" x="669" y="-622.95" font-family="Times,serif" font-size="14.00">REC_TEST_1 REC_TEST_1::$r0 = new BasicTest</text>
</g>
<!-- REC_TEST_1 REC_TEST_1::r1 := @parameter0: BasicTest&#45;&gt;REC_TEST_1 REC_TEST_1::$r0 = new BasicTest -->
<g id="edge5" class="edge">
<title>REC_TEST_1 REC_TEST_1::r1 := @parameter0: BasicTest&#45;&gt;REC_TEST_1 REC_TEST_1::$r0 = new BasicTest</title>
<path fill="none" stroke="black" d="M668.4,-829.56C668.24,-823.95 668.08,-817.71 668,-812 667.06,-746.23 667.06,-729.77 668,-664 668.03,-661.95 668.07,-659.83 668.11,-657.69"/>
<polygon fill="black" stroke="black" points="671.61,-658.04 668.36,-647.96 664.61,-657.86 671.61,-658.04"/>
<text text-anchor="middle" x="840.5" y="-765.7" font-family="Times,serif" font-size="14.00">[BasicTest.f.in02] =&gt; {@parameter0: BasicTest &#45;&gt; [f.new00], </text>
<text text-anchor="middle" x="840.5" y="-749.2" font-family="Times,serif" font-size="14.00">f::$r0 &#45;&gt; [f.new00], </text>
<text text-anchor="middle" x="840.5" y="-732.7" font-family="Times,serif" font-size="14.00">REC_TEST_1::r1 &#45;&gt; [f.new00], </text>
<text text-anchor="middle" x="840.5" y="-716.2" font-family="Times,serif" font-size="14.00">}</text>
</g>
<!-- REC_TEST_1 specialinvoke REC_TEST_1::$r0.&lt;BasicTest: void &lt;init&gt;()&gt;() -->
<g id="node8" class="node">
<title>REC_TEST_1 specialinvoke REC_TEST_1::$r0.&lt;BasicTest: void &lt;init&gt;()&gt;()</title>
<polygon fill="none" stroke="black" points="936,-442.5 494,-442.5 494,-406.5 936,-406.5 936,-442.5"/>
<text text-anchor="middle" x="715" y="-419.45" font-family="Times,serif" font-size="14.00">REC_TEST_1 specialinvoke REC_TEST_1::$r0.&lt;BasicTest: void &lt;init&gt;()&gt;()</text>
</g>
<!-- REC_TEST_1 REC_TEST_1::$r0 = new BasicTest&#45;&gt;REC_TEST_1 specialinvoke REC_TEST_1::$r0.&lt;BasicTest: void &lt;init&gt;()&gt;() -->
<g id="edge6" class="edge">
<title>REC_TEST_1 REC_TEST_1::$r0 = new BasicTest&#45;&gt;REC_TEST_1 specialinvoke REC_TEST_1::$r0.&lt;BasicTest: void &lt;init&gt;()&gt;()</title>
<path fill="none" stroke="black" d="M665.57,-609.92C660.13,-578.56 652.43,-510.48 676,-460.5 677.59,-457.13 679.67,-453.94 682.05,-450.96"/>
<polygon fill="black" stroke="black" points="684.5,-453.46 688.81,-443.78 679.41,-448.65 684.5,-453.46"/>
<text text-anchor="middle" x="848.5" y="-562.2" font-family="Times,serif" font-size="14.00">[BasicTest.f.in02] =&gt; {@parameter0: BasicTest &#45;&gt; [f.new00], </text>
<text text-anchor="middle" x="848.5" y="-545.7" font-family="Times,serif" font-size="14.00">f::$r0 &#45;&gt; [f.new00], </text>
<text text-anchor="middle" x="848.5" y="-529.2" font-family="Times,serif" font-size="14.00">REC_TEST_1::$r0 &#45;&gt; [REC_TEST_1.new01], </text>
<text text-anchor="middle" x="848.5" y="-512.7" font-family="Times,serif" font-size="14.00">REC_TEST_1::r1 &#45;&gt; [f.new00], </text>
<text text-anchor="middle" x="848.5" y="-496.2" font-family="Times,serif" font-size="14.00">}</text>
</g>
<!-- REC_TEST_1 staticinvoke &lt;BasicTest: BasicTest rec_test_2(BasicTest)&gt;(REC_TEST_1::r1) -->
<g id="node9" class="node">
<title>REC_TEST_1 staticinvoke &lt;BasicTest: BasicTest rec_test_2(BasicTest)&gt;(REC_TEST_1::r1)</title>
<polygon fill="none" stroke="black" points="1020,-239 494,-239 494,-203 1020,-203 1020,-239"/>
<text text-anchor="middle" x="757" y="-215.95" font-family="Times,serif" font-size="14.00">REC_TEST_1 staticinvoke &lt;BasicTest: BasicTest rec_test_2(BasicTest)&gt;(REC_TEST_1::r1)</text>
</g>
<!-- REC_TEST_1 specialinvoke REC_TEST_1::$r0.&lt;BasicTest: void &lt;init&gt;()&gt;()&#45;&gt;REC_TEST_1 staticinvoke &lt;BasicTest: BasicTest rec_test_2(BasicTest)&gt;(REC_TEST_1::r1) -->
<g id="edge7" class="edge">
<title>REC_TEST_1 specialinvoke REC_TEST_1::$r0.&lt;BasicTest: void &lt;init&gt;()&gt;()&#45;&gt;REC_TEST_1 staticinvoke &lt;BasicTest: BasicTest rec_test_2(BasicTest)&gt;(REC_TEST_1::r1)</title>
<path fill="none" stroke="black" d="M689.25,-406.04C683.89,-401.06 678.97,-395.15 676,-388.5 652.18,-335.13 643.9,-305.84 676,-257 678.7,-252.9 681.99,-249.27 685.69,-246.07"/>
<polygon fill="black" stroke="black" points="687.69,-248.94 693.73,-240.23 683.58,-243.27 687.69,-248.94"/>
<text text-anchor="middle" x="848.5" y="-358.7" font-family="Times,serif" font-size="14.00">[BasicTest.f.in02] =&gt; {@parameter0: BasicTest &#45;&gt; [f.new00], </text>
<text text-anchor="middle" x="848.5" y="-342.2" font-family="Times,serif" font-size="14.00">f::$r0 &#45;&gt; [f.new00], </text>
<text text-anchor="middle" x="848.5" y="-325.7" font-family="Times,serif" font-size="14.00">REC_TEST_1::$r0 &#45;&gt; [REC_TEST_1.new01], </text>
<text text-anchor="middle" x="848.5" y="-309.2" font-family="Times,serif" font-size="14.00">REC_TEST_1::r1 &#45;&gt; [f.new00], </text>
<text text-anchor="middle" x="848.5" y="-292.7" font-family="Times,serif" font-size="14.00">}</text>
</g>
<!-- REC_TEST_1 return REC_TEST_1::$r0 -->
<g id="node10" class="node">
<title>REC_TEST_1 return REC_TEST_1::$r0</title>
<polygon fill="none" stroke="black" points="908.38,-52 669.62,-52 669.62,-16 908.38,-16 908.38,-52"/>
<text text-anchor="middle" x="789" y="-28.95" font-family="Times,serif" font-size="14.00">REC_TEST_1 return REC_TEST_1::$r0</text>
</g>
<!-- REC_TEST_1 staticinvoke &lt;BasicTest: BasicTest rec_test_2(BasicTest)&gt;(REC_TEST_1::r1)&#45;&gt;REC_TEST_1 return REC_TEST_1::$r0 -->
<g id="edge8" class="edge">
<title>REC_TEST_1 staticinvoke &lt;BasicTest: BasicTest rec_test_2(BasicTest)&gt;(REC_TEST_1::r1)&#45;&gt;REC_TEST_1 return REC_TEST_1::$r0</title>
<path fill="none" stroke="black" d="M728.22,-202.6C722.47,-197.68 717.22,-191.78 714,-185 692.05,-138.84 686.54,-113.11 714,-70 716.61,-65.91 719.83,-62.29 723.46,-59.09"/>
<polygon fill="black" stroke="black" points="725.4,-62.01 731.36,-53.25 721.23,-56.38 725.4,-62.01"/>
<text text-anchor="middle" x="885" y="-171.7" font-family="Times,serif" font-size="14.00">[BasicTest.f.in02] =&gt; {rec_test_2::$r0 &#45;&gt; [rec_test_2.new01], </text>
<text text-anchor="middle" x="885" y="-155.2" font-family="Times,serif" font-size="14.00">f::$r0 &#45;&gt; [f.new00], </text>
<text text-anchor="middle" x="885" y="-138.7" font-family="Times,serif" font-size="14.00">REC_TEST_1::$r0 &#45;&gt; [REC_TEST_1.new01], </text>
<text text-anchor="middle" x="885" y="-122.2" font-family="Times,serif" font-size="14.00">REC_TEST_1::r1 &#45;&gt; [f.new00], </text>
<text text-anchor="middle" x="885" y="-105.7" font-family="Times,serif" font-size="14.00">rec_test_2::r1 &#45;&gt; [f.new00], </text>
<text text-anchor="middle" x="885" y="-89.2" font-family="Times,serif" font-size="14.00">}</text>
</g>
<!-- rec_test_2 rec_test_2::r1 := @parameter0: BasicTest -->
<g id="node11" class="node">
<title>rec_test_2 rec_test_2::r1 := @parameter0: BasicTest</title>
<polygon fill="none" stroke="black" points="1508,-1256.5 1204,-1256.5 1204,-1220.5 1508,-1220.5 1508,-1256.5"/>
<text text-anchor="middle" x="1356" y="-1233.45" font-family="Times,serif" font-size="14.00">rec_test_2 rec_test_2::r1 := @parameter0: BasicTest</text>
</g>
<!-- REC_TEST_1 staticinvoke &lt;BasicTest: BasicTest rec_test_2(BasicTest)&gt;(REC_TEST_1::r1)&#45;&gt;rec_test_2 rec_test_2::r1 := @parameter0: BasicTest -->
<g id="edge17" class="edge">
<title>REC_TEST_1 staticinvoke &lt;BasicTest: BasicTest rec_test_2(BasicTest)&gt;(REC_TEST_1::r1)&#45;&gt;rec_test_2 rec_test_2::r1 := @parameter0: BasicTest</title>
<path fill="none" stroke="black" stroke-dasharray="1,5" d="M986.91,-239.43C1002.14,-244.04 1014.14,-249.8 1021,-257 1072.24,-310.75 1035,-349.24 1035,-423.5 1035,-1052.5 1035,-1052.5 1035,-1052.5 1035,-1147.84 1142.61,-1194.8 1233.22,-1217.44"/>
<polygon fill="black" stroke="black" points="1232.17,-1220.78 1242.71,-1219.72 1233.81,-1213.98 1232.17,-1220.78"/>
<text text-anchor="middle" x="1116.75" y="-732.95" font-family="Times,serif" font-size="14.00">BasicTest.REC_TEST_1.in03</text>
</g>
<!-- REC_TEST_1 return REC_TEST_1::$r0&#45;&gt;f f::$r1.&lt;BasicTest: BasicTest f&gt; = null -->
<g id="edge18" class="edge">
<title>REC_TEST_1 return REC_TEST_1::$r0&#45;&gt;f f::$r1.&lt;BasicTest: BasicTest f&gt; = null</title>
<path fill="none" stroke="black" stroke-dasharray="1,5" d="M669.18,-46.65C491.02,-67.33 177,-118.23 177,-220 177,-629 177,-629 177,-629 177,-697.63 193.19,-777.07 202.89,-818.5"/>
<polygon fill="black" stroke="black" points="199.46,-819.23 205.2,-828.14 206.27,-817.6 199.46,-819.23"/>
<text text-anchor="middle" x="221.62" y="-419.45" font-family="Times,serif" font-size="14.00">BasicTest.f.in02</text>
</g>
<!-- rec_test_2 rec_test_2::$r0 = new BasicTest -->
<g id="node12" class="node">
<title>rec_test_2 rec_test_2::$r0 = new BasicTest</title>
<polygon fill="none" stroke="black" points="1455.75,-1069.5 1204.25,-1069.5 1204.25,-1033.5 1455.75,-1033.5 1455.75,-1069.5"/>
<text text-anchor="middle" x="1330" y="-1046.45" font-family="Times,serif" font-size="14.00">rec_test_2 rec_test_2::$r0 = new BasicTest</text>
</g>
<!-- rec_test_2 rec_test_2::r1 := @parameter0: BasicTest&#45;&gt;rec_test_2 rec_test_2::$r0 = new BasicTest -->
<g id="edge9" class="edge">
<title>rec_test_2 rec_test_2::r1 := @parameter0: BasicTest&#45;&gt;rec_test_2 rec_test_2::$r0 = new BasicTest</title>
<path fill="none" stroke="black" d="M1256.64,-1220.03C1249.1,-1215.41 1242.35,-1209.66 1237,-1202.5 1206.38,-1161.58 1207.91,-1129.53 1237,-1087.5 1239.82,-1083.43 1243.17,-1079.83 1246.9,-1076.65"/>
<polygon fill="black" stroke="black" points="1248.91,-1079.52 1255,-1070.85 1244.84,-1073.83 1248.91,-1079.52"/>
<text text-anchor="middle" x="1495" y="-1189.2" font-family="Times,serif" font-size="14.00">[BasicTest.f.in02, BasicTest.REC_TEST_1.in03] =&gt; {@parameter0: BasicTest &#45;&gt; [f.new00], </text>
<text text-anchor="middle" x="1495" y="-1172.7" font-family="Times,serif" font-size="14.00">f::$r0 &#45;&gt; [f.new00], </text>
<text text-anchor="middle" x="1495" y="-1156.2" font-family="Times,serif" font-size="14.00">REC_TEST_1::$r0 &#45;&gt; [REC_TEST_1.new01], </text>
<text text-anchor="middle" x="1495" y="-1139.7" font-family="Times,serif" font-size="14.00">REC_TEST_1::r1 &#45;&gt; [f.new00], </text>
<text text-anchor="middle" x="1495" y="-1123.2" font-family="Times,serif" font-size="14.00">rec_test_2::r1 &#45;&gt; [f.new00], </text>
<text text-anchor="middle" x="1495" y="-1106.7" font-family="Times,serif" font-size="14.00">}</text>
</g>
<!-- rec_test_2 specialinvoke rec_test_2::$r0.&lt;BasicTest: void &lt;init&gt;()&gt;() -->
<g id="node13" class="node">
<title>rec_test_2 specialinvoke rec_test_2::$r0.&lt;BasicTest: void &lt;init&gt;()&gt;()</title>
<polygon fill="none" stroke="black" points="1599.75,-866 1204.25,-866 1204.25,-830 1599.75,-830 1599.75,-866"/>
<text text-anchor="middle" x="1402" y="-842.95" font-family="Times,serif" font-size="14.00">rec_test_2 specialinvoke rec_test_2::$r0.&lt;BasicTest: void &lt;init&gt;()&gt;()</text>
</g>
<!-- rec_test_2 rec_test_2::$r0 = new BasicTest&#45;&gt;rec_test_2 specialinvoke rec_test_2::$r0.&lt;BasicTest: void &lt;init&gt;()&gt;() -->
<g id="edge10" class="edge">
<title>rec_test_2 rec_test_2::$r0 = new BasicTest&#45;&gt;rec_test_2 specialinvoke rec_test_2::$r0.&lt;BasicTest: void &lt;init&gt;()&gt;()</title>
<path fill="none" stroke="black" d="M1259.44,-1033.21C1251.81,-1028.63 1245.02,-1022.83 1240,-1015.5 1207,-967.26 1203.3,-929.48 1240,-884 1244.43,-878.51 1253.09,-873.85 1264.22,-869.88"/>
<polygon fill="black" stroke="black" points="1265.15,-873.26 1273.63,-866.9 1263.04,-866.59 1265.15,-873.26"/>
<text text-anchor="middle" x="1496.5" y="-1002.2" font-family="Times,serif" font-size="14.00">[BasicTest.f.in02, BasicTest.REC_TEST_1.in03] =&gt; {rec_test_2::$r0 &#45;&gt; [rec_test_2.new01], </text>
<text text-anchor="middle" x="1496.5" y="-985.7" font-family="Times,serif" font-size="14.00">@parameter0: BasicTest &#45;&gt; [f.new00], </text>
<text text-anchor="middle" x="1496.5" y="-969.2" font-family="Times,serif" font-size="14.00">f::$r0 &#45;&gt; [f.new00], </text>
<text text-anchor="middle" x="1496.5" y="-952.7" font-family="Times,serif" font-size="14.00">REC_TEST_1::$r0 &#45;&gt; [REC_TEST_1.new01], </text>
<text text-anchor="middle" x="1496.5" y="-936.2" font-family="Times,serif" font-size="14.00">REC_TEST_1::r1 &#45;&gt; [f.new00], </text>
<text text-anchor="middle" x="1496.5" y="-919.7" font-family="Times,serif" font-size="14.00">rec_test_2::r1 &#45;&gt; [f.new00], </text>
<text text-anchor="middle" x="1496.5" y="-903.2" font-family="Times,serif" font-size="14.00">}</text>
</g>
<!-- rec_test_2 rec_test_2::$r2 = rec_test_2::r1.&lt;BasicTest: BasicTest f&gt; -->
<g id="node14" class="node">
<title>rec_test_2 rec_test_2::$r2 = rec_test_2::r1.&lt;BasicTest: BasicTest f&gt;</title>
<polygon fill="none" stroke="black" points="1592.38,-646 1203.62,-646 1203.62,-610 1592.38,-610 1592.38,-646"/>
<text text-anchor="middle" x="1398" y="-622.95" font-family="Times,serif" font-size="14.00">rec_test_2 rec_test_2::$r2 = rec_test_2::r1.&lt;BasicTest: BasicTest f&gt;</text>
</g>
<!-- rec_test_2 specialinvoke rec_test_2::$r0.&lt;BasicTest: void &lt;init&gt;()&gt;()&#45;&gt;rec_test_2 rec_test_2::$r2 = rec_test_2::r1.&lt;BasicTest: BasicTest f&gt; -->
<g id="edge11" class="edge">
<title>rec_test_2 specialinvoke rec_test_2::$r0.&lt;BasicTest: void &lt;init&gt;()&gt;()&#45;&gt;rec_test_2 rec_test_2::$r2 = rec_test_2::r1.&lt;BasicTest: BasicTest f&gt;</title>
<path fill="none" stroke="black" d="M1257.69,-829.53C1241.65,-824.96 1228.94,-819.21 1223,-812 1202.09,-786.61 1202.15,-689.43 1223,-664 1227.51,-658.5 1236.04,-653.84 1247,-649.91"/>
<polygon fill="black" stroke="black" points="1247.79,-653.33 1256.25,-646.95 1245.66,-646.66 1247.79,-653.33"/>
<text text-anchor="middle" x="1479.5" y="-790.45" font-family="Times,serif" font-size="14.00">[BasicTest.f.in02, BasicTest.REC_TEST_1.in03] =&gt; {rec_test_2::$r0 &#45;&gt; [rec_test_2.new01], </text>
<text text-anchor="middle" x="1479.5" y="-773.95" font-family="Times,serif" font-size="14.00">@parameter0: BasicTest &#45;&gt; [f.new00], </text>
<text text-anchor="middle" x="1479.5" y="-757.45" font-family="Times,serif" font-size="14.00">f::$r0 &#45;&gt; [f.new00], </text>
<text text-anchor="middle" x="1479.5" y="-740.95" font-family="Times,serif" font-size="14.00">REC_TEST_1::$r0 &#45;&gt; [REC_TEST_1.new01], </text>
<text text-anchor="middle" x="1479.5" y="-724.45" font-family="Times,serif" font-size="14.00">REC_TEST_1::r1 &#45;&gt; [f.new00], </text>
<text text-anchor="middle" x="1479.5" y="-707.95" font-family="Times,serif" font-size="14.00">rec_test_2::r1 &#45;&gt; [f.new00], </text>
<text text-anchor="middle" x="1479.5" y="-691.45" font-family="Times,serif" font-size="14.00">}</text>
</g>
<!-- rec_test_2 if rec_test_2::$r2 == null goto staticinvoke &lt;BasicTest: BasicTest rec_test_2(BasicTest)&gt;(rec_test_2::$r0) -->
<g id="node15" class="node">
<title>rec_test_2 if rec_test_2::$r2 == null goto staticinvoke &lt;BasicTest: BasicTest rec_test_2(BasicTest)&gt;(rec_test_2::$r0)</title>
<polygon fill="none" stroke="black" points="1859.88,-442.5 1204.12,-442.5 1204.12,-406.5 1859.88,-406.5 1859.88,-442.5"/>
<text text-anchor="middle" x="1532" y="-419.45" font-family="Times,serif" font-size="14.00">rec_test_2 if rec_test_2::$r2 == null goto staticinvoke &lt;BasicTest: BasicTest rec_test_2(BasicTest)&gt;(rec_test_2::$r0)</text>
</g>
<!-- rec_test_2 rec_test_2::$r2 = rec_test_2::r1.&lt;BasicTest: BasicTest f&gt;&#45;&gt;rec_test_2 if rec_test_2::$r2 == null goto staticinvoke &lt;BasicTest: BasicTest rec_test_2(BasicTest)&gt;(rec_test_2::$r0) -->
<g id="edge12" class="edge">
<title>rec_test_2 rec_test_2::$r2 = rec_test_2::r1.&lt;BasicTest: BasicTest f&gt;&#45;&gt;rec_test_2 if rec_test_2::$r2 == null goto staticinvoke &lt;BasicTest: BasicTest rec_test_2(BasicTest)&gt;(rec_test_2::$r0)</title>
<path fill="none" stroke="black" d="M1373.93,-609.7C1368.69,-604.64 1363.87,-598.66 1361,-592 1337.89,-538.32 1324.05,-505.78 1361,-460.5 1365.51,-454.97 1374.15,-450.29 1385.24,-446.34"/>
<polygon fill="black" stroke="black" points="1386.15,-449.72 1394.62,-443.37 1384.03,-443.05 1386.15,-449.72"/>
<text text-anchor="middle" x="1617.5" y="-578.7" font-family="Times,serif" font-size="14.00">[BasicTest.f.in02, BasicTest.REC_TEST_1.in03] =&gt; {rec_test_2::$r0 &#45;&gt; [rec_test_2.new01], </text>
<text text-anchor="middle" x="1617.5" y="-562.2" font-family="Times,serif" font-size="14.00">@parameter0: BasicTest &#45;&gt; [f.new00], </text>
<text text-anchor="middle" x="1617.5" y="-545.7" font-family="Times,serif" font-size="14.00">f::$r0 &#45;&gt; [f.new00], </text>
<text text-anchor="middle" x="1617.5" y="-529.2" font-family="Times,serif" font-size="14.00">REC_TEST_1::$r0 &#45;&gt; [REC_TEST_1.new01], </text>
<text text-anchor="middle" x="1617.5" y="-512.7" font-family="Times,serif" font-size="14.00">REC_TEST_1::r1 &#45;&gt; [f.new00], </text>
<text text-anchor="middle" x="1617.5" y="-496.2" font-family="Times,serif" font-size="14.00">rec_test_2::r1 &#45;&gt; [f.new00], </text>
<text text-anchor="middle" x="1617.5" y="-479.7" font-family="Times,serif" font-size="14.00">}</text>
</g>
<!-- rec_test_2 return null -->
<g id="node16" class="node">
<title>rec_test_2 return null</title>
<polygon fill="none" stroke="black" points="1336.12,-239 1203.88,-239 1203.88,-203 1336.12,-203 1336.12,-239"/>
<text text-anchor="middle" x="1270" y="-215.95" font-family="Times,serif" font-size="14.00">rec_test_2 return null</text>
</g>
<!-- rec_test_2 if rec_test_2::$r2 == null goto staticinvoke &lt;BasicTest: BasicTest rec_test_2(BasicTest)&gt;(rec_test_2::$r0)&#45;&gt;rec_test_2 return null -->
<g id="edge13" class="edge">
<title>rec_test_2 if rec_test_2::$r2 == null goto staticinvoke &lt;BasicTest: BasicTest rec_test_2(BasicTest)&gt;(rec_test_2::$r0)&#45;&gt;rec_test_2 return null</title>
<path fill="none" stroke="black" d="M1309.83,-406.05C1275.42,-401.25 1249.14,-395.43 1243,-388.5 1204.24,-344.76 1224.14,-312.32 1243,-257 1243.99,-254.1 1245.32,-251.26 1246.87,-248.52"/>
<polygon fill="black" stroke="black" points="1249.64,-250.68 1252.35,-240.43 1243.84,-246.75 1249.64,-250.68"/>
<text text-anchor="middle" x="1499.5" y="-375.2" font-family="Times,serif" font-size="14.00">[BasicTest.f.in02, BasicTest.REC_TEST_1.in03] =&gt; {rec_test_2::$r0 &#45;&gt; [rec_test_2.new01], </text>
<text text-anchor="middle" x="1499.5" y="-358.7" font-family="Times,serif" font-size="14.00">@parameter0: BasicTest &#45;&gt; [f.new00], </text>
<text text-anchor="middle" x="1499.5" y="-342.2" font-family="Times,serif" font-size="14.00">f::$r0 &#45;&gt; [f.new00], </text>
<text text-anchor="middle" x="1499.5" y="-325.7" font-family="Times,serif" font-size="14.00">REC_TEST_1::$r0 &#45;&gt; [REC_TEST_1.new01], </text>
<text text-anchor="middle" x="1499.5" y="-309.2" font-family="Times,serif" font-size="14.00">REC_TEST_1::r1 &#45;&gt; [f.new00], </text>
<text text-anchor="middle" x="1499.5" y="-292.7" font-family="Times,serif" font-size="14.00">rec_test_2::r1 &#45;&gt; [f.new00], </text>
<text text-anchor="middle" x="1499.5" y="-276.2" font-family="Times,serif" font-size="14.00">}</text>
</g>
<!-- rec_test_2 staticinvoke &lt;BasicTest: BasicTest rec_test_2(BasicTest)&gt;(rec_test_2::$r0) -->
<g id="node17" class="node">
<title>rec_test_2 staticinvoke &lt;BasicTest: BasicTest rec_test_2(BasicTest)&gt;(rec_test_2::$r0)</title>
<polygon fill="none" stroke="black" points="1898.12,-239 1411.88,-239 1411.88,-203 1898.12,-203 1898.12,-239"/>
<text text-anchor="middle" x="1655" y="-215.95" font-family="Times,serif" font-size="14.00">rec_test_2 staticinvoke &lt;BasicTest: BasicTest rec_test_2(BasicTest)&gt;(rec_test_2::$r0)</text>
</g>
<!-- rec_test_2 if rec_test_2::$r2 == null goto staticinvoke &lt;BasicTest: BasicTest rec_test_2(BasicTest)&gt;(rec_test_2::$r0)&#45;&gt;rec_test_2 staticinvoke &lt;BasicTest: BasicTest rec_test_2(BasicTest)&gt;(rec_test_2::$r0) -->
<g id="edge14" class="edge">
<title>rec_test_2 if rec_test_2::$r2 == null goto staticinvoke &lt;BasicTest: BasicTest rec_test_2(BasicTest)&gt;(rec_test_2::$r0)&#45;&gt;rec_test_2 staticinvoke &lt;BasicTest: BasicTest rec_test_2(BasicTest)&gt;(rec_test_2::$r0)</title>
<path fill="none" stroke="black" d="M1727.04,-406.03C1742.06,-401.46 1753.81,-395.72 1760,-388.5 1798.06,-344.15 1794.17,-304.41 1760,-257 1756.95,-252.76 1753.36,-249.03 1749.38,-245.75"/>
<polygon fill="black" stroke="black" points="1751.56,-243 1741.36,-240.11 1747.53,-248.73 1751.56,-243"/>
</g>
<!-- rec_test_2 return null&#45;&gt;REC_TEST_1 return REC_TEST_1::$r0 -->
<g id="edge20" class="edge">
<title>rec_test_2 return null&#45;&gt;REC_TEST_1 return REC_TEST_1::$r0</title>
<path fill="none" stroke="black" stroke-dasharray="1,5" d="M1203.4,-211.83C1165.36,-205.99 1122.35,-197.04 1107.5,-185 1063.99,-149.74 1100.92,-103.45 1056,-70 1034.03,-53.64 976.22,-44.92 920,-40.28"/>
<polygon fill="black" stroke="black" points="920.53,-36.81 910.29,-39.52 919.99,-43.79 920.53,-36.81"/>
<text text-anchor="middle" x="1188.75" y="-122.45" font-family="Times,serif" font-size="14.00">BasicTest.REC_TEST_1.in03</text>
</g>
<!-- rec_test_2 return rec_test_2::$r0 -->
<g id="node18" class="node">
<title>rec_test_2 return rec_test_2::$r0</title>
<polygon fill="none" stroke="black" points="1396.12,-52 1203.88,-52 1203.88,-16 1396.12,-16 1396.12,-52"/>
<text text-anchor="middle" x="1300" y="-28.95" font-family="Times,serif" font-size="14.00">rec_test_2 return rec_test_2::$r0</text>
</g>
<!-- rec_test_2 return null&#45;&gt;rec_test_2 return rec_test_2::$r0 -->
<g id="edge19" class="edge">
<title>rec_test_2 return null&#45;&gt;rec_test_2 return rec_test_2::$r0</title>
<path fill="none" stroke="black" stroke-dasharray="1,5" d="M1272.82,-202.6C1277.99,-170.71 1289.03,-102.64 1295.33,-63.77"/>
<polygon fill="black" stroke="black" points="1298.78,-64.42 1296.92,-53.99 1291.87,-63.3 1298.78,-64.42"/>
<text text-anchor="middle" x="1364.12" y="-122.45" font-family="Times,serif" font-size="14.00">BasicTest.rec_test_2.in06</text>
</g>
<!-- rec_test_2 staticinvoke &lt;BasicTest: BasicTest rec_test_2(BasicTest)&gt;(rec_test_2::$r0)&#45;&gt;rec_test_2 rec_test_2::r1 := @parameter0: BasicTest -->
<g id="edge21" class="edge">
<title>rec_test_2 staticinvoke &lt;BasicTest: BasicTest rec_test_2(BasicTest)&gt;(rec_test_2::$r0)&#45;&gt;rec_test_2 rec_test_2::r1 := @parameter0: BasicTest</title>
<path fill="none" stroke="black" stroke-dasharray="1,5" d="M1746.07,-239.42C1757.47,-243.98 1768.46,-249.74 1778,-257 1839.89,-304.11 1844.56,-332.65 1869,-406.5 1894.91,-484.8 1882.06,-509.92 1874,-592 1846.98,-867.29 1958.84,-1017.72 1753,-1202.5 1735.23,-1218.45 1621.14,-1227.38 1519.8,-1232.22"/>
<polygon fill="black" stroke="black" points="1519.8,-1228.71 1509.98,-1232.67 1520.13,-1235.71 1519.8,-1228.71"/>
<text text-anchor="middle" x="1944.12" y="-732.95" font-family="Times,serif" font-size="14.00">BasicTest.rec_test_2.in06</text>
</g>
<!-- rec_test_2 staticinvoke &lt;BasicTest: BasicTest rec_test_2(BasicTest)&gt;(rec_test_2::$r0)&#45;&gt;rec_test_2 return rec_test_2::$r0 -->
<g id="edge15" class="edge">
<title>rec_test_2 staticinvoke &lt;BasicTest: BasicTest rec_test_2(BasicTest)&gt;(rec_test_2::$r0)&#45;&gt;rec_test_2 return rec_test_2::$r0</title>
<path fill="none" stroke="black" d="M1635.25,-202.66C1598.81,-171.54 1517.43,-106.1 1438,-70 1425.75,-64.43 1412.47,-59.65 1399.15,-55.57"/>
<polygon fill="black" stroke="black" points="1400.51,-52.32 1389.93,-52.87 1398.54,-59.04 1400.51,-52.32"/>
</g>
<!-- rec_test_2 return rec_test_2::$r0&#45;&gt;REC_TEST_1 return REC_TEST_1::$r0 -->
<g id="edge23" class="edge">
<title>rec_test_2 return rec_test_2::$r0&#45;&gt;REC_TEST_1 return REC_TEST_1::$r0</title>
<path fill="none" stroke="black" stroke-dasharray="1,5" d="M1203.58,-34C1123.49,-34 1008.76,-34 920.28,-34"/>
<polygon fill="black" stroke="black" points="920.32,-30.5 910.32,-34 920.32,-37.5 920.32,-30.5"/>
<text text-anchor="middle" x="1056.12" y="-40.2" font-family="Times,serif" font-size="14.00">BasicTest.REC_TEST_1.in03</text>
</g>
<!-- rec_test_2 return rec_test_2::$r0&#45;&gt;rec_test_2 return rec_test_2::$r0 -->
<g id="edge22" class="edge">
<title>rec_test_2 return rec_test_2::$r0&#45;&gt;rec_test_2 return rec_test_2::$r0</title>
<path fill="none" stroke="black" stroke-dasharray="1,5" d="M1396.58,-48.75C1407.24,-45.95 1414.12,-41.03 1414.12,-34 1414.12,-29.72 1411.57,-26.22 1407.16,-23.5"/>
<polygon fill="black" stroke="black" points="1408.57,-20.3 1397.99,-19.82 1405.96,-26.79 1408.57,-20.3"/>
<text text-anchor="middle" x="1484.25" y="-28.95" font-family="Times,serif" font-size="14.00">BasicTest.rec_test_2.in06</text>
</g>
</g>
</svg>
