<?xml version="1.0" encoding="UTF-8" standalone="no"?>
<!DOCTYPE svg PUBLIC "-//W3C//DTD SVG 1.1//EN"
 "http://www.w3.org/Graphics/SVG/1.1/DTD/svg11.dtd">
<!-- Generated by graphviz version 9.0.0 (20230911.1827)
 -->
<!-- Title: void f() Pages: 1 -->
<svg width="418pt" height="740pt"
 viewBox="0.00 0.00 417.75 739.50" xmlns="http://www.w3.org/2000/svg" xmlns:xlink="http://www.w3.org/1999/xlink">
<g id="graph0" class="graph" transform="scale(1 1) rotate(0) translate(4 735.5)">
<title>void f()</title>
<polygon fill="white" stroke="none" points="-4,4 -4,-735.5 413.75,-735.5 413.75,4 -4,4"/>
<text text-anchor="middle" x="204.88" y="-7.2" font-family="Times,serif" font-size="14.00">void f()</text>
<!-- 0 -->
<g id="node1" class="node">
<title>0</title>
<polygon fill="gray" stroke="black" points="387.38,-731.5 246.12,-731.5 246.12,-695.5 387.38,-695.5 387.38,-731.5"/>
<text text-anchor="middle" x="316.75" y="-708.45" font-family="Times,serif" font-size="14.00">f::$r0 = new BasicTest</text>
</g>
<!-- 1 -->
<g id="node2" class="node">
<title>1</title>
<polygon fill="none" stroke="black" points="337.38,-627 166.12,-627 166.12,-591 337.38,-591 337.38,-627"/>
<text text-anchor="middle" x="251.75" y="-603.95" font-family="Times,serif" font-size="14.00">specialinvoke f::$r0.&lt;init&gt;()</text>
</g>
<!-- 0&#45;&gt;1 -->
<g id="edge1" class="edge">
<title>0&#45;&gt;1</title>
<path fill="none" stroke="black" d="M305.72,-695.11C295.64,-679.21 280.56,-655.43 268.9,-637.05"/>
<polygon fill="black" stroke="black" points="271.95,-635.32 263.64,-628.75 266.04,-639.07 271.95,-635.32"/>
</g>
<!-- 5 -->
<!-- 0&#45;&gt;5 -->
<g id="edge2" class="edge">
<title>0&#45;&gt;5</title>
<path fill="none" stroke="lightgray" d="M327.95,-695.11C338.19,-679.21 353.5,-655.43 365.33,-637.05"/>
<polygon fill="lightgray" stroke="lightgray" points="368.21,-639.05 370.68,-628.75 362.32,-635.26 368.21,-639.05"/>
<text text-anchor="middle" x="382.62" y="-648.2" font-family="Times,serif" font-size="14.00">+(Error)</text>
</g>
<!-- 2 -->
<g id="node4" class="node">
<title>2</title>
<polygon fill="none" stroke="black" points="305.5,-522.5 0,-522.5 0,-486.5 305.5,-486.5 305.5,-522.5"/>
<text text-anchor="middle" x="152.75" y="-499.45" font-family="Times,serif" font-size="14.00">f::$r1 = staticinvoke BasicTest.REC_TEST_1(f::$r0)</text>
</g>
<!-- 1&#45;&gt;2 -->
<g id="edge3" class="edge">
<title>1&#45;&gt;2</title>
<path fill="none" stroke="black" d="M234.96,-590.61C219.17,-574.27 195.35,-549.6 177.41,-531.03"/>
<polygon fill="black" stroke="black" points="180.14,-528.82 170.68,-524.06 175.11,-533.69 180.14,-528.82"/>
</g>
<!-- 6 -->
<!-- 1&#45;&gt;6 -->
<g id="edge4" class="edge">
<title>1&#45;&gt;6</title>
<path fill="none" stroke="lightgray" d="M268.54,-590.61C284.33,-574.27 308.15,-549.6 326.09,-531.03"/>
<polygon fill="lightgray" stroke="lightgray" points="328.39,-533.69 332.82,-524.06 323.36,-528.82 328.39,-533.69"/>
<text text-anchor="middle" x="354.62" y="-543.7" font-family="Times,serif" font-size="14.00">+(Throwable)</text>
</g>
<!-- 3 -->
<g id="node6" class="node">
<title>3</title>
<polygon fill="none" stroke="black" points="153.25,-418 62.25,-418 62.25,-382 153.25,-382 153.25,-418"/>
<text text-anchor="middle" x="107.75" y="-394.95" font-family="Times,serif" font-size="14.00">f::$r1.f = null</text>
</g>
<!-- 2&#45;&gt;3 -->
<g id="edge5" class="edge">
<title>2&#45;&gt;3</title>
<path fill="none" stroke="black" d="M145.12,-486.11C138.23,-470.43 127.98,-447.09 119.96,-428.82"/>
<polygon fill="black" stroke="black" points="123.25,-427.61 116.03,-419.86 116.84,-430.42 123.25,-427.61"/>
</g>
<!-- 7 -->
<!-- 2&#45;&gt;7 -->
<g id="edge6" class="edge">
<title>2&#45;&gt;7</title>
<path fill="none" stroke="lightgray" d="M160.55,-486.11C167.59,-470.43 178.07,-447.09 186.27,-428.82"/>
<polygon fill="lightgray" stroke="lightgray" points="189.39,-430.41 190.29,-419.85 183,-427.54 189.39,-430.41"/>
<text text-anchor="middle" x="220.62" y="-439.2" font-family="Times,serif" font-size="14.00">+(Throwable)</text>
</g>
<!-- 4 -->
<g id="node8" class="node">
<title>4</title>
<polygon fill="lightgray" stroke="black" points="98.75,-165 44.75,-165 44.75,-129 98.75,-129 98.75,-165"/>
<text text-anchor="middle" x="71.75" y="-141.95" font-family="Times,serif" font-size="14.00">return</text>
</g>
<!-- 3&#45;&gt;4 -->
<g id="edge7" class="edge">
<title>3&#45;&gt;4</title>
<path fill="none" stroke="black" d="M105.28,-381.75C99.17,-339.21 83.36,-228.95 75.84,-176.51"/>
<polygon fill="black" stroke="black" points="79.34,-176.27 74.46,-166.87 72.41,-177.27 79.34,-176.27"/>
</g>
<!-- 8 -->
<!-- 3&#45;&gt;8 -->
<g id="edge8" class="edge">
<title>3&#45;&gt;8</title>
<path fill="none" stroke="lightgray" d="M110.22,-381.75C116.33,-339.21 132.14,-228.95 139.66,-176.51"/>
<polygon fill="lightgray" stroke="lightgray" points="143.09,-177.27 141.04,-166.87 136.16,-176.27 143.09,-177.27"/>
<text text-anchor="start" x="138.75" y="-334.7" font-family="Times,serif" font-size="14.00">+vmErrors</text>
<text text-anchor="start" x="138.75" y="-318.2" font-family="Times,serif" font-size="14.00">+ClassCircularityError</text>
<text text-anchor="start" x="138.75" y="-301.7" font-family="Times,serif" font-size="14.00">+(ClassFormatError)</text>
<text text-anchor="start" x="138.75" y="-285.2" font-family="Times,serif" font-size="14.00">+IllegalAccessError</text>
<text text-anchor="start" x="138.75" y="-268.7" font-family="Times,serif" font-size="14.00">+IncompatibleClassChangeError</text>
<text text-anchor="start" x="138.75" y="-252.2" font-family="Times,serif" font-size="14.00">+LinkageError</text>
<text text-anchor="start" x="138.75" y="-235.7" font-family="Times,serif" font-size="14.00">+NoClassDefFoundError</text>
<text text-anchor="start" x="138.75" y="-219.2" font-family="Times,serif" font-size="14.00">+NoSuchFieldError</text>
<text text-anchor="start" x="138.75" y="-202.7" font-family="Times,serif" font-size="14.00">+NullPointer</text>
<text text-anchor="middle" x="228.38" y="-186.2" font-family="Times,serif" font-size="14.00">+VerifyError</text>
</g>
<!-- 9 -->
<!-- 4&#45;&gt;9 -->
<g id="edge9" class="edge">
<title>4&#45;&gt;9</title>
<path fill="none" stroke="lightgray" d="M71.75,-128.61C71.75,-113.22 71.75,-90.46 71.75,-72.35"/>
<polygon fill="lightgray" stroke="lightgray" points="75.25,-72.49 71.75,-62.49 68.25,-72.49 75.25,-72.49"/>
<text text-anchor="middle" x="101.75" y="-81.7" font-family="Times,serif" font-size="14.00">+vmErrors</text>
</g>
</g>
</svg>
