<?xml version="1.0" encoding="UTF-8" standalone="no"?>
<!DOCTYPE svg PUBLIC "-//W3C//DTD SVG 1.1//EN"
 "http://www.w3.org/Graphics/SVG/1.1/DTD/svg11.dtd">
<!-- Generated by graphviz version 9.0.0 (20230911.1827)
 -->
<!-- Title: void fun1() Pages: 1 -->
<svg width="535pt" height="1158pt"
 viewBox="0.00 0.00 535.38 1157.50" xmlns="http://www.w3.org/2000/svg" xmlns:xlink="http://www.w3.org/1999/xlink">
<g id="graph0" class="graph" transform="scale(1 1) rotate(0) translate(4 1153.5)">
<title>void fun1()</title>
<polygon fill="white" stroke="none" points="-4,4 -4,-1153.5 531.38,-1153.5 531.38,4 -4,4"/>
<text text-anchor="middle" x="263.69" y="-7.2" font-family="Times,serif" font-size="14.00">void fun1()</text>
<!-- 0 -->
<g id="node1" class="node">
<title>0</title>
<polygon fill="gray" stroke="black" points="502,-1149.5 372.75,-1149.5 372.75,-1113.5 502,-1113.5 502,-1149.5"/>
<text text-anchor="middle" x="437.38" y="-1126.45" font-family="Times,serif" font-size="14.00">$r0 = new BasicTest</text>
</g>
<!-- 1 -->
<g id="node2" class="node">
<title>1</title>
<polygon fill="none" stroke="black" points="455,-1045 295.75,-1045 295.75,-1009 455,-1009 455,-1045"/>
<text text-anchor="middle" x="375.38" y="-1021.95" font-family="Times,serif" font-size="14.00">specialinvoke $r0.&lt;init&gt;()</text>
</g>
<!-- 0&#45;&gt;1 -->
<g id="edge1" class="edge">
<title>0&#45;&gt;1</title>
<path fill="none" stroke="black" d="M426.86,-1113.11C417.28,-1097.28 402.99,-1073.65 391.89,-1055.3"/>
<polygon fill="black" stroke="black" points="394.9,-1053.51 386.73,-1046.77 388.91,-1057.14 394.9,-1053.51"/>
</g>
<!-- 10 -->
<!-- 0&#45;&gt;10 -->
<g id="edge2" class="edge">
<title>0&#45;&gt;10</title>
<path fill="none" stroke="lightgray" d="M448.06,-1113.11C457.84,-1097.21 472.45,-1073.43 483.75,-1055.05"/>
<polygon fill="lightgray" stroke="lightgray" points="486.59,-1057.11 488.84,-1046.76 480.62,-1053.45 486.59,-1057.11"/>
<text text-anchor="middle" x="501.25" y="-1066.2" font-family="Times,serif" font-size="14.00">+(Error)</text>
</g>
<!-- 2 -->
<g id="node4" class="node">
<title>2</title>
<polygon fill="none" stroke="black" points="385,-940.5 255.75,-940.5 255.75,-904.5 385,-904.5 385,-940.5"/>
<text text-anchor="middle" x="320.38" y="-917.45" font-family="Times,serif" font-size="14.00">$r1 = new BasicTest</text>
</g>
<!-- 1&#45;&gt;2 -->
<g id="edge3" class="edge">
<title>1&#45;&gt;2</title>
<path fill="none" stroke="black" d="M366.04,-1008.61C357.59,-992.86 344.99,-969.37 335.16,-951.06"/>
<polygon fill="black" stroke="black" points="338.28,-949.46 330.47,-942.31 332.11,-952.77 338.28,-949.46"/>
</g>
<!-- 11 -->
<!-- 1&#45;&gt;11 -->
<g id="edge4" class="edge">
<title>1&#45;&gt;11</title>
<path fill="none" stroke="lightgray" d="M384.71,-1008.61C393.16,-992.86 405.76,-969.37 415.59,-951.06"/>
<polygon fill="lightgray" stroke="lightgray" points="418.64,-952.77 420.28,-942.31 412.47,-949.46 418.64,-952.77"/>
<text text-anchor="middle" x="449.25" y="-961.7" font-family="Times,serif" font-size="14.00">+(Throwable)</text>
</g>
<!-- 3 -->
<g id="node6" class="node">
<title>3</title>
<polygon fill="none" stroke="black" points="338,-836 178.75,-836 178.75,-800 338,-800 338,-836"/>
<text text-anchor="middle" x="258.38" y="-812.95" font-family="Times,serif" font-size="14.00">specialinvoke $r1.&lt;init&gt;()</text>
</g>
<!-- 2&#45;&gt;3 -->
<g id="edge5" class="edge">
<title>2&#45;&gt;3</title>
<path fill="none" stroke="black" d="M309.86,-904.11C300.28,-888.28 285.99,-864.65 274.89,-846.3"/>
<polygon fill="black" stroke="black" points="277.9,-844.51 269.73,-837.77 271.91,-848.14 277.9,-844.51"/>
</g>
<!-- 12 -->
<!-- 2&#45;&gt;12 -->
<g id="edge6" class="edge">
<title>2&#45;&gt;12</title>
<path fill="none" stroke="lightgray" d="M331.06,-904.11C340.84,-888.21 355.45,-864.43 366.75,-846.05"/>
<polygon fill="lightgray" stroke="lightgray" points="369.59,-848.11 371.84,-837.76 363.62,-844.45 369.59,-848.11"/>
<text text-anchor="middle" x="384.25" y="-857.2" font-family="Times,serif" font-size="14.00">+(Error)</text>
</g>
<!-- 4 -->
<g id="node8" class="node">
<title>4</title>
<polygon fill="none" stroke="black" points="273.75,-731.5 125,-731.5 125,-695.5 273.75,-695.5 273.75,-731.5"/>
<text text-anchor="middle" x="199.38" y="-708.45" font-family="Times,serif" font-size="14.00">if $r0 != $r1 goto label1</text>
</g>
<!-- 3&#45;&gt;4 -->
<g id="edge7" class="edge">
<title>3&#45;&gt;4</title>
<path fill="none" stroke="black" d="M248.37,-799.61C239.25,-783.78 225.65,-760.15 215.09,-741.8"/>
<polygon fill="black" stroke="black" points="218.21,-740.21 210.19,-733.28 212.14,-743.7 218.21,-740.21"/>
</g>
<!-- 13 -->
<!-- 3&#45;&gt;13 -->
<g id="edge8" class="edge">
<title>3&#45;&gt;13</title>
<path fill="none" stroke="lightgray" d="M268.55,-799.61C277.82,-783.78 291.65,-760.15 302.39,-741.8"/>
<polygon fill="lightgray" stroke="lightgray" points="305.35,-743.68 307.38,-733.28 299.31,-740.14 305.35,-743.68"/>
<text text-anchor="middle" x="335.25" y="-752.7" font-family="Times,serif" font-size="14.00">+(Throwable)</text>
</g>
<!-- 5 -->
<g id="node10" class="node">
<title>5</title>
<polygon fill="none" stroke="black" points="128.88,-627 67.88,-627 67.88,-591 128.88,-591 128.88,-627"/>
<text text-anchor="middle" x="98.38" y="-603.95" font-family="Times,serif" font-size="14.00">r2 = $r1</text>
</g>
<!-- 4&#45;&gt;5 -->
<g id="edge9" class="edge">
<title>4&#45;&gt;5</title>
<path fill="none" stroke="black" d="M182.24,-695.11C166.14,-678.77 141.83,-654.1 123.53,-635.53"/>
<polygon fill="black" stroke="black" points="126.17,-633.22 116.65,-628.55 121.18,-638.13 126.17,-633.22"/>
</g>
<!-- 7 -->
<g id="node11" class="node">
<title>7</title>
<polygon fill="none" stroke="black" points="251.62,-627 147.12,-627 147.12,-591 251.62,-591 251.62,-627"/>
<text text-anchor="middle" x="199.38" y="-603.95" font-family="Times,serif" font-size="14.00">label1: r2 = null</text>
</g>
<!-- 4&#45;&gt;7 -->
<g id="edge10" class="edge">
<title>4&#45;&gt;7</title>
<path fill="none" stroke="black" d="M199.38,-695.11C199.38,-679.72 199.38,-656.96 199.38,-638.85"/>
<polygon fill="black" stroke="black" points="202.88,-638.99 199.38,-628.99 195.88,-638.99 202.88,-638.99"/>
</g>
<!-- 14 -->
<!-- 4&#45;&gt;14 -->
<g id="edge11" class="edge">
<title>4&#45;&gt;14</title>
<path fill="none" stroke="lightgray" d="M215.83,-695.11C231.23,-678.84 254.43,-654.33 271.98,-635.78"/>
<polygon fill="lightgray" stroke="lightgray" points="274.47,-638.24 278.8,-628.57 269.38,-633.43 274.47,-638.24"/>
<text text-anchor="middle" x="292.38" y="-648.2" font-family="Times,serif" font-size="14.00">+vmErrors</text>
</g>
<!-- 6 -->
<g id="node13" class="node">
<title>6</title>
<polygon fill="none" stroke="black" points="76.75,-522.5 0,-522.5 0,-486.5 76.75,-486.5 76.75,-522.5"/>
<text text-anchor="middle" x="38.38" y="-499.45" font-family="Times,serif" font-size="14.00">goto label2</text>
</g>
<!-- 5&#45;&gt;6 -->
<g id="edge12" class="edge">
<title>5&#45;&gt;6</title>
<path fill="none" stroke="black" d="M88.2,-590.61C78.93,-574.78 65.1,-551.15 54.36,-532.8"/>
<polygon fill="black" stroke="black" points="57.44,-531.14 49.37,-524.28 51.4,-534.68 57.44,-531.14"/>
</g>
<!-- 15 -->
<!-- 5&#45;&gt;15 -->
<g id="edge13" class="edge">
<title>5&#45;&gt;15</title>
<path fill="none" stroke="lightgray" d="M101.72,-590.75C104.43,-577.08 108.42,-557.52 112.38,-540.5 112.88,-538.35 113.41,-536.12 113.96,-533.89"/>
<polygon fill="lightgray" stroke="lightgray" points="117.3,-534.93 116.36,-524.37 110.52,-533.21 117.3,-534.93"/>
<text text-anchor="middle" x="142.38" y="-543.7" font-family="Times,serif" font-size="14.00">+vmErrors</text>
</g>
<!-- 8 -->
<g id="node15" class="node">
<title>8</title>
<polygon fill="none" stroke="black" points="217.25,-418 107.5,-418 107.5,-382 217.25,-382 217.25,-418"/>
<text text-anchor="middle" x="162.38" y="-394.95" font-family="Times,serif" font-size="14.00">label2: $r1.f = r2</text>
</g>
<!-- 7&#45;&gt;8 -->
<g id="edge16" class="edge">
<title>7&#45;&gt;8</title>
<path fill="none" stroke="black" d="M196.28,-590.71C189.92,-555.09 175.29,-473.24 167.49,-429.61"/>
<polygon fill="black" stroke="black" points="170.95,-429.11 165.75,-419.88 164.06,-430.34 170.95,-429.11"/>
</g>
<!-- 17 -->
<!-- 7&#45;&gt;17 -->
<g id="edge17" class="edge">
<title>7&#45;&gt;17</title>
<path fill="none" stroke="lightgray" d="M206.5,-590.61C212.9,-575 222.4,-551.81 229.87,-533.57"/>
<polygon fill="lightgray" stroke="lightgray" points="233.09,-534.95 233.64,-524.37 226.61,-532.3 233.09,-534.95"/>
<text text-anchor="middle" x="257.38" y="-543.7" font-family="Times,serif" font-size="14.00">+vmErrors</text>
</g>
<!-- 6&#45;&gt;8 -->
<g id="edge14" class="edge">
<title>6&#45;&gt;8</title>
<path fill="none" stroke="black" d="M75.29,-486.12C84.53,-481.03 94.15,-475.05 102.38,-468.5 117.43,-456.52 131.83,-440.52 142.75,-427.1"/>
<polygon fill="black" stroke="black" points="145.31,-429.51 148.78,-419.5 139.83,-425.16 145.31,-429.51"/>
</g>
<!-- 16 -->
<!-- 6&#45;&gt;16 -->
<g id="edge15" class="edge">
<title>6&#45;&gt;16</title>
<path fill="none" stroke="lightgray" d="M38.38,-486.11C38.38,-470.72 38.38,-447.96 38.38,-429.85"/>
<polygon fill="lightgray" stroke="lightgray" points="41.88,-429.99 38.38,-419.99 34.88,-429.99 41.88,-429.99"/>
<text text-anchor="middle" x="68.38" y="-439.2" font-family="Times,serif" font-size="14.00">+vmErrors</text>
</g>
<!-- 9 -->
<g id="node18" class="node">
<title>9</title>
<polygon fill="lightgray" stroke="black" points="143.38,-165 89.38,-165 89.38,-129 143.38,-129 143.38,-165"/>
<text text-anchor="middle" x="116.38" y="-141.95" font-family="Times,serif" font-size="14.00">return</text>
</g>
<!-- 8&#45;&gt;9 -->
<g id="edge18" class="edge">
<title>8&#45;&gt;9</title>
<path fill="none" stroke="black" d="M159.21,-381.75C151.42,-339.21 131.21,-228.95 121.6,-176.51"/>
<polygon fill="black" stroke="black" points="125.08,-176.07 119.83,-166.86 118.19,-177.33 125.08,-176.07"/>
</g>
<!-- 18 -->
<!-- 8&#45;&gt;18 -->
<g id="edge19" class="edge">
<title>8&#45;&gt;18</title>
<path fill="none" stroke="lightgray" d="M164.16,-381.75C168.57,-339.21 179.99,-228.95 185.42,-176.51"/>
<polygon fill="lightgray" stroke="lightgray" points="188.87,-177.19 186.42,-166.88 181.91,-176.46 188.87,-177.19"/>
<text text-anchor="start" x="185.38" y="-334.7" font-family="Times,serif" font-size="14.00">+vmErrors</text>
<text text-anchor="start" x="185.38" y="-318.2" font-family="Times,serif" font-size="14.00">+ClassCircularityError</text>
<text text-anchor="start" x="185.38" y="-301.7" font-family="Times,serif" font-size="14.00">+(ClassFormatError)</text>
<text text-anchor="start" x="185.38" y="-285.2" font-family="Times,serif" font-size="14.00">+IllegalAccessError</text>
<text text-anchor="start" x="185.38" y="-268.7" font-family="Times,serif" font-size="14.00">+IncompatibleClassChangeError</text>
<text text-anchor="start" x="185.38" y="-252.2" font-family="Times,serif" font-size="14.00">+LinkageError</text>
<text text-anchor="start" x="185.38" y="-235.7" font-family="Times,serif" font-size="14.00">+NoClassDefFoundError</text>
<text text-anchor="start" x="185.38" y="-219.2" font-family="Times,serif" font-size="14.00">+NoSuchFieldError</text>
<text text-anchor="start" x="185.38" y="-202.7" font-family="Times,serif" font-size="14.00">+NullPointer</text>
<text text-anchor="middle" x="275" y="-186.2" font-family="Times,serif" font-size="14.00">+VerifyError</text>
</g>
<!-- 19 -->
<!-- 9&#45;&gt;19 -->
<g id="edge20" class="edge">
<title>9&#45;&gt;19</title>
<path fill="none" stroke="lightgray" d="M116.38,-128.61C116.38,-113.22 116.38,-90.46 116.38,-72.35"/>
<polygon fill="lightgray" stroke="lightgray" points="119.88,-72.49 116.38,-62.49 112.88,-72.49 119.88,-72.49"/>
<text text-anchor="middle" x="146.38" y="-81.7" font-family="Times,serif" font-size="14.00">+vmErrors</text>
</g>
</g>
</svg>
