<?xml version="1.0" encoding="UTF-8" standalone="no"?>
<!DOCTYPE svg PUBLIC "-//W3C//DTD SVG 1.1//EN"
 "http://www.w3.org/Graphics/SVG/1.1/DTD/svg11.dtd">
<!-- Generated by graphviz version 9.0.0 (20230911.1827)
 -->
<!-- Title: void test1() Pages: 1 -->
<svg width="725pt" height="1158pt"
 viewBox="0.00 0.00 725.12 1157.50" xmlns="http://www.w3.org/2000/svg" xmlns:xlink="http://www.w3.org/1999/xlink">
<g id="graph0" class="graph" transform="scale(1 1) rotate(0) translate(4 1153.5)">
<title>void test1()</title>
<polygon fill="white" stroke="none" points="-4,4 -4,-1153.5 721.12,-1153.5 721.12,4 -4,4"/>
<text text-anchor="middle" x="358.56" y="-7.2" font-family="Times,serif" font-size="14.00">void test1()</text>
<!-- 0 -->
<g id="node1" class="node">
<title>0</title>
<polygon fill="gray" stroke="black" points="695.75,-1149.5 542.5,-1149.5 542.5,-1113.5 695.75,-1113.5 695.75,-1149.5"/>
<text text-anchor="middle" x="619.12" y="-1126.45" font-family="Times,serif" font-size="14.00">test1::$r0 = new PubTest</text>
</g>
<!-- 1 -->
<g id="node2" class="node">
<title>1</title>
<polygon fill="none" stroke="black" points="645.25,-1045 453,-1045 453,-1009 645.25,-1009 645.25,-1045"/>
<text text-anchor="middle" x="549.12" y="-1021.95" font-family="Times,serif" font-size="14.00">specialinvoke test1::$r0.&lt;init&gt;()</text>
</g>
<!-- 0&#45;&gt;1 -->
<g id="edge1" class="edge">
<title>0&#45;&gt;1</title>
<path fill="none" stroke="black" d="M607.25,-1113.11C596.34,-1097.14 580,-1073.21 567.42,-1054.79"/>
<polygon fill="black" stroke="black" points="570.44,-1053.01 561.91,-1046.72 564.66,-1056.95 570.44,-1053.01"/>
</g>
<!-- 9 -->
<!-- 0&#45;&gt;9 -->
<g id="edge2" class="edge">
<title>0&#45;&gt;9</title>
<path fill="none" stroke="lightgray" d="M631.17,-1113.11C642.24,-1097.14 658.81,-1073.21 671.57,-1054.79"/>
<polygon fill="lightgray" stroke="lightgray" points="674.34,-1056.93 677.16,-1046.72 668.59,-1052.94 674.34,-1056.93"/>
<text text-anchor="middle" x="689" y="-1066.2" font-family="Times,serif" font-size="14.00">+(Error)</text>
</g>
<!-- 2 -->
<g id="node4" class="node">
<title>2</title>
<polygon fill="none" stroke="black" points="564.75,-940.5 411.5,-940.5 411.5,-904.5 564.75,-904.5 564.75,-940.5"/>
<text text-anchor="middle" x="488.12" y="-917.45" font-family="Times,serif" font-size="14.00">test1::$r1 = new PubTest</text>
</g>
<!-- 1&#45;&gt;2 -->
<g id="edge3" class="edge">
<title>1&#45;&gt;2</title>
<path fill="none" stroke="black" d="M538.78,-1008.61C529.36,-992.78 515.29,-969.15 504.37,-950.8"/>
<polygon fill="black" stroke="black" points="507.42,-949.08 499.3,-942.27 501.4,-952.66 507.42,-949.08"/>
</g>
<!-- 10 -->
<!-- 1&#45;&gt;10 -->
<g id="edge4" class="edge">
<title>1&#45;&gt;10</title>
<path fill="none" stroke="lightgray" d="M559.47,-1008.61C568.89,-992.78 582.96,-969.15 593.88,-950.8"/>
<polygon fill="lightgray" stroke="lightgray" points="596.85,-952.66 598.95,-942.27 590.83,-949.08 596.85,-952.66"/>
<text text-anchor="middle" x="627" y="-961.7" font-family="Times,serif" font-size="14.00">+(Throwable)</text>
</g>
<!-- 3 -->
<g id="node6" class="node">
<title>3</title>
<polygon fill="none" stroke="black" points="514.25,-836 322,-836 322,-800 514.25,-800 514.25,-836"/>
<text text-anchor="middle" x="418.12" y="-812.95" font-family="Times,serif" font-size="14.00">specialinvoke test1::$r1.&lt;init&gt;()</text>
</g>
<!-- 2&#45;&gt;3 -->
<g id="edge5" class="edge">
<title>2&#45;&gt;3</title>
<path fill="none" stroke="black" d="M476.25,-904.11C465.34,-888.14 449,-864.21 436.42,-845.79"/>
<polygon fill="black" stroke="black" points="439.44,-844.01 430.91,-837.72 433.66,-847.95 439.44,-844.01"/>
</g>
<!-- 11 -->
<!-- 2&#45;&gt;11 -->
<g id="edge6" class="edge">
<title>2&#45;&gt;11</title>
<path fill="none" stroke="lightgray" d="M500.17,-904.11C511.24,-888.14 527.81,-864.21 540.57,-845.79"/>
<polygon fill="lightgray" stroke="lightgray" points="543.34,-847.93 546.16,-837.72 537.59,-843.94 543.34,-847.93"/>
<text text-anchor="middle" x="558" y="-857.2" font-family="Times,serif" font-size="14.00">+(Error)</text>
</g>
<!-- 4 -->
<g id="node8" class="node">
<title>4</title>
<polygon fill="none" stroke="black" points="431.12,-731.5 289.12,-731.5 289.12,-695.5 431.12,-695.5 431.12,-731.5"/>
<text text-anchor="middle" x="360.12" y="-708.45" font-family="Times,serif" font-size="14.00">test1::$r0.f = test1::$r1</text>
</g>
<!-- 3&#45;&gt;4 -->
<g id="edge7" class="edge">
<title>3&#45;&gt;4</title>
<path fill="none" stroke="black" d="M408.29,-799.61C399.33,-783.78 385.96,-760.15 375.57,-741.8"/>
<polygon fill="black" stroke="black" points="378.73,-740.27 370.76,-733.29 372.64,-743.72 378.73,-740.27"/>
</g>
<!-- 12 -->
<!-- 3&#45;&gt;12 -->
<g id="edge8" class="edge">
<title>3&#45;&gt;12</title>
<path fill="none" stroke="lightgray" d="M427.96,-799.61C436.92,-783.78 450.29,-760.15 460.68,-741.8"/>
<polygon fill="lightgray" stroke="lightgray" points="463.61,-743.72 465.49,-733.29 457.52,-740.27 463.61,-743.72"/>
<text text-anchor="middle" x="494" y="-752.7" font-family="Times,serif" font-size="14.00">+(Throwable)</text>
</g>
<!-- 5 -->
<g id="node10" class="node">
<title>5</title>
<polygon fill="none" stroke="black" points="375.75,-478.5 222.5,-478.5 222.5,-442.5 375.75,-442.5 375.75,-478.5"/>
<text text-anchor="middle" x="299.12" y="-455.45" font-family="Times,serif" font-size="14.00">test1::$r2 = new PubTest</text>
</g>
<!-- 4&#45;&gt;5 -->
<g id="edge9" class="edge">
<title>4&#45;&gt;5</title>
<path fill="none" stroke="black" d="M355.93,-695.25C345.59,-652.71 318.8,-542.45 306.05,-490.01"/>
<polygon fill="black" stroke="black" points="309.47,-489.23 303.7,-480.34 302.67,-490.89 309.47,-489.23"/>
</g>
<!-- 13 -->
<!-- 4&#45;&gt;13 -->
<g id="edge10" class="edge">
<title>4&#45;&gt;13</title>
<path fill="none" stroke="lightgray" d="M364.32,-695.25C374.66,-652.71 401.45,-542.45 414.2,-490.01"/>
<polygon fill="lightgray" stroke="lightgray" points="417.58,-490.89 416.55,-480.34 410.78,-489.23 417.58,-490.89"/>
<text text-anchor="start" x="413.12" y="-648.2" font-family="Times,serif" font-size="14.00">+vmErrors</text>
<text text-anchor="start" x="413.12" y="-631.7" font-family="Times,serif" font-size="14.00">+ClassCircularityError</text>
<text text-anchor="start" x="413.12" y="-615.2" font-family="Times,serif" font-size="14.00">+(ClassFormatError)</text>
<text text-anchor="start" x="413.12" y="-598.7" font-family="Times,serif" font-size="14.00">+IllegalAccessError</text>
<text text-anchor="start" x="413.12" y="-582.2" font-family="Times,serif" font-size="14.00">+IncompatibleClassChangeError</text>
<text text-anchor="start" x="413.12" y="-565.7" font-family="Times,serif" font-size="14.00">+LinkageError</text>
<text text-anchor="start" x="413.12" y="-549.2" font-family="Times,serif" font-size="14.00">+NoClassDefFoundError</text>
<text text-anchor="start" x="413.12" y="-532.7" font-family="Times,serif" font-size="14.00">+NoSuchFieldError</text>
<text text-anchor="start" x="413.12" y="-516.2" font-family="Times,serif" font-size="14.00">+NullPointer</text>
<text text-anchor="middle" x="502.75" y="-499.7" font-family="Times,serif" font-size="14.00">+VerifyError</text>
</g>
<!-- 6 -->
<g id="node12" class="node">
<title>6</title>
<polygon fill="none" stroke="black" points="325.25,-374 133,-374 133,-338 325.25,-338 325.25,-374"/>
<text text-anchor="middle" x="229.12" y="-350.95" font-family="Times,serif" font-size="14.00">specialinvoke test1::$r2.&lt;init&gt;()</text>
</g>
<!-- 5&#45;&gt;6 -->
<g id="edge11" class="edge">
<title>5&#45;&gt;6</title>
<path fill="none" stroke="black" d="M287.25,-442.11C276.34,-426.14 260,-402.21 247.42,-383.79"/>
<polygon fill="black" stroke="black" points="250.44,-382.01 241.91,-375.72 244.66,-385.95 250.44,-382.01"/>
</g>
<!-- 14 -->
<!-- 5&#45;&gt;14 -->
<g id="edge12" class="edge">
<title>5&#45;&gt;14</title>
<path fill="none" stroke="lightgray" d="M311.17,-442.11C322.24,-426.14 338.81,-402.21 351.57,-383.79"/>
<polygon fill="lightgray" stroke="lightgray" points="354.34,-385.93 357.16,-375.72 348.59,-381.94 354.34,-385.93"/>
<text text-anchor="middle" x="369" y="-395.2" font-family="Times,serif" font-size="14.00">+(Error)</text>
</g>
<!-- 7 -->
<g id="node14" class="node">
<title>7</title>
<polygon fill="none" stroke="black" points="276.25,-269.5 0,-269.5 0,-233.5 276.25,-233.5 276.25,-269.5"/>
<text text-anchor="middle" x="138.12" y="-246.45" font-family="Times,serif" font-size="14.00">staticinvoke PubTest.foo1(test1::$r0, test1::$r2)</text>
</g>
<!-- 6&#45;&gt;7 -->
<g id="edge13" class="edge">
<title>6&#45;&gt;7</title>
<path fill="none" stroke="black" d="M213.69,-337.61C199.31,-321.41 177.67,-297.05 161.24,-278.53"/>
<polygon fill="black" stroke="black" points="163.9,-276.26 154.64,-271.1 158.66,-280.91 163.9,-276.26"/>
</g>
<!-- 15 -->
<!-- 6&#45;&gt;15 -->
<g id="edge14" class="edge">
<title>6&#45;&gt;15</title>
<path fill="none" stroke="lightgray" d="M244.73,-337.61C259.27,-321.41 281.14,-297.05 297.76,-278.53"/>
<polygon fill="lightgray" stroke="lightgray" points="300.36,-280.88 304.43,-271.1 295.15,-276.2 300.36,-280.88"/>
<text text-anchor="middle" x="327" y="-290.7" font-family="Times,serif" font-size="14.00">+(Throwable)</text>
</g>
<!-- 8 -->
<g id="node16" class="node">
<title>8</title>
<polygon fill="lightgray" stroke="black" points="129.12,-165 75.12,-165 75.12,-129 129.12,-129 129.12,-165"/>
<text text-anchor="middle" x="102.12" y="-141.95" font-family="Times,serif" font-size="14.00">return</text>
</g>
<!-- 7&#45;&gt;8 -->
<g id="edge15" class="edge">
<title>7&#45;&gt;8</title>
<path fill="none" stroke="black" d="M132.02,-233.11C126.56,-217.58 118.47,-194.53 112.08,-176.33"/>
<polygon fill="black" stroke="black" points="115.38,-175.18 108.76,-166.9 108.77,-177.5 115.38,-175.18"/>
</g>
<!-- 16 -->
<!-- 7&#45;&gt;16 -->
<g id="edge16" class="edge">
<title>7&#45;&gt;16</title>
<path fill="none" stroke="lightgray" d="M144.23,-233.11C149.69,-217.58 157.78,-194.53 164.17,-176.33"/>
<polygon fill="lightgray" stroke="lightgray" points="167.48,-177.5 167.49,-166.9 160.87,-175.18 167.48,-177.5"/>
<text text-anchor="middle" x="200" y="-186.2" font-family="Times,serif" font-size="14.00">+(Throwable)</text>
</g>
<!-- 17 -->
<!-- 8&#45;&gt;17 -->
<g id="edge17" class="edge">
<title>8&#45;&gt;17</title>
<path fill="none" stroke="lightgray" d="M102.12,-128.61C102.12,-113.22 102.12,-90.46 102.12,-72.35"/>
<polygon fill="lightgray" stroke="lightgray" points="105.63,-72.49 102.13,-62.49 98.63,-72.49 105.63,-72.49"/>
<text text-anchor="middle" x="132.12" y="-81.7" font-family="Times,serif" font-size="14.00">+vmErrors</text>
</g>
</g>
</svg>
