<?xml version="1.0" encoding="UTF-8" standalone="no"?>
<!DOCTYPE svg PUBLIC "-//W3C//DTD SVG 1.1//EN"
 "http://www.w3.org/Graphics/SVG/1.1/DTD/svg11.dtd">
<!-- Generated by graphviz version 9.0.0 (20230911.1827)
 -->
<!-- Title: G Pages: 1 -->
<svg width="2751pt" height="1402pt"
 viewBox="0.00 0.00 2751.00 1401.50" xmlns="http://www.w3.org/2000/svg" xmlns:xlink="http://www.w3.org/1999/xlink">
<g id="graph0" class="graph" transform="scale(1 1) rotate(0) translate(4 1397.5)">
<title>G</title>
<polygon fill="white" stroke="none" points="-4,4 -4,-1397.5 2747,-1397.5 2747,4 -4,4"/>
<g id="clust1" class="cluster">
<title>cluster_0</title>
<polygon fill="none" stroke="black" points="8,-602 8,-1385.5 478,-1385.5 478,-602 8,-602"/>
</g>
<g id="clust2" class="cluster">
<title>cluster_1</title>
<polygon fill="none" stroke="black" points="486,-8 486,-874 1028,-874 1028,-8 486,-8"/>
</g>
<g id="clust3" class="cluster">
<title>cluster_2</title>
<polygon fill="none" stroke="black" points="1548,-8 1548,-1264.5 2634,-1264.5 2634,-8 1548,-8"/>
</g>
<!-- f f::$r0 = new BasicTest -->
<g id="node1" class="node">
<title>f f::$r0 = new BasicTest</title>
<polygon fill="none" stroke="black" points="317.75,-1377.5 168.25,-1377.5 168.25,-1341.5 317.75,-1341.5 317.75,-1377.5"/>
<text text-anchor="middle" x="243" y="-1354.45" font-family="Times,serif" font-size="14.00">f f::$r0 = new BasicTest</text>
</g>
<!-- f specialinvoke f::$r0.&lt;BasicTest: void &lt;init&gt;()&gt;() -->
<g id="node2" class="node">
<title>f specialinvoke f::$r0.&lt;BasicTest: void &lt;init&gt;()&gt;()</title>
<polygon fill="none" stroke="black" points="389.75,-1256.5 96.25,-1256.5 96.25,-1220.5 389.75,-1220.5 389.75,-1256.5"/>
<text text-anchor="middle" x="243" y="-1233.45" font-family="Times,serif" font-size="14.00">f specialinvoke f::$r0.&lt;BasicTest: void &lt;init&gt;()&gt;()</text>
</g>
<!-- f f::$r0 = new BasicTest&#45;&gt;f specialinvoke f::$r0.&lt;BasicTest: void &lt;init&gt;()&gt;() -->
<g id="edge1" class="edge">
<title>f f::$r0 = new BasicTest&#45;&gt;f specialinvoke f::$r0.&lt;BasicTest: void &lt;init&gt;()&gt;()</title>
<path fill="none" stroke="black" d="M243,-1341.2C243,-1322.07 243,-1290.96 243,-1268.18"/>
<polygon fill="black" stroke="black" points="246.5,-1268.34 243,-1258.34 239.5,-1268.34 246.5,-1268.34"/>
<text text-anchor="start" x="243" y="-1310.2" font-family="Times,serif" font-size="14.00">[] =&gt; {f::$r0 &#45;&gt; [f.new00], </text>
<text text-anchor="start" x="243" y="-1293.7" font-family="Times,serif" font-size="14.00">}</text>
</g>
<!-- f f::$r1 = staticinvoke &lt;BasicTest: BasicTest REC_TEST_1(BasicTest)&gt;(f::$r0) -->
<g id="node3" class="node">
<title>f f::$r1 = staticinvoke &lt;BasicTest: BasicTest REC_TEST_1(BasicTest)&gt;(f::$r0)</title>
<polygon fill="none" stroke="black" points="469.62,-1069.5 16.38,-1069.5 16.38,-1033.5 469.62,-1033.5 469.62,-1069.5"/>
<text text-anchor="middle" x="243" y="-1046.45" font-family="Times,serif" font-size="14.00">f f::$r1 = staticinvoke &lt;BasicTest: BasicTest REC_TEST_1(BasicTest)&gt;(f::$r0)</text>
</g>
<!-- f specialinvoke f::$r0.&lt;BasicTest: void &lt;init&gt;()&gt;()&#45;&gt;f f::$r1 = staticinvoke &lt;BasicTest: BasicTest REC_TEST_1(BasicTest)&gt;(f::$r0) -->
<g id="edge2" class="edge">
<title>f specialinvoke f::$r0.&lt;BasicTest: void &lt;init&gt;()&gt;()&#45;&gt;f f::$r1 = staticinvoke &lt;BasicTest: BasicTest REC_TEST_1(BasicTest)&gt;(f::$r0)</title>
<path fill="none" stroke="black" d="M243,-1220.1C243,-1188.21 243,-1120.14 243,-1081.27"/>
<polygon fill="black" stroke="black" points="246.5,-1081.51 243,-1071.51 239.5,-1081.51 246.5,-1081.51"/>
<text text-anchor="start" x="243" y="-1156.2" font-family="Times,serif" font-size="14.00">[] =&gt; {f::$r0 &#45;&gt; [f.new00], </text>
<text text-anchor="start" x="243" y="-1139.7" font-family="Times,serif" font-size="14.00">}</text>
</g>
<!-- f f::$r1.&lt;BasicTest: BasicTest f&gt; = null -->
<g id="node4" class="node">
<title>f f::$r1.&lt;BasicTest: BasicTest f&gt; = null</title>
<polygon fill="none" stroke="black" points="326.75,-866 93.25,-866 93.25,-830 326.75,-830 326.75,-866"/>
<text text-anchor="middle" x="210" y="-842.95" font-family="Times,serif" font-size="14.00">f f::$r1.&lt;BasicTest: BasicTest f&gt; = null</text>
</g>
<!-- f f::$r1 = staticinvoke &lt;BasicTest: BasicTest REC_TEST_1(BasicTest)&gt;(f::$r0)&#45;&gt;f f::$r1.&lt;BasicTest: BasicTest f&gt; = null -->
<g id="edge3" class="edge">
<title>f f::$r1 = staticinvoke &lt;BasicTest: BasicTest REC_TEST_1(BasicTest)&gt;(f::$r0)&#45;&gt;f f::$r1.&lt;BasicTest: BasicTest f&gt; = null</title>
<path fill="none" stroke="black" d="M240.19,-1033.32C234.51,-998.68 221.65,-920.16 214.69,-877.64"/>
<polygon fill="black" stroke="black" points="218.17,-877.22 213.1,-867.92 211.26,-878.35 218.17,-877.22"/>
<text text-anchor="start" x="237" y="-1002.2" font-family="Times,serif" font-size="14.00">[] =&gt; {rec_test_2::$r0 &#45;&gt; [rec_test_2.new01], </text>
<text text-anchor="start" x="237" y="-985.7" font-family="Times,serif" font-size="14.00">f::$r0 &#45;&gt; [f.new00], </text>
<text text-anchor="start" x="237" y="-969.2" font-family="Times,serif" font-size="14.00">REC_TEST_1::$r0 &#45;&gt; [REC_TEST_1.new01], </text>
<text text-anchor="start" x="237" y="-952.7" font-family="Times,serif" font-size="14.00">f::$r1 &#45;&gt; [REC_TEST_1.new01], </text>
<text text-anchor="start" x="237" y="-936.2" font-family="Times,serif" font-size="14.00">REC_TEST_1::r1 &#45;&gt; [f.new00], </text>
<text text-anchor="start" x="237" y="-919.7" font-family="Times,serif" font-size="14.00">rec_test_2::r1 &#45;&gt; [f.new00], </text>
<text text-anchor="start" x="237" y="-903.2" font-family="Times,serif" font-size="14.00">}</text>
</g>
<!-- REC_TEST_1 REC_TEST_1::r1 := @parameter0: BasicTest -->
<g id="node6" class="node">
<title>REC_TEST_1 REC_TEST_1::r1 := @parameter0: BasicTest</title>
<polygon fill="none" stroke="black" points="844.25,-866 493.75,-866 493.75,-830 844.25,-830 844.25,-866"/>
<text text-anchor="middle" x="669" y="-842.95" font-family="Times,serif" font-size="14.00">REC_TEST_1 REC_TEST_1::r1 := @parameter0: BasicTest</text>
</g>
<!-- f f::$r1 = staticinvoke &lt;BasicTest: BasicTest REC_TEST_1(BasicTest)&gt;(f::$r0)&#45;&gt;REC_TEST_1 REC_TEST_1::r1 := @parameter0: BasicTest -->
<g id="edge16" class="edge">
<title>f f::$r1 = staticinvoke &lt;BasicTest: BasicTest REC_TEST_1(BasicTest)&gt;(f::$r0)&#45;&gt;REC_TEST_1 REC_TEST_1::r1 := @parameter0: BasicTest</title>
<path fill="none" stroke="black" stroke-dasharray="1,5" d="M429.82,-1033.03C459.86,-1028.3 485.75,-1022.5 500,-1015.5 566.8,-982.68 623.49,-913.25 651.07,-875.23"/>
<polygon fill="black" stroke="black" points="653.61,-877.69 656.56,-867.52 647.91,-873.63 653.61,-877.69"/>
<text text-anchor="middle" x="815.5" y="-977.45" font-family="Times,serif" font-size="14.00">BasicTest.f.in02</text>
<text text-anchor="start" x="643" y="-960.95" font-family="Times,serif" font-size="14.00">[BasicTest.f.in02] =&gt; {@parameter0: BasicTest &#45;&gt; [f.new00], </text>
<text text-anchor="start" x="643" y="-944.45" font-family="Times,serif" font-size="14.00">f::$r0 &#45;&gt; [f.new00], </text>
<text text-anchor="start" x="643" y="-927.95" font-family="Times,serif" font-size="14.00">}</text>
</g>
<!-- f return -->
<g id="node5" class="node">
<title>f return</title>
<polygon fill="none" stroke="black" points="261.25,-646 204.75,-646 204.75,-610 261.25,-610 261.25,-646"/>
<text text-anchor="middle" x="233" y="-622.95" font-family="Times,serif" font-size="14.00">f return</text>
</g>
<!-- f f::$r1.&lt;BasicTest: BasicTest f&gt; = null&#45;&gt;f return -->
<g id="edge4" class="edge">
<title>f f::$r1.&lt;BasicTest: BasicTest f&gt; = null&#45;&gt;f return</title>
<path fill="none" stroke="black" d="M209.9,-829.69C210,-797.02 211.56,-724.16 222.5,-664 222.9,-661.8 223.39,-659.54 223.93,-657.28"/>
<polygon fill="black" stroke="black" points="227.29,-658.29 226.58,-647.72 220.54,-656.42 227.29,-658.29"/>
<text text-anchor="start" x="223" y="-798.7" font-family="Times,serif" font-size="14.00">[] =&gt; {rec_test_2::$r0 &#45;&gt; [rec_test_2.new01], </text>
<text text-anchor="start" x="223" y="-782.2" font-family="Times,serif" font-size="14.00">f::$r0 &#45;&gt; [f.new00], </text>
<text text-anchor="start" x="223" y="-765.7" font-family="Times,serif" font-size="14.00">REC_TEST_1::$r0 &#45;&gt; [REC_TEST_1.new01], </text>
<text text-anchor="start" x="223" y="-749.2" font-family="Times,serif" font-size="14.00">f::$r1 &#45;&gt; [REC_TEST_1.new01], </text>
<text text-anchor="start" x="223" y="-732.7" font-family="Times,serif" font-size="14.00">REC_TEST_1::r1 &#45;&gt; [f.new00], </text>
<text text-anchor="start" x="223" y="-716.2" font-family="Times,serif" font-size="14.00">rec_test_2::r1 &#45;&gt; [f.new00], </text>
<text text-anchor="start" x="223" y="-699.7" font-family="Times,serif" font-size="14.00">REC_TEST_1.new01.f &#45;&gt; [null]</text>
<text text-anchor="start" x="223" y="-683.2" font-family="Times,serif" font-size="14.00">}</text>
</g>
<!-- REC_TEST_1 REC_TEST_1::$r0 = new BasicTest -->
<g id="node7" class="node">
<title>REC_TEST_1 REC_TEST_1::$r0 = new BasicTest</title>
<polygon fill="none" stroke="black" points="818,-646 520,-646 520,-610 818,-610 818,-646"/>
<text text-anchor="middle" x="669" y="-622.95" font-family="Times,serif" font-size="14.00">REC_TEST_1 REC_TEST_1::$r0 = new BasicTest</text>
</g>
<!-- REC_TEST_1 REC_TEST_1::r1 := @parameter0: BasicTest&#45;&gt;REC_TEST_1 REC_TEST_1::$r0 = new BasicTest -->
<g id="edge5" class="edge">
<title>REC_TEST_1 REC_TEST_1::r1 := @parameter0: BasicTest&#45;&gt;REC_TEST_1 REC_TEST_1::$r0 = new BasicTest</title>
<path fill="none" stroke="black" d="M668.4,-829.56C668.24,-823.95 668.08,-817.71 668,-812 667.06,-746.23 667.06,-729.77 668,-664 668.03,-661.95 668.07,-659.83 668.11,-657.69"/>
<polygon fill="black" stroke="black" points="671.61,-658.04 668.36,-647.96 664.61,-657.86 671.61,-658.04"/>
<text text-anchor="start" x="668" y="-765.7" font-family="Times,serif" font-size="14.00">[BasicTest.f.in02] =&gt; {@parameter0: BasicTest &#45;&gt; [f.new00], </text>
<text text-anchor="start" x="668" y="-749.2" font-family="Times,serif" font-size="14.00">f::$r0 &#45;&gt; [f.new00], </text>
<text text-anchor="start" x="668" y="-732.7" font-family="Times,serif" font-size="14.00">REC_TEST_1::r1 &#45;&gt; [f.new00], </text>
<text text-anchor="start" x="668" y="-716.2" font-family="Times,serif" font-size="14.00">}</text>
</g>
<!-- REC_TEST_1 specialinvoke REC_TEST_1::$r0.&lt;BasicTest: void &lt;init&gt;()&gt;() -->
<g id="node8" class="node">
<title>REC_TEST_1 specialinvoke REC_TEST_1::$r0.&lt;BasicTest: void &lt;init&gt;()&gt;()</title>
<polygon fill="none" stroke="black" points="936,-442.5 494,-442.5 494,-406.5 936,-406.5 936,-442.5"/>
<text text-anchor="middle" x="715" y="-419.45" font-family="Times,serif" font-size="14.00">REC_TEST_1 specialinvoke REC_TEST_1::$r0.&lt;BasicTest: void &lt;init&gt;()&gt;()</text>
</g>
<!-- REC_TEST_1 REC_TEST_1::$r0 = new BasicTest&#45;&gt;REC_TEST_1 specialinvoke REC_TEST_1::$r0.&lt;BasicTest: void &lt;init&gt;()&gt;() -->
<g id="edge6" class="edge">
<title>REC_TEST_1 REC_TEST_1::$r0 = new BasicTest&#45;&gt;REC_TEST_1 specialinvoke REC_TEST_1::$r0.&lt;BasicTest: void &lt;init&gt;()&gt;()</title>
<path fill="none" stroke="black" d="M665.57,-609.92C660.13,-578.56 652.43,-510.48 676,-460.5 677.59,-457.13 679.67,-453.94 682.05,-450.96"/>
<polygon fill="black" stroke="black" points="684.5,-453.46 688.81,-443.78 679.41,-448.65 684.5,-453.46"/>
<text text-anchor="start" x="676" y="-562.2" font-family="Times,serif" font-size="14.00">[BasicTest.f.in02] =&gt; {@parameter0: BasicTest &#45;&gt; [f.new00], </text>
<text text-anchor="start" x="676" y="-545.7" font-family="Times,serif" font-size="14.00">f::$r0 &#45;&gt; [f.new00], </text>
<text text-anchor="start" x="676" y="-529.2" font-family="Times,serif" font-size="14.00">REC_TEST_1::$r0 &#45;&gt; [REC_TEST_1.new01], </text>
<text text-anchor="start" x="676" y="-512.7" font-family="Times,serif" font-size="14.00">REC_TEST_1::r1 &#45;&gt; [f.new00], </text>
<text text-anchor="start" x="676" y="-496.2" font-family="Times,serif" font-size="14.00">}</text>
</g>
<!-- REC_TEST_1 staticinvoke &lt;BasicTest: BasicTest rec_test_2(BasicTest)&gt;(REC_TEST_1::r1) -->
<g id="node9" class="node">
<title>REC_TEST_1 staticinvoke &lt;BasicTest: BasicTest rec_test_2(BasicTest)&gt;(REC_TEST_1::r1)</title>
<polygon fill="none" stroke="black" points="1020,-239 494,-239 494,-203 1020,-203 1020,-239"/>
<text text-anchor="middle" x="757" y="-215.95" font-family="Times,serif" font-size="14.00">REC_TEST_1 staticinvoke &lt;BasicTest: BasicTest rec_test_2(BasicTest)&gt;(REC_TEST_1::r1)</text>
</g>
<!-- REC_TEST_1 specialinvoke REC_TEST_1::$r0.&lt;BasicTest: void &lt;init&gt;()&gt;()&#45;&gt;REC_TEST_1 staticinvoke &lt;BasicTest: BasicTest rec_test_2(BasicTest)&gt;(REC_TEST_1::r1) -->
<g id="edge7" class="edge">
<title>REC_TEST_1 specialinvoke REC_TEST_1::$r0.&lt;BasicTest: void &lt;init&gt;()&gt;()&#45;&gt;REC_TEST_1 staticinvoke &lt;BasicTest: BasicTest rec_test_2(BasicTest)&gt;(REC_TEST_1::r1)</title>
<path fill="none" stroke="black" d="M689.25,-406.04C683.89,-401.06 678.97,-395.15 676,-388.5 652.18,-335.13 643.9,-305.84 676,-257 678.7,-252.9 681.99,-249.27 685.69,-246.07"/>
<polygon fill="black" stroke="black" points="687.69,-248.94 693.73,-240.23 683.58,-243.27 687.69,-248.94"/>
<text text-anchor="start" x="676" y="-358.7" font-family="Times,serif" font-size="14.00">[BasicTest.f.in02] =&gt; {@parameter0: BasicTest &#45;&gt; [f.new00], </text>
<text text-anchor="start" x="676" y="-342.2" font-family="Times,serif" font-size="14.00">f::$r0 &#45;&gt; [f.new00], </text>
<text text-anchor="start" x="676" y="-325.7" font-family="Times,serif" font-size="14.00">REC_TEST_1::$r0 &#45;&gt; [REC_TEST_1.new01], </text>
<text text-anchor="start" x="676" y="-309.2" font-family="Times,serif" font-size="14.00">REC_TEST_1::r1 &#45;&gt; [f.new00], </text>
<text text-anchor="start" x="676" y="-292.7" font-family="Times,serif" font-size="14.00">}</text>
</g>
<!-- REC_TEST_1 return REC_TEST_1::$r0 -->
<g id="node10" class="node">
<title>REC_TEST_1 return REC_TEST_1::$r0</title>
<polygon fill="none" stroke="black" points="908.38,-52 669.62,-52 669.62,-16 908.38,-16 908.38,-52"/>
<text text-anchor="middle" x="789" y="-28.95" font-family="Times,serif" font-size="14.00">REC_TEST_1 return REC_TEST_1::$r0</text>
</g>
<!-- REC_TEST_1 staticinvoke &lt;BasicTest: BasicTest rec_test_2(BasicTest)&gt;(REC_TEST_1::r1)&#45;&gt;REC_TEST_1 return REC_TEST_1::$r0 -->
<g id="edge8" class="edge">
<title>REC_TEST_1 staticinvoke &lt;BasicTest: BasicTest rec_test_2(BasicTest)&gt;(REC_TEST_1::r1)&#45;&gt;REC_TEST_1 return REC_TEST_1::$r0</title>
<path fill="none" stroke="black" d="M760.01,-202.6C765.53,-170.71 777.3,-102.64 784.02,-63.77"/>
<polygon fill="black" stroke="black" points="787.46,-64.43 785.72,-53.98 780.56,-63.24 787.46,-64.43"/>
<text text-anchor="start" x="782" y="-171.7" font-family="Times,serif" font-size="14.00">[BasicTest.f.in02] =&gt; {rec_test_2::$r0 &#45;&gt; [rec_test_2.new01], </text>
<text text-anchor="start" x="782" y="-155.2" font-family="Times,serif" font-size="14.00">f::$r0 &#45;&gt; [f.new00], </text>
<text text-anchor="start" x="782" y="-138.7" font-family="Times,serif" font-size="14.00">REC_TEST_1::$r0 &#45;&gt; [REC_TEST_1.new01], </text>
<text text-anchor="start" x="782" y="-122.2" font-family="Times,serif" font-size="14.00">REC_TEST_1::r1 &#45;&gt; [f.new00], </text>
<text text-anchor="start" x="782" y="-105.7" font-family="Times,serif" font-size="14.00">rec_test_2::r1 &#45;&gt; [f.new00], </text>
<text text-anchor="start" x="782" y="-89.2" font-family="Times,serif" font-size="14.00">}</text>
</g>
<!-- rec_test_2 rec_test_2::r1 := @parameter0: BasicTest -->
<g id="node11" class="node">
<title>rec_test_2 rec_test_2::r1 := @parameter0: BasicTest</title>
<polygon fill="none" stroke="black" points="1860,-1256.5 1556,-1256.5 1556,-1220.5 1860,-1220.5 1860,-1256.5"/>
<text text-anchor="middle" x="1708" y="-1233.45" font-family="Times,serif" font-size="14.00">rec_test_2 rec_test_2::r1 := @parameter0: BasicTest</text>
</g>
<!-- REC_TEST_1 staticinvoke &lt;BasicTest: BasicTest rec_test_2(BasicTest)&gt;(REC_TEST_1::r1)&#45;&gt;rec_test_2 rec_test_2::r1 := @parameter0: BasicTest -->
<g id="edge17" class="edge">
<title>REC_TEST_1 staticinvoke &lt;BasicTest: BasicTest rec_test_2(BasicTest)&gt;(REC_TEST_1::r1)&#45;&gt;rec_test_2 rec_test_2::r1 := @parameter0: BasicTest</title>
<path fill="none" stroke="black" stroke-dasharray="1,5" d="M986.91,-239.43C1002.14,-244.04 1014.14,-249.8 1021,-257 1072.24,-310.75 1035,-349.24 1035,-423.5 1035,-1052.5 1035,-1052.5 1035,-1052.5 1035,-1157.82 1345.33,-1205.41 1544.53,-1225.11"/>
<polygon fill="black" stroke="black" points="1543.91,-1228.57 1554.2,-1226.05 1544.59,-1221.6 1543.91,-1228.57"/>
<text text-anchor="middle" x="1293" y="-782.2" font-family="Times,serif" font-size="14.00">BasicTest.REC_TEST_1.in03</text>
<text text-anchor="start" x="1035" y="-765.7" font-family="Times,serif" font-size="14.00">[BasicTest.f.in02, BasicTest.REC_TEST_1.in03] =&gt; {@parameter0: BasicTest &#45;&gt; [f.new00], </text>
<text text-anchor="start" x="1035" y="-749.2" font-family="Times,serif" font-size="14.00">f::$r0 &#45;&gt; [f.new00], </text>
<text text-anchor="start" x="1035" y="-732.7" font-family="Times,serif" font-size="14.00">REC_TEST_1::$r0 &#45;&gt; [REC_TEST_1.new01], </text>
<text text-anchor="start" x="1035" y="-716.2" font-family="Times,serif" font-size="14.00">REC_TEST_1::r1 &#45;&gt; [f.new00], </text>
<text text-anchor="start" x="1035" y="-699.7" font-family="Times,serif" font-size="14.00">}</text>
</g>
<!-- REC_TEST_1 return REC_TEST_1::$r0&#45;&gt;f f::$r1.&lt;BasicTest: BasicTest f&gt; = null -->
<g id="edge18" class="edge">
<title>REC_TEST_1 return REC_TEST_1::$r0&#45;&gt;f f::$r1.&lt;BasicTest: BasicTest f&gt; = null</title>
<path fill="none" stroke="black" stroke-dasharray="1,5" d="M669.18,-46.65C491.02,-67.33 177,-118.23 177,-220 177,-629 177,-629 177,-629 177,-697.63 193.19,-777.07 202.89,-818.5"/>
<polygon fill="black" stroke="black" points="199.46,-819.23 205.2,-828.14 206.27,-817.6 199.46,-819.23"/>
<text text-anchor="middle" x="221.62" y="-419.45" font-family="Times,serif" font-size="14.00">BasicTest.f.in02</text>
</g>
<!-- rec_test_2 rec_test_2::$r0 = new BasicTest -->
<g id="node12" class="node">
<title>rec_test_2 rec_test_2::$r0 = new BasicTest</title>
<polygon fill="none" stroke="black" points="1807.75,-1069.5 1556.25,-1069.5 1556.25,-1033.5 1807.75,-1033.5 1807.75,-1069.5"/>
<text text-anchor="middle" x="1682" y="-1046.45" font-family="Times,serif" font-size="14.00">rec_test_2 rec_test_2::$r0 = new BasicTest</text>
</g>
<!-- rec_test_2 rec_test_2::r1 := @parameter0: BasicTest&#45;&gt;rec_test_2 rec_test_2::$r0 = new BasicTest -->
<g id="edge9" class="edge">
<title>rec_test_2 rec_test_2::r1 := @parameter0: BasicTest&#45;&gt;rec_test_2 rec_test_2::$r0 = new BasicTest</title>
<path fill="none" stroke="black" d="M1608.64,-1220.03C1601.1,-1215.41 1594.35,-1209.66 1589,-1202.5 1558.38,-1161.58 1559.91,-1129.53 1589,-1087.5 1591.82,-1083.43 1595.17,-1079.83 1598.9,-1076.65"/>
<polygon fill="black" stroke="black" points="1600.91,-1079.52 1607,-1070.85 1596.84,-1073.83 1600.91,-1079.52"/>
<text text-anchor="start" x="1589" y="-1189.2" font-family="Times,serif" font-size="14.00">[BasicTest.f.in02, BasicTest.REC_TEST_1.in03] =&gt; {@parameter0: BasicTest &#45;&gt; [f.new00], </text>
<text text-anchor="start" x="1589" y="-1172.7" font-family="Times,serif" font-size="14.00">f::$r0 &#45;&gt; [f.new00], </text>
<text text-anchor="start" x="1589" y="-1156.2" font-family="Times,serif" font-size="14.00">REC_TEST_1::$r0 &#45;&gt; [REC_TEST_1.new01], </text>
<text text-anchor="start" x="1589" y="-1139.7" font-family="Times,serif" font-size="14.00">REC_TEST_1::r1 &#45;&gt; [f.new00], </text>
<text text-anchor="start" x="1589" y="-1123.2" font-family="Times,serif" font-size="14.00">rec_test_2::r1 &#45;&gt; [f.new00], </text>
<text text-anchor="start" x="1589" y="-1106.7" font-family="Times,serif" font-size="14.00">}</text>
</g>
<!-- rec_test_2 specialinvoke rec_test_2::$r0.&lt;BasicTest: void &lt;init&gt;()&gt;() -->
<g id="node13" class="node">
<title>rec_test_2 specialinvoke rec_test_2::$r0.&lt;BasicTest: void &lt;init&gt;()&gt;()</title>
<polygon fill="none" stroke="black" points="1951.75,-866 1556.25,-866 1556.25,-830 1951.75,-830 1951.75,-866"/>
<text text-anchor="middle" x="1754" y="-842.95" font-family="Times,serif" font-size="14.00">rec_test_2 specialinvoke rec_test_2::$r0.&lt;BasicTest: void &lt;init&gt;()&gt;()</text>
</g>
<!-- rec_test_2 rec_test_2::$r0 = new BasicTest&#45;&gt;rec_test_2 specialinvoke rec_test_2::$r0.&lt;BasicTest: void &lt;init&gt;()&gt;() -->
<g id="edge10" class="edge">
<title>rec_test_2 rec_test_2::$r0 = new BasicTest&#45;&gt;rec_test_2 specialinvoke rec_test_2::$r0.&lt;BasicTest: void &lt;init&gt;()&gt;()</title>
<path fill="none" stroke="black" d="M1611.44,-1033.21C1603.81,-1028.63 1597.02,-1022.83 1592,-1015.5 1559,-967.26 1555.3,-929.48 1592,-884 1596.43,-878.51 1605.09,-873.85 1616.22,-869.88"/>
<polygon fill="black" stroke="black" points="1617.15,-873.26 1625.63,-866.9 1615.04,-866.59 1617.15,-873.26"/>
<text text-anchor="start" x="1592" y="-1002.2" font-family="Times,serif" font-size="14.00">[BasicTest.f.in02, BasicTest.REC_TEST_1.in03] =&gt; {rec_test_2::$r0 &#45;&gt; [rec_test_2.new01], </text>
<text text-anchor="start" x="1592" y="-985.7" font-family="Times,serif" font-size="14.00">@parameter0: BasicTest &#45;&gt; [f.new00], </text>
<text text-anchor="start" x="1592" y="-969.2" font-family="Times,serif" font-size="14.00">f::$r0 &#45;&gt; [f.new00], </text>
<text text-anchor="start" x="1592" y="-952.7" font-family="Times,serif" font-size="14.00">REC_TEST_1::$r0 &#45;&gt; [REC_TEST_1.new01], </text>
<text text-anchor="start" x="1592" y="-936.2" font-family="Times,serif" font-size="14.00">REC_TEST_1::r1 &#45;&gt; [f.new00], </text>
<text text-anchor="start" x="1592" y="-919.7" font-family="Times,serif" font-size="14.00">rec_test_2::r1 &#45;&gt; [f.new00], </text>
<text text-anchor="start" x="1592" y="-903.2" font-family="Times,serif" font-size="14.00">}</text>
</g>
<!-- rec_test_2 rec_test_2::$r2 = rec_test_2::r1.&lt;BasicTest: BasicTest f&gt; -->
<g id="node14" class="node">
<title>rec_test_2 rec_test_2::$r2 = rec_test_2::r1.&lt;BasicTest: BasicTest f&gt;</title>
<polygon fill="none" stroke="black" points="1944.38,-646 1555.62,-646 1555.62,-610 1944.38,-610 1944.38,-646"/>
<text text-anchor="middle" x="1750" y="-622.95" font-family="Times,serif" font-size="14.00">rec_test_2 rec_test_2::$r2 = rec_test_2::r1.&lt;BasicTest: BasicTest f&gt;</text>
</g>
<!-- rec_test_2 specialinvoke rec_test_2::$r0.&lt;BasicTest: void &lt;init&gt;()&gt;()&#45;&gt;rec_test_2 rec_test_2::$r2 = rec_test_2::r1.&lt;BasicTest: BasicTest f&gt; -->
<g id="edge11" class="edge">
<title>rec_test_2 specialinvoke rec_test_2::$r0.&lt;BasicTest: void &lt;init&gt;()&gt;()&#45;&gt;rec_test_2 rec_test_2::$r2 = rec_test_2::r1.&lt;BasicTest: BasicTest f&gt;</title>
<path fill="none" stroke="black" d="M1609.69,-829.53C1593.65,-824.96 1580.94,-819.21 1575,-812 1554.09,-786.61 1554.15,-689.43 1575,-664 1579.51,-658.5 1588.04,-653.84 1599,-649.91"/>
<polygon fill="black" stroke="black" points="1599.79,-653.33 1608.25,-646.95 1597.66,-646.66 1599.79,-653.33"/>
<text text-anchor="start" x="1575" y="-790.45" font-family="Times,serif" font-size="14.00">[BasicTest.f.in02, BasicTest.REC_TEST_1.in03] =&gt; {rec_test_2::$r0 &#45;&gt; [rec_test_2.new01], </text>
<text text-anchor="start" x="1575" y="-773.95" font-family="Times,serif" font-size="14.00">@parameter0: BasicTest &#45;&gt; [f.new00], </text>
<text text-anchor="start" x="1575" y="-757.45" font-family="Times,serif" font-size="14.00">f::$r0 &#45;&gt; [f.new00], </text>
<text text-anchor="start" x="1575" y="-740.95" font-family="Times,serif" font-size="14.00">REC_TEST_1::$r0 &#45;&gt; [REC_TEST_1.new01], </text>
<text text-anchor="start" x="1575" y="-724.45" font-family="Times,serif" font-size="14.00">REC_TEST_1::r1 &#45;&gt; [f.new00], </text>
<text text-anchor="start" x="1575" y="-707.95" font-family="Times,serif" font-size="14.00">rec_test_2::r1 &#45;&gt; [f.new00], </text>
<text text-anchor="start" x="1575" y="-691.45" font-family="Times,serif" font-size="14.00">}</text>
</g>
<!-- rec_test_2 if rec_test_2::$r2 == null goto staticinvoke &lt;BasicTest: BasicTest rec_test_2(BasicTest)&gt;(rec_test_2::$r0) -->
<g id="node15" class="node">
<title>rec_test_2 if rec_test_2::$r2 == null goto staticinvoke &lt;BasicTest: BasicTest rec_test_2(BasicTest)&gt;(rec_test_2::$r0)</title>
<polygon fill="none" stroke="black" points="2211.88,-442.5 1556.12,-442.5 1556.12,-406.5 2211.88,-406.5 2211.88,-442.5"/>
<text text-anchor="middle" x="1884" y="-419.45" font-family="Times,serif" font-size="14.00">rec_test_2 if rec_test_2::$r2 == null goto staticinvoke &lt;BasicTest: BasicTest rec_test_2(BasicTest)&gt;(rec_test_2::$r0)</text>
</g>
<!-- rec_test_2 rec_test_2::$r2 = rec_test_2::r1.&lt;BasicTest: BasicTest f&gt;&#45;&gt;rec_test_2 if rec_test_2::$r2 == null goto staticinvoke &lt;BasicTest: BasicTest rec_test_2(BasicTest)&gt;(rec_test_2::$r0) -->
<g id="edge12" class="edge">
<title>rec_test_2 rec_test_2::$r2 = rec_test_2::r1.&lt;BasicTest: BasicTest f&gt;&#45;&gt;rec_test_2 if rec_test_2::$r2 == null goto staticinvoke &lt;BasicTest: BasicTest rec_test_2(BasicTest)&gt;(rec_test_2::$r0)</title>
<path fill="none" stroke="black" d="M1725.93,-609.7C1720.69,-604.64 1715.87,-598.66 1713,-592 1689.89,-538.32 1676.05,-505.78 1713,-460.5 1717.51,-454.97 1726.15,-450.29 1737.24,-446.34"/>
<polygon fill="black" stroke="black" points="1738.15,-449.72 1746.62,-443.37 1736.03,-443.05 1738.15,-449.72"/>
<text text-anchor="start" x="1713" y="-578.7" font-family="Times,serif" font-size="14.00">[BasicTest.f.in02, BasicTest.REC_TEST_1.in03] =&gt; {rec_test_2::$r0 &#45;&gt; [rec_test_2.new01], </text>
<text text-anchor="start" x="1713" y="-562.2" font-family="Times,serif" font-size="14.00">@parameter0: BasicTest &#45;&gt; [f.new00], </text>
<text text-anchor="start" x="1713" y="-545.7" font-family="Times,serif" font-size="14.00">f::$r0 &#45;&gt; [f.new00], </text>
<text text-anchor="start" x="1713" y="-529.2" font-family="Times,serif" font-size="14.00">REC_TEST_1::$r0 &#45;&gt; [REC_TEST_1.new01], </text>
<text text-anchor="start" x="1713" y="-512.7" font-family="Times,serif" font-size="14.00">REC_TEST_1::r1 &#45;&gt; [f.new00], </text>
<text text-anchor="start" x="1713" y="-496.2" font-family="Times,serif" font-size="14.00">rec_test_2::r1 &#45;&gt; [f.new00], </text>
<text text-anchor="start" x="1713" y="-479.7" font-family="Times,serif" font-size="14.00">}</text>
</g>
<!-- rec_test_2 return null -->
<g id="node16" class="node">
<title>rec_test_2 return null</title>
<polygon fill="none" stroke="black" points="1703.12,-239 1570.88,-239 1570.88,-203 1703.12,-203 1703.12,-239"/>
<text text-anchor="middle" x="1637" y="-215.95" font-family="Times,serif" font-size="14.00">rec_test_2 return null</text>
</g>
<!-- rec_test_2 if rec_test_2::$r2 == null goto staticinvoke &lt;BasicTest: BasicTest rec_test_2(BasicTest)&gt;(rec_test_2::$r0)&#45;&gt;rec_test_2 return null -->
<g id="edge13" class="edge">
<title>rec_test_2 if rec_test_2::$r2 == null goto staticinvoke &lt;BasicTest: BasicTest rec_test_2(BasicTest)&gt;(rec_test_2::$r0)&#45;&gt;rec_test_2 return null</title>
<path fill="none" stroke="black" d="M1670.64,-406.11C1655.86,-401.5 1644.31,-395.73 1638,-388.5 1604.81,-350.48 1616.43,-286.87 1627.17,-250.26"/>
<polygon fill="black" stroke="black" points="1630.47,-251.43 1630.12,-240.84 1623.79,-249.34 1630.47,-251.43"/>
<text text-anchor="start" x="1638" y="-375.2" font-family="Times,serif" font-size="14.00">[BasicTest.f.in02, BasicTest.REC_TEST_1.in03] =&gt; {rec_test_2::$r0 &#45;&gt; [rec_test_2.new01], </text>
<text text-anchor="start" x="1638" y="-358.7" font-family="Times,serif" font-size="14.00">@parameter0: BasicTest &#45;&gt; [f.new00], </text>
<text text-anchor="start" x="1638" y="-342.2" font-family="Times,serif" font-size="14.00">f::$r0 &#45;&gt; [f.new00], </text>
<text text-anchor="start" x="1638" y="-325.7" font-family="Times,serif" font-size="14.00">REC_TEST_1::$r0 &#45;&gt; [REC_TEST_1.new01], </text>
<text text-anchor="start" x="1638" y="-309.2" font-family="Times,serif" font-size="14.00">REC_TEST_1::r1 &#45;&gt; [f.new00], </text>
<text text-anchor="start" x="1638" y="-292.7" font-family="Times,serif" font-size="14.00">rec_test_2::r1 &#45;&gt; [f.new00], </text>
<text text-anchor="start" x="1638" y="-276.2" font-family="Times,serif" font-size="14.00">}</text>
</g>
<!-- rec_test_2 staticinvoke &lt;BasicTest: BasicTest rec_test_2(BasicTest)&gt;(rec_test_2::$r0) -->
<g id="node17" class="node">
<title>rec_test_2 staticinvoke &lt;BasicTest: BasicTest rec_test_2(BasicTest)&gt;(rec_test_2::$r0)</title>
<polygon fill="none" stroke="black" points="2399.12,-239 1912.88,-239 1912.88,-203 2399.12,-203 2399.12,-239"/>
<text text-anchor="middle" x="2156" y="-215.95" font-family="Times,serif" font-size="14.00">rec_test_2 staticinvoke &lt;BasicTest: BasicTest rec_test_2(BasicTest)&gt;(rec_test_2::$r0)</text>
</g>
<!-- rec_test_2 if rec_test_2::$r2 == null goto staticinvoke &lt;BasicTest: BasicTest rec_test_2(BasicTest)&gt;(rec_test_2::$r0)&#45;&gt;rec_test_2 staticinvoke &lt;BasicTest: BasicTest rec_test_2(BasicTest)&gt;(rec_test_2::$r0) -->
<g id="edge14" class="edge">
<title>rec_test_2 if rec_test_2::$r2 == null goto staticinvoke &lt;BasicTest: BasicTest rec_test_2(BasicTest)&gt;(rec_test_2::$r0)&#45;&gt;rec_test_2 staticinvoke &lt;BasicTest: BasicTest rec_test_2(BasicTest)&gt;(rec_test_2::$r0)</title>
<path fill="none" stroke="black" d="M2118.78,-406.03C2133.22,-401.41 2144.53,-395.65 2151,-388.5 2184.96,-350.95 2174.81,-286.9 2165,-250.15"/>
<polygon fill="black" stroke="black" points="2168.41,-249.35 2162.3,-240.7 2161.68,-251.28 2168.41,-249.35"/>
</g>
<!-- rec_test_2 return null&#45;&gt;REC_TEST_1 return REC_TEST_1::$r0 -->
<g id="edge20" class="edge">
<title>rec_test_2 return null&#45;&gt;REC_TEST_1 return REC_TEST_1::$r0</title>
<path fill="none" stroke="black" stroke-dasharray="1,5" d="M1570.55,-207.76C1540.16,-201.69 1503.8,-193.79 1471.5,-185 1316.16,-142.72 1285.36,-104.03 1128,-70 1060.22,-55.34 983.44,-46.77 920.11,-41.78"/>
<polygon fill="black" stroke="black" points="920.6,-38.31 910.36,-41.04 920.07,-45.29 920.6,-38.31"/>
<text text-anchor="middle" x="1552.75" y="-122.45" font-family="Times,serif" font-size="14.00">BasicTest.REC_TEST_1.in03</text>
</g>
<!-- rec_test_2 return rec_test_2::$r0 -->
<g id="node18" class="node">
<title>rec_test_2 return rec_test_2::$r0</title>
<polygon fill="none" stroke="black" points="1748.12,-52 1555.88,-52 1555.88,-16 1748.12,-16 1748.12,-52"/>
<text text-anchor="middle" x="1652" y="-28.95" font-family="Times,serif" font-size="14.00">rec_test_2 return rec_test_2::$r0</text>
</g>
<!-- rec_test_2 return null&#45;&gt;rec_test_2 return rec_test_2::$r0 -->
<g id="edge19" class="edge">
<title>rec_test_2 return null&#45;&gt;rec_test_2 return rec_test_2::$r0</title>
<path fill="none" stroke="black" stroke-dasharray="1,5" d="M1638.41,-202.6C1641,-170.71 1646.52,-102.64 1649.67,-63.77"/>
<polygon fill="black" stroke="black" points="1653.14,-64.25 1650.46,-54 1646.16,-63.69 1653.14,-64.25"/>
<text text-anchor="middle" x="1719.12" y="-122.45" font-family="Times,serif" font-size="14.00">BasicTest.rec_test_2.in06</text>
</g>
<!-- rec_test_2 staticinvoke &lt;BasicTest: BasicTest rec_test_2(BasicTest)&gt;(rec_test_2::$r0)&#45;&gt;rec_test_2 rec_test_2::r1 := @parameter0: BasicTest -->
<g id="edge21" class="edge">
<title>rec_test_2 staticinvoke &lt;BasicTest: BasicTest rec_test_2(BasicTest)&gt;(rec_test_2::$r0)&#45;&gt;rec_test_2 rec_test_2::r1 := @parameter0: BasicTest</title>
<path fill="none" stroke="black" stroke-dasharray="1,5" d="M2163.76,-239.39C2177.77,-271.62 2207.13,-343.14 2221,-406.5 2226.15,-430.05 2224.89,-436.42 2226,-460.5 2233.71,-627.39 2229.32,-1090.9 2105,-1202.5 2087.23,-1218.45 1973.14,-1227.38 1871.8,-1232.22"/>
<polygon fill="black" stroke="black" points="1871.8,-1228.71 1861.98,-1232.67 1872.13,-1235.71 1871.8,-1228.71"/>
<text text-anchor="middle" x="2485" y="-782.2" font-family="Times,serif" font-size="14.00">BasicTest.rec_test_2.in06</text>
<text text-anchor="start" x="2227" y="-765.7" font-family="Times,serif" font-size="14.00">[BasicTest.f.in02, BasicTest.REC_TEST_1.in03] =&gt; {@parameter0: BasicTest &#45;&gt; [f.new00], </text>
<text text-anchor="start" x="2227" y="-749.2" font-family="Times,serif" font-size="14.00">f::$r0 &#45;&gt; [f.new00], </text>
<text text-anchor="start" x="2227" y="-732.7" font-family="Times,serif" font-size="14.00">REC_TEST_1::$r0 &#45;&gt; [REC_TEST_1.new01], </text>
<text text-anchor="start" x="2227" y="-716.2" font-family="Times,serif" font-size="14.00">REC_TEST_1::r1 &#45;&gt; [f.new00], </text>
<text text-anchor="start" x="2227" y="-699.7" font-family="Times,serif" font-size="14.00">}</text>
</g>
<!-- rec_test_2 staticinvoke &lt;BasicTest: BasicTest rec_test_2(BasicTest)&gt;(rec_test_2::$r0)&#45;&gt;rec_test_2 return rec_test_2::$r0 -->
<g id="edge15" class="edge">
<title>rec_test_2 staticinvoke &lt;BasicTest: BasicTest rec_test_2(BasicTest)&gt;(rec_test_2::$r0)&#45;&gt;rec_test_2 return rec_test_2::$r0</title>
<path fill="none" stroke="black" d="M2119.07,-202.59C2054.2,-172.49 1915.11,-110.14 1793,-70 1776.78,-64.67 1759.29,-59.71 1742.32,-55.3"/>
<polygon fill="black" stroke="black" points="1743.29,-51.94 1732.73,-52.86 1741.56,-58.72 1743.29,-51.94"/>
</g>
<!-- rec_test_2 return rec_test_2::$r0&#45;&gt;REC_TEST_1 return REC_TEST_1::$r0 -->
<g id="edge23" class="edge">
<title>rec_test_2 return rec_test_2::$r0&#45;&gt;REC_TEST_1 return REC_TEST_1::$r0</title>
<path fill="none" stroke="black" stroke-dasharray="1,5" d="M1555.53,-34C1400.25,-34 1094.65,-34 919.86,-34"/>
<polygon fill="black" stroke="black" points="920.06,-30.5 910.06,-34 920.06,-37.5 920.06,-30.5"/>
<text text-anchor="middle" x="1232.12" y="-40.2" font-family="Times,serif" font-size="14.00">BasicTest.REC_TEST_1.in03</text>
</g>
<!-- rec_test_2 return rec_test_2::$r0&#45;&gt;rec_test_2 return rec_test_2::$r0 -->
<g id="edge22" class="edge">
<title>rec_test_2 return rec_test_2::$r0&#45;&gt;rec_test_2 return rec_test_2::$r0</title>
<path fill="none" stroke="black" stroke-dasharray="1,5" d="M1748.58,-48.75C1759.24,-45.95 1766.12,-41.03 1766.12,-34 1766.12,-29.72 1763.57,-26.22 1759.16,-23.5"/>
<polygon fill="black" stroke="black" points="1760.57,-20.3 1749.99,-19.82 1757.96,-26.79 1760.57,-20.3"/>
<text text-anchor="middle" x="1836.25" y="-28.95" font-family="Times,serif" font-size="14.00">BasicTest.rec_test_2.in06</text>
</g>
</g>
</svg>
