<?xml version="1.0" encoding="UTF-8" standalone="no"?>
<!DOCTYPE svg PUBLIC "-//W3C//DTD SVG 1.1//EN"
 "http://www.w3.org/Graphics/SVG/1.1/DTD/svg11.dtd">
<!-- Generated by graphviz version 9.0.0 (20230911.1827)
 -->
<!-- Title: G Pages: 1 -->
<svg width="2750pt" height="1385pt"
 viewBox="0.00 0.00 2750.00 1385.00" xmlns="http://www.w3.org/2000/svg" xmlns:xlink="http://www.w3.org/1999/xlink">
<g id="graph0" class="graph" transform="scale(1 1) rotate(0) translate(4 1381)">
<title>G</title>
<polygon fill="white" stroke="none" points="-4,4 -4,-1381 2746,-1381 2746,4 -4,4"/>
<g id="clust1" class="cluster">
<title>cluster_0</title>
<polygon fill="none" stroke="black" points="8,-602 8,-1369 478,-1369 478,-602 8,-602"/>
</g>
<g id="clust2" class="cluster">
<title>cluster_1</title>
<polygon fill="none" stroke="black" points="486,-8 486,-857.5 1028,-857.5 1028,-8 486,-8"/>
</g>
<g id="clust3" class="cluster">
<title>cluster_2</title>
<polygon fill="none" stroke="black" points="1548,-8 1548,-1248 2634,-1248 2634,-8 1548,-8"/>
</g>
<!-- f f::$r0 = new BasicTest -->
<g id="node1" class="node">
<title>f f::$r0 = new BasicTest</title>
<polygon fill="none" stroke="black" points="317.75,-1361 168.25,-1361 168.25,-1325 317.75,-1325 317.75,-1361"/>
<text text-anchor="middle" x="243" y="-1337.95" font-family="Times,serif" font-size="14.00">f f::$r0 = new BasicTest</text>
</g>
<!-- f specialinvoke f::$r0.&lt;BasicTest: void &lt;init&gt;()&gt;() -->
<g id="node2" class="node">
<title>f specialinvoke f::$r0.&lt;BasicTest: void &lt;init&gt;()&gt;()</title>
<polygon fill="none" stroke="black" points="389.75,-1240 96.25,-1240 96.25,-1204 389.75,-1204 389.75,-1240"/>
<text text-anchor="middle" x="243" y="-1216.95" font-family="Times,serif" font-size="14.00">f specialinvoke f::$r0.&lt;BasicTest: void &lt;init&gt;()&gt;()</text>
</g>
<!-- f f::$r0 = new BasicTest&#45;&gt;f specialinvoke f::$r0.&lt;BasicTest: void &lt;init&gt;()&gt;() -->
<g id="edge1" class="edge">
<title>f f::$r0 = new BasicTest&#45;&gt;f specialinvoke f::$r0.&lt;BasicTest: void &lt;init&gt;()&gt;()</title>
<path fill="none" stroke="black" d="M243,-1324.7C243,-1305.57 243,-1274.46 243,-1251.68"/>
<polygon fill="black" stroke="black" points="246.5,-1251.84 243,-1241.84 239.5,-1251.84 246.5,-1251.84"/>
<text text-anchor="start" x="243" y="-1293.7" font-family="Times,serif" font-size="14.00">[] =&gt; {f::$r0 &#45;&gt; [f.new00], </text>
<text text-anchor="start" x="243" y="-1277.2" font-family="Times,serif" font-size="14.00">}</text>
</g>
<!-- f f::$r1 = staticinvoke &lt;BasicTest: BasicTest REC_TEST_1(BasicTest)&gt;(f::$r0) -->
<g id="node3" class="node">
<title>f f::$r1 = staticinvoke &lt;BasicTest: BasicTest REC_TEST_1(BasicTest)&gt;(f::$r0)</title>
<polygon fill="none" stroke="black" points="469.62,-1053 16.38,-1053 16.38,-1017 469.62,-1017 469.62,-1053"/>
<text text-anchor="middle" x="243" y="-1029.95" font-family="Times,serif" font-size="14.00">f f::$r1 = staticinvoke &lt;BasicTest: BasicTest REC_TEST_1(BasicTest)&gt;(f::$r0)</text>
</g>
<!-- f specialinvoke f::$r0.&lt;BasicTest: void &lt;init&gt;()&gt;()&#45;&gt;f f::$r1 = staticinvoke &lt;BasicTest: BasicTest REC_TEST_1(BasicTest)&gt;(f::$r0) -->
<g id="edge2" class="edge">
<title>f specialinvoke f::$r0.&lt;BasicTest: void &lt;init&gt;()&gt;()&#45;&gt;f f::$r1 = staticinvoke &lt;BasicTest: BasicTest REC_TEST_1(BasicTest)&gt;(f::$r0)</title>
<path fill="none" stroke="black" d="M243,-1203.6C243,-1171.71 243,-1103.64 243,-1064.77"/>
<polygon fill="black" stroke="black" points="246.5,-1065.01 243,-1055.01 239.5,-1065.01 246.5,-1065.01"/>
<text text-anchor="start" x="243" y="-1139.7" font-family="Times,serif" font-size="14.00">[] =&gt; {f::$r0 &#45;&gt; [f.new00], </text>
<text text-anchor="start" x="243" y="-1123.2" font-family="Times,serif" font-size="14.00">}</text>
</g>
<!-- f f::$r1.&lt;BasicTest: BasicTest f&gt; = null -->
<g id="node4" class="node">
<title>f f::$r1.&lt;BasicTest: BasicTest f&gt; = null</title>
<polygon fill="none" stroke="black" points="441.75,-849.5 208.25,-849.5 208.25,-813.5 441.75,-813.5 441.75,-849.5"/>
<text text-anchor="middle" x="325" y="-826.45" font-family="Times,serif" font-size="14.00">f f::$r1.&lt;BasicTest: BasicTest f&gt; = null</text>
</g>
<!-- f f::$r1 = staticinvoke &lt;BasicTest: BasicTest REC_TEST_1(BasicTest)&gt;(f::$r0)&#45;&gt;f f::$r1.&lt;BasicTest: BasicTest f&gt; = null -->
<g id="edge3" class="edge">
<title>f f::$r1 = staticinvoke &lt;BasicTest: BasicTest REC_TEST_1(BasicTest)&gt;(f::$r0)&#45;&gt;f f::$r1.&lt;BasicTest: BasicTest f&gt; = null</title>
<path fill="none" stroke="black" d="M249.99,-1016.82C264.18,-981.96 296.45,-902.65 313.68,-860.32"/>
<polygon fill="black" stroke="black" points="316.81,-861.91 317.34,-851.32 310.33,-859.27 316.81,-861.91"/>
</g>
<!-- REC_TEST_1 REC_TEST_1::r1 := @parameter0: BasicTest -->
<g id="node6" class="node">
<title>REC_TEST_1 REC_TEST_1::r1 := @parameter0: BasicTest</title>
<polygon fill="none" stroke="black" points="844.25,-849.5 493.75,-849.5 493.75,-813.5 844.25,-813.5 844.25,-849.5"/>
<text text-anchor="middle" x="669" y="-826.45" font-family="Times,serif" font-size="14.00">REC_TEST_1 REC_TEST_1::r1 := @parameter0: BasicTest</text>
</g>
<!-- f f::$r1 = staticinvoke &lt;BasicTest: BasicTest REC_TEST_1(BasicTest)&gt;(f::$r0)&#45;&gt;REC_TEST_1 REC_TEST_1::r1 := @parameter0: BasicTest -->
<g id="edge16" class="edge">
<title>f f::$r1 = staticinvoke &lt;BasicTest: BasicTest REC_TEST_1(BasicTest)&gt;(f::$r0)&#45;&gt;REC_TEST_1 REC_TEST_1::r1 := @parameter0: BasicTest</title>
<path fill="none" stroke="black" stroke-dasharray="1,5" d="M279.69,-1016.65C356.99,-980.08 536.51,-895.17 622.05,-854.71"/>
<polygon fill="black" stroke="black" points="623.34,-857.97 630.88,-850.53 620.34,-851.64 623.34,-857.97"/>
<text text-anchor="middle" x="760.5" y="-960.95" font-family="Times,serif" font-size="14.00">BasicTest.f.in02</text>
<text text-anchor="start" x="588" y="-944.45" font-family="Times,serif" font-size="14.00">[BasicTest.f.in02] =&gt; {@parameter0: BasicTest &#45;&gt; [f.new00], </text>
<text text-anchor="start" x="588" y="-927.95" font-family="Times,serif" font-size="14.00">f::$r0 &#45;&gt; [f.new00], </text>
<text text-anchor="start" x="588" y="-911.45" font-family="Times,serif" font-size="14.00">}</text>
</g>
<!-- f return -->
<g id="node5" class="node">
<title>f return</title>
<polygon fill="none" stroke="black" points="409.25,-646 352.75,-646 352.75,-610 409.25,-610 409.25,-646"/>
<text text-anchor="middle" x="381" y="-622.95" font-family="Times,serif" font-size="14.00">f return</text>
</g>
<!-- f f::$r1.&lt;BasicTest: BasicTest f&gt; = null&#45;&gt;f return -->
<g id="edge4" class="edge">
<title>f f::$r1.&lt;BasicTest: BasicTest f&gt; = null&#45;&gt;f return</title>
<path fill="none" stroke="black" d="M332.44,-813.22C334.71,-807.62 337.1,-801.35 339,-795.5 354.49,-747.77 367.77,-690.82 375.05,-657.41"/>
<polygon fill="black" stroke="black" points="378.45,-658.22 377.13,-647.71 371.61,-656.75 378.45,-658.22"/>
</g>
<!-- REC_TEST_1 REC_TEST_1::$r0 = new BasicTest -->
<g id="node7" class="node">
<title>REC_TEST_1 REC_TEST_1::$r0 = new BasicTest</title>
<polygon fill="none" stroke="black" points="818,-646 520,-646 520,-610 818,-610 818,-646"/>
<text text-anchor="middle" x="669" y="-622.95" font-family="Times,serif" font-size="14.00">REC_TEST_1 REC_TEST_1::$r0 = new BasicTest</text>
</g>
<!-- REC_TEST_1 REC_TEST_1::r1 := @parameter0: BasicTest&#45;&gt;REC_TEST_1 REC_TEST_1::$r0 = new BasicTest -->
<g id="edge5" class="edge">
<title>REC_TEST_1 REC_TEST_1::r1 := @parameter0: BasicTest&#45;&gt;REC_TEST_1 REC_TEST_1::$r0 = new BasicTest</title>
<path fill="none" stroke="black" d="M668.4,-813.06C668.24,-807.45 668.08,-801.21 668,-795.5 667.17,-737.06 667.17,-722.44 668,-664 668.03,-661.95 668.07,-659.83 668.11,-657.69"/>
<polygon fill="black" stroke="black" points="671.61,-658.04 668.36,-647.96 664.61,-657.86 671.61,-658.04"/>
<text text-anchor="start" x="668" y="-757.45" font-family="Times,serif" font-size="14.00">[BasicTest.f.in02] =&gt; {@parameter0: BasicTest &#45;&gt; [f.new00], </text>
<text text-anchor="start" x="668" y="-740.95" font-family="Times,serif" font-size="14.00">f::$r0 &#45;&gt; [f.new00], </text>
<text text-anchor="start" x="668" y="-724.45" font-family="Times,serif" font-size="14.00">REC_TEST_1::r1 &#45;&gt; [f.new00], </text>
<text text-anchor="start" x="668" y="-707.95" font-family="Times,serif" font-size="14.00">}</text>
</g>
<!-- REC_TEST_1 specialinvoke REC_TEST_1::$r0.&lt;BasicTest: void &lt;init&gt;()&gt;() -->
<g id="node8" class="node">
<title>REC_TEST_1 specialinvoke REC_TEST_1::$r0.&lt;BasicTest: void &lt;init&gt;()&gt;()</title>
<polygon fill="none" stroke="black" points="936,-442.5 494,-442.5 494,-406.5 936,-406.5 936,-442.5"/>
<text text-anchor="middle" x="715" y="-419.45" font-family="Times,serif" font-size="14.00">REC_TEST_1 specialinvoke REC_TEST_1::$r0.&lt;BasicTest: void &lt;init&gt;()&gt;()</text>
</g>
<!-- REC_TEST_1 REC_TEST_1::$r0 = new BasicTest&#45;&gt;REC_TEST_1 specialinvoke REC_TEST_1::$r0.&lt;BasicTest: void &lt;init&gt;()&gt;() -->
<g id="edge6" class="edge">
<title>REC_TEST_1 REC_TEST_1::$r0 = new BasicTest&#45;&gt;REC_TEST_1 specialinvoke REC_TEST_1::$r0.&lt;BasicTest: void &lt;init&gt;()&gt;()</title>
<path fill="none" stroke="black" d="M665.57,-609.92C660.13,-578.56 652.43,-510.48 676,-460.5 677.59,-457.13 679.67,-453.94 682.05,-450.96"/>
<polygon fill="black" stroke="black" points="684.5,-453.46 688.81,-443.78 679.41,-448.65 684.5,-453.46"/>
<text text-anchor="start" x="676" y="-562.2" font-family="Times,serif" font-size="14.00">[BasicTest.f.in02] =&gt; {@parameter0: BasicTest &#45;&gt; [f.new00], </text>
<text text-anchor="start" x="676" y="-545.7" font-family="Times,serif" font-size="14.00">f::$r0 &#45;&gt; [f.new00], </text>
<text text-anchor="start" x="676" y="-529.2" font-family="Times,serif" font-size="14.00">REC_TEST_1::$r0 &#45;&gt; [REC_TEST_1.new01], </text>
<text text-anchor="start" x="676" y="-512.7" font-family="Times,serif" font-size="14.00">REC_TEST_1::r1 &#45;&gt; [f.new00], </text>
<text text-anchor="start" x="676" y="-496.2" font-family="Times,serif" font-size="14.00">}</text>
</g>
<!-- REC_TEST_1 staticinvoke &lt;BasicTest: BasicTest rec_test_2(BasicTest)&gt;(REC_TEST_1::r1) -->
<g id="node9" class="node">
<title>REC_TEST_1 staticinvoke &lt;BasicTest: BasicTest rec_test_2(BasicTest)&gt;(REC_TEST_1::r1)</title>
<polygon fill="none" stroke="black" points="1020,-239 494,-239 494,-203 1020,-203 1020,-239"/>
<text text-anchor="middle" x="757" y="-215.95" font-family="Times,serif" font-size="14.00">REC_TEST_1 staticinvoke &lt;BasicTest: BasicTest rec_test_2(BasicTest)&gt;(REC_TEST_1::r1)</text>
</g>
<!-- REC_TEST_1 specialinvoke REC_TEST_1::$r0.&lt;BasicTest: void &lt;init&gt;()&gt;()&#45;&gt;REC_TEST_1 staticinvoke &lt;BasicTest: BasicTest rec_test_2(BasicTest)&gt;(REC_TEST_1::r1) -->
<g id="edge7" class="edge">
<title>REC_TEST_1 specialinvoke REC_TEST_1::$r0.&lt;BasicTest: void &lt;init&gt;()&gt;()&#45;&gt;REC_TEST_1 staticinvoke &lt;BasicTest: BasicTest rec_test_2(BasicTest)&gt;(REC_TEST_1::r1)</title>
<path fill="none" stroke="black" d="M689.25,-406.04C683.89,-401.06 678.97,-395.15 676,-388.5 652.18,-335.13 643.9,-305.84 676,-257 678.7,-252.9 681.99,-249.27 685.69,-246.07"/>
<polygon fill="black" stroke="black" points="687.69,-248.94 693.73,-240.23 683.58,-243.27 687.69,-248.94"/>
<text text-anchor="start" x="676" y="-358.7" font-family="Times,serif" font-size="14.00">[BasicTest.f.in02] =&gt; {@parameter0: BasicTest &#45;&gt; [f.new00], </text>
<text text-anchor="start" x="676" y="-342.2" font-family="Times,serif" font-size="14.00">f::$r0 &#45;&gt; [f.new00], </text>
<text text-anchor="start" x="676" y="-325.7" font-family="Times,serif" font-size="14.00">REC_TEST_1::$r0 &#45;&gt; [REC_TEST_1.new01], </text>
<text text-anchor="start" x="676" y="-309.2" font-family="Times,serif" font-size="14.00">REC_TEST_1::r1 &#45;&gt; [f.new00], </text>
<text text-anchor="start" x="676" y="-292.7" font-family="Times,serif" font-size="14.00">}</text>
</g>
<!-- REC_TEST_1 return REC_TEST_1::$r0 -->
<g id="node10" class="node">
<title>REC_TEST_1 return REC_TEST_1::$r0</title>
<polygon fill="none" stroke="black" points="908.38,-52 669.62,-52 669.62,-16 908.38,-16 908.38,-52"/>
<text text-anchor="middle" x="789" y="-28.95" font-family="Times,serif" font-size="14.00">REC_TEST_1 return REC_TEST_1::$r0</text>
</g>
<!-- REC_TEST_1 staticinvoke &lt;BasicTest: BasicTest rec_test_2(BasicTest)&gt;(REC_TEST_1::r1)&#45;&gt;REC_TEST_1 return REC_TEST_1::$r0 -->
<g id="edge8" class="edge">
<title>REC_TEST_1 staticinvoke &lt;BasicTest: BasicTest rec_test_2(BasicTest)&gt;(REC_TEST_1::r1)&#45;&gt;REC_TEST_1 return REC_TEST_1::$r0</title>
<path fill="none" stroke="red" d="M760.01,-202.6C765.53,-170.71 777.3,-102.64 784.02,-63.77"/>
<polygon fill="red" stroke="red" points="787.46,-64.43 785.72,-53.98 780.56,-63.24 787.46,-64.43"/>
<text text-anchor="start" x="782" y="-171.7" font-family="Times,serif" font-size="14.00">[BasicTest.f.in02] =&gt; {rec_test_2::$r0 &#45;&gt; [rec_test_2.new01], </text>
<text text-anchor="start" x="782" y="-155.2" font-family="Times,serif" font-size="14.00">f::$r0 &#45;&gt; [f.new00], </text>
<text text-anchor="start" x="782" y="-138.7" font-family="Times,serif" font-size="14.00">REC_TEST_1::$r0 &#45;&gt; [REC_TEST_1.new01], </text>
<text text-anchor="start" x="782" y="-122.2" font-family="Times,serif" font-size="14.00">REC_TEST_1::r1 &#45;&gt; [f.new00], </text>
<text text-anchor="start" x="782" y="-105.7" font-family="Times,serif" font-size="14.00">rec_test_2::r1 &#45;&gt; [f.new00], </text>
<text text-anchor="start" x="782" y="-89.2" font-family="Times,serif" font-size="14.00">}</text>
</g>
<!-- rec_test_2 rec_test_2::r1 := @parameter0: BasicTest -->
<g id="node11" class="node">
<title>rec_test_2 rec_test_2::r1 := @parameter0: BasicTest</title>
<polygon fill="none" stroke="black" points="1860,-1240 1556,-1240 1556,-1204 1860,-1204 1860,-1240"/>
<text text-anchor="middle" x="1708" y="-1216.95" font-family="Times,serif" font-size="14.00">rec_test_2 rec_test_2::r1 := @parameter0: BasicTest</text>
</g>
<!-- REC_TEST_1 staticinvoke &lt;BasicTest: BasicTest rec_test_2(BasicTest)&gt;(REC_TEST_1::r1)&#45;&gt;rec_test_2 rec_test_2::r1 := @parameter0: BasicTest -->
<g id="edge17" class="edge">
<title>REC_TEST_1 staticinvoke &lt;BasicTest: BasicTest rec_test_2(BasicTest)&gt;(REC_TEST_1::r1)&#45;&gt;rec_test_2 rec_test_2::r1 := @parameter0: BasicTest</title>
<path fill="none" stroke="black" stroke-dasharray="1,5" d="M986.91,-239.43C1002.14,-244.04 1014.14,-249.8 1021,-257 1072.24,-310.75 1035,-349.24 1035,-423.5 1035,-1036 1035,-1036 1035,-1036 1035,-1141.32 1345.33,-1188.91 1544.53,-1208.61"/>
<polygon fill="black" stroke="black" points="1543.91,-1212.07 1554.2,-1209.55 1544.59,-1205.1 1543.91,-1212.07"/>
<text text-anchor="middle" x="1293" y="-773.95" font-family="Times,serif" font-size="14.00">BasicTest.REC_TEST_1.in03</text>
<text text-anchor="start" x="1035" y="-757.45" font-family="Times,serif" font-size="14.00">[BasicTest.f.in02, BasicTest.REC_TEST_1.in03] =&gt; {@parameter0: BasicTest &#45;&gt; [f.new00], </text>
<text text-anchor="start" x="1035" y="-740.95" font-family="Times,serif" font-size="14.00">f::$r0 &#45;&gt; [f.new00], </text>
<text text-anchor="start" x="1035" y="-724.45" font-family="Times,serif" font-size="14.00">REC_TEST_1::$r0 &#45;&gt; [REC_TEST_1.new01], </text>
<text text-anchor="start" x="1035" y="-707.95" font-family="Times,serif" font-size="14.00">REC_TEST_1::r1 &#45;&gt; [f.new00], </text>
<text text-anchor="start" x="1035" y="-691.45" font-family="Times,serif" font-size="14.00">}</text>
</g>
<!-- REC_TEST_1 return REC_TEST_1::$r0&#45;&gt;f f::$r1.&lt;BasicTest: BasicTest f&gt; = null -->
<g id="edge18" class="edge">
<title>REC_TEST_1 return REC_TEST_1::$r0&#45;&gt;f f::$r1.&lt;BasicTest: BasicTest f&gt; = null</title>
<path fill="none" stroke="black" stroke-dasharray="1,5" d="M695.94,-52.48C560.49,-80.62 325,-140.92 325,-220 325,-629 325,-629 325,-629 325,-690.55 325,-762.69 325,-801.77"/>
<polygon fill="black" stroke="black" points="321.5,-801.74 325,-811.74 328.5,-801.74 321.5,-801.74"/>
<text text-anchor="middle" x="369.62" y="-419.45" font-family="Times,serif" font-size="14.00">BasicTest.f.in02</text>
</g>
<!-- rec_test_2 rec_test_2::$r0 = new BasicTest -->
<g id="node12" class="node">
<title>rec_test_2 rec_test_2::$r0 = new BasicTest</title>
<polygon fill="none" stroke="black" points="1807.75,-1053 1556.25,-1053 1556.25,-1017 1807.75,-1017 1807.75,-1053"/>
<text text-anchor="middle" x="1682" y="-1029.95" font-family="Times,serif" font-size="14.00">rec_test_2 rec_test_2::$r0 = new BasicTest</text>
</g>
<!-- rec_test_2 rec_test_2::r1 := @parameter0: BasicTest&#45;&gt;rec_test_2 rec_test_2::$r0 = new BasicTest -->
<g id="edge9" class="edge">
<title>rec_test_2 rec_test_2::r1 := @parameter0: BasicTest&#45;&gt;rec_test_2 rec_test_2::$r0 = new BasicTest</title>
<path fill="none" stroke="black" d="M1608.64,-1203.53C1601.1,-1198.91 1594.35,-1193.16 1589,-1186 1558.38,-1145.08 1559.91,-1113.03 1589,-1071 1591.82,-1066.93 1595.17,-1063.33 1598.9,-1060.15"/>
<polygon fill="black" stroke="black" points="1600.91,-1063.02 1607,-1054.35 1596.84,-1057.33 1600.91,-1063.02"/>
<text text-anchor="start" x="1589" y="-1172.7" font-family="Times,serif" font-size="14.00">[BasicTest.f.in02, BasicTest.REC_TEST_1.in03] =&gt; {@parameter0: BasicTest &#45;&gt; [f.new00], </text>
<text text-anchor="start" x="1589" y="-1156.2" font-family="Times,serif" font-size="14.00">f::$r0 &#45;&gt; [f.new00], </text>
<text text-anchor="start" x="1589" y="-1139.7" font-family="Times,serif" font-size="14.00">REC_TEST_1::$r0 &#45;&gt; [REC_TEST_1.new01], </text>
<text text-anchor="start" x="1589" y="-1123.2" font-family="Times,serif" font-size="14.00">REC_TEST_1::r1 &#45;&gt; [f.new00], </text>
<text text-anchor="start" x="1589" y="-1106.7" font-family="Times,serif" font-size="14.00">rec_test_2::r1 &#45;&gt; [f.new00], </text>
<text text-anchor="start" x="1589" y="-1090.2" font-family="Times,serif" font-size="14.00">}</text>
</g>
<!-- rec_test_2 specialinvoke rec_test_2::$r0.&lt;BasicTest: void &lt;init&gt;()&gt;() -->
<g id="node13" class="node">
<title>rec_test_2 specialinvoke rec_test_2::$r0.&lt;BasicTest: void &lt;init&gt;()&gt;()</title>
<polygon fill="none" stroke="black" points="1951.75,-849.5 1556.25,-849.5 1556.25,-813.5 1951.75,-813.5 1951.75,-849.5"/>
<text text-anchor="middle" x="1754" y="-826.45" font-family="Times,serif" font-size="14.00">rec_test_2 specialinvoke rec_test_2::$r0.&lt;BasicTest: void &lt;init&gt;()&gt;()</text>
</g>
<!-- rec_test_2 rec_test_2::$r0 = new BasicTest&#45;&gt;rec_test_2 specialinvoke rec_test_2::$r0.&lt;BasicTest: void &lt;init&gt;()&gt;() -->
<g id="edge10" class="edge">
<title>rec_test_2 rec_test_2::$r0 = new BasicTest&#45;&gt;rec_test_2 specialinvoke rec_test_2::$r0.&lt;BasicTest: void &lt;init&gt;()&gt;()</title>
<path fill="none" stroke="black" d="M1611.44,-1016.71C1603.81,-1012.13 1597.02,-1006.33 1592,-999 1559,-950.76 1555.3,-912.98 1592,-867.5 1596.43,-862.01 1605.09,-857.35 1616.22,-853.38"/>
<polygon fill="black" stroke="black" points="1617.15,-856.76 1625.63,-850.4 1615.04,-850.09 1617.15,-856.76"/>
<text text-anchor="start" x="1592" y="-985.7" font-family="Times,serif" font-size="14.00">[BasicTest.f.in02, BasicTest.REC_TEST_1.in03] =&gt; {rec_test_2::$r0 &#45;&gt; [rec_test_2.new01], </text>
<text text-anchor="start" x="1592" y="-969.2" font-family="Times,serif" font-size="14.00">@parameter0: BasicTest &#45;&gt; [f.new00], </text>
<text text-anchor="start" x="1592" y="-952.7" font-family="Times,serif" font-size="14.00">f::$r0 &#45;&gt; [f.new00], </text>
<text text-anchor="start" x="1592" y="-936.2" font-family="Times,serif" font-size="14.00">REC_TEST_1::$r0 &#45;&gt; [REC_TEST_1.new01], </text>
<text text-anchor="start" x="1592" y="-919.7" font-family="Times,serif" font-size="14.00">REC_TEST_1::r1 &#45;&gt; [f.new00], </text>
<text text-anchor="start" x="1592" y="-903.2" font-family="Times,serif" font-size="14.00">rec_test_2::r1 &#45;&gt; [f.new00], </text>
<text text-anchor="start" x="1592" y="-886.7" font-family="Times,serif" font-size="14.00">}</text>
</g>
<!-- rec_test_2 rec_test_2::$r2 = rec_test_2::r1.&lt;BasicTest: BasicTest f&gt; -->
<g id="node14" class="node">
<title>rec_test_2 rec_test_2::$r2 = rec_test_2::r1.&lt;BasicTest: BasicTest f&gt;</title>
<polygon fill="none" stroke="black" points="1944.38,-646 1555.62,-646 1555.62,-610 1944.38,-610 1944.38,-646"/>
<text text-anchor="middle" x="1750" y="-622.95" font-family="Times,serif" font-size="14.00">rec_test_2 rec_test_2::$r2 = rec_test_2::r1.&lt;BasicTest: BasicTest f&gt;</text>
</g>
<!-- rec_test_2 specialinvoke rec_test_2::$r0.&lt;BasicTest: void &lt;init&gt;()&gt;()&#45;&gt;rec_test_2 rec_test_2::$r2 = rec_test_2::r1.&lt;BasicTest: BasicTest f&gt; -->
<g id="edge11" class="edge">
<title>rec_test_2 specialinvoke rec_test_2::$r0.&lt;BasicTest: void &lt;init&gt;()&gt;()&#45;&gt;rec_test_2 rec_test_2::$r2 = rec_test_2::r1.&lt;BasicTest: BasicTest f&gt;</title>
<path fill="none" stroke="black" d="M1609.69,-813.03C1593.65,-808.46 1580.94,-802.71 1575,-795.5 1556.42,-772.94 1556.47,-686.6 1575,-664 1579.51,-658.5 1588.04,-653.84 1599,-649.91"/>
<polygon fill="black" stroke="black" points="1599.79,-653.33 1608.25,-646.95 1597.66,-646.66 1599.79,-653.33"/>
<text text-anchor="start" x="1575" y="-782.2" font-family="Times,serif" font-size="14.00">[BasicTest.f.in02, BasicTest.REC_TEST_1.in03] =&gt; {rec_test_2::$r0 &#45;&gt; [rec_test_2.new01], </text>
<text text-anchor="start" x="1575" y="-765.7" font-family="Times,serif" font-size="14.00">@parameter0: BasicTest &#45;&gt; [f.new00], </text>
<text text-anchor="start" x="1575" y="-749.2" font-family="Times,serif" font-size="14.00">f::$r0 &#45;&gt; [f.new00], </text>
<text text-anchor="start" x="1575" y="-732.7" font-family="Times,serif" font-size="14.00">REC_TEST_1::$r0 &#45;&gt; [REC_TEST_1.new01], </text>
<text text-anchor="start" x="1575" y="-716.2" font-family="Times,serif" font-size="14.00">REC_TEST_1::r1 &#45;&gt; [f.new00], </text>
<text text-anchor="start" x="1575" y="-699.7" font-family="Times,serif" font-size="14.00">rec_test_2::r1 &#45;&gt; [f.new00], </text>
<text text-anchor="start" x="1575" y="-683.2" font-family="Times,serif" font-size="14.00">}</text>
</g>
<!-- rec_test_2 if rec_test_2::$r2 == null goto staticinvoke &lt;BasicTest: BasicTest rec_test_2(BasicTest)&gt;(rec_test_2::$r0) -->
<g id="node15" class="node">
<title>rec_test_2 if rec_test_2::$r2 == null goto staticinvoke &lt;BasicTest: BasicTest rec_test_2(BasicTest)&gt;(rec_test_2::$r0)</title>
<polygon fill="none" stroke="black" points="2211.88,-442.5 1556.12,-442.5 1556.12,-406.5 2211.88,-406.5 2211.88,-442.5"/>
<text text-anchor="middle" x="1884" y="-419.45" font-family="Times,serif" font-size="14.00">rec_test_2 if rec_test_2::$r2 == null goto staticinvoke &lt;BasicTest: BasicTest rec_test_2(BasicTest)&gt;(rec_test_2::$r0)</text>
</g>
<!-- rec_test_2 rec_test_2::$r2 = rec_test_2::r1.&lt;BasicTest: BasicTest f&gt;&#45;&gt;rec_test_2 if rec_test_2::$r2 == null goto staticinvoke &lt;BasicTest: BasicTest rec_test_2(BasicTest)&gt;(rec_test_2::$r0) -->
<g id="edge12" class="edge">
<title>rec_test_2 rec_test_2::$r2 = rec_test_2::r1.&lt;BasicTest: BasicTest f&gt;&#45;&gt;rec_test_2 if rec_test_2::$r2 == null goto staticinvoke &lt;BasicTest: BasicTest rec_test_2(BasicTest)&gt;(rec_test_2::$r0)</title>
<path fill="none" stroke="black" d="M1725.93,-609.7C1720.69,-604.64 1715.87,-598.66 1713,-592 1689.89,-538.32 1676.05,-505.78 1713,-460.5 1717.51,-454.97 1726.15,-450.29 1737.24,-446.34"/>
<polygon fill="black" stroke="black" points="1738.15,-449.72 1746.62,-443.37 1736.03,-443.05 1738.15,-449.72"/>
<text text-anchor="start" x="1713" y="-578.7" font-family="Times,serif" font-size="14.00">[BasicTest.f.in02, BasicTest.REC_TEST_1.in03] =&gt; {rec_test_2::$r0 &#45;&gt; [rec_test_2.new01], </text>
<text text-anchor="start" x="1713" y="-562.2" font-family="Times,serif" font-size="14.00">@parameter0: BasicTest &#45;&gt; [f.new00], </text>
<text text-anchor="start" x="1713" y="-545.7" font-family="Times,serif" font-size="14.00">f::$r0 &#45;&gt; [f.new00], </text>
<text text-anchor="start" x="1713" y="-529.2" font-family="Times,serif" font-size="14.00">REC_TEST_1::$r0 &#45;&gt; [REC_TEST_1.new01], </text>
<text text-anchor="start" x="1713" y="-512.7" font-family="Times,serif" font-size="14.00">REC_TEST_1::r1 &#45;&gt; [f.new00], </text>
<text text-anchor="start" x="1713" y="-496.2" font-family="Times,serif" font-size="14.00">rec_test_2::r1 &#45;&gt; [f.new00], </text>
<text text-anchor="start" x="1713" y="-479.7" font-family="Times,serif" font-size="14.00">}</text>
</g>
<!-- rec_test_2 return null -->
<g id="node16" class="node">
<title>rec_test_2 return null</title>
<polygon fill="none" stroke="black" points="1703.12,-239 1570.88,-239 1570.88,-203 1703.12,-203 1703.12,-239"/>
<text text-anchor="middle" x="1637" y="-215.95" font-family="Times,serif" font-size="14.00">rec_test_2 return null</text>
</g>
<!-- rec_test_2 if rec_test_2::$r2 == null goto staticinvoke &lt;BasicTest: BasicTest rec_test_2(BasicTest)&gt;(rec_test_2::$r0)&#45;&gt;rec_test_2 return null -->
<g id="edge13" class="edge">
<title>rec_test_2 if rec_test_2::$r2 == null goto staticinvoke &lt;BasicTest: BasicTest rec_test_2(BasicTest)&gt;(rec_test_2::$r0)&#45;&gt;rec_test_2 return null</title>
<path fill="none" stroke="black" d="M1670.64,-406.11C1655.86,-401.5 1644.31,-395.73 1638,-388.5 1604.81,-350.48 1616.43,-286.87 1627.17,-250.26"/>
<polygon fill="black" stroke="black" points="1630.47,-251.43 1630.12,-240.84 1623.79,-249.34 1630.47,-251.43"/>
<text text-anchor="start" x="1638" y="-375.2" font-family="Times,serif" font-size="14.00">[BasicTest.f.in02, BasicTest.REC_TEST_1.in03] =&gt; {rec_test_2::$r0 &#45;&gt; [rec_test_2.new01], </text>
<text text-anchor="start" x="1638" y="-358.7" font-family="Times,serif" font-size="14.00">@parameter0: BasicTest &#45;&gt; [f.new00], </text>
<text text-anchor="start" x="1638" y="-342.2" font-family="Times,serif" font-size="14.00">f::$r0 &#45;&gt; [f.new00], </text>
<text text-anchor="start" x="1638" y="-325.7" font-family="Times,serif" font-size="14.00">REC_TEST_1::$r0 &#45;&gt; [REC_TEST_1.new01], </text>
<text text-anchor="start" x="1638" y="-309.2" font-family="Times,serif" font-size="14.00">REC_TEST_1::r1 &#45;&gt; [f.new00], </text>
<text text-anchor="start" x="1638" y="-292.7" font-family="Times,serif" font-size="14.00">rec_test_2::r1 &#45;&gt; [f.new00], </text>
<text text-anchor="start" x="1638" y="-276.2" font-family="Times,serif" font-size="14.00">}</text>
</g>
<!-- rec_test_2 staticinvoke &lt;BasicTest: BasicTest rec_test_2(BasicTest)&gt;(rec_test_2::$r0) -->
<g id="node17" class="node">
<title>rec_test_2 staticinvoke &lt;BasicTest: BasicTest rec_test_2(BasicTest)&gt;(rec_test_2::$r0)</title>
<polygon fill="none" stroke="black" points="2399.12,-239 1912.88,-239 1912.88,-203 2399.12,-203 2399.12,-239"/>
<text text-anchor="middle" x="2156" y="-215.95" font-family="Times,serif" font-size="14.00">rec_test_2 staticinvoke &lt;BasicTest: BasicTest rec_test_2(BasicTest)&gt;(rec_test_2::$r0)</text>
</g>
<!-- rec_test_2 if rec_test_2::$r2 == null goto staticinvoke &lt;BasicTest: BasicTest rec_test_2(BasicTest)&gt;(rec_test_2::$r0)&#45;&gt;rec_test_2 staticinvoke &lt;BasicTest: BasicTest rec_test_2(BasicTest)&gt;(rec_test_2::$r0) -->
<g id="edge14" class="edge">
<title>rec_test_2 if rec_test_2::$r2 == null goto staticinvoke &lt;BasicTest: BasicTest rec_test_2(BasicTest)&gt;(rec_test_2::$r0)&#45;&gt;rec_test_2 staticinvoke &lt;BasicTest: BasicTest rec_test_2(BasicTest)&gt;(rec_test_2::$r0)</title>
<path fill="none" stroke="red" d="M2118.78,-406.03C2133.22,-401.41 2144.53,-395.65 2151,-388.5 2184.96,-350.95 2174.81,-286.9 2165,-250.15"/>
<polygon fill="red" stroke="red" points="2168.41,-249.35 2162.3,-240.7 2161.68,-251.28 2168.41,-249.35"/>
</g>
<!-- rec_test_2 return null&#45;&gt;REC_TEST_1 return REC_TEST_1::$r0 -->
<g id="edge20" class="edge">
<title>rec_test_2 return null&#45;&gt;REC_TEST_1 return REC_TEST_1::$r0</title>
<path fill="none" stroke="red" stroke-dasharray="1,5" d="M1570.55,-207.76C1540.16,-201.69 1503.8,-193.79 1471.5,-185 1316.16,-142.72 1285.36,-104.03 1128,-70 1060.22,-55.34 983.44,-46.77 920.11,-41.78"/>
<polygon fill="red" stroke="red" points="920.6,-38.31 910.36,-41.04 920.07,-45.29 920.6,-38.31"/>
<text text-anchor="middle" x="1552.75" y="-122.45" font-family="Times,serif" font-size="14.00">BasicTest.REC_TEST_1.in03</text>
</g>
<!-- rec_test_2 return rec_test_2::$r0 -->
<g id="node18" class="node">
<title>rec_test_2 return rec_test_2::$r0</title>
<polygon fill="none" stroke="black" points="1748.12,-52 1555.88,-52 1555.88,-16 1748.12,-16 1748.12,-52"/>
<text text-anchor="middle" x="1652" y="-28.95" font-family="Times,serif" font-size="14.00">rec_test_2 return rec_test_2::$r0</text>
</g>
<!-- rec_test_2 return null&#45;&gt;rec_test_2 return rec_test_2::$r0 -->
<g id="edge19" class="edge">
<title>rec_test_2 return null&#45;&gt;rec_test_2 return rec_test_2::$r0</title>
<path fill="none" stroke="red" stroke-dasharray="1,5" d="M1638.41,-202.6C1641,-170.71 1646.52,-102.64 1649.67,-63.77"/>
<polygon fill="red" stroke="red" points="1653.14,-64.25 1650.46,-54 1646.16,-63.69 1653.14,-64.25"/>
<text text-anchor="middle" x="1719.12" y="-122.45" font-family="Times,serif" font-size="14.00">BasicTest.rec_test_2.in06</text>
</g>
<!-- rec_test_2 staticinvoke &lt;BasicTest: BasicTest rec_test_2(BasicTest)&gt;(rec_test_2::$r0)&#45;&gt;rec_test_2 rec_test_2::r1 := @parameter0: BasicTest -->
<g id="edge21" class="edge">
<title>rec_test_2 staticinvoke &lt;BasicTest: BasicTest rec_test_2(BasicTest)&gt;(rec_test_2::$r0)&#45;&gt;rec_test_2 rec_test_2::r1 := @parameter0: BasicTest</title>
<path fill="none" stroke="black" stroke-dasharray="1,5" d="M2163.76,-239.39C2177.77,-271.62 2207.13,-343.14 2221,-406.5 2226.15,-430.05 2224.89,-436.42 2226,-460.5 2233.54,-623.77 2226.92,-1077.14 2105,-1186 2087.18,-1201.91 1973.1,-1210.84 1871.77,-1215.69"/>
<polygon fill="black" stroke="black" points="1871.78,-1212.18 1861.95,-1216.15 1872.1,-1219.18 1871.78,-1212.18"/>
<text text-anchor="middle" x="2484" y="-773.95" font-family="Times,serif" font-size="14.00">BasicTest.rec_test_2.in06</text>
<text text-anchor="start" x="2226" y="-757.45" font-family="Times,serif" font-size="14.00">[BasicTest.f.in02, BasicTest.REC_TEST_1.in03] =&gt; {@parameter0: BasicTest &#45;&gt; [f.new00], </text>
<text text-anchor="start" x="2226" y="-740.95" font-family="Times,serif" font-size="14.00">f::$r0 &#45;&gt; [f.new00], </text>
<text text-anchor="start" x="2226" y="-724.45" font-family="Times,serif" font-size="14.00">REC_TEST_1::$r0 &#45;&gt; [REC_TEST_1.new01], </text>
<text text-anchor="start" x="2226" y="-707.95" font-family="Times,serif" font-size="14.00">REC_TEST_1::r1 &#45;&gt; [f.new00], </text>
<text text-anchor="start" x="2226" y="-691.45" font-family="Times,serif" font-size="14.00">}</text>
</g>
<!-- rec_test_2 staticinvoke &lt;BasicTest: BasicTest rec_test_2(BasicTest)&gt;(rec_test_2::$r0)&#45;&gt;rec_test_2 return rec_test_2::$r0 -->
<g id="edge15" class="edge">
<title>rec_test_2 staticinvoke &lt;BasicTest: BasicTest rec_test_2(BasicTest)&gt;(rec_test_2::$r0)&#45;&gt;rec_test_2 return rec_test_2::$r0</title>
<path fill="none" stroke="red" d="M2119.07,-202.59C2054.2,-172.49 1915.11,-110.14 1793,-70 1776.78,-64.67 1759.29,-59.71 1742.32,-55.3"/>
<polygon fill="red" stroke="red" points="1743.29,-51.94 1732.73,-52.86 1741.56,-58.72 1743.29,-51.94"/>
</g>
<!-- rec_test_2 return rec_test_2::$r0&#45;&gt;REC_TEST_1 return REC_TEST_1::$r0 -->
<g id="edge23" class="edge">
<title>rec_test_2 return rec_test_2::$r0&#45;&gt;REC_TEST_1 return REC_TEST_1::$r0</title>
<path fill="none" stroke="red" stroke-dasharray="1,5" d="M1555.53,-34C1400.25,-34 1094.65,-34 919.86,-34"/>
<polygon fill="red" stroke="red" points="920.06,-30.5 910.06,-34 920.06,-37.5 920.06,-30.5"/>
<text text-anchor="middle" x="1232.12" y="-40.2" font-family="Times,serif" font-size="14.00">BasicTest.REC_TEST_1.in03</text>
</g>
<!-- rec_test_2 return rec_test_2::$r0&#45;&gt;rec_test_2 return rec_test_2::$r0 -->
<g id="edge22" class="edge">
<title>rec_test_2 return rec_test_2::$r0&#45;&gt;rec_test_2 return rec_test_2::$r0</title>
<path fill="none" stroke="red" stroke-dasharray="1,5" d="M1748.58,-48.75C1759.24,-45.95 1766.12,-41.03 1766.12,-34 1766.12,-29.72 1763.57,-26.22 1759.16,-23.5"/>
<polygon fill="red" stroke="red" points="1760.57,-20.3 1749.99,-19.82 1757.96,-26.79 1760.57,-20.3"/>
<text text-anchor="middle" x="1836.25" y="-28.95" font-family="Times,serif" font-size="14.00">BasicTest.rec_test_2.in06</text>
</g>
</g>
</svg>
