<?xml version="1.0" encoding="UTF-8" standalone="no"?>
<!DOCTYPE svg PUBLIC "-//W3C//DTD SVG 1.1//EN"
 "http://www.w3.org/Graphics/SVG/1.1/DTD/svg11.dtd">
<!-- Generated by graphviz version 9.0.0 (20230911.1827)
 -->
<!-- Title: G Pages: 1 -->
<svg width="995pt" height="2260pt"
 viewBox="0.00 0.00 995.00 2259.50" xmlns="http://www.w3.org/2000/svg" xmlns:xlink="http://www.w3.org/1999/xlink">
<g id="graph0" class="graph" transform="scale(1 1) rotate(0) translate(4 2255.5)">
<title>G</title>
<polygon fill="white" stroke="none" points="-4,4 -4,-2255.5 991,-2255.5 991,4 -4,4"/>
<g id="clust1" class="cluster">
<title>cluster_0</title>
<polygon fill="none" stroke="black" points="8,-959.5 8,-2243.5 478,-2243.5 478,-959.5 8,-959.5"/>
</g>
<g id="clust2" class="cluster">
<title>cluster_1</title>
<polygon fill="none" stroke="black" points="486,-8 486,-1011.5 889,-1011.5 889,-8 486,-8"/>
</g>
<!-- test1 test1::$r0 = new PubTest -->
<g id="node1" class="node">
<title>test1 test1::$r0 = new PubTest</title>
<polygon fill="none" stroke="black" points="334.25,-2235.5 151.75,-2235.5 151.75,-2199.5 334.25,-2199.5 334.25,-2235.5"/>
<text text-anchor="middle" x="243" y="-2212.45" font-family="Times,serif" font-size="14.00">test1 test1::$r0 = new PubTest</text>
</g>
<!-- test1 specialinvoke test1::$r0.&lt;PubTest: void &lt;init&gt;()&gt;() -->
<g id="node2" class="node">
<title>test1 specialinvoke test1::$r0.&lt;PubTest: void &lt;init&gt;()&gt;()</title>
<polygon fill="none" stroke="black" points="406.25,-2114.5 79.75,-2114.5 79.75,-2078.5 406.25,-2078.5 406.25,-2114.5"/>
<text text-anchor="middle" x="243" y="-2091.45" font-family="Times,serif" font-size="14.00">test1 specialinvoke test1::$r0.&lt;PubTest: void &lt;init&gt;()&gt;()</text>
</g>
<!-- test1 test1::$r0 = new PubTest&#45;&gt;test1 specialinvoke test1::$r0.&lt;PubTest: void &lt;init&gt;()&gt;() -->
<g id="edge1" class="edge">
<title>test1 test1::$r0 = new PubTest&#45;&gt;test1 specialinvoke test1::$r0.&lt;PubTest: void &lt;init&gt;()&gt;()</title>
<path fill="none" stroke="black" d="M243,-2199.2C243,-2180.07 243,-2148.96 243,-2126.18"/>
<polygon fill="black" stroke="black" points="246.5,-2126.34 243,-2116.34 239.5,-2126.34 246.5,-2126.34"/>
<text text-anchor="start" x="243" y="-2168.2" font-family="Times,serif" font-size="14.00">[] =&gt; {test1::$r0 &#45;&gt; [test1.new00], </text>
<text text-anchor="start" x="243" y="-2151.7" font-family="Times,serif" font-size="14.00">}</text>
</g>
<!-- test1 test1::$r1 = new PubTest -->
<g id="node3" class="node">
<title>test1 test1::$r1 = new PubTest</title>
<polygon fill="none" stroke="black" points="334.25,-1993.5 151.75,-1993.5 151.75,-1957.5 334.25,-1957.5 334.25,-1993.5"/>
<text text-anchor="middle" x="243" y="-1970.45" font-family="Times,serif" font-size="14.00">test1 test1::$r1 = new PubTest</text>
</g>
<!-- test1 specialinvoke test1::$r0.&lt;PubTest: void &lt;init&gt;()&gt;()&#45;&gt;test1 test1::$r1 = new PubTest -->
<g id="edge2" class="edge">
<title>test1 specialinvoke test1::$r0.&lt;PubTest: void &lt;init&gt;()&gt;()&#45;&gt;test1 test1::$r1 = new PubTest</title>
<path fill="none" stroke="black" d="M243,-2078.2C243,-2059.07 243,-2027.96 243,-2005.18"/>
<polygon fill="black" stroke="black" points="246.5,-2005.34 243,-1995.34 239.5,-2005.34 246.5,-2005.34"/>
<text text-anchor="start" x="243" y="-2047.2" font-family="Times,serif" font-size="14.00">[] =&gt; {test1::$r0 &#45;&gt; [test1.new00], </text>
<text text-anchor="start" x="243" y="-2030.7" font-family="Times,serif" font-size="14.00">}</text>
</g>
<!-- test1 specialinvoke test1::$r1.&lt;PubTest: void &lt;init&gt;()&gt;() -->
<g id="node4" class="node">
<title>test1 specialinvoke test1::$r1.&lt;PubTest: void &lt;init&gt;()&gt;()</title>
<polygon fill="none" stroke="black" points="406.25,-1856 79.75,-1856 79.75,-1820 406.25,-1820 406.25,-1856"/>
<text text-anchor="middle" x="243" y="-1832.95" font-family="Times,serif" font-size="14.00">test1 specialinvoke test1::$r1.&lt;PubTest: void &lt;init&gt;()&gt;()</text>
</g>
<!-- test1 test1::$r1 = new PubTest&#45;&gt;test1 specialinvoke test1::$r1.&lt;PubTest: void &lt;init&gt;()&gt;() -->
<g id="edge3" class="edge">
<title>test1 test1::$r1 = new PubTest&#45;&gt;test1 specialinvoke test1::$r1.&lt;PubTest: void &lt;init&gt;()&gt;()</title>
<path fill="none" stroke="black" d="M243,-1957.06C243,-1934.5 243,-1894.88 243,-1867.82"/>
<polygon fill="black" stroke="black" points="246.5,-1867.88 243,-1857.88 239.5,-1867.88 246.5,-1867.88"/>
<text text-anchor="start" x="243" y="-1926.2" font-family="Times,serif" font-size="14.00">[] =&gt; {test1::$r0 &#45;&gt; [test1.new00], </text>
<text text-anchor="start" x="243" y="-1909.7" font-family="Times,serif" font-size="14.00">test1::$r1 &#45;&gt; [test1.new02], </text>
<text text-anchor="start" x="243" y="-1893.2" font-family="Times,serif" font-size="14.00">}</text>
</g>
<!-- test1 test1::$r0.&lt;PubTest: PubTest f&gt; = test1::$r1 -->
<g id="node5" class="node">
<title>test1 test1::$r0.&lt;PubTest: PubTest f&gt; = test1::$r1</title>
<polygon fill="none" stroke="black" points="386.75,-1718.5 99.25,-1718.5 99.25,-1682.5 386.75,-1682.5 386.75,-1718.5"/>
<text text-anchor="middle" x="243" y="-1695.45" font-family="Times,serif" font-size="14.00">test1 test1::$r0.&lt;PubTest: PubTest f&gt; = test1::$r1</text>
</g>
<!-- test1 specialinvoke test1::$r1.&lt;PubTest: void &lt;init&gt;()&gt;()&#45;&gt;test1 test1::$r0.&lt;PubTest: PubTest f&gt; = test1::$r1 -->
<g id="edge4" class="edge">
<title>test1 specialinvoke test1::$r1.&lt;PubTest: void &lt;init&gt;()&gt;()&#45;&gt;test1 test1::$r0.&lt;PubTest: PubTest f&gt; = test1::$r1</title>
<path fill="none" stroke="black" d="M243,-1819.56C243,-1797 243,-1757.38 243,-1730.32"/>
<polygon fill="black" stroke="black" points="246.5,-1730.38 243,-1720.38 239.5,-1730.38 246.5,-1730.38"/>
<text text-anchor="start" x="243" y="-1788.7" font-family="Times,serif" font-size="14.00">[] =&gt; {test1::$r0 &#45;&gt; [test1.new00], </text>
<text text-anchor="start" x="243" y="-1772.2" font-family="Times,serif" font-size="14.00">test1::$r1 &#45;&gt; [test1.new02], </text>
<text text-anchor="start" x="243" y="-1755.7" font-family="Times,serif" font-size="14.00">}</text>
</g>
<!-- test1 test1::$r2 = new PubTest -->
<g id="node6" class="node">
<title>test1 test1::$r2 = new PubTest</title>
<polygon fill="none" stroke="black" points="334.25,-1564.5 151.75,-1564.5 151.75,-1528.5 334.25,-1528.5 334.25,-1564.5"/>
<text text-anchor="middle" x="243" y="-1541.45" font-family="Times,serif" font-size="14.00">test1 test1::$r2 = new PubTest</text>
</g>
<!-- test1 test1::$r0.&lt;PubTest: PubTest f&gt; = test1::$r1&#45;&gt;test1 test1::$r2 = new PubTest -->
<g id="edge5" class="edge">
<title>test1 test1::$r0.&lt;PubTest: PubTest f&gt; = test1::$r1&#45;&gt;test1 test1::$r2 = new PubTest</title>
<path fill="none" stroke="black" d="M243,-1682.06C243,-1656.18 243,-1607.3 243,-1576.12"/>
<polygon fill="black" stroke="black" points="246.5,-1576.25 243,-1566.25 239.5,-1576.25 246.5,-1576.25"/>
<text text-anchor="start" x="243" y="-1651.2" font-family="Times,serif" font-size="14.00">[] =&gt; {test1::$r0 &#45;&gt; [test1.new00], </text>
<text text-anchor="start" x="243" y="-1634.7" font-family="Times,serif" font-size="14.00">test1.new00.f &#45;&gt; [test1.new02], </text>
<text text-anchor="start" x="243" y="-1618.2" font-family="Times,serif" font-size="14.00">test1::$r1 &#45;&gt; [test1.new02], </text>
<text text-anchor="start" x="243" y="-1601.7" font-family="Times,serif" font-size="14.00">}</text>
</g>
<!-- test1 specialinvoke test1::$r2.&lt;PubTest: void &lt;init&gt;()&gt;() -->
<g id="node7" class="node">
<title>test1 specialinvoke test1::$r2.&lt;PubTest: void &lt;init&gt;()&gt;()</title>
<polygon fill="none" stroke="black" points="406.25,-1394 79.75,-1394 79.75,-1358 406.25,-1358 406.25,-1394"/>
<text text-anchor="middle" x="243" y="-1370.95" font-family="Times,serif" font-size="14.00">test1 specialinvoke test1::$r2.&lt;PubTest: void &lt;init&gt;()&gt;()</text>
</g>
<!-- test1 test1::$r2 = new PubTest&#45;&gt;test1 specialinvoke test1::$r2.&lt;PubTest: void &lt;init&gt;()&gt;() -->
<g id="edge6" class="edge">
<title>test1 test1::$r2 = new PubTest&#45;&gt;test1 specialinvoke test1::$r2.&lt;PubTest: void &lt;init&gt;()&gt;()</title>
<path fill="none" stroke="black" d="M243,-1528.1C243,-1499.07 243,-1440.47 243,-1405.39"/>
<polygon fill="black" stroke="black" points="246.5,-1405.57 243,-1395.57 239.5,-1405.57 246.5,-1405.57"/>
<text text-anchor="start" x="243" y="-1497.2" font-family="Times,serif" font-size="14.00">[] =&gt; {test1::$r0 &#45;&gt; [test1.new00], </text>
<text text-anchor="start" x="243" y="-1480.7" font-family="Times,serif" font-size="14.00">test1.new00.f &#45;&gt; [test1.new02], </text>
<text text-anchor="start" x="243" y="-1464.2" font-family="Times,serif" font-size="14.00">test1::$r1 &#45;&gt; [test1.new02], </text>
<text text-anchor="start" x="243" y="-1447.7" font-family="Times,serif" font-size="14.00">test1::$r2 &#45;&gt; [test1.new05]</text>
<text text-anchor="start" x="243" y="-1431.2" font-family="Times,serif" font-size="14.00">}</text>
</g>
<!-- test1 staticinvoke &lt;PubTest: void foo1(PubTest,PubTest)&gt;(test1::$r0, test1::$r2) -->
<g id="node8" class="node">
<title>test1 staticinvoke &lt;PubTest: void foo1(PubTest,PubTest)&gt;(test1::$r0, test1::$r2)</title>
<polygon fill="none" stroke="black" points="470.38,-1223.5 15.62,-1223.5 15.62,-1187.5 470.38,-1187.5 470.38,-1223.5"/>
<text text-anchor="middle" x="243" y="-1200.45" font-family="Times,serif" font-size="14.00">test1 staticinvoke &lt;PubTest: void foo1(PubTest,PubTest)&gt;(test1::$r0, test1::$r2)</text>
</g>
<!-- test1 specialinvoke test1::$r2.&lt;PubTest: void &lt;init&gt;()&gt;()&#45;&gt;test1 staticinvoke &lt;PubTest: void foo1(PubTest,PubTest)&gt;(test1::$r0, test1::$r2) -->
<g id="edge7" class="edge">
<title>test1 specialinvoke test1::$r2.&lt;PubTest: void &lt;init&gt;()&gt;()&#45;&gt;test1 staticinvoke &lt;PubTest: void foo1(PubTest,PubTest)&gt;(test1::$r0, test1::$r2)</title>
<path fill="none" stroke="black" d="M243,-1357.6C243,-1328.57 243,-1269.97 243,-1234.89"/>
<polygon fill="black" stroke="black" points="246.5,-1235.07 243,-1225.07 239.5,-1235.07 246.5,-1235.07"/>
<text text-anchor="start" x="243" y="-1326.7" font-family="Times,serif" font-size="14.00">[] =&gt; {test1::$r0 &#45;&gt; [test1.new00], </text>
<text text-anchor="start" x="243" y="-1310.2" font-family="Times,serif" font-size="14.00">test1.new00.f &#45;&gt; [test1.new02], </text>
<text text-anchor="start" x="243" y="-1293.7" font-family="Times,serif" font-size="14.00">test1::$r1 &#45;&gt; [test1.new02], </text>
<text text-anchor="start" x="243" y="-1277.2" font-family="Times,serif" font-size="14.00">test1::$r2 &#45;&gt; [test1.new05]</text>
<text text-anchor="start" x="243" y="-1260.7" font-family="Times,serif" font-size="14.00">}</text>
</g>
<!-- test1 return -->
<g id="node9" class="node">
<title>test1 return</title>
<polygon fill="none" stroke="black" points="397.75,-1003.5 320.25,-1003.5 320.25,-967.5 397.75,-967.5 397.75,-1003.5"/>
<text text-anchor="middle" x="359" y="-980.45" font-family="Times,serif" font-size="14.00">test1 return</text>
</g>
<!-- test1 staticinvoke &lt;PubTest: void foo1(PubTest,PubTest)&gt;(test1::$r0, test1::$r2)&#45;&gt;test1 return -->
<g id="edge8" class="edge">
<title>test1 staticinvoke &lt;PubTest: void foo1(PubTest,PubTest)&gt;(test1::$r0, test1::$r2)&#45;&gt;test1 return</title>
<path fill="none" stroke="black" d="M252.3,-1187.03C272.45,-1149.15 320.31,-1059.21 344.49,-1013.77"/>
<polygon fill="black" stroke="black" points="347.5,-1015.56 349.11,-1005.09 341.32,-1012.27 347.5,-1015.56"/>
<text text-anchor="start" x="339" y="-1098.45" font-family="Times,serif" font-size="14.00">[] =&gt; {}</text>
</g>
<!-- foo1 foo1::r0 := @parameter0: PubTest -->
<g id="node10" class="node">
<title>foo1 foo1::r0 := @parameter0: PubTest</title>
<polygon fill="none" stroke="black" points="727.75,-1003.5 494.25,-1003.5 494.25,-967.5 727.75,-967.5 727.75,-1003.5"/>
<text text-anchor="middle" x="611" y="-980.45" font-family="Times,serif" font-size="14.00">foo1 foo1::r0 := @parameter0: PubTest</text>
</g>
<!-- test1 staticinvoke &lt;PubTest: void foo1(PubTest,PubTest)&gt;(test1::$r0, test1::$r2)&#45;&gt;foo1 foo1::r0 := @parameter0: PubTest -->
<g id="edge17" class="edge">
<title>test1 staticinvoke &lt;PubTest: void foo1(PubTest,PubTest)&gt;(test1::$r0, test1::$r2)&#45;&gt;foo1 foo1::r0 := @parameter0: PubTest</title>
<path fill="none" stroke="black" stroke-dasharray="1,5" d="M343.62,-1187.06C359.58,-1182.46 375.56,-1176.7 390,-1169.5 471.85,-1128.67 549.98,-1052.27 587.62,-1012.33"/>
<polygon fill="black" stroke="black" points="590.16,-1014.73 594.41,-1005.03 585.04,-1009.96 590.16,-1014.73"/>
<text text-anchor="middle" x="761.5" y="-1156.2" font-family="Times,serif" font-size="14.00">PubTest.test1.in07</text>
<text text-anchor="start" x="577" y="-1139.7" font-family="Times,serif" font-size="14.00">[PubTest.test1.in07] =&gt; {@parameter1: PubTest &#45;&gt; [test1.new05], </text>
<text text-anchor="start" x="577" y="-1123.2" font-family="Times,serif" font-size="14.00">test1::$r0 &#45;&gt; [test1.new00], </text>
<text text-anchor="start" x="577" y="-1106.7" font-family="Times,serif" font-size="14.00">test1.new00.f &#45;&gt; [test1.new02], </text>
<text text-anchor="start" x="577" y="-1090.2" font-family="Times,serif" font-size="14.00">test1::$r1 &#45;&gt; [test1.new02], </text>
<text text-anchor="start" x="577" y="-1073.7" font-family="Times,serif" font-size="14.00">@parameter0: PubTest &#45;&gt; [test1.new00], </text>
<text text-anchor="start" x="577" y="-1057.2" font-family="Times,serif" font-size="14.00">test1::$r2 &#45;&gt; [test1.new05]</text>
<text text-anchor="start" x="577" y="-1040.7" font-family="Times,serif" font-size="14.00">}</text>
</g>
<!-- foo1 foo1::r2 := @parameter1: PubTest -->
<g id="node11" class="node">
<title>foo1 foo1::r2 := @parameter1: PubTest</title>
<polygon fill="none" stroke="black" points="736.75,-783.5 503.25,-783.5 503.25,-747.5 736.75,-747.5 736.75,-783.5"/>
<text text-anchor="middle" x="620" y="-760.45" font-family="Times,serif" font-size="14.00">foo1 foo1::r2 := @parameter1: PubTest</text>
</g>
<!-- foo1 foo1::r0 := @parameter0: PubTest&#45;&gt;foo1 foo1::r2 := @parameter1: PubTest -->
<g id="edge9" class="edge">
<title>foo1 foo1::r0 := @parameter0: PubTest&#45;&gt;foo1 foo1::r2 := @parameter1: PubTest</title>
<path fill="none" stroke="red" d="M611.72,-967.03C613.27,-929.55 616.92,-841.1 618.81,-795.22"/>
<polygon fill="red" stroke="red" points="622.31,-795.4 619.23,-785.26 615.32,-795.11 622.31,-795.4"/>
<text text-anchor="start" x="618" y="-936.2" font-family="Times,serif" font-size="14.00">[PubTest.test1.in07] =&gt; {@parameter1: PubTest &#45;&gt; [test1.new05], </text>
<text text-anchor="start" x="618" y="-919.7" font-family="Times,serif" font-size="14.00">test1::$r0 &#45;&gt; [test1.new00], </text>
<text text-anchor="start" x="618" y="-903.2" font-family="Times,serif" font-size="14.00">foo1::r0 &#45;&gt; [test1.new00], </text>
<text text-anchor="start" x="618" y="-886.7" font-family="Times,serif" font-size="14.00">test1.new00.f &#45;&gt; [test1.new02], </text>
<text text-anchor="start" x="618" y="-870.2" font-family="Times,serif" font-size="14.00">test1::$r1 &#45;&gt; [test1.new02], </text>
<text text-anchor="start" x="618" y="-853.7" font-family="Times,serif" font-size="14.00">@parameter0: PubTest &#45;&gt; [test1.new00], </text>
<text text-anchor="start" x="618" y="-837.2" font-family="Times,serif" font-size="14.00">test1::$r2 &#45;&gt; [test1.new05]</text>
<text text-anchor="start" x="618" y="-820.7" font-family="Times,serif" font-size="14.00">}</text>
</g>
<!-- foo1 foo1::r1 = foo1::r0.&lt;PubTest: PubTest f&gt; -->
<g id="node12" class="node">
<title>foo1 foo1::r1 = foo1::r0.&lt;PubTest: PubTest f&gt;</title>
<polygon fill="none" stroke="black" points="778.88,-679 507.12,-679 507.12,-643 778.88,-643 778.88,-679"/>
<text text-anchor="middle" x="643" y="-655.95" font-family="Times,serif" font-size="14.00">foo1 foo1::r1 = foo1::r0.&lt;PubTest: PubTest f&gt;</text>
</g>
<!-- foo1 foo1::r2 := @parameter1: PubTest&#45;&gt;foo1 foo1::r1 = foo1::r0.&lt;PubTest: PubTest f&gt; -->
<g id="edge10" class="edge">
<title>foo1 foo1::r2 := @parameter1: PubTest&#45;&gt;foo1 foo1::r1 = foo1::r0.&lt;PubTest: PubTest f&gt;</title>
<path fill="none" stroke="red" d="M623.9,-747.11C627.37,-731.65 632.51,-708.75 636.58,-690.59"/>
<polygon fill="red" stroke="red" points="639.97,-691.47 638.75,-680.95 633.14,-689.94 639.97,-691.47"/>
<text text-anchor="start" x="634" y="-716.2" font-family="Times,serif" font-size="14.00">[] =&gt; {}</text>
</g>
<!-- foo1 foo1::r1.&lt;PubTest: PubTest f&gt; = foo1::r2 -->
<g id="node13" class="node">
<title>foo1 foo1::r1.&lt;PubTest: PubTest f&gt; = foo1::r2</title>
<polygon fill="none" stroke="black" points="785.88,-574.5 514.12,-574.5 514.12,-538.5 785.88,-538.5 785.88,-574.5"/>
<text text-anchor="middle" x="650" y="-551.45" font-family="Times,serif" font-size="14.00">foo1 foo1::r1.&lt;PubTest: PubTest f&gt; = foo1::r2</text>
</g>
<!-- foo1 foo1::r1 = foo1::r0.&lt;PubTest: PubTest f&gt;&#45;&gt;foo1 foo1::r1.&lt;PubTest: PubTest f&gt; = foo1::r2 -->
<g id="edge11" class="edge">
<title>foo1 foo1::r1 = foo1::r0.&lt;PubTest: PubTest f&gt;&#45;&gt;foo1 foo1::r1.&lt;PubTest: PubTest f&gt; = foo1::r2</title>
<path fill="none" stroke="red" d="M644.19,-642.61C645.24,-627.22 646.79,-604.46 648.03,-586.35"/>
<polygon fill="red" stroke="red" points="651.51,-586.7 648.7,-576.48 644.53,-586.22 651.51,-586.7"/>
<text text-anchor="start" x="647" y="-611.7" font-family="Times,serif" font-size="14.00">[] =&gt; {}</text>
</g>
<!-- foo1 foo1::$r3 = new PubTest -->
<g id="node14" class="node">
<title>foo1 foo1::$r3 = new PubTest</title>
<polygon fill="none" stroke="black" points="744.5,-470 563.5,-470 563.5,-434 744.5,-434 744.5,-470"/>
<text text-anchor="middle" x="654" y="-446.95" font-family="Times,serif" font-size="14.00">foo1 foo1::$r3 = new PubTest</text>
</g>
<!-- foo1 foo1::r1.&lt;PubTest: PubTest f&gt; = foo1::r2&#45;&gt;foo1 foo1::$r3 = new PubTest -->
<g id="edge12" class="edge">
<title>foo1 foo1::r1.&lt;PubTest: PubTest f&gt; = foo1::r2&#45;&gt;foo1 foo1::$r3 = new PubTest</title>
<path fill="none" stroke="red" d="M650.68,-538.11C651.28,-522.72 652.17,-499.96 652.87,-481.85"/>
<polygon fill="red" stroke="red" points="656.37,-482.11 653.26,-471.99 649.37,-481.84 656.37,-482.11"/>
<text text-anchor="start" x="652" y="-507.2" font-family="Times,serif" font-size="14.00">[] =&gt; {}</text>
</g>
<!-- foo1 specialinvoke foo1::$r3.&lt;PubTest: void &lt;init&gt;()&gt;() -->
<g id="node15" class="node">
<title>foo1 specialinvoke foo1::$r3.&lt;PubTest: void &lt;init&gt;()&gt;()</title>
<polygon fill="none" stroke="black" points="819.5,-365.5 494.5,-365.5 494.5,-329.5 819.5,-329.5 819.5,-365.5"/>
<text text-anchor="middle" x="657" y="-342.45" font-family="Times,serif" font-size="14.00">foo1 specialinvoke foo1::$r3.&lt;PubTest: void &lt;init&gt;()&gt;()</text>
</g>
<!-- foo1 foo1::$r3 = new PubTest&#45;&gt;foo1 specialinvoke foo1::$r3.&lt;PubTest: void &lt;init&gt;()&gt;() -->
<g id="edge13" class="edge">
<title>foo1 foo1::$r3 = new PubTest&#45;&gt;foo1 specialinvoke foo1::$r3.&lt;PubTest: void &lt;init&gt;()&gt;()</title>
<path fill="none" stroke="red" d="M654.51,-433.61C654.96,-418.22 655.63,-395.46 656.16,-377.35"/>
<polygon fill="red" stroke="red" points="659.65,-377.58 656.44,-367.49 652.65,-377.38 659.65,-377.58"/>
<text text-anchor="start" x="655" y="-402.7" font-family="Times,serif" font-size="14.00">[] =&gt; {}</text>
</g>
<!-- foo1 foo1::r2.&lt;PubTest: PubTest f&gt; = foo1::$r3 -->
<g id="node16" class="node">
<title>foo1 foo1::r2.&lt;PubTest: PubTest f&gt; = foo1::$r3</title>
<polygon fill="none" stroke="black" points="784.25,-261 505.75,-261 505.75,-225 784.25,-225 784.25,-261"/>
<text text-anchor="middle" x="645" y="-237.95" font-family="Times,serif" font-size="14.00">foo1 foo1::r2.&lt;PubTest: PubTest f&gt; = foo1::$r3</text>
</g>
<!-- foo1 specialinvoke foo1::$r3.&lt;PubTest: void &lt;init&gt;()&gt;()&#45;&gt;foo1 foo1::r2.&lt;PubTest: PubTest f&gt; = foo1::$r3 -->
<g id="edge14" class="edge">
<title>foo1 specialinvoke foo1::$r3.&lt;PubTest: void &lt;init&gt;()&gt;()&#45;&gt;foo1 foo1::r2.&lt;PubTest: PubTest f&gt; = foo1::$r3</title>
<path fill="none" stroke="red" d="M654.96,-329.11C653.16,-313.72 650.5,-290.96 648.38,-272.85"/>
<polygon fill="red" stroke="red" points="651.86,-272.5 647.22,-262.98 644.91,-273.32 651.86,-272.5"/>
<text text-anchor="start" x="652" y="-298.2" font-family="Times,serif" font-size="14.00">[] =&gt; {}</text>
</g>
<!-- foo1 foo1::$r3.&lt;PubTest: PubTest f&gt; = null -->
<g id="node17" class="node">
<title>foo1 foo1::$r3.&lt;PubTest: PubTest f&gt; = null</title>
<polygon fill="none" stroke="black" points="761,-156.5 505,-156.5 505,-120.5 761,-120.5 761,-156.5"/>
<text text-anchor="middle" x="633" y="-133.45" font-family="Times,serif" font-size="14.00">foo1 foo1::$r3.&lt;PubTest: PubTest f&gt; = null</text>
</g>
<!-- foo1 foo1::r2.&lt;PubTest: PubTest f&gt; = foo1::$r3&#45;&gt;foo1 foo1::$r3.&lt;PubTest: PubTest f&gt; = null -->
<g id="edge15" class="edge">
<title>foo1 foo1::r2.&lt;PubTest: PubTest f&gt; = foo1::$r3&#45;&gt;foo1 foo1::$r3.&lt;PubTest: PubTest f&gt; = null</title>
<path fill="none" stroke="red" d="M642.96,-224.61C641.16,-209.22 638.5,-186.46 636.38,-168.35"/>
<polygon fill="red" stroke="red" points="639.86,-168 635.22,-158.48 632.91,-168.82 639.86,-168"/>
<text text-anchor="start" x="640" y="-193.7" font-family="Times,serif" font-size="14.00">[] =&gt; {}</text>
</g>
<!-- foo1 return -->
<g id="node18" class="node">
<title>foo1 return</title>
<polygon fill="none" stroke="black" points="620.38,-52 543.62,-52 543.62,-16 620.38,-16 620.38,-52"/>
<text text-anchor="middle" x="582" y="-28.95" font-family="Times,serif" font-size="14.00">foo1 return</text>
</g>
<!-- foo1 foo1::$r3.&lt;PubTest: PubTest f&gt; = null&#45;&gt;foo1 return -->
<g id="edge16" class="edge">
<title>foo1 foo1::$r3.&lt;PubTest: PubTest f&gt; = null&#45;&gt;foo1 return</title>
<path fill="none" stroke="red" d="M624.35,-120.11C616.51,-104.36 604.82,-80.87 595.71,-62.56"/>
<polygon fill="red" stroke="red" points="598.96,-61.22 591.37,-53.83 592.69,-64.34 598.96,-61.22"/>
<text text-anchor="start" x="615" y="-89.2" font-family="Times,serif" font-size="14.00">[] =&gt; {}</text>
</g>
<!-- foo1 return&#45;&gt;test1 return -->
<g id="edge18" class="edge">
<title>foo1 return&#45;&gt;test1 return</title>
<path fill="none" stroke="black" stroke-dasharray="1,5" d="M543.27,-41.23C493.93,-51.63 415,-77.63 415,-137.5 415,-766.5 415,-766.5 415,-766.5 415,-836.69 387.43,-915.7 370.98,-956.6"/>
<polygon fill="black" stroke="black" points="367.81,-955.11 367.24,-965.69 374.29,-957.77 367.81,-955.11"/>
<text text-anchor="middle" x="465.62" y="-446.95" font-family="Times,serif" font-size="14.00">PubTest.test1.in07</text>
</g>
</g>
</svg>
