<?xml version="1.0" encoding="UTF-8" standalone="no"?>
<!DOCTYPE svg PUBLIC "-//W3C//DTD SVG 1.1//EN"
 "http://www.w3.org/Graphics/SVG/1.1/DTD/svg11.dtd">
<!-- Generated by graphviz version 9.0.0 (20230911.1827)
 -->
<!-- Title: G Pages: 1 -->
<svg width="1031pt" height="3068pt"
 viewBox="0.00 0.00 1031.00 3068.00" xmlns="http://www.w3.org/2000/svg" xmlns:xlink="http://www.w3.org/1999/xlink">
<g id="graph0" class="graph" transform="scale(1 1) rotate(0) translate(4 3064)">
<title>G</title>
<polygon fill="white" stroke="none" points="-4,4 -4,-3064 1027,-3064 1027,4 -4,4"/>
<g id="clust1" class="cluster">
<title>cluster_0</title>
<polygon fill="none" stroke="black" points="8,-1768 8,-3052 478,-3052 478,-1768 8,-1768"/>
</g>
<g id="clust2" class="cluster">
<title>cluster_1</title>
<polygon fill="none" stroke="black" points="486,-8 486,-1820 889,-1820 889,-8 486,-8"/>
</g>
<!-- test1 test1::$r0 = new PubTest -->
<g id="node1" class="node">
<title>test1 test1::$r0 = new PubTest</title>
<polygon fill="none" stroke="black" points="334.25,-3044 151.75,-3044 151.75,-3008 334.25,-3008 334.25,-3044"/>
<text text-anchor="middle" x="243" y="-3020.95" font-family="Times,serif" font-size="14.00">test1 test1::$r0 = new PubTest</text>
</g>
<!-- test1 specialinvoke test1::$r0.&lt;PubTest: void &lt;init&gt;()&gt;() -->
<g id="node2" class="node">
<title>test1 specialinvoke test1::$r0.&lt;PubTest: void &lt;init&gt;()&gt;()</title>
<polygon fill="none" stroke="black" points="406.25,-2923 79.75,-2923 79.75,-2887 406.25,-2887 406.25,-2923"/>
<text text-anchor="middle" x="243" y="-2899.95" font-family="Times,serif" font-size="14.00">test1 specialinvoke test1::$r0.&lt;PubTest: void &lt;init&gt;()&gt;()</text>
</g>
<!-- test1 test1::$r0 = new PubTest&#45;&gt;test1 specialinvoke test1::$r0.&lt;PubTest: void &lt;init&gt;()&gt;() -->
<g id="edge1" class="edge">
<title>test1 test1::$r0 = new PubTest&#45;&gt;test1 specialinvoke test1::$r0.&lt;PubTest: void &lt;init&gt;()&gt;()</title>
<path fill="none" stroke="black" d="M243,-3007.7C243,-2988.57 243,-2957.46 243,-2934.68"/>
<polygon fill="black" stroke="black" points="246.5,-2934.84 243,-2924.84 239.5,-2934.84 246.5,-2934.84"/>
<text text-anchor="start" x="243" y="-2976.7" font-family="Times,serif" font-size="14.00">[] =&gt; {test1::$r0 &#45;&gt; [test1.new00], </text>
<text text-anchor="start" x="243" y="-2960.2" font-family="Times,serif" font-size="14.00">}</text>
</g>
<!-- test1 test1::$r1 = new PubTest -->
<g id="node3" class="node">
<title>test1 test1::$r1 = new PubTest</title>
<polygon fill="none" stroke="black" points="334.25,-2802 151.75,-2802 151.75,-2766 334.25,-2766 334.25,-2802"/>
<text text-anchor="middle" x="243" y="-2778.95" font-family="Times,serif" font-size="14.00">test1 test1::$r1 = new PubTest</text>
</g>
<!-- test1 specialinvoke test1::$r0.&lt;PubTest: void &lt;init&gt;()&gt;()&#45;&gt;test1 test1::$r1 = new PubTest -->
<g id="edge2" class="edge">
<title>test1 specialinvoke test1::$r0.&lt;PubTest: void &lt;init&gt;()&gt;()&#45;&gt;test1 test1::$r1 = new PubTest</title>
<path fill="none" stroke="black" d="M243,-2886.7C243,-2867.57 243,-2836.46 243,-2813.68"/>
<polygon fill="black" stroke="black" points="246.5,-2813.84 243,-2803.84 239.5,-2813.84 246.5,-2813.84"/>
<text text-anchor="start" x="243" y="-2855.7" font-family="Times,serif" font-size="14.00">[] =&gt; {test1::$r0 &#45;&gt; [test1.new00], </text>
<text text-anchor="start" x="243" y="-2839.2" font-family="Times,serif" font-size="14.00">}</text>
</g>
<!-- test1 specialinvoke test1::$r1.&lt;PubTest: void &lt;init&gt;()&gt;() -->
<g id="node4" class="node">
<title>test1 specialinvoke test1::$r1.&lt;PubTest: void &lt;init&gt;()&gt;()</title>
<polygon fill="none" stroke="black" points="406.25,-2664.5 79.75,-2664.5 79.75,-2628.5 406.25,-2628.5 406.25,-2664.5"/>
<text text-anchor="middle" x="243" y="-2641.45" font-family="Times,serif" font-size="14.00">test1 specialinvoke test1::$r1.&lt;PubTest: void &lt;init&gt;()&gt;()</text>
</g>
<!-- test1 test1::$r1 = new PubTest&#45;&gt;test1 specialinvoke test1::$r1.&lt;PubTest: void &lt;init&gt;()&gt;() -->
<g id="edge3" class="edge">
<title>test1 test1::$r1 = new PubTest&#45;&gt;test1 specialinvoke test1::$r1.&lt;PubTest: void &lt;init&gt;()&gt;()</title>
<path fill="none" stroke="black" d="M243,-2765.56C243,-2743 243,-2703.38 243,-2676.32"/>
<polygon fill="black" stroke="black" points="246.5,-2676.38 243,-2666.38 239.5,-2676.38 246.5,-2676.38"/>
<text text-anchor="start" x="243" y="-2734.7" font-family="Times,serif" font-size="14.00">[] =&gt; {test1::$r0 &#45;&gt; [test1.new00], </text>
<text text-anchor="start" x="243" y="-2718.2" font-family="Times,serif" font-size="14.00">test1::$r1 &#45;&gt; [test1.new02], </text>
<text text-anchor="start" x="243" y="-2701.7" font-family="Times,serif" font-size="14.00">}</text>
</g>
<!-- test1 test1::$r0.&lt;PubTest: PubTest f&gt; = test1::$r1 -->
<g id="node5" class="node">
<title>test1 test1::$r0.&lt;PubTest: PubTest f&gt; = test1::$r1</title>
<polygon fill="none" stroke="black" points="386.75,-2527 99.25,-2527 99.25,-2491 386.75,-2491 386.75,-2527"/>
<text text-anchor="middle" x="243" y="-2503.95" font-family="Times,serif" font-size="14.00">test1 test1::$r0.&lt;PubTest: PubTest f&gt; = test1::$r1</text>
</g>
<!-- test1 specialinvoke test1::$r1.&lt;PubTest: void &lt;init&gt;()&gt;()&#45;&gt;test1 test1::$r0.&lt;PubTest: PubTest f&gt; = test1::$r1 -->
<g id="edge4" class="edge">
<title>test1 specialinvoke test1::$r1.&lt;PubTest: void &lt;init&gt;()&gt;()&#45;&gt;test1 test1::$r0.&lt;PubTest: PubTest f&gt; = test1::$r1</title>
<path fill="none" stroke="black" d="M243,-2628.06C243,-2605.5 243,-2565.88 243,-2538.82"/>
<polygon fill="black" stroke="black" points="246.5,-2538.88 243,-2528.88 239.5,-2538.88 246.5,-2538.88"/>
<text text-anchor="start" x="243" y="-2597.2" font-family="Times,serif" font-size="14.00">[] =&gt; {test1::$r0 &#45;&gt; [test1.new00], </text>
<text text-anchor="start" x="243" y="-2580.7" font-family="Times,serif" font-size="14.00">test1::$r1 &#45;&gt; [test1.new02], </text>
<text text-anchor="start" x="243" y="-2564.2" font-family="Times,serif" font-size="14.00">}</text>
</g>
<!-- test1 test1::$r2 = new PubTest -->
<g id="node6" class="node">
<title>test1 test1::$r2 = new PubTest</title>
<polygon fill="none" stroke="black" points="334.25,-2373 151.75,-2373 151.75,-2337 334.25,-2337 334.25,-2373"/>
<text text-anchor="middle" x="243" y="-2349.95" font-family="Times,serif" font-size="14.00">test1 test1::$r2 = new PubTest</text>
</g>
<!-- test1 test1::$r0.&lt;PubTest: PubTest f&gt; = test1::$r1&#45;&gt;test1 test1::$r2 = new PubTest -->
<g id="edge5" class="edge">
<title>test1 test1::$r0.&lt;PubTest: PubTest f&gt; = test1::$r1&#45;&gt;test1 test1::$r2 = new PubTest</title>
<path fill="none" stroke="black" d="M243,-2490.56C243,-2464.68 243,-2415.8 243,-2384.62"/>
<polygon fill="black" stroke="black" points="246.5,-2384.75 243,-2374.75 239.5,-2384.75 246.5,-2384.75"/>
<text text-anchor="start" x="243" y="-2459.7" font-family="Times,serif" font-size="14.00">[] =&gt; {test1::$r0 &#45;&gt; [test1.new00], </text>
<text text-anchor="start" x="243" y="-2443.2" font-family="Times,serif" font-size="14.00">test1.new00.f &#45;&gt; [test1.new02], </text>
<text text-anchor="start" x="243" y="-2426.7" font-family="Times,serif" font-size="14.00">test1::$r1 &#45;&gt; [test1.new02], </text>
<text text-anchor="start" x="243" y="-2410.2" font-family="Times,serif" font-size="14.00">}</text>
</g>
<!-- test1 specialinvoke test1::$r2.&lt;PubTest: void &lt;init&gt;()&gt;() -->
<g id="node7" class="node">
<title>test1 specialinvoke test1::$r2.&lt;PubTest: void &lt;init&gt;()&gt;()</title>
<polygon fill="none" stroke="black" points="406.25,-2202.5 79.75,-2202.5 79.75,-2166.5 406.25,-2166.5 406.25,-2202.5"/>
<text text-anchor="middle" x="243" y="-2179.45" font-family="Times,serif" font-size="14.00">test1 specialinvoke test1::$r2.&lt;PubTest: void &lt;init&gt;()&gt;()</text>
</g>
<!-- test1 test1::$r2 = new PubTest&#45;&gt;test1 specialinvoke test1::$r2.&lt;PubTest: void &lt;init&gt;()&gt;() -->
<g id="edge6" class="edge">
<title>test1 test1::$r2 = new PubTest&#45;&gt;test1 specialinvoke test1::$r2.&lt;PubTest: void &lt;init&gt;()&gt;()</title>
<path fill="none" stroke="black" d="M243,-2336.6C243,-2307.57 243,-2248.97 243,-2213.89"/>
<polygon fill="black" stroke="black" points="246.5,-2214.07 243,-2204.07 239.5,-2214.07 246.5,-2214.07"/>
<text text-anchor="start" x="243" y="-2305.7" font-family="Times,serif" font-size="14.00">[] =&gt; {test1::$r0 &#45;&gt; [test1.new00], </text>
<text text-anchor="start" x="243" y="-2289.2" font-family="Times,serif" font-size="14.00">test1.new00.f &#45;&gt; [test1.new02], </text>
<text text-anchor="start" x="243" y="-2272.7" font-family="Times,serif" font-size="14.00">test1::$r1 &#45;&gt; [test1.new02], </text>
<text text-anchor="start" x="243" y="-2256.2" font-family="Times,serif" font-size="14.00">test1::$r2 &#45;&gt; [test1.new05]</text>
<text text-anchor="start" x="243" y="-2239.7" font-family="Times,serif" font-size="14.00">}</text>
</g>
<!-- test1 staticinvoke &lt;PubTest: void foo1(PubTest,PubTest)&gt;(test1::$r0, test1::$r2) -->
<g id="node8" class="node">
<title>test1 staticinvoke &lt;PubTest: void foo1(PubTest,PubTest)&gt;(test1::$r0, test1::$r2)</title>
<polygon fill="none" stroke="black" points="470.38,-2032 15.62,-2032 15.62,-1996 470.38,-1996 470.38,-2032"/>
<text text-anchor="middle" x="243" y="-2008.95" font-family="Times,serif" font-size="14.00">test1 staticinvoke &lt;PubTest: void foo1(PubTest,PubTest)&gt;(test1::$r0, test1::$r2)</text>
</g>
<!-- test1 specialinvoke test1::$r2.&lt;PubTest: void &lt;init&gt;()&gt;()&#45;&gt;test1 staticinvoke &lt;PubTest: void foo1(PubTest,PubTest)&gt;(test1::$r0, test1::$r2) -->
<g id="edge7" class="edge">
<title>test1 specialinvoke test1::$r2.&lt;PubTest: void &lt;init&gt;()&gt;()&#45;&gt;test1 staticinvoke &lt;PubTest: void foo1(PubTest,PubTest)&gt;(test1::$r0, test1::$r2)</title>
<path fill="none" stroke="black" d="M243,-2166.1C243,-2137.07 243,-2078.47 243,-2043.39"/>
<polygon fill="black" stroke="black" points="246.5,-2043.57 243,-2033.57 239.5,-2043.57 246.5,-2043.57"/>
<text text-anchor="start" x="243" y="-2135.2" font-family="Times,serif" font-size="14.00">[] =&gt; {test1::$r0 &#45;&gt; [test1.new00], </text>
<text text-anchor="start" x="243" y="-2118.7" font-family="Times,serif" font-size="14.00">test1.new00.f &#45;&gt; [test1.new02], </text>
<text text-anchor="start" x="243" y="-2102.2" font-family="Times,serif" font-size="14.00">test1::$r1 &#45;&gt; [test1.new02], </text>
<text text-anchor="start" x="243" y="-2085.7" font-family="Times,serif" font-size="14.00">test1::$r2 &#45;&gt; [test1.new05]</text>
<text text-anchor="start" x="243" y="-2069.2" font-family="Times,serif" font-size="14.00">}</text>
</g>
<!-- test1 return -->
<g id="node9" class="node">
<title>test1 return</title>
<polygon fill="none" stroke="black" points="363.75,-1812 286.25,-1812 286.25,-1776 363.75,-1776 363.75,-1812"/>
<text text-anchor="middle" x="325" y="-1788.95" font-family="Times,serif" font-size="14.00">test1 return</text>
</g>
<!-- test1 staticinvoke &lt;PubTest: void foo1(PubTest,PubTest)&gt;(test1::$r0, test1::$r2)&#45;&gt;test1 return -->
<g id="edge8" class="edge">
<title>test1 staticinvoke &lt;PubTest: void foo1(PubTest,PubTest)&gt;(test1::$r0, test1::$r2)&#45;&gt;test1 return</title>
<path fill="none" stroke="black" d="M249.57,-1995.53C263.76,-1957.81 297.37,-1868.47 314.52,-1822.85"/>
<polygon fill="black" stroke="black" points="317.73,-1824.26 317.98,-1813.67 311.18,-1821.8 317.73,-1824.26"/>
<text text-anchor="start" x="311" y="-1906.95" font-family="Times,serif" font-size="14.00">[] =&gt; {}</text>
</g>
<!-- foo1 foo1::r0 := @parameter0: PubTest -->
<g id="node10" class="node">
<title>foo1 foo1::r0 := @parameter0: PubTest</title>
<polygon fill="none" stroke="black" points="727.75,-1812 494.25,-1812 494.25,-1776 727.75,-1776 727.75,-1812"/>
<text text-anchor="middle" x="611" y="-1788.95" font-family="Times,serif" font-size="14.00">foo1 foo1::r0 := @parameter0: PubTest</text>
</g>
<!-- test1 staticinvoke &lt;PubTest: void foo1(PubTest,PubTest)&gt;(test1::$r0, test1::$r2)&#45;&gt;foo1 foo1::r0 := @parameter0: PubTest -->
<g id="edge17" class="edge">
<title>test1 staticinvoke &lt;PubTest: void foo1(PubTest,PubTest)&gt;(test1::$r0, test1::$r2)&#45;&gt;foo1 foo1::r0 := @parameter0: PubTest</title>
<path fill="none" stroke="black" stroke-dasharray="1,5" d="M317.21,-1995.51C332.4,-1990.74 348.01,-1984.93 362,-1978 450.38,-1934.22 540.23,-1858.95 583.86,-1819.99"/>
<polygon fill="black" stroke="black" points="585.99,-1822.78 591.08,-1813.49 581.31,-1817.58 585.99,-1822.78"/>
<text text-anchor="middle" x="756.5" y="-1964.7" font-family="Times,serif" font-size="14.00">PubTest.test1.in07</text>
<text text-anchor="start" x="572" y="-1948.2" font-family="Times,serif" font-size="14.00">[PubTest.test1.in07] =&gt; {@parameter1: PubTest &#45;&gt; [test1.new05], </text>
<text text-anchor="start" x="572" y="-1931.7" font-family="Times,serif" font-size="14.00">test1::$r0 &#45;&gt; [test1.new00], </text>
<text text-anchor="start" x="572" y="-1915.2" font-family="Times,serif" font-size="14.00">test1.new00.f &#45;&gt; [test1.new02], </text>
<text text-anchor="start" x="572" y="-1898.7" font-family="Times,serif" font-size="14.00">test1::$r1 &#45;&gt; [test1.new02], </text>
<text text-anchor="start" x="572" y="-1882.2" font-family="Times,serif" font-size="14.00">@parameter0: PubTest &#45;&gt; [test1.new00], </text>
<text text-anchor="start" x="572" y="-1865.7" font-family="Times,serif" font-size="14.00">test1::$r2 &#45;&gt; [test1.new05]</text>
<text text-anchor="start" x="572" y="-1849.2" font-family="Times,serif" font-size="14.00">}</text>
</g>
<!-- foo1 foo1::r2 := @parameter1: PubTest -->
<g id="node11" class="node">
<title>foo1 foo1::r2 := @parameter1: PubTest</title>
<polygon fill="none" stroke="black" points="727.75,-1592 494.25,-1592 494.25,-1556 727.75,-1556 727.75,-1592"/>
<text text-anchor="middle" x="611" y="-1568.95" font-family="Times,serif" font-size="14.00">foo1 foo1::r2 := @parameter1: PubTest</text>
</g>
<!-- foo1 foo1::r0 := @parameter0: PubTest&#45;&gt;foo1 foo1::r2 := @parameter1: PubTest -->
<g id="edge9" class="edge">
<title>foo1 foo1::r0 := @parameter0: PubTest&#45;&gt;foo1 foo1::r2 := @parameter1: PubTest</title>
<path fill="none" stroke="black" d="M611,-1775.53C611,-1738.05 611,-1649.6 611,-1603.72"/>
<polygon fill="black" stroke="black" points="614.5,-1603.77 611,-1593.77 607.5,-1603.77 614.5,-1603.77"/>
<text text-anchor="start" x="611" y="-1744.7" font-family="Times,serif" font-size="14.00">[PubTest.test1.in07] =&gt; {@parameter1: PubTest &#45;&gt; [test1.new05], </text>
<text text-anchor="start" x="611" y="-1728.2" font-family="Times,serif" font-size="14.00">test1::$r0 &#45;&gt; [test1.new00], </text>
<text text-anchor="start" x="611" y="-1711.7" font-family="Times,serif" font-size="14.00">foo1::r0 &#45;&gt; [test1.new00], </text>
<text text-anchor="start" x="611" y="-1695.2" font-family="Times,serif" font-size="14.00">test1.new00.f &#45;&gt; [test1.new02], </text>
<text text-anchor="start" x="611" y="-1678.7" font-family="Times,serif" font-size="14.00">test1::$r1 &#45;&gt; [test1.new02], </text>
<text text-anchor="start" x="611" y="-1662.2" font-family="Times,serif" font-size="14.00">@parameter0: PubTest &#45;&gt; [test1.new00], </text>
<text text-anchor="start" x="611" y="-1645.7" font-family="Times,serif" font-size="14.00">test1::$r2 &#45;&gt; [test1.new05]</text>
<text text-anchor="start" x="611" y="-1629.2" font-family="Times,serif" font-size="14.00">}</text>
</g>
<!-- foo1 foo1::r1 = foo1::r0.&lt;PubTest: PubTest f&gt; -->
<g id="node12" class="node">
<title>foo1 foo1::r1 = foo1::r0.&lt;PubTest: PubTest f&gt;</title>
<polygon fill="none" stroke="black" points="765.88,-1355.5 494.12,-1355.5 494.12,-1319.5 765.88,-1319.5 765.88,-1355.5"/>
<text text-anchor="middle" x="630" y="-1332.45" font-family="Times,serif" font-size="14.00">foo1 foo1::r1 = foo1::r0.&lt;PubTest: PubTest f&gt;</text>
</g>
<!-- foo1 foo1::r2 := @parameter1: PubTest&#45;&gt;foo1 foo1::r1 = foo1::r0.&lt;PubTest: PubTest f&gt; -->
<g id="edge10" class="edge">
<title>foo1 foo1::r2 := @parameter1: PubTest&#45;&gt;foo1 foo1::r1 = foo1::r0.&lt;PubTest: PubTest f&gt;</title>
<path fill="none" stroke="black" d="M612.4,-1555.76C615.64,-1515.78 623.69,-1416.43 627.68,-1367.15"/>
<polygon fill="black" stroke="black" points="631.16,-1367.53 628.48,-1357.28 624.18,-1366.96 631.16,-1367.53"/>
<text text-anchor="start" x="626" y="-1524.7" font-family="Times,serif" font-size="14.00">[PubTest.test1.in07] =&gt; {@parameter1: PubTest &#45;&gt; [test1.new05], </text>
<text text-anchor="start" x="626" y="-1508.2" font-family="Times,serif" font-size="14.00">foo1::r2 &#45;&gt; [test1.new05], </text>
<text text-anchor="start" x="626" y="-1491.7" font-family="Times,serif" font-size="14.00">test1::$r0 &#45;&gt; [test1.new00], </text>
<text text-anchor="start" x="626" y="-1475.2" font-family="Times,serif" font-size="14.00">foo1::r0 &#45;&gt; [test1.new00], </text>
<text text-anchor="start" x="626" y="-1458.7" font-family="Times,serif" font-size="14.00">test1.new00.f &#45;&gt; [test1.new02], </text>
<text text-anchor="start" x="626" y="-1442.2" font-family="Times,serif" font-size="14.00">test1::$r1 &#45;&gt; [test1.new02], </text>
<text text-anchor="start" x="626" y="-1425.7" font-family="Times,serif" font-size="14.00">@parameter0: PubTest &#45;&gt; [test1.new00], </text>
<text text-anchor="start" x="626" y="-1409.2" font-family="Times,serif" font-size="14.00">test1::$r2 &#45;&gt; [test1.new05]</text>
<text text-anchor="start" x="626" y="-1392.7" font-family="Times,serif" font-size="14.00">}</text>
</g>
<!-- foo1 foo1::r1.&lt;PubTest: PubTest f&gt; = foo1::r2 -->
<g id="node13" class="node">
<title>foo1 foo1::r1.&lt;PubTest: PubTest f&gt; = foo1::r2</title>
<polygon fill="none" stroke="black" points="765.88,-1102.5 494.12,-1102.5 494.12,-1066.5 765.88,-1066.5 765.88,-1102.5"/>
<text text-anchor="middle" x="630" y="-1079.45" font-family="Times,serif" font-size="14.00">foo1 foo1::r1.&lt;PubTest: PubTest f&gt; = foo1::r2</text>
</g>
<!-- foo1 foo1::r1 = foo1::r0.&lt;PubTest: PubTest f&gt;&#45;&gt;foo1 foo1::r1.&lt;PubTest: PubTest f&gt; = foo1::r2 -->
<g id="edge11" class="edge">
<title>foo1 foo1::r1 = foo1::r0.&lt;PubTest: PubTest f&gt;&#45;&gt;foo1 foo1::r1.&lt;PubTest: PubTest f&gt; = foo1::r2</title>
<path fill="none" stroke="black" d="M630,-1319.25C630,-1276.8 630,-1166.92 630,-1114.35"/>
<polygon fill="black" stroke="black" points="633.5,-1114.39 630,-1104.39 626.5,-1114.39 633.5,-1114.39"/>
<text text-anchor="start" x="630" y="-1288.2" font-family="Times,serif" font-size="14.00">[PubTest.test1.in07] =&gt; {@parameter1: PubTest &#45;&gt; [test1.new05], </text>
<text text-anchor="start" x="630" y="-1271.7" font-family="Times,serif" font-size="14.00">foo1::r2 &#45;&gt; [test1.new05], </text>
<text text-anchor="start" x="630" y="-1255.2" font-family="Times,serif" font-size="14.00">test1::$r0 &#45;&gt; [test1.new00], </text>
<text text-anchor="start" x="630" y="-1238.7" font-family="Times,serif" font-size="14.00">foo1::r1 &#45;&gt; [test1.new02], </text>
<text text-anchor="start" x="630" y="-1222.2" font-family="Times,serif" font-size="14.00">foo1::r0 &#45;&gt; [test1.new00], </text>
<text text-anchor="start" x="630" y="-1205.7" font-family="Times,serif" font-size="14.00">test1.new00.f &#45;&gt; [test1.new02], </text>
<text text-anchor="start" x="630" y="-1189.2" font-family="Times,serif" font-size="14.00">test1::$r1 &#45;&gt; [test1.new02], </text>
<text text-anchor="start" x="630" y="-1172.7" font-family="Times,serif" font-size="14.00">@parameter0: PubTest &#45;&gt; [test1.new00], </text>
<text text-anchor="start" x="630" y="-1156.2" font-family="Times,serif" font-size="14.00">test1::$r2 &#45;&gt; [test1.new05]</text>
<text text-anchor="start" x="630" y="-1139.7" font-family="Times,serif" font-size="14.00">}</text>
</g>
<!-- foo1 foo1::$r3 = new PubTest -->
<g id="node14" class="node">
<title>foo1 foo1::$r3 = new PubTest</title>
<polygon fill="none" stroke="black" points="675.5,-833 494.5,-833 494.5,-797 675.5,-797 675.5,-833"/>
<text text-anchor="middle" x="585" y="-809.95" font-family="Times,serif" font-size="14.00">foo1 foo1::$r3 = new PubTest</text>
</g>
<!-- foo1 foo1::r1.&lt;PubTest: PubTest f&gt; = foo1::r2&#45;&gt;foo1 foo1::$r3 = new PubTest -->
<g id="edge12" class="edge">
<title>foo1 foo1::r1.&lt;PubTest: PubTest f&gt; = foo1::r2&#45;&gt;foo1 foo1::$r3 = new PubTest</title>
<path fill="none" stroke="black" d="M627.12,-1066.36C619.56,-1021.45 599.13,-900.02 589.79,-844.46"/>
<polygon fill="black" stroke="black" points="593.28,-844.12 588.17,-834.84 586.38,-845.28 593.28,-844.12"/>
<text text-anchor="start" x="623" y="-1035.2" font-family="Times,serif" font-size="14.00">[PubTest.test1.in07] =&gt; {@parameter1: PubTest &#45;&gt; [test1.new05], </text>
<text text-anchor="start" x="623" y="-1018.7" font-family="Times,serif" font-size="14.00">foo1::r2 &#45;&gt; [test1.new05], </text>
<text text-anchor="start" x="623" y="-1002.2" font-family="Times,serif" font-size="14.00">test1::$r0 &#45;&gt; [test1.new00], </text>
<text text-anchor="start" x="623" y="-985.7" font-family="Times,serif" font-size="14.00">foo1::r1 &#45;&gt; [test1.new02], </text>
<text text-anchor="start" x="623" y="-969.2" font-family="Times,serif" font-size="14.00">test1.new02.f &#45;&gt; [test1.new05], </text>
<text text-anchor="start" x="623" y="-952.7" font-family="Times,serif" font-size="14.00">foo1::r0 &#45;&gt; [test1.new00], </text>
<text text-anchor="start" x="623" y="-936.2" font-family="Times,serif" font-size="14.00">test1.new00.f &#45;&gt; [test1.new02], </text>
<text text-anchor="start" x="623" y="-919.7" font-family="Times,serif" font-size="14.00">test1::$r1 &#45;&gt; [test1.new02], </text>
<text text-anchor="start" x="623" y="-903.2" font-family="Times,serif" font-size="14.00">@parameter0: PubTest &#45;&gt; [test1.new00], </text>
<text text-anchor="start" x="623" y="-886.7" font-family="Times,serif" font-size="14.00">test1::$r2 &#45;&gt; [test1.new05]</text>
<text text-anchor="start" x="623" y="-870.2" font-family="Times,serif" font-size="14.00">}</text>
</g>
<!-- foo1 specialinvoke foo1::$r3.&lt;PubTest: void &lt;init&gt;()&gt;() -->
<g id="node15" class="node">
<title>foo1 specialinvoke foo1::$r3.&lt;PubTest: void &lt;init&gt;()&gt;()</title>
<polygon fill="none" stroke="black" points="819.5,-547 494.5,-547 494.5,-511 819.5,-511 819.5,-547"/>
<text text-anchor="middle" x="657" y="-523.95" font-family="Times,serif" font-size="14.00">foo1 specialinvoke foo1::$r3.&lt;PubTest: void &lt;init&gt;()&gt;()</text>
</g>
<!-- foo1 foo1::$r3 = new PubTest&#45;&gt;foo1 specialinvoke foo1::$r3.&lt;PubTest: void &lt;init&gt;()&gt;() -->
<g id="edge13" class="edge">
<title>foo1 foo1::$r3 = new PubTest&#45;&gt;foo1 specialinvoke foo1::$r3.&lt;PubTest: void &lt;init&gt;()&gt;()</title>
<path fill="none" stroke="black" d="M589.4,-796.66C601.42,-749.23 634.95,-616.97 649.78,-558.46"/>
<polygon fill="black" stroke="black" points="653.13,-559.49 652.2,-548.94 646.35,-557.77 653.13,-559.49"/>
<text text-anchor="start" x="648" y="-765.7" font-family="Times,serif" font-size="14.00">[PubTest.test1.in07] =&gt; {@parameter1: PubTest &#45;&gt; [test1.new05], </text>
<text text-anchor="start" x="648" y="-749.2" font-family="Times,serif" font-size="14.00">foo1::r2 &#45;&gt; [test1.new05], </text>
<text text-anchor="start" x="648" y="-732.7" font-family="Times,serif" font-size="14.00">test1::$r0 &#45;&gt; [test1.new00], </text>
<text text-anchor="start" x="648" y="-716.2" font-family="Times,serif" font-size="14.00">foo1::r1 &#45;&gt; [test1.new02], </text>
<text text-anchor="start" x="648" y="-699.7" font-family="Times,serif" font-size="14.00">test1.new02.f &#45;&gt; [test1.new05], </text>
<text text-anchor="start" x="648" y="-683.2" font-family="Times,serif" font-size="14.00">foo1::r0 &#45;&gt; [test1.new00], </text>
<text text-anchor="start" x="648" y="-666.7" font-family="Times,serif" font-size="14.00">test1.new00.f &#45;&gt; [test1.new02], </text>
<text text-anchor="start" x="648" y="-650.2" font-family="Times,serif" font-size="14.00">test1::$r1 &#45;&gt; [test1.new02], </text>
<text text-anchor="start" x="648" y="-633.7" font-family="Times,serif" font-size="14.00">foo1::$r3 &#45;&gt; [foo1.new04], </text>
<text text-anchor="start" x="648" y="-617.2" font-family="Times,serif" font-size="14.00">@parameter0: PubTest &#45;&gt; [test1.new00], </text>
<text text-anchor="start" x="648" y="-600.7" font-family="Times,serif" font-size="14.00">test1::$r2 &#45;&gt; [test1.new05]</text>
<text text-anchor="start" x="648" y="-584.2" font-family="Times,serif" font-size="14.00">}</text>
</g>
<!-- foo1 foo1::r2.&lt;PubTest: PubTest f&gt; = foo1::$r3 -->
<g id="node16" class="node">
<title>foo1 foo1::r2.&lt;PubTest: PubTest f&gt; = foo1::$r3</title>
<polygon fill="none" stroke="black" points="772.25,-261 493.75,-261 493.75,-225 772.25,-225 772.25,-261"/>
<text text-anchor="middle" x="633" y="-237.95" font-family="Times,serif" font-size="14.00">foo1 foo1::r2.&lt;PubTest: PubTest f&gt; = foo1::$r3</text>
</g>
<!-- foo1 specialinvoke foo1::$r3.&lt;PubTest: void &lt;init&gt;()&gt;()&#45;&gt;foo1 foo1::r2.&lt;PubTest: PubTest f&gt; = foo1::$r3 -->
<g id="edge14" class="edge">
<title>foo1 specialinvoke foo1::$r3.&lt;PubTest: void &lt;init&gt;()&gt;()&#45;&gt;foo1 foo1::r2.&lt;PubTest: PubTest f&gt; = foo1::$r3</title>
<path fill="none" stroke="red" d="M655.53,-510.66C651.53,-463.33 640.4,-331.52 635.44,-272.83"/>
<polygon fill="red" stroke="red" points="638.93,-272.65 634.6,-262.98 631.96,-273.24 638.93,-272.65"/>
<text text-anchor="start" x="654" y="-479.7" font-family="Times,serif" font-size="14.00">[PubTest.test1.in07] =&gt; {@parameter1: PubTest &#45;&gt; [test1.new05], </text>
<text text-anchor="start" x="654" y="-463.2" font-family="Times,serif" font-size="14.00">foo1::r2 &#45;&gt; [test1.new05], </text>
<text text-anchor="start" x="654" y="-446.7" font-family="Times,serif" font-size="14.00">test1::$r0 &#45;&gt; [test1.new00], </text>
<text text-anchor="start" x="654" y="-430.2" font-family="Times,serif" font-size="14.00">foo1::r1 &#45;&gt; [test1.new02], </text>
<text text-anchor="start" x="654" y="-413.7" font-family="Times,serif" font-size="14.00">test1.new02.f &#45;&gt; [test1.new05], </text>
<text text-anchor="start" x="654" y="-397.2" font-family="Times,serif" font-size="14.00">foo1::r0 &#45;&gt; [test1.new00], </text>
<text text-anchor="start" x="654" y="-380.7" font-family="Times,serif" font-size="14.00">test1.new00.f &#45;&gt; [test1.new02], </text>
<text text-anchor="start" x="654" y="-364.2" font-family="Times,serif" font-size="14.00">test1::$r1 &#45;&gt; [test1.new02], </text>
<text text-anchor="start" x="654" y="-347.7" font-family="Times,serif" font-size="14.00">foo1::$r3 &#45;&gt; [foo1.new04], </text>
<text text-anchor="start" x="654" y="-331.2" font-family="Times,serif" font-size="14.00">@parameter0: PubTest &#45;&gt; [test1.new00], </text>
<text text-anchor="start" x="654" y="-314.7" font-family="Times,serif" font-size="14.00">test1::$r2 &#45;&gt; [test1.new05]</text>
<text text-anchor="start" x="654" y="-298.2" font-family="Times,serif" font-size="14.00">}</text>
</g>
<!-- foo1 foo1::$r3.&lt;PubTest: PubTest f&gt; = null -->
<g id="node17" class="node">
<title>foo1 foo1::$r3.&lt;PubTest: PubTest f&gt; = null</title>
<polygon fill="none" stroke="black" points="755,-156.5 499,-156.5 499,-120.5 755,-120.5 755,-156.5"/>
<text text-anchor="middle" x="627" y="-133.45" font-family="Times,serif" font-size="14.00">foo1 foo1::$r3.&lt;PubTest: PubTest f&gt; = null</text>
</g>
<!-- foo1 foo1::r2.&lt;PubTest: PubTest f&gt; = foo1::$r3&#45;&gt;foo1 foo1::$r3.&lt;PubTest: PubTest f&gt; = null -->
<g id="edge15" class="edge">
<title>foo1 foo1::r2.&lt;PubTest: PubTest f&gt; = foo1::$r3&#45;&gt;foo1 foo1::$r3.&lt;PubTest: PubTest f&gt; = null</title>
<path fill="none" stroke="red" d="M631.98,-224.61C631.08,-209.22 629.75,-186.46 628.69,-168.35"/>
<polygon fill="red" stroke="red" points="632.19,-168.26 628.11,-158.48 625.2,-168.67 632.19,-168.26"/>
<text text-anchor="start" x="630" y="-193.7" font-family="Times,serif" font-size="14.00">[] =&gt; {}</text>
</g>
<!-- foo1 return -->
<g id="node18" class="node">
<title>foo1 return</title>
<polygon fill="none" stroke="black" points="617.38,-52 540.62,-52 540.62,-16 617.38,-16 617.38,-52"/>
<text text-anchor="middle" x="579" y="-28.95" font-family="Times,serif" font-size="14.00">foo1 return</text>
</g>
<!-- foo1 foo1::$r3.&lt;PubTest: PubTest f&gt; = null&#45;&gt;foo1 return -->
<g id="edge16" class="edge">
<title>foo1 foo1::$r3.&lt;PubTest: PubTest f&gt; = null&#45;&gt;foo1 return</title>
<path fill="none" stroke="red" d="M618.86,-120.11C611.51,-104.43 600.58,-81.09 592.03,-62.82"/>
<polygon fill="red" stroke="red" points="595.24,-61.42 587.82,-53.84 588.9,-64.38 595.24,-61.42"/>
<text text-anchor="start" x="610" y="-89.2" font-family="Times,serif" font-size="14.00">[] =&gt; {}</text>
</g>
<!-- foo1 return&#45;&gt;test1 return -->
<g id="edge18" class="edge">
<title>foo1 return&#45;&gt;test1 return</title>
<path fill="none" stroke="black" stroke-dasharray="1,5" d="M540.25,-36.04C476.87,-40.03 358,-58.09 358,-137.5 358,-1575 358,-1575 358,-1575 358,-1643.63 341.81,-1723.07 332.11,-1764.5"/>
<polygon fill="black" stroke="black" points="328.73,-1763.6 329.8,-1774.14 335.54,-1765.23 328.73,-1763.6"/>
<text text-anchor="middle" x="408.62" y="-809.95" font-family="Times,serif" font-size="14.00">PubTest.test1.in07</text>
</g>
</g>
</svg>
