<?xml version="1.0" encoding="UTF-8" standalone="no"?>
<!DOCTYPE svg PUBLIC "-//W3C//DTD SVG 1.1//EN"
 "http://www.w3.org/Graphics/SVG/1.1/DTD/svg11.dtd">
<!-- Generated by graphviz version 9.0.0 (20230911.1827)
 -->
<!-- Title: G Pages: 1 -->
<svg width="1025pt" height="2887pt"
 viewBox="0.00 0.00 1025.00 2886.50" xmlns="http://www.w3.org/2000/svg" xmlns:xlink="http://www.w3.org/1999/xlink">
<g id="graph0" class="graph" transform="scale(1 1) rotate(0) translate(4 2882.5)">
<title>G</title>
<polygon fill="white" stroke="none" points="-4,4 -4,-2882.5 1021,-2882.5 1021,4 -4,4"/>
<g id="clust1" class="cluster">
<title>cluster_0</title>
<polygon fill="none" stroke="black" points="8,-1586.5 8,-2870.5 478,-2870.5 478,-1586.5 8,-1586.5"/>
</g>
<g id="clust2" class="cluster">
<title>cluster_1</title>
<polygon fill="none" stroke="black" points="486,-8 486,-1638.5 889,-1638.5 889,-8 486,-8"/>
</g>
<!-- test1 test1::$r0 = new PubTest -->
<g id="node1" class="node">
<title>test1 test1::$r0 = new PubTest</title>
<polygon fill="none" stroke="black" points="334.25,-2862.5 151.75,-2862.5 151.75,-2826.5 334.25,-2826.5 334.25,-2862.5"/>
<text text-anchor="middle" x="243" y="-2839.45" font-family="Times,serif" font-size="14.00">test1 test1::$r0 = new PubTest</text>
</g>
<!-- test1 specialinvoke test1::$r0.&lt;PubTest: void &lt;init&gt;()&gt;() -->
<g id="node2" class="node">
<title>test1 specialinvoke test1::$r0.&lt;PubTest: void &lt;init&gt;()&gt;()</title>
<polygon fill="none" stroke="black" points="406.25,-2741.5 79.75,-2741.5 79.75,-2705.5 406.25,-2705.5 406.25,-2741.5"/>
<text text-anchor="middle" x="243" y="-2718.45" font-family="Times,serif" font-size="14.00">test1 specialinvoke test1::$r0.&lt;PubTest: void &lt;init&gt;()&gt;()</text>
</g>
<!-- test1 test1::$r0 = new PubTest&#45;&gt;test1 specialinvoke test1::$r0.&lt;PubTest: void &lt;init&gt;()&gt;() -->
<g id="edge1" class="edge">
<title>test1 test1::$r0 = new PubTest&#45;&gt;test1 specialinvoke test1::$r0.&lt;PubTest: void &lt;init&gt;()&gt;()</title>
<path fill="none" stroke="black" d="M243,-2826.2C243,-2807.07 243,-2775.96 243,-2753.18"/>
<polygon fill="black" stroke="black" points="246.5,-2753.34 243,-2743.34 239.5,-2753.34 246.5,-2753.34"/>
<text text-anchor="start" x="243" y="-2795.2" font-family="Times,serif" font-size="14.00">[] =&gt; {test1::$r0 &#45;&gt; [test1.new00], </text>
<text text-anchor="start" x="243" y="-2778.7" font-family="Times,serif" font-size="14.00">}</text>
</g>
<!-- test1 test1::$r1 = new PubTest -->
<g id="node3" class="node">
<title>test1 test1::$r1 = new PubTest</title>
<polygon fill="none" stroke="black" points="334.25,-2620.5 151.75,-2620.5 151.75,-2584.5 334.25,-2584.5 334.25,-2620.5"/>
<text text-anchor="middle" x="243" y="-2597.45" font-family="Times,serif" font-size="14.00">test1 test1::$r1 = new PubTest</text>
</g>
<!-- test1 specialinvoke test1::$r0.&lt;PubTest: void &lt;init&gt;()&gt;()&#45;&gt;test1 test1::$r1 = new PubTest -->
<g id="edge2" class="edge">
<title>test1 specialinvoke test1::$r0.&lt;PubTest: void &lt;init&gt;()&gt;()&#45;&gt;test1 test1::$r1 = new PubTest</title>
<path fill="none" stroke="black" d="M243,-2705.2C243,-2686.07 243,-2654.96 243,-2632.18"/>
<polygon fill="black" stroke="black" points="246.5,-2632.34 243,-2622.34 239.5,-2632.34 246.5,-2632.34"/>
<text text-anchor="start" x="243" y="-2674.2" font-family="Times,serif" font-size="14.00">[] =&gt; {test1::$r0 &#45;&gt; [test1.new00], </text>
<text text-anchor="start" x="243" y="-2657.7" font-family="Times,serif" font-size="14.00">}</text>
</g>
<!-- test1 specialinvoke test1::$r1.&lt;PubTest: void &lt;init&gt;()&gt;() -->
<g id="node4" class="node">
<title>test1 specialinvoke test1::$r1.&lt;PubTest: void &lt;init&gt;()&gt;()</title>
<polygon fill="none" stroke="black" points="406.25,-2483 79.75,-2483 79.75,-2447 406.25,-2447 406.25,-2483"/>
<text text-anchor="middle" x="243" y="-2459.95" font-family="Times,serif" font-size="14.00">test1 specialinvoke test1::$r1.&lt;PubTest: void &lt;init&gt;()&gt;()</text>
</g>
<!-- test1 test1::$r1 = new PubTest&#45;&gt;test1 specialinvoke test1::$r1.&lt;PubTest: void &lt;init&gt;()&gt;() -->
<g id="edge3" class="edge">
<title>test1 test1::$r1 = new PubTest&#45;&gt;test1 specialinvoke test1::$r1.&lt;PubTest: void &lt;init&gt;()&gt;()</title>
<path fill="none" stroke="black" d="M243,-2584.06C243,-2561.5 243,-2521.88 243,-2494.82"/>
<polygon fill="black" stroke="black" points="246.5,-2494.88 243,-2484.88 239.5,-2494.88 246.5,-2494.88"/>
<text text-anchor="start" x="243" y="-2553.2" font-family="Times,serif" font-size="14.00">[] =&gt; {test1::$r0 &#45;&gt; [test1.new00], </text>
<text text-anchor="start" x="243" y="-2536.7" font-family="Times,serif" font-size="14.00">test1::$r1 &#45;&gt; [test1.new02], </text>
<text text-anchor="start" x="243" y="-2520.2" font-family="Times,serif" font-size="14.00">}</text>
</g>
<!-- test1 test1::$r0.&lt;PubTest: PubTest f&gt; = test1::$r1 -->
<g id="node5" class="node">
<title>test1 test1::$r0.&lt;PubTest: PubTest f&gt; = test1::$r1</title>
<polygon fill="none" stroke="black" points="386.75,-2345.5 99.25,-2345.5 99.25,-2309.5 386.75,-2309.5 386.75,-2345.5"/>
<text text-anchor="middle" x="243" y="-2322.45" font-family="Times,serif" font-size="14.00">test1 test1::$r0.&lt;PubTest: PubTest f&gt; = test1::$r1</text>
</g>
<!-- test1 specialinvoke test1::$r1.&lt;PubTest: void &lt;init&gt;()&gt;()&#45;&gt;test1 test1::$r0.&lt;PubTest: PubTest f&gt; = test1::$r1 -->
<g id="edge4" class="edge">
<title>test1 specialinvoke test1::$r1.&lt;PubTest: void &lt;init&gt;()&gt;()&#45;&gt;test1 test1::$r0.&lt;PubTest: PubTest f&gt; = test1::$r1</title>
<path fill="none" stroke="black" d="M243,-2446.56C243,-2424 243,-2384.38 243,-2357.32"/>
<polygon fill="black" stroke="black" points="246.5,-2357.38 243,-2347.38 239.5,-2357.38 246.5,-2357.38"/>
<text text-anchor="start" x="243" y="-2415.7" font-family="Times,serif" font-size="14.00">[] =&gt; {test1::$r0 &#45;&gt; [test1.new00], </text>
<text text-anchor="start" x="243" y="-2399.2" font-family="Times,serif" font-size="14.00">test1::$r1 &#45;&gt; [test1.new02], </text>
<text text-anchor="start" x="243" y="-2382.7" font-family="Times,serif" font-size="14.00">}</text>
</g>
<!-- test1 test1::$r2 = new PubTest -->
<g id="node6" class="node">
<title>test1 test1::$r2 = new PubTest</title>
<polygon fill="none" stroke="black" points="334.25,-2191.5 151.75,-2191.5 151.75,-2155.5 334.25,-2155.5 334.25,-2191.5"/>
<text text-anchor="middle" x="243" y="-2168.45" font-family="Times,serif" font-size="14.00">test1 test1::$r2 = new PubTest</text>
</g>
<!-- test1 test1::$r0.&lt;PubTest: PubTest f&gt; = test1::$r1&#45;&gt;test1 test1::$r2 = new PubTest -->
<g id="edge5" class="edge">
<title>test1 test1::$r0.&lt;PubTest: PubTest f&gt; = test1::$r1&#45;&gt;test1 test1::$r2 = new PubTest</title>
<path fill="none" stroke="black" d="M243,-2309.06C243,-2283.18 243,-2234.3 243,-2203.12"/>
<polygon fill="black" stroke="black" points="246.5,-2203.25 243,-2193.25 239.5,-2203.25 246.5,-2203.25"/>
<text text-anchor="start" x="243" y="-2278.2" font-family="Times,serif" font-size="14.00">[] =&gt; {test1::$r0 &#45;&gt; [test1.new00], </text>
<text text-anchor="start" x="243" y="-2261.7" font-family="Times,serif" font-size="14.00">test1.new00.f &#45;&gt; [test1.new02], </text>
<text text-anchor="start" x="243" y="-2245.2" font-family="Times,serif" font-size="14.00">test1::$r1 &#45;&gt; [test1.new02], </text>
<text text-anchor="start" x="243" y="-2228.7" font-family="Times,serif" font-size="14.00">}</text>
</g>
<!-- test1 specialinvoke test1::$r2.&lt;PubTest: void &lt;init&gt;()&gt;() -->
<g id="node7" class="node">
<title>test1 specialinvoke test1::$r2.&lt;PubTest: void &lt;init&gt;()&gt;()</title>
<polygon fill="none" stroke="black" points="406.25,-2021 79.75,-2021 79.75,-1985 406.25,-1985 406.25,-2021"/>
<text text-anchor="middle" x="243" y="-1997.95" font-family="Times,serif" font-size="14.00">test1 specialinvoke test1::$r2.&lt;PubTest: void &lt;init&gt;()&gt;()</text>
</g>
<!-- test1 test1::$r2 = new PubTest&#45;&gt;test1 specialinvoke test1::$r2.&lt;PubTest: void &lt;init&gt;()&gt;() -->
<g id="edge6" class="edge">
<title>test1 test1::$r2 = new PubTest&#45;&gt;test1 specialinvoke test1::$r2.&lt;PubTest: void &lt;init&gt;()&gt;()</title>
<path fill="none" stroke="black" d="M243,-2155.1C243,-2126.07 243,-2067.47 243,-2032.39"/>
<polygon fill="black" stroke="black" points="246.5,-2032.57 243,-2022.57 239.5,-2032.57 246.5,-2032.57"/>
<text text-anchor="start" x="243" y="-2124.2" font-family="Times,serif" font-size="14.00">[] =&gt; {test1::$r0 &#45;&gt; [test1.new00], </text>
<text text-anchor="start" x="243" y="-2107.7" font-family="Times,serif" font-size="14.00">test1.new00.f &#45;&gt; [test1.new02], </text>
<text text-anchor="start" x="243" y="-2091.2" font-family="Times,serif" font-size="14.00">test1::$r1 &#45;&gt; [test1.new02], </text>
<text text-anchor="start" x="243" y="-2074.7" font-family="Times,serif" font-size="14.00">test1::$r2 &#45;&gt; [test1.new05]</text>
<text text-anchor="start" x="243" y="-2058.2" font-family="Times,serif" font-size="14.00">}</text>
</g>
<!-- test1 staticinvoke &lt;PubTest: void foo1(PubTest,PubTest)&gt;(test1::$r0, test1::$r2) -->
<g id="node8" class="node">
<title>test1 staticinvoke &lt;PubTest: void foo1(PubTest,PubTest)&gt;(test1::$r0, test1::$r2)</title>
<polygon fill="none" stroke="black" points="470.38,-1850.5 15.62,-1850.5 15.62,-1814.5 470.38,-1814.5 470.38,-1850.5"/>
<text text-anchor="middle" x="243" y="-1827.45" font-family="Times,serif" font-size="14.00">test1 staticinvoke &lt;PubTest: void foo1(PubTest,PubTest)&gt;(test1::$r0, test1::$r2)</text>
</g>
<!-- test1 specialinvoke test1::$r2.&lt;PubTest: void &lt;init&gt;()&gt;()&#45;&gt;test1 staticinvoke &lt;PubTest: void foo1(PubTest,PubTest)&gt;(test1::$r0, test1::$r2) -->
<g id="edge7" class="edge">
<title>test1 specialinvoke test1::$r2.&lt;PubTest: void &lt;init&gt;()&gt;()&#45;&gt;test1 staticinvoke &lt;PubTest: void foo1(PubTest,PubTest)&gt;(test1::$r0, test1::$r2)</title>
<path fill="none" stroke="black" d="M243,-1984.6C243,-1955.57 243,-1896.97 243,-1861.89"/>
<polygon fill="black" stroke="black" points="246.5,-1862.07 243,-1852.07 239.5,-1862.07 246.5,-1862.07"/>
<text text-anchor="start" x="243" y="-1953.7" font-family="Times,serif" font-size="14.00">[] =&gt; {test1::$r0 &#45;&gt; [test1.new00], </text>
<text text-anchor="start" x="243" y="-1937.2" font-family="Times,serif" font-size="14.00">test1.new00.f &#45;&gt; [test1.new02], </text>
<text text-anchor="start" x="243" y="-1920.7" font-family="Times,serif" font-size="14.00">test1::$r1 &#45;&gt; [test1.new02], </text>
<text text-anchor="start" x="243" y="-1904.2" font-family="Times,serif" font-size="14.00">test1::$r2 &#45;&gt; [test1.new05]</text>
<text text-anchor="start" x="243" y="-1887.7" font-family="Times,serif" font-size="14.00">}</text>
</g>
<!-- test1 return -->
<g id="node9" class="node">
<title>test1 return</title>
<polygon fill="none" stroke="black" points="363.75,-1630.5 286.25,-1630.5 286.25,-1594.5 363.75,-1594.5 363.75,-1630.5"/>
<text text-anchor="middle" x="325" y="-1607.45" font-family="Times,serif" font-size="14.00">test1 return</text>
</g>
<!-- test1 staticinvoke &lt;PubTest: void foo1(PubTest,PubTest)&gt;(test1::$r0, test1::$r2)&#45;&gt;test1 return -->
<g id="edge8" class="edge">
<title>test1 staticinvoke &lt;PubTest: void foo1(PubTest,PubTest)&gt;(test1::$r0, test1::$r2)&#45;&gt;test1 return</title>
<path fill="none" stroke="black" d="M249.57,-1814.03C263.76,-1776.31 297.37,-1686.97 314.52,-1641.35"/>
<polygon fill="black" stroke="black" points="317.73,-1642.76 317.98,-1632.17 311.18,-1640.3 317.73,-1642.76"/>
<text text-anchor="start" x="311" y="-1725.45" font-family="Times,serif" font-size="14.00">[] =&gt; {}</text>
</g>
<!-- foo1 foo1::r0 := @parameter0: PubTest -->
<g id="node10" class="node">
<title>foo1 foo1::r0 := @parameter0: PubTest</title>
<polygon fill="none" stroke="black" points="727.75,-1630.5 494.25,-1630.5 494.25,-1594.5 727.75,-1594.5 727.75,-1630.5"/>
<text text-anchor="middle" x="611" y="-1607.45" font-family="Times,serif" font-size="14.00">foo1 foo1::r0 := @parameter0: PubTest</text>
</g>
<!-- test1 staticinvoke &lt;PubTest: void foo1(PubTest,PubTest)&gt;(test1::$r0, test1::$r2)&#45;&gt;foo1 foo1::r0 := @parameter0: PubTest -->
<g id="edge17" class="edge">
<title>test1 staticinvoke &lt;PubTest: void foo1(PubTest,PubTest)&gt;(test1::$r0, test1::$r2)&#45;&gt;foo1 foo1::r0 := @parameter0: PubTest</title>
<path fill="none" stroke="black" stroke-dasharray="1,5" d="M317.21,-1814.01C332.4,-1809.24 348.01,-1803.43 362,-1796.5 450.38,-1752.72 540.23,-1677.45 583.86,-1638.49"/>
<polygon fill="black" stroke="black" points="585.99,-1641.28 591.08,-1631.99 581.31,-1636.08 585.99,-1641.28"/>
<text text-anchor="middle" x="756.5" y="-1783.2" font-family="Times,serif" font-size="14.00">PubTest.test1.in07</text>
<text text-anchor="start" x="572" y="-1766.7" font-family="Times,serif" font-size="14.00">[PubTest.test1.in07] =&gt; {@parameter1: PubTest &#45;&gt; [test1.new05], </text>
<text text-anchor="start" x="572" y="-1750.2" font-family="Times,serif" font-size="14.00">test1::$r0 &#45;&gt; [test1.new00], </text>
<text text-anchor="start" x="572" y="-1733.7" font-family="Times,serif" font-size="14.00">test1.new00.f &#45;&gt; [test1.new02], </text>
<text text-anchor="start" x="572" y="-1717.2" font-family="Times,serif" font-size="14.00">test1::$r1 &#45;&gt; [test1.new02], </text>
<text text-anchor="start" x="572" y="-1700.7" font-family="Times,serif" font-size="14.00">@parameter0: PubTest &#45;&gt; [test1.new00], </text>
<text text-anchor="start" x="572" y="-1684.2" font-family="Times,serif" font-size="14.00">test1::$r2 &#45;&gt; [test1.new05]</text>
<text text-anchor="start" x="572" y="-1667.7" font-family="Times,serif" font-size="14.00">}</text>
</g>
<!-- foo1 foo1::r2 := @parameter1: PubTest -->
<g id="node11" class="node">
<title>foo1 foo1::r2 := @parameter1: PubTest</title>
<polygon fill="none" stroke="black" points="727.75,-1410.5 494.25,-1410.5 494.25,-1374.5 727.75,-1374.5 727.75,-1410.5"/>
<text text-anchor="middle" x="611" y="-1387.45" font-family="Times,serif" font-size="14.00">foo1 foo1::r2 := @parameter1: PubTest</text>
</g>
<!-- foo1 foo1::r0 := @parameter0: PubTest&#45;&gt;foo1 foo1::r2 := @parameter1: PubTest -->
<g id="edge9" class="edge">
<title>foo1 foo1::r0 := @parameter0: PubTest&#45;&gt;foo1 foo1::r2 := @parameter1: PubTest</title>
<path fill="none" stroke="black" d="M611,-1594.03C611,-1556.55 611,-1468.1 611,-1422.22"/>
<polygon fill="black" stroke="black" points="614.5,-1422.27 611,-1412.27 607.5,-1422.27 614.5,-1422.27"/>
<text text-anchor="start" x="611" y="-1563.2" font-family="Times,serif" font-size="14.00">[PubTest.test1.in07] =&gt; {@parameter1: PubTest &#45;&gt; [test1.new05], </text>
<text text-anchor="start" x="611" y="-1546.7" font-family="Times,serif" font-size="14.00">test1::$r0 &#45;&gt; [test1.new00], </text>
<text text-anchor="start" x="611" y="-1530.2" font-family="Times,serif" font-size="14.00">foo1::r0 &#45;&gt; [test1.new00], </text>
<text text-anchor="start" x="611" y="-1513.7" font-family="Times,serif" font-size="14.00">test1.new00.f &#45;&gt; [test1.new02], </text>
<text text-anchor="start" x="611" y="-1497.2" font-family="Times,serif" font-size="14.00">test1::$r1 &#45;&gt; [test1.new02], </text>
<text text-anchor="start" x="611" y="-1480.7" font-family="Times,serif" font-size="14.00">@parameter0: PubTest &#45;&gt; [test1.new00], </text>
<text text-anchor="start" x="611" y="-1464.2" font-family="Times,serif" font-size="14.00">test1::$r2 &#45;&gt; [test1.new05]</text>
<text text-anchor="start" x="611" y="-1447.7" font-family="Times,serif" font-size="14.00">}</text>
</g>
<!-- foo1 foo1::r1 = foo1::r0.&lt;PubTest: PubTest f&gt; -->
<g id="node12" class="node">
<title>foo1 foo1::r1 = foo1::r0.&lt;PubTest: PubTest f&gt;</title>
<polygon fill="none" stroke="black" points="765.88,-1174 494.12,-1174 494.12,-1138 765.88,-1138 765.88,-1174"/>
<text text-anchor="middle" x="630" y="-1150.95" font-family="Times,serif" font-size="14.00">foo1 foo1::r1 = foo1::r0.&lt;PubTest: PubTest f&gt;</text>
</g>
<!-- foo1 foo1::r2 := @parameter1: PubTest&#45;&gt;foo1 foo1::r1 = foo1::r0.&lt;PubTest: PubTest f&gt; -->
<g id="edge10" class="edge">
<title>foo1 foo1::r2 := @parameter1: PubTest&#45;&gt;foo1 foo1::r1 = foo1::r0.&lt;PubTest: PubTest f&gt;</title>
<path fill="none" stroke="black" d="M612.4,-1374.26C615.64,-1334.28 623.69,-1234.93 627.68,-1185.65"/>
<polygon fill="black" stroke="black" points="631.16,-1186.03 628.48,-1175.78 624.18,-1185.46 631.16,-1186.03"/>
<text text-anchor="start" x="626" y="-1343.2" font-family="Times,serif" font-size="14.00">[PubTest.test1.in07] =&gt; {@parameter1: PubTest &#45;&gt; [test1.new05], </text>
<text text-anchor="start" x="626" y="-1326.7" font-family="Times,serif" font-size="14.00">foo1::r2 &#45;&gt; [test1.new05], </text>
<text text-anchor="start" x="626" y="-1310.2" font-family="Times,serif" font-size="14.00">test1::$r0 &#45;&gt; [test1.new00], </text>
<text text-anchor="start" x="626" y="-1293.7" font-family="Times,serif" font-size="14.00">foo1::r0 &#45;&gt; [test1.new00], </text>
<text text-anchor="start" x="626" y="-1277.2" font-family="Times,serif" font-size="14.00">test1.new00.f &#45;&gt; [test1.new02], </text>
<text text-anchor="start" x="626" y="-1260.7" font-family="Times,serif" font-size="14.00">test1::$r1 &#45;&gt; [test1.new02], </text>
<text text-anchor="start" x="626" y="-1244.2" font-family="Times,serif" font-size="14.00">@parameter0: PubTest &#45;&gt; [test1.new00], </text>
<text text-anchor="start" x="626" y="-1227.7" font-family="Times,serif" font-size="14.00">test1::$r2 &#45;&gt; [test1.new05]</text>
<text text-anchor="start" x="626" y="-1211.2" font-family="Times,serif" font-size="14.00">}</text>
</g>
<!-- foo1 foo1::r1.&lt;PubTest: PubTest f&gt; = foo1::r2 -->
<g id="node13" class="node">
<title>foo1 foo1::r1.&lt;PubTest: PubTest f&gt; = foo1::r2</title>
<polygon fill="none" stroke="black" points="765.88,-921 494.12,-921 494.12,-885 765.88,-885 765.88,-921"/>
<text text-anchor="middle" x="630" y="-897.95" font-family="Times,serif" font-size="14.00">foo1 foo1::r1.&lt;PubTest: PubTest f&gt; = foo1::r2</text>
</g>
<!-- foo1 foo1::r1 = foo1::r0.&lt;PubTest: PubTest f&gt;&#45;&gt;foo1 foo1::r1.&lt;PubTest: PubTest f&gt; = foo1::r2 -->
<g id="edge11" class="edge">
<title>foo1 foo1::r1 = foo1::r0.&lt;PubTest: PubTest f&gt;&#45;&gt;foo1 foo1::r1.&lt;PubTest: PubTest f&gt; = foo1::r2</title>
<path fill="none" stroke="black" d="M630,-1137.75C630,-1095.3 630,-985.42 630,-932.85"/>
<polygon fill="black" stroke="black" points="633.5,-932.89 630,-922.89 626.5,-932.89 633.5,-932.89"/>
<text text-anchor="start" x="630" y="-1106.7" font-family="Times,serif" font-size="14.00">[PubTest.test1.in07] =&gt; {@parameter1: PubTest &#45;&gt; [test1.new05], </text>
<text text-anchor="start" x="630" y="-1090.2" font-family="Times,serif" font-size="14.00">foo1::r2 &#45;&gt; [test1.new05], </text>
<text text-anchor="start" x="630" y="-1073.7" font-family="Times,serif" font-size="14.00">test1::$r0 &#45;&gt; [test1.new00], </text>
<text text-anchor="start" x="630" y="-1057.2" font-family="Times,serif" font-size="14.00">foo1::r1 &#45;&gt; [test1.new02], </text>
<text text-anchor="start" x="630" y="-1040.7" font-family="Times,serif" font-size="14.00">foo1::r0 &#45;&gt; [test1.new00], </text>
<text text-anchor="start" x="630" y="-1024.2" font-family="Times,serif" font-size="14.00">test1.new00.f &#45;&gt; [test1.new02], </text>
<text text-anchor="start" x="630" y="-1007.7" font-family="Times,serif" font-size="14.00">test1::$r1 &#45;&gt; [test1.new02], </text>
<text text-anchor="start" x="630" y="-991.2" font-family="Times,serif" font-size="14.00">@parameter0: PubTest &#45;&gt; [test1.new00], </text>
<text text-anchor="start" x="630" y="-974.7" font-family="Times,serif" font-size="14.00">test1::$r2 &#45;&gt; [test1.new05]</text>
<text text-anchor="start" x="630" y="-958.2" font-family="Times,serif" font-size="14.00">}</text>
</g>
<!-- foo1 foo1::$r3 = new PubTest -->
<g id="node14" class="node">
<title>foo1 foo1::$r3 = new PubTest</title>
<polygon fill="none" stroke="black" points="675.5,-651.5 494.5,-651.5 494.5,-615.5 675.5,-615.5 675.5,-651.5"/>
<text text-anchor="middle" x="585" y="-628.45" font-family="Times,serif" font-size="14.00">foo1 foo1::$r3 = new PubTest</text>
</g>
<!-- foo1 foo1::r1.&lt;PubTest: PubTest f&gt; = foo1::r2&#45;&gt;foo1 foo1::$r3 = new PubTest -->
<g id="edge12" class="edge">
<title>foo1 foo1::r1.&lt;PubTest: PubTest f&gt; = foo1::r2&#45;&gt;foo1 foo1::$r3 = new PubTest</title>
<path fill="none" stroke="black" d="M627.12,-884.86C619.56,-839.95 599.13,-718.52 589.79,-662.96"/>
<polygon fill="black" stroke="black" points="593.28,-662.62 588.17,-653.34 586.38,-663.78 593.28,-662.62"/>
<text text-anchor="start" x="623" y="-853.7" font-family="Times,serif" font-size="14.00">[PubTest.test1.in07] =&gt; {@parameter1: PubTest &#45;&gt; [test1.new05], </text>
<text text-anchor="start" x="623" y="-837.2" font-family="Times,serif" font-size="14.00">foo1::r2 &#45;&gt; [test1.new05], </text>
<text text-anchor="start" x="623" y="-820.7" font-family="Times,serif" font-size="14.00">test1::$r0 &#45;&gt; [test1.new00], </text>
<text text-anchor="start" x="623" y="-804.2" font-family="Times,serif" font-size="14.00">foo1::r1 &#45;&gt; [test1.new02], </text>
<text text-anchor="start" x="623" y="-787.7" font-family="Times,serif" font-size="14.00">test1.new02.f &#45;&gt; [test1.new05], </text>
<text text-anchor="start" x="623" y="-771.2" font-family="Times,serif" font-size="14.00">foo1::r0 &#45;&gt; [test1.new00], </text>
<text text-anchor="start" x="623" y="-754.7" font-family="Times,serif" font-size="14.00">test1.new00.f &#45;&gt; [test1.new02], </text>
<text text-anchor="start" x="623" y="-738.2" font-family="Times,serif" font-size="14.00">test1::$r1 &#45;&gt; [test1.new02], </text>
<text text-anchor="start" x="623" y="-721.7" font-family="Times,serif" font-size="14.00">@parameter0: PubTest &#45;&gt; [test1.new00], </text>
<text text-anchor="start" x="623" y="-705.2" font-family="Times,serif" font-size="14.00">test1::$r2 &#45;&gt; [test1.new05]</text>
<text text-anchor="start" x="623" y="-688.7" font-family="Times,serif" font-size="14.00">}</text>
</g>
<!-- foo1 specialinvoke foo1::$r3.&lt;PubTest: void &lt;init&gt;()&gt;() -->
<g id="node15" class="node">
<title>foo1 specialinvoke foo1::$r3.&lt;PubTest: void &lt;init&gt;()&gt;()</title>
<polygon fill="none" stroke="black" points="819.5,-365.5 494.5,-365.5 494.5,-329.5 819.5,-329.5 819.5,-365.5"/>
<text text-anchor="middle" x="657" y="-342.45" font-family="Times,serif" font-size="14.00">foo1 specialinvoke foo1::$r3.&lt;PubTest: void &lt;init&gt;()&gt;()</text>
</g>
<!-- foo1 foo1::$r3 = new PubTest&#45;&gt;foo1 specialinvoke foo1::$r3.&lt;PubTest: void &lt;init&gt;()&gt;() -->
<g id="edge13" class="edge">
<title>foo1 foo1::$r3 = new PubTest&#45;&gt;foo1 specialinvoke foo1::$r3.&lt;PubTest: void &lt;init&gt;()&gt;()</title>
<path fill="none" stroke="red" d="M589.4,-615.16C601.42,-567.73 634.95,-435.47 649.78,-376.96"/>
<polygon fill="red" stroke="red" points="653.13,-377.99 652.2,-367.44 646.35,-376.27 653.13,-377.99"/>
<text text-anchor="start" x="648" y="-584.2" font-family="Times,serif" font-size="14.00">[PubTest.test1.in07] =&gt; {@parameter1: PubTest &#45;&gt; [test1.new05], </text>
<text text-anchor="start" x="648" y="-567.7" font-family="Times,serif" font-size="14.00">foo1::r2 &#45;&gt; [test1.new05], </text>
<text text-anchor="start" x="648" y="-551.2" font-family="Times,serif" font-size="14.00">test1::$r0 &#45;&gt; [test1.new00], </text>
<text text-anchor="start" x="648" y="-534.7" font-family="Times,serif" font-size="14.00">foo1::r1 &#45;&gt; [test1.new02], </text>
<text text-anchor="start" x="648" y="-518.2" font-family="Times,serif" font-size="14.00">test1.new02.f &#45;&gt; [test1.new05], </text>
<text text-anchor="start" x="648" y="-501.7" font-family="Times,serif" font-size="14.00">foo1::r0 &#45;&gt; [test1.new00], </text>
<text text-anchor="start" x="648" y="-485.2" font-family="Times,serif" font-size="14.00">test1.new00.f &#45;&gt; [test1.new02], </text>
<text text-anchor="start" x="648" y="-468.7" font-family="Times,serif" font-size="14.00">test1::$r1 &#45;&gt; [test1.new02], </text>
<text text-anchor="start" x="648" y="-452.2" font-family="Times,serif" font-size="14.00">foo1::$r3 &#45;&gt; [foo1.new04], </text>
<text text-anchor="start" x="648" y="-435.7" font-family="Times,serif" font-size="14.00">@parameter0: PubTest &#45;&gt; [test1.new00], </text>
<text text-anchor="start" x="648" y="-419.2" font-family="Times,serif" font-size="14.00">test1::$r2 &#45;&gt; [test1.new05]</text>
<text text-anchor="start" x="648" y="-402.7" font-family="Times,serif" font-size="14.00">}</text>
</g>
<!-- foo1 foo1::r2.&lt;PubTest: PubTest f&gt; = foo1::$r3 -->
<g id="node16" class="node">
<title>foo1 foo1::r2.&lt;PubTest: PubTest f&gt; = foo1::$r3</title>
<polygon fill="none" stroke="black" points="784.25,-261 505.75,-261 505.75,-225 784.25,-225 784.25,-261"/>
<text text-anchor="middle" x="645" y="-237.95" font-family="Times,serif" font-size="14.00">foo1 foo1::r2.&lt;PubTest: PubTest f&gt; = foo1::$r3</text>
</g>
<!-- foo1 specialinvoke foo1::$r3.&lt;PubTest: void &lt;init&gt;()&gt;()&#45;&gt;foo1 foo1::r2.&lt;PubTest: PubTest f&gt; = foo1::$r3 -->
<g id="edge14" class="edge">
<title>foo1 specialinvoke foo1::$r3.&lt;PubTest: void &lt;init&gt;()&gt;()&#45;&gt;foo1 foo1::r2.&lt;PubTest: PubTest f&gt; = foo1::$r3</title>
<path fill="none" stroke="red" d="M654.96,-329.11C653.16,-313.72 650.5,-290.96 648.38,-272.85"/>
<polygon fill="red" stroke="red" points="651.86,-272.5 647.22,-262.98 644.91,-273.32 651.86,-272.5"/>
<text text-anchor="start" x="652" y="-298.2" font-family="Times,serif" font-size="14.00">[] =&gt; {}</text>
</g>
<!-- foo1 foo1::$r3.&lt;PubTest: PubTest f&gt; = null -->
<g id="node17" class="node">
<title>foo1 foo1::$r3.&lt;PubTest: PubTest f&gt; = null</title>
<polygon fill="none" stroke="black" points="761,-156.5 505,-156.5 505,-120.5 761,-120.5 761,-156.5"/>
<text text-anchor="middle" x="633" y="-133.45" font-family="Times,serif" font-size="14.00">foo1 foo1::$r3.&lt;PubTest: PubTest f&gt; = null</text>
</g>
<!-- foo1 foo1::r2.&lt;PubTest: PubTest f&gt; = foo1::$r3&#45;&gt;foo1 foo1::$r3.&lt;PubTest: PubTest f&gt; = null -->
<g id="edge15" class="edge">
<title>foo1 foo1::r2.&lt;PubTest: PubTest f&gt; = foo1::$r3&#45;&gt;foo1 foo1::$r3.&lt;PubTest: PubTest f&gt; = null</title>
<path fill="none" stroke="red" d="M642.96,-224.61C641.16,-209.22 638.5,-186.46 636.38,-168.35"/>
<polygon fill="red" stroke="red" points="639.86,-168 635.22,-158.48 632.91,-168.82 639.86,-168"/>
<text text-anchor="start" x="640" y="-193.7" font-family="Times,serif" font-size="14.00">[] =&gt; {}</text>
</g>
<!-- foo1 return -->
<g id="node18" class="node">
<title>foo1 return</title>
<polygon fill="none" stroke="black" points="620.38,-52 543.62,-52 543.62,-16 620.38,-16 620.38,-52"/>
<text text-anchor="middle" x="582" y="-28.95" font-family="Times,serif" font-size="14.00">foo1 return</text>
</g>
<!-- foo1 foo1::$r3.&lt;PubTest: PubTest f&gt; = null&#45;&gt;foo1 return -->
<g id="edge16" class="edge">
<title>foo1 foo1::$r3.&lt;PubTest: PubTest f&gt; = null&#45;&gt;foo1 return</title>
<path fill="none" stroke="red" d="M624.35,-120.11C616.51,-104.36 604.82,-80.87 595.71,-62.56"/>
<polygon fill="red" stroke="red" points="598.96,-61.22 591.37,-53.83 592.69,-64.34 598.96,-61.22"/>
<text text-anchor="start" x="615" y="-89.2" font-family="Times,serif" font-size="14.00">[] =&gt; {}</text>
</g>
<!-- foo1 return&#45;&gt;test1 return -->
<g id="edge18" class="edge">
<title>foo1 return&#45;&gt;test1 return</title>
<path fill="none" stroke="black" stroke-dasharray="1,5" d="M543.24,-35.82C479.13,-39.46 358,-56.99 358,-137.5 358,-1393.5 358,-1393.5 358,-1393.5 358,-1462.13 341.81,-1541.57 332.11,-1583"/>
<polygon fill="black" stroke="black" points="328.73,-1582.1 329.8,-1592.64 335.54,-1583.73 328.73,-1582.1"/>
<text text-anchor="middle" x="408.62" y="-628.45" font-family="Times,serif" font-size="14.00">PubTest.test1.in07</text>
</g>
</g>
</svg>
