<?xml version="1.0" encoding="UTF-8" standalone="no"?>
<!DOCTYPE svg PUBLIC "-//W3C//DTD SVG 1.1//EN"
 "http://www.w3.org/Graphics/SVG/1.1/DTD/svg11.dtd">
<!-- Generated by graphviz version 9.0.0 (20230911.1827)
 -->
<!-- Title: G Pages: 1 -->
<svg width="1795pt" height="1006pt"
 viewBox="0.00 0.00 1795.25 1005.50" xmlns="http://www.w3.org/2000/svg" xmlns:xlink="http://www.w3.org/1999/xlink">
<g id="graph0" class="graph" transform="scale(1 1) rotate(0) translate(4 1001.5)">
<title>G</title>
<polygon fill="white" stroke="none" points="-4,4 -4,-1001.5 1791.25,-1001.5 1791.25,4 -4,4"/>
<g id="clust1" class="cluster">
<title>cluster_0</title>
<polygon fill="none" stroke="black" points="8,-387.5 8,-989.5 478,-989.5 478,-387.5 8,-387.5"/>
</g>
<g id="clust2" class="cluster">
<title>cluster_1</title>
<polygon fill="none" stroke="black" points="486,-8 486,-593.5 1028,-593.5 1028,-8 486,-8"/>
</g>
<g id="clust3" class="cluster">
<title>cluster_2</title>
<polygon fill="none" stroke="black" points="1043,-8 1043,-868.5 1735,-868.5 1735,-8 1043,-8"/>
</g>
<!-- f f::$r0 = new BasicTest -->
<g id="node1" class="node">
<title>f f::$r0 = new BasicTest</title>
<polygon fill="none" stroke="black" points="317.75,-981.5 168.25,-981.5 168.25,-945.5 317.75,-945.5 317.75,-981.5"/>
<text text-anchor="middle" x="243" y="-958.45" font-family="Times,serif" font-size="14.00">f f::$r0 = new BasicTest</text>
</g>
<!-- f specialinvoke f::$r0.&lt;BasicTest: void &lt;init&gt;()&gt;() -->
<g id="node2" class="node">
<title>f specialinvoke f::$r0.&lt;BasicTest: void &lt;init&gt;()&gt;()</title>
<polygon fill="none" stroke="black" points="389.75,-860.5 96.25,-860.5 96.25,-824.5 389.75,-824.5 389.75,-860.5"/>
<text text-anchor="middle" x="243" y="-837.45" font-family="Times,serif" font-size="14.00">f specialinvoke f::$r0.&lt;BasicTest: void &lt;init&gt;()&gt;()</text>
</g>
<!-- f f::$r0 = new BasicTest&#45;&gt;f specialinvoke f::$r0.&lt;BasicTest: void &lt;init&gt;()&gt;() -->
<g id="edge1" class="edge">
<title>f f::$r0 = new BasicTest&#45;&gt;f specialinvoke f::$r0.&lt;BasicTest: void &lt;init&gt;()&gt;()</title>
<path fill="none" stroke="black" d="M243,-945.2C243,-926.07 243,-894.96 243,-872.18"/>
<polygon fill="black" stroke="black" points="246.5,-872.34 243,-862.34 239.5,-872.34 246.5,-872.34"/>
<text text-anchor="start" x="243" y="-914.2" font-family="Times,serif" font-size="14.00">[] =&gt; {f::$r0 &#45;&gt; [f.new00], </text>
<text text-anchor="start" x="243" y="-897.7" font-family="Times,serif" font-size="14.00">}</text>
</g>
<!-- f f::$r1 = staticinvoke &lt;BasicTest: BasicTest REC_TEST_1(BasicTest)&gt;(f::$r0) -->
<g id="node3" class="node">
<title>f f::$r1 = staticinvoke &lt;BasicTest: BasicTest REC_TEST_1(BasicTest)&gt;(f::$r0)</title>
<polygon fill="none" stroke="black" points="469.62,-739.5 16.38,-739.5 16.38,-703.5 469.62,-703.5 469.62,-739.5"/>
<text text-anchor="middle" x="243" y="-716.45" font-family="Times,serif" font-size="14.00">f f::$r1 = staticinvoke &lt;BasicTest: BasicTest REC_TEST_1(BasicTest)&gt;(f::$r0)</text>
</g>
<!-- f specialinvoke f::$r0.&lt;BasicTest: void &lt;init&gt;()&gt;()&#45;&gt;f f::$r1 = staticinvoke &lt;BasicTest: BasicTest REC_TEST_1(BasicTest)&gt;(f::$r0) -->
<g id="edge2" class="edge">
<title>f specialinvoke f::$r0.&lt;BasicTest: void &lt;init&gt;()&gt;()&#45;&gt;f f::$r1 = staticinvoke &lt;BasicTest: BasicTest REC_TEST_1(BasicTest)&gt;(f::$r0)</title>
<path fill="none" stroke="black" d="M243,-824.2C243,-805.07 243,-773.96 243,-751.18"/>
<polygon fill="black" stroke="black" points="246.5,-751.34 243,-741.34 239.5,-751.34 246.5,-751.34"/>
<text text-anchor="start" x="243" y="-793.2" font-family="Times,serif" font-size="14.00">[] =&gt; {f::$r0 &#45;&gt; [f.new00], </text>
<text text-anchor="start" x="243" y="-776.7" font-family="Times,serif" font-size="14.00">}</text>
</g>
<!-- f f::$r1.&lt;BasicTest: BasicTest f&gt; = null -->
<g id="node4" class="node">
<title>f f::$r1.&lt;BasicTest: BasicTest f&gt; = null</title>
<polygon fill="none" stroke="black" points="441.75,-585.5 208.25,-585.5 208.25,-549.5 441.75,-549.5 441.75,-585.5"/>
<text text-anchor="middle" x="325" y="-562.45" font-family="Times,serif" font-size="14.00">f f::$r1.&lt;BasicTest: BasicTest f&gt; = null</text>
</g>
<!-- f f::$r1 = staticinvoke &lt;BasicTest: BasicTest REC_TEST_1(BasicTest)&gt;(f::$r0)&#45;&gt;f f::$r1.&lt;BasicTest: BasicTest f&gt; = null -->
<g id="edge3" class="edge">
<title>f f::$r1 = staticinvoke &lt;BasicTest: BasicTest REC_TEST_1(BasicTest)&gt;(f::$r0)&#45;&gt;f f::$r1.&lt;BasicTest: BasicTest f&gt; = null</title>
<path fill="none" stroke="black" d="M252.41,-703.06C266.62,-676.72 293.68,-626.56 310.44,-595.48"/>
<polygon fill="black" stroke="black" points="313.32,-597.53 314.98,-587.07 307.16,-594.2 313.32,-597.53"/>
<text text-anchor="start" x="306" y="-647.45" font-family="Times,serif" font-size="14.00">[] =&gt; {}</text>
</g>
<!-- REC_TEST_1 REC_TEST_1::r1 := @parameter0: BasicTest -->
<g id="node6" class="node">
<title>REC_TEST_1 REC_TEST_1::r1 := @parameter0: BasicTest</title>
<polygon fill="none" stroke="black" points="844.25,-585.5 493.75,-585.5 493.75,-549.5 844.25,-549.5 844.25,-585.5"/>
<text text-anchor="middle" x="669" y="-562.45" font-family="Times,serif" font-size="14.00">REC_TEST_1 REC_TEST_1::r1 := @parameter0: BasicTest</text>
</g>
<!-- f f::$r1 = staticinvoke &lt;BasicTest: BasicTest REC_TEST_1(BasicTest)&gt;(f::$r0)&#45;&gt;REC_TEST_1 REC_TEST_1::r1 := @parameter0: BasicTest -->
<g id="edge16" class="edge">
<title>f f::$r1 = staticinvoke &lt;BasicTest: BasicTest REC_TEST_1(BasicTest)&gt;(f::$r0)&#45;&gt;REC_TEST_1 REC_TEST_1::r1 := @parameter0: BasicTest</title>
<path fill="none" stroke="black" stroke-dasharray="1,5" d="M301.56,-703.06C319.14,-697.64 338.41,-691.51 356,-685.5 447.34,-654.31 552.16,-614.24 614.36,-590.01"/>
<polygon fill="black" stroke="black" points="615.26,-593.42 623.3,-586.52 612.71,-586.9 615.26,-593.42"/>
<text text-anchor="middle" x="752.5" y="-672.2" font-family="Times,serif" font-size="14.00">BasicTest.f.in02</text>
<text text-anchor="start" x="580" y="-655.7" font-family="Times,serif" font-size="14.00">[BasicTest.f.in02] =&gt; {@parameter0: BasicTest &#45;&gt; [f.new00], </text>
<text text-anchor="start" x="580" y="-639.2" font-family="Times,serif" font-size="14.00">f::$r0 &#45;&gt; [f.new00], </text>
<text text-anchor="start" x="580" y="-622.7" font-family="Times,serif" font-size="14.00">}</text>
</g>
<!-- f return -->
<g id="node5" class="node">
<title>f return</title>
<polygon fill="none" stroke="black" points="409.25,-431.5 352.75,-431.5 352.75,-395.5 409.25,-395.5 409.25,-431.5"/>
<text text-anchor="middle" x="381" y="-408.45" font-family="Times,serif" font-size="14.00">f return</text>
</g>
<!-- f f::$r1.&lt;BasicTest: BasicTest f&gt; = null&#45;&gt;f return -->
<g id="edge4" class="edge">
<title>f f::$r1.&lt;BasicTest: BasicTest f&gt; = null&#45;&gt;f return</title>
<path fill="none" stroke="black" d="M332.1,-549.1C334.35,-543.5 336.82,-537.25 339,-531.5 350.51,-501.15 362.99,-466.08 371.33,-442.31"/>
<polygon fill="black" stroke="black" points="374.57,-443.65 374.57,-433.05 367.97,-441.33 374.57,-443.65"/>
</g>
<!-- REC_TEST_1 REC_TEST_1::$r0 = new BasicTest -->
<g id="node7" class="node">
<title>REC_TEST_1 REC_TEST_1::$r0 = new BasicTest</title>
<polygon fill="none" stroke="black" points="806,-431.5 508,-431.5 508,-395.5 806,-395.5 806,-431.5"/>
<text text-anchor="middle" x="657" y="-408.45" font-family="Times,serif" font-size="14.00">REC_TEST_1 REC_TEST_1::$r0 = new BasicTest</text>
</g>
<!-- REC_TEST_1 REC_TEST_1::r1 := @parameter0: BasicTest&#45;&gt;REC_TEST_1 REC_TEST_1::$r0 = new BasicTest -->
<g id="edge5" class="edge">
<title>REC_TEST_1 REC_TEST_1::r1 := @parameter0: BasicTest&#45;&gt;REC_TEST_1 REC_TEST_1::$r0 = new BasicTest</title>
<path fill="none" stroke="black" d="M661.13,-549.04C659.03,-543.54 657.05,-537.37 656,-531.5 650.65,-501.71 651.86,-466.95 653.82,-443.11"/>
<polygon fill="black" stroke="black" points="657.3,-443.51 654.73,-433.23 650.33,-442.86 657.3,-443.51"/>
<text text-anchor="start" x="656" y="-518.2" font-family="Times,serif" font-size="14.00">[BasicTest.f.in02] =&gt; {@parameter0: BasicTest &#45;&gt; [f.new00], </text>
<text text-anchor="start" x="656" y="-501.7" font-family="Times,serif" font-size="14.00">f::$r0 &#45;&gt; [f.new00], </text>
<text text-anchor="start" x="656" y="-485.2" font-family="Times,serif" font-size="14.00">REC_TEST_1::r1 &#45;&gt; [f.new00], </text>
<text text-anchor="start" x="656" y="-468.7" font-family="Times,serif" font-size="14.00">}</text>
</g>
<!-- REC_TEST_1 specialinvoke REC_TEST_1::$r0.&lt;BasicTest: void &lt;init&gt;()&gt;() -->
<g id="node8" class="node">
<title>REC_TEST_1 specialinvoke REC_TEST_1::$r0.&lt;BasicTest: void &lt;init&gt;()&gt;()</title>
<polygon fill="none" stroke="black" points="947,-261 505,-261 505,-225 947,-225 947,-261"/>
<text text-anchor="middle" x="726" y="-237.95" font-family="Times,serif" font-size="14.00">REC_TEST_1 specialinvoke REC_TEST_1::$r0.&lt;BasicTest: void &lt;init&gt;()&gt;()</text>
</g>
<!-- REC_TEST_1 REC_TEST_1::$r0 = new BasicTest&#45;&gt;REC_TEST_1 specialinvoke REC_TEST_1::$r0.&lt;BasicTest: void &lt;init&gt;()&gt;() -->
<g id="edge6" class="edge">
<title>REC_TEST_1 REC_TEST_1::$r0 = new BasicTest&#45;&gt;REC_TEST_1 specialinvoke REC_TEST_1::$r0.&lt;BasicTest: void &lt;init&gt;()&gt;()</title>
<path fill="none" stroke="red" d="M653.01,-395.37C647.73,-368.39 641.51,-315.3 664,-279 666.49,-274.98 669.62,-271.38 673.14,-268.17"/>
<polygon fill="red" stroke="red" points="675,-271.16 680.76,-262.27 670.71,-265.62 675,-271.16"/>
<text text-anchor="start" x="664" y="-364.2" font-family="Times,serif" font-size="14.00">[BasicTest.f.in02] =&gt; {@parameter0: BasicTest &#45;&gt; [f.new00], </text>
<text text-anchor="start" x="664" y="-347.7" font-family="Times,serif" font-size="14.00">f::$r0 &#45;&gt; [f.new00], </text>
<text text-anchor="start" x="664" y="-331.2" font-family="Times,serif" font-size="14.00">REC_TEST_1::$r0 &#45;&gt; [REC_TEST_1.new01], </text>
<text text-anchor="start" x="664" y="-314.7" font-family="Times,serif" font-size="14.00">REC_TEST_1::r1 &#45;&gt; [f.new00], </text>
<text text-anchor="start" x="664" y="-298.2" font-family="Times,serif" font-size="14.00">}</text>
</g>
<!-- REC_TEST_1 staticinvoke &lt;BasicTest: BasicTest rec_test_2(BasicTest)&gt;(REC_TEST_1::r1) -->
<g id="node9" class="node">
<title>REC_TEST_1 staticinvoke &lt;BasicTest: BasicTest rec_test_2(BasicTest)&gt;(REC_TEST_1::r1)</title>
<polygon fill="none" stroke="black" points="1020,-156.5 494,-156.5 494,-120.5 1020,-120.5 1020,-156.5"/>
<text text-anchor="middle" x="757" y="-133.45" font-family="Times,serif" font-size="14.00">REC_TEST_1 staticinvoke &lt;BasicTest: BasicTest rec_test_2(BasicTest)&gt;(REC_TEST_1::r1)</text>
</g>
<!-- REC_TEST_1 specialinvoke REC_TEST_1::$r0.&lt;BasicTest: void &lt;init&gt;()&gt;()&#45;&gt;REC_TEST_1 staticinvoke &lt;BasicTest: BasicTest rec_test_2(BasicTest)&gt;(REC_TEST_1::r1) -->
<g id="edge7" class="edge">
<title>REC_TEST_1 specialinvoke REC_TEST_1::$r0.&lt;BasicTest: void &lt;init&gt;()&gt;()&#45;&gt;REC_TEST_1 staticinvoke &lt;BasicTest: BasicTest rec_test_2(BasicTest)&gt;(REC_TEST_1::r1)</title>
<path fill="none" stroke="red" d="M731.26,-224.61C735.96,-209.08 742.93,-186.03 748.43,-167.83"/>
<polygon fill="red" stroke="red" points="751.73,-169.01 751.28,-158.42 745.03,-166.98 751.73,-169.01"/>
<text text-anchor="start" x="746" y="-193.7" font-family="Times,serif" font-size="14.00">[] =&gt; {}</text>
</g>
<!-- REC_TEST_1 return REC_TEST_1::$r0 -->
<g id="node10" class="node">
<title>REC_TEST_1 return REC_TEST_1::$r0</title>
<polygon fill="none" stroke="black" points="876.38,-52 637.62,-52 637.62,-16 876.38,-16 876.38,-52"/>
<text text-anchor="middle" x="757" y="-28.95" font-family="Times,serif" font-size="14.00">REC_TEST_1 return REC_TEST_1::$r0</text>
</g>
<!-- REC_TEST_1 staticinvoke &lt;BasicTest: BasicTest rec_test_2(BasicTest)&gt;(REC_TEST_1::r1)&#45;&gt;REC_TEST_1 return REC_TEST_1::$r0 -->
<g id="edge8" class="edge">
<title>REC_TEST_1 staticinvoke &lt;BasicTest: BasicTest rec_test_2(BasicTest)&gt;(REC_TEST_1::r1)&#45;&gt;REC_TEST_1 return REC_TEST_1::$r0</title>
<path fill="none" stroke="red" d="M757,-120.11C757,-104.72 757,-81.96 757,-63.85"/>
<polygon fill="red" stroke="red" points="760.5,-63.99 757,-53.99 753.5,-63.99 760.5,-63.99"/>
<text text-anchor="start" x="757" y="-89.2" font-family="Times,serif" font-size="14.00">[] =&gt; {}</text>
</g>
<!-- rec_test_2 rec_test_2::r1 := @parameter0: BasicTest -->
<g id="node11" class="node">
<title>rec_test_2 rec_test_2::r1 := @parameter0: BasicTest</title>
<polygon fill="none" stroke="black" points="1522,-860.5 1218,-860.5 1218,-824.5 1522,-824.5 1522,-860.5"/>
<text text-anchor="middle" x="1370" y="-837.45" font-family="Times,serif" font-size="14.00">rec_test_2 rec_test_2::r1 := @parameter0: BasicTest</text>
</g>
<!-- REC_TEST_1 staticinvoke &lt;BasicTest: BasicTest rec_test_2(BasicTest)&gt;(REC_TEST_1::r1)&#45;&gt;rec_test_2 rec_test_2::r1 := @parameter0: BasicTest -->
<g id="edge17" class="edge">
<title>REC_TEST_1 staticinvoke &lt;BasicTest: BasicTest rec_test_2(BasicTest)&gt;(REC_TEST_1::r1)&#45;&gt;rec_test_2 rec_test_2::r1 := @parameter0: BasicTest</title>
<path fill="none" stroke="red" stroke-dasharray="1,5" d="M848.91,-156.95C925.8,-174.25 1023,-203.71 1023,-242 1023,-722.5 1023,-722.5 1023,-722.5 1023,-770.46 1143.09,-803.17 1241.98,-821.98"/>
<polygon fill="red" stroke="red" points="1241.05,-825.37 1251.52,-823.76 1242.33,-818.49 1241.05,-825.37"/>
<text text-anchor="middle" x="1104.75" y="-501.7" font-family="Times,serif" font-size="14.00">BasicTest.REC_TEST_1.in03</text>
<text text-anchor="start" x="1023" y="-485.2" font-family="Times,serif" font-size="14.00">[] =&gt; {}</text>
</g>
<!-- REC_TEST_1 return REC_TEST_1::$r0&#45;&gt;f f::$r1.&lt;BasicTest: BasicTest f&gt; = null -->
<g id="edge18" class="edge">
<title>REC_TEST_1 return REC_TEST_1::$r0&#45;&gt;f f::$r1.&lt;BasicTest: BasicTest f&gt; = null</title>
<path fill="none" stroke="black" stroke-dasharray="1,5" d="M637.24,-40.17C509.39,-49.06 325,-73.04 325,-137.5 325,-414.5 325,-414.5 325,-414.5 325,-457.41 325,-507.13 325,-537.7"/>
<polygon fill="black" stroke="black" points="321.5,-537.66 325,-547.66 328.5,-537.66 321.5,-537.66"/>
<text text-anchor="middle" x="369.62" y="-237.95" font-family="Times,serif" font-size="14.00">BasicTest.f.in02</text>
</g>
<!-- rec_test_2 rec_test_2::$r0 = new BasicTest -->
<g id="node12" class="node">
<title>rec_test_2 rec_test_2::$r0 = new BasicTest</title>
<polygon fill="none" stroke="black" points="1495.75,-739.5 1244.25,-739.5 1244.25,-703.5 1495.75,-703.5 1495.75,-739.5"/>
<text text-anchor="middle" x="1370" y="-716.45" font-family="Times,serif" font-size="14.00">rec_test_2 rec_test_2::$r0 = new BasicTest</text>
</g>
<!-- rec_test_2 rec_test_2::r1 := @parameter0: BasicTest&#45;&gt;rec_test_2 rec_test_2::$r0 = new BasicTest -->
<g id="edge9" class="edge">
<title>rec_test_2 rec_test_2::r1 := @parameter0: BasicTest&#45;&gt;rec_test_2 rec_test_2::$r0 = new BasicTest</title>
<path fill="none" stroke="red" d="M1370,-824.2C1370,-805.07 1370,-773.96 1370,-751.18"/>
<polygon fill="red" stroke="red" points="1373.5,-751.34 1370,-741.34 1366.5,-751.34 1373.5,-751.34"/>
<text text-anchor="start" x="1370" y="-784.95" font-family="Times,serif" font-size="14.00">[] =&gt; {}</text>
</g>
<!-- rec_test_2 specialinvoke rec_test_2::$r0.&lt;BasicTest: void &lt;init&gt;()&gt;() -->
<g id="node13" class="node">
<title>rec_test_2 specialinvoke rec_test_2::$r0.&lt;BasicTest: void &lt;init&gt;()&gt;()</title>
<polygon fill="none" stroke="black" points="1567.75,-585.5 1172.25,-585.5 1172.25,-549.5 1567.75,-549.5 1567.75,-585.5"/>
<text text-anchor="middle" x="1370" y="-562.45" font-family="Times,serif" font-size="14.00">rec_test_2 specialinvoke rec_test_2::$r0.&lt;BasicTest: void &lt;init&gt;()&gt;()</text>
</g>
<!-- rec_test_2 rec_test_2::$r0 = new BasicTest&#45;&gt;rec_test_2 specialinvoke rec_test_2::$r0.&lt;BasicTest: void &lt;init&gt;()&gt;() -->
<g id="edge10" class="edge">
<title>rec_test_2 rec_test_2::$r0 = new BasicTest&#45;&gt;rec_test_2 specialinvoke rec_test_2::$r0.&lt;BasicTest: void &lt;init&gt;()&gt;()</title>
<path fill="none" stroke="red" d="M1370,-703.06C1370,-677.18 1370,-628.3 1370,-597.12"/>
<polygon fill="red" stroke="red" points="1373.5,-597.25 1370,-587.25 1366.5,-597.25 1373.5,-597.25"/>
<text text-anchor="start" x="1370" y="-647.45" font-family="Times,serif" font-size="14.00">[] =&gt; {}</text>
</g>
<!-- rec_test_2 rec_test_2::$r2 = rec_test_2::r1.&lt;BasicTest: BasicTest f&gt; -->
<g id="node14" class="node">
<title>rec_test_2 rec_test_2::$r2 = rec_test_2::r1.&lt;BasicTest: BasicTest f&gt;</title>
<polygon fill="none" stroke="black" points="1567.38,-431.5 1178.62,-431.5 1178.62,-395.5 1567.38,-395.5 1567.38,-431.5"/>
<text text-anchor="middle" x="1373" y="-408.45" font-family="Times,serif" font-size="14.00">rec_test_2 rec_test_2::$r2 = rec_test_2::r1.&lt;BasicTest: BasicTest f&gt;</text>
</g>
<!-- rec_test_2 specialinvoke rec_test_2::$r0.&lt;BasicTest: void &lt;init&gt;()&gt;()&#45;&gt;rec_test_2 rec_test_2::$r2 = rec_test_2::r1.&lt;BasicTest: BasicTest f&gt; -->
<g id="edge11" class="edge">
<title>rec_test_2 specialinvoke rec_test_2::$r0.&lt;BasicTest: void &lt;init&gt;()&gt;()&#45;&gt;rec_test_2 rec_test_2::$r2 = rec_test_2::r1.&lt;BasicTest: BasicTest f&gt;</title>
<path fill="none" stroke="red" d="M1370.34,-549.06C1370.86,-523.18 1371.82,-474.3 1372.44,-443.12"/>
<polygon fill="red" stroke="red" points="1375.93,-443.31 1372.63,-433.25 1368.93,-443.18 1375.93,-443.31"/>
<text text-anchor="start" x="1372" y="-493.45" font-family="Times,serif" font-size="14.00">[] =&gt; {}</text>
</g>
<!-- rec_test_2 if rec_test_2::$r2 == null goto staticinvoke &lt;BasicTest: BasicTest rec_test_2(BasicTest)&gt;(rec_test_2::$r0) -->
<g id="node15" class="node">
<title>rec_test_2 if rec_test_2::$r2 == null goto staticinvoke &lt;BasicTest: BasicTest rec_test_2(BasicTest)&gt;(rec_test_2::$r0)</title>
<polygon fill="none" stroke="black" points="1706.88,-261 1051.12,-261 1051.12,-225 1706.88,-225 1706.88,-261"/>
<text text-anchor="middle" x="1379" y="-237.95" font-family="Times,serif" font-size="14.00">rec_test_2 if rec_test_2::$r2 == null goto staticinvoke &lt;BasicTest: BasicTest rec_test_2(BasicTest)&gt;(rec_test_2::$r0)</text>
</g>
<!-- rec_test_2 rec_test_2::$r2 = rec_test_2::r1.&lt;BasicTest: BasicTest f&gt;&#45;&gt;rec_test_2 if rec_test_2::$r2 == null goto staticinvoke &lt;BasicTest: BasicTest rec_test_2(BasicTest)&gt;(rec_test_2::$r0) -->
<g id="edge12" class="edge">
<title>rec_test_2 rec_test_2::$r2 = rec_test_2::r1.&lt;BasicTest: BasicTest f&gt;&#45;&gt;rec_test_2 if rec_test_2::$r2 == null goto staticinvoke &lt;BasicTest: BasicTest rec_test_2(BasicTest)&gt;(rec_test_2::$r0)</title>
<path fill="none" stroke="red" d="M1373.62,-395.1C1374.65,-366.07 1376.74,-307.47 1377.99,-272.39"/>
<polygon fill="red" stroke="red" points="1381.48,-272.68 1378.34,-262.56 1374.49,-272.43 1381.48,-272.68"/>
<text text-anchor="start" x="1377" y="-331.2" font-family="Times,serif" font-size="14.00">[] =&gt; {}</text>
</g>
<!-- rec_test_2 return null -->
<g id="node16" class="node">
<title>rec_test_2 return null</title>
<polygon fill="none" stroke="black" points="1198.12,-156.5 1065.88,-156.5 1065.88,-120.5 1198.12,-120.5 1198.12,-156.5"/>
<text text-anchor="middle" x="1132" y="-133.45" font-family="Times,serif" font-size="14.00">rec_test_2 return null</text>
</g>
<!-- rec_test_2 if rec_test_2::$r2 == null goto staticinvoke &lt;BasicTest: BasicTest rec_test_2(BasicTest)&gt;(rec_test_2::$r0)&#45;&gt;rec_test_2 return null -->
<g id="edge13" class="edge">
<title>rec_test_2 if rec_test_2::$r2 == null goto staticinvoke &lt;BasicTest: BasicTest rec_test_2(BasicTest)&gt;(rec_test_2::$r0)&#45;&gt;rec_test_2 return null</title>
<path fill="none" stroke="red" d="M1337.1,-224.61C1295.05,-207.16 1230.16,-180.23 1184.65,-161.35"/>
<polygon fill="red" stroke="red" points="1186.08,-158.15 1175.5,-157.55 1183.4,-164.62 1186.08,-158.15"/>
<text text-anchor="start" x="1292" y="-193.7" font-family="Times,serif" font-size="14.00">[] =&gt; {}</text>
</g>
<!-- rec_test_2 staticinvoke &lt;BasicTest: BasicTest rec_test_2(BasicTest)&gt;(rec_test_2::$r0) -->
<g id="node17" class="node">
<title>rec_test_2 staticinvoke &lt;BasicTest: BasicTest rec_test_2(BasicTest)&gt;(rec_test_2::$r0)</title>
<polygon fill="none" stroke="black" points="1702.12,-156.5 1215.88,-156.5 1215.88,-120.5 1702.12,-120.5 1702.12,-156.5"/>
<text text-anchor="middle" x="1459" y="-133.45" font-family="Times,serif" font-size="14.00">rec_test_2 staticinvoke &lt;BasicTest: BasicTest rec_test_2(BasicTest)&gt;(rec_test_2::$r0)</text>
</g>
<!-- rec_test_2 if rec_test_2::$r2 == null goto staticinvoke &lt;BasicTest: BasicTest rec_test_2(BasicTest)&gt;(rec_test_2::$r0)&#45;&gt;rec_test_2 staticinvoke &lt;BasicTest: BasicTest rec_test_2(BasicTest)&gt;(rec_test_2::$r0) -->
<g id="edge14" class="edge">
<title>rec_test_2 if rec_test_2::$r2 == null goto staticinvoke &lt;BasicTest: BasicTest rec_test_2(BasicTest)&gt;(rec_test_2::$r0)&#45;&gt;rec_test_2 staticinvoke &lt;BasicTest: BasicTest rec_test_2(BasicTest)&gt;(rec_test_2::$r0)</title>
<path fill="none" stroke="red" d="M1392.57,-224.61C1405.1,-208.56 1423.89,-184.49 1438.29,-166.04"/>
<polygon fill="red" stroke="red" points="1441.04,-168.2 1444.43,-158.17 1435.52,-163.9 1441.04,-168.2"/>
<text text-anchor="start" x="1430" y="-193.7" font-family="Times,serif" font-size="14.00">[] =&gt; {}</text>
</g>
<!-- rec_test_2 return null&#45;&gt;REC_TEST_1 return REC_TEST_1::$r0 -->
<g id="edge20" class="edge">
<title>rec_test_2 return null&#45;&gt;REC_TEST_1 return REC_TEST_1::$r0</title>
<path fill="none" stroke="red" stroke-dasharray="1,5" d="M1065.69,-124.44C1036.64,-118.36 1002.23,-110.67 971.5,-102.5 919.44,-88.66 861.18,-70.13 818.53,-55.99"/>
<polygon fill="red" stroke="red" points="819.79,-52.72 809.2,-52.88 817.58,-59.36 819.79,-52.72"/>
<text text-anchor="middle" x="1052.75" y="-81.2" font-family="Times,serif" font-size="14.00">BasicTest.REC_TEST_1.in03</text>
</g>
<!-- rec_test_2 return rec_test_2::$r0 -->
<g id="node18" class="node">
<title>rec_test_2 return rec_test_2::$r0</title>
<polygon fill="none" stroke="black" points="1250.12,-52 1057.88,-52 1057.88,-16 1250.12,-16 1250.12,-52"/>
<text text-anchor="middle" x="1154" y="-28.95" font-family="Times,serif" font-size="14.00">rec_test_2 return rec_test_2::$r0</text>
</g>
<!-- rec_test_2 return null&#45;&gt;rec_test_2 return rec_test_2::$r0 -->
<g id="edge19" class="edge">
<title>rec_test_2 return null&#45;&gt;rec_test_2 return rec_test_2::$r0</title>
<path fill="none" stroke="red" stroke-dasharray="1,5" d="M1135.73,-120.11C1139.05,-104.65 1143.97,-81.75 1147.86,-63.59"/>
<polygon fill="red" stroke="red" points="1151.26,-64.46 1149.93,-53.95 1144.41,-63 1151.26,-64.46"/>
<text text-anchor="middle" x="1216.12" y="-81.2" font-family="Times,serif" font-size="14.00">BasicTest.rec_test_2.in06</text>
</g>
<!-- rec_test_2 staticinvoke &lt;BasicTest: BasicTest rec_test_2(BasicTest)&gt;(rec_test_2::$r0)&#45;&gt;rec_test_2 rec_test_2::r1 := @parameter0: BasicTest -->
<g id="edge21" class="edge">
<title>rec_test_2 staticinvoke &lt;BasicTest: BasicTest rec_test_2(BasicTest)&gt;(rec_test_2::$r0)&#45;&gt;rec_test_2 rec_test_2::r1 := @parameter0: BasicTest</title>
<path fill="none" stroke="red" stroke-dasharray="1,5" d="M1610.13,-156.91C1651.04,-169.34 1690.9,-190.2 1716,-225 1725.36,-237.98 1719.15,-245.31 1716,-261 1703.98,-320.9 1570.09,-658.65 1505,-739.5 1478.77,-772.08 1439.95,-799.98 1410.66,-818.32"/>
<polygon fill="red" stroke="red" points="1409.11,-815.16 1402.42,-823.37 1412.77,-821.13 1409.11,-815.16"/>
<text text-anchor="middle" x="1717.12" y="-501.7" font-family="Times,serif" font-size="14.00">BasicTest.rec_test_2.in06</text>
<text text-anchor="start" x="1647" y="-485.2" font-family="Times,serif" font-size="14.00">[] =&gt; {}</text>
</g>
<!-- rec_test_2 staticinvoke &lt;BasicTest: BasicTest rec_test_2(BasicTest)&gt;(rec_test_2::$r0)&#45;&gt;rec_test_2 return rec_test_2::$r0 -->
<g id="edge15" class="edge">
<title>rec_test_2 staticinvoke &lt;BasicTest: BasicTest rec_test_2(BasicTest)&gt;(rec_test_2::$r0)&#45;&gt;rec_test_2 return rec_test_2::$r0</title>
<path fill="none" stroke="red" d="M1419.58,-120.08C1385.66,-105.51 1335.2,-84.77 1290,-70 1273.94,-64.75 1256.6,-59.78 1239.86,-55.31"/>
<polygon fill="red" stroke="red" points="1240.99,-51.99 1230.43,-52.84 1239.22,-58.76 1240.99,-51.99"/>
<text text-anchor="start" x="1373" y="-89.2" font-family="Times,serif" font-size="14.00">[] =&gt; {}</text>
</g>
<!-- rec_test_2 return rec_test_2::$r0&#45;&gt;REC_TEST_1 return REC_TEST_1::$r0 -->
<g id="edge23" class="edge">
<title>rec_test_2 return rec_test_2::$r0&#45;&gt;REC_TEST_1 return REC_TEST_1::$r0</title>
<path fill="none" stroke="red" stroke-dasharray="1,5" d="M1057.55,-34C1006.59,-34 943.31,-34 887.97,-34"/>
<polygon fill="red" stroke="red" points="888.17,-30.5 878.17,-34 888.16,-37.5 888.17,-30.5"/>
<text text-anchor="middle" x="967.12" y="-40.2" font-family="Times,serif" font-size="14.00">BasicTest.REC_TEST_1.in03</text>
</g>
<!-- rec_test_2 return rec_test_2::$r0&#45;&gt;rec_test_2 return rec_test_2::$r0 -->
<g id="edge22" class="edge">
<title>rec_test_2 return rec_test_2::$r0&#45;&gt;rec_test_2 return rec_test_2::$r0</title>
<path fill="none" stroke="red" stroke-dasharray="1,5" d="M1250.58,-42.24C1261.24,-40.68 1268.12,-37.93 1268.12,-34 1268.12,-31.67 1265.7,-29.75 1261.5,-28.25"/>
<polygon fill="red" stroke="red" points="1262.58,-24.91 1252.06,-26.1 1261.03,-31.73 1262.58,-24.91"/>
<text text-anchor="middle" x="1338.25" y="-28.95" font-family="Times,serif" font-size="14.00">BasicTest.rec_test_2.in06</text>
</g>
</g>
</svg>
