<?xml version="1.0" encoding="UTF-8" standalone="no"?>
<!DOCTYPE svg PUBLIC "-//W3C//DTD SVG 1.1//EN"
 "http://www.w3.org/Graphics/SVG/1.1/DTD/svg11.dtd">
<!-- Generated by graphviz version 9.0.0 (20230911.1827)
 -->
<!-- Title: G Pages: 1 -->
<svg width="2651pt" height="2640pt"
 viewBox="0.00 0.00 2650.50 2640.00" xmlns="http://www.w3.org/2000/svg" xmlns:xlink="http://www.w3.org/1999/xlink">
<g id="graph0" class="graph" transform="scale(1 1) rotate(0) translate(4 2636)">
<title>G</title>
<polygon fill="white" stroke="none" points="-4,4 -4,-2636 2646.5,-2636 2646.5,4 -4,4"/>
<g id="clust1" class="cluster">
<title>cluster_0</title>
<polygon fill="none" stroke="black" points="8,-8 8,-2624 460,-2624 460,-8 8,-8"/>
</g>
<g id="clust2" class="cluster">
<title>cluster_1</title>
<polygon fill="none" stroke="black" points="824,-927.5 824,-1893 1266,-1893 1266,-927.5 824,-927.5"/>
</g>
<g id="clust3" class="cluster">
<title>cluster_2</title>
<polygon fill="none" stroke="black" points="1274,-284 1274,-979.5 1714,-979.5 1714,-284 1274,-284"/>
</g>
<g id="clust4" class="cluster">
<title>cluster_3</title>
<polygon fill="none" stroke="black" points="2125,-642 2125,-979.5 2560,-979.5 2560,-642 2125,-642"/>
</g>
<!-- test2 test2::r4 = null -->
<g id="node1" class="node">
<title>test2 test2::r4 = null</title>
<polygon fill="none" stroke="black" points="297.12,-2616 170.88,-2616 170.88,-2580 297.12,-2580 297.12,-2616"/>
<text text-anchor="middle" x="234" y="-2592.95" font-family="Times,serif" font-size="14.00">test2 test2::r4 = null</text>
</g>
<!-- test2 test2::$r0 = new PubTest -->
<g id="node2" class="node">
<title>test2 test2::$r0 = new PubTest</title>
<polygon fill="none" stroke="black" points="325.25,-2495 142.75,-2495 142.75,-2459 325.25,-2459 325.25,-2495"/>
<text text-anchor="middle" x="234" y="-2471.95" font-family="Times,serif" font-size="14.00">test2 test2::$r0 = new PubTest</text>
</g>
<!-- test2 test2::r4 = null&#45;&gt;test2 test2::$r0 = new PubTest -->
<g id="edge1" class="edge">
<title>test2 test2::r4 = null&#45;&gt;test2 test2::$r0 = new PubTest</title>
<path fill="none" stroke="black" d="M234,-2579.7C234,-2560.57 234,-2529.46 234,-2506.68"/>
<polygon fill="black" stroke="black" points="237.5,-2506.84 234,-2496.84 230.5,-2506.84 237.5,-2506.84"/>
<text text-anchor="start" x="234" y="-2548.7" font-family="Times,serif" font-size="14.00">[] =&gt; {test2::r4 &#45;&gt; [null], </text>
<text text-anchor="start" x="234" y="-2532.2" font-family="Times,serif" font-size="14.00">}</text>
</g>
<!-- test2 specialinvoke test2::$r0.&lt;PubTest: void &lt;init&gt;()&gt;() -->
<g id="node3" class="node">
<title>test2 specialinvoke test2::$r0.&lt;PubTest: void &lt;init&gt;()&gt;()</title>
<polygon fill="none" stroke="black" points="397.25,-2357.5 70.75,-2357.5 70.75,-2321.5 397.25,-2321.5 397.25,-2357.5"/>
<text text-anchor="middle" x="234" y="-2334.45" font-family="Times,serif" font-size="14.00">test2 specialinvoke test2::$r0.&lt;PubTest: void &lt;init&gt;()&gt;()</text>
</g>
<!-- test2 test2::$r0 = new PubTest&#45;&gt;test2 specialinvoke test2::$r0.&lt;PubTest: void &lt;init&gt;()&gt;() -->
<g id="edge2" class="edge">
<title>test2 test2::$r0 = new PubTest&#45;&gt;test2 specialinvoke test2::$r0.&lt;PubTest: void &lt;init&gt;()&gt;()</title>
<path fill="none" stroke="black" d="M234,-2458.56C234,-2436 234,-2396.38 234,-2369.32"/>
<polygon fill="black" stroke="black" points="237.5,-2369.38 234,-2359.38 230.5,-2369.38 237.5,-2369.38"/>
<text text-anchor="start" x="234" y="-2427.7" font-family="Times,serif" font-size="14.00">[] =&gt; {test2::r4 &#45;&gt; [null], </text>
<text text-anchor="start" x="234" y="-2411.2" font-family="Times,serif" font-size="14.00">test2::$r0 &#45;&gt; [test2.new01], </text>
<text text-anchor="start" x="234" y="-2394.7" font-family="Times,serif" font-size="14.00">}</text>
</g>
<!-- test2 test2::$r1 = staticinvoke &lt;PubTest: PubTest foo2(PubTest)&gt;(test2::$r0) -->
<g id="node4" class="node">
<title>test2 test2::$r1 = staticinvoke &lt;PubTest: PubTest foo2(PubTest)&gt;(test2::$r0)</title>
<polygon fill="none" stroke="black" points="451.62,-2220 16.38,-2220 16.38,-2184 451.62,-2184 451.62,-2220"/>
<text text-anchor="middle" x="234" y="-2196.95" font-family="Times,serif" font-size="14.00">test2 test2::$r1 = staticinvoke &lt;PubTest: PubTest foo2(PubTest)&gt;(test2::$r0)</text>
</g>
<!-- test2 specialinvoke test2::$r0.&lt;PubTest: void &lt;init&gt;()&gt;()&#45;&gt;test2 test2::$r1 = staticinvoke &lt;PubTest: PubTest foo2(PubTest)&gt;(test2::$r0) -->
<g id="edge3" class="edge">
<title>test2 specialinvoke test2::$r0.&lt;PubTest: void &lt;init&gt;()&gt;()&#45;&gt;test2 test2::$r1 = staticinvoke &lt;PubTest: PubTest foo2(PubTest)&gt;(test2::$r0)</title>
<path fill="none" stroke="black" d="M234,-2321.06C234,-2298.5 234,-2258.88 234,-2231.82"/>
<polygon fill="black" stroke="black" points="237.5,-2231.88 234,-2221.88 230.5,-2231.88 237.5,-2231.88"/>
<text text-anchor="start" x="234" y="-2290.2" font-family="Times,serif" font-size="14.00">[] =&gt; {test2::r4 &#45;&gt; [null], </text>
<text text-anchor="start" x="234" y="-2273.7" font-family="Times,serif" font-size="14.00">test2::$r0 &#45;&gt; [test2.new01], </text>
<text text-anchor="start" x="234" y="-2257.2" font-family="Times,serif" font-size="14.00">}</text>
</g>
<!-- test2 test2::$r2 = new PubTest -->
<g id="node5" class="node">
<title>test2 test2::$r2 = new PubTest</title>
<polygon fill="none" stroke="black" points="325.25,-1885 142.75,-1885 142.75,-1849 325.25,-1849 325.25,-1885"/>
<text text-anchor="middle" x="234" y="-1861.95" font-family="Times,serif" font-size="14.00">test2 test2::$r2 = new PubTest</text>
</g>
<!-- test2 test2::$r1 = staticinvoke &lt;PubTest: PubTest foo2(PubTest)&gt;(test2::$r0)&#45;&gt;test2 test2::$r2 = new PubTest -->
<g id="edge4" class="edge">
<title>test2 test2::$r1 = staticinvoke &lt;PubTest: PubTest foo2(PubTest)&gt;(test2::$r0)&#45;&gt;test2 test2::$r2 = new PubTest</title>
<path fill="none" stroke="black" d="M234,-2183.57C234,-2129.39 234,-1963.62 234,-1896.58"/>
<polygon fill="black" stroke="black" points="237.5,-1896.78 234,-1886.78 230.5,-1896.78 237.5,-1896.78"/>
<text text-anchor="start" x="234" y="-2095.2" font-family="Times,serif" font-size="14.00">[] =&gt; {test2::$r3 &#45;&gt; [test2.new04], </text>
<text text-anchor="start" x="234" y="-2078.7" font-family="Times,serif" font-size="14.00">test2::$r2 &#45;&gt; [test2.new04], </text>
<text text-anchor="start" x="234" y="-2062.2" font-family="Times,serif" font-size="14.00">foo2::r0 &#45;&gt; [test2.new04], </text>
<text text-anchor="start" x="234" y="-2045.7" font-family="Times,serif" font-size="14.00">bar3::r0 &#45;&gt; [test2.new04], </text>
<text text-anchor="start" x="234" y="-2029.2" font-family="Times,serif" font-size="14.00">bar2::$r1 &#45;&gt; [test2.new04], </text>
<text text-anchor="start" x="234" y="-2012.7" font-family="Times,serif" font-size="14.00">bar2::r0 &#45;&gt; [test2.new04], </text>
<text text-anchor="start" x="234" y="-1996.2" font-family="Times,serif" font-size="14.00">foo2::$r1 &#45;&gt; [test2.new04]</text>
<text text-anchor="start" x="234" y="-1979.7" font-family="Times,serif" font-size="14.00">}</text>
</g>
<!-- foo2 foo2::r0 := @parameter0: PubTest -->
<g id="node11" class="node">
<title>foo2 foo2::r0 := @parameter0: PubTest</title>
<polygon fill="none" stroke="black" points="1065.75,-1885 832.25,-1885 832.25,-1849 1065.75,-1849 1065.75,-1885"/>
<text text-anchor="middle" x="949" y="-1861.95" font-family="Times,serif" font-size="14.00">foo2 foo2::r0 := @parameter0: PubTest</text>
</g>
<!-- test2 test2::$r1 = staticinvoke &lt;PubTest: PubTest foo2(PubTest)&gt;(test2::$r0)&#45;&gt;foo2 foo2::r0 := @parameter0: PubTest -->
<g id="edge16" class="edge">
<title>test2 test2::$r1 = staticinvoke &lt;PubTest: PubTest foo2(PubTest)&gt;(test2::$r0)&#45;&gt;foo2 foo2::r0 := @parameter0: PubTest</title>
<path fill="none" stroke="black" stroke-dasharray="1,5" d="M368.64,-2183.51C389.83,-2178.93 411.25,-2173.19 431,-2166 628.68,-2094.08 838.17,-1949.15 916.75,-1891.97"/>
<polygon fill="black" stroke="black" points="918.45,-1895.07 924.46,-1886.34 914.32,-1889.42 918.45,-1895.07"/>
<text text-anchor="middle" x="1046" y="-2152.7" font-family="Times,serif" font-size="14.00">PubTest.test2.in03</text>
<text text-anchor="start" x="899" y="-2136.2" font-family="Times,serif" font-size="14.00">[PubTest.test2.in06] =&gt; {test2::$r3 &#45;&gt; [test2.new04], </text>
<text text-anchor="start" x="899" y="-2119.7" font-family="Times,serif" font-size="14.00">test2::$r2 &#45;&gt; [test2.new04], </text>
<text text-anchor="start" x="899" y="-2103.2" font-family="Times,serif" font-size="14.00">foo2::r0 &#45;&gt; [test2.new04], </text>
<text text-anchor="start" x="899" y="-2086.7" font-family="Times,serif" font-size="14.00">bar3::r0 &#45;&gt; [test2.new04], </text>
<text text-anchor="start" x="899" y="-2070.2" font-family="Times,serif" font-size="14.00">bar2::$r1 &#45;&gt; [test2.new04], </text>
<text text-anchor="start" x="899" y="-2053.7" font-family="Times,serif" font-size="14.00">bar2::r0 &#45;&gt; [test2.new04], </text>
<text text-anchor="start" x="899" y="-2037.2" font-family="Times,serif" font-size="14.00">@parameter0: PubTest &#45;&gt; [test2.new04], </text>
<text text-anchor="start" x="899" y="-2020.7" font-family="Times,serif" font-size="14.00">foo2::$r1 &#45;&gt; [test2.new04]</text>
<text text-anchor="start" x="899" y="-2004.2" font-family="Times,serif" font-size="14.00">}</text>
<text text-anchor="start" x="899" y="-1971.7" font-family="Times,serif" font-size="14.00">[PubTest.test2.in03] =&gt; {test2::r4 &#45;&gt; [null], </text>
<text text-anchor="start" x="899" y="-1955.2" font-family="Times,serif" font-size="14.00">test2::$r0 &#45;&gt; [test2.new01], </text>
<text text-anchor="start" x="899" y="-1938.7" font-family="Times,serif" font-size="14.00">@parameter0: PubTest &#45;&gt; [test2.new01], </text>
<text text-anchor="start" x="899" y="-1922.2" font-family="Times,serif" font-size="14.00">}</text>
</g>
<!-- test2 specialinvoke test2::$r2.&lt;PubTest: void &lt;init&gt;()&gt;() -->
<g id="node6" class="node">
<title>test2 specialinvoke test2::$r2.&lt;PubTest: void &lt;init&gt;()&gt;()</title>
<polygon fill="none" stroke="black" points="342.25,-1436.5 15.75,-1436.5 15.75,-1400.5 342.25,-1400.5 342.25,-1436.5"/>
<text text-anchor="middle" x="179" y="-1413.45" font-family="Times,serif" font-size="14.00">test2 specialinvoke test2::$r2.&lt;PubTest: void &lt;init&gt;()&gt;()</text>
</g>
<!-- test2 test2::$r2 = new PubTest&#45;&gt;test2 specialinvoke test2::$r2.&lt;PubTest: void &lt;init&gt;()&gt;() -->
<g id="edge5" class="edge">
<title>test2 test2::$r2 = new PubTest&#45;&gt;test2 specialinvoke test2::$r2.&lt;PubTest: void &lt;init&gt;()&gt;()</title>
<path fill="none" stroke="black" d="M192.93,-1848.54C186.25,-1843.84 180.22,-1838.05 176.25,-1831 104.66,-1703.9 149.02,-1517.76 169.91,-1447.63"/>
<polygon fill="black" stroke="black" points="173.25,-1448.69 172.83,-1438.1 166.55,-1446.63 173.25,-1448.69"/>
<text text-anchor="start" x="177" y="-1760.2" font-family="Times,serif" font-size="14.00">[] =&gt; {test2::$r3 &#45;&gt; [test2.new04], </text>
<text text-anchor="start" x="177" y="-1743.7" font-family="Times,serif" font-size="14.00">test2::$r2 &#45;&gt; [test2.new04], </text>
<text text-anchor="start" x="177" y="-1727.2" font-family="Times,serif" font-size="14.00">foo2::r0 &#45;&gt; [test2.new04], </text>
<text text-anchor="start" x="177" y="-1710.7" font-family="Times,serif" font-size="14.00">bar3::r0 &#45;&gt; [test2.new04], </text>
<text text-anchor="start" x="177" y="-1694.2" font-family="Times,serif" font-size="14.00">bar2::$r1 &#45;&gt; [test2.new04], </text>
<text text-anchor="start" x="177" y="-1677.7" font-family="Times,serif" font-size="14.00">bar2::r0 &#45;&gt; [test2.new04], </text>
<text text-anchor="start" x="177" y="-1661.2" font-family="Times,serif" font-size="14.00">foo2::$r1 &#45;&gt; [test2.new04]</text>
<text text-anchor="start" x="177" y="-1644.7" font-family="Times,serif" font-size="14.00">}</text>
</g>
<!-- test2 test2::$r3 = staticinvoke &lt;PubTest: PubTest foo2(PubTest)&gt;(test2::$r2) -->
<g id="node7" class="node">
<title>test2 test2::$r3 = staticinvoke &lt;PubTest: PubTest foo2(PubTest)&gt;(test2::$r2)</title>
<polygon fill="none" stroke="black" points="451.62,-971.5 16.38,-971.5 16.38,-935.5 451.62,-935.5 451.62,-971.5"/>
<text text-anchor="middle" x="234" y="-948.45" font-family="Times,serif" font-size="14.00">test2 test2::$r3 = staticinvoke &lt;PubTest: PubTest foo2(PubTest)&gt;(test2::$r2)</text>
</g>
<!-- test2 specialinvoke test2::$r2.&lt;PubTest: void &lt;init&gt;()&gt;()&#45;&gt;test2 test2::$r3 = staticinvoke &lt;PubTest: PubTest foo2(PubTest)&gt;(test2::$r2) -->
<g id="edge6" class="edge">
<title>test2 specialinvoke test2::$r2.&lt;PubTest: void &lt;init&gt;()&gt;()&#45;&gt;test2 test2::$r3 = staticinvoke &lt;PubTest: PubTest foo2(PubTest)&gt;(test2::$r2)</title>
<path fill="none" stroke="black" d="M173.18,-1400.09C153.85,-1338.87 97.3,-1129.67 176.25,-989.5 178.36,-985.76 181.05,-982.37 184.11,-979.31"/>
<polygon fill="black" stroke="black" points="186.32,-982.02 191.77,-972.93 181.84,-976.64 186.32,-982.02"/>
<text text-anchor="start" x="177" y="-1189.95" font-family="Times,serif" font-size="14.00">[] =&gt; {test2::$r3 &#45;&gt; [test2.new04], </text>
<text text-anchor="start" x="177" y="-1173.45" font-family="Times,serif" font-size="14.00">test2::$r2 &#45;&gt; [test2.new04], </text>
<text text-anchor="start" x="177" y="-1156.95" font-family="Times,serif" font-size="14.00">foo2::r0 &#45;&gt; [test2.new04], </text>
<text text-anchor="start" x="177" y="-1140.45" font-family="Times,serif" font-size="14.00">bar3::r0 &#45;&gt; [test2.new04], </text>
<text text-anchor="start" x="177" y="-1123.95" font-family="Times,serif" font-size="14.00">bar2::$r1 &#45;&gt; [test2.new04], </text>
<text text-anchor="start" x="177" y="-1107.45" font-family="Times,serif" font-size="14.00">bar2::r0 &#45;&gt; [test2.new04], </text>
<text text-anchor="start" x="177" y="-1090.95" font-family="Times,serif" font-size="14.00">foo2::$r1 &#45;&gt; [test2.new04]</text>
<text text-anchor="start" x="177" y="-1074.45" font-family="Times,serif" font-size="14.00">}</text>
</g>
<!-- test2 if test2::$r1 != test2::$r3 goto return test2::r4 -->
<g id="node8" class="node">
<title>test2 if test2::$r1 != test2::$r3 goto return test2::r4</title>
<polygon fill="none" stroke="black" points="394.62,-686 103.38,-686 103.38,-650 394.62,-650 394.62,-686"/>
<text text-anchor="middle" x="249" y="-662.95" font-family="Times,serif" font-size="14.00">test2 if test2::$r1 != test2::$r3 goto return test2::r4</text>
</g>
<!-- test2 test2::$r3 = staticinvoke &lt;PubTest: PubTest foo2(PubTest)&gt;(test2::$r2)&#45;&gt;test2 if test2::$r1 != test2::$r3 goto return test2::r4 -->
<g id="edge7" class="edge">
<title>test2 test2::$r3 = staticinvoke &lt;PubTest: PubTest foo2(PubTest)&gt;(test2::$r2)&#45;&gt;test2 if test2::$r1 != test2::$r3 goto return test2::r4</title>
<path fill="none" stroke="black" d="M234.92,-935.19C237.42,-887.94 244.38,-756.37 247.48,-697.78"/>
<polygon fill="black" stroke="black" points="250.96,-698.12 248,-687.95 243.97,-697.75 250.96,-698.12"/>
<text text-anchor="start" x="248" y="-871.45" font-family="Times,serif" font-size="14.00">[] =&gt; {test2::$r3 &#45;&gt; [test2.new04], </text>
<text text-anchor="start" x="248" y="-854.95" font-family="Times,serif" font-size="14.00">test2::$r2 &#45;&gt; [test2.new04], </text>
<text text-anchor="start" x="248" y="-838.45" font-family="Times,serif" font-size="14.00">foo2::r0 &#45;&gt; [test2.new04], </text>
<text text-anchor="start" x="248" y="-821.95" font-family="Times,serif" font-size="14.00">bar3::r0 &#45;&gt; [test2.new04], </text>
<text text-anchor="start" x="248" y="-805.45" font-family="Times,serif" font-size="14.00">bar2::$r1 &#45;&gt; [test2.new04], </text>
<text text-anchor="start" x="248" y="-788.95" font-family="Times,serif" font-size="14.00">bar2::r0 &#45;&gt; [test2.new04], </text>
<text text-anchor="start" x="248" y="-772.45" font-family="Times,serif" font-size="14.00">foo2::$r1 &#45;&gt; [test2.new04]</text>
<text text-anchor="start" x="248" y="-755.95" font-family="Times,serif" font-size="14.00">}</text>
</g>
<!-- test2 test2::$r3 = staticinvoke &lt;PubTest: PubTest foo2(PubTest)&gt;(test2::$r2)&#45;&gt;foo2 foo2::r0 := @parameter0: PubTest -->
<g id="edge17" class="edge">
<title>test2 test2::$r3 = staticinvoke &lt;PubTest: PubTest foo2(PubTest)&gt;(test2::$r2)&#45;&gt;foo2 foo2::r0 := @parameter0: PubTest</title>
<path fill="none" stroke="black" stroke-dasharray="1,5" d="M345.82,-971.96C356.02,-976.56 365.64,-982.31 374,-989.5 482.59,-1082.92 461.71,-1148.42 498,-1287 527.82,-1400.86 470.36,-1447.95 529,-1550 615.37,-1700.31 804.85,-1801.55 896.84,-1843.78"/>
<polygon fill="black" stroke="black" points="895.36,-1846.95 905.91,-1847.89 898.25,-1840.58 895.36,-1846.95"/>
<text text-anchor="middle" x="676" y="-1536.7" font-family="Times,serif" font-size="14.00">PubTest.test2.in06</text>
<text text-anchor="start" x="529" y="-1520.2" font-family="Times,serif" font-size="14.00">[PubTest.test2.in06] =&gt; {test2::$r3 &#45;&gt; [test2.new04], </text>
<text text-anchor="start" x="529" y="-1503.7" font-family="Times,serif" font-size="14.00">test2::$r2 &#45;&gt; [test2.new04], </text>
<text text-anchor="start" x="529" y="-1487.2" font-family="Times,serif" font-size="14.00">foo2::r0 &#45;&gt; [test2.new04], </text>
<text text-anchor="start" x="529" y="-1470.7" font-family="Times,serif" font-size="14.00">bar3::r0 &#45;&gt; [test2.new04], </text>
<text text-anchor="start" x="529" y="-1454.2" font-family="Times,serif" font-size="14.00">bar2::$r1 &#45;&gt; [test2.new04], </text>
<text text-anchor="start" x="529" y="-1437.7" font-family="Times,serif" font-size="14.00">bar2::r0 &#45;&gt; [test2.new04], </text>
<text text-anchor="start" x="529" y="-1421.2" font-family="Times,serif" font-size="14.00">@parameter0: PubTest &#45;&gt; [test2.new04], </text>
<text text-anchor="start" x="529" y="-1404.7" font-family="Times,serif" font-size="14.00">foo2::$r1 &#45;&gt; [test2.new04]</text>
<text text-anchor="start" x="529" y="-1388.2" font-family="Times,serif" font-size="14.00">}</text>
<text text-anchor="start" x="529" y="-1355.7" font-family="Times,serif" font-size="14.00">[PubTest.test2.in03] =&gt; {test2::r4 &#45;&gt; [null], </text>
<text text-anchor="start" x="529" y="-1339.2" font-family="Times,serif" font-size="14.00">test2::$r0 &#45;&gt; [test2.new01], </text>
<text text-anchor="start" x="529" y="-1322.7" font-family="Times,serif" font-size="14.00">@parameter0: PubTest &#45;&gt; [test2.new01], </text>
<text text-anchor="start" x="529" y="-1306.2" font-family="Times,serif" font-size="14.00">}</text>
</g>
<!-- test2 test2::r4 = test2::$r1 -->
<g id="node9" class="node">
<title>test2 test2::r4 = test2::$r1</title>
<polygon fill="none" stroke="black" points="200.12,-328 43.88,-328 43.88,-292 200.12,-292 200.12,-328"/>
<text text-anchor="middle" x="122" y="-304.95" font-family="Times,serif" font-size="14.00">test2 test2::r4 = test2::$r1</text>
</g>
<!-- test2 if test2::$r1 != test2::$r3 goto return test2::r4&#45;&gt;test2 test2::r4 = test2::$r1 -->
<g id="edge8" class="edge">
<title>test2 if test2::$r1 != test2::$r3 goto return test2::r4&#45;&gt;test2 test2::r4 = test2::$r1</title>
<path fill="none" stroke="black" d="M242.87,-649.83C222.55,-592.86 157.22,-409.72 132.03,-339.12"/>
<polygon fill="black" stroke="black" points="135.38,-338.08 128.72,-329.84 128.78,-340.44 135.38,-338.08"/>
</g>
<!-- test2 return test2::r4 -->
<g id="node10" class="node">
<title>test2 return test2::r4</title>
<polygon fill="none" stroke="black" points="224.75,-52 99.25,-52 99.25,-16 224.75,-16 224.75,-52"/>
<text text-anchor="middle" x="162" y="-28.95" font-family="Times,serif" font-size="14.00">test2 return test2::r4</text>
</g>
<!-- test2 if test2::$r1 != test2::$r3 goto return test2::r4&#45;&gt;test2 return test2::r4 -->
<g id="edge9" class="edge">
<title>test2 if test2::$r1 != test2::$r3 goto return test2::r4&#45;&gt;test2 return test2::r4</title>
<path fill="none" stroke="black" d="M255.42,-649.59C282.48,-573.01 379.91,-261.48 250,-70 245.94,-64.02 240.68,-59.06 234.75,-54.95"/>
<polygon fill="black" stroke="black" points="236.65,-52 226.26,-49.93 233.09,-58.03 236.65,-52"/>
<text text-anchor="start" x="315" y="-370.7" font-family="Times,serif" font-size="14.00">[] =&gt; {test2::$r3 &#45;&gt; [test2.new04], </text>
<text text-anchor="start" x="315" y="-354.2" font-family="Times,serif" font-size="14.00">test2::$r2 &#45;&gt; [test2.new04], </text>
<text text-anchor="start" x="315" y="-337.7" font-family="Times,serif" font-size="14.00">foo2::r0 &#45;&gt; [test2.new04], </text>
<text text-anchor="start" x="315" y="-321.2" font-family="Times,serif" font-size="14.00">bar3::r0 &#45;&gt; [test2.new04], </text>
<text text-anchor="start" x="315" y="-304.7" font-family="Times,serif" font-size="14.00">bar2::$r1 &#45;&gt; [test2.new04], </text>
<text text-anchor="start" x="315" y="-288.2" font-family="Times,serif" font-size="14.00">bar2::r0 &#45;&gt; [test2.new04], </text>
<text text-anchor="start" x="315" y="-271.7" font-family="Times,serif" font-size="14.00">foo2::$r1 &#45;&gt; [test2.new04]</text>
<text text-anchor="start" x="315" y="-255.2" font-family="Times,serif" font-size="14.00">}</text>
</g>
<!-- test2 test2::r4 = test2::$r1&#45;&gt;test2 return test2::r4 -->
<g id="edge10" class="edge">
<title>test2 test2::r4 = test2::$r1&#45;&gt;test2 return test2::r4</title>
<path fill="none" stroke="black" d="M104.6,-291.71C88.77,-274.65 66.51,-247 57.25,-218 37.23,-155.34 18.81,-123.38 57.25,-70 65,-59.24 76.2,-51.74 88.43,-46.53"/>
<polygon fill="black" stroke="black" points="89.3,-49.93 97.47,-43.18 86.87,-43.37 89.3,-49.93"/>
<text text-anchor="start" x="58" y="-204.7" font-family="Times,serif" font-size="14.00">[] =&gt; {test2::$r3 &#45;&gt; [test2.new04], </text>
<text text-anchor="start" x="58" y="-188.2" font-family="Times,serif" font-size="14.00">test2::$r2 &#45;&gt; [test2.new04], </text>
<text text-anchor="start" x="58" y="-171.7" font-family="Times,serif" font-size="14.00">foo2::r0 &#45;&gt; [test2.new04], </text>
<text text-anchor="start" x="58" y="-155.2" font-family="Times,serif" font-size="14.00">bar3::r0 &#45;&gt; [test2.new04], </text>
<text text-anchor="start" x="58" y="-138.7" font-family="Times,serif" font-size="14.00">bar2::$r1 &#45;&gt; [test2.new04], </text>
<text text-anchor="start" x="58" y="-122.2" font-family="Times,serif" font-size="14.00">bar2::r0 &#45;&gt; [test2.new04], </text>
<text text-anchor="start" x="58" y="-105.7" font-family="Times,serif" font-size="14.00">foo2::$r1 &#45;&gt; [test2.new04]</text>
<text text-anchor="start" x="58" y="-89.2" font-family="Times,serif" font-size="14.00">}</text>
</g>
<!-- foo2 foo2::$r1 = staticinvoke &lt;PubTest: PubTest bar2(PubTest)&gt;(foo2::r0) -->
<g id="node12" class="node">
<title>foo2 foo2::$r1 = staticinvoke &lt;PubTest: PubTest bar2(PubTest)&gt;(foo2::r0)</title>
<polygon fill="none" stroke="black" points="1257.75,-1436.5 832.25,-1436.5 832.25,-1400.5 1257.75,-1400.5 1257.75,-1436.5"/>
<text text-anchor="middle" x="1045" y="-1413.45" font-family="Times,serif" font-size="14.00">foo2 foo2::$r1 = staticinvoke &lt;PubTest: PubTest bar2(PubTest)&gt;(foo2::r0)</text>
</g>
<!-- foo2 foo2::r0 := @parameter0: PubTest&#45;&gt;foo2 foo2::$r1 = staticinvoke &lt;PubTest: PubTest bar2(PubTest)&gt;(foo2::r0) -->
<g id="edge11" class="edge">
<title>foo2 foo2::r0 := @parameter0: PubTest&#45;&gt;foo2 foo2::$r1 = staticinvoke &lt;PubTest: PubTest bar2(PubTest)&gt;(foo2::r0)</title>
<path fill="none" stroke="black" d="M952.7,-1848.77C967.27,-1781.03 1020.68,-1532.59 1038.88,-1447.96"/>
<polygon fill="black" stroke="black" points="1042.26,-1448.91 1040.94,-1438.4 1035.41,-1447.44 1042.26,-1448.91"/>
<text text-anchor="start" x="1011" y="-1817.7" font-family="Times,serif" font-size="14.00">[PubTest.test2.in06] =&gt; {test2::$r3 &#45;&gt; [test2.new04], </text>
<text text-anchor="start" x="1011" y="-1801.2" font-family="Times,serif" font-size="14.00">test2::$r2 &#45;&gt; [test2.new04], </text>
<text text-anchor="start" x="1011" y="-1784.7" font-family="Times,serif" font-size="14.00">foo2::r0 &#45;&gt; [test2.new04], </text>
<text text-anchor="start" x="1011" y="-1768.2" font-family="Times,serif" font-size="14.00">bar3::r0 &#45;&gt; [test2.new04], </text>
<text text-anchor="start" x="1011" y="-1751.7" font-family="Times,serif" font-size="14.00">bar2::$r1 &#45;&gt; [test2.new04], </text>
<text text-anchor="start" x="1011" y="-1735.2" font-family="Times,serif" font-size="14.00">bar2::r0 &#45;&gt; [test2.new04], </text>
<text text-anchor="start" x="1011" y="-1718.7" font-family="Times,serif" font-size="14.00">@parameter0: PubTest &#45;&gt; [test2.new04], </text>
<text text-anchor="start" x="1011" y="-1702.2" font-family="Times,serif" font-size="14.00">foo2::$r1 &#45;&gt; [test2.new04]</text>
<text text-anchor="start" x="1011" y="-1685.7" font-family="Times,serif" font-size="14.00">}</text>
<text text-anchor="start" x="1011" y="-1653.2" font-family="Times,serif" font-size="14.00">[PubTest.test2.in03] =&gt; {test2::r4 &#45;&gt; [null], </text>
<text text-anchor="start" x="1011" y="-1636.7" font-family="Times,serif" font-size="14.00">foo2::r0 &#45;&gt; [test2.new01], </text>
<text text-anchor="start" x="1011" y="-1620.2" font-family="Times,serif" font-size="14.00">test2::$r0 &#45;&gt; [test2.new01], </text>
<text text-anchor="start" x="1011" y="-1603.7" font-family="Times,serif" font-size="14.00">@parameter0: PubTest &#45;&gt; [test2.new01], </text>
<text text-anchor="start" x="1011" y="-1587.2" font-family="Times,serif" font-size="14.00">}</text>
</g>
<!-- foo2 return foo2::$r1 -->
<g id="node13" class="node">
<title>foo2 return foo2::$r1</title>
<polygon fill="none" stroke="black" points="995.38,-971.5 864.62,-971.5 864.62,-935.5 995.38,-935.5 995.38,-971.5"/>
<text text-anchor="middle" x="930" y="-948.45" font-family="Times,serif" font-size="14.00">foo2 return foo2::$r1</text>
</g>
<!-- foo2 foo2::$r1 = staticinvoke &lt;PubTest: PubTest bar2(PubTest)&gt;(foo2::r0)&#45;&gt;foo2 return foo2::$r1 -->
<g id="edge12" class="edge">
<title>foo2 foo2::$r1 = staticinvoke &lt;PubTest: PubTest bar2(PubTest)&gt;(foo2::r0)&#45;&gt;foo2 return foo2::$r1</title>
<path fill="none" stroke="black" d="M1040.7,-1400.19C1023.37,-1330.42 958.53,-1069.37 937,-982.68"/>
<polygon fill="black" stroke="black" points="940.43,-981.98 934.62,-973.11 933.64,-983.66 940.43,-981.98"/>
<text text-anchor="start" x="1007" y="-1247.45" font-family="Times,serif" font-size="14.00">[PubTest.test2.in06] =&gt; {test2::$r2 &#45;&gt; [test2.new04], </text>
<text text-anchor="start" x="1007" y="-1230.95" font-family="Times,serif" font-size="14.00">foo2::r0 &#45;&gt; [test2.new04], </text>
<text text-anchor="start" x="1007" y="-1214.45" font-family="Times,serif" font-size="14.00">bar3::r0 &#45;&gt; [test2.new04], </text>
<text text-anchor="start" x="1007" y="-1197.95" font-family="Times,serif" font-size="14.00">bar2::$r1 &#45;&gt; [test2.new04], </text>
<text text-anchor="start" x="1007" y="-1181.45" font-family="Times,serif" font-size="14.00">bar2::r0 &#45;&gt; [test2.new04], </text>
<text text-anchor="start" x="1007" y="-1164.95" font-family="Times,serif" font-size="14.00">foo2::$r1 &#45;&gt; [test2.new04]</text>
<text text-anchor="start" x="1007" y="-1148.45" font-family="Times,serif" font-size="14.00">}</text>
<text text-anchor="start" x="1007" y="-1115.95" font-family="Times,serif" font-size="14.00">[PubTest.test2.in03] =&gt; {test2::$r2 &#45;&gt; [test2.new04], </text>
<text text-anchor="start" x="1007" y="-1099.45" font-family="Times,serif" font-size="14.00">foo2::r0 &#45;&gt; [test2.new04], </text>
<text text-anchor="start" x="1007" y="-1082.95" font-family="Times,serif" font-size="14.00">bar3::r0 &#45;&gt; [test2.new04], </text>
<text text-anchor="start" x="1007" y="-1066.45" font-family="Times,serif" font-size="14.00">bar2::$r1 &#45;&gt; [test2.new04], </text>
<text text-anchor="start" x="1007" y="-1049.95" font-family="Times,serif" font-size="14.00">bar2::r0 &#45;&gt; [test2.new04], </text>
<text text-anchor="start" x="1007" y="-1033.45" font-family="Times,serif" font-size="14.00">foo2::$r1 &#45;&gt; [test2.new04]</text>
<text text-anchor="start" x="1007" y="-1016.95" font-family="Times,serif" font-size="14.00">}</text>
</g>
<!-- bar2 bar2::r0 := @parameter0: PubTest -->
<g id="node14" class="node">
<title>bar2 bar2::r0 := @parameter0: PubTest</title>
<polygon fill="none" stroke="black" points="1514,-971.5 1282,-971.5 1282,-935.5 1514,-935.5 1514,-971.5"/>
<text text-anchor="middle" x="1398" y="-948.45" font-family="Times,serif" font-size="14.00">bar2 bar2::r0 := @parameter0: PubTest</text>
</g>
<!-- foo2 foo2::$r1 = staticinvoke &lt;PubTest: PubTest bar2(PubTest)&gt;(foo2::r0)&#45;&gt;bar2 bar2::r0 := @parameter0: PubTest -->
<g id="edge18" class="edge">
<title>foo2 foo2::$r1 = staticinvoke &lt;PubTest: PubTest bar2(PubTest)&gt;(foo2::r0)&#45;&gt;bar2 bar2::r0 := @parameter0: PubTest</title>
<path fill="none" stroke="red" stroke-dasharray="1,5" d="M1100.02,-1400.04C1159.14,-1378.5 1251.76,-1336.25 1305,-1269 1374.46,-1181.27 1392.08,-1042.9 1396.52,-983.34"/>
<polygon fill="red" stroke="red" points="1400.01,-983.59 1397.18,-973.38 1393.03,-983.12 1400.01,-983.59"/>
<text text-anchor="middle" x="1596" y="-1255.7" font-family="Times,serif" font-size="14.00">PubTest.foo2.in01</text>
<text text-anchor="start" x="1395" y="-1239.2" font-family="Times,serif" font-size="14.00">[PubTest.test2.in06, PubTest.foo2.in01] =&gt; {test2::$r3 &#45;&gt; [test2.new04], </text>
<text text-anchor="start" x="1395" y="-1222.7" font-family="Times,serif" font-size="14.00">test2::$r2 &#45;&gt; [test2.new04], </text>
<text text-anchor="start" x="1395" y="-1206.2" font-family="Times,serif" font-size="14.00">foo2::r0 &#45;&gt; [test2.new04], </text>
<text text-anchor="start" x="1395" y="-1189.7" font-family="Times,serif" font-size="14.00">bar3::r0 &#45;&gt; [test2.new04], </text>
<text text-anchor="start" x="1395" y="-1173.2" font-family="Times,serif" font-size="14.00">bar2::$r1 &#45;&gt; [test2.new04], </text>
<text text-anchor="start" x="1395" y="-1156.7" font-family="Times,serif" font-size="14.00">bar2::r0 &#45;&gt; [test2.new04], </text>
<text text-anchor="start" x="1395" y="-1140.2" font-family="Times,serif" font-size="14.00">@parameter0: PubTest &#45;&gt; [test2.new04], </text>
<text text-anchor="start" x="1395" y="-1123.7" font-family="Times,serif" font-size="14.00">foo2::$r1 &#45;&gt; [test2.new04]</text>
<text text-anchor="start" x="1395" y="-1107.2" font-family="Times,serif" font-size="14.00">}</text>
<text text-anchor="start" x="1395" y="-1074.7" font-family="Times,serif" font-size="14.00">[PubTest.test2.in03, PubTest.foo2.in01] =&gt; {test2::r4 &#45;&gt; [null], </text>
<text text-anchor="start" x="1395" y="-1058.2" font-family="Times,serif" font-size="14.00">foo2::r0 &#45;&gt; [test2.new01], </text>
<text text-anchor="start" x="1395" y="-1041.7" font-family="Times,serif" font-size="14.00">test2::$r0 &#45;&gt; [test2.new01], </text>
<text text-anchor="start" x="1395" y="-1025.2" font-family="Times,serif" font-size="14.00">@parameter0: PubTest &#45;&gt; [test2.new01], </text>
<text text-anchor="start" x="1395" y="-1008.7" font-family="Times,serif" font-size="14.00">}</text>
</g>
<!-- foo2 return foo2::$r1&#45;&gt;test2 test2::$r2 = new PubTest -->
<g id="edge19" class="edge">
<title>foo2 return foo2::$r1&#45;&gt;test2 test2::$r2 = new PubTest</title>
<path fill="none" stroke="black" stroke-dasharray="1,5" d="M868.87,-971.89C753.06,-1008.46 503.72,-1105.31 396.75,-1287 273.92,-1495.62 521.99,-1643.37 369,-1831 363.72,-1837.48 351.46,-1843.01 336.37,-1847.63"/>
<polygon fill="black" stroke="black" points="335.66,-1844.2 326.99,-1850.28 337.56,-1850.93 335.66,-1844.2"/>
<text text-anchor="middle" x="446.62" y="-1413.45" font-family="Times,serif" font-size="14.00">PubTest.test2.in03</text>
</g>
<!-- foo2 return foo2::$r1&#45;&gt;test2 if test2::$r1 != test2::$r3 goto return test2::r4 -->
<g id="edge20" class="edge">
<title>foo2 return foo2::$r1&#45;&gt;test2 if test2::$r1 != test2::$r3 goto return test2::r4</title>
<path fill="none" stroke="black" stroke-dasharray="1,5" d="M903.12,-935.05C831.68,-889.52 629.91,-766.33 445,-704 427.34,-698.05 408.42,-693.05 389.56,-688.87"/>
<polygon fill="black" stroke="black" points="390.47,-685.48 379.96,-686.82 389,-692.33 390.47,-685.48"/>
<text text-anchor="middle" x="918.62" y="-805.7" font-family="Times,serif" font-size="14.00">PubTest.test2.in06</text>
</g>
<!-- bar2 bar2::$r1 = staticinvoke &lt;PubTest: PubTest bar3(PubTest)&gt;(bar2::r0) -->
<g id="node15" class="node">
<title>bar2 bar2::$r1 = staticinvoke &lt;PubTest: PubTest bar3(PubTest)&gt;(bar2::r0)</title>
<polygon fill="none" stroke="black" points="1705.62,-686 1282.38,-686 1282.38,-650 1705.62,-650 1705.62,-686"/>
<text text-anchor="middle" x="1494" y="-662.95" font-family="Times,serif" font-size="14.00">bar2 bar2::$r1 = staticinvoke &lt;PubTest: PubTest bar3(PubTest)&gt;(bar2::r0)</text>
</g>
<!-- bar2 bar2::r0 := @parameter0: PubTest&#45;&gt;bar2 bar2::$r1 = staticinvoke &lt;PubTest: PubTest bar3(PubTest)&gt;(bar2::r0) -->
<g id="edge13" class="edge">
<title>bar2 bar2::r0 := @parameter0: PubTest&#45;&gt;bar2 bar2::$r1 = staticinvoke &lt;PubTest: PubTest bar3(PubTest)&gt;(bar2::r0)</title>
<path fill="none" stroke="black" d="M1322.67,-935.26C1314.98,-930.67 1308.13,-924.85 1303,-917.5 1248.73,-839.66 1242.25,-776.89 1303,-704 1307.58,-698.5 1315.89,-693.87 1326.57,-689.96"/>
<polygon fill="black" stroke="black" points="1327.61,-693.3 1336.05,-686.9 1325.45,-686.64 1327.61,-693.3"/>
<text text-anchor="start" x="1303" y="-904.2" font-family="Times,serif" font-size="14.00">[PubTest.test2.in06, PubTest.foo2.in01] =&gt; {test2::$r2 &#45;&gt; [test2.new04], </text>
<text text-anchor="start" x="1303" y="-887.7" font-family="Times,serif" font-size="14.00">foo2::r0 &#45;&gt; [test2.new04], </text>
<text text-anchor="start" x="1303" y="-871.2" font-family="Times,serif" font-size="14.00">bar2::r0 &#45;&gt; [test2.new04], </text>
<text text-anchor="start" x="1303" y="-854.7" font-family="Times,serif" font-size="14.00">@parameter0: PubTest &#45;&gt; [test2.new04], </text>
<text text-anchor="start" x="1303" y="-838.2" font-family="Times,serif" font-size="14.00">}</text>
<text text-anchor="start" x="1303" y="-805.7" font-family="Times,serif" font-size="14.00">[PubTest.test2.in03, PubTest.foo2.in01] =&gt; {test2::r4 &#45;&gt; [null], </text>
<text text-anchor="start" x="1303" y="-789.2" font-family="Times,serif" font-size="14.00">foo2::r0 &#45;&gt; [test2.new01], </text>
<text text-anchor="start" x="1303" y="-772.7" font-family="Times,serif" font-size="14.00">test2::$r0 &#45;&gt; [test2.new01], </text>
<text text-anchor="start" x="1303" y="-756.2" font-family="Times,serif" font-size="14.00">bar2::r0 &#45;&gt; [test2.new01], </text>
<text text-anchor="start" x="1303" y="-739.7" font-family="Times,serif" font-size="14.00">@parameter0: PubTest &#45;&gt; [test2.new01], </text>
<text text-anchor="start" x="1303" y="-723.2" font-family="Times,serif" font-size="14.00">}</text>
</g>
<!-- bar2 return bar2::$r1 -->
<g id="node16" class="node">
<title>bar2 return bar2::$r1</title>
<polygon fill="none" stroke="black" points="1411.62,-328 1282.38,-328 1282.38,-292 1411.62,-292 1411.62,-328"/>
<text text-anchor="middle" x="1347" y="-304.95" font-family="Times,serif" font-size="14.00">bar2 return bar2::$r1</text>
</g>
<!-- bar2 bar2::$r1 = staticinvoke &lt;PubTest: PubTest bar3(PubTest)&gt;(bar2::r0)&#45;&gt;bar2 return bar2::$r1 -->
<g id="edge14" class="edge">
<title>bar2 bar2::$r1 = staticinvoke &lt;PubTest: PubTest bar3(PubTest)&gt;(bar2::r0)&#45;&gt;bar2 return bar2::$r1</title>
<path fill="none" stroke="black" d="M1486.91,-649.83C1463.34,-592.74 1387.45,-408.96 1358.43,-338.68"/>
<polygon fill="black" stroke="black" points="1361.82,-337.72 1354.77,-329.81 1355.35,-340.39 1361.82,-337.72"/>
<text text-anchor="start" x="1478" y="-618.7" font-family="Times,serif" font-size="14.00">[PubTest.test2.in06, PubTest.foo2.in01] =&gt; {test2::$r2 &#45;&gt; [test2.new04], </text>
<text text-anchor="start" x="1478" y="-602.2" font-family="Times,serif" font-size="14.00">foo2::r0 &#45;&gt; [test2.new04], </text>
<text text-anchor="start" x="1478" y="-585.7" font-family="Times,serif" font-size="14.00">bar3::r0 &#45;&gt; [test2.new04], </text>
<text text-anchor="start" x="1478" y="-569.2" font-family="Times,serif" font-size="14.00">bar2::$r1 &#45;&gt; [test2.new04], </text>
<text text-anchor="start" x="1478" y="-552.7" font-family="Times,serif" font-size="14.00">bar2::r0 &#45;&gt; [test2.new04], </text>
<text text-anchor="start" x="1478" y="-536.2" font-family="Times,serif" font-size="14.00">}</text>
<text text-anchor="start" x="1478" y="-503.7" font-family="Times,serif" font-size="14.00">[PubTest.test2.in03, PubTest.foo2.in01] =&gt; {test2::$r2 &#45;&gt; [test2.new04], </text>
<text text-anchor="start" x="1478" y="-487.2" font-family="Times,serif" font-size="14.00">foo2::r0 &#45;&gt; [test2.new04], </text>
<text text-anchor="start" x="1478" y="-470.7" font-family="Times,serif" font-size="14.00">bar3::r0 &#45;&gt; [test2.new04], </text>
<text text-anchor="start" x="1478" y="-454.2" font-family="Times,serif" font-size="14.00">bar2::$r1 &#45;&gt; [test2.new04], </text>
<text text-anchor="start" x="1478" y="-437.7" font-family="Times,serif" font-size="14.00">bar2::r0 &#45;&gt; [test2.new04], </text>
<text text-anchor="start" x="1478" y="-421.2" font-family="Times,serif" font-size="14.00">}</text>
</g>
<!-- bar3 bar3::r0 := @parameter0: PubTest -->
<g id="node17" class="node">
<title>bar3 bar3::r0 := @parameter0: PubTest</title>
<polygon fill="none" stroke="black" points="2365,-971.5 2133,-971.5 2133,-935.5 2365,-935.5 2365,-971.5"/>
<text text-anchor="middle" x="2249" y="-948.45" font-family="Times,serif" font-size="14.00">bar3 bar3::r0 := @parameter0: PubTest</text>
</g>
<!-- bar2 bar2::$r1 = staticinvoke &lt;PubTest: PubTest bar3(PubTest)&gt;(bar2::r0)&#45;&gt;bar3 bar3::r0 := @parameter0: PubTest -->
<g id="edge21" class="edge">
<title>bar2 bar2::$r1 = staticinvoke &lt;PubTest: PubTest bar3(PubTest)&gt;(bar2::r0)&#45;&gt;bar3 bar3::r0 := @parameter0: PubTest</title>
<path fill="none" stroke="black" stroke-dasharray="1,5" d="M1657.79,-686.45C1678.64,-691.06 1695.88,-696.82 1705,-704 1785.97,-767.77 1711.83,-857.33 1795.5,-917.5 1821.5,-936.2 1996.67,-945.25 2121.5,-949.38"/>
<polygon fill="black" stroke="black" points="2121.04,-952.87 2131.15,-949.69 2121.27,-945.87 2121.04,-952.87"/>
<text text-anchor="middle" x="1995.25" y="-854.95" font-family="Times,serif" font-size="14.00">PubTest.bar2.in01</text>
<text text-anchor="start" x="1795" y="-838.45" font-family="Times,serif" font-size="14.00">[PubTest.foo2.in01, PubTest.bar2.in01] =&gt; {test2::$r2 &#45;&gt; [test2.new04], </text>
<text text-anchor="start" x="1795" y="-821.95" font-family="Times,serif" font-size="14.00">foo2::r0 &#45;&gt; [test2.new04], </text>
<text text-anchor="start" x="1795" y="-805.45" font-family="Times,serif" font-size="14.00">bar2::r0 &#45;&gt; [test2.new04], </text>
<text text-anchor="start" x="1795" y="-788.95" font-family="Times,serif" font-size="14.00">@parameter0: PubTest &#45;&gt; [test2.new04], </text>
<text text-anchor="start" x="1795" y="-772.45" font-family="Times,serif" font-size="14.00">}</text>
</g>
<!-- bar2 return bar2::$r1&#45;&gt;foo2 return foo2::$r1 -->
<g id="edge22" class="edge">
<title>bar2 return bar2::$r1&#45;&gt;foo2 return foo2::$r1</title>
<path fill="none" stroke="black" stroke-dasharray="1,5" d="M1339.03,-328.3C1303.69,-403.82 1154.92,-710.12 973,-917.5 969.86,-921.08 966.32,-924.59 962.67,-927.91"/>
<polygon fill="black" stroke="black" points="960.51,-925.15 955.18,-934.31 965.06,-930.47 960.51,-925.15"/>
<text text-anchor="middle" x="1218.25" y="-662.95" font-family="Times,serif" font-size="14.00">PubTest.foo2.in01</text>
</g>
<!-- bar3 return bar3::r0 -->
<g id="node18" class="node">
<title>bar3 return bar3::r0</title>
<polygon fill="none" stroke="black" points="2255.25,-686 2132.75,-686 2132.75,-650 2255.25,-650 2255.25,-686"/>
<text text-anchor="middle" x="2194" y="-662.95" font-family="Times,serif" font-size="14.00">bar3 return bar3::r0</text>
</g>
<!-- bar3 bar3::r0 := @parameter0: PubTest&#45;&gt;bar3 return bar3::r0 -->
<g id="edge15" class="edge">
<title>bar3 bar3::r0 := @parameter0: PubTest&#45;&gt;bar3 return bar3::r0</title>
<path fill="none" stroke="black" d="M2245.64,-935.19C2236.46,-887.84 2210.84,-755.82 2199.51,-697.41"/>
<polygon fill="black" stroke="black" points="2203.01,-697.08 2197.67,-687.93 2196.14,-698.41 2203.01,-697.08"/>
<text text-anchor="start" x="2242" y="-854.95" font-family="Times,serif" font-size="14.00">[PubTest.foo2.in01, PubTest.bar2.in01] =&gt; {test2::$r2 &#45;&gt; [test2.new04], </text>
<text text-anchor="start" x="2242" y="-838.45" font-family="Times,serif" font-size="14.00">foo2::r0 &#45;&gt; [test2.new04], </text>
<text text-anchor="start" x="2242" y="-821.95" font-family="Times,serif" font-size="14.00">bar3::r0 &#45;&gt; [test2.new04], </text>
<text text-anchor="start" x="2242" y="-805.45" font-family="Times,serif" font-size="14.00">bar2::r0 &#45;&gt; [test2.new04], </text>
<text text-anchor="start" x="2242" y="-788.95" font-family="Times,serif" font-size="14.00">@parameter0: PubTest &#45;&gt; [test2.new04], </text>
<text text-anchor="start" x="2242" y="-772.45" font-family="Times,serif" font-size="14.00">}</text>
</g>
<!-- bar3 return bar3::r0&#45;&gt;bar2 return bar2::$r1 -->
<g id="edge23" class="edge">
<title>bar3 return bar3::r0&#45;&gt;bar2 return bar2::$r1</title>
<path fill="none" stroke="black" stroke-dasharray="1,5" d="M2180.04,-649.82C2139.84,-601.65 2018.04,-464.71 1884,-402 1731.33,-330.57 1530.91,-314.5 1423.26,-311.32"/>
<polygon fill="black" stroke="black" points="1423.47,-307.82 1413.38,-311.06 1423.28,-314.82 1423.47,-307.82"/>
<text text-anchor="middle" x="2211.88" y="-511.95" font-family="Times,serif" font-size="14.00">PubTest.bar2.in01</text>
</g>
</g>
</svg>
