<?xml version="1.0" encoding="UTF-8" standalone="no"?>
<!DOCTYPE svg PUBLIC "-//W3C//DTD SVG 1.1//EN"
 "http://www.w3.org/Graphics/SVG/1.1/DTD/svg11.dtd">
<!-- Generated by graphviz version 9.0.0 (20230911.1827)
 -->
<!-- Title: G Pages: 1 -->
<svg width="2652pt" height="2706pt"
 viewBox="0.00 0.00 2651.50 2706.00" xmlns="http://www.w3.org/2000/svg" xmlns:xlink="http://www.w3.org/1999/xlink">
<g id="graph0" class="graph" transform="scale(1 1) rotate(0) translate(4 2702)">
<title>G</title>
<polygon fill="white" stroke="none" points="-4,4 -4,-2702 2647.5,-2702 2647.5,4 -4,4"/>
<g id="clust1" class="cluster">
<title>cluster_0</title>
<polygon fill="none" stroke="black" points="8,-8 8,-2690 460,-2690 460,-8 8,-8"/>
</g>
<g id="clust2" class="cluster">
<title>cluster_1</title>
<polygon fill="none" stroke="black" points="824,-993.5 824,-1959 1266,-1959 1266,-993.5 824,-993.5"/>
</g>
<g id="clust3" class="cluster">
<title>cluster_2</title>
<polygon fill="none" stroke="black" points="1274,-284 1274,-1045.5 1714,-1045.5 1714,-284 1274,-284"/>
</g>
<g id="clust4" class="cluster">
<title>cluster_3</title>
<polygon fill="none" stroke="black" points="2125,-642 2125,-1045.5 2560,-1045.5 2560,-642 2125,-642"/>
</g>
<!-- test2 test2::r4 = null -->
<g id="node1" class="node">
<title>test2 test2::r4 = null</title>
<polygon fill="none" stroke="black" points="297.12,-2682 170.88,-2682 170.88,-2646 297.12,-2646 297.12,-2682"/>
<text text-anchor="middle" x="234" y="-2658.95" font-family="Times,serif" font-size="14.00">test2 test2::r4 = null</text>
</g>
<!-- test2 test2::$r0 = new PubTest -->
<g id="node2" class="node">
<title>test2 test2::$r0 = new PubTest</title>
<polygon fill="none" stroke="black" points="325.25,-2561 142.75,-2561 142.75,-2525 325.25,-2525 325.25,-2561"/>
<text text-anchor="middle" x="234" y="-2537.95" font-family="Times,serif" font-size="14.00">test2 test2::$r0 = new PubTest</text>
</g>
<!-- test2 test2::r4 = null&#45;&gt;test2 test2::$r0 = new PubTest -->
<g id="edge1" class="edge">
<title>test2 test2::r4 = null&#45;&gt;test2 test2::$r0 = new PubTest</title>
<path fill="none" stroke="black" d="M234,-2645.7C234,-2626.57 234,-2595.46 234,-2572.68"/>
<polygon fill="black" stroke="black" points="237.5,-2572.84 234,-2562.84 230.5,-2572.84 237.5,-2572.84"/>
<text text-anchor="start" x="234" y="-2614.7" font-family="Times,serif" font-size="14.00">[] =&gt; {test2::r4 &#45;&gt; [null], </text>
<text text-anchor="start" x="234" y="-2598.2" font-family="Times,serif" font-size="14.00">}</text>
</g>
<!-- test2 specialinvoke test2::$r0.&lt;PubTest: void &lt;init&gt;()&gt;() -->
<g id="node3" class="node">
<title>test2 specialinvoke test2::$r0.&lt;PubTest: void &lt;init&gt;()&gt;()</title>
<polygon fill="none" stroke="black" points="397.25,-2423.5 70.75,-2423.5 70.75,-2387.5 397.25,-2387.5 397.25,-2423.5"/>
<text text-anchor="middle" x="234" y="-2400.45" font-family="Times,serif" font-size="14.00">test2 specialinvoke test2::$r0.&lt;PubTest: void &lt;init&gt;()&gt;()</text>
</g>
<!-- test2 test2::$r0 = new PubTest&#45;&gt;test2 specialinvoke test2::$r0.&lt;PubTest: void &lt;init&gt;()&gt;() -->
<g id="edge2" class="edge">
<title>test2 test2::$r0 = new PubTest&#45;&gt;test2 specialinvoke test2::$r0.&lt;PubTest: void &lt;init&gt;()&gt;()</title>
<path fill="none" stroke="black" d="M234,-2524.56C234,-2502 234,-2462.38 234,-2435.32"/>
<polygon fill="black" stroke="black" points="237.5,-2435.38 234,-2425.38 230.5,-2435.38 237.5,-2435.38"/>
<text text-anchor="start" x="234" y="-2493.7" font-family="Times,serif" font-size="14.00">[] =&gt; {test2::r4 &#45;&gt; [null], </text>
<text text-anchor="start" x="234" y="-2477.2" font-family="Times,serif" font-size="14.00">test2::$r0 &#45;&gt; [test2.new01], </text>
<text text-anchor="start" x="234" y="-2460.7" font-family="Times,serif" font-size="14.00">}</text>
</g>
<!-- test2 test2::$r1 = staticinvoke &lt;PubTest: PubTest foo2(PubTest)&gt;(test2::$r0) -->
<g id="node4" class="node">
<title>test2 test2::$r1 = staticinvoke &lt;PubTest: PubTest foo2(PubTest)&gt;(test2::$r0)</title>
<polygon fill="none" stroke="black" points="451.62,-2286 16.38,-2286 16.38,-2250 451.62,-2250 451.62,-2286"/>
<text text-anchor="middle" x="234" y="-2262.95" font-family="Times,serif" font-size="14.00">test2 test2::$r1 = staticinvoke &lt;PubTest: PubTest foo2(PubTest)&gt;(test2::$r0)</text>
</g>
<!-- test2 specialinvoke test2::$r0.&lt;PubTest: void &lt;init&gt;()&gt;()&#45;&gt;test2 test2::$r1 = staticinvoke &lt;PubTest: PubTest foo2(PubTest)&gt;(test2::$r0) -->
<g id="edge3" class="edge">
<title>test2 specialinvoke test2::$r0.&lt;PubTest: void &lt;init&gt;()&gt;()&#45;&gt;test2 test2::$r1 = staticinvoke &lt;PubTest: PubTest foo2(PubTest)&gt;(test2::$r0)</title>
<path fill="none" stroke="black" d="M234,-2387.06C234,-2364.5 234,-2324.88 234,-2297.82"/>
<polygon fill="black" stroke="black" points="237.5,-2297.88 234,-2287.88 230.5,-2297.88 237.5,-2297.88"/>
<text text-anchor="start" x="234" y="-2356.2" font-family="Times,serif" font-size="14.00">[] =&gt; {test2::r4 &#45;&gt; [null], </text>
<text text-anchor="start" x="234" y="-2339.7" font-family="Times,serif" font-size="14.00">test2::$r0 &#45;&gt; [test2.new01], </text>
<text text-anchor="start" x="234" y="-2323.2" font-family="Times,serif" font-size="14.00">}</text>
</g>
<!-- test2 test2::$r2 = new PubTest -->
<g id="node5" class="node">
<title>test2 test2::$r2 = new PubTest</title>
<polygon fill="none" stroke="black" points="325.25,-1951 142.75,-1951 142.75,-1915 325.25,-1915 325.25,-1951"/>
<text text-anchor="middle" x="234" y="-1927.95" font-family="Times,serif" font-size="14.00">test2 test2::$r2 = new PubTest</text>
</g>
<!-- test2 test2::$r1 = staticinvoke &lt;PubTest: PubTest foo2(PubTest)&gt;(test2::$r0)&#45;&gt;test2 test2::$r2 = new PubTest -->
<g id="edge4" class="edge">
<title>test2 test2::$r1 = staticinvoke &lt;PubTest: PubTest foo2(PubTest)&gt;(test2::$r0)&#45;&gt;test2 test2::$r2 = new PubTest</title>
<path fill="none" stroke="black" d="M234,-2249.57C234,-2195.39 234,-2029.62 234,-1962.58"/>
<polygon fill="black" stroke="black" points="237.5,-1962.78 234,-1952.78 230.5,-1962.78 237.5,-1962.78"/>
<text text-anchor="start" x="234" y="-2161.2" font-family="Times,serif" font-size="14.00">[] =&gt; {test2::$r3 &#45;&gt; [test2.new04], </text>
<text text-anchor="start" x="234" y="-2144.7" font-family="Times,serif" font-size="14.00">test2::$r2 &#45;&gt; [test2.new04], </text>
<text text-anchor="start" x="234" y="-2128.2" font-family="Times,serif" font-size="14.00">foo2::r0 &#45;&gt; [test2.new04], </text>
<text text-anchor="start" x="234" y="-2111.7" font-family="Times,serif" font-size="14.00">bar3::r0 &#45;&gt; [test2.new04], </text>
<text text-anchor="start" x="234" y="-2095.2" font-family="Times,serif" font-size="14.00">bar2::$r1 &#45;&gt; [test2.new04], </text>
<text text-anchor="start" x="234" y="-2078.7" font-family="Times,serif" font-size="14.00">bar2::r0 &#45;&gt; [test2.new04], </text>
<text text-anchor="start" x="234" y="-2062.2" font-family="Times,serif" font-size="14.00">foo2::$r1 &#45;&gt; [test2.new04]</text>
<text text-anchor="start" x="234" y="-2045.7" font-family="Times,serif" font-size="14.00">}</text>
</g>
<!-- foo2 foo2::r0 := @parameter0: PubTest -->
<g id="node11" class="node">
<title>foo2 foo2::r0 := @parameter0: PubTest</title>
<polygon fill="none" stroke="black" points="1065.75,-1951 832.25,-1951 832.25,-1915 1065.75,-1915 1065.75,-1951"/>
<text text-anchor="middle" x="949" y="-1927.95" font-family="Times,serif" font-size="14.00">foo2 foo2::r0 := @parameter0: PubTest</text>
</g>
<!-- test2 test2::$r1 = staticinvoke &lt;PubTest: PubTest foo2(PubTest)&gt;(test2::$r0)&#45;&gt;foo2 foo2::r0 := @parameter0: PubTest -->
<g id="edge16" class="edge">
<title>test2 test2::$r1 = staticinvoke &lt;PubTest: PubTest foo2(PubTest)&gt;(test2::$r0)&#45;&gt;foo2 foo2::r0 := @parameter0: PubTest</title>
<path fill="none" stroke="black" stroke-dasharray="1,5" d="M368.64,-2249.51C389.83,-2244.93 411.25,-2239.19 431,-2232 628.68,-2160.08 838.17,-2015.15 916.75,-1957.97"/>
<polygon fill="black" stroke="black" points="918.45,-1961.07 924.46,-1952.34 914.32,-1955.42 918.45,-1961.07"/>
<text text-anchor="middle" x="1046" y="-2218.7" font-family="Times,serif" font-size="14.00">PubTest.test2.in03</text>
<text text-anchor="start" x="899" y="-2202.2" font-family="Times,serif" font-size="14.00">[PubTest.test2.in06] =&gt; {test2::$r3 &#45;&gt; [test2.new04], </text>
<text text-anchor="start" x="899" y="-2185.7" font-family="Times,serif" font-size="14.00">test2::$r2 &#45;&gt; [test2.new04], </text>
<text text-anchor="start" x="899" y="-2169.2" font-family="Times,serif" font-size="14.00">foo2::r0 &#45;&gt; [test2.new04], </text>
<text text-anchor="start" x="899" y="-2152.7" font-family="Times,serif" font-size="14.00">bar3::r0 &#45;&gt; [test2.new04], </text>
<text text-anchor="start" x="899" y="-2136.2" font-family="Times,serif" font-size="14.00">bar2::$r1 &#45;&gt; [test2.new04], </text>
<text text-anchor="start" x="899" y="-2119.7" font-family="Times,serif" font-size="14.00">bar2::r0 &#45;&gt; [test2.new04], </text>
<text text-anchor="start" x="899" y="-2103.2" font-family="Times,serif" font-size="14.00">@parameter0: PubTest &#45;&gt; [test2.new04], </text>
<text text-anchor="start" x="899" y="-2086.7" font-family="Times,serif" font-size="14.00">foo2::$r1 &#45;&gt; [test2.new04]</text>
<text text-anchor="start" x="899" y="-2070.2" font-family="Times,serif" font-size="14.00">}</text>
<text text-anchor="start" x="899" y="-2037.7" font-family="Times,serif" font-size="14.00">[PubTest.test2.in03] =&gt; {test2::r4 &#45;&gt; [null], </text>
<text text-anchor="start" x="899" y="-2021.2" font-family="Times,serif" font-size="14.00">test2::$r0 &#45;&gt; [test2.new01], </text>
<text text-anchor="start" x="899" y="-2004.7" font-family="Times,serif" font-size="14.00">@parameter0: PubTest &#45;&gt; [test2.new01], </text>
<text text-anchor="start" x="899" y="-1988.2" font-family="Times,serif" font-size="14.00">}</text>
</g>
<!-- test2 specialinvoke test2::$r2.&lt;PubTest: void &lt;init&gt;()&gt;() -->
<g id="node6" class="node">
<title>test2 specialinvoke test2::$r2.&lt;PubTest: void &lt;init&gt;()&gt;()</title>
<polygon fill="none" stroke="black" points="342.25,-1502.5 15.75,-1502.5 15.75,-1466.5 342.25,-1466.5 342.25,-1502.5"/>
<text text-anchor="middle" x="179" y="-1479.45" font-family="Times,serif" font-size="14.00">test2 specialinvoke test2::$r2.&lt;PubTest: void &lt;init&gt;()&gt;()</text>
</g>
<!-- test2 test2::$r2 = new PubTest&#45;&gt;test2 specialinvoke test2::$r2.&lt;PubTest: void &lt;init&gt;()&gt;() -->
<g id="edge5" class="edge">
<title>test2 test2::$r2 = new PubTest&#45;&gt;test2 specialinvoke test2::$r2.&lt;PubTest: void &lt;init&gt;()&gt;()</title>
<path fill="none" stroke="black" d="M192.93,-1914.54C186.25,-1909.84 180.22,-1904.05 176.25,-1897 104.66,-1769.9 149.02,-1583.76 169.91,-1513.63"/>
<polygon fill="black" stroke="black" points="173.25,-1514.69 172.83,-1504.1 166.55,-1512.63 173.25,-1514.69"/>
<text text-anchor="start" x="177" y="-1826.2" font-family="Times,serif" font-size="14.00">[] =&gt; {test2::$r3 &#45;&gt; [test2.new04], </text>
<text text-anchor="start" x="177" y="-1809.7" font-family="Times,serif" font-size="14.00">test2::$r2 &#45;&gt; [test2.new04], </text>
<text text-anchor="start" x="177" y="-1793.2" font-family="Times,serif" font-size="14.00">foo2::r0 &#45;&gt; [test2.new04], </text>
<text text-anchor="start" x="177" y="-1776.7" font-family="Times,serif" font-size="14.00">bar3::r0 &#45;&gt; [test2.new04], </text>
<text text-anchor="start" x="177" y="-1760.2" font-family="Times,serif" font-size="14.00">bar2::$r1 &#45;&gt; [test2.new04], </text>
<text text-anchor="start" x="177" y="-1743.7" font-family="Times,serif" font-size="14.00">bar2::r0 &#45;&gt; [test2.new04], </text>
<text text-anchor="start" x="177" y="-1727.2" font-family="Times,serif" font-size="14.00">foo2::$r1 &#45;&gt; [test2.new04]</text>
<text text-anchor="start" x="177" y="-1710.7" font-family="Times,serif" font-size="14.00">}</text>
</g>
<!-- test2 test2::$r3 = staticinvoke &lt;PubTest: PubTest foo2(PubTest)&gt;(test2::$r2) -->
<g id="node7" class="node">
<title>test2 test2::$r3 = staticinvoke &lt;PubTest: PubTest foo2(PubTest)&gt;(test2::$r2)</title>
<polygon fill="none" stroke="black" points="451.62,-1037.5 16.38,-1037.5 16.38,-1001.5 451.62,-1001.5 451.62,-1037.5"/>
<text text-anchor="middle" x="234" y="-1014.45" font-family="Times,serif" font-size="14.00">test2 test2::$r3 = staticinvoke &lt;PubTest: PubTest foo2(PubTest)&gt;(test2::$r2)</text>
</g>
<!-- test2 specialinvoke test2::$r2.&lt;PubTest: void &lt;init&gt;()&gt;()&#45;&gt;test2 test2::$r3 = staticinvoke &lt;PubTest: PubTest foo2(PubTest)&gt;(test2::$r2) -->
<g id="edge6" class="edge">
<title>test2 specialinvoke test2::$r2.&lt;PubTest: void &lt;init&gt;()&gt;()&#45;&gt;test2 test2::$r3 = staticinvoke &lt;PubTest: PubTest foo2(PubTest)&gt;(test2::$r2)</title>
<path fill="none" stroke="black" d="M173.18,-1466.09C153.85,-1404.87 97.3,-1195.67 176.25,-1055.5 178.36,-1051.76 181.05,-1048.37 184.11,-1045.31"/>
<polygon fill="black" stroke="black" points="186.32,-1048.02 191.77,-1038.93 181.84,-1042.64 186.32,-1048.02"/>
<text text-anchor="start" x="177" y="-1255.95" font-family="Times,serif" font-size="14.00">[] =&gt; {test2::$r3 &#45;&gt; [test2.new04], </text>
<text text-anchor="start" x="177" y="-1239.45" font-family="Times,serif" font-size="14.00">test2::$r2 &#45;&gt; [test2.new04], </text>
<text text-anchor="start" x="177" y="-1222.95" font-family="Times,serif" font-size="14.00">foo2::r0 &#45;&gt; [test2.new04], </text>
<text text-anchor="start" x="177" y="-1206.45" font-family="Times,serif" font-size="14.00">bar3::r0 &#45;&gt; [test2.new04], </text>
<text text-anchor="start" x="177" y="-1189.95" font-family="Times,serif" font-size="14.00">bar2::$r1 &#45;&gt; [test2.new04], </text>
<text text-anchor="start" x="177" y="-1173.45" font-family="Times,serif" font-size="14.00">bar2::r0 &#45;&gt; [test2.new04], </text>
<text text-anchor="start" x="177" y="-1156.95" font-family="Times,serif" font-size="14.00">foo2::$r1 &#45;&gt; [test2.new04]</text>
<text text-anchor="start" x="177" y="-1140.45" font-family="Times,serif" font-size="14.00">}</text>
</g>
<!-- test2 if test2::$r1 != test2::$r3 goto return test2::r4 -->
<g id="node8" class="node">
<title>test2 if test2::$r1 != test2::$r3 goto return test2::r4</title>
<polygon fill="none" stroke="black" points="394.62,-686 103.38,-686 103.38,-650 394.62,-650 394.62,-686"/>
<text text-anchor="middle" x="249" y="-662.95" font-family="Times,serif" font-size="14.00">test2 if test2::$r1 != test2::$r3 goto return test2::r4</text>
</g>
<!-- test2 test2::$r3 = staticinvoke &lt;PubTest: PubTest foo2(PubTest)&gt;(test2::$r2)&#45;&gt;test2 if test2::$r1 != test2::$r3 goto return test2::r4 -->
<g id="edge7" class="edge">
<title>test2 test2::$r3 = staticinvoke &lt;PubTest: PubTest foo2(PubTest)&gt;(test2::$r2)&#45;&gt;test2 if test2::$r1 != test2::$r3 goto return test2::r4</title>
<path fill="none" stroke="black" d="M234.74,-1001.17C237.15,-945.04 244.76,-767.82 247.76,-697.83"/>
<polygon fill="black" stroke="black" points="251.25,-698.09 248.19,-687.95 244.26,-697.79 251.25,-698.09"/>
<text text-anchor="start" x="248" y="-904.45" font-family="Times,serif" font-size="14.00">[] =&gt; {test2::$r3 &#45;&gt; [test2.new04], </text>
<text text-anchor="start" x="248" y="-887.95" font-family="Times,serif" font-size="14.00">test2::$r2 &#45;&gt; [test2.new04], </text>
<text text-anchor="start" x="248" y="-871.45" font-family="Times,serif" font-size="14.00">foo2::r0 &#45;&gt; [test2.new04], </text>
<text text-anchor="start" x="248" y="-854.95" font-family="Times,serif" font-size="14.00">bar3::r0 &#45;&gt; [test2.new04], </text>
<text text-anchor="start" x="248" y="-838.45" font-family="Times,serif" font-size="14.00">bar2::$r1 &#45;&gt; [test2.new04], </text>
<text text-anchor="start" x="248" y="-821.95" font-family="Times,serif" font-size="14.00">bar2::r0 &#45;&gt; [test2.new04], </text>
<text text-anchor="start" x="248" y="-805.45" font-family="Times,serif" font-size="14.00">foo2::$r1 &#45;&gt; [test2.new04]</text>
<text text-anchor="start" x="248" y="-788.95" font-family="Times,serif" font-size="14.00">}</text>
</g>
<!-- test2 test2::$r3 = staticinvoke &lt;PubTest: PubTest foo2(PubTest)&gt;(test2::$r2)&#45;&gt;foo2 foo2::r0 := @parameter0: PubTest -->
<g id="edge17" class="edge">
<title>test2 test2::$r3 = staticinvoke &lt;PubTest: PubTest foo2(PubTest)&gt;(test2::$r2)&#45;&gt;foo2 foo2::r0 := @parameter0: PubTest</title>
<path fill="none" stroke="black" stroke-dasharray="1,5" d="M345.82,-1037.96C356.02,-1042.56 365.64,-1048.31 374,-1055.5 482.59,-1148.92 461.71,-1214.42 498,-1353 527.82,-1466.86 470.36,-1513.95 529,-1616 615.37,-1766.31 804.85,-1867.55 896.84,-1909.78"/>
<polygon fill="black" stroke="black" points="895.36,-1912.95 905.91,-1913.89 898.25,-1906.58 895.36,-1912.95"/>
<text text-anchor="middle" x="676" y="-1602.7" font-family="Times,serif" font-size="14.00">PubTest.test2.in06</text>
<text text-anchor="start" x="529" y="-1586.2" font-family="Times,serif" font-size="14.00">[PubTest.test2.in06] =&gt; {test2::$r3 &#45;&gt; [test2.new04], </text>
<text text-anchor="start" x="529" y="-1569.7" font-family="Times,serif" font-size="14.00">test2::$r2 &#45;&gt; [test2.new04], </text>
<text text-anchor="start" x="529" y="-1553.2" font-family="Times,serif" font-size="14.00">foo2::r0 &#45;&gt; [test2.new04], </text>
<text text-anchor="start" x="529" y="-1536.7" font-family="Times,serif" font-size="14.00">bar3::r0 &#45;&gt; [test2.new04], </text>
<text text-anchor="start" x="529" y="-1520.2" font-family="Times,serif" font-size="14.00">bar2::$r1 &#45;&gt; [test2.new04], </text>
<text text-anchor="start" x="529" y="-1503.7" font-family="Times,serif" font-size="14.00">bar2::r0 &#45;&gt; [test2.new04], </text>
<text text-anchor="start" x="529" y="-1487.2" font-family="Times,serif" font-size="14.00">@parameter0: PubTest &#45;&gt; [test2.new04], </text>
<text text-anchor="start" x="529" y="-1470.7" font-family="Times,serif" font-size="14.00">foo2::$r1 &#45;&gt; [test2.new04]</text>
<text text-anchor="start" x="529" y="-1454.2" font-family="Times,serif" font-size="14.00">}</text>
<text text-anchor="start" x="529" y="-1421.7" font-family="Times,serif" font-size="14.00">[PubTest.test2.in03] =&gt; {test2::r4 &#45;&gt; [null], </text>
<text text-anchor="start" x="529" y="-1405.2" font-family="Times,serif" font-size="14.00">test2::$r0 &#45;&gt; [test2.new01], </text>
<text text-anchor="start" x="529" y="-1388.7" font-family="Times,serif" font-size="14.00">@parameter0: PubTest &#45;&gt; [test2.new01], </text>
<text text-anchor="start" x="529" y="-1372.2" font-family="Times,serif" font-size="14.00">}</text>
</g>
<!-- test2 test2::r4 = test2::$r1 -->
<g id="node9" class="node">
<title>test2 test2::r4 = test2::$r1</title>
<polygon fill="none" stroke="black" points="200.12,-328 43.88,-328 43.88,-292 200.12,-292 200.12,-328"/>
<text text-anchor="middle" x="122" y="-304.95" font-family="Times,serif" font-size="14.00">test2 test2::r4 = test2::$r1</text>
</g>
<!-- test2 if test2::$r1 != test2::$r3 goto return test2::r4&#45;&gt;test2 test2::r4 = test2::$r1 -->
<g id="edge8" class="edge">
<title>test2 if test2::$r1 != test2::$r3 goto return test2::r4&#45;&gt;test2 test2::r4 = test2::$r1</title>
<path fill="none" stroke="black" d="M242.87,-649.83C222.55,-592.86 157.22,-409.72 132.03,-339.12"/>
<polygon fill="black" stroke="black" points="135.38,-338.08 128.72,-329.84 128.78,-340.44 135.38,-338.08"/>
</g>
<!-- test2 return test2::r4 -->
<g id="node10" class="node">
<title>test2 return test2::r4</title>
<polygon fill="none" stroke="black" points="224.75,-52 99.25,-52 99.25,-16 224.75,-16 224.75,-52"/>
<text text-anchor="middle" x="162" y="-28.95" font-family="Times,serif" font-size="14.00">test2 return test2::r4</text>
</g>
<!-- test2 if test2::$r1 != test2::$r3 goto return test2::r4&#45;&gt;test2 return test2::r4 -->
<g id="edge9" class="edge">
<title>test2 if test2::$r1 != test2::$r3 goto return test2::r4&#45;&gt;test2 return test2::r4</title>
<path fill="none" stroke="black" d="M255.42,-649.59C282.48,-573.01 379.91,-261.48 250,-70 245.94,-64.02 240.68,-59.06 234.75,-54.95"/>
<polygon fill="black" stroke="black" points="236.65,-52 226.26,-49.93 233.09,-58.03 236.65,-52"/>
<text text-anchor="start" x="315" y="-370.7" font-family="Times,serif" font-size="14.00">[] =&gt; {test2::$r3 &#45;&gt; [test2.new04], </text>
<text text-anchor="start" x="315" y="-354.2" font-family="Times,serif" font-size="14.00">test2::$r2 &#45;&gt; [test2.new04], </text>
<text text-anchor="start" x="315" y="-337.7" font-family="Times,serif" font-size="14.00">foo2::r0 &#45;&gt; [test2.new04], </text>
<text text-anchor="start" x="315" y="-321.2" font-family="Times,serif" font-size="14.00">bar3::r0 &#45;&gt; [test2.new04], </text>
<text text-anchor="start" x="315" y="-304.7" font-family="Times,serif" font-size="14.00">bar2::$r1 &#45;&gt; [test2.new04], </text>
<text text-anchor="start" x="315" y="-288.2" font-family="Times,serif" font-size="14.00">bar2::r0 &#45;&gt; [test2.new04], </text>
<text text-anchor="start" x="315" y="-271.7" font-family="Times,serif" font-size="14.00">foo2::$r1 &#45;&gt; [test2.new04]</text>
<text text-anchor="start" x="315" y="-255.2" font-family="Times,serif" font-size="14.00">}</text>
</g>
<!-- test2 test2::r4 = test2::$r1&#45;&gt;test2 return test2::r4 -->
<g id="edge10" class="edge">
<title>test2 test2::r4 = test2::$r1&#45;&gt;test2 return test2::r4</title>
<path fill="none" stroke="black" d="M104.6,-291.71C88.77,-274.65 66.51,-247 57.25,-218 37.23,-155.34 18.81,-123.38 57.25,-70 65,-59.24 76.2,-51.74 88.43,-46.53"/>
<polygon fill="black" stroke="black" points="89.3,-49.93 97.47,-43.18 86.87,-43.37 89.3,-49.93"/>
<text text-anchor="start" x="58" y="-204.7" font-family="Times,serif" font-size="14.00">[] =&gt; {test2::$r3 &#45;&gt; [test2.new04], </text>
<text text-anchor="start" x="58" y="-188.2" font-family="Times,serif" font-size="14.00">test2::$r2 &#45;&gt; [test2.new04], </text>
<text text-anchor="start" x="58" y="-171.7" font-family="Times,serif" font-size="14.00">foo2::r0 &#45;&gt; [test2.new04], </text>
<text text-anchor="start" x="58" y="-155.2" font-family="Times,serif" font-size="14.00">bar3::r0 &#45;&gt; [test2.new04], </text>
<text text-anchor="start" x="58" y="-138.7" font-family="Times,serif" font-size="14.00">bar2::$r1 &#45;&gt; [test2.new04], </text>
<text text-anchor="start" x="58" y="-122.2" font-family="Times,serif" font-size="14.00">bar2::r0 &#45;&gt; [test2.new04], </text>
<text text-anchor="start" x="58" y="-105.7" font-family="Times,serif" font-size="14.00">foo2::$r1 &#45;&gt; [test2.new04]</text>
<text text-anchor="start" x="58" y="-89.2" font-family="Times,serif" font-size="14.00">}</text>
</g>
<!-- foo2 foo2::$r1 = staticinvoke &lt;PubTest: PubTest bar2(PubTest)&gt;(foo2::r0) -->
<g id="node12" class="node">
<title>foo2 foo2::$r1 = staticinvoke &lt;PubTest: PubTest bar2(PubTest)&gt;(foo2::r0)</title>
<polygon fill="none" stroke="black" points="1257.75,-1502.5 832.25,-1502.5 832.25,-1466.5 1257.75,-1466.5 1257.75,-1502.5"/>
<text text-anchor="middle" x="1045" y="-1479.45" font-family="Times,serif" font-size="14.00">foo2 foo2::$r1 = staticinvoke &lt;PubTest: PubTest bar2(PubTest)&gt;(foo2::r0)</text>
</g>
<!-- foo2 foo2::r0 := @parameter0: PubTest&#45;&gt;foo2 foo2::$r1 = staticinvoke &lt;PubTest: PubTest bar2(PubTest)&gt;(foo2::r0) -->
<g id="edge11" class="edge">
<title>foo2 foo2::r0 := @parameter0: PubTest&#45;&gt;foo2 foo2::$r1 = staticinvoke &lt;PubTest: PubTest bar2(PubTest)&gt;(foo2::r0)</title>
<path fill="none" stroke="black" d="M952.7,-1914.77C967.27,-1847.03 1020.68,-1598.59 1038.88,-1513.96"/>
<polygon fill="black" stroke="black" points="1042.26,-1514.91 1040.94,-1504.4 1035.41,-1513.44 1042.26,-1514.91"/>
<text text-anchor="start" x="1011" y="-1883.7" font-family="Times,serif" font-size="14.00">[PubTest.test2.in06] =&gt; {test2::$r3 &#45;&gt; [test2.new04], </text>
<text text-anchor="start" x="1011" y="-1867.2" font-family="Times,serif" font-size="14.00">test2::$r2 &#45;&gt; [test2.new04], </text>
<text text-anchor="start" x="1011" y="-1850.7" font-family="Times,serif" font-size="14.00">foo2::r0 &#45;&gt; [test2.new04], </text>
<text text-anchor="start" x="1011" y="-1834.2" font-family="Times,serif" font-size="14.00">bar3::r0 &#45;&gt; [test2.new04], </text>
<text text-anchor="start" x="1011" y="-1817.7" font-family="Times,serif" font-size="14.00">bar2::$r1 &#45;&gt; [test2.new04], </text>
<text text-anchor="start" x="1011" y="-1801.2" font-family="Times,serif" font-size="14.00">bar2::r0 &#45;&gt; [test2.new04], </text>
<text text-anchor="start" x="1011" y="-1784.7" font-family="Times,serif" font-size="14.00">@parameter0: PubTest &#45;&gt; [test2.new04], </text>
<text text-anchor="start" x="1011" y="-1768.2" font-family="Times,serif" font-size="14.00">foo2::$r1 &#45;&gt; [test2.new04]</text>
<text text-anchor="start" x="1011" y="-1751.7" font-family="Times,serif" font-size="14.00">}</text>
<text text-anchor="start" x="1011" y="-1719.2" font-family="Times,serif" font-size="14.00">[PubTest.test2.in03] =&gt; {test2::r4 &#45;&gt; [null], </text>
<text text-anchor="start" x="1011" y="-1702.7" font-family="Times,serif" font-size="14.00">foo2::r0 &#45;&gt; [test2.new01], </text>
<text text-anchor="start" x="1011" y="-1686.2" font-family="Times,serif" font-size="14.00">test2::$r0 &#45;&gt; [test2.new01], </text>
<text text-anchor="start" x="1011" y="-1669.7" font-family="Times,serif" font-size="14.00">@parameter0: PubTest &#45;&gt; [test2.new01], </text>
<text text-anchor="start" x="1011" y="-1653.2" font-family="Times,serif" font-size="14.00">}</text>
</g>
<!-- foo2 return foo2::$r1 -->
<g id="node13" class="node">
<title>foo2 return foo2::$r1</title>
<polygon fill="none" stroke="black" points="995.38,-1037.5 864.62,-1037.5 864.62,-1001.5 995.38,-1001.5 995.38,-1037.5"/>
<text text-anchor="middle" x="930" y="-1014.45" font-family="Times,serif" font-size="14.00">foo2 return foo2::$r1</text>
</g>
<!-- foo2 foo2::$r1 = staticinvoke &lt;PubTest: PubTest bar2(PubTest)&gt;(foo2::r0)&#45;&gt;foo2 return foo2::$r1 -->
<g id="edge12" class="edge">
<title>foo2 foo2::$r1 = staticinvoke &lt;PubTest: PubTest bar2(PubTest)&gt;(foo2::r0)&#45;&gt;foo2 return foo2::$r1</title>
<path fill="none" stroke="black" d="M1040.7,-1466.19C1023.37,-1396.42 958.53,-1135.37 937,-1048.68"/>
<polygon fill="black" stroke="black" points="940.43,-1047.98 934.62,-1039.11 933.64,-1049.66 940.43,-1047.98"/>
<text text-anchor="start" x="1007" y="-1313.45" font-family="Times,serif" font-size="14.00">[PubTest.test2.in06] =&gt; {test2::$r2 &#45;&gt; [test2.new04], </text>
<text text-anchor="start" x="1007" y="-1296.95" font-family="Times,serif" font-size="14.00">foo2::r0 &#45;&gt; [test2.new04], </text>
<text text-anchor="start" x="1007" y="-1280.45" font-family="Times,serif" font-size="14.00">bar3::r0 &#45;&gt; [test2.new04], </text>
<text text-anchor="start" x="1007" y="-1263.95" font-family="Times,serif" font-size="14.00">bar2::$r1 &#45;&gt; [test2.new04], </text>
<text text-anchor="start" x="1007" y="-1247.45" font-family="Times,serif" font-size="14.00">bar2::r0 &#45;&gt; [test2.new04], </text>
<text text-anchor="start" x="1007" y="-1230.95" font-family="Times,serif" font-size="14.00">foo2::$r1 &#45;&gt; [test2.new04]</text>
<text text-anchor="start" x="1007" y="-1214.45" font-family="Times,serif" font-size="14.00">}</text>
<text text-anchor="start" x="1007" y="-1181.95" font-family="Times,serif" font-size="14.00">[PubTest.test2.in03] =&gt; {test2::$r2 &#45;&gt; [test2.new04], </text>
<text text-anchor="start" x="1007" y="-1165.45" font-family="Times,serif" font-size="14.00">foo2::r0 &#45;&gt; [test2.new04], </text>
<text text-anchor="start" x="1007" y="-1148.95" font-family="Times,serif" font-size="14.00">bar3::r0 &#45;&gt; [test2.new04], </text>
<text text-anchor="start" x="1007" y="-1132.45" font-family="Times,serif" font-size="14.00">bar2::$r1 &#45;&gt; [test2.new04], </text>
<text text-anchor="start" x="1007" y="-1115.95" font-family="Times,serif" font-size="14.00">bar2::r0 &#45;&gt; [test2.new04], </text>
<text text-anchor="start" x="1007" y="-1099.45" font-family="Times,serif" font-size="14.00">foo2::$r1 &#45;&gt; [test2.new04]</text>
<text text-anchor="start" x="1007" y="-1082.95" font-family="Times,serif" font-size="14.00">}</text>
</g>
<!-- bar2 bar2::r0 := @parameter0: PubTest -->
<g id="node14" class="node">
<title>bar2 bar2::r0 := @parameter0: PubTest</title>
<polygon fill="none" stroke="black" points="1514,-1037.5 1282,-1037.5 1282,-1001.5 1514,-1001.5 1514,-1037.5"/>
<text text-anchor="middle" x="1398" y="-1014.45" font-family="Times,serif" font-size="14.00">bar2 bar2::r0 := @parameter0: PubTest</text>
</g>
<!-- foo2 foo2::$r1 = staticinvoke &lt;PubTest: PubTest bar2(PubTest)&gt;(foo2::r0)&#45;&gt;bar2 bar2::r0 := @parameter0: PubTest -->
<g id="edge18" class="edge">
<title>foo2 foo2::$r1 = staticinvoke &lt;PubTest: PubTest bar2(PubTest)&gt;(foo2::r0)&#45;&gt;bar2 bar2::r0 := @parameter0: PubTest</title>
<path fill="none" stroke="black" stroke-dasharray="1,5" d="M1100.02,-1466.04C1159.14,-1444.5 1251.76,-1402.25 1305,-1335 1374.46,-1247.27 1392.08,-1108.9 1396.52,-1049.34"/>
<polygon fill="black" stroke="black" points="1400.01,-1049.59 1397.18,-1039.38 1393.03,-1049.12 1400.01,-1049.59"/>
<text text-anchor="middle" x="1596" y="-1321.7" font-family="Times,serif" font-size="14.00">PubTest.foo2.in01</text>
<text text-anchor="start" x="1395" y="-1305.2" font-family="Times,serif" font-size="14.00">[PubTest.test2.in06, PubTest.foo2.in01] =&gt; {test2::$r3 &#45;&gt; [test2.new04], </text>
<text text-anchor="start" x="1395" y="-1288.7" font-family="Times,serif" font-size="14.00">test2::$r2 &#45;&gt; [test2.new04], </text>
<text text-anchor="start" x="1395" y="-1272.2" font-family="Times,serif" font-size="14.00">foo2::r0 &#45;&gt; [test2.new04], </text>
<text text-anchor="start" x="1395" y="-1255.7" font-family="Times,serif" font-size="14.00">bar3::r0 &#45;&gt; [test2.new04], </text>
<text text-anchor="start" x="1395" y="-1239.2" font-family="Times,serif" font-size="14.00">bar2::$r1 &#45;&gt; [test2.new04], </text>
<text text-anchor="start" x="1395" y="-1222.7" font-family="Times,serif" font-size="14.00">bar2::r0 &#45;&gt; [test2.new04], </text>
<text text-anchor="start" x="1395" y="-1206.2" font-family="Times,serif" font-size="14.00">@parameter0: PubTest &#45;&gt; [test2.new04], </text>
<text text-anchor="start" x="1395" y="-1189.7" font-family="Times,serif" font-size="14.00">foo2::$r1 &#45;&gt; [test2.new04]</text>
<text text-anchor="start" x="1395" y="-1173.2" font-family="Times,serif" font-size="14.00">}</text>
<text text-anchor="start" x="1395" y="-1140.7" font-family="Times,serif" font-size="14.00">[PubTest.test2.in03, PubTest.foo2.in01] =&gt; {test2::r4 &#45;&gt; [null], </text>
<text text-anchor="start" x="1395" y="-1124.2" font-family="Times,serif" font-size="14.00">foo2::r0 &#45;&gt; [test2.new01], </text>
<text text-anchor="start" x="1395" y="-1107.7" font-family="Times,serif" font-size="14.00">test2::$r0 &#45;&gt; [test2.new01], </text>
<text text-anchor="start" x="1395" y="-1091.2" font-family="Times,serif" font-size="14.00">@parameter0: PubTest &#45;&gt; [test2.new01], </text>
<text text-anchor="start" x="1395" y="-1074.7" font-family="Times,serif" font-size="14.00">}</text>
</g>
<!-- foo2 return foo2::$r1&#45;&gt;test2 test2::$r2 = new PubTest -->
<g id="edge19" class="edge">
<title>foo2 return foo2::$r1&#45;&gt;test2 test2::$r2 = new PubTest</title>
<path fill="none" stroke="black" stroke-dasharray="1,5" d="M868.87,-1037.89C753.06,-1074.46 503.72,-1171.31 396.75,-1353 273.92,-1561.62 521.99,-1709.37 369,-1897 363.72,-1903.48 351.46,-1909.01 336.37,-1913.63"/>
<polygon fill="black" stroke="black" points="335.66,-1910.2 326.99,-1916.28 337.56,-1916.93 335.66,-1910.2"/>
<text text-anchor="middle" x="446.62" y="-1479.45" font-family="Times,serif" font-size="14.00">PubTest.test2.in03</text>
</g>
<!-- foo2 return foo2::$r1&#45;&gt;test2 if test2::$r1 != test2::$r3 goto return test2::r4 -->
<g id="edge20" class="edge">
<title>foo2 return foo2::$r1&#45;&gt;test2 if test2::$r1 != test2::$r3 goto return test2::r4</title>
<path fill="none" stroke="black" stroke-dasharray="1,5" d="M909.93,-1001.13C846.59,-947.31 643.36,-782.31 445,-704 430.11,-698.12 414.19,-693.22 398.11,-689.15"/>
<polygon fill="black" stroke="black" points="398.97,-685.75 388.43,-686.81 397.32,-692.56 398.97,-685.75"/>
<text text-anchor="middle" x="934.62" y="-838.7" font-family="Times,serif" font-size="14.00">PubTest.test2.in06</text>
</g>
<!-- bar2 bar2::$r1 = staticinvoke &lt;PubTest: PubTest bar3(PubTest)&gt;(bar2::r0) -->
<g id="node15" class="node">
<title>bar2 bar2::$r1 = staticinvoke &lt;PubTest: PubTest bar3(PubTest)&gt;(bar2::r0)</title>
<polygon fill="none" stroke="black" points="1705.62,-686 1282.38,-686 1282.38,-650 1705.62,-650 1705.62,-686"/>
<text text-anchor="middle" x="1494" y="-662.95" font-family="Times,serif" font-size="14.00">bar2 bar2::$r1 = staticinvoke &lt;PubTest: PubTest bar3(PubTest)&gt;(bar2::r0)</text>
</g>
<!-- bar2 bar2::r0 := @parameter0: PubTest&#45;&gt;bar2 bar2::$r1 = staticinvoke &lt;PubTest: PubTest bar3(PubTest)&gt;(bar2::r0) -->
<g id="edge13" class="edge">
<title>bar2 bar2::r0 := @parameter0: PubTest&#45;&gt;bar2 bar2::$r1 = staticinvoke &lt;PubTest: PubTest bar3(PubTest)&gt;(bar2::r0)</title>
<path fill="none" stroke="black" d="M1322.67,-1001.26C1314.98,-996.67 1308.13,-990.85 1303,-983.5 1231.95,-881.6 1223.47,-799.43 1303,-704 1307.58,-698.5 1315.89,-693.87 1326.57,-689.96"/>
<polygon fill="black" stroke="black" points="1327.61,-693.3 1336.05,-686.9 1325.45,-686.64 1327.61,-693.3"/>
<text text-anchor="start" x="1303" y="-970.2" font-family="Times,serif" font-size="14.00">[PubTest.test2.in06, PubTest.foo2.in01] =&gt; {test2::$r3 &#45;&gt; [test2.new04], </text>
<text text-anchor="start" x="1303" y="-953.7" font-family="Times,serif" font-size="14.00">test2::$r2 &#45;&gt; [test2.new04], </text>
<text text-anchor="start" x="1303" y="-937.2" font-family="Times,serif" font-size="14.00">foo2::r0 &#45;&gt; [test2.new04], </text>
<text text-anchor="start" x="1303" y="-920.7" font-family="Times,serif" font-size="14.00">bar3::r0 &#45;&gt; [test2.new04], </text>
<text text-anchor="start" x="1303" y="-904.2" font-family="Times,serif" font-size="14.00">bar2::$r1 &#45;&gt; [test2.new04], </text>
<text text-anchor="start" x="1303" y="-887.7" font-family="Times,serif" font-size="14.00">bar2::r0 &#45;&gt; [test2.new04], </text>
<text text-anchor="start" x="1303" y="-871.2" font-family="Times,serif" font-size="14.00">@parameter0: PubTest &#45;&gt; [test2.new04], </text>
<text text-anchor="start" x="1303" y="-854.7" font-family="Times,serif" font-size="14.00">foo2::$r1 &#45;&gt; [test2.new04]</text>
<text text-anchor="start" x="1303" y="-838.2" font-family="Times,serif" font-size="14.00">}</text>
<text text-anchor="start" x="1303" y="-805.7" font-family="Times,serif" font-size="14.00">[PubTest.test2.in03, PubTest.foo2.in01] =&gt; {test2::r4 &#45;&gt; [null], </text>
<text text-anchor="start" x="1303" y="-789.2" font-family="Times,serif" font-size="14.00">foo2::r0 &#45;&gt; [test2.new01], </text>
<text text-anchor="start" x="1303" y="-772.7" font-family="Times,serif" font-size="14.00">test2::$r0 &#45;&gt; [test2.new01], </text>
<text text-anchor="start" x="1303" y="-756.2" font-family="Times,serif" font-size="14.00">bar2::r0 &#45;&gt; [test2.new01], </text>
<text text-anchor="start" x="1303" y="-739.7" font-family="Times,serif" font-size="14.00">@parameter0: PubTest &#45;&gt; [test2.new01], </text>
<text text-anchor="start" x="1303" y="-723.2" font-family="Times,serif" font-size="14.00">}</text>
</g>
<!-- bar2 return bar2::$r1 -->
<g id="node16" class="node">
<title>bar2 return bar2::$r1</title>
<polygon fill="none" stroke="black" points="1411.62,-328 1282.38,-328 1282.38,-292 1411.62,-292 1411.62,-328"/>
<text text-anchor="middle" x="1347" y="-304.95" font-family="Times,serif" font-size="14.00">bar2 return bar2::$r1</text>
</g>
<!-- bar2 bar2::$r1 = staticinvoke &lt;PubTest: PubTest bar3(PubTest)&gt;(bar2::r0)&#45;&gt;bar2 return bar2::$r1 -->
<g id="edge14" class="edge">
<title>bar2 bar2::$r1 = staticinvoke &lt;PubTest: PubTest bar3(PubTest)&gt;(bar2::r0)&#45;&gt;bar2 return bar2::$r1</title>
<path fill="none" stroke="black" d="M1486.91,-649.83C1463.34,-592.74 1387.45,-408.96 1358.43,-338.68"/>
<polygon fill="black" stroke="black" points="1361.82,-337.72 1354.77,-329.81 1355.35,-340.39 1361.82,-337.72"/>
<text text-anchor="start" x="1478" y="-618.7" font-family="Times,serif" font-size="14.00">[PubTest.test2.in06, PubTest.foo2.in01] =&gt; {test2::$r2 &#45;&gt; [test2.new04], </text>
<text text-anchor="start" x="1478" y="-602.2" font-family="Times,serif" font-size="14.00">foo2::r0 &#45;&gt; [test2.new04], </text>
<text text-anchor="start" x="1478" y="-585.7" font-family="Times,serif" font-size="14.00">bar3::r0 &#45;&gt; [test2.new04], </text>
<text text-anchor="start" x="1478" y="-569.2" font-family="Times,serif" font-size="14.00">bar2::$r1 &#45;&gt; [test2.new04], </text>
<text text-anchor="start" x="1478" y="-552.7" font-family="Times,serif" font-size="14.00">bar2::r0 &#45;&gt; [test2.new04], </text>
<text text-anchor="start" x="1478" y="-536.2" font-family="Times,serif" font-size="14.00">}</text>
<text text-anchor="start" x="1478" y="-503.7" font-family="Times,serif" font-size="14.00">[PubTest.test2.in03, PubTest.foo2.in01] =&gt; {test2::$r2 &#45;&gt; [test2.new04], </text>
<text text-anchor="start" x="1478" y="-487.2" font-family="Times,serif" font-size="14.00">foo2::r0 &#45;&gt; [test2.new04], </text>
<text text-anchor="start" x="1478" y="-470.7" font-family="Times,serif" font-size="14.00">bar3::r0 &#45;&gt; [test2.new04], </text>
<text text-anchor="start" x="1478" y="-454.2" font-family="Times,serif" font-size="14.00">bar2::$r1 &#45;&gt; [test2.new04], </text>
<text text-anchor="start" x="1478" y="-437.7" font-family="Times,serif" font-size="14.00">bar2::r0 &#45;&gt; [test2.new04], </text>
<text text-anchor="start" x="1478" y="-421.2" font-family="Times,serif" font-size="14.00">}</text>
</g>
<!-- bar3 bar3::r0 := @parameter0: PubTest -->
<g id="node17" class="node">
<title>bar3 bar3::r0 := @parameter0: PubTest</title>
<polygon fill="none" stroke="black" points="2365,-1037.5 2133,-1037.5 2133,-1001.5 2365,-1001.5 2365,-1037.5"/>
<text text-anchor="middle" x="2249" y="-1014.45" font-family="Times,serif" font-size="14.00">bar3 bar3::r0 := @parameter0: PubTest</text>
</g>
<!-- bar2 bar2::$r1 = staticinvoke &lt;PubTest: PubTest bar3(PubTest)&gt;(bar2::r0)&#45;&gt;bar3 bar3::r0 := @parameter0: PubTest -->
<g id="edge21" class="edge">
<title>bar2 bar2::$r1 = staticinvoke &lt;PubTest: PubTest bar3(PubTest)&gt;(bar2::r0)&#45;&gt;bar3 bar3::r0 := @parameter0: PubTest</title>
<path fill="none" stroke="red" stroke-dasharray="1,5" d="M1661.33,-686.44C1680.77,-691.02 1696.64,-696.78 1705,-704 1803.69,-789.28 1692.17,-902.62 1794.5,-983.5 1819.72,-1003.43 1995.99,-1012.16 2121.43,-1015.88"/>
<polygon fill="red" stroke="red" points="2121.03,-1019.37 2131.13,-1016.16 2121.23,-1012.37 2121.03,-1019.37"/>
<text text-anchor="middle" x="1994.25" y="-920.95" font-family="Times,serif" font-size="14.00">PubTest.bar2.in01</text>
<text text-anchor="start" x="1794" y="-904.45" font-family="Times,serif" font-size="14.00">[PubTest.foo2.in01, PubTest.bar2.in01] =&gt; {test2::$r3 &#45;&gt; [test2.new04], </text>
<text text-anchor="start" x="1794" y="-887.95" font-family="Times,serif" font-size="14.00">test2::$r2 &#45;&gt; [test2.new04], </text>
<text text-anchor="start" x="1794" y="-871.45" font-family="Times,serif" font-size="14.00">foo2::r0 &#45;&gt; [test2.new04], </text>
<text text-anchor="start" x="1794" y="-854.95" font-family="Times,serif" font-size="14.00">bar3::r0 &#45;&gt; [test2.new04], </text>
<text text-anchor="start" x="1794" y="-838.45" font-family="Times,serif" font-size="14.00">bar2::$r1 &#45;&gt; [test2.new04], </text>
<text text-anchor="start" x="1794" y="-821.95" font-family="Times,serif" font-size="14.00">bar2::r0 &#45;&gt; [test2.new04], </text>
<text text-anchor="start" x="1794" y="-805.45" font-family="Times,serif" font-size="14.00">@parameter0: PubTest &#45;&gt; [test2.new04], </text>
<text text-anchor="start" x="1794" y="-788.95" font-family="Times,serif" font-size="14.00">foo2::$r1 &#45;&gt; [test2.new04]</text>
<text text-anchor="start" x="1794" y="-772.45" font-family="Times,serif" font-size="14.00">}</text>
</g>
<!-- bar2 return bar2::$r1&#45;&gt;foo2 return foo2::$r1 -->
<g id="edge22" class="edge">
<title>bar2 return bar2::$r1&#45;&gt;foo2 return foo2::$r1</title>
<path fill="none" stroke="black" stroke-dasharray="1,5" d="M1337.79,-328.45C1282.4,-433.41 995.6,-976.59 989,-983.5 985.09,-987.59 980.6,-991.37 975.88,-994.82"/>
<polygon fill="black" stroke="black" points="974.23,-991.71 967.86,-1000.17 978.12,-997.53 974.23,-991.71"/>
<text text-anchor="middle" x="1220.25" y="-662.95" font-family="Times,serif" font-size="14.00">PubTest.foo2.in01</text>
</g>
<!-- bar3 return bar3::r0 -->
<g id="node18" class="node">
<title>bar3 return bar3::r0</title>
<polygon fill="none" stroke="black" points="2255.25,-686 2132.75,-686 2132.75,-650 2255.25,-650 2255.25,-686"/>
<text text-anchor="middle" x="2194" y="-662.95" font-family="Times,serif" font-size="14.00">bar3 return bar3::r0</text>
</g>
<!-- bar3 bar3::r0 := @parameter0: PubTest&#45;&gt;bar3 return bar3::r0 -->
<g id="edge15" class="edge">
<title>bar3 bar3::r0 := @parameter0: PubTest&#45;&gt;bar3 return bar3::r0</title>
<path fill="none" stroke="black" d="M2246.27,-1001.17C2237.42,-944.92 2209.43,-767.08 2198.47,-697.4"/>
<polygon fill="black" stroke="black" points="2201.99,-697.27 2196.98,-687.93 2195.08,-698.35 2201.99,-697.27"/>
<text text-anchor="start" x="2243" y="-887.95" font-family="Times,serif" font-size="14.00">[PubTest.foo2.in01, PubTest.bar2.in01] =&gt; {test2::$r2 &#45;&gt; [test2.new04], </text>
<text text-anchor="start" x="2243" y="-871.45" font-family="Times,serif" font-size="14.00">foo2::r0 &#45;&gt; [test2.new04], </text>
<text text-anchor="start" x="2243" y="-854.95" font-family="Times,serif" font-size="14.00">bar3::r0 &#45;&gt; [test2.new04], </text>
<text text-anchor="start" x="2243" y="-838.45" font-family="Times,serif" font-size="14.00">bar2::r0 &#45;&gt; [test2.new04], </text>
<text text-anchor="start" x="2243" y="-821.95" font-family="Times,serif" font-size="14.00">@parameter0: PubTest &#45;&gt; [test2.new04], </text>
<text text-anchor="start" x="2243" y="-805.45" font-family="Times,serif" font-size="14.00">}</text>
</g>
<!-- bar3 return bar3::r0&#45;&gt;bar2 return bar2::$r1 -->
<g id="edge23" class="edge">
<title>bar3 return bar3::r0&#45;&gt;bar2 return bar2::$r1</title>
<path fill="none" stroke="black" stroke-dasharray="1,5" d="M2180.04,-649.82C2139.84,-601.65 2018.04,-464.71 1884,-402 1731.33,-330.57 1530.91,-314.5 1423.26,-311.32"/>
<polygon fill="black" stroke="black" points="1423.47,-307.82 1413.38,-311.06 1423.28,-314.82 1423.47,-307.82"/>
<text text-anchor="middle" x="2211.88" y="-511.95" font-family="Times,serif" font-size="14.00">PubTest.bar2.in01</text>
</g>
</g>
</svg>
