<?xml version="1.0" encoding="UTF-8" standalone="no"?>
<!DOCTYPE svg PUBLIC "-//W3C//DTD SVG 1.1//EN"
 "http://www.w3.org/Graphics/SVG/1.1/DTD/svg11.dtd">
<!-- Generated by graphviz version 9.0.0 (20230911.1827)
 -->
<!-- Title: G Pages: 1 -->
<svg width="2746pt" height="1270pt"
 viewBox="0.00 0.00 2746.00 1269.50" xmlns="http://www.w3.org/2000/svg" xmlns:xlink="http://www.w3.org/1999/xlink">
<g id="graph0" class="graph" transform="scale(1 1) rotate(0) translate(4 1265.5)">
<title>G</title>
<polygon fill="white" stroke="none" points="-4,4 -4,-1265.5 2742,-1265.5 2742,4 -4,4"/>
<g id="clust1" class="cluster">
<title>cluster_0</title>
<polygon fill="none" stroke="black" points="8,-486.5 8,-1253.5 478,-1253.5 478,-486.5 8,-486.5"/>
</g>
<g id="clust2" class="cluster">
<title>cluster_1</title>
<polygon fill="none" stroke="black" points="486,-8 486,-742 1028,-742 1028,-8 486,-8"/>
</g>
<g id="clust3" class="cluster">
<title>cluster_2</title>
<polygon fill="none" stroke="black" points="1548,-8 1548,-1132.5 2634,-1132.5 2634,-8 1548,-8"/>
</g>
<!-- f f::$r0 = new BasicTest -->
<g id="node1" class="node">
<title>f f::$r0 = new BasicTest</title>
<polygon fill="none" stroke="black" points="317.75,-1245.5 168.25,-1245.5 168.25,-1209.5 317.75,-1209.5 317.75,-1245.5"/>
<text text-anchor="middle" x="243" y="-1222.45" font-family="Times,serif" font-size="14.00">f f::$r0 = new BasicTest</text>
</g>
<!-- f specialinvoke f::$r0.&lt;BasicTest: void &lt;init&gt;()&gt;() -->
<g id="node2" class="node">
<title>f specialinvoke f::$r0.&lt;BasicTest: void &lt;init&gt;()&gt;()</title>
<polygon fill="none" stroke="black" points="389.75,-1124.5 96.25,-1124.5 96.25,-1088.5 389.75,-1088.5 389.75,-1124.5"/>
<text text-anchor="middle" x="243" y="-1101.45" font-family="Times,serif" font-size="14.00">f specialinvoke f::$r0.&lt;BasicTest: void &lt;init&gt;()&gt;()</text>
</g>
<!-- f f::$r0 = new BasicTest&#45;&gt;f specialinvoke f::$r0.&lt;BasicTest: void &lt;init&gt;()&gt;() -->
<g id="edge1" class="edge">
<title>f f::$r0 = new BasicTest&#45;&gt;f specialinvoke f::$r0.&lt;BasicTest: void &lt;init&gt;()&gt;()</title>
<path fill="none" stroke="black" d="M243,-1209.2C243,-1190.07 243,-1158.96 243,-1136.18"/>
<polygon fill="black" stroke="black" points="246.5,-1136.34 243,-1126.34 239.5,-1136.34 246.5,-1136.34"/>
<text text-anchor="start" x="243" y="-1178.2" font-family="Times,serif" font-size="14.00">[] =&gt; {f::$r0 &#45;&gt; [f.new00], </text>
<text text-anchor="start" x="243" y="-1161.7" font-family="Times,serif" font-size="14.00">}</text>
</g>
<!-- f f::$r1 = staticinvoke &lt;BasicTest: BasicTest REC_TEST_1(BasicTest)&gt;(f::$r0) -->
<g id="node3" class="node">
<title>f f::$r1 = staticinvoke &lt;BasicTest: BasicTest REC_TEST_1(BasicTest)&gt;(f::$r0)</title>
<polygon fill="none" stroke="black" points="469.62,-937.5 16.38,-937.5 16.38,-901.5 469.62,-901.5 469.62,-937.5"/>
<text text-anchor="middle" x="243" y="-914.45" font-family="Times,serif" font-size="14.00">f f::$r1 = staticinvoke &lt;BasicTest: BasicTest REC_TEST_1(BasicTest)&gt;(f::$r0)</text>
</g>
<!-- f specialinvoke f::$r0.&lt;BasicTest: void &lt;init&gt;()&gt;()&#45;&gt;f f::$r1 = staticinvoke &lt;BasicTest: BasicTest REC_TEST_1(BasicTest)&gt;(f::$r0) -->
<g id="edge2" class="edge">
<title>f specialinvoke f::$r0.&lt;BasicTest: void &lt;init&gt;()&gt;()&#45;&gt;f f::$r1 = staticinvoke &lt;BasicTest: BasicTest REC_TEST_1(BasicTest)&gt;(f::$r0)</title>
<path fill="none" stroke="black" d="M243,-1088.1C243,-1056.21 243,-988.14 243,-949.27"/>
<polygon fill="black" stroke="black" points="246.5,-949.51 243,-939.51 239.5,-949.51 246.5,-949.51"/>
<text text-anchor="start" x="243" y="-1024.2" font-family="Times,serif" font-size="14.00">[] =&gt; {f::$r0 &#45;&gt; [f.new00], </text>
<text text-anchor="start" x="243" y="-1007.7" font-family="Times,serif" font-size="14.00">}</text>
</g>
<!-- f f::$r1.&lt;BasicTest: BasicTest f&gt; = null -->
<g id="node4" class="node">
<title>f f::$r1.&lt;BasicTest: BasicTest f&gt; = null</title>
<polygon fill="none" stroke="black" points="441.75,-734 208.25,-734 208.25,-698 441.75,-698 441.75,-734"/>
<text text-anchor="middle" x="325" y="-710.95" font-family="Times,serif" font-size="14.00">f f::$r1.&lt;BasicTest: BasicTest f&gt; = null</text>
</g>
<!-- f f::$r1 = staticinvoke &lt;BasicTest: BasicTest REC_TEST_1(BasicTest)&gt;(f::$r0)&#45;&gt;f f::$r1.&lt;BasicTest: BasicTest f&gt; = null -->
<g id="edge3" class="edge">
<title>f f::$r1 = staticinvoke &lt;BasicTest: BasicTest REC_TEST_1(BasicTest)&gt;(f::$r0)&#45;&gt;f f::$r1.&lt;BasicTest: BasicTest f&gt; = null</title>
<path fill="none" stroke="black" d="M249.99,-901.32C264.18,-866.46 296.45,-787.15 313.68,-744.82"/>
<polygon fill="black" stroke="black" points="316.81,-746.41 317.34,-735.82 310.33,-743.77 316.81,-746.41"/>
</g>
<!-- REC_TEST_1 REC_TEST_1::r1 := @parameter0: BasicTest -->
<g id="node6" class="node">
<title>REC_TEST_1 REC_TEST_1::r1 := @parameter0: BasicTest</title>
<polygon fill="none" stroke="black" points="844.25,-734 493.75,-734 493.75,-698 844.25,-698 844.25,-734"/>
<text text-anchor="middle" x="669" y="-710.95" font-family="Times,serif" font-size="14.00">REC_TEST_1 REC_TEST_1::r1 := @parameter0: BasicTest</text>
</g>
<!-- f f::$r1 = staticinvoke &lt;BasicTest: BasicTest REC_TEST_1(BasicTest)&gt;(f::$r0)&#45;&gt;REC_TEST_1 REC_TEST_1::r1 := @parameter0: BasicTest -->
<g id="edge16" class="edge">
<title>f f::$r1 = staticinvoke &lt;BasicTest: BasicTest REC_TEST_1(BasicTest)&gt;(f::$r0)&#45;&gt;REC_TEST_1 REC_TEST_1::r1 := @parameter0: BasicTest</title>
<path fill="none" stroke="black" stroke-dasharray="1,5" d="M279.69,-901.15C356.99,-864.58 536.51,-779.67 622.05,-739.21"/>
<polygon fill="black" stroke="black" points="623.34,-742.47 630.88,-735.03 620.34,-736.14 623.34,-742.47"/>
<text text-anchor="middle" x="760.5" y="-845.45" font-family="Times,serif" font-size="14.00">BasicTest.f.in02</text>
<text text-anchor="start" x="588" y="-828.95" font-family="Times,serif" font-size="14.00">[BasicTest.f.in02] =&gt; {@parameter0: BasicTest &#45;&gt; [f.new00], </text>
<text text-anchor="start" x="588" y="-812.45" font-family="Times,serif" font-size="14.00">f::$r0 &#45;&gt; [f.new00], </text>
<text text-anchor="start" x="588" y="-795.95" font-family="Times,serif" font-size="14.00">}</text>
</g>
<!-- f return -->
<g id="node5" class="node">
<title>f return</title>
<polygon fill="none" stroke="black" points="409.25,-530.5 352.75,-530.5 352.75,-494.5 409.25,-494.5 409.25,-530.5"/>
<text text-anchor="middle" x="381" y="-507.45" font-family="Times,serif" font-size="14.00">f return</text>
</g>
<!-- f f::$r1.&lt;BasicTest: BasicTest f&gt; = null&#45;&gt;f return -->
<g id="edge4" class="edge">
<title>f f::$r1.&lt;BasicTest: BasicTest f&gt; = null&#45;&gt;f return</title>
<path fill="none" stroke="black" d="M332.44,-697.72C334.71,-692.12 337.1,-685.85 339,-680 354.49,-632.27 367.77,-575.32 375.05,-541.91"/>
<polygon fill="black" stroke="black" points="378.45,-542.72 377.13,-532.21 371.61,-541.25 378.45,-542.72"/>
</g>
<!-- REC_TEST_1 REC_TEST_1::$r0 = new BasicTest -->
<g id="node7" class="node">
<title>REC_TEST_1 REC_TEST_1::$r0 = new BasicTest</title>
<polygon fill="none" stroke="black" points="818,-530.5 520,-530.5 520,-494.5 818,-494.5 818,-530.5"/>
<text text-anchor="middle" x="669" y="-507.45" font-family="Times,serif" font-size="14.00">REC_TEST_1 REC_TEST_1::$r0 = new BasicTest</text>
</g>
<!-- REC_TEST_1 REC_TEST_1::r1 := @parameter0: BasicTest&#45;&gt;REC_TEST_1 REC_TEST_1::$r0 = new BasicTest -->
<g id="edge5" class="edge">
<title>REC_TEST_1 REC_TEST_1::r1 := @parameter0: BasicTest&#45;&gt;REC_TEST_1 REC_TEST_1::$r0 = new BasicTest</title>
<path fill="none" stroke="black" d="M668.4,-697.56C668.24,-691.95 668.08,-685.71 668,-680 667.17,-621.56 667.17,-606.94 668,-548.5 668.03,-546.45 668.07,-544.33 668.11,-542.19"/>
<polygon fill="black" stroke="black" points="671.61,-542.54 668.36,-532.46 664.61,-542.36 671.61,-542.54"/>
<text text-anchor="start" x="668" y="-641.95" font-family="Times,serif" font-size="14.00">[BasicTest.f.in02] =&gt; {@parameter0: BasicTest &#45;&gt; [f.new00], </text>
<text text-anchor="start" x="668" y="-625.45" font-family="Times,serif" font-size="14.00">f::$r0 &#45;&gt; [f.new00], </text>
<text text-anchor="start" x="668" y="-608.95" font-family="Times,serif" font-size="14.00">REC_TEST_1::r1 &#45;&gt; [f.new00], </text>
<text text-anchor="start" x="668" y="-592.45" font-family="Times,serif" font-size="14.00">}</text>
</g>
<!-- REC_TEST_1 specialinvoke REC_TEST_1::$r0.&lt;BasicTest: void &lt;init&gt;()&gt;() -->
<g id="node8" class="node">
<title>REC_TEST_1 specialinvoke REC_TEST_1::$r0.&lt;BasicTest: void &lt;init&gt;()&gt;()</title>
<polygon fill="none" stroke="black" points="936,-327 494,-327 494,-291 936,-291 936,-327"/>
<text text-anchor="middle" x="715" y="-303.95" font-family="Times,serif" font-size="14.00">REC_TEST_1 specialinvoke REC_TEST_1::$r0.&lt;BasicTest: void &lt;init&gt;()&gt;()</text>
</g>
<!-- REC_TEST_1 REC_TEST_1::$r0 = new BasicTest&#45;&gt;REC_TEST_1 specialinvoke REC_TEST_1::$r0.&lt;BasicTest: void &lt;init&gt;()&gt;() -->
<g id="edge6" class="edge">
<title>REC_TEST_1 REC_TEST_1::$r0 = new BasicTest&#45;&gt;REC_TEST_1 specialinvoke REC_TEST_1::$r0.&lt;BasicTest: void &lt;init&gt;()&gt;()</title>
<path fill="none" stroke="black" d="M665.57,-494.42C660.13,-463.06 652.43,-394.98 676,-345 677.59,-341.63 679.67,-338.44 682.05,-335.46"/>
<polygon fill="black" stroke="black" points="684.5,-337.96 688.81,-328.28 679.41,-333.15 684.5,-337.96"/>
<text text-anchor="start" x="676" y="-446.7" font-family="Times,serif" font-size="14.00">[BasicTest.f.in02] =&gt; {@parameter0: BasicTest &#45;&gt; [f.new00], </text>
<text text-anchor="start" x="676" y="-430.2" font-family="Times,serif" font-size="14.00">f::$r0 &#45;&gt; [f.new00], </text>
<text text-anchor="start" x="676" y="-413.7" font-family="Times,serif" font-size="14.00">REC_TEST_1::$r0 &#45;&gt; [REC_TEST_1.new01], </text>
<text text-anchor="start" x="676" y="-397.2" font-family="Times,serif" font-size="14.00">REC_TEST_1::r1 &#45;&gt; [f.new00], </text>
<text text-anchor="start" x="676" y="-380.7" font-family="Times,serif" font-size="14.00">}</text>
</g>
<!-- REC_TEST_1 staticinvoke &lt;BasicTest: BasicTest rec_test_2(BasicTest)&gt;(REC_TEST_1::r1) -->
<g id="node9" class="node">
<title>REC_TEST_1 staticinvoke &lt;BasicTest: BasicTest rec_test_2(BasicTest)&gt;(REC_TEST_1::r1)</title>
<polygon fill="none" stroke="black" points="1020,-156.5 494,-156.5 494,-120.5 1020,-120.5 1020,-156.5"/>
<text text-anchor="middle" x="757" y="-133.45" font-family="Times,serif" font-size="14.00">REC_TEST_1 staticinvoke &lt;BasicTest: BasicTest rec_test_2(BasicTest)&gt;(REC_TEST_1::r1)</text>
</g>
<!-- REC_TEST_1 specialinvoke REC_TEST_1::$r0.&lt;BasicTest: void &lt;init&gt;()&gt;()&#45;&gt;REC_TEST_1 staticinvoke &lt;BasicTest: BasicTest rec_test_2(BasicTest)&gt;(REC_TEST_1::r1) -->
<g id="edge7" class="edge">
<title>REC_TEST_1 specialinvoke REC_TEST_1::$r0.&lt;BasicTest: void &lt;init&gt;()&gt;()&#45;&gt;REC_TEST_1 staticinvoke &lt;BasicTest: BasicTest rec_test_2(BasicTest)&gt;(REC_TEST_1::r1)</title>
<path fill="none" stroke="black" d="M689.25,-290.54C683.89,-285.56 678.97,-279.65 676,-273 658.16,-233.02 651.96,-211.08 676,-174.5 678.7,-170.4 681.99,-166.77 685.69,-163.57"/>
<polygon fill="black" stroke="black" points="687.69,-166.44 693.73,-157.73 683.58,-160.77 687.69,-166.44"/>
<text text-anchor="start" x="676" y="-259.7" font-family="Times,serif" font-size="14.00">[BasicTest.f.in02] =&gt; {@parameter0: BasicTest &#45;&gt; [f.new00], </text>
<text text-anchor="start" x="676" y="-243.2" font-family="Times,serif" font-size="14.00">f::$r0 &#45;&gt; [f.new00], </text>
<text text-anchor="start" x="676" y="-226.7" font-family="Times,serif" font-size="14.00">REC_TEST_1::$r0 &#45;&gt; [REC_TEST_1.new01], </text>
<text text-anchor="start" x="676" y="-210.2" font-family="Times,serif" font-size="14.00">REC_TEST_1::r1 &#45;&gt; [f.new00], </text>
<text text-anchor="start" x="676" y="-193.7" font-family="Times,serif" font-size="14.00">}</text>
</g>
<!-- REC_TEST_1 return REC_TEST_1::$r0 -->
<g id="node10" class="node">
<title>REC_TEST_1 return REC_TEST_1::$r0</title>
<polygon fill="none" stroke="black" points="948.38,-52 709.62,-52 709.62,-16 948.38,-16 948.38,-52"/>
<text text-anchor="middle" x="829" y="-28.95" font-family="Times,serif" font-size="14.00">REC_TEST_1 return REC_TEST_1::$r0</text>
</g>
<!-- REC_TEST_1 staticinvoke &lt;BasicTest: BasicTest rec_test_2(BasicTest)&gt;(REC_TEST_1::r1)&#45;&gt;REC_TEST_1 return REC_TEST_1::$r0 -->
<g id="edge8" class="edge">
<title>REC_TEST_1 staticinvoke &lt;BasicTest: BasicTest rec_test_2(BasicTest)&gt;(REC_TEST_1::r1)&#45;&gt;REC_TEST_1 return REC_TEST_1::$r0</title>
<path fill="none" stroke="black" d="M769.21,-120.11C780.44,-104.14 797.24,-80.21 810.18,-61.79"/>
<polygon fill="black" stroke="black" points="812.97,-63.91 815.86,-53.71 807.24,-59.88 812.97,-63.91"/>
<text text-anchor="start" x="803" y="-89.2" font-family="Times,serif" font-size="14.00">[] =&gt; {}</text>
</g>
<!-- rec_test_2 rec_test_2::r1 := @parameter0: BasicTest -->
<g id="node11" class="node">
<title>rec_test_2 rec_test_2::r1 := @parameter0: BasicTest</title>
<polygon fill="none" stroke="black" points="1860,-1124.5 1556,-1124.5 1556,-1088.5 1860,-1088.5 1860,-1124.5"/>
<text text-anchor="middle" x="1708" y="-1101.45" font-family="Times,serif" font-size="14.00">rec_test_2 rec_test_2::r1 := @parameter0: BasicTest</text>
</g>
<!-- REC_TEST_1 staticinvoke &lt;BasicTest: BasicTest rec_test_2(BasicTest)&gt;(REC_TEST_1::r1)&#45;&gt;rec_test_2 rec_test_2::r1 := @parameter0: BasicTest -->
<g id="edge17" class="edge">
<title>REC_TEST_1 staticinvoke &lt;BasicTest: BasicTest rec_test_2(BasicTest)&gt;(REC_TEST_1::r1)&#45;&gt;rec_test_2 rec_test_2::r1 := @parameter0: BasicTest</title>
<path fill="none" stroke="black" stroke-dasharray="1,5" d="M986.49,-156.99C1001.88,-161.59 1014.03,-167.33 1021,-174.5 1062.6,-217.26 1035,-248.34 1035,-308 1035,-920.5 1035,-920.5 1035,-920.5 1035,-1025.82 1345.33,-1073.41 1544.53,-1093.11"/>
<polygon fill="black" stroke="black" points="1543.91,-1096.57 1554.2,-1094.05 1544.59,-1089.6 1543.91,-1096.57"/>
<text text-anchor="middle" x="1293" y="-658.45" font-family="Times,serif" font-size="14.00">BasicTest.REC_TEST_1.in03</text>
<text text-anchor="start" x="1035" y="-641.95" font-family="Times,serif" font-size="14.00">[BasicTest.f.in02, BasicTest.REC_TEST_1.in03] =&gt; {@parameter0: BasicTest &#45;&gt; [f.new00], </text>
<text text-anchor="start" x="1035" y="-625.45" font-family="Times,serif" font-size="14.00">f::$r0 &#45;&gt; [f.new00], </text>
<text text-anchor="start" x="1035" y="-608.95" font-family="Times,serif" font-size="14.00">REC_TEST_1::$r0 &#45;&gt; [REC_TEST_1.new01], </text>
<text text-anchor="start" x="1035" y="-592.45" font-family="Times,serif" font-size="14.00">REC_TEST_1::r1 &#45;&gt; [f.new00], </text>
<text text-anchor="start" x="1035" y="-575.95" font-family="Times,serif" font-size="14.00">}</text>
</g>
<!-- REC_TEST_1 return REC_TEST_1::$r0&#45;&gt;f f::$r1.&lt;BasicTest: BasicTest f&gt; = null -->
<g id="edge18" class="edge">
<title>REC_TEST_1 return REC_TEST_1::$r0&#45;&gt;f f::$r1.&lt;BasicTest: BasicTest f&gt; = null</title>
<path fill="none" stroke="black" stroke-dasharray="1,5" d="M709.24,-35.83C560.18,-40.19 325,-59.43 325,-137.5 325,-513.5 325,-513.5 325,-513.5 325,-575.05 325,-647.19 325,-686.27"/>
<polygon fill="black" stroke="black" points="321.5,-686.24 325,-696.24 328.5,-686.24 321.5,-686.24"/>
<text text-anchor="middle" x="369.62" y="-303.95" font-family="Times,serif" font-size="14.00">BasicTest.f.in02</text>
</g>
<!-- rec_test_2 rec_test_2::$r0 = new BasicTest -->
<g id="node12" class="node">
<title>rec_test_2 rec_test_2::$r0 = new BasicTest</title>
<polygon fill="none" stroke="black" points="1807.75,-937.5 1556.25,-937.5 1556.25,-901.5 1807.75,-901.5 1807.75,-937.5"/>
<text text-anchor="middle" x="1682" y="-914.45" font-family="Times,serif" font-size="14.00">rec_test_2 rec_test_2::$r0 = new BasicTest</text>
</g>
<!-- rec_test_2 rec_test_2::r1 := @parameter0: BasicTest&#45;&gt;rec_test_2 rec_test_2::$r0 = new BasicTest -->
<g id="edge9" class="edge">
<title>rec_test_2 rec_test_2::r1 := @parameter0: BasicTest&#45;&gt;rec_test_2 rec_test_2::$r0 = new BasicTest</title>
<path fill="none" stroke="black" d="M1608.64,-1088.03C1601.1,-1083.41 1594.35,-1077.66 1589,-1070.5 1558.38,-1029.58 1559.91,-997.53 1589,-955.5 1591.82,-951.43 1595.17,-947.83 1598.9,-944.65"/>
<polygon fill="black" stroke="black" points="1600.91,-947.52 1607,-938.85 1596.84,-941.83 1600.91,-947.52"/>
<text text-anchor="start" x="1589" y="-1057.2" font-family="Times,serif" font-size="14.00">[BasicTest.f.in02, BasicTest.REC_TEST_1.in03] =&gt; {@parameter0: BasicTest &#45;&gt; [f.new00], </text>
<text text-anchor="start" x="1589" y="-1040.7" font-family="Times,serif" font-size="14.00">f::$r0 &#45;&gt; [f.new00], </text>
<text text-anchor="start" x="1589" y="-1024.2" font-family="Times,serif" font-size="14.00">REC_TEST_1::$r0 &#45;&gt; [REC_TEST_1.new01], </text>
<text text-anchor="start" x="1589" y="-1007.7" font-family="Times,serif" font-size="14.00">REC_TEST_1::r1 &#45;&gt; [f.new00], </text>
<text text-anchor="start" x="1589" y="-991.2" font-family="Times,serif" font-size="14.00">rec_test_2::r1 &#45;&gt; [f.new00], </text>
<text text-anchor="start" x="1589" y="-974.7" font-family="Times,serif" font-size="14.00">}</text>
</g>
<!-- rec_test_2 specialinvoke rec_test_2::$r0.&lt;BasicTest: void &lt;init&gt;()&gt;() -->
<g id="node13" class="node">
<title>rec_test_2 specialinvoke rec_test_2::$r0.&lt;BasicTest: void &lt;init&gt;()&gt;()</title>
<polygon fill="none" stroke="black" points="1951.75,-734 1556.25,-734 1556.25,-698 1951.75,-698 1951.75,-734"/>
<text text-anchor="middle" x="1754" y="-710.95" font-family="Times,serif" font-size="14.00">rec_test_2 specialinvoke rec_test_2::$r0.&lt;BasicTest: void &lt;init&gt;()&gt;()</text>
</g>
<!-- rec_test_2 rec_test_2::$r0 = new BasicTest&#45;&gt;rec_test_2 specialinvoke rec_test_2::$r0.&lt;BasicTest: void &lt;init&gt;()&gt;() -->
<g id="edge10" class="edge">
<title>rec_test_2 rec_test_2::$r0 = new BasicTest&#45;&gt;rec_test_2 specialinvoke rec_test_2::$r0.&lt;BasicTest: void &lt;init&gt;()&gt;()</title>
<path fill="none" stroke="black" d="M1611.44,-901.21C1603.81,-896.63 1597.02,-890.83 1592,-883.5 1559,-835.26 1555.3,-797.48 1592,-752 1596.43,-746.51 1605.09,-741.85 1616.22,-737.88"/>
<polygon fill="black" stroke="black" points="1617.15,-741.26 1625.63,-734.9 1615.04,-734.59 1617.15,-741.26"/>
<text text-anchor="start" x="1592" y="-870.2" font-family="Times,serif" font-size="14.00">[BasicTest.f.in02, BasicTest.REC_TEST_1.in03] =&gt; {rec_test_2::$r0 &#45;&gt; [rec_test_2.new01], </text>
<text text-anchor="start" x="1592" y="-853.7" font-family="Times,serif" font-size="14.00">@parameter0: BasicTest &#45;&gt; [f.new00], </text>
<text text-anchor="start" x="1592" y="-837.2" font-family="Times,serif" font-size="14.00">f::$r0 &#45;&gt; [f.new00], </text>
<text text-anchor="start" x="1592" y="-820.7" font-family="Times,serif" font-size="14.00">REC_TEST_1::$r0 &#45;&gt; [REC_TEST_1.new01], </text>
<text text-anchor="start" x="1592" y="-804.2" font-family="Times,serif" font-size="14.00">REC_TEST_1::r1 &#45;&gt; [f.new00], </text>
<text text-anchor="start" x="1592" y="-787.7" font-family="Times,serif" font-size="14.00">rec_test_2::r1 &#45;&gt; [f.new00], </text>
<text text-anchor="start" x="1592" y="-771.2" font-family="Times,serif" font-size="14.00">}</text>
</g>
<!-- rec_test_2 rec_test_2::$r2 = rec_test_2::r1.&lt;BasicTest: BasicTest f&gt; -->
<g id="node14" class="node">
<title>rec_test_2 rec_test_2::$r2 = rec_test_2::r1.&lt;BasicTest: BasicTest f&gt;</title>
<polygon fill="none" stroke="black" points="1944.38,-530.5 1555.62,-530.5 1555.62,-494.5 1944.38,-494.5 1944.38,-530.5"/>
<text text-anchor="middle" x="1750" y="-507.45" font-family="Times,serif" font-size="14.00">rec_test_2 rec_test_2::$r2 = rec_test_2::r1.&lt;BasicTest: BasicTest f&gt;</text>
</g>
<!-- rec_test_2 specialinvoke rec_test_2::$r0.&lt;BasicTest: void &lt;init&gt;()&gt;()&#45;&gt;rec_test_2 rec_test_2::$r2 = rec_test_2::r1.&lt;BasicTest: BasicTest f&gt; -->
<g id="edge11" class="edge">
<title>rec_test_2 specialinvoke rec_test_2::$r0.&lt;BasicTest: void &lt;init&gt;()&gt;()&#45;&gt;rec_test_2 rec_test_2::$r2 = rec_test_2::r1.&lt;BasicTest: BasicTest f&gt;</title>
<path fill="none" stroke="black" d="M1609.69,-697.53C1593.65,-692.96 1580.94,-687.21 1575,-680 1556.42,-657.44 1556.47,-571.1 1575,-548.5 1579.51,-543 1588.04,-538.34 1599,-534.41"/>
<polygon fill="black" stroke="black" points="1599.79,-537.83 1608.25,-531.45 1597.66,-531.16 1599.79,-537.83"/>
<text text-anchor="start" x="1575" y="-666.7" font-family="Times,serif" font-size="14.00">[BasicTest.f.in02, BasicTest.REC_TEST_1.in03] =&gt; {rec_test_2::$r0 &#45;&gt; [rec_test_2.new01], </text>
<text text-anchor="start" x="1575" y="-650.2" font-family="Times,serif" font-size="14.00">@parameter0: BasicTest &#45;&gt; [f.new00], </text>
<text text-anchor="start" x="1575" y="-633.7" font-family="Times,serif" font-size="14.00">f::$r0 &#45;&gt; [f.new00], </text>
<text text-anchor="start" x="1575" y="-617.2" font-family="Times,serif" font-size="14.00">REC_TEST_1::$r0 &#45;&gt; [REC_TEST_1.new01], </text>
<text text-anchor="start" x="1575" y="-600.7" font-family="Times,serif" font-size="14.00">REC_TEST_1::r1 &#45;&gt; [f.new00], </text>
<text text-anchor="start" x="1575" y="-584.2" font-family="Times,serif" font-size="14.00">rec_test_2::r1 &#45;&gt; [f.new00], </text>
<text text-anchor="start" x="1575" y="-567.7" font-family="Times,serif" font-size="14.00">}</text>
</g>
<!-- rec_test_2 if rec_test_2::$r2 == null goto staticinvoke &lt;BasicTest: BasicTest rec_test_2(BasicTest)&gt;(rec_test_2::$r0) -->
<g id="node15" class="node">
<title>rec_test_2 if rec_test_2::$r2 == null goto staticinvoke &lt;BasicTest: BasicTest rec_test_2(BasicTest)&gt;(rec_test_2::$r0)</title>
<polygon fill="none" stroke="black" points="2211.88,-327 1556.12,-327 1556.12,-291 2211.88,-291 2211.88,-327"/>
<text text-anchor="middle" x="1884" y="-303.95" font-family="Times,serif" font-size="14.00">rec_test_2 if rec_test_2::$r2 == null goto staticinvoke &lt;BasicTest: BasicTest rec_test_2(BasicTest)&gt;(rec_test_2::$r0)</text>
</g>
<!-- rec_test_2 rec_test_2::$r2 = rec_test_2::r1.&lt;BasicTest: BasicTest f&gt;&#45;&gt;rec_test_2 if rec_test_2::$r2 == null goto staticinvoke &lt;BasicTest: BasicTest rec_test_2(BasicTest)&gt;(rec_test_2::$r0) -->
<g id="edge12" class="edge">
<title>rec_test_2 rec_test_2::$r2 = rec_test_2::r1.&lt;BasicTest: BasicTest f&gt;&#45;&gt;rec_test_2 if rec_test_2::$r2 == null goto staticinvoke &lt;BasicTest: BasicTest rec_test_2(BasicTest)&gt;(rec_test_2::$r0)</title>
<path fill="none" stroke="red" d="M1725.93,-494.2C1720.69,-489.14 1715.87,-483.16 1713,-476.5 1689.89,-422.82 1676.05,-390.28 1713,-345 1717.51,-339.47 1726.15,-334.79 1737.24,-330.84"/>
<polygon fill="red" stroke="red" points="1738.15,-334.22 1746.62,-327.87 1736.03,-327.55 1738.15,-334.22"/>
<text text-anchor="start" x="1713" y="-463.2" font-family="Times,serif" font-size="14.00">[BasicTest.f.in02, BasicTest.REC_TEST_1.in03] =&gt; {rec_test_2::$r0 &#45;&gt; [rec_test_2.new01], </text>
<text text-anchor="start" x="1713" y="-446.7" font-family="Times,serif" font-size="14.00">@parameter0: BasicTest &#45;&gt; [f.new00], </text>
<text text-anchor="start" x="1713" y="-430.2" font-family="Times,serif" font-size="14.00">f::$r0 &#45;&gt; [f.new00], </text>
<text text-anchor="start" x="1713" y="-413.7" font-family="Times,serif" font-size="14.00">REC_TEST_1::$r0 &#45;&gt; [REC_TEST_1.new01], </text>
<text text-anchor="start" x="1713" y="-397.2" font-family="Times,serif" font-size="14.00">REC_TEST_1::r1 &#45;&gt; [f.new00], </text>
<text text-anchor="start" x="1713" y="-380.7" font-family="Times,serif" font-size="14.00">rec_test_2::r1 &#45;&gt; [f.new00], </text>
<text text-anchor="start" x="1713" y="-364.2" font-family="Times,serif" font-size="14.00">}</text>
</g>
<!-- rec_test_2 return null -->
<g id="node16" class="node">
<title>rec_test_2 return null</title>
<polygon fill="none" stroke="black" points="1703.12,-156.5 1570.88,-156.5 1570.88,-120.5 1703.12,-120.5 1703.12,-156.5"/>
<text text-anchor="middle" x="1637" y="-133.45" font-family="Times,serif" font-size="14.00">rec_test_2 return null</text>
</g>
<!-- rec_test_2 if rec_test_2::$r2 == null goto staticinvoke &lt;BasicTest: BasicTest rec_test_2(BasicTest)&gt;(rec_test_2::$r0)&#45;&gt;rec_test_2 return null -->
<g id="edge13" class="edge">
<title>rec_test_2 if rec_test_2::$r2 == null goto staticinvoke &lt;BasicTest: BasicTest rec_test_2(BasicTest)&gt;(rec_test_2::$r0)&#45;&gt;rec_test_2 return null</title>
<path fill="none" stroke="red" d="M1858.5,-290.6C1814.01,-260.25 1722.17,-197.6 1671.85,-163.27"/>
<polygon fill="red" stroke="red" points="1673.85,-160.4 1663.61,-157.66 1669.9,-166.18 1673.85,-160.4"/>
<text text-anchor="start" x="1830" y="-226.7" font-family="Times,serif" font-size="14.00">[] =&gt; {}</text>
</g>
<!-- rec_test_2 staticinvoke &lt;BasicTest: BasicTest rec_test_2(BasicTest)&gt;(rec_test_2::$r0) -->
<g id="node17" class="node">
<title>rec_test_2 staticinvoke &lt;BasicTest: BasicTest rec_test_2(BasicTest)&gt;(rec_test_2::$r0)</title>
<polygon fill="none" stroke="black" points="2207.12,-156.5 1720.88,-156.5 1720.88,-120.5 2207.12,-120.5 2207.12,-156.5"/>
<text text-anchor="middle" x="1964" y="-133.45" font-family="Times,serif" font-size="14.00">rec_test_2 staticinvoke &lt;BasicTest: BasicTest rec_test_2(BasicTest)&gt;(rec_test_2::$r0)</text>
</g>
<!-- rec_test_2 if rec_test_2::$r2 == null goto staticinvoke &lt;BasicTest: BasicTest rec_test_2(BasicTest)&gt;(rec_test_2::$r0)&#45;&gt;rec_test_2 staticinvoke &lt;BasicTest: BasicTest rec_test_2(BasicTest)&gt;(rec_test_2::$r0) -->
<g id="edge14" class="edge">
<title>rec_test_2 if rec_test_2::$r2 == null goto staticinvoke &lt;BasicTest: BasicTest rec_test_2(BasicTest)&gt;(rec_test_2::$r0)&#45;&gt;rec_test_2 staticinvoke &lt;BasicTest: BasicTest rec_test_2(BasicTest)&gt;(rec_test_2::$r0)</title>
<path fill="none" stroke="red" d="M1892.26,-290.6C1906.23,-261.19 1934.6,-201.43 1951.17,-166.53"/>
<polygon fill="red" stroke="red" points="1954.13,-168.45 1955.25,-157.92 1947.8,-165.45 1954.13,-168.45"/>
<text text-anchor="start" x="1946" y="-226.7" font-family="Times,serif" font-size="14.00">[] =&gt; {}</text>
</g>
<!-- rec_test_2 return null&#45;&gt;REC_TEST_1 return REC_TEST_1::$r0 -->
<g id="edge20" class="edge">
<title>rec_test_2 return null&#45;&gt;REC_TEST_1 return REC_TEST_1::$r0</title>
<path fill="none" stroke="black" stroke-dasharray="1,5" d="M1570.53,-129.07C1437.09,-112.14 1134.45,-73.75 959.84,-51.6"/>
<polygon fill="black" stroke="black" points="960.39,-48.14 950.03,-50.35 959.51,-55.08 960.39,-48.14"/>
<text text-anchor="middle" x="1433.75" y="-81.2" font-family="Times,serif" font-size="14.00">BasicTest.REC_TEST_1.in03</text>
</g>
<!-- rec_test_2 return rec_test_2::$r0 -->
<g id="node18" class="node">
<title>rec_test_2 return rec_test_2::$r0</title>
<polygon fill="none" stroke="black" points="1748.12,-52 1555.88,-52 1555.88,-16 1748.12,-16 1748.12,-52"/>
<text text-anchor="middle" x="1652" y="-28.95" font-family="Times,serif" font-size="14.00">rec_test_2 return rec_test_2::$r0</text>
</g>
<!-- rec_test_2 return null&#45;&gt;rec_test_2 return rec_test_2::$r0 -->
<g id="edge19" class="edge">
<title>rec_test_2 return null&#45;&gt;rec_test_2 return rec_test_2::$r0</title>
<path fill="none" stroke="red" stroke-dasharray="1,5" d="M1639.54,-120.11C1641.8,-104.72 1645.13,-81.96 1647.78,-63.85"/>
<polygon fill="red" stroke="red" points="1651.24,-64.37 1649.22,-53.97 1644.31,-63.36 1651.24,-64.37"/>
<text text-anchor="middle" x="1716.12" y="-81.2" font-family="Times,serif" font-size="14.00">BasicTest.rec_test_2.in06</text>
</g>
<!-- rec_test_2 staticinvoke &lt;BasicTest: BasicTest rec_test_2(BasicTest)&gt;(rec_test_2::$r0)&#45;&gt;rec_test_2 rec_test_2::r1 := @parameter0: BasicTest -->
<g id="edge21" class="edge">
<title>rec_test_2 staticinvoke &lt;BasicTest: BasicTest rec_test_2(BasicTest)&gt;(rec_test_2::$r0)&#45;&gt;rec_test_2 rec_test_2::r1 := @parameter0: BasicTest</title>
<path fill="none" stroke="black" stroke-dasharray="1,5" d="M2023.77,-156.92C2084.52,-178.04 2175.92,-219.93 2221,-291 2267.9,-364.95 2170.32,-1012.18 2105,-1070.5 2087.18,-1086.41 1973.1,-1095.34 1871.77,-1100.19"/>
<polygon fill="black" stroke="black" points="1871.78,-1096.68 1861.95,-1100.65 1872.1,-1103.68 1871.78,-1096.68"/>
<text text-anchor="middle" x="2480" y="-658.45" font-family="Times,serif" font-size="14.00">BasicTest.rec_test_2.in06</text>
<text text-anchor="start" x="2222" y="-641.95" font-family="Times,serif" font-size="14.00">[BasicTest.f.in02, BasicTest.REC_TEST_1.in03] =&gt; {@parameter0: BasicTest &#45;&gt; [f.new00], </text>
<text text-anchor="start" x="2222" y="-625.45" font-family="Times,serif" font-size="14.00">f::$r0 &#45;&gt; [f.new00], </text>
<text text-anchor="start" x="2222" y="-608.95" font-family="Times,serif" font-size="14.00">REC_TEST_1::$r0 &#45;&gt; [REC_TEST_1.new01], </text>
<text text-anchor="start" x="2222" y="-592.45" font-family="Times,serif" font-size="14.00">REC_TEST_1::r1 &#45;&gt; [f.new00], </text>
<text text-anchor="start" x="2222" y="-575.95" font-family="Times,serif" font-size="14.00">}</text>
</g>
<!-- rec_test_2 staticinvoke &lt;BasicTest: BasicTest rec_test_2(BasicTest)&gt;(rec_test_2::$r0)&#45;&gt;rec_test_2 return rec_test_2::$r0 -->
<g id="edge15" class="edge">
<title>rec_test_2 staticinvoke &lt;BasicTest: BasicTest rec_test_2(BasicTest)&gt;(rec_test_2::$r0)&#45;&gt;rec_test_2 return rec_test_2::$r0</title>
<path fill="none" stroke="red" d="M1923.37,-120.12C1888.42,-105.56 1836.45,-84.84 1790,-70 1773.58,-64.76 1755.87,-59.77 1738.79,-55.29"/>
<polygon fill="red" stroke="red" points="1739.7,-51.91 1729.14,-52.81 1737.95,-58.69 1739.7,-51.91"/>
<text text-anchor="start" x="1876" y="-89.2" font-family="Times,serif" font-size="14.00">[] =&gt; {}</text>
</g>
<!-- rec_test_2 return rec_test_2::$r0&#45;&gt;REC_TEST_1 return REC_TEST_1::$r0 -->
<g id="edge23" class="edge">
<title>rec_test_2 return rec_test_2::$r0&#45;&gt;REC_TEST_1 return REC_TEST_1::$r0</title>
<path fill="none" stroke="black" stroke-dasharray="1,5" d="M1555.63,-34C1408.08,-34 1125.88,-34 959.92,-34"/>
<polygon fill="black" stroke="black" points="960.18,-30.5 950.18,-34 960.18,-37.5 960.18,-30.5"/>
<text text-anchor="middle" x="1252.12" y="-40.2" font-family="Times,serif" font-size="14.00">BasicTest.REC_TEST_1.in03</text>
</g>
<!-- rec_test_2 return rec_test_2::$r0&#45;&gt;rec_test_2 return rec_test_2::$r0 -->
<g id="edge22" class="edge">
<title>rec_test_2 return rec_test_2::$r0&#45;&gt;rec_test_2 return rec_test_2::$r0</title>
<path fill="none" stroke="red" stroke-dasharray="1,5" d="M1748.58,-42.24C1759.24,-40.68 1766.12,-37.93 1766.12,-34 1766.12,-31.67 1763.7,-29.75 1759.5,-28.25"/>
<polygon fill="red" stroke="red" points="1760.58,-24.91 1750.06,-26.1 1759.03,-31.73 1760.58,-24.91"/>
<text text-anchor="middle" x="1836.25" y="-28.95" font-family="Times,serif" font-size="14.00">BasicTest.rec_test_2.in06</text>
</g>
</g>
</svg>
