<?xml version="1.0" encoding="UTF-8" standalone="no"?>
<!DOCTYPE svg PUBLIC "-//W3C//DTD SVG 1.1//EN"
 "http://www.w3.org/Graphics/SVG/1.1/DTD/svg11.dtd">
<!-- Generated by graphviz version 9.0.0 (20230911.1827)
 -->
<!-- Title: G Pages: 1 -->
<svg width="2652pt" height="2789pt"
 viewBox="0.00 0.00 2651.50 2788.50" xmlns="http://www.w3.org/2000/svg" xmlns:xlink="http://www.w3.org/1999/xlink">
<g id="graph0" class="graph" transform="scale(1 1) rotate(0) translate(4 2784.5)">
<title>G</title>
<polygon fill="white" stroke="none" points="-4,4 -4,-2784.5 2647.5,-2784.5 2647.5,4 -4,4"/>
<g id="clust1" class="cluster">
<title>cluster_0</title>
<polygon fill="none" stroke="black" points="8,-8 8,-2772.5 460,-2772.5 460,-8 8,-8"/>
</g>
<g id="clust2" class="cluster">
<title>cluster_1</title>
<polygon fill="none" stroke="black" points="824,-1059.5 824,-2041.5 1266,-2041.5 1266,-1059.5 824,-1059.5"/>
</g>
<g id="clust3" class="cluster">
<title>cluster_2</title>
<polygon fill="none" stroke="black" points="1274,-284 1274,-1111.5 1714,-1111.5 1714,-284 1274,-284"/>
</g>
<g id="clust4" class="cluster">
<title>cluster_3</title>
<polygon fill="none" stroke="black" points="2125,-708 2125,-1111.5 2560,-1111.5 2560,-708 2125,-708"/>
</g>
<!-- test2 test2::r4 = null -->
<g id="node1" class="node">
<title>test2 test2::r4 = null</title>
<polygon fill="none" stroke="black" points="297.12,-2764.5 170.88,-2764.5 170.88,-2728.5 297.12,-2728.5 297.12,-2764.5"/>
<text text-anchor="middle" x="234" y="-2741.45" font-family="Times,serif" font-size="14.00">test2 test2::r4 = null</text>
</g>
<!-- test2 test2::$r0 = new PubTest -->
<g id="node2" class="node">
<title>test2 test2::$r0 = new PubTest</title>
<polygon fill="none" stroke="black" points="325.25,-2643.5 142.75,-2643.5 142.75,-2607.5 325.25,-2607.5 325.25,-2643.5"/>
<text text-anchor="middle" x="234" y="-2620.45" font-family="Times,serif" font-size="14.00">test2 test2::$r0 = new PubTest</text>
</g>
<!-- test2 test2::r4 = null&#45;&gt;test2 test2::$r0 = new PubTest -->
<g id="edge1" class="edge">
<title>test2 test2::r4 = null&#45;&gt;test2 test2::$r0 = new PubTest</title>
<path fill="none" stroke="black" d="M234,-2728.2C234,-2709.07 234,-2677.96 234,-2655.18"/>
<polygon fill="black" stroke="black" points="237.5,-2655.34 234,-2645.34 230.5,-2655.34 237.5,-2655.34"/>
<text text-anchor="start" x="234" y="-2697.2" font-family="Times,serif" font-size="14.00">[] =&gt; {test2::r4 &#45;&gt; [null], </text>
<text text-anchor="start" x="234" y="-2680.7" font-family="Times,serif" font-size="14.00">}</text>
</g>
<!-- test2 specialinvoke test2::$r0.&lt;PubTest: void &lt;init&gt;()&gt;() -->
<g id="node3" class="node">
<title>test2 specialinvoke test2::$r0.&lt;PubTest: void &lt;init&gt;()&gt;()</title>
<polygon fill="none" stroke="black" points="397.25,-2506 70.75,-2506 70.75,-2470 397.25,-2470 397.25,-2506"/>
<text text-anchor="middle" x="234" y="-2482.95" font-family="Times,serif" font-size="14.00">test2 specialinvoke test2::$r0.&lt;PubTest: void &lt;init&gt;()&gt;()</text>
</g>
<!-- test2 test2::$r0 = new PubTest&#45;&gt;test2 specialinvoke test2::$r0.&lt;PubTest: void &lt;init&gt;()&gt;() -->
<g id="edge2" class="edge">
<title>test2 test2::$r0 = new PubTest&#45;&gt;test2 specialinvoke test2::$r0.&lt;PubTest: void &lt;init&gt;()&gt;()</title>
<path fill="none" stroke="black" d="M234,-2607.06C234,-2584.5 234,-2544.88 234,-2517.82"/>
<polygon fill="black" stroke="black" points="237.5,-2517.88 234,-2507.88 230.5,-2517.88 237.5,-2517.88"/>
<text text-anchor="start" x="234" y="-2576.2" font-family="Times,serif" font-size="14.00">[] =&gt; {test2::r4 &#45;&gt; [null], </text>
<text text-anchor="start" x="234" y="-2559.7" font-family="Times,serif" font-size="14.00">test2::$r0 &#45;&gt; [test2.new01], </text>
<text text-anchor="start" x="234" y="-2543.2" font-family="Times,serif" font-size="14.00">}</text>
</g>
<!-- test2 test2::$r1 = staticinvoke &lt;PubTest: PubTest foo2(PubTest)&gt;(test2::$r0) -->
<g id="node4" class="node">
<title>test2 test2::$r1 = staticinvoke &lt;PubTest: PubTest foo2(PubTest)&gt;(test2::$r0)</title>
<polygon fill="none" stroke="black" points="451.62,-2368.5 16.38,-2368.5 16.38,-2332.5 451.62,-2332.5 451.62,-2368.5"/>
<text text-anchor="middle" x="234" y="-2345.45" font-family="Times,serif" font-size="14.00">test2 test2::$r1 = staticinvoke &lt;PubTest: PubTest foo2(PubTest)&gt;(test2::$r0)</text>
</g>
<!-- test2 specialinvoke test2::$r0.&lt;PubTest: void &lt;init&gt;()&gt;()&#45;&gt;test2 test2::$r1 = staticinvoke &lt;PubTest: PubTest foo2(PubTest)&gt;(test2::$r0) -->
<g id="edge3" class="edge">
<title>test2 specialinvoke test2::$r0.&lt;PubTest: void &lt;init&gt;()&gt;()&#45;&gt;test2 test2::$r1 = staticinvoke &lt;PubTest: PubTest foo2(PubTest)&gt;(test2::$r0)</title>
<path fill="none" stroke="black" d="M234,-2469.56C234,-2447 234,-2407.38 234,-2380.32"/>
<polygon fill="black" stroke="black" points="237.5,-2380.38 234,-2370.38 230.5,-2380.38 237.5,-2380.38"/>
<text text-anchor="start" x="234" y="-2438.7" font-family="Times,serif" font-size="14.00">[] =&gt; {test2::r4 &#45;&gt; [null], </text>
<text text-anchor="start" x="234" y="-2422.2" font-family="Times,serif" font-size="14.00">test2::$r0 &#45;&gt; [test2.new01], </text>
<text text-anchor="start" x="234" y="-2405.7" font-family="Times,serif" font-size="14.00">}</text>
</g>
<!-- test2 test2::$r2 = new PubTest -->
<g id="node5" class="node">
<title>test2 test2::$r2 = new PubTest</title>
<polygon fill="none" stroke="black" points="325.25,-2033.5 142.75,-2033.5 142.75,-1997.5 325.25,-1997.5 325.25,-2033.5"/>
<text text-anchor="middle" x="234" y="-2010.45" font-family="Times,serif" font-size="14.00">test2 test2::$r2 = new PubTest</text>
</g>
<!-- test2 test2::$r1 = staticinvoke &lt;PubTest: PubTest foo2(PubTest)&gt;(test2::$r0)&#45;&gt;test2 test2::$r2 = new PubTest -->
<g id="edge4" class="edge">
<title>test2 test2::$r1 = staticinvoke &lt;PubTest: PubTest foo2(PubTest)&gt;(test2::$r0)&#45;&gt;test2 test2::$r2 = new PubTest</title>
<path fill="none" stroke="black" d="M234,-2332.07C234,-2277.89 234,-2112.12 234,-2045.08"/>
<polygon fill="black" stroke="black" points="237.5,-2045.28 234,-2035.28 230.5,-2045.28 237.5,-2045.28"/>
<text text-anchor="start" x="234" y="-2243.7" font-family="Times,serif" font-size="14.00">[] =&gt; {test2::$r3 &#45;&gt; [test2.new04], </text>
<text text-anchor="start" x="234" y="-2227.2" font-family="Times,serif" font-size="14.00">test2::$r2 &#45;&gt; [test2.new04], </text>
<text text-anchor="start" x="234" y="-2210.7" font-family="Times,serif" font-size="14.00">foo2::r0 &#45;&gt; [test2.new04], </text>
<text text-anchor="start" x="234" y="-2194.2" font-family="Times,serif" font-size="14.00">bar3::r0 &#45;&gt; [test2.new04], </text>
<text text-anchor="start" x="234" y="-2177.7" font-family="Times,serif" font-size="14.00">bar2::$r1 &#45;&gt; [test2.new04], </text>
<text text-anchor="start" x="234" y="-2161.2" font-family="Times,serif" font-size="14.00">bar2::r0 &#45;&gt; [test2.new04], </text>
<text text-anchor="start" x="234" y="-2144.7" font-family="Times,serif" font-size="14.00">foo2::$r1 &#45;&gt; [test2.new04]</text>
<text text-anchor="start" x="234" y="-2128.2" font-family="Times,serif" font-size="14.00">}</text>
</g>
<!-- foo2 foo2::r0 := @parameter0: PubTest -->
<g id="node11" class="node">
<title>foo2 foo2::r0 := @parameter0: PubTest</title>
<polygon fill="none" stroke="black" points="1065.75,-2033.5 832.25,-2033.5 832.25,-1997.5 1065.75,-1997.5 1065.75,-2033.5"/>
<text text-anchor="middle" x="949" y="-2010.45" font-family="Times,serif" font-size="14.00">foo2 foo2::r0 := @parameter0: PubTest</text>
</g>
<!-- test2 test2::$r1 = staticinvoke &lt;PubTest: PubTest foo2(PubTest)&gt;(test2::$r0)&#45;&gt;foo2 foo2::r0 := @parameter0: PubTest -->
<g id="edge16" class="edge">
<title>test2 test2::$r1 = staticinvoke &lt;PubTest: PubTest foo2(PubTest)&gt;(test2::$r0)&#45;&gt;foo2 foo2::r0 := @parameter0: PubTest</title>
<path fill="none" stroke="black" stroke-dasharray="1,5" d="M368.64,-2332.01C389.83,-2327.43 411.25,-2321.69 431,-2314.5 628.68,-2242.58 838.17,-2097.65 916.75,-2040.47"/>
<polygon fill="black" stroke="black" points="918.45,-2043.57 924.46,-2034.84 914.32,-2037.92 918.45,-2043.57"/>
<text text-anchor="middle" x="1046" y="-2301.2" font-family="Times,serif" font-size="14.00">PubTest.test2.in03</text>
<text text-anchor="start" x="899" y="-2284.7" font-family="Times,serif" font-size="14.00">[PubTest.test2.in06] =&gt; {test2::$r3 &#45;&gt; [test2.new04], </text>
<text text-anchor="start" x="899" y="-2268.2" font-family="Times,serif" font-size="14.00">test2::$r2 &#45;&gt; [test2.new04], </text>
<text text-anchor="start" x="899" y="-2251.7" font-family="Times,serif" font-size="14.00">foo2::r0 &#45;&gt; [test2.new04], </text>
<text text-anchor="start" x="899" y="-2235.2" font-family="Times,serif" font-size="14.00">bar3::r0 &#45;&gt; [test2.new04], </text>
<text text-anchor="start" x="899" y="-2218.7" font-family="Times,serif" font-size="14.00">bar2::$r1 &#45;&gt; [test2.new04], </text>
<text text-anchor="start" x="899" y="-2202.2" font-family="Times,serif" font-size="14.00">bar2::r0 &#45;&gt; [test2.new04], </text>
<text text-anchor="start" x="899" y="-2185.7" font-family="Times,serif" font-size="14.00">@parameter0: PubTest &#45;&gt; [test2.new04], </text>
<text text-anchor="start" x="899" y="-2169.2" font-family="Times,serif" font-size="14.00">foo2::$r1 &#45;&gt; [test2.new04]</text>
<text text-anchor="start" x="899" y="-2152.7" font-family="Times,serif" font-size="14.00">}</text>
<text text-anchor="start" x="899" y="-2120.2" font-family="Times,serif" font-size="14.00">[PubTest.test2.in03] =&gt; {test2::r4 &#45;&gt; [null], </text>
<text text-anchor="start" x="899" y="-2103.7" font-family="Times,serif" font-size="14.00">test2::$r0 &#45;&gt; [test2.new01], </text>
<text text-anchor="start" x="899" y="-2087.2" font-family="Times,serif" font-size="14.00">@parameter0: PubTest &#45;&gt; [test2.new01], </text>
<text text-anchor="start" x="899" y="-2070.7" font-family="Times,serif" font-size="14.00">}</text>
</g>
<!-- test2 specialinvoke test2::$r2.&lt;PubTest: void &lt;init&gt;()&gt;() -->
<g id="node6" class="node">
<title>test2 specialinvoke test2::$r2.&lt;PubTest: void &lt;init&gt;()&gt;()</title>
<polygon fill="none" stroke="black" points="342.25,-1585 15.75,-1585 15.75,-1549 342.25,-1549 342.25,-1585"/>
<text text-anchor="middle" x="179" y="-1561.95" font-family="Times,serif" font-size="14.00">test2 specialinvoke test2::$r2.&lt;PubTest: void &lt;init&gt;()&gt;()</text>
</g>
<!-- test2 test2::$r2 = new PubTest&#45;&gt;test2 specialinvoke test2::$r2.&lt;PubTest: void &lt;init&gt;()&gt;() -->
<g id="edge5" class="edge">
<title>test2 test2::$r2 = new PubTest&#45;&gt;test2 specialinvoke test2::$r2.&lt;PubTest: void &lt;init&gt;()&gt;()</title>
<path fill="none" stroke="black" d="M192.93,-1997.04C186.25,-1992.34 180.22,-1986.55 176.25,-1979.5 104.66,-1852.4 149.02,-1666.26 169.91,-1596.13"/>
<polygon fill="black" stroke="black" points="173.25,-1597.19 172.83,-1586.6 166.55,-1595.13 173.25,-1597.19"/>
<text text-anchor="start" x="177" y="-1908.7" font-family="Times,serif" font-size="14.00">[] =&gt; {test2::$r3 &#45;&gt; [test2.new04], </text>
<text text-anchor="start" x="177" y="-1892.2" font-family="Times,serif" font-size="14.00">test2::$r2 &#45;&gt; [test2.new04], </text>
<text text-anchor="start" x="177" y="-1875.7" font-family="Times,serif" font-size="14.00">foo2::r0 &#45;&gt; [test2.new04], </text>
<text text-anchor="start" x="177" y="-1859.2" font-family="Times,serif" font-size="14.00">bar3::r0 &#45;&gt; [test2.new04], </text>
<text text-anchor="start" x="177" y="-1842.7" font-family="Times,serif" font-size="14.00">bar2::$r1 &#45;&gt; [test2.new04], </text>
<text text-anchor="start" x="177" y="-1826.2" font-family="Times,serif" font-size="14.00">bar2::r0 &#45;&gt; [test2.new04], </text>
<text text-anchor="start" x="177" y="-1809.7" font-family="Times,serif" font-size="14.00">foo2::$r1 &#45;&gt; [test2.new04]</text>
<text text-anchor="start" x="177" y="-1793.2" font-family="Times,serif" font-size="14.00">}</text>
</g>
<!-- test2 test2::$r3 = staticinvoke &lt;PubTest: PubTest foo2(PubTest)&gt;(test2::$r2) -->
<g id="node7" class="node">
<title>test2 test2::$r3 = staticinvoke &lt;PubTest: PubTest foo2(PubTest)&gt;(test2::$r2)</title>
<polygon fill="none" stroke="black" points="451.62,-1103.5 16.38,-1103.5 16.38,-1067.5 451.62,-1067.5 451.62,-1103.5"/>
<text text-anchor="middle" x="234" y="-1080.45" font-family="Times,serif" font-size="14.00">test2 test2::$r3 = staticinvoke &lt;PubTest: PubTest foo2(PubTest)&gt;(test2::$r2)</text>
</g>
<!-- test2 specialinvoke test2::$r2.&lt;PubTest: void &lt;init&gt;()&gt;()&#45;&gt;test2 test2::$r3 = staticinvoke &lt;PubTest: PubTest foo2(PubTest)&gt;(test2::$r2) -->
<g id="edge6" class="edge">
<title>test2 specialinvoke test2::$r2.&lt;PubTest: void &lt;init&gt;()&gt;()&#45;&gt;test2 test2::$r3 = staticinvoke &lt;PubTest: PubTest foo2(PubTest)&gt;(test2::$r2)</title>
<path fill="none" stroke="black" d="M173.24,-1548.79C153.46,-1486.34 93.88,-1267.74 176.25,-1121.5 178.36,-1117.76 181.05,-1114.37 184.11,-1111.31"/>
<polygon fill="black" stroke="black" points="186.32,-1114.02 191.77,-1104.93 181.84,-1108.64 186.32,-1114.02"/>
<text text-anchor="start" x="177" y="-1330.2" font-family="Times,serif" font-size="14.00">[] =&gt; {test2::$r3 &#45;&gt; [test2.new04], </text>
<text text-anchor="start" x="177" y="-1313.7" font-family="Times,serif" font-size="14.00">test2::$r2 &#45;&gt; [test2.new04], </text>
<text text-anchor="start" x="177" y="-1297.2" font-family="Times,serif" font-size="14.00">foo2::r0 &#45;&gt; [test2.new04], </text>
<text text-anchor="start" x="177" y="-1280.7" font-family="Times,serif" font-size="14.00">bar3::r0 &#45;&gt; [test2.new04], </text>
<text text-anchor="start" x="177" y="-1264.2" font-family="Times,serif" font-size="14.00">bar2::$r1 &#45;&gt; [test2.new04], </text>
<text text-anchor="start" x="177" y="-1247.7" font-family="Times,serif" font-size="14.00">bar2::r0 &#45;&gt; [test2.new04], </text>
<text text-anchor="start" x="177" y="-1231.2" font-family="Times,serif" font-size="14.00">foo2::$r1 &#45;&gt; [test2.new04]</text>
<text text-anchor="start" x="177" y="-1214.7" font-family="Times,serif" font-size="14.00">}</text>
</g>
<!-- test2 if test2::$r1 != test2::$r3 goto return test2::r4 -->
<g id="node8" class="node">
<title>test2 if test2::$r1 != test2::$r3 goto return test2::r4</title>
<polygon fill="none" stroke="black" points="394.62,-752 103.38,-752 103.38,-716 394.62,-716 394.62,-752"/>
<text text-anchor="middle" x="249" y="-728.95" font-family="Times,serif" font-size="14.00">test2 if test2::$r1 != test2::$r3 goto return test2::r4</text>
</g>
<!-- test2 test2::$r3 = staticinvoke &lt;PubTest: PubTest foo2(PubTest)&gt;(test2::$r2)&#45;&gt;test2 if test2::$r1 != test2::$r3 goto return test2::r4 -->
<g id="edge7" class="edge">
<title>test2 test2::$r3 = staticinvoke &lt;PubTest: PubTest foo2(PubTest)&gt;(test2::$r2)&#45;&gt;test2 if test2::$r1 != test2::$r3 goto return test2::r4</title>
<path fill="none" stroke="black" d="M234.74,-1067.17C237.15,-1011.04 244.76,-833.82 247.76,-763.83"/>
<polygon fill="black" stroke="black" points="251.25,-764.09 248.19,-753.95 244.26,-763.79 251.25,-764.09"/>
<text text-anchor="start" x="248" y="-970.45" font-family="Times,serif" font-size="14.00">[] =&gt; {test2::$r3 &#45;&gt; [test2.new04], </text>
<text text-anchor="start" x="248" y="-953.95" font-family="Times,serif" font-size="14.00">test2::$r2 &#45;&gt; [test2.new04], </text>
<text text-anchor="start" x="248" y="-937.45" font-family="Times,serif" font-size="14.00">foo2::r0 &#45;&gt; [test2.new04], </text>
<text text-anchor="start" x="248" y="-920.95" font-family="Times,serif" font-size="14.00">bar3::r0 &#45;&gt; [test2.new04], </text>
<text text-anchor="start" x="248" y="-904.45" font-family="Times,serif" font-size="14.00">bar2::$r1 &#45;&gt; [test2.new04], </text>
<text text-anchor="start" x="248" y="-887.95" font-family="Times,serif" font-size="14.00">bar2::r0 &#45;&gt; [test2.new04], </text>
<text text-anchor="start" x="248" y="-871.45" font-family="Times,serif" font-size="14.00">foo2::$r1 &#45;&gt; [test2.new04]</text>
<text text-anchor="start" x="248" y="-854.95" font-family="Times,serif" font-size="14.00">}</text>
</g>
<!-- test2 test2::$r3 = staticinvoke &lt;PubTest: PubTest foo2(PubTest)&gt;(test2::$r2)&#45;&gt;foo2 foo2::r0 := @parameter0: PubTest -->
<g id="edge17" class="edge">
<title>test2 test2::$r3 = staticinvoke &lt;PubTest: PubTest foo2(PubTest)&gt;(test2::$r2)&#45;&gt;foo2 foo2::r0 := @parameter0: PubTest</title>
<path fill="none" stroke="black" stroke-dasharray="1,5" d="M346.31,-1103.96C356.35,-1108.56 365.81,-1114.32 374,-1121.5 486.82,-1220.42 461.36,-1290 498,-1435.5 526.74,-1549.63 470.36,-1596.45 529,-1698.5 615.37,-1848.81 804.85,-1950.05 896.84,-1992.28"/>
<polygon fill="black" stroke="black" points="895.36,-1995.45 905.91,-1996.39 898.25,-1989.08 895.36,-1995.45"/>
<text text-anchor="middle" x="676" y="-1685.2" font-family="Times,serif" font-size="14.00">PubTest.test2.in06</text>
<text text-anchor="start" x="529" y="-1668.7" font-family="Times,serif" font-size="14.00">[PubTest.test2.in06] =&gt; {test2::$r3 &#45;&gt; [test2.new04], </text>
<text text-anchor="start" x="529" y="-1652.2" font-family="Times,serif" font-size="14.00">test2::$r2 &#45;&gt; [test2.new04], </text>
<text text-anchor="start" x="529" y="-1635.7" font-family="Times,serif" font-size="14.00">foo2::r0 &#45;&gt; [test2.new04], </text>
<text text-anchor="start" x="529" y="-1619.2" font-family="Times,serif" font-size="14.00">bar3::r0 &#45;&gt; [test2.new04], </text>
<text text-anchor="start" x="529" y="-1602.7" font-family="Times,serif" font-size="14.00">bar2::$r1 &#45;&gt; [test2.new04], </text>
<text text-anchor="start" x="529" y="-1586.2" font-family="Times,serif" font-size="14.00">bar2::r0 &#45;&gt; [test2.new04], </text>
<text text-anchor="start" x="529" y="-1569.7" font-family="Times,serif" font-size="14.00">@parameter0: PubTest &#45;&gt; [test2.new04], </text>
<text text-anchor="start" x="529" y="-1553.2" font-family="Times,serif" font-size="14.00">foo2::$r1 &#45;&gt; [test2.new04]</text>
<text text-anchor="start" x="529" y="-1536.7" font-family="Times,serif" font-size="14.00">}</text>
<text text-anchor="start" x="529" y="-1504.2" font-family="Times,serif" font-size="14.00">[PubTest.test2.in03] =&gt; {test2::r4 &#45;&gt; [null], </text>
<text text-anchor="start" x="529" y="-1487.7" font-family="Times,serif" font-size="14.00">test2::$r0 &#45;&gt; [test2.new01], </text>
<text text-anchor="start" x="529" y="-1471.2" font-family="Times,serif" font-size="14.00">@parameter0: PubTest &#45;&gt; [test2.new01], </text>
<text text-anchor="start" x="529" y="-1454.7" font-family="Times,serif" font-size="14.00">}</text>
</g>
<!-- test2 test2::r4 = test2::$r1 -->
<g id="node9" class="node">
<title>test2 test2::r4 = test2::$r1</title>
<polygon fill="none" stroke="black" points="200.12,-328 43.88,-328 43.88,-292 200.12,-292 200.12,-328"/>
<text text-anchor="middle" x="122" y="-304.95" font-family="Times,serif" font-size="14.00">test2 test2::r4 = test2::$r1</text>
</g>
<!-- test2 if test2::$r1 != test2::$r3 goto return test2::r4&#45;&gt;test2 test2::r4 = test2::$r1 -->
<g id="edge8" class="edge">
<title>test2 if test2::$r1 != test2::$r3 goto return test2::r4&#45;&gt;test2 test2::r4 = test2::$r1</title>
<path fill="none" stroke="black" d="M243.78,-715.67C224.19,-650.55 154.82,-420.07 130.5,-339.25"/>
<polygon fill="black" stroke="black" points="133.86,-338.26 127.62,-329.69 127.16,-340.27 133.86,-338.26"/>
</g>
<!-- test2 return test2::r4 -->
<g id="node10" class="node">
<title>test2 return test2::r4</title>
<polygon fill="none" stroke="black" points="224.75,-52 99.25,-52 99.25,-16 224.75,-16 224.75,-52"/>
<text text-anchor="middle" x="162" y="-28.95" font-family="Times,serif" font-size="14.00">test2 return test2::r4</text>
</g>
<!-- test2 if test2::$r1 != test2::$r3 goto return test2::r4&#45;&gt;test2 return test2::r4 -->
<g id="edge9" class="edge">
<title>test2 if test2::$r1 != test2::$r3 goto return test2::r4&#45;&gt;test2 return test2::r4</title>
<path fill="none" stroke="black" d="M255.44,-715.62C284.44,-634.06 395.4,-284.31 250,-70 245.94,-64.02 240.68,-59.06 234.75,-54.95"/>
<polygon fill="black" stroke="black" points="236.65,-52 226.26,-49.93 233.09,-58.03 236.65,-52"/>
<text text-anchor="start" x="323" y="-370.7" font-family="Times,serif" font-size="14.00">[] =&gt; {test2::$r3 &#45;&gt; [test2.new04], </text>
<text text-anchor="start" x="323" y="-354.2" font-family="Times,serif" font-size="14.00">test2::$r2 &#45;&gt; [test2.new04], </text>
<text text-anchor="start" x="323" y="-337.7" font-family="Times,serif" font-size="14.00">foo2::r0 &#45;&gt; [test2.new04], </text>
<text text-anchor="start" x="323" y="-321.2" font-family="Times,serif" font-size="14.00">bar3::r0 &#45;&gt; [test2.new04], </text>
<text text-anchor="start" x="323" y="-304.7" font-family="Times,serif" font-size="14.00">bar2::$r1 &#45;&gt; [test2.new04], </text>
<text text-anchor="start" x="323" y="-288.2" font-family="Times,serif" font-size="14.00">bar2::r0 &#45;&gt; [test2.new04], </text>
<text text-anchor="start" x="323" y="-271.7" font-family="Times,serif" font-size="14.00">foo2::$r1 &#45;&gt; [test2.new04]</text>
<text text-anchor="start" x="323" y="-255.2" font-family="Times,serif" font-size="14.00">}</text>
</g>
<!-- test2 test2::r4 = test2::$r1&#45;&gt;test2 return test2::r4 -->
<g id="edge10" class="edge">
<title>test2 test2::r4 = test2::$r1&#45;&gt;test2 return test2::r4</title>
<path fill="none" stroke="black" d="M104.6,-291.71C88.77,-274.65 66.51,-247 57.25,-218 37.23,-155.34 18.81,-123.38 57.25,-70 65,-59.24 76.2,-51.74 88.43,-46.53"/>
<polygon fill="black" stroke="black" points="89.3,-49.93 97.47,-43.18 86.87,-43.37 89.3,-49.93"/>
<text text-anchor="start" x="58" y="-204.7" font-family="Times,serif" font-size="14.00">[] =&gt; {test2::$r3 &#45;&gt; [test2.new04], </text>
<text text-anchor="start" x="58" y="-188.2" font-family="Times,serif" font-size="14.00">test2::$r2 &#45;&gt; [test2.new04], </text>
<text text-anchor="start" x="58" y="-171.7" font-family="Times,serif" font-size="14.00">foo2::r0 &#45;&gt; [test2.new04], </text>
<text text-anchor="start" x="58" y="-155.2" font-family="Times,serif" font-size="14.00">bar3::r0 &#45;&gt; [test2.new04], </text>
<text text-anchor="start" x="58" y="-138.7" font-family="Times,serif" font-size="14.00">bar2::$r1 &#45;&gt; [test2.new04], </text>
<text text-anchor="start" x="58" y="-122.2" font-family="Times,serif" font-size="14.00">bar2::r0 &#45;&gt; [test2.new04], </text>
<text text-anchor="start" x="58" y="-105.7" font-family="Times,serif" font-size="14.00">foo2::$r1 &#45;&gt; [test2.new04]</text>
<text text-anchor="start" x="58" y="-89.2" font-family="Times,serif" font-size="14.00">}</text>
</g>
<!-- foo2 foo2::$r1 = staticinvoke &lt;PubTest: PubTest bar2(PubTest)&gt;(foo2::r0) -->
<g id="node12" class="node">
<title>foo2 foo2::$r1 = staticinvoke &lt;PubTest: PubTest bar2(PubTest)&gt;(foo2::r0)</title>
<polygon fill="none" stroke="black" points="1257.75,-1585 832.25,-1585 832.25,-1549 1257.75,-1549 1257.75,-1585"/>
<text text-anchor="middle" x="1045" y="-1561.95" font-family="Times,serif" font-size="14.00">foo2 foo2::$r1 = staticinvoke &lt;PubTest: PubTest bar2(PubTest)&gt;(foo2::r0)</text>
</g>
<!-- foo2 foo2::r0 := @parameter0: PubTest&#45;&gt;foo2 foo2::$r1 = staticinvoke &lt;PubTest: PubTest bar2(PubTest)&gt;(foo2::r0) -->
<g id="edge11" class="edge">
<title>foo2 foo2::r0 := @parameter0: PubTest&#45;&gt;foo2 foo2::$r1 = staticinvoke &lt;PubTest: PubTest bar2(PubTest)&gt;(foo2::r0)</title>
<path fill="none" stroke="black" d="M952.7,-1997.27C967.27,-1929.53 1020.68,-1681.09 1038.88,-1596.46"/>
<polygon fill="black" stroke="black" points="1042.26,-1597.41 1040.94,-1586.9 1035.41,-1595.94 1042.26,-1597.41"/>
<text text-anchor="start" x="1011" y="-1966.2" font-family="Times,serif" font-size="14.00">[PubTest.test2.in06] =&gt; {test2::$r3 &#45;&gt; [test2.new04], </text>
<text text-anchor="start" x="1011" y="-1949.7" font-family="Times,serif" font-size="14.00">test2::$r2 &#45;&gt; [test2.new04], </text>
<text text-anchor="start" x="1011" y="-1933.2" font-family="Times,serif" font-size="14.00">foo2::r0 &#45;&gt; [test2.new04], </text>
<text text-anchor="start" x="1011" y="-1916.7" font-family="Times,serif" font-size="14.00">bar3::r0 &#45;&gt; [test2.new04], </text>
<text text-anchor="start" x="1011" y="-1900.2" font-family="Times,serif" font-size="14.00">bar2::$r1 &#45;&gt; [test2.new04], </text>
<text text-anchor="start" x="1011" y="-1883.7" font-family="Times,serif" font-size="14.00">bar2::r0 &#45;&gt; [test2.new04], </text>
<text text-anchor="start" x="1011" y="-1867.2" font-family="Times,serif" font-size="14.00">@parameter0: PubTest &#45;&gt; [test2.new04], </text>
<text text-anchor="start" x="1011" y="-1850.7" font-family="Times,serif" font-size="14.00">foo2::$r1 &#45;&gt; [test2.new04]</text>
<text text-anchor="start" x="1011" y="-1834.2" font-family="Times,serif" font-size="14.00">}</text>
<text text-anchor="start" x="1011" y="-1801.7" font-family="Times,serif" font-size="14.00">[PubTest.test2.in03] =&gt; {test2::r4 &#45;&gt; [null], </text>
<text text-anchor="start" x="1011" y="-1785.2" font-family="Times,serif" font-size="14.00">foo2::r0 &#45;&gt; [test2.new01], </text>
<text text-anchor="start" x="1011" y="-1768.7" font-family="Times,serif" font-size="14.00">test2::$r0 &#45;&gt; [test2.new01], </text>
<text text-anchor="start" x="1011" y="-1752.2" font-family="Times,serif" font-size="14.00">@parameter0: PubTest &#45;&gt; [test2.new01], </text>
<text text-anchor="start" x="1011" y="-1735.7" font-family="Times,serif" font-size="14.00">}</text>
</g>
<!-- foo2 return foo2::$r1 -->
<g id="node13" class="node">
<title>foo2 return foo2::$r1</title>
<polygon fill="none" stroke="black" points="995.38,-1103.5 864.62,-1103.5 864.62,-1067.5 995.38,-1067.5 995.38,-1103.5"/>
<text text-anchor="middle" x="930" y="-1080.45" font-family="Times,serif" font-size="14.00">foo2 return foo2::$r1</text>
</g>
<!-- foo2 foo2::$r1 = staticinvoke &lt;PubTest: PubTest bar2(PubTest)&gt;(foo2::r0)&#45;&gt;foo2 return foo2::$r1 -->
<g id="edge12" class="edge">
<title>foo2 foo2::$r1 = staticinvoke &lt;PubTest: PubTest bar2(PubTest)&gt;(foo2::r0)&#45;&gt;foo2 return foo2::$r1</title>
<path fill="none" stroke="black" d="M1040.84,-1548.65C1023.67,-1477.06 958.22,-1204.17 936.82,-1114.93"/>
<polygon fill="black" stroke="black" points="940.24,-1114.21 934.51,-1105.3 933.44,-1115.84 940.24,-1114.21"/>
<text text-anchor="start" x="1007" y="-1404.2" font-family="Times,serif" font-size="14.00">[PubTest.test2.in06] =&gt; {test2::$r3 &#45;&gt; [test2.new04], </text>
<text text-anchor="start" x="1007" y="-1387.7" font-family="Times,serif" font-size="14.00">test2::$r2 &#45;&gt; [test2.new04], </text>
<text text-anchor="start" x="1007" y="-1371.2" font-family="Times,serif" font-size="14.00">foo2::r0 &#45;&gt; [test2.new04], </text>
<text text-anchor="start" x="1007" y="-1354.7" font-family="Times,serif" font-size="14.00">bar3::r0 &#45;&gt; [test2.new04], </text>
<text text-anchor="start" x="1007" y="-1338.2" font-family="Times,serif" font-size="14.00">bar2::$r1 &#45;&gt; [test2.new04], </text>
<text text-anchor="start" x="1007" y="-1321.7" font-family="Times,serif" font-size="14.00">bar2::r0 &#45;&gt; [test2.new04], </text>
<text text-anchor="start" x="1007" y="-1305.2" font-family="Times,serif" font-size="14.00">foo2::$r1 &#45;&gt; [test2.new04]</text>
<text text-anchor="start" x="1007" y="-1288.7" font-family="Times,serif" font-size="14.00">}</text>
<text text-anchor="start" x="1007" y="-1256.2" font-family="Times,serif" font-size="14.00">[PubTest.test2.in03] =&gt; {test2::$r3 &#45;&gt; [test2.new04], </text>
<text text-anchor="start" x="1007" y="-1239.7" font-family="Times,serif" font-size="14.00">test2::$r2 &#45;&gt; [test2.new04], </text>
<text text-anchor="start" x="1007" y="-1223.2" font-family="Times,serif" font-size="14.00">foo2::r0 &#45;&gt; [test2.new04], </text>
<text text-anchor="start" x="1007" y="-1206.7" font-family="Times,serif" font-size="14.00">bar3::r0 &#45;&gt; [test2.new04], </text>
<text text-anchor="start" x="1007" y="-1190.2" font-family="Times,serif" font-size="14.00">bar2::$r1 &#45;&gt; [test2.new04], </text>
<text text-anchor="start" x="1007" y="-1173.7" font-family="Times,serif" font-size="14.00">bar2::r0 &#45;&gt; [test2.new04], </text>
<text text-anchor="start" x="1007" y="-1157.2" font-family="Times,serif" font-size="14.00">foo2::$r1 &#45;&gt; [test2.new04]</text>
<text text-anchor="start" x="1007" y="-1140.7" font-family="Times,serif" font-size="14.00">}</text>
</g>
<!-- bar2 bar2::r0 := @parameter0: PubTest -->
<g id="node14" class="node">
<title>bar2 bar2::r0 := @parameter0: PubTest</title>
<polygon fill="none" stroke="black" points="1514,-1103.5 1282,-1103.5 1282,-1067.5 1514,-1067.5 1514,-1103.5"/>
<text text-anchor="middle" x="1398" y="-1080.45" font-family="Times,serif" font-size="14.00">bar2 bar2::r0 := @parameter0: PubTest</text>
</g>
<!-- foo2 foo2::$r1 = staticinvoke &lt;PubTest: PubTest bar2(PubTest)&gt;(foo2::r0)&#45;&gt;bar2 bar2::r0 := @parameter0: PubTest -->
<g id="edge18" class="edge">
<title>foo2 foo2::$r1 = staticinvoke &lt;PubTest: PubTest bar2(PubTest)&gt;(foo2::r0)&#45;&gt;bar2 bar2::r0 := @parameter0: PubTest</title>
<path fill="none" stroke="black" stroke-dasharray="1,5" d="M1100.46,-1548.58C1159.75,-1527.13 1252.3,-1485 1305,-1417.5 1377.85,-1324.18 1393.64,-1176.78 1397.06,-1115.11"/>
<polygon fill="black" stroke="black" points="1400.55,-1115.3 1397.53,-1105.15 1393.56,-1114.97 1400.55,-1115.3"/>
<text text-anchor="middle" x="1597" y="-1395.95" font-family="Times,serif" font-size="14.00">PubTest.foo2.in01</text>
<text text-anchor="start" x="1396" y="-1379.45" font-family="Times,serif" font-size="14.00">[PubTest.test2.in06, PubTest.foo2.in01] =&gt; {test2::$r3 &#45;&gt; [test2.new04], </text>
<text text-anchor="start" x="1396" y="-1362.95" font-family="Times,serif" font-size="14.00">test2::$r2 &#45;&gt; [test2.new04], </text>
<text text-anchor="start" x="1396" y="-1346.45" font-family="Times,serif" font-size="14.00">foo2::r0 &#45;&gt; [test2.new04], </text>
<text text-anchor="start" x="1396" y="-1329.95" font-family="Times,serif" font-size="14.00">bar3::r0 &#45;&gt; [test2.new04], </text>
<text text-anchor="start" x="1396" y="-1313.45" font-family="Times,serif" font-size="14.00">bar2::$r1 &#45;&gt; [test2.new04], </text>
<text text-anchor="start" x="1396" y="-1296.95" font-family="Times,serif" font-size="14.00">bar2::r0 &#45;&gt; [test2.new04], </text>
<text text-anchor="start" x="1396" y="-1280.45" font-family="Times,serif" font-size="14.00">@parameter0: PubTest &#45;&gt; [test2.new04], </text>
<text text-anchor="start" x="1396" y="-1263.95" font-family="Times,serif" font-size="14.00">foo2::$r1 &#45;&gt; [test2.new04]</text>
<text text-anchor="start" x="1396" y="-1247.45" font-family="Times,serif" font-size="14.00">}</text>
<text text-anchor="start" x="1396" y="-1214.95" font-family="Times,serif" font-size="14.00">[PubTest.test2.in03, PubTest.foo2.in01] =&gt; {test2::r4 &#45;&gt; [null], </text>
<text text-anchor="start" x="1396" y="-1198.45" font-family="Times,serif" font-size="14.00">foo2::r0 &#45;&gt; [test2.new01], </text>
<text text-anchor="start" x="1396" y="-1181.95" font-family="Times,serif" font-size="14.00">test2::$r0 &#45;&gt; [test2.new01], </text>
<text text-anchor="start" x="1396" y="-1165.45" font-family="Times,serif" font-size="14.00">@parameter0: PubTest &#45;&gt; [test2.new01], </text>
<text text-anchor="start" x="1396" y="-1148.95" font-family="Times,serif" font-size="14.00">}</text>
</g>
<!-- foo2 return foo2::$r1&#45;&gt;test2 test2::$r2 = new PubTest -->
<g id="edge19" class="edge">
<title>foo2 return foo2::$r1&#45;&gt;test2 test2::$r2 = new PubTest</title>
<path fill="none" stroke="black" stroke-dasharray="1,5" d="M874.08,-1103.89C760.59,-1142.5 504.85,-1247.19 396.75,-1435.5 276.22,-1645.46 521.99,-1791.87 369,-1979.5 363.72,-1985.98 351.46,-1991.51 336.37,-1996.13"/>
<polygon fill="black" stroke="black" points="335.66,-1992.7 326.99,-1998.78 337.56,-1999.43 335.66,-1992.7"/>
<text text-anchor="middle" x="446.62" y="-1561.95" font-family="Times,serif" font-size="14.00">PubTest.test2.in03</text>
</g>
<!-- foo2 return foo2::$r1&#45;&gt;test2 if test2::$r1 != test2::$r3 goto return test2::r4 -->
<g id="edge20" class="edge">
<title>foo2 return foo2::$r1&#45;&gt;test2 if test2::$r1 != test2::$r3 goto return test2::r4</title>
<path fill="none" stroke="black" stroke-dasharray="1,5" d="M909.93,-1067.13C846.59,-1013.31 643.36,-848.31 445,-770 430.11,-764.12 414.19,-759.22 398.11,-755.15"/>
<polygon fill="black" stroke="black" points="398.97,-751.75 388.43,-752.81 397.32,-758.56 398.97,-751.75"/>
<text text-anchor="middle" x="934.62" y="-904.7" font-family="Times,serif" font-size="14.00">PubTest.test2.in06</text>
</g>
<!-- bar2 bar2::$r1 = staticinvoke &lt;PubTest: PubTest bar3(PubTest)&gt;(bar2::r0) -->
<g id="node15" class="node">
<title>bar2 bar2::$r1 = staticinvoke &lt;PubTest: PubTest bar3(PubTest)&gt;(bar2::r0)</title>
<polygon fill="none" stroke="black" points="1705.62,-752 1282.38,-752 1282.38,-716 1705.62,-716 1705.62,-752"/>
<text text-anchor="middle" x="1494" y="-728.95" font-family="Times,serif" font-size="14.00">bar2 bar2::$r1 = staticinvoke &lt;PubTest: PubTest bar3(PubTest)&gt;(bar2::r0)</text>
</g>
<!-- bar2 bar2::r0 := @parameter0: PubTest&#45;&gt;bar2 bar2::$r1 = staticinvoke &lt;PubTest: PubTest bar3(PubTest)&gt;(bar2::r0) -->
<g id="edge13" class="edge">
<title>bar2 bar2::r0 := @parameter0: PubTest&#45;&gt;bar2 bar2::$r1 = staticinvoke &lt;PubTest: PubTest bar3(PubTest)&gt;(bar2::r0)</title>
<path fill="none" stroke="black" d="M1322.67,-1067.26C1314.98,-1062.67 1308.13,-1056.85 1303,-1049.5 1231.95,-947.6 1223.47,-865.43 1303,-770 1307.58,-764.5 1315.89,-759.87 1326.57,-755.96"/>
<polygon fill="black" stroke="black" points="1327.61,-759.3 1336.05,-752.9 1325.45,-752.64 1327.61,-759.3"/>
<text text-anchor="start" x="1303" y="-1036.2" font-family="Times,serif" font-size="14.00">[PubTest.test2.in06, PubTest.foo2.in01] =&gt; {test2::$r3 &#45;&gt; [test2.new04], </text>
<text text-anchor="start" x="1303" y="-1019.7" font-family="Times,serif" font-size="14.00">test2::$r2 &#45;&gt; [test2.new04], </text>
<text text-anchor="start" x="1303" y="-1003.2" font-family="Times,serif" font-size="14.00">foo2::r0 &#45;&gt; [test2.new04], </text>
<text text-anchor="start" x="1303" y="-986.7" font-family="Times,serif" font-size="14.00">bar3::r0 &#45;&gt; [test2.new04], </text>
<text text-anchor="start" x="1303" y="-970.2" font-family="Times,serif" font-size="14.00">bar2::$r1 &#45;&gt; [test2.new04], </text>
<text text-anchor="start" x="1303" y="-953.7" font-family="Times,serif" font-size="14.00">bar2::r0 &#45;&gt; [test2.new04], </text>
<text text-anchor="start" x="1303" y="-937.2" font-family="Times,serif" font-size="14.00">@parameter0: PubTest &#45;&gt; [test2.new04], </text>
<text text-anchor="start" x="1303" y="-920.7" font-family="Times,serif" font-size="14.00">foo2::$r1 &#45;&gt; [test2.new04]</text>
<text text-anchor="start" x="1303" y="-904.2" font-family="Times,serif" font-size="14.00">}</text>
<text text-anchor="start" x="1303" y="-871.7" font-family="Times,serif" font-size="14.00">[PubTest.test2.in03, PubTest.foo2.in01] =&gt; {test2::r4 &#45;&gt; [null], </text>
<text text-anchor="start" x="1303" y="-855.2" font-family="Times,serif" font-size="14.00">foo2::r0 &#45;&gt; [test2.new01], </text>
<text text-anchor="start" x="1303" y="-838.7" font-family="Times,serif" font-size="14.00">test2::$r0 &#45;&gt; [test2.new01], </text>
<text text-anchor="start" x="1303" y="-822.2" font-family="Times,serif" font-size="14.00">bar2::r0 &#45;&gt; [test2.new01], </text>
<text text-anchor="start" x="1303" y="-805.7" font-family="Times,serif" font-size="14.00">@parameter0: PubTest &#45;&gt; [test2.new01], </text>
<text text-anchor="start" x="1303" y="-789.2" font-family="Times,serif" font-size="14.00">}</text>
</g>
<!-- bar2 return bar2::$r1 -->
<g id="node16" class="node">
<title>bar2 return bar2::$r1</title>
<polygon fill="none" stroke="black" points="1411.62,-328 1282.38,-328 1282.38,-292 1411.62,-292 1411.62,-328"/>
<text text-anchor="middle" x="1347" y="-304.95" font-family="Times,serif" font-size="14.00">bar2 return bar2::$r1</text>
</g>
<!-- bar2 bar2::$r1 = staticinvoke &lt;PubTest: PubTest bar3(PubTest)&gt;(bar2::r0)&#45;&gt;bar2 return bar2::$r1 -->
<g id="edge14" class="edge">
<title>bar2 bar2::$r1 = staticinvoke &lt;PubTest: PubTest bar3(PubTest)&gt;(bar2::r0)&#45;&gt;bar2 return bar2::$r1</title>
<path fill="none" stroke="black" d="M1487.96,-715.67C1465.25,-650.48 1384.83,-419.59 1356.75,-339"/>
<polygon fill="black" stroke="black" points="1360.1,-337.96 1353.5,-329.67 1353.49,-340.27 1360.1,-337.96"/>
<text text-anchor="start" x="1481" y="-684.7" font-family="Times,serif" font-size="14.00">[PubTest.test2.in06, PubTest.foo2.in01] =&gt; {test2::$r3 &#45;&gt; [test2.new04], </text>
<text text-anchor="start" x="1481" y="-668.2" font-family="Times,serif" font-size="14.00">test2::$r2 &#45;&gt; [test2.new04], </text>
<text text-anchor="start" x="1481" y="-651.7" font-family="Times,serif" font-size="14.00">foo2::r0 &#45;&gt; [test2.new04], </text>
<text text-anchor="start" x="1481" y="-635.2" font-family="Times,serif" font-size="14.00">bar3::r0 &#45;&gt; [test2.new04], </text>
<text text-anchor="start" x="1481" y="-618.7" font-family="Times,serif" font-size="14.00">bar2::$r1 &#45;&gt; [test2.new04], </text>
<text text-anchor="start" x="1481" y="-602.2" font-family="Times,serif" font-size="14.00">bar2::r0 &#45;&gt; [test2.new04], </text>
<text text-anchor="start" x="1481" y="-585.7" font-family="Times,serif" font-size="14.00">foo2::$r1 &#45;&gt; [test2.new04]</text>
<text text-anchor="start" x="1481" y="-569.2" font-family="Times,serif" font-size="14.00">}</text>
<text text-anchor="start" x="1481" y="-536.7" font-family="Times,serif" font-size="14.00">[PubTest.test2.in03, PubTest.foo2.in01] =&gt; {test2::$r3 &#45;&gt; [test2.new04], </text>
<text text-anchor="start" x="1481" y="-520.2" font-family="Times,serif" font-size="14.00">test2::$r2 &#45;&gt; [test2.new04], </text>
<text text-anchor="start" x="1481" y="-503.7" font-family="Times,serif" font-size="14.00">foo2::r0 &#45;&gt; [test2.new04], </text>
<text text-anchor="start" x="1481" y="-487.2" font-family="Times,serif" font-size="14.00">bar3::r0 &#45;&gt; [test2.new04], </text>
<text text-anchor="start" x="1481" y="-470.7" font-family="Times,serif" font-size="14.00">bar2::$r1 &#45;&gt; [test2.new04], </text>
<text text-anchor="start" x="1481" y="-454.2" font-family="Times,serif" font-size="14.00">bar2::r0 &#45;&gt; [test2.new04], </text>
<text text-anchor="start" x="1481" y="-437.7" font-family="Times,serif" font-size="14.00">foo2::$r1 &#45;&gt; [test2.new04]</text>
<text text-anchor="start" x="1481" y="-421.2" font-family="Times,serif" font-size="14.00">}</text>
</g>
<!-- bar3 bar3::r0 := @parameter0: PubTest -->
<g id="node17" class="node">
<title>bar3 bar3::r0 := @parameter0: PubTest</title>
<polygon fill="none" stroke="black" points="2365,-1103.5 2133,-1103.5 2133,-1067.5 2365,-1067.5 2365,-1103.5"/>
<text text-anchor="middle" x="2249" y="-1080.45" font-family="Times,serif" font-size="14.00">bar3 bar3::r0 := @parameter0: PubTest</text>
</g>
<!-- bar2 bar2::$r1 = staticinvoke &lt;PubTest: PubTest bar3(PubTest)&gt;(bar2::r0)&#45;&gt;bar3 bar3::r0 := @parameter0: PubTest -->
<g id="edge21" class="edge">
<title>bar2 bar2::$r1 = staticinvoke &lt;PubTest: PubTest bar3(PubTest)&gt;(bar2::r0)&#45;&gt;bar3 bar3::r0 := @parameter0: PubTest</title>
<path fill="none" stroke="black" stroke-dasharray="1,5" d="M1661.33,-752.44C1680.77,-757.02 1696.64,-762.78 1705,-770 1803.69,-855.28 1692.17,-968.62 1794.5,-1049.5 1819.72,-1069.43 1995.99,-1078.16 2121.43,-1081.88"/>
<polygon fill="black" stroke="black" points="2121.03,-1085.37 2131.13,-1082.16 2121.23,-1078.37 2121.03,-1085.37"/>
<text text-anchor="middle" x="1994.25" y="-986.95" font-family="Times,serif" font-size="14.00">PubTest.bar2.in01</text>
<text text-anchor="start" x="1794" y="-970.45" font-family="Times,serif" font-size="14.00">[PubTest.foo2.in01, PubTest.bar2.in01] =&gt; {test2::$r3 &#45;&gt; [test2.new04], </text>
<text text-anchor="start" x="1794" y="-953.95" font-family="Times,serif" font-size="14.00">test2::$r2 &#45;&gt; [test2.new04], </text>
<text text-anchor="start" x="1794" y="-937.45" font-family="Times,serif" font-size="14.00">foo2::r0 &#45;&gt; [test2.new04], </text>
<text text-anchor="start" x="1794" y="-920.95" font-family="Times,serif" font-size="14.00">bar3::r0 &#45;&gt; [test2.new04], </text>
<text text-anchor="start" x="1794" y="-904.45" font-family="Times,serif" font-size="14.00">bar2::$r1 &#45;&gt; [test2.new04], </text>
<text text-anchor="start" x="1794" y="-887.95" font-family="Times,serif" font-size="14.00">bar2::r0 &#45;&gt; [test2.new04], </text>
<text text-anchor="start" x="1794" y="-871.45" font-family="Times,serif" font-size="14.00">@parameter0: PubTest &#45;&gt; [test2.new04], </text>
<text text-anchor="start" x="1794" y="-854.95" font-family="Times,serif" font-size="14.00">foo2::$r1 &#45;&gt; [test2.new04]</text>
<text text-anchor="start" x="1794" y="-838.45" font-family="Times,serif" font-size="14.00">}</text>
</g>
<!-- bar2 return bar2::$r1&#45;&gt;foo2 return foo2::$r1 -->
<g id="edge22" class="edge">
<title>bar2 return bar2::$r1&#45;&gt;foo2 return foo2::$r1</title>
<path fill="none" stroke="black" stroke-dasharray="1,5" d="M1339.32,-328.33C1292.44,-433.97 1044.81,-988.79 989,-1049.5 985.17,-1053.67 980.73,-1057.49 976.03,-1060.96"/>
<polygon fill="black" stroke="black" points="974.38,-1057.85 968.04,-1066.34 978.29,-1063.66 974.38,-1057.85"/>
<text text-anchor="middle" x="1213.25" y="-728.95" font-family="Times,serif" font-size="14.00">PubTest.foo2.in01</text>
</g>
<!-- bar3 return bar3::r0 -->
<g id="node18" class="node">
<title>bar3 return bar3::r0</title>
<polygon fill="none" stroke="black" points="2255.25,-752 2132.75,-752 2132.75,-716 2255.25,-716 2255.25,-752"/>
<text text-anchor="middle" x="2194" y="-728.95" font-family="Times,serif" font-size="14.00">bar3 return bar3::r0</text>
</g>
<!-- bar3 bar3::r0 := @parameter0: PubTest&#45;&gt;bar3 return bar3::r0 -->
<g id="edge15" class="edge">
<title>bar3 bar3::r0 := @parameter0: PubTest&#45;&gt;bar3 return bar3::r0</title>
<path fill="none" stroke="black" d="M2246.27,-1067.17C2237.42,-1010.92 2209.43,-833.08 2198.47,-763.4"/>
<polygon fill="black" stroke="black" points="2201.99,-763.27 2196.98,-753.93 2195.08,-764.35 2201.99,-763.27"/>
<text text-anchor="start" x="2243" y="-978.7" font-family="Times,serif" font-size="14.00">[PubTest.foo2.in01, PubTest.bar2.in01] =&gt; {test2::$r3 &#45;&gt; [test2.new04], </text>
<text text-anchor="start" x="2243" y="-962.2" font-family="Times,serif" font-size="14.00">test2::$r2 &#45;&gt; [test2.new04], </text>
<text text-anchor="start" x="2243" y="-945.7" font-family="Times,serif" font-size="14.00">foo2::r0 &#45;&gt; [test2.new04], </text>
<text text-anchor="start" x="2243" y="-929.2" font-family="Times,serif" font-size="14.00">bar3::r0 &#45;&gt; [test2.new04], </text>
<text text-anchor="start" x="2243" y="-912.7" font-family="Times,serif" font-size="14.00">bar2::$r1 &#45;&gt; [test2.new04], </text>
<text text-anchor="start" x="2243" y="-896.2" font-family="Times,serif" font-size="14.00">bar2::r0 &#45;&gt; [test2.new04], </text>
<text text-anchor="start" x="2243" y="-879.7" font-family="Times,serif" font-size="14.00">@parameter0: PubTest &#45;&gt; [test2.new04], </text>
<text text-anchor="start" x="2243" y="-863.2" font-family="Times,serif" font-size="14.00">foo2::$r1 &#45;&gt; [test2.new04]</text>
<text text-anchor="start" x="2243" y="-846.7" font-family="Times,serif" font-size="14.00">}</text>
</g>
<!-- bar3 return bar3::r0&#45;&gt;bar2 return bar2::$r1 -->
<g id="edge23" class="edge">
<title>bar3 return bar3::r0&#45;&gt;bar2 return bar2::$r1</title>
<path fill="none" stroke="black" stroke-dasharray="1,5" d="M2183.84,-715.63C2149.96,-659.44 2034.6,-481.67 1887,-402 1808.12,-359.42 1552.48,-330.2 1423.26,-317.75"/>
<polygon fill="black" stroke="black" points="1423.71,-314.28 1413.42,-316.82 1423.05,-321.25 1423.71,-314.28"/>
<text text-anchor="middle" x="2221.88" y="-544.95" font-family="Times,serif" font-size="14.00">PubTest.bar2.in01</text>
</g>
</g>
</svg>
