<?xml version="1.0" encoding="UTF-8" standalone="no"?>
<!DOCTYPE svg PUBLIC "-//W3C//DTD SVG 1.1//EN"
 "http://www.w3.org/Graphics/SVG/1.1/DTD/svg11.dtd">
<!-- Generated by graphviz version 9.0.0 (20230911.1827)
 -->
<!-- Title: G Pages: 1 -->
<svg width="2750pt" height="1303pt"
 viewBox="0.00 0.00 2750.00 1302.50" xmlns="http://www.w3.org/2000/svg" xmlns:xlink="http://www.w3.org/1999/xlink">
<g id="graph0" class="graph" transform="scale(1 1) rotate(0) translate(4 1298.5)">
<title>G</title>
<polygon fill="white" stroke="none" points="-4,4 -4,-1298.5 2746,-1298.5 2746,4 -4,4"/>
<g id="clust1" class="cluster">
<title>cluster_0</title>
<polygon fill="none" stroke="black" points="8,-519.5 8,-1286.5 478,-1286.5 478,-519.5 8,-519.5"/>
</g>
<g id="clust2" class="cluster">
<title>cluster_1</title>
<polygon fill="none" stroke="black" points="486,-8 486,-775 1028,-775 1028,-8 486,-8"/>
</g>
<g id="clust3" class="cluster">
<title>cluster_2</title>
<polygon fill="none" stroke="black" points="1548,-8 1548,-1165.5 2634,-1165.5 2634,-8 1548,-8"/>
</g>
<!-- f f::$r0 = new BasicTest -->
<g id="node1" class="node">
<title>f f::$r0 = new BasicTest</title>
<polygon fill="none" stroke="black" points="317.75,-1278.5 168.25,-1278.5 168.25,-1242.5 317.75,-1242.5 317.75,-1278.5"/>
<text text-anchor="middle" x="243" y="-1255.45" font-family="Times,serif" font-size="14.00">f f::$r0 = new BasicTest</text>
</g>
<!-- f specialinvoke f::$r0.&lt;BasicTest: void &lt;init&gt;()&gt;() -->
<g id="node2" class="node">
<title>f specialinvoke f::$r0.&lt;BasicTest: void &lt;init&gt;()&gt;()</title>
<polygon fill="none" stroke="black" points="389.75,-1157.5 96.25,-1157.5 96.25,-1121.5 389.75,-1121.5 389.75,-1157.5"/>
<text text-anchor="middle" x="243" y="-1134.45" font-family="Times,serif" font-size="14.00">f specialinvoke f::$r0.&lt;BasicTest: void &lt;init&gt;()&gt;()</text>
</g>
<!-- f f::$r0 = new BasicTest&#45;&gt;f specialinvoke f::$r0.&lt;BasicTest: void &lt;init&gt;()&gt;() -->
<g id="edge1" class="edge">
<title>f f::$r0 = new BasicTest&#45;&gt;f specialinvoke f::$r0.&lt;BasicTest: void &lt;init&gt;()&gt;()</title>
<path fill="none" stroke="black" d="M243,-1242.2C243,-1223.07 243,-1191.96 243,-1169.18"/>
<polygon fill="black" stroke="black" points="246.5,-1169.34 243,-1159.34 239.5,-1169.34 246.5,-1169.34"/>
<text text-anchor="start" x="243" y="-1211.2" font-family="Times,serif" font-size="14.00">[] =&gt; {f::$r0 &#45;&gt; [f.new00], </text>
<text text-anchor="start" x="243" y="-1194.7" font-family="Times,serif" font-size="14.00">}</text>
</g>
<!-- f f::$r1 = staticinvoke &lt;BasicTest: BasicTest REC_TEST_1(BasicTest)&gt;(f::$r0) -->
<g id="node3" class="node">
<title>f f::$r1 = staticinvoke &lt;BasicTest: BasicTest REC_TEST_1(BasicTest)&gt;(f::$r0)</title>
<polygon fill="none" stroke="black" points="469.62,-970.5 16.38,-970.5 16.38,-934.5 469.62,-934.5 469.62,-970.5"/>
<text text-anchor="middle" x="243" y="-947.45" font-family="Times,serif" font-size="14.00">f f::$r1 = staticinvoke &lt;BasicTest: BasicTest REC_TEST_1(BasicTest)&gt;(f::$r0)</text>
</g>
<!-- f specialinvoke f::$r0.&lt;BasicTest: void &lt;init&gt;()&gt;()&#45;&gt;f f::$r1 = staticinvoke &lt;BasicTest: BasicTest REC_TEST_1(BasicTest)&gt;(f::$r0) -->
<g id="edge2" class="edge">
<title>f specialinvoke f::$r0.&lt;BasicTest: void &lt;init&gt;()&gt;()&#45;&gt;f f::$r1 = staticinvoke &lt;BasicTest: BasicTest REC_TEST_1(BasicTest)&gt;(f::$r0)</title>
<path fill="none" stroke="black" d="M243,-1121.1C243,-1089.21 243,-1021.14 243,-982.27"/>
<polygon fill="black" stroke="black" points="246.5,-982.51 243,-972.51 239.5,-982.51 246.5,-982.51"/>
<text text-anchor="start" x="243" y="-1057.2" font-family="Times,serif" font-size="14.00">[] =&gt; {f::$r0 &#45;&gt; [f.new00], </text>
<text text-anchor="start" x="243" y="-1040.7" font-family="Times,serif" font-size="14.00">}</text>
</g>
<!-- f f::$r1.&lt;BasicTest: BasicTest f&gt; = null -->
<g id="node4" class="node">
<title>f f::$r1.&lt;BasicTest: BasicTest f&gt; = null</title>
<polygon fill="none" stroke="black" points="441.75,-767 208.25,-767 208.25,-731 441.75,-731 441.75,-767"/>
<text text-anchor="middle" x="325" y="-743.95" font-family="Times,serif" font-size="14.00">f f::$r1.&lt;BasicTest: BasicTest f&gt; = null</text>
</g>
<!-- f f::$r1 = staticinvoke &lt;BasicTest: BasicTest REC_TEST_1(BasicTest)&gt;(f::$r0)&#45;&gt;f f::$r1.&lt;BasicTest: BasicTest f&gt; = null -->
<g id="edge3" class="edge">
<title>f f::$r1 = staticinvoke &lt;BasicTest: BasicTest REC_TEST_1(BasicTest)&gt;(f::$r0)&#45;&gt;f f::$r1.&lt;BasicTest: BasicTest f&gt; = null</title>
<path fill="none" stroke="black" d="M249.99,-934.32C264.18,-899.46 296.45,-820.15 313.68,-777.82"/>
<polygon fill="black" stroke="black" points="316.81,-779.41 317.34,-768.82 310.33,-776.77 316.81,-779.41"/>
</g>
<!-- REC_TEST_1 REC_TEST_1::r1 := @parameter0: BasicTest -->
<g id="node6" class="node">
<title>REC_TEST_1 REC_TEST_1::r1 := @parameter0: BasicTest</title>
<polygon fill="none" stroke="black" points="844.25,-767 493.75,-767 493.75,-731 844.25,-731 844.25,-767"/>
<text text-anchor="middle" x="669" y="-743.95" font-family="Times,serif" font-size="14.00">REC_TEST_1 REC_TEST_1::r1 := @parameter0: BasicTest</text>
</g>
<!-- f f::$r1 = staticinvoke &lt;BasicTest: BasicTest REC_TEST_1(BasicTest)&gt;(f::$r0)&#45;&gt;REC_TEST_1 REC_TEST_1::r1 := @parameter0: BasicTest -->
<g id="edge16" class="edge">
<title>f f::$r1 = staticinvoke &lt;BasicTest: BasicTest REC_TEST_1(BasicTest)&gt;(f::$r0)&#45;&gt;REC_TEST_1 REC_TEST_1::r1 := @parameter0: BasicTest</title>
<path fill="none" stroke="black" stroke-dasharray="1,5" d="M279.69,-934.15C356.99,-897.58 536.51,-812.67 622.05,-772.21"/>
<polygon fill="black" stroke="black" points="623.34,-775.47 630.88,-768.03 620.34,-769.14 623.34,-775.47"/>
<text text-anchor="middle" x="760.5" y="-878.45" font-family="Times,serif" font-size="14.00">BasicTest.f.in02</text>
<text text-anchor="start" x="588" y="-861.95" font-family="Times,serif" font-size="14.00">[BasicTest.f.in02] =&gt; {@parameter0: BasicTest &#45;&gt; [f.new00], </text>
<text text-anchor="start" x="588" y="-845.45" font-family="Times,serif" font-size="14.00">f::$r0 &#45;&gt; [f.new00], </text>
<text text-anchor="start" x="588" y="-828.95" font-family="Times,serif" font-size="14.00">}</text>
</g>
<!-- f return -->
<g id="node5" class="node">
<title>f return</title>
<polygon fill="none" stroke="black" points="409.25,-563.5 352.75,-563.5 352.75,-527.5 409.25,-527.5 409.25,-563.5"/>
<text text-anchor="middle" x="381" y="-540.45" font-family="Times,serif" font-size="14.00">f return</text>
</g>
<!-- f f::$r1.&lt;BasicTest: BasicTest f&gt; = null&#45;&gt;f return -->
<g id="edge4" class="edge">
<title>f f::$r1.&lt;BasicTest: BasicTest f&gt; = null&#45;&gt;f return</title>
<path fill="none" stroke="black" d="M332.44,-730.72C334.71,-725.12 337.1,-718.85 339,-713 354.49,-665.27 367.77,-608.32 375.05,-574.91"/>
<polygon fill="black" stroke="black" points="378.45,-575.72 377.13,-565.21 371.61,-574.25 378.45,-575.72"/>
</g>
<!-- REC_TEST_1 REC_TEST_1::$r0 = new BasicTest -->
<g id="node7" class="node">
<title>REC_TEST_1 REC_TEST_1::$r0 = new BasicTest</title>
<polygon fill="none" stroke="black" points="818,-563.5 520,-563.5 520,-527.5 818,-527.5 818,-563.5"/>
<text text-anchor="middle" x="669" y="-540.45" font-family="Times,serif" font-size="14.00">REC_TEST_1 REC_TEST_1::$r0 = new BasicTest</text>
</g>
<!-- REC_TEST_1 REC_TEST_1::r1 := @parameter0: BasicTest&#45;&gt;REC_TEST_1 REC_TEST_1::$r0 = new BasicTest -->
<g id="edge5" class="edge">
<title>REC_TEST_1 REC_TEST_1::r1 := @parameter0: BasicTest&#45;&gt;REC_TEST_1 REC_TEST_1::$r0 = new BasicTest</title>
<path fill="none" stroke="black" d="M668.4,-730.56C668.24,-724.95 668.08,-718.71 668,-713 667.17,-654.56 667.17,-639.94 668,-581.5 668.03,-579.45 668.07,-577.33 668.11,-575.19"/>
<polygon fill="black" stroke="black" points="671.61,-575.54 668.36,-565.46 664.61,-575.36 671.61,-575.54"/>
<text text-anchor="start" x="668" y="-674.95" font-family="Times,serif" font-size="14.00">[BasicTest.f.in02] =&gt; {@parameter0: BasicTest &#45;&gt; [f.new00], </text>
<text text-anchor="start" x="668" y="-658.45" font-family="Times,serif" font-size="14.00">f::$r0 &#45;&gt; [f.new00], </text>
<text text-anchor="start" x="668" y="-641.95" font-family="Times,serif" font-size="14.00">REC_TEST_1::r1 &#45;&gt; [f.new00], </text>
<text text-anchor="start" x="668" y="-625.45" font-family="Times,serif" font-size="14.00">}</text>
</g>
<!-- REC_TEST_1 specialinvoke REC_TEST_1::$r0.&lt;BasicTest: void &lt;init&gt;()&gt;() -->
<g id="node8" class="node">
<title>REC_TEST_1 specialinvoke REC_TEST_1::$r0.&lt;BasicTest: void &lt;init&gt;()&gt;()</title>
<polygon fill="none" stroke="black" points="936,-360 494,-360 494,-324 936,-324 936,-360"/>
<text text-anchor="middle" x="715" y="-336.95" font-family="Times,serif" font-size="14.00">REC_TEST_1 specialinvoke REC_TEST_1::$r0.&lt;BasicTest: void &lt;init&gt;()&gt;()</text>
</g>
<!-- REC_TEST_1 REC_TEST_1::$r0 = new BasicTest&#45;&gt;REC_TEST_1 specialinvoke REC_TEST_1::$r0.&lt;BasicTest: void &lt;init&gt;()&gt;() -->
<g id="edge6" class="edge">
<title>REC_TEST_1 REC_TEST_1::$r0 = new BasicTest&#45;&gt;REC_TEST_1 specialinvoke REC_TEST_1::$r0.&lt;BasicTest: void &lt;init&gt;()&gt;()</title>
<path fill="none" stroke="black" d="M665.57,-527.42C660.13,-496.06 652.43,-427.98 676,-378 677.59,-374.63 679.67,-371.44 682.05,-368.46"/>
<polygon fill="black" stroke="black" points="684.5,-370.96 688.81,-361.28 679.41,-366.15 684.5,-370.96"/>
<text text-anchor="start" x="676" y="-479.7" font-family="Times,serif" font-size="14.00">[BasicTest.f.in02] =&gt; {@parameter0: BasicTest &#45;&gt; [f.new00], </text>
<text text-anchor="start" x="676" y="-463.2" font-family="Times,serif" font-size="14.00">f::$r0 &#45;&gt; [f.new00], </text>
<text text-anchor="start" x="676" y="-446.7" font-family="Times,serif" font-size="14.00">REC_TEST_1::$r0 &#45;&gt; [REC_TEST_1.new01], </text>
<text text-anchor="start" x="676" y="-430.2" font-family="Times,serif" font-size="14.00">REC_TEST_1::r1 &#45;&gt; [f.new00], </text>
<text text-anchor="start" x="676" y="-413.7" font-family="Times,serif" font-size="14.00">}</text>
</g>
<!-- REC_TEST_1 staticinvoke &lt;BasicTest: BasicTest rec_test_2(BasicTest)&gt;(REC_TEST_1::r1) -->
<g id="node9" class="node">
<title>REC_TEST_1 staticinvoke &lt;BasicTest: BasicTest rec_test_2(BasicTest)&gt;(REC_TEST_1::r1)</title>
<polygon fill="none" stroke="black" points="1020,-156.5 494,-156.5 494,-120.5 1020,-120.5 1020,-156.5"/>
<text text-anchor="middle" x="757" y="-133.45" font-family="Times,serif" font-size="14.00">REC_TEST_1 staticinvoke &lt;BasicTest: BasicTest rec_test_2(BasicTest)&gt;(REC_TEST_1::r1)</text>
</g>
<!-- REC_TEST_1 specialinvoke REC_TEST_1::$r0.&lt;BasicTest: void &lt;init&gt;()&gt;()&#45;&gt;REC_TEST_1 staticinvoke &lt;BasicTest: BasicTest rec_test_2(BasicTest)&gt;(REC_TEST_1::r1) -->
<g id="edge7" class="edge">
<title>REC_TEST_1 specialinvoke REC_TEST_1::$r0.&lt;BasicTest: void &lt;init&gt;()&gt;()&#45;&gt;REC_TEST_1 staticinvoke &lt;BasicTest: BasicTest rec_test_2(BasicTest)&gt;(REC_TEST_1::r1)</title>
<path fill="none" stroke="black" d="M689.25,-323.54C683.89,-318.56 678.97,-312.65 676,-306 652.18,-252.63 643.9,-223.34 676,-174.5 678.7,-170.4 681.99,-166.77 685.69,-163.57"/>
<polygon fill="black" stroke="black" points="687.69,-166.44 693.73,-157.73 683.58,-160.77 687.69,-166.44"/>
<text text-anchor="start" x="676" y="-276.2" font-family="Times,serif" font-size="14.00">[BasicTest.f.in02] =&gt; {@parameter0: BasicTest &#45;&gt; [f.new00], </text>
<text text-anchor="start" x="676" y="-259.7" font-family="Times,serif" font-size="14.00">f::$r0 &#45;&gt; [f.new00], </text>
<text text-anchor="start" x="676" y="-243.2" font-family="Times,serif" font-size="14.00">REC_TEST_1::$r0 &#45;&gt; [REC_TEST_1.new01], </text>
<text text-anchor="start" x="676" y="-226.7" font-family="Times,serif" font-size="14.00">REC_TEST_1::r1 &#45;&gt; [f.new00], </text>
<text text-anchor="start" x="676" y="-210.2" font-family="Times,serif" font-size="14.00">}</text>
</g>
<!-- REC_TEST_1 return REC_TEST_1::$r0 -->
<g id="node10" class="node">
<title>REC_TEST_1 return REC_TEST_1::$r0</title>
<polygon fill="none" stroke="black" points="948.38,-52 709.62,-52 709.62,-16 948.38,-16 948.38,-52"/>
<text text-anchor="middle" x="829" y="-28.95" font-family="Times,serif" font-size="14.00">REC_TEST_1 return REC_TEST_1::$r0</text>
</g>
<!-- REC_TEST_1 staticinvoke &lt;BasicTest: BasicTest rec_test_2(BasicTest)&gt;(REC_TEST_1::r1)&#45;&gt;REC_TEST_1 return REC_TEST_1::$r0 -->
<g id="edge8" class="edge">
<title>REC_TEST_1 staticinvoke &lt;BasicTest: BasicTest rec_test_2(BasicTest)&gt;(REC_TEST_1::r1)&#45;&gt;REC_TEST_1 return REC_TEST_1::$r0</title>
<path fill="none" stroke="black" d="M769.21,-120.11C780.44,-104.14 797.24,-80.21 810.18,-61.79"/>
<polygon fill="black" stroke="black" points="812.97,-63.91 815.86,-53.71 807.24,-59.88 812.97,-63.91"/>
<text text-anchor="start" x="803" y="-89.2" font-family="Times,serif" font-size="14.00">[] =&gt; {}</text>
</g>
<!-- rec_test_2 rec_test_2::r1 := @parameter0: BasicTest -->
<g id="node11" class="node">
<title>rec_test_2 rec_test_2::r1 := @parameter0: BasicTest</title>
<polygon fill="none" stroke="black" points="1860,-1157.5 1556,-1157.5 1556,-1121.5 1860,-1121.5 1860,-1157.5"/>
<text text-anchor="middle" x="1708" y="-1134.45" font-family="Times,serif" font-size="14.00">rec_test_2 rec_test_2::r1 := @parameter0: BasicTest</text>
</g>
<!-- REC_TEST_1 staticinvoke &lt;BasicTest: BasicTest rec_test_2(BasicTest)&gt;(REC_TEST_1::r1)&#45;&gt;rec_test_2 rec_test_2::r1 := @parameter0: BasicTest -->
<g id="edge17" class="edge">
<title>REC_TEST_1 staticinvoke &lt;BasicTest: BasicTest rec_test_2(BasicTest)&gt;(REC_TEST_1::r1)&#45;&gt;rec_test_2 rec_test_2::r1 := @parameter0: BasicTest</title>
<path fill="none" stroke="black" stroke-dasharray="1,5" d="M986.91,-156.93C1002.14,-161.54 1014.14,-167.3 1021,-174.5 1072.24,-228.25 1035,-266.74 1035,-341 1035,-953.5 1035,-953.5 1035,-953.5 1035,-1058.82 1345.33,-1106.41 1544.53,-1126.11"/>
<polygon fill="black" stroke="black" points="1543.91,-1129.57 1554.2,-1127.05 1544.59,-1122.6 1543.91,-1129.57"/>
<text text-anchor="middle" x="1293" y="-691.45" font-family="Times,serif" font-size="14.00">BasicTest.REC_TEST_1.in03</text>
<text text-anchor="start" x="1035" y="-674.95" font-family="Times,serif" font-size="14.00">[BasicTest.f.in02, BasicTest.REC_TEST_1.in03] =&gt; {@parameter0: BasicTest &#45;&gt; [f.new00], </text>
<text text-anchor="start" x="1035" y="-658.45" font-family="Times,serif" font-size="14.00">f::$r0 &#45;&gt; [f.new00], </text>
<text text-anchor="start" x="1035" y="-641.95" font-family="Times,serif" font-size="14.00">REC_TEST_1::$r0 &#45;&gt; [REC_TEST_1.new01], </text>
<text text-anchor="start" x="1035" y="-625.45" font-family="Times,serif" font-size="14.00">REC_TEST_1::r1 &#45;&gt; [f.new00], </text>
<text text-anchor="start" x="1035" y="-608.95" font-family="Times,serif" font-size="14.00">}</text>
</g>
<!-- REC_TEST_1 return REC_TEST_1::$r0&#45;&gt;f f::$r1.&lt;BasicTest: BasicTest f&gt; = null -->
<g id="edge18" class="edge">
<title>REC_TEST_1 return REC_TEST_1::$r0&#45;&gt;f f::$r1.&lt;BasicTest: BasicTest f&gt; = null</title>
<path fill="none" stroke="black" stroke-dasharray="1,5" d="M709.24,-35.83C560.18,-40.19 325,-59.43 325,-137.5 325,-546.5 325,-546.5 325,-546.5 325,-608.05 325,-680.19 325,-719.27"/>
<polygon fill="black" stroke="black" points="321.5,-719.24 325,-729.24 328.5,-719.24 321.5,-719.24"/>
<text text-anchor="middle" x="369.62" y="-336.95" font-family="Times,serif" font-size="14.00">BasicTest.f.in02</text>
</g>
<!-- rec_test_2 rec_test_2::$r0 = new BasicTest -->
<g id="node12" class="node">
<title>rec_test_2 rec_test_2::$r0 = new BasicTest</title>
<polygon fill="none" stroke="black" points="1807.75,-970.5 1556.25,-970.5 1556.25,-934.5 1807.75,-934.5 1807.75,-970.5"/>
<text text-anchor="middle" x="1682" y="-947.45" font-family="Times,serif" font-size="14.00">rec_test_2 rec_test_2::$r0 = new BasicTest</text>
</g>
<!-- rec_test_2 rec_test_2::r1 := @parameter0: BasicTest&#45;&gt;rec_test_2 rec_test_2::$r0 = new BasicTest -->
<g id="edge9" class="edge">
<title>rec_test_2 rec_test_2::r1 := @parameter0: BasicTest&#45;&gt;rec_test_2 rec_test_2::$r0 = new BasicTest</title>
<path fill="none" stroke="black" d="M1608.64,-1121.03C1601.1,-1116.41 1594.35,-1110.66 1589,-1103.5 1558.38,-1062.58 1559.91,-1030.53 1589,-988.5 1591.82,-984.43 1595.17,-980.83 1598.9,-977.65"/>
<polygon fill="black" stroke="black" points="1600.91,-980.52 1607,-971.85 1596.84,-974.83 1600.91,-980.52"/>
<text text-anchor="start" x="1589" y="-1090.2" font-family="Times,serif" font-size="14.00">[BasicTest.f.in02, BasicTest.REC_TEST_1.in03] =&gt; {@parameter0: BasicTest &#45;&gt; [f.new00], </text>
<text text-anchor="start" x="1589" y="-1073.7" font-family="Times,serif" font-size="14.00">f::$r0 &#45;&gt; [f.new00], </text>
<text text-anchor="start" x="1589" y="-1057.2" font-family="Times,serif" font-size="14.00">REC_TEST_1::$r0 &#45;&gt; [REC_TEST_1.new01], </text>
<text text-anchor="start" x="1589" y="-1040.7" font-family="Times,serif" font-size="14.00">REC_TEST_1::r1 &#45;&gt; [f.new00], </text>
<text text-anchor="start" x="1589" y="-1024.2" font-family="Times,serif" font-size="14.00">rec_test_2::r1 &#45;&gt; [f.new00], </text>
<text text-anchor="start" x="1589" y="-1007.7" font-family="Times,serif" font-size="14.00">}</text>
</g>
<!-- rec_test_2 specialinvoke rec_test_2::$r0.&lt;BasicTest: void &lt;init&gt;()&gt;() -->
<g id="node13" class="node">
<title>rec_test_2 specialinvoke rec_test_2::$r0.&lt;BasicTest: void &lt;init&gt;()&gt;()</title>
<polygon fill="none" stroke="black" points="1951.75,-767 1556.25,-767 1556.25,-731 1951.75,-731 1951.75,-767"/>
<text text-anchor="middle" x="1754" y="-743.95" font-family="Times,serif" font-size="14.00">rec_test_2 specialinvoke rec_test_2::$r0.&lt;BasicTest: void &lt;init&gt;()&gt;()</text>
</g>
<!-- rec_test_2 rec_test_2::$r0 = new BasicTest&#45;&gt;rec_test_2 specialinvoke rec_test_2::$r0.&lt;BasicTest: void &lt;init&gt;()&gt;() -->
<g id="edge10" class="edge">
<title>rec_test_2 rec_test_2::$r0 = new BasicTest&#45;&gt;rec_test_2 specialinvoke rec_test_2::$r0.&lt;BasicTest: void &lt;init&gt;()&gt;()</title>
<path fill="none" stroke="black" d="M1611.44,-934.21C1603.81,-929.63 1597.02,-923.83 1592,-916.5 1559,-868.26 1555.3,-830.48 1592,-785 1596.43,-779.51 1605.09,-774.85 1616.22,-770.88"/>
<polygon fill="black" stroke="black" points="1617.15,-774.26 1625.63,-767.9 1615.04,-767.59 1617.15,-774.26"/>
<text text-anchor="start" x="1592" y="-903.2" font-family="Times,serif" font-size="14.00">[BasicTest.f.in02, BasicTest.REC_TEST_1.in03] =&gt; {rec_test_2::$r0 &#45;&gt; [rec_test_2.new01], </text>
<text text-anchor="start" x="1592" y="-886.7" font-family="Times,serif" font-size="14.00">@parameter0: BasicTest &#45;&gt; [f.new00], </text>
<text text-anchor="start" x="1592" y="-870.2" font-family="Times,serif" font-size="14.00">f::$r0 &#45;&gt; [f.new00], </text>
<text text-anchor="start" x="1592" y="-853.7" font-family="Times,serif" font-size="14.00">REC_TEST_1::$r0 &#45;&gt; [REC_TEST_1.new01], </text>
<text text-anchor="start" x="1592" y="-837.2" font-family="Times,serif" font-size="14.00">REC_TEST_1::r1 &#45;&gt; [f.new00], </text>
<text text-anchor="start" x="1592" y="-820.7" font-family="Times,serif" font-size="14.00">rec_test_2::r1 &#45;&gt; [f.new00], </text>
<text text-anchor="start" x="1592" y="-804.2" font-family="Times,serif" font-size="14.00">}</text>
</g>
<!-- rec_test_2 rec_test_2::$r2 = rec_test_2::r1.&lt;BasicTest: BasicTest f&gt; -->
<g id="node14" class="node">
<title>rec_test_2 rec_test_2::$r2 = rec_test_2::r1.&lt;BasicTest: BasicTest f&gt;</title>
<polygon fill="none" stroke="black" points="1944.38,-563.5 1555.62,-563.5 1555.62,-527.5 1944.38,-527.5 1944.38,-563.5"/>
<text text-anchor="middle" x="1750" y="-540.45" font-family="Times,serif" font-size="14.00">rec_test_2 rec_test_2::$r2 = rec_test_2::r1.&lt;BasicTest: BasicTest f&gt;</text>
</g>
<!-- rec_test_2 specialinvoke rec_test_2::$r0.&lt;BasicTest: void &lt;init&gt;()&gt;()&#45;&gt;rec_test_2 rec_test_2::$r2 = rec_test_2::r1.&lt;BasicTest: BasicTest f&gt; -->
<g id="edge11" class="edge">
<title>rec_test_2 specialinvoke rec_test_2::$r0.&lt;BasicTest: void &lt;init&gt;()&gt;()&#45;&gt;rec_test_2 rec_test_2::$r2 = rec_test_2::r1.&lt;BasicTest: BasicTest f&gt;</title>
<path fill="none" stroke="black" d="M1609.69,-730.53C1593.65,-725.96 1580.94,-720.21 1575,-713 1556.42,-690.44 1556.47,-604.1 1575,-581.5 1579.51,-576 1588.04,-571.34 1599,-567.41"/>
<polygon fill="black" stroke="black" points="1599.79,-570.83 1608.25,-564.45 1597.66,-564.16 1599.79,-570.83"/>
<text text-anchor="start" x="1575" y="-699.7" font-family="Times,serif" font-size="14.00">[BasicTest.f.in02, BasicTest.REC_TEST_1.in03] =&gt; {rec_test_2::$r0 &#45;&gt; [rec_test_2.new01], </text>
<text text-anchor="start" x="1575" y="-683.2" font-family="Times,serif" font-size="14.00">@parameter0: BasicTest &#45;&gt; [f.new00], </text>
<text text-anchor="start" x="1575" y="-666.7" font-family="Times,serif" font-size="14.00">f::$r0 &#45;&gt; [f.new00], </text>
<text text-anchor="start" x="1575" y="-650.2" font-family="Times,serif" font-size="14.00">REC_TEST_1::$r0 &#45;&gt; [REC_TEST_1.new01], </text>
<text text-anchor="start" x="1575" y="-633.7" font-family="Times,serif" font-size="14.00">REC_TEST_1::r1 &#45;&gt; [f.new00], </text>
<text text-anchor="start" x="1575" y="-617.2" font-family="Times,serif" font-size="14.00">rec_test_2::r1 &#45;&gt; [f.new00], </text>
<text text-anchor="start" x="1575" y="-600.7" font-family="Times,serif" font-size="14.00">}</text>
</g>
<!-- rec_test_2 if rec_test_2::$r2 == null goto staticinvoke &lt;BasicTest: BasicTest rec_test_2(BasicTest)&gt;(rec_test_2::$r0) -->
<g id="node15" class="node">
<title>rec_test_2 if rec_test_2::$r2 == null goto staticinvoke &lt;BasicTest: BasicTest rec_test_2(BasicTest)&gt;(rec_test_2::$r0)</title>
<polygon fill="none" stroke="black" points="2211.88,-360 1556.12,-360 1556.12,-324 2211.88,-324 2211.88,-360"/>
<text text-anchor="middle" x="1884" y="-336.95" font-family="Times,serif" font-size="14.00">rec_test_2 if rec_test_2::$r2 == null goto staticinvoke &lt;BasicTest: BasicTest rec_test_2(BasicTest)&gt;(rec_test_2::$r0)</text>
</g>
<!-- rec_test_2 rec_test_2::$r2 = rec_test_2::r1.&lt;BasicTest: BasicTest f&gt;&#45;&gt;rec_test_2 if rec_test_2::$r2 == null goto staticinvoke &lt;BasicTest: BasicTest rec_test_2(BasicTest)&gt;(rec_test_2::$r0) -->
<g id="edge12" class="edge">
<title>rec_test_2 rec_test_2::$r2 = rec_test_2::r1.&lt;BasicTest: BasicTest f&gt;&#45;&gt;rec_test_2 if rec_test_2::$r2 == null goto staticinvoke &lt;BasicTest: BasicTest rec_test_2(BasicTest)&gt;(rec_test_2::$r0)</title>
<path fill="none" stroke="black" d="M1725.93,-527.2C1720.69,-522.14 1715.87,-516.16 1713,-509.5 1689.89,-455.82 1676.05,-423.28 1713,-378 1717.51,-372.47 1726.15,-367.79 1737.24,-363.84"/>
<polygon fill="black" stroke="black" points="1738.15,-367.22 1746.62,-360.87 1736.03,-360.55 1738.15,-367.22"/>
<text text-anchor="start" x="1713" y="-496.2" font-family="Times,serif" font-size="14.00">[BasicTest.f.in02, BasicTest.REC_TEST_1.in03] =&gt; {rec_test_2::$r0 &#45;&gt; [rec_test_2.new01], </text>
<text text-anchor="start" x="1713" y="-479.7" font-family="Times,serif" font-size="14.00">@parameter0: BasicTest &#45;&gt; [f.new00], </text>
<text text-anchor="start" x="1713" y="-463.2" font-family="Times,serif" font-size="14.00">f::$r0 &#45;&gt; [f.new00], </text>
<text text-anchor="start" x="1713" y="-446.7" font-family="Times,serif" font-size="14.00">REC_TEST_1::$r0 &#45;&gt; [REC_TEST_1.new01], </text>
<text text-anchor="start" x="1713" y="-430.2" font-family="Times,serif" font-size="14.00">REC_TEST_1::r1 &#45;&gt; [f.new00], </text>
<text text-anchor="start" x="1713" y="-413.7" font-family="Times,serif" font-size="14.00">rec_test_2::r1 &#45;&gt; [f.new00], </text>
<text text-anchor="start" x="1713" y="-397.2" font-family="Times,serif" font-size="14.00">}</text>
</g>
<!-- rec_test_2 return null -->
<g id="node16" class="node">
<title>rec_test_2 return null</title>
<polygon fill="none" stroke="black" points="1703.12,-156.5 1570.88,-156.5 1570.88,-120.5 1703.12,-120.5 1703.12,-156.5"/>
<text text-anchor="middle" x="1637" y="-133.45" font-family="Times,serif" font-size="14.00">rec_test_2 return null</text>
</g>
<!-- rec_test_2 if rec_test_2::$r2 == null goto staticinvoke &lt;BasicTest: BasicTest rec_test_2(BasicTest)&gt;(rec_test_2::$r0)&#45;&gt;rec_test_2 return null -->
<g id="edge13" class="edge">
<title>rec_test_2 if rec_test_2::$r2 == null goto staticinvoke &lt;BasicTest: BasicTest rec_test_2(BasicTest)&gt;(rec_test_2::$r0)&#45;&gt;rec_test_2 return null</title>
<path fill="none" stroke="red" d="M1670.64,-323.61C1655.86,-319 1644.31,-313.23 1638,-306 1604.81,-267.98 1616.43,-204.37 1627.17,-167.76"/>
<polygon fill="red" stroke="red" points="1630.47,-168.93 1630.12,-158.34 1623.79,-166.84 1630.47,-168.93"/>
<text text-anchor="start" x="1638" y="-292.7" font-family="Times,serif" font-size="14.00">[BasicTest.f.in02, BasicTest.REC_TEST_1.in03] =&gt; {rec_test_2::$r0 &#45;&gt; [rec_test_2.new01], </text>
<text text-anchor="start" x="1638" y="-276.2" font-family="Times,serif" font-size="14.00">@parameter0: BasicTest &#45;&gt; [f.new00], </text>
<text text-anchor="start" x="1638" y="-259.7" font-family="Times,serif" font-size="14.00">f::$r0 &#45;&gt; [f.new00], </text>
<text text-anchor="start" x="1638" y="-243.2" font-family="Times,serif" font-size="14.00">REC_TEST_1::$r0 &#45;&gt; [REC_TEST_1.new01], </text>
<text text-anchor="start" x="1638" y="-226.7" font-family="Times,serif" font-size="14.00">REC_TEST_1::r1 &#45;&gt; [f.new00], </text>
<text text-anchor="start" x="1638" y="-210.2" font-family="Times,serif" font-size="14.00">rec_test_2::r1 &#45;&gt; [f.new00], </text>
<text text-anchor="start" x="1638" y="-193.7" font-family="Times,serif" font-size="14.00">}</text>
</g>
<!-- rec_test_2 staticinvoke &lt;BasicTest: BasicTest rec_test_2(BasicTest)&gt;(rec_test_2::$r0) -->
<g id="node17" class="node">
<title>rec_test_2 staticinvoke &lt;BasicTest: BasicTest rec_test_2(BasicTest)&gt;(rec_test_2::$r0)</title>
<polygon fill="none" stroke="black" points="2399.12,-156.5 1912.88,-156.5 1912.88,-120.5 2399.12,-120.5 2399.12,-156.5"/>
<text text-anchor="middle" x="2156" y="-133.45" font-family="Times,serif" font-size="14.00">rec_test_2 staticinvoke &lt;BasicTest: BasicTest rec_test_2(BasicTest)&gt;(rec_test_2::$r0)</text>
</g>
<!-- rec_test_2 if rec_test_2::$r2 == null goto staticinvoke &lt;BasicTest: BasicTest rec_test_2(BasicTest)&gt;(rec_test_2::$r0)&#45;&gt;rec_test_2 staticinvoke &lt;BasicTest: BasicTest rec_test_2(BasicTest)&gt;(rec_test_2::$r0) -->
<g id="edge14" class="edge">
<title>rec_test_2 if rec_test_2::$r2 == null goto staticinvoke &lt;BasicTest: BasicTest rec_test_2(BasicTest)&gt;(rec_test_2::$r0)&#45;&gt;rec_test_2 staticinvoke &lt;BasicTest: BasicTest rec_test_2(BasicTest)&gt;(rec_test_2::$r0)</title>
<path fill="none" stroke="red" d="M2118.78,-323.53C2133.22,-318.91 2144.53,-313.15 2151,-306 2184.96,-268.45 2174.81,-204.4 2165,-167.65"/>
<polygon fill="red" stroke="red" points="2168.41,-166.85 2162.3,-158.2 2161.68,-168.78 2168.41,-166.85"/>
</g>
<!-- rec_test_2 return null&#45;&gt;REC_TEST_1 return REC_TEST_1::$r0 -->
<g id="edge20" class="edge">
<title>rec_test_2 return null&#45;&gt;REC_TEST_1 return REC_TEST_1::$r0</title>
<path fill="none" stroke="black" stroke-dasharray="1,5" d="M1570.53,-129.07C1437.09,-112.14 1134.45,-73.75 959.84,-51.6"/>
<polygon fill="black" stroke="black" points="960.39,-48.14 950.03,-50.35 959.51,-55.08 960.39,-48.14"/>
<text text-anchor="middle" x="1433.75" y="-81.2" font-family="Times,serif" font-size="14.00">BasicTest.REC_TEST_1.in03</text>
</g>
<!-- rec_test_2 return rec_test_2::$r0 -->
<g id="node18" class="node">
<title>rec_test_2 return rec_test_2::$r0</title>
<polygon fill="none" stroke="black" points="1748.12,-52 1555.88,-52 1555.88,-16 1748.12,-16 1748.12,-52"/>
<text text-anchor="middle" x="1652" y="-28.95" font-family="Times,serif" font-size="14.00">rec_test_2 return rec_test_2::$r0</text>
</g>
<!-- rec_test_2 return null&#45;&gt;rec_test_2 return rec_test_2::$r0 -->
<g id="edge19" class="edge">
<title>rec_test_2 return null&#45;&gt;rec_test_2 return rec_test_2::$r0</title>
<path fill="none" stroke="red" stroke-dasharray="1,5" d="M1639.54,-120.11C1641.8,-104.72 1645.13,-81.96 1647.78,-63.85"/>
<polygon fill="red" stroke="red" points="1651.24,-64.37 1649.22,-53.97 1644.31,-63.36 1651.24,-64.37"/>
<text text-anchor="middle" x="1716.12" y="-81.2" font-family="Times,serif" font-size="14.00">BasicTest.rec_test_2.in06</text>
</g>
<!-- rec_test_2 staticinvoke &lt;BasicTest: BasicTest rec_test_2(BasicTest)&gt;(rec_test_2::$r0)&#45;&gt;rec_test_2 rec_test_2::r1 := @parameter0: BasicTest -->
<g id="edge21" class="edge">
<title>rec_test_2 staticinvoke &lt;BasicTest: BasicTest rec_test_2(BasicTest)&gt;(rec_test_2::$r0)&#45;&gt;rec_test_2 rec_test_2::r1 := @parameter0: BasicTest</title>
<path fill="none" stroke="black" stroke-dasharray="1,5" d="M2163.76,-156.89C2177.77,-189.12 2207.13,-260.64 2221,-324 2226.15,-347.55 2224.89,-353.92 2226,-378 2233.54,-541.27 2226.92,-994.64 2105,-1103.5 2087.18,-1119.41 1973.1,-1128.34 1871.77,-1133.19"/>
<polygon fill="black" stroke="black" points="1871.78,-1129.68 1861.95,-1133.65 1872.1,-1136.68 1871.78,-1129.68"/>
<text text-anchor="middle" x="2484" y="-691.45" font-family="Times,serif" font-size="14.00">BasicTest.rec_test_2.in06</text>
<text text-anchor="start" x="2226" y="-674.95" font-family="Times,serif" font-size="14.00">[BasicTest.f.in02, BasicTest.REC_TEST_1.in03] =&gt; {@parameter0: BasicTest &#45;&gt; [f.new00], </text>
<text text-anchor="start" x="2226" y="-658.45" font-family="Times,serif" font-size="14.00">f::$r0 &#45;&gt; [f.new00], </text>
<text text-anchor="start" x="2226" y="-641.95" font-family="Times,serif" font-size="14.00">REC_TEST_1::$r0 &#45;&gt; [REC_TEST_1.new01], </text>
<text text-anchor="start" x="2226" y="-625.45" font-family="Times,serif" font-size="14.00">REC_TEST_1::r1 &#45;&gt; [f.new00], </text>
<text text-anchor="start" x="2226" y="-608.95" font-family="Times,serif" font-size="14.00">}</text>
</g>
<!-- rec_test_2 staticinvoke &lt;BasicTest: BasicTest rec_test_2(BasicTest)&gt;(rec_test_2::$r0)&#45;&gt;rec_test_2 return rec_test_2::$r0 -->
<g id="edge15" class="edge">
<title>rec_test_2 staticinvoke &lt;BasicTest: BasicTest rec_test_2(BasicTest)&gt;(rec_test_2::$r0)&#45;&gt;rec_test_2 return rec_test_2::$r0</title>
<path fill="none" stroke="red" d="M2070.22,-120.05C1981.11,-101.93 1841.95,-73.63 1748.92,-54.71"/>
<polygon fill="red" stroke="red" points="1749.79,-51.32 1739.3,-52.75 1748.4,-58.18 1749.79,-51.32"/>
<text text-anchor="start" x="1978" y="-89.2" font-family="Times,serif" font-size="14.00">[] =&gt; {}</text>
</g>
<!-- rec_test_2 return rec_test_2::$r0&#45;&gt;REC_TEST_1 return REC_TEST_1::$r0 -->
<g id="edge23" class="edge">
<title>rec_test_2 return rec_test_2::$r0&#45;&gt;REC_TEST_1 return REC_TEST_1::$r0</title>
<path fill="none" stroke="black" stroke-dasharray="1,5" d="M1555.63,-34C1408.08,-34 1125.88,-34 959.92,-34"/>
<polygon fill="black" stroke="black" points="960.18,-30.5 950.18,-34 960.18,-37.5 960.18,-30.5"/>
<text text-anchor="middle" x="1252.12" y="-40.2" font-family="Times,serif" font-size="14.00">BasicTest.REC_TEST_1.in03</text>
</g>
<!-- rec_test_2 return rec_test_2::$r0&#45;&gt;rec_test_2 return rec_test_2::$r0 -->
<g id="edge22" class="edge">
<title>rec_test_2 return rec_test_2::$r0&#45;&gt;rec_test_2 return rec_test_2::$r0</title>
<path fill="none" stroke="red" stroke-dasharray="1,5" d="M1748.58,-42.24C1759.24,-40.68 1766.12,-37.93 1766.12,-34 1766.12,-31.67 1763.7,-29.75 1759.5,-28.25"/>
<polygon fill="red" stroke="red" points="1760.58,-24.91 1750.06,-26.1 1759.03,-31.73 1760.58,-24.91"/>
<text text-anchor="middle" x="1836.25" y="-28.95" font-family="Times,serif" font-size="14.00">BasicTest.rec_test_2.in06</text>
</g>
</g>
</svg>
