<?xml version="1.0" encoding="UTF-8" standalone="no"?>
<!DOCTYPE svg PUBLIC "-//W3C//DTD SVG 1.1//EN"
 "http://www.w3.org/Graphics/SVG/1.1/DTD/svg11.dtd">
<!-- Generated by graphviz version 9.0.0 (20230911.1827)
 -->
<!-- Title: G Pages: 1 -->
<svg width="962pt" height="2144pt"
 viewBox="0.00 0.00 962.00 2144.00" xmlns="http://www.w3.org/2000/svg" xmlns:xlink="http://www.w3.org/1999/xlink">
<g id="graph0" class="graph" transform="scale(1 1) rotate(0) translate(4 2140)">
<title>G</title>
<polygon fill="white" stroke="none" points="-4,4 -4,-2140 958,-2140 958,4 -4,4"/>
<g id="clust1" class="cluster">
<title>cluster_0</title>
<polygon fill="none" stroke="black" points="8,-844 8,-2128 478,-2128 478,-844 8,-844"/>
</g>
<g id="clust2" class="cluster">
<title>cluster_1</title>
<polygon fill="none" stroke="black" points="486,-8 486,-896 828,-896 828,-8 486,-8"/>
</g>
<!-- test1 test1::$r0 = new PubTest -->
<g id="node1" class="node">
<title>test1 test1::$r0 = new PubTest</title>
<polygon fill="none" stroke="black" points="334.25,-2120 151.75,-2120 151.75,-2084 334.25,-2084 334.25,-2120"/>
<text text-anchor="middle" x="243" y="-2096.95" font-family="Times,serif" font-size="14.00">test1 test1::$r0 = new PubTest</text>
</g>
<!-- test1 specialinvoke test1::$r0.&lt;PubTest: void &lt;init&gt;()&gt;() -->
<g id="node2" class="node">
<title>test1 specialinvoke test1::$r0.&lt;PubTest: void &lt;init&gt;()&gt;()</title>
<polygon fill="none" stroke="black" points="406.25,-1999 79.75,-1999 79.75,-1963 406.25,-1963 406.25,-1999"/>
<text text-anchor="middle" x="243" y="-1975.95" font-family="Times,serif" font-size="14.00">test1 specialinvoke test1::$r0.&lt;PubTest: void &lt;init&gt;()&gt;()</text>
</g>
<!-- test1 test1::$r0 = new PubTest&#45;&gt;test1 specialinvoke test1::$r0.&lt;PubTest: void &lt;init&gt;()&gt;() -->
<g id="edge1" class="edge">
<title>test1 test1::$r0 = new PubTest&#45;&gt;test1 specialinvoke test1::$r0.&lt;PubTest: void &lt;init&gt;()&gt;()</title>
<path fill="none" stroke="black" d="M243,-2083.7C243,-2064.57 243,-2033.46 243,-2010.68"/>
<polygon fill="black" stroke="black" points="246.5,-2010.84 243,-2000.84 239.5,-2010.84 246.5,-2010.84"/>
<text text-anchor="start" x="243" y="-2052.7" font-family="Times,serif" font-size="14.00">[] =&gt; {test1::$r0 &#45;&gt; [test1.new00], </text>
<text text-anchor="start" x="243" y="-2036.2" font-family="Times,serif" font-size="14.00">}</text>
</g>
<!-- test1 test1::$r1 = new PubTest -->
<g id="node3" class="node">
<title>test1 test1::$r1 = new PubTest</title>
<polygon fill="none" stroke="black" points="334.25,-1878 151.75,-1878 151.75,-1842 334.25,-1842 334.25,-1878"/>
<text text-anchor="middle" x="243" y="-1854.95" font-family="Times,serif" font-size="14.00">test1 test1::$r1 = new PubTest</text>
</g>
<!-- test1 specialinvoke test1::$r0.&lt;PubTest: void &lt;init&gt;()&gt;()&#45;&gt;test1 test1::$r1 = new PubTest -->
<g id="edge2" class="edge">
<title>test1 specialinvoke test1::$r0.&lt;PubTest: void &lt;init&gt;()&gt;()&#45;&gt;test1 test1::$r1 = new PubTest</title>
<path fill="none" stroke="black" d="M243,-1962.7C243,-1943.57 243,-1912.46 243,-1889.68"/>
<polygon fill="black" stroke="black" points="246.5,-1889.84 243,-1879.84 239.5,-1889.84 246.5,-1889.84"/>
<text text-anchor="start" x="243" y="-1931.7" font-family="Times,serif" font-size="14.00">[] =&gt; {test1::$r0 &#45;&gt; [test1.new00], </text>
<text text-anchor="start" x="243" y="-1915.2" font-family="Times,serif" font-size="14.00">}</text>
</g>
<!-- test1 specialinvoke test1::$r1.&lt;PubTest: void &lt;init&gt;()&gt;() -->
<g id="node4" class="node">
<title>test1 specialinvoke test1::$r1.&lt;PubTest: void &lt;init&gt;()&gt;()</title>
<polygon fill="none" stroke="black" points="406.25,-1740.5 79.75,-1740.5 79.75,-1704.5 406.25,-1704.5 406.25,-1740.5"/>
<text text-anchor="middle" x="243" y="-1717.45" font-family="Times,serif" font-size="14.00">test1 specialinvoke test1::$r1.&lt;PubTest: void &lt;init&gt;()&gt;()</text>
</g>
<!-- test1 test1::$r1 = new PubTest&#45;&gt;test1 specialinvoke test1::$r1.&lt;PubTest: void &lt;init&gt;()&gt;() -->
<g id="edge3" class="edge">
<title>test1 test1::$r1 = new PubTest&#45;&gt;test1 specialinvoke test1::$r1.&lt;PubTest: void &lt;init&gt;()&gt;()</title>
<path fill="none" stroke="black" d="M243,-1841.56C243,-1819 243,-1779.38 243,-1752.32"/>
<polygon fill="black" stroke="black" points="246.5,-1752.38 243,-1742.38 239.5,-1752.38 246.5,-1752.38"/>
<text text-anchor="start" x="243" y="-1810.7" font-family="Times,serif" font-size="14.00">[] =&gt; {test1::$r0 &#45;&gt; [test1.new00], </text>
<text text-anchor="start" x="243" y="-1794.2" font-family="Times,serif" font-size="14.00">test1::$r1 &#45;&gt; [test1.new02], </text>
<text text-anchor="start" x="243" y="-1777.7" font-family="Times,serif" font-size="14.00">}</text>
</g>
<!-- test1 test1::$r0.&lt;PubTest: PubTest f&gt; = test1::$r1 -->
<g id="node5" class="node">
<title>test1 test1::$r0.&lt;PubTest: PubTest f&gt; = test1::$r1</title>
<polygon fill="none" stroke="black" points="386.75,-1603 99.25,-1603 99.25,-1567 386.75,-1567 386.75,-1603"/>
<text text-anchor="middle" x="243" y="-1579.95" font-family="Times,serif" font-size="14.00">test1 test1::$r0.&lt;PubTest: PubTest f&gt; = test1::$r1</text>
</g>
<!-- test1 specialinvoke test1::$r1.&lt;PubTest: void &lt;init&gt;()&gt;()&#45;&gt;test1 test1::$r0.&lt;PubTest: PubTest f&gt; = test1::$r1 -->
<g id="edge4" class="edge">
<title>test1 specialinvoke test1::$r1.&lt;PubTest: void &lt;init&gt;()&gt;()&#45;&gt;test1 test1::$r0.&lt;PubTest: PubTest f&gt; = test1::$r1</title>
<path fill="none" stroke="black" d="M243,-1704.06C243,-1681.5 243,-1641.88 243,-1614.82"/>
<polygon fill="black" stroke="black" points="246.5,-1614.88 243,-1604.88 239.5,-1614.88 246.5,-1614.88"/>
<text text-anchor="start" x="243" y="-1673.2" font-family="Times,serif" font-size="14.00">[] =&gt; {test1::$r0 &#45;&gt; [test1.new00], </text>
<text text-anchor="start" x="243" y="-1656.7" font-family="Times,serif" font-size="14.00">test1::$r1 &#45;&gt; [test1.new02], </text>
<text text-anchor="start" x="243" y="-1640.2" font-family="Times,serif" font-size="14.00">}</text>
</g>
<!-- test1 test1::$r2 = new PubTest -->
<g id="node6" class="node">
<title>test1 test1::$r2 = new PubTest</title>
<polygon fill="none" stroke="black" points="334.25,-1449 151.75,-1449 151.75,-1413 334.25,-1413 334.25,-1449"/>
<text text-anchor="middle" x="243" y="-1425.95" font-family="Times,serif" font-size="14.00">test1 test1::$r2 = new PubTest</text>
</g>
<!-- test1 test1::$r0.&lt;PubTest: PubTest f&gt; = test1::$r1&#45;&gt;test1 test1::$r2 = new PubTest -->
<g id="edge5" class="edge">
<title>test1 test1::$r0.&lt;PubTest: PubTest f&gt; = test1::$r1&#45;&gt;test1 test1::$r2 = new PubTest</title>
<path fill="none" stroke="black" d="M243,-1566.56C243,-1540.68 243,-1491.8 243,-1460.62"/>
<polygon fill="black" stroke="black" points="246.5,-1460.75 243,-1450.75 239.5,-1460.75 246.5,-1460.75"/>
<text text-anchor="start" x="243" y="-1535.7" font-family="Times,serif" font-size="14.00">[] =&gt; {test1::$r0 &#45;&gt; [test1.new00], </text>
<text text-anchor="start" x="243" y="-1519.2" font-family="Times,serif" font-size="14.00">test1.new00.f &#45;&gt; [test1.new02], </text>
<text text-anchor="start" x="243" y="-1502.7" font-family="Times,serif" font-size="14.00">test1::$r1 &#45;&gt; [test1.new02], </text>
<text text-anchor="start" x="243" y="-1486.2" font-family="Times,serif" font-size="14.00">}</text>
</g>
<!-- test1 specialinvoke test1::$r2.&lt;PubTest: void &lt;init&gt;()&gt;() -->
<g id="node7" class="node">
<title>test1 specialinvoke test1::$r2.&lt;PubTest: void &lt;init&gt;()&gt;()</title>
<polygon fill="none" stroke="black" points="406.25,-1278.5 79.75,-1278.5 79.75,-1242.5 406.25,-1242.5 406.25,-1278.5"/>
<text text-anchor="middle" x="243" y="-1255.45" font-family="Times,serif" font-size="14.00">test1 specialinvoke test1::$r2.&lt;PubTest: void &lt;init&gt;()&gt;()</text>
</g>
<!-- test1 test1::$r2 = new PubTest&#45;&gt;test1 specialinvoke test1::$r2.&lt;PubTest: void &lt;init&gt;()&gt;() -->
<g id="edge6" class="edge">
<title>test1 test1::$r2 = new PubTest&#45;&gt;test1 specialinvoke test1::$r2.&lt;PubTest: void &lt;init&gt;()&gt;()</title>
<path fill="none" stroke="black" d="M243,-1412.6C243,-1383.57 243,-1324.97 243,-1289.89"/>
<polygon fill="black" stroke="black" points="246.5,-1290.07 243,-1280.07 239.5,-1290.07 246.5,-1290.07"/>
<text text-anchor="start" x="243" y="-1381.7" font-family="Times,serif" font-size="14.00">[] =&gt; {test1::$r0 &#45;&gt; [test1.new00], </text>
<text text-anchor="start" x="243" y="-1365.2" font-family="Times,serif" font-size="14.00">test1.new00.f &#45;&gt; [test1.new02], </text>
<text text-anchor="start" x="243" y="-1348.7" font-family="Times,serif" font-size="14.00">test1::$r1 &#45;&gt; [test1.new02], </text>
<text text-anchor="start" x="243" y="-1332.2" font-family="Times,serif" font-size="14.00">test1::$r2 &#45;&gt; [test1.new05]</text>
<text text-anchor="start" x="243" y="-1315.7" font-family="Times,serif" font-size="14.00">}</text>
</g>
<!-- test1 staticinvoke &lt;PubTest: void foo1(PubTest,PubTest)&gt;(test1::$r0, test1::$r2) -->
<g id="node8" class="node">
<title>test1 staticinvoke &lt;PubTest: void foo1(PubTest,PubTest)&gt;(test1::$r0, test1::$r2)</title>
<polygon fill="none" stroke="black" points="470.38,-1108 15.62,-1108 15.62,-1072 470.38,-1072 470.38,-1108"/>
<text text-anchor="middle" x="243" y="-1084.95" font-family="Times,serif" font-size="14.00">test1 staticinvoke &lt;PubTest: void foo1(PubTest,PubTest)&gt;(test1::$r0, test1::$r2)</text>
</g>
<!-- test1 specialinvoke test1::$r2.&lt;PubTest: void &lt;init&gt;()&gt;()&#45;&gt;test1 staticinvoke &lt;PubTest: void foo1(PubTest,PubTest)&gt;(test1::$r0, test1::$r2) -->
<g id="edge7" class="edge">
<title>test1 specialinvoke test1::$r2.&lt;PubTest: void &lt;init&gt;()&gt;()&#45;&gt;test1 staticinvoke &lt;PubTest: void foo1(PubTest,PubTest)&gt;(test1::$r0, test1::$r2)</title>
<path fill="none" stroke="black" d="M243,-1242.1C243,-1213.07 243,-1154.47 243,-1119.39"/>
<polygon fill="black" stroke="black" points="246.5,-1119.57 243,-1109.57 239.5,-1119.57 246.5,-1119.57"/>
<text text-anchor="start" x="243" y="-1211.2" font-family="Times,serif" font-size="14.00">[] =&gt; {test1::$r0 &#45;&gt; [test1.new00], </text>
<text text-anchor="start" x="243" y="-1194.7" font-family="Times,serif" font-size="14.00">test1.new00.f &#45;&gt; [test1.new02], </text>
<text text-anchor="start" x="243" y="-1178.2" font-family="Times,serif" font-size="14.00">test1::$r1 &#45;&gt; [test1.new02], </text>
<text text-anchor="start" x="243" y="-1161.7" font-family="Times,serif" font-size="14.00">test1::$r2 &#45;&gt; [test1.new05]</text>
<text text-anchor="start" x="243" y="-1145.2" font-family="Times,serif" font-size="14.00">}</text>
</g>
<!-- test1 return -->
<g id="node9" class="node">
<title>test1 return</title>
<polygon fill="none" stroke="black" points="397.75,-888 320.25,-888 320.25,-852 397.75,-852 397.75,-888"/>
<text text-anchor="middle" x="359" y="-864.95" font-family="Times,serif" font-size="14.00">test1 return</text>
</g>
<!-- test1 staticinvoke &lt;PubTest: void foo1(PubTest,PubTest)&gt;(test1::$r0, test1::$r2)&#45;&gt;test1 return -->
<g id="edge8" class="edge">
<title>test1 staticinvoke &lt;PubTest: void foo1(PubTest,PubTest)&gt;(test1::$r0, test1::$r2)&#45;&gt;test1 return</title>
<path fill="none" stroke="black" d="M252.3,-1071.53C272.45,-1033.65 320.31,-943.71 344.49,-898.27"/>
<polygon fill="black" stroke="black" points="347.5,-900.06 349.11,-889.59 341.32,-896.77 347.5,-900.06"/>
<text text-anchor="start" x="339" y="-982.95" font-family="Times,serif" font-size="14.00">[] =&gt; {}</text>
</g>
<!-- foo1 foo1::r0 := @parameter0: PubTest -->
<g id="node10" class="node">
<title>foo1 foo1::r0 := @parameter0: PubTest</title>
<polygon fill="none" stroke="black" points="736.75,-888 503.25,-888 503.25,-852 736.75,-852 736.75,-888"/>
<text text-anchor="middle" x="620" y="-864.95" font-family="Times,serif" font-size="14.00">foo1 foo1::r0 := @parameter0: PubTest</text>
</g>
<!-- test1 staticinvoke &lt;PubTest: void foo1(PubTest,PubTest)&gt;(test1::$r0, test1::$r2)&#45;&gt;foo1 foo1::r0 := @parameter0: PubTest -->
<g id="edge17" class="edge">
<title>test1 staticinvoke &lt;PubTest: void foo1(PubTest,PubTest)&gt;(test1::$r0, test1::$r2)&#45;&gt;foo1 foo1::r0 := @parameter0: PubTest</title>
<path fill="none" stroke="red" stroke-dasharray="1,5" d="M342.72,-1071.54C358.95,-1066.93 375.26,-1061.17 390,-1054 474.42,-1012.91 556.31,-936.35 595.69,-896.54"/>
<polygon fill="red" stroke="red" points="598.1,-899.07 602.6,-889.47 593.1,-894.17 598.1,-899.07"/>
<text text-anchor="middle" x="769.5" y="-1040.7" font-family="Times,serif" font-size="14.00">PubTest.test1.in07</text>
<text text-anchor="start" x="585" y="-1024.2" font-family="Times,serif" font-size="14.00">[PubTest.test1.in07] =&gt; {@parameter1: PubTest &#45;&gt; [test1.new05], </text>
<text text-anchor="start" x="585" y="-1007.7" font-family="Times,serif" font-size="14.00">test1::$r0 &#45;&gt; [test1.new00], </text>
<text text-anchor="start" x="585" y="-991.2" font-family="Times,serif" font-size="14.00">test1.new00.f &#45;&gt; [test1.new02], </text>
<text text-anchor="start" x="585" y="-974.7" font-family="Times,serif" font-size="14.00">test1::$r1 &#45;&gt; [test1.new02], </text>
<text text-anchor="start" x="585" y="-958.2" font-family="Times,serif" font-size="14.00">@parameter0: PubTest &#45;&gt; [test1.new00], </text>
<text text-anchor="start" x="585" y="-941.7" font-family="Times,serif" font-size="14.00">test1::$r2 &#45;&gt; [test1.new05]</text>
<text text-anchor="start" x="585" y="-925.2" font-family="Times,serif" font-size="14.00">}</text>
</g>
<!-- foo1 foo1::r2 := @parameter1: PubTest -->
<g id="node11" class="node">
<title>foo1 foo1::r2 := @parameter1: PubTest</title>
<polygon fill="none" stroke="black" points="745.75,-783.5 512.25,-783.5 512.25,-747.5 745.75,-747.5 745.75,-783.5"/>
<text text-anchor="middle" x="629" y="-760.45" font-family="Times,serif" font-size="14.00">foo1 foo1::r2 := @parameter1: PubTest</text>
</g>
<!-- foo1 foo1::r0 := @parameter0: PubTest&#45;&gt;foo1 foo1::r2 := @parameter1: PubTest -->
<g id="edge9" class="edge">
<title>foo1 foo1::r0 := @parameter0: PubTest&#45;&gt;foo1 foo1::r2 := @parameter1: PubTest</title>
<path fill="none" stroke="red" d="M621.53,-851.61C622.88,-836.22 624.88,-813.46 626.47,-795.35"/>
<polygon fill="red" stroke="red" points="629.95,-795.75 627.33,-785.48 622.97,-795.14 629.95,-795.75"/>
<text text-anchor="start" x="625" y="-820.7" font-family="Times,serif" font-size="14.00">[] =&gt; {}</text>
</g>
<!-- foo1 foo1::r1 = foo1::r0.&lt;PubTest: PubTest f&gt; -->
<g id="node12" class="node">
<title>foo1 foo1::r1 = foo1::r0.&lt;PubTest: PubTest f&gt;</title>
<polygon fill="none" stroke="black" points="778.88,-679 507.12,-679 507.12,-643 778.88,-643 778.88,-679"/>
<text text-anchor="middle" x="643" y="-655.95" font-family="Times,serif" font-size="14.00">foo1 foo1::r1 = foo1::r0.&lt;PubTest: PubTest f&gt;</text>
</g>
<!-- foo1 foo1::r2 := @parameter1: PubTest&#45;&gt;foo1 foo1::r1 = foo1::r0.&lt;PubTest: PubTest f&gt; -->
<g id="edge10" class="edge">
<title>foo1 foo1::r2 := @parameter1: PubTest&#45;&gt;foo1 foo1::r1 = foo1::r0.&lt;PubTest: PubTest f&gt;</title>
<path fill="none" stroke="red" d="M631.37,-747.11C633.48,-731.72 636.59,-708.96 639.06,-690.85"/>
<polygon fill="red" stroke="red" points="642.52,-691.35 640.41,-680.97 635.59,-690.41 642.52,-691.35"/>
<text text-anchor="start" x="638" y="-716.2" font-family="Times,serif" font-size="14.00">[] =&gt; {}</text>
</g>
<!-- foo1 foo1::r1.&lt;PubTest: PubTest f&gt; = foo1::r2 -->
<g id="node13" class="node">
<title>foo1 foo1::r1.&lt;PubTest: PubTest f&gt; = foo1::r2</title>
<polygon fill="none" stroke="black" points="785.88,-574.5 514.12,-574.5 514.12,-538.5 785.88,-538.5 785.88,-574.5"/>
<text text-anchor="middle" x="650" y="-551.45" font-family="Times,serif" font-size="14.00">foo1 foo1::r1.&lt;PubTest: PubTest f&gt; = foo1::r2</text>
</g>
<!-- foo1 foo1::r1 = foo1::r0.&lt;PubTest: PubTest f&gt;&#45;&gt;foo1 foo1::r1.&lt;PubTest: PubTest f&gt; = foo1::r2 -->
<g id="edge11" class="edge">
<title>foo1 foo1::r1 = foo1::r0.&lt;PubTest: PubTest f&gt;&#45;&gt;foo1 foo1::r1.&lt;PubTest: PubTest f&gt; = foo1::r2</title>
<path fill="none" stroke="red" d="M644.19,-642.61C645.24,-627.22 646.79,-604.46 648.03,-586.35"/>
<polygon fill="red" stroke="red" points="651.51,-586.7 648.7,-576.48 644.53,-586.22 651.51,-586.7"/>
<text text-anchor="start" x="647" y="-611.7" font-family="Times,serif" font-size="14.00">[] =&gt; {}</text>
</g>
<!-- foo1 foo1::$r3 = new PubTest -->
<g id="node14" class="node">
<title>foo1 foo1::$r3 = new PubTest</title>
<polygon fill="none" stroke="black" points="744.5,-470 563.5,-470 563.5,-434 744.5,-434 744.5,-470"/>
<text text-anchor="middle" x="654" y="-446.95" font-family="Times,serif" font-size="14.00">foo1 foo1::$r3 = new PubTest</text>
</g>
<!-- foo1 foo1::r1.&lt;PubTest: PubTest f&gt; = foo1::r2&#45;&gt;foo1 foo1::$r3 = new PubTest -->
<g id="edge12" class="edge">
<title>foo1 foo1::r1.&lt;PubTest: PubTest f&gt; = foo1::r2&#45;&gt;foo1 foo1::$r3 = new PubTest</title>
<path fill="none" stroke="red" d="M650.68,-538.11C651.28,-522.72 652.17,-499.96 652.87,-481.85"/>
<polygon fill="red" stroke="red" points="656.37,-482.11 653.26,-471.99 649.37,-481.84 656.37,-482.11"/>
<text text-anchor="start" x="652" y="-507.2" font-family="Times,serif" font-size="14.00">[] =&gt; {}</text>
</g>
<!-- foo1 specialinvoke foo1::$r3.&lt;PubTest: void &lt;init&gt;()&gt;() -->
<g id="node15" class="node">
<title>foo1 specialinvoke foo1::$r3.&lt;PubTest: void &lt;init&gt;()&gt;()</title>
<polygon fill="none" stroke="black" points="819.5,-365.5 494.5,-365.5 494.5,-329.5 819.5,-329.5 819.5,-365.5"/>
<text text-anchor="middle" x="657" y="-342.45" font-family="Times,serif" font-size="14.00">foo1 specialinvoke foo1::$r3.&lt;PubTest: void &lt;init&gt;()&gt;()</text>
</g>
<!-- foo1 foo1::$r3 = new PubTest&#45;&gt;foo1 specialinvoke foo1::$r3.&lt;PubTest: void &lt;init&gt;()&gt;() -->
<g id="edge13" class="edge">
<title>foo1 foo1::$r3 = new PubTest&#45;&gt;foo1 specialinvoke foo1::$r3.&lt;PubTest: void &lt;init&gt;()&gt;()</title>
<path fill="none" stroke="red" d="M654.51,-433.61C654.96,-418.22 655.63,-395.46 656.16,-377.35"/>
<polygon fill="red" stroke="red" points="659.65,-377.58 656.44,-367.49 652.65,-377.38 659.65,-377.58"/>
<text text-anchor="start" x="655" y="-402.7" font-family="Times,serif" font-size="14.00">[] =&gt; {}</text>
</g>
<!-- foo1 foo1::r2.&lt;PubTest: PubTest f&gt; = foo1::$r3 -->
<g id="node16" class="node">
<title>foo1 foo1::r2.&lt;PubTest: PubTest f&gt; = foo1::$r3</title>
<polygon fill="none" stroke="black" points="784.25,-261 505.75,-261 505.75,-225 784.25,-225 784.25,-261"/>
<text text-anchor="middle" x="645" y="-237.95" font-family="Times,serif" font-size="14.00">foo1 foo1::r2.&lt;PubTest: PubTest f&gt; = foo1::$r3</text>
</g>
<!-- foo1 specialinvoke foo1::$r3.&lt;PubTest: void &lt;init&gt;()&gt;()&#45;&gt;foo1 foo1::r2.&lt;PubTest: PubTest f&gt; = foo1::$r3 -->
<g id="edge14" class="edge">
<title>foo1 specialinvoke foo1::$r3.&lt;PubTest: void &lt;init&gt;()&gt;()&#45;&gt;foo1 foo1::r2.&lt;PubTest: PubTest f&gt; = foo1::$r3</title>
<path fill="none" stroke="red" d="M654.96,-329.11C653.16,-313.72 650.5,-290.96 648.38,-272.85"/>
<polygon fill="red" stroke="red" points="651.86,-272.5 647.22,-262.98 644.91,-273.32 651.86,-272.5"/>
<text text-anchor="start" x="652" y="-298.2" font-family="Times,serif" font-size="14.00">[] =&gt; {}</text>
</g>
<!-- foo1 foo1::$r3.&lt;PubTest: PubTest f&gt; = null -->
<g id="node17" class="node">
<title>foo1 foo1::$r3.&lt;PubTest: PubTest f&gt; = null</title>
<polygon fill="none" stroke="black" points="761,-156.5 505,-156.5 505,-120.5 761,-120.5 761,-156.5"/>
<text text-anchor="middle" x="633" y="-133.45" font-family="Times,serif" font-size="14.00">foo1 foo1::$r3.&lt;PubTest: PubTest f&gt; = null</text>
</g>
<!-- foo1 foo1::r2.&lt;PubTest: PubTest f&gt; = foo1::$r3&#45;&gt;foo1 foo1::$r3.&lt;PubTest: PubTest f&gt; = null -->
<g id="edge15" class="edge">
<title>foo1 foo1::r2.&lt;PubTest: PubTest f&gt; = foo1::$r3&#45;&gt;foo1 foo1::$r3.&lt;PubTest: PubTest f&gt; = null</title>
<path fill="none" stroke="red" d="M642.96,-224.61C641.16,-209.22 638.5,-186.46 636.38,-168.35"/>
<polygon fill="red" stroke="red" points="639.86,-168 635.22,-158.48 632.91,-168.82 639.86,-168"/>
<text text-anchor="start" x="640" y="-193.7" font-family="Times,serif" font-size="14.00">[] =&gt; {}</text>
</g>
<!-- foo1 return -->
<g id="node18" class="node">
<title>foo1 return</title>
<polygon fill="none" stroke="black" points="620.38,-52 543.62,-52 543.62,-16 620.38,-16 620.38,-52"/>
<text text-anchor="middle" x="582" y="-28.95" font-family="Times,serif" font-size="14.00">foo1 return</text>
</g>
<!-- foo1 foo1::$r3.&lt;PubTest: PubTest f&gt; = null&#45;&gt;foo1 return -->
<g id="edge16" class="edge">
<title>foo1 foo1::$r3.&lt;PubTest: PubTest f&gt; = null&#45;&gt;foo1 return</title>
<path fill="none" stroke="red" d="M624.35,-120.11C616.51,-104.36 604.82,-80.87 595.71,-62.56"/>
<polygon fill="red" stroke="red" points="598.96,-61.22 591.37,-53.83 592.69,-64.34 598.96,-61.22"/>
<text text-anchor="start" x="615" y="-89.2" font-family="Times,serif" font-size="14.00">[] =&gt; {}</text>
</g>
<!-- foo1 return&#45;&gt;test1 return -->
<g id="edge18" class="edge">
<title>foo1 return&#45;&gt;test1 return</title>
<path fill="none" stroke="black" stroke-dasharray="1,5" d="M543.27,-41.23C493.93,-51.63 415,-77.63 415,-137.5 415,-766.5 415,-766.5 415,-766.5 415,-795.08 398.03,-823.26 382.77,-842.81"/>
<polygon fill="black" stroke="black" points="380.09,-840.56 376.46,-850.52 385.5,-845 380.09,-840.56"/>
<text text-anchor="middle" x="465.62" y="-446.95" font-family="Times,serif" font-size="14.00">PubTest.test1.in07</text>
</g>
</g>
</svg>
