<?xml version="1.0" encoding="UTF-8" standalone="no"?>
<!DOCTYPE svg PUBLIC "-//W3C//DTD SVG 1.1//EN"
 "http://www.w3.org/Graphics/SVG/1.1/DTD/svg11.dtd">
<!-- Generated by graphviz version 9.0.0 (20230911.1827)
 -->
<!-- Title: G Pages: 1 -->
<svg width="844pt" height="1913pt"
 viewBox="0.00 0.00 844.00 1913.00" xmlns="http://www.w3.org/2000/svg" xmlns:xlink="http://www.w3.org/1999/xlink">
<g id="graph0" class="graph" transform="scale(1 1) rotate(0) translate(4 1909)">
<title>G</title>
<polygon fill="white" stroke="none" points="-4,4 -4,-1909 840,-1909 840,4 -4,4"/>
<g id="clust1" class="cluster">
<title>cluster_0</title>
<polygon fill="none" stroke="black" points="8,-844 8,-1897 478,-1897 478,-844 8,-844"/>
</g>
<g id="clust2" class="cluster">
<title>cluster_1</title>
<polygon fill="none" stroke="black" points="486,-8 486,-896 828,-896 828,-8 486,-8"/>
</g>
<!-- test1 test1::$r0 = new PubTest -->
<g id="node1" class="node">
<title>test1 test1::$r0 = new PubTest</title>
<polygon fill="none" stroke="black" points="334.25,-1889 151.75,-1889 151.75,-1853 334.25,-1853 334.25,-1889"/>
<text text-anchor="middle" x="243" y="-1865.95" font-family="Times,serif" font-size="14.00">test1 test1::$r0 = new PubTest</text>
</g>
<!-- test1 specialinvoke test1::$r0.&lt;PubTest: void &lt;init&gt;()&gt;() -->
<g id="node2" class="node">
<title>test1 specialinvoke test1::$r0.&lt;PubTest: void &lt;init&gt;()&gt;()</title>
<polygon fill="none" stroke="black" points="406.25,-1768 79.75,-1768 79.75,-1732 406.25,-1732 406.25,-1768"/>
<text text-anchor="middle" x="243" y="-1744.95" font-family="Times,serif" font-size="14.00">test1 specialinvoke test1::$r0.&lt;PubTest: void &lt;init&gt;()&gt;()</text>
</g>
<!-- test1 test1::$r0 = new PubTest&#45;&gt;test1 specialinvoke test1::$r0.&lt;PubTest: void &lt;init&gt;()&gt;() -->
<g id="edge1" class="edge">
<title>test1 test1::$r0 = new PubTest&#45;&gt;test1 specialinvoke test1::$r0.&lt;PubTest: void &lt;init&gt;()&gt;()</title>
<path fill="none" stroke="black" d="M243,-1852.7C243,-1833.57 243,-1802.46 243,-1779.68"/>
<polygon fill="black" stroke="black" points="246.5,-1779.84 243,-1769.84 239.5,-1779.84 246.5,-1779.84"/>
<text text-anchor="start" x="243" y="-1821.7" font-family="Times,serif" font-size="14.00">[] =&gt; {test1::$r0 &#45;&gt; [test1.new00], </text>
<text text-anchor="start" x="243" y="-1805.2" font-family="Times,serif" font-size="14.00">}</text>
</g>
<!-- test1 test1::$r1 = new PubTest -->
<g id="node3" class="node">
<title>test1 test1::$r1 = new PubTest</title>
<polygon fill="none" stroke="black" points="334.25,-1647 151.75,-1647 151.75,-1611 334.25,-1611 334.25,-1647"/>
<text text-anchor="middle" x="243" y="-1623.95" font-family="Times,serif" font-size="14.00">test1 test1::$r1 = new PubTest</text>
</g>
<!-- test1 specialinvoke test1::$r0.&lt;PubTest: void &lt;init&gt;()&gt;()&#45;&gt;test1 test1::$r1 = new PubTest -->
<g id="edge2" class="edge">
<title>test1 specialinvoke test1::$r0.&lt;PubTest: void &lt;init&gt;()&gt;()&#45;&gt;test1 test1::$r1 = new PubTest</title>
<path fill="none" stroke="black" d="M243,-1731.7C243,-1712.57 243,-1681.46 243,-1658.68"/>
<polygon fill="black" stroke="black" points="246.5,-1658.84 243,-1648.84 239.5,-1658.84 246.5,-1658.84"/>
<text text-anchor="start" x="243" y="-1700.7" font-family="Times,serif" font-size="14.00">[] =&gt; {test1::$r0 &#45;&gt; [test1.new00], </text>
<text text-anchor="start" x="243" y="-1684.2" font-family="Times,serif" font-size="14.00">}</text>
</g>
<!-- test1 specialinvoke test1::$r1.&lt;PubTest: void &lt;init&gt;()&gt;() -->
<g id="node4" class="node">
<title>test1 specialinvoke test1::$r1.&lt;PubTest: void &lt;init&gt;()&gt;()</title>
<polygon fill="none" stroke="black" points="406.25,-1509.5 79.75,-1509.5 79.75,-1473.5 406.25,-1473.5 406.25,-1509.5"/>
<text text-anchor="middle" x="243" y="-1486.45" font-family="Times,serif" font-size="14.00">test1 specialinvoke test1::$r1.&lt;PubTest: void &lt;init&gt;()&gt;()</text>
</g>
<!-- test1 test1::$r1 = new PubTest&#45;&gt;test1 specialinvoke test1::$r1.&lt;PubTest: void &lt;init&gt;()&gt;() -->
<g id="edge3" class="edge">
<title>test1 test1::$r1 = new PubTest&#45;&gt;test1 specialinvoke test1::$r1.&lt;PubTest: void &lt;init&gt;()&gt;()</title>
<path fill="none" stroke="black" d="M243,-1610.56C243,-1588 243,-1548.38 243,-1521.32"/>
<polygon fill="black" stroke="black" points="246.5,-1521.38 243,-1511.38 239.5,-1521.38 246.5,-1521.38"/>
<text text-anchor="start" x="243" y="-1579.7" font-family="Times,serif" font-size="14.00">[] =&gt; {test1::$r0 &#45;&gt; [test1.new00], </text>
<text text-anchor="start" x="243" y="-1563.2" font-family="Times,serif" font-size="14.00">test1::$r1 &#45;&gt; [test1.new02], </text>
<text text-anchor="start" x="243" y="-1546.7" font-family="Times,serif" font-size="14.00">}</text>
</g>
<!-- test1 test1::$r0.&lt;PubTest: PubTest f&gt; = test1::$r1 -->
<g id="node5" class="node">
<title>test1 test1::$r0.&lt;PubTest: PubTest f&gt; = test1::$r1</title>
<polygon fill="none" stroke="black" points="386.75,-1372 99.25,-1372 99.25,-1336 386.75,-1336 386.75,-1372"/>
<text text-anchor="middle" x="243" y="-1348.95" font-family="Times,serif" font-size="14.00">test1 test1::$r0.&lt;PubTest: PubTest f&gt; = test1::$r1</text>
</g>
<!-- test1 specialinvoke test1::$r1.&lt;PubTest: void &lt;init&gt;()&gt;()&#45;&gt;test1 test1::$r0.&lt;PubTest: PubTest f&gt; = test1::$r1 -->
<g id="edge4" class="edge">
<title>test1 specialinvoke test1::$r1.&lt;PubTest: void &lt;init&gt;()&gt;()&#45;&gt;test1 test1::$r0.&lt;PubTest: PubTest f&gt; = test1::$r1</title>
<path fill="none" stroke="black" d="M243,-1473.06C243,-1450.5 243,-1410.88 243,-1383.82"/>
<polygon fill="black" stroke="black" points="246.5,-1383.88 243,-1373.88 239.5,-1383.88 246.5,-1383.88"/>
<text text-anchor="start" x="243" y="-1442.2" font-family="Times,serif" font-size="14.00">[] =&gt; {test1::$r0 &#45;&gt; [test1.new00], </text>
<text text-anchor="start" x="243" y="-1425.7" font-family="Times,serif" font-size="14.00">test1::$r1 &#45;&gt; [test1.new02], </text>
<text text-anchor="start" x="243" y="-1409.2" font-family="Times,serif" font-size="14.00">}</text>
</g>
<!-- test1 test1::$r2 = new PubTest -->
<g id="node6" class="node">
<title>test1 test1::$r2 = new PubTest</title>
<polygon fill="none" stroke="black" points="334.25,-1218 151.75,-1218 151.75,-1182 334.25,-1182 334.25,-1218"/>
<text text-anchor="middle" x="243" y="-1194.95" font-family="Times,serif" font-size="14.00">test1 test1::$r2 = new PubTest</text>
</g>
<!-- test1 test1::$r0.&lt;PubTest: PubTest f&gt; = test1::$r1&#45;&gt;test1 test1::$r2 = new PubTest -->
<g id="edge5" class="edge">
<title>test1 test1::$r0.&lt;PubTest: PubTest f&gt; = test1::$r1&#45;&gt;test1 test1::$r2 = new PubTest</title>
<path fill="none" stroke="red" d="M243,-1335.56C243,-1309.68 243,-1260.8 243,-1229.62"/>
<polygon fill="red" stroke="red" points="246.5,-1229.75 243,-1219.75 239.5,-1229.75 246.5,-1229.75"/>
<text text-anchor="start" x="243" y="-1304.7" font-family="Times,serif" font-size="14.00">[] =&gt; {test1::$r0 &#45;&gt; [test1.new00], </text>
<text text-anchor="start" x="243" y="-1288.2" font-family="Times,serif" font-size="14.00">test1.new00.f &#45;&gt; [test1.new02], </text>
<text text-anchor="start" x="243" y="-1271.7" font-family="Times,serif" font-size="14.00">test1::$r1 &#45;&gt; [test1.new02], </text>
<text text-anchor="start" x="243" y="-1255.2" font-family="Times,serif" font-size="14.00">}</text>
</g>
<!-- test1 specialinvoke test1::$r2.&lt;PubTest: void &lt;init&gt;()&gt;() -->
<g id="node7" class="node">
<title>test1 specialinvoke test1::$r2.&lt;PubTest: void &lt;init&gt;()&gt;()</title>
<polygon fill="none" stroke="black" points="406.25,-1113.5 79.75,-1113.5 79.75,-1077.5 406.25,-1077.5 406.25,-1113.5"/>
<text text-anchor="middle" x="243" y="-1090.45" font-family="Times,serif" font-size="14.00">test1 specialinvoke test1::$r2.&lt;PubTest: void &lt;init&gt;()&gt;()</text>
</g>
<!-- test1 test1::$r2 = new PubTest&#45;&gt;test1 specialinvoke test1::$r2.&lt;PubTest: void &lt;init&gt;()&gt;() -->
<g id="edge6" class="edge">
<title>test1 test1::$r2 = new PubTest&#45;&gt;test1 specialinvoke test1::$r2.&lt;PubTest: void &lt;init&gt;()&gt;()</title>
<path fill="none" stroke="red" d="M243,-1181.61C243,-1166.22 243,-1143.46 243,-1125.35"/>
<polygon fill="red" stroke="red" points="246.5,-1125.49 243,-1115.49 239.5,-1125.49 246.5,-1125.49"/>
<text text-anchor="start" x="243" y="-1150.7" font-family="Times,serif" font-size="14.00">[] =&gt; {}</text>
</g>
<!-- test1 staticinvoke &lt;PubTest: void foo1(PubTest,PubTest)&gt;(test1::$r0, test1::$r2) -->
<g id="node8" class="node">
<title>test1 staticinvoke &lt;PubTest: void foo1(PubTest,PubTest)&gt;(test1::$r0, test1::$r2)</title>
<polygon fill="none" stroke="black" points="470.38,-1009 15.62,-1009 15.62,-973 470.38,-973 470.38,-1009"/>
<text text-anchor="middle" x="243" y="-985.95" font-family="Times,serif" font-size="14.00">test1 staticinvoke &lt;PubTest: void foo1(PubTest,PubTest)&gt;(test1::$r0, test1::$r2)</text>
</g>
<!-- test1 specialinvoke test1::$r2.&lt;PubTest: void &lt;init&gt;()&gt;()&#45;&gt;test1 staticinvoke &lt;PubTest: void foo1(PubTest,PubTest)&gt;(test1::$r0, test1::$r2) -->
<g id="edge7" class="edge">
<title>test1 specialinvoke test1::$r2.&lt;PubTest: void &lt;init&gt;()&gt;()&#45;&gt;test1 staticinvoke &lt;PubTest: void foo1(PubTest,PubTest)&gt;(test1::$r0, test1::$r2)</title>
<path fill="none" stroke="red" d="M243,-1077.11C243,-1061.72 243,-1038.96 243,-1020.85"/>
<polygon fill="red" stroke="red" points="246.5,-1020.99 243,-1010.99 239.5,-1020.99 246.5,-1020.99"/>
<text text-anchor="start" x="243" y="-1046.2" font-family="Times,serif" font-size="14.00">[] =&gt; {}</text>
</g>
<!-- test1 return -->
<g id="node9" class="node">
<title>test1 return</title>
<polygon fill="none" stroke="black" points="397.75,-888 320.25,-888 320.25,-852 397.75,-852 397.75,-888"/>
<text text-anchor="middle" x="359" y="-864.95" font-family="Times,serif" font-size="14.00">test1 return</text>
</g>
<!-- test1 staticinvoke &lt;PubTest: void foo1(PubTest,PubTest)&gt;(test1::$r0, test1::$r2)&#45;&gt;test1 return -->
<g id="edge8" class="edge">
<title>test1 staticinvoke &lt;PubTest: void foo1(PubTest,PubTest)&gt;(test1::$r0, test1::$r2)&#45;&gt;test1 return</title>
<path fill="none" stroke="red" d="M259.87,-972.7C279.45,-952.6 311.94,-919.28 334.35,-896.29"/>
<polygon fill="red" stroke="red" points="336.58,-899.01 341.06,-889.41 331.57,-894.13 336.58,-899.01"/>
<text text-anchor="start" x="324" y="-933.45" font-family="Times,serif" font-size="14.00">[] =&gt; {}</text>
</g>
<!-- foo1 foo1::r0 := @parameter0: PubTest -->
<g id="node10" class="node">
<title>foo1 foo1::r0 := @parameter0: PubTest</title>
<polygon fill="none" stroke="black" points="736.75,-888 503.25,-888 503.25,-852 736.75,-852 736.75,-888"/>
<text text-anchor="middle" x="620" y="-864.95" font-family="Times,serif" font-size="14.00">foo1 foo1::r0 := @parameter0: PubTest</text>
</g>
<!-- test1 staticinvoke &lt;PubTest: void foo1(PubTest,PubTest)&gt;(test1::$r0, test1::$r2)&#45;&gt;foo1 foo1::r0 := @parameter0: PubTest -->
<g id="edge17" class="edge">
<title>test1 staticinvoke &lt;PubTest: void foo1(PubTest,PubTest)&gt;(test1::$r0, test1::$r2)&#45;&gt;foo1 foo1::r0 := @parameter0: PubTest</title>
<path fill="none" stroke="red" stroke-dasharray="1,5" d="M312.45,-972.57C332.7,-967.23 354.81,-961.13 375,-955 439.4,-935.45 512.25,-910.04 561.65,-892.31"/>
<polygon fill="red" stroke="red" points="562.79,-895.62 571.02,-888.94 560.42,-889.04 562.79,-895.62"/>
<text text-anchor="middle" x="571.62" y="-941.7" font-family="Times,serif" font-size="14.00">PubTest.test1.in07</text>
<text text-anchor="start" x="521" y="-925.2" font-family="Times,serif" font-size="14.00">[] =&gt; {}</text>
</g>
<!-- foo1 foo1::r2 := @parameter1: PubTest -->
<g id="node11" class="node">
<title>foo1 foo1::r2 := @parameter1: PubTest</title>
<polygon fill="none" stroke="black" points="745.75,-783.5 512.25,-783.5 512.25,-747.5 745.75,-747.5 745.75,-783.5"/>
<text text-anchor="middle" x="629" y="-760.45" font-family="Times,serif" font-size="14.00">foo1 foo1::r2 := @parameter1: PubTest</text>
</g>
<!-- foo1 foo1::r0 := @parameter0: PubTest&#45;&gt;foo1 foo1::r2 := @parameter1: PubTest -->
<g id="edge9" class="edge">
<title>foo1 foo1::r0 := @parameter0: PubTest&#45;&gt;foo1 foo1::r2 := @parameter1: PubTest</title>
<path fill="none" stroke="red" d="M621.53,-851.61C622.88,-836.22 624.88,-813.46 626.47,-795.35"/>
<polygon fill="red" stroke="red" points="629.95,-795.75 627.33,-785.48 622.97,-795.14 629.95,-795.75"/>
<text text-anchor="start" x="625" y="-820.7" font-family="Times,serif" font-size="14.00">[] =&gt; {}</text>
</g>
<!-- foo1 foo1::r1 = foo1::r0.&lt;PubTest: PubTest f&gt; -->
<g id="node12" class="node">
<title>foo1 foo1::r1 = foo1::r0.&lt;PubTest: PubTest f&gt;</title>
<polygon fill="none" stroke="black" points="778.88,-679 507.12,-679 507.12,-643 778.88,-643 778.88,-679"/>
<text text-anchor="middle" x="643" y="-655.95" font-family="Times,serif" font-size="14.00">foo1 foo1::r1 = foo1::r0.&lt;PubTest: PubTest f&gt;</text>
</g>
<!-- foo1 foo1::r2 := @parameter1: PubTest&#45;&gt;foo1 foo1::r1 = foo1::r0.&lt;PubTest: PubTest f&gt; -->
<g id="edge10" class="edge">
<title>foo1 foo1::r2 := @parameter1: PubTest&#45;&gt;foo1 foo1::r1 = foo1::r0.&lt;PubTest: PubTest f&gt;</title>
<path fill="none" stroke="red" d="M631.37,-747.11C633.48,-731.72 636.59,-708.96 639.06,-690.85"/>
<polygon fill="red" stroke="red" points="642.52,-691.35 640.41,-680.97 635.59,-690.41 642.52,-691.35"/>
<text text-anchor="start" x="638" y="-716.2" font-family="Times,serif" font-size="14.00">[] =&gt; {}</text>
</g>
<!-- foo1 foo1::r1.&lt;PubTest: PubTest f&gt; = foo1::r2 -->
<g id="node13" class="node">
<title>foo1 foo1::r1.&lt;PubTest: PubTest f&gt; = foo1::r2</title>
<polygon fill="none" stroke="black" points="785.88,-574.5 514.12,-574.5 514.12,-538.5 785.88,-538.5 785.88,-574.5"/>
<text text-anchor="middle" x="650" y="-551.45" font-family="Times,serif" font-size="14.00">foo1 foo1::r1.&lt;PubTest: PubTest f&gt; = foo1::r2</text>
</g>
<!-- foo1 foo1::r1 = foo1::r0.&lt;PubTest: PubTest f&gt;&#45;&gt;foo1 foo1::r1.&lt;PubTest: PubTest f&gt; = foo1::r2 -->
<g id="edge11" class="edge">
<title>foo1 foo1::r1 = foo1::r0.&lt;PubTest: PubTest f&gt;&#45;&gt;foo1 foo1::r1.&lt;PubTest: PubTest f&gt; = foo1::r2</title>
<path fill="none" stroke="red" d="M644.19,-642.61C645.24,-627.22 646.79,-604.46 648.03,-586.35"/>
<polygon fill="red" stroke="red" points="651.51,-586.7 648.7,-576.48 644.53,-586.22 651.51,-586.7"/>
<text text-anchor="start" x="647" y="-611.7" font-family="Times,serif" font-size="14.00">[] =&gt; {}</text>
</g>
<!-- foo1 foo1::$r3 = new PubTest -->
<g id="node14" class="node">
<title>foo1 foo1::$r3 = new PubTest</title>
<polygon fill="none" stroke="black" points="744.5,-470 563.5,-470 563.5,-434 744.5,-434 744.5,-470"/>
<text text-anchor="middle" x="654" y="-446.95" font-family="Times,serif" font-size="14.00">foo1 foo1::$r3 = new PubTest</text>
</g>
<!-- foo1 foo1::r1.&lt;PubTest: PubTest f&gt; = foo1::r2&#45;&gt;foo1 foo1::$r3 = new PubTest -->
<g id="edge12" class="edge">
<title>foo1 foo1::r1.&lt;PubTest: PubTest f&gt; = foo1::r2&#45;&gt;foo1 foo1::$r3 = new PubTest</title>
<path fill="none" stroke="red" d="M650.68,-538.11C651.28,-522.72 652.17,-499.96 652.87,-481.85"/>
<polygon fill="red" stroke="red" points="656.37,-482.11 653.26,-471.99 649.37,-481.84 656.37,-482.11"/>
<text text-anchor="start" x="652" y="-507.2" font-family="Times,serif" font-size="14.00">[] =&gt; {}</text>
</g>
<!-- foo1 specialinvoke foo1::$r3.&lt;PubTest: void &lt;init&gt;()&gt;() -->
<g id="node15" class="node">
<title>foo1 specialinvoke foo1::$r3.&lt;PubTest: void &lt;init&gt;()&gt;()</title>
<polygon fill="none" stroke="black" points="819.5,-365.5 494.5,-365.5 494.5,-329.5 819.5,-329.5 819.5,-365.5"/>
<text text-anchor="middle" x="657" y="-342.45" font-family="Times,serif" font-size="14.00">foo1 specialinvoke foo1::$r3.&lt;PubTest: void &lt;init&gt;()&gt;()</text>
</g>
<!-- foo1 foo1::$r3 = new PubTest&#45;&gt;foo1 specialinvoke foo1::$r3.&lt;PubTest: void &lt;init&gt;()&gt;() -->
<g id="edge13" class="edge">
<title>foo1 foo1::$r3 = new PubTest&#45;&gt;foo1 specialinvoke foo1::$r3.&lt;PubTest: void &lt;init&gt;()&gt;()</title>
<path fill="none" stroke="red" d="M654.51,-433.61C654.96,-418.22 655.63,-395.46 656.16,-377.35"/>
<polygon fill="red" stroke="red" points="659.65,-377.58 656.44,-367.49 652.65,-377.38 659.65,-377.58"/>
<text text-anchor="start" x="655" y="-402.7" font-family="Times,serif" font-size="14.00">[] =&gt; {}</text>
</g>
<!-- foo1 foo1::r2.&lt;PubTest: PubTest f&gt; = foo1::$r3 -->
<g id="node16" class="node">
<title>foo1 foo1::r2.&lt;PubTest: PubTest f&gt; = foo1::$r3</title>
<polygon fill="none" stroke="black" points="784.25,-261 505.75,-261 505.75,-225 784.25,-225 784.25,-261"/>
<text text-anchor="middle" x="645" y="-237.95" font-family="Times,serif" font-size="14.00">foo1 foo1::r2.&lt;PubTest: PubTest f&gt; = foo1::$r3</text>
</g>
<!-- foo1 specialinvoke foo1::$r3.&lt;PubTest: void &lt;init&gt;()&gt;()&#45;&gt;foo1 foo1::r2.&lt;PubTest: PubTest f&gt; = foo1::$r3 -->
<g id="edge14" class="edge">
<title>foo1 specialinvoke foo1::$r3.&lt;PubTest: void &lt;init&gt;()&gt;()&#45;&gt;foo1 foo1::r2.&lt;PubTest: PubTest f&gt; = foo1::$r3</title>
<path fill="none" stroke="red" d="M654.96,-329.11C653.16,-313.72 650.5,-290.96 648.38,-272.85"/>
<polygon fill="red" stroke="red" points="651.86,-272.5 647.22,-262.98 644.91,-273.32 651.86,-272.5"/>
<text text-anchor="start" x="652" y="-298.2" font-family="Times,serif" font-size="14.00">[] =&gt; {}</text>
</g>
<!-- foo1 foo1::$r3.&lt;PubTest: PubTest f&gt; = null -->
<g id="node17" class="node">
<title>foo1 foo1::$r3.&lt;PubTest: PubTest f&gt; = null</title>
<polygon fill="none" stroke="black" points="761,-156.5 505,-156.5 505,-120.5 761,-120.5 761,-156.5"/>
<text text-anchor="middle" x="633" y="-133.45" font-family="Times,serif" font-size="14.00">foo1 foo1::$r3.&lt;PubTest: PubTest f&gt; = null</text>
</g>
<!-- foo1 foo1::r2.&lt;PubTest: PubTest f&gt; = foo1::$r3&#45;&gt;foo1 foo1::$r3.&lt;PubTest: PubTest f&gt; = null -->
<g id="edge15" class="edge">
<title>foo1 foo1::r2.&lt;PubTest: PubTest f&gt; = foo1::$r3&#45;&gt;foo1 foo1::$r3.&lt;PubTest: PubTest f&gt; = null</title>
<path fill="none" stroke="red" d="M642.96,-224.61C641.16,-209.22 638.5,-186.46 636.38,-168.35"/>
<polygon fill="red" stroke="red" points="639.86,-168 635.22,-158.48 632.91,-168.82 639.86,-168"/>
<text text-anchor="start" x="640" y="-193.7" font-family="Times,serif" font-size="14.00">[] =&gt; {}</text>
</g>
<!-- foo1 return -->
<g id="node18" class="node">
<title>foo1 return</title>
<polygon fill="none" stroke="black" points="620.38,-52 543.62,-52 543.62,-16 620.38,-16 620.38,-52"/>
<text text-anchor="middle" x="582" y="-28.95" font-family="Times,serif" font-size="14.00">foo1 return</text>
</g>
<!-- foo1 foo1::$r3.&lt;PubTest: PubTest f&gt; = null&#45;&gt;foo1 return -->
<g id="edge16" class="edge">
<title>foo1 foo1::$r3.&lt;PubTest: PubTest f&gt; = null&#45;&gt;foo1 return</title>
<path fill="none" stroke="red" d="M624.35,-120.11C616.51,-104.36 604.82,-80.87 595.71,-62.56"/>
<polygon fill="red" stroke="red" points="598.96,-61.22 591.37,-53.83 592.69,-64.34 598.96,-61.22"/>
<text text-anchor="start" x="615" y="-89.2" font-family="Times,serif" font-size="14.00">[] =&gt; {}</text>
</g>
<!-- foo1 return&#45;&gt;test1 return -->
<g id="edge18" class="edge">
<title>foo1 return&#45;&gt;test1 return</title>
<path fill="none" stroke="red" stroke-dasharray="1,5" d="M543.27,-41.23C493.93,-51.63 415,-77.63 415,-137.5 415,-766.5 415,-766.5 415,-766.5 415,-795.08 398.03,-823.26 382.77,-842.81"/>
<polygon fill="red" stroke="red" points="380.09,-840.56 376.46,-850.52 385.5,-845 380.09,-840.56"/>
<text text-anchor="middle" x="465.62" y="-446.95" font-family="Times,serif" font-size="14.00">PubTest.test1.in07</text>
</g>
</g>
</svg>
