<?xml version="1.0" encoding="UTF-8" standalone="no"?>
<!DOCTYPE svg PUBLIC "-//W3C//DTD SVG 1.1//EN"
 "http://www.w3.org/Graphics/SVG/1.1/DTD/svg11.dtd">
<!-- Generated by graphviz version 9.0.0 (20230911.1827)
 -->
<!-- Title: G Pages: 1 -->
<svg width="2651pt" height="2282pt"
 viewBox="0.00 0.00 2650.50 2282.00" xmlns="http://www.w3.org/2000/svg" xmlns:xlink="http://www.w3.org/1999/xlink">
<g id="graph0" class="graph" transform="scale(1 1) rotate(0) translate(4 2278)">
<title>G</title>
<polygon fill="white" stroke="none" points="-4,4 -4,-2278 2646.5,-2278 2646.5,4 -4,4"/>
<g id="clust1" class="cluster">
<title>cluster_0</title>
<polygon fill="none" stroke="black" points="8,-8 8,-2266 460,-2266 460,-8 8,-8"/>
</g>
<g id="clust2" class="cluster">
<title>cluster_1</title>
<polygon fill="none" stroke="black" points="824,-668.5 824,-1535 1266,-1535 1266,-668.5 824,-668.5"/>
</g>
<g id="clust3" class="cluster">
<title>cluster_2</title>
<polygon fill="none" stroke="black" points="1274,-81 1274,-720.5 1714,-720.5 1714,-81 1274,-81"/>
</g>
<g id="clust4" class="cluster">
<title>cluster_3</title>
<polygon fill="none" stroke="black" points="2125,-383 2125,-720.5 2560,-720.5 2560,-383 2125,-383"/>
</g>
<!-- test2 test2::r4 = null -->
<g id="node1" class="node">
<title>test2 test2::r4 = null</title>
<polygon fill="none" stroke="black" points="297.12,-2258 170.88,-2258 170.88,-2222 297.12,-2222 297.12,-2258"/>
<text text-anchor="middle" x="234" y="-2234.95" font-family="Times,serif" font-size="14.00">test2 test2::r4 = null</text>
</g>
<!-- test2 test2::$r0 = new PubTest -->
<g id="node2" class="node">
<title>test2 test2::$r0 = new PubTest</title>
<polygon fill="none" stroke="black" points="325.25,-2137 142.75,-2137 142.75,-2101 325.25,-2101 325.25,-2137"/>
<text text-anchor="middle" x="234" y="-2113.95" font-family="Times,serif" font-size="14.00">test2 test2::$r0 = new PubTest</text>
</g>
<!-- test2 test2::r4 = null&#45;&gt;test2 test2::$r0 = new PubTest -->
<g id="edge1" class="edge">
<title>test2 test2::r4 = null&#45;&gt;test2 test2::$r0 = new PubTest</title>
<path fill="none" stroke="black" d="M234,-2221.7C234,-2202.57 234,-2171.46 234,-2148.68"/>
<polygon fill="black" stroke="black" points="237.5,-2148.84 234,-2138.84 230.5,-2148.84 237.5,-2148.84"/>
<text text-anchor="start" x="234" y="-2190.7" font-family="Times,serif" font-size="14.00">[] =&gt; {test2::r4 &#45;&gt; [null], </text>
<text text-anchor="start" x="234" y="-2174.2" font-family="Times,serif" font-size="14.00">}</text>
</g>
<!-- test2 specialinvoke test2::$r0.&lt;PubTest: void &lt;init&gt;()&gt;() -->
<g id="node3" class="node">
<title>test2 specialinvoke test2::$r0.&lt;PubTest: void &lt;init&gt;()&gt;()</title>
<polygon fill="none" stroke="black" points="397.25,-1999.5 70.75,-1999.5 70.75,-1963.5 397.25,-1963.5 397.25,-1999.5"/>
<text text-anchor="middle" x="234" y="-1976.45" font-family="Times,serif" font-size="14.00">test2 specialinvoke test2::$r0.&lt;PubTest: void &lt;init&gt;()&gt;()</text>
</g>
<!-- test2 test2::$r0 = new PubTest&#45;&gt;test2 specialinvoke test2::$r0.&lt;PubTest: void &lt;init&gt;()&gt;() -->
<g id="edge2" class="edge">
<title>test2 test2::$r0 = new PubTest&#45;&gt;test2 specialinvoke test2::$r0.&lt;PubTest: void &lt;init&gt;()&gt;()</title>
<path fill="none" stroke="black" d="M234,-2100.56C234,-2078 234,-2038.38 234,-2011.32"/>
<polygon fill="black" stroke="black" points="237.5,-2011.38 234,-2001.38 230.5,-2011.38 237.5,-2011.38"/>
<text text-anchor="start" x="234" y="-2069.7" font-family="Times,serif" font-size="14.00">[] =&gt; {test2::r4 &#45;&gt; [null], </text>
<text text-anchor="start" x="234" y="-2053.2" font-family="Times,serif" font-size="14.00">test2::$r0 &#45;&gt; [test2.new01], </text>
<text text-anchor="start" x="234" y="-2036.7" font-family="Times,serif" font-size="14.00">}</text>
</g>
<!-- test2 test2::$r1 = staticinvoke &lt;PubTest: PubTest foo2(PubTest)&gt;(test2::$r0) -->
<g id="node4" class="node">
<title>test2 test2::$r1 = staticinvoke &lt;PubTest: PubTest foo2(PubTest)&gt;(test2::$r0)</title>
<polygon fill="none" stroke="black" points="451.62,-1862 16.38,-1862 16.38,-1826 451.62,-1826 451.62,-1862"/>
<text text-anchor="middle" x="234" y="-1838.95" font-family="Times,serif" font-size="14.00">test2 test2::$r1 = staticinvoke &lt;PubTest: PubTest foo2(PubTest)&gt;(test2::$r0)</text>
</g>
<!-- test2 specialinvoke test2::$r0.&lt;PubTest: void &lt;init&gt;()&gt;()&#45;&gt;test2 test2::$r1 = staticinvoke &lt;PubTest: PubTest foo2(PubTest)&gt;(test2::$r0) -->
<g id="edge3" class="edge">
<title>test2 specialinvoke test2::$r0.&lt;PubTest: void &lt;init&gt;()&gt;()&#45;&gt;test2 test2::$r1 = staticinvoke &lt;PubTest: PubTest foo2(PubTest)&gt;(test2::$r0)</title>
<path fill="none" stroke="black" d="M234,-1963.06C234,-1940.5 234,-1900.88 234,-1873.82"/>
<polygon fill="black" stroke="black" points="237.5,-1873.88 234,-1863.88 230.5,-1873.88 237.5,-1873.88"/>
<text text-anchor="start" x="234" y="-1932.2" font-family="Times,serif" font-size="14.00">[] =&gt; {test2::r4 &#45;&gt; [null], </text>
<text text-anchor="start" x="234" y="-1915.7" font-family="Times,serif" font-size="14.00">test2::$r0 &#45;&gt; [test2.new01], </text>
<text text-anchor="start" x="234" y="-1899.2" font-family="Times,serif" font-size="14.00">}</text>
</g>
<!-- test2 test2::$r2 = new PubTest -->
<g id="node5" class="node">
<title>test2 test2::$r2 = new PubTest</title>
<polygon fill="none" stroke="black" points="325.25,-1527 142.75,-1527 142.75,-1491 325.25,-1491 325.25,-1527"/>
<text text-anchor="middle" x="234" y="-1503.95" font-family="Times,serif" font-size="14.00">test2 test2::$r2 = new PubTest</text>
</g>
<!-- test2 test2::$r1 = staticinvoke &lt;PubTest: PubTest foo2(PubTest)&gt;(test2::$r0)&#45;&gt;test2 test2::$r2 = new PubTest -->
<g id="edge4" class="edge">
<title>test2 test2::$r1 = staticinvoke &lt;PubTest: PubTest foo2(PubTest)&gt;(test2::$r0)&#45;&gt;test2 test2::$r2 = new PubTest</title>
<path fill="none" stroke="black" d="M234,-1825.57C234,-1771.39 234,-1605.62 234,-1538.58"/>
<polygon fill="black" stroke="black" points="237.5,-1538.78 234,-1528.78 230.5,-1538.78 237.5,-1538.78"/>
<text text-anchor="start" x="234" y="-1737.2" font-family="Times,serif" font-size="14.00">[] =&gt; {test2::$r3 &#45;&gt; [test2.new04], </text>
<text text-anchor="start" x="234" y="-1720.7" font-family="Times,serif" font-size="14.00">test2::$r2 &#45;&gt; [test2.new04], </text>
<text text-anchor="start" x="234" y="-1704.2" font-family="Times,serif" font-size="14.00">foo2::r0 &#45;&gt; [test2.new04], </text>
<text text-anchor="start" x="234" y="-1687.7" font-family="Times,serif" font-size="14.00">bar3::r0 &#45;&gt; [test2.new04], </text>
<text text-anchor="start" x="234" y="-1671.2" font-family="Times,serif" font-size="14.00">bar2::$r1 &#45;&gt; [test2.new04], </text>
<text text-anchor="start" x="234" y="-1654.7" font-family="Times,serif" font-size="14.00">bar2::r0 &#45;&gt; [test2.new04], </text>
<text text-anchor="start" x="234" y="-1638.2" font-family="Times,serif" font-size="14.00">foo2::$r1 &#45;&gt; [test2.new04]</text>
<text text-anchor="start" x="234" y="-1621.7" font-family="Times,serif" font-size="14.00">}</text>
</g>
<!-- foo2 foo2::r0 := @parameter0: PubTest -->
<g id="node11" class="node">
<title>foo2 foo2::r0 := @parameter0: PubTest</title>
<polygon fill="none" stroke="black" points="1065.75,-1527 832.25,-1527 832.25,-1491 1065.75,-1491 1065.75,-1527"/>
<text text-anchor="middle" x="949" y="-1503.95" font-family="Times,serif" font-size="14.00">foo2 foo2::r0 := @parameter0: PubTest</text>
</g>
<!-- test2 test2::$r1 = staticinvoke &lt;PubTest: PubTest foo2(PubTest)&gt;(test2::$r0)&#45;&gt;foo2 foo2::r0 := @parameter0: PubTest -->
<g id="edge16" class="edge">
<title>test2 test2::$r1 = staticinvoke &lt;PubTest: PubTest foo2(PubTest)&gt;(test2::$r0)&#45;&gt;foo2 foo2::r0 := @parameter0: PubTest</title>
<path fill="none" stroke="red" stroke-dasharray="1,5" d="M368.64,-1825.51C389.83,-1820.93 411.25,-1815.19 431,-1808 628.68,-1736.08 838.17,-1591.15 916.75,-1533.97"/>
<polygon fill="red" stroke="red" points="918.45,-1537.07 924.46,-1528.34 914.32,-1531.42 918.45,-1537.07"/>
<text text-anchor="middle" x="1046" y="-1794.7" font-family="Times,serif" font-size="14.00">PubTest.test2.in03</text>
<text text-anchor="start" x="899" y="-1778.2" font-family="Times,serif" font-size="14.00">[PubTest.test2.in06] =&gt; {test2::$r3 &#45;&gt; [test2.new04], </text>
<text text-anchor="start" x="899" y="-1761.7" font-family="Times,serif" font-size="14.00">test2::$r2 &#45;&gt; [test2.new04], </text>
<text text-anchor="start" x="899" y="-1745.2" font-family="Times,serif" font-size="14.00">foo2::r0 &#45;&gt; [test2.new04], </text>
<text text-anchor="start" x="899" y="-1728.7" font-family="Times,serif" font-size="14.00">bar3::r0 &#45;&gt; [test2.new04], </text>
<text text-anchor="start" x="899" y="-1712.2" font-family="Times,serif" font-size="14.00">bar2::$r1 &#45;&gt; [test2.new04], </text>
<text text-anchor="start" x="899" y="-1695.7" font-family="Times,serif" font-size="14.00">bar2::r0 &#45;&gt; [test2.new04], </text>
<text text-anchor="start" x="899" y="-1679.2" font-family="Times,serif" font-size="14.00">@parameter0: PubTest &#45;&gt; [test2.new04], </text>
<text text-anchor="start" x="899" y="-1662.7" font-family="Times,serif" font-size="14.00">foo2::$r1 &#45;&gt; [test2.new04]</text>
<text text-anchor="start" x="899" y="-1646.2" font-family="Times,serif" font-size="14.00">}</text>
<text text-anchor="start" x="899" y="-1613.7" font-family="Times,serif" font-size="14.00">[PubTest.test2.in03] =&gt; {test2::r4 &#45;&gt; [null], </text>
<text text-anchor="start" x="899" y="-1597.2" font-family="Times,serif" font-size="14.00">test2::$r0 &#45;&gt; [test2.new01], </text>
<text text-anchor="start" x="899" y="-1580.7" font-family="Times,serif" font-size="14.00">@parameter0: PubTest &#45;&gt; [test2.new01], </text>
<text text-anchor="start" x="899" y="-1564.2" font-family="Times,serif" font-size="14.00">}</text>
</g>
<!-- test2 specialinvoke test2::$r2.&lt;PubTest: void &lt;init&gt;()&gt;() -->
<g id="node6" class="node">
<title>test2 specialinvoke test2::$r2.&lt;PubTest: void &lt;init&gt;()&gt;()</title>
<polygon fill="none" stroke="black" points="342.25,-1161 15.75,-1161 15.75,-1125 342.25,-1125 342.25,-1161"/>
<text text-anchor="middle" x="179" y="-1137.95" font-family="Times,serif" font-size="14.00">test2 specialinvoke test2::$r2.&lt;PubTest: void &lt;init&gt;()&gt;()</text>
</g>
<!-- test2 test2::$r2 = new PubTest&#45;&gt;test2 specialinvoke test2::$r2.&lt;PubTest: void &lt;init&gt;()&gt;() -->
<g id="edge5" class="edge">
<title>test2 test2::$r2 = new PubTest&#45;&gt;test2 specialinvoke test2::$r2.&lt;PubTest: void &lt;init&gt;()&gt;()</title>
<path fill="none" stroke="black" d="M192.93,-1490.54C186.25,-1485.84 180.22,-1480.05 176.25,-1473 120.8,-1374.55 152.68,-1231.81 170.04,-1172.01"/>
<polygon fill="black" stroke="black" points="173.33,-1173.22 172.86,-1162.64 166.63,-1171.21 173.33,-1173.22"/>
<text text-anchor="start" x="177" y="-1443.45" font-family="Times,serif" font-size="14.00">[] =&gt; {test2::$r3 &#45;&gt; [test2.new04], </text>
<text text-anchor="start" x="177" y="-1426.95" font-family="Times,serif" font-size="14.00">test2::$r2 &#45;&gt; [test2.new04], </text>
<text text-anchor="start" x="177" y="-1410.45" font-family="Times,serif" font-size="14.00">foo2::r0 &#45;&gt; [test2.new04], </text>
<text text-anchor="start" x="177" y="-1393.95" font-family="Times,serif" font-size="14.00">bar3::r0 &#45;&gt; [test2.new04], </text>
<text text-anchor="start" x="177" y="-1377.45" font-family="Times,serif" font-size="14.00">bar2::$r1 &#45;&gt; [test2.new04], </text>
<text text-anchor="start" x="177" y="-1360.95" font-family="Times,serif" font-size="14.00">bar2::r0 &#45;&gt; [test2.new04], </text>
<text text-anchor="start" x="177" y="-1344.45" font-family="Times,serif" font-size="14.00">foo2::$r1 &#45;&gt; [test2.new04]</text>
<text text-anchor="start" x="177" y="-1327.95" font-family="Times,serif" font-size="14.00">}</text>
</g>
<!-- test2 test2::$r3 = staticinvoke &lt;PubTest: PubTest foo2(PubTest)&gt;(test2::$r2) -->
<g id="node7" class="node">
<title>test2 test2::$r3 = staticinvoke &lt;PubTest: PubTest foo2(PubTest)&gt;(test2::$r2)</title>
<polygon fill="none" stroke="black" points="451.62,-712.5 16.38,-712.5 16.38,-676.5 451.62,-676.5 451.62,-712.5"/>
<text text-anchor="middle" x="234" y="-689.45" font-family="Times,serif" font-size="14.00">test2 test2::$r3 = staticinvoke &lt;PubTest: PubTest foo2(PubTest)&gt;(test2::$r2)</text>
</g>
<!-- test2 specialinvoke test2::$r2.&lt;PubTest: void &lt;init&gt;()&gt;()&#45;&gt;test2 test2::$r3 = staticinvoke &lt;PubTest: PubTest foo2(PubTest)&gt;(test2::$r2) -->
<g id="edge6" class="edge">
<title>test2 specialinvoke test2::$r2.&lt;PubTest: void &lt;init&gt;()&gt;()&#45;&gt;test2 test2::$r3 = staticinvoke &lt;PubTest: PubTest foo2(PubTest)&gt;(test2::$r2)</title>
<path fill="none" stroke="black" d="M173.27,-1124.85C154.54,-1065.47 100.52,-864.95 176.25,-730.5 178.36,-726.76 181.05,-723.37 184.11,-720.31"/>
<polygon fill="black" stroke="black" points="186.32,-723.02 191.77,-713.93 181.84,-717.64 186.32,-723.02"/>
<text text-anchor="start" x="177" y="-922.7" font-family="Times,serif" font-size="14.00">[] =&gt; {test2::$r3 &#45;&gt; [test2.new04], </text>
<text text-anchor="start" x="177" y="-906.2" font-family="Times,serif" font-size="14.00">test2::$r2 &#45;&gt; [test2.new04], </text>
<text text-anchor="start" x="177" y="-889.7" font-family="Times,serif" font-size="14.00">foo2::r0 &#45;&gt; [test2.new04], </text>
<text text-anchor="start" x="177" y="-873.2" font-family="Times,serif" font-size="14.00">bar3::r0 &#45;&gt; [test2.new04], </text>
<text text-anchor="start" x="177" y="-856.7" font-family="Times,serif" font-size="14.00">bar2::$r1 &#45;&gt; [test2.new04], </text>
<text text-anchor="start" x="177" y="-840.2" font-family="Times,serif" font-size="14.00">bar2::r0 &#45;&gt; [test2.new04], </text>
<text text-anchor="start" x="177" y="-823.7" font-family="Times,serif" font-size="14.00">foo2::$r1 &#45;&gt; [test2.new04]</text>
<text text-anchor="start" x="177" y="-807.2" font-family="Times,serif" font-size="14.00">}</text>
</g>
<!-- test2 if test2::$r1 != test2::$r3 goto return test2::r4 -->
<g id="node8" class="node">
<title>test2 if test2::$r1 != test2::$r3 goto return test2::r4</title>
<polygon fill="none" stroke="black" points="427.62,-427 136.38,-427 136.38,-391 427.62,-391 427.62,-427"/>
<text text-anchor="middle" x="282" y="-403.95" font-family="Times,serif" font-size="14.00">test2 if test2::$r1 != test2::$r3 goto return test2::r4</text>
</g>
<!-- test2 test2::$r3 = staticinvoke &lt;PubTest: PubTest foo2(PubTest)&gt;(test2::$r2)&#45;&gt;test2 if test2::$r1 != test2::$r3 goto return test2::r4 -->
<g id="edge7" class="edge">
<title>test2 test2::$r3 = staticinvoke &lt;PubTest: PubTest foo2(PubTest)&gt;(test2::$r2)&#45;&gt;test2 if test2::$r1 != test2::$r3 goto return test2::r4</title>
<path fill="none" stroke="red" d="M236.93,-676.19C244.93,-628.94 267.21,-497.37 277.13,-438.78"/>
<polygon fill="red" stroke="red" points="280.58,-439.38 278.79,-428.93 273.67,-438.21 280.58,-439.38"/>
<text text-anchor="start" x="276" y="-612.45" font-family="Times,serif" font-size="14.00">[] =&gt; {test2::$r3 &#45;&gt; [test2.new04], </text>
<text text-anchor="start" x="276" y="-595.95" font-family="Times,serif" font-size="14.00">test2::$r2 &#45;&gt; [test2.new04], </text>
<text text-anchor="start" x="276" y="-579.45" font-family="Times,serif" font-size="14.00">foo2::r0 &#45;&gt; [test2.new04], </text>
<text text-anchor="start" x="276" y="-562.95" font-family="Times,serif" font-size="14.00">bar3::r0 &#45;&gt; [test2.new04], </text>
<text text-anchor="start" x="276" y="-546.45" font-family="Times,serif" font-size="14.00">bar2::$r1 &#45;&gt; [test2.new04], </text>
<text text-anchor="start" x="276" y="-529.95" font-family="Times,serif" font-size="14.00">bar2::r0 &#45;&gt; [test2.new04], </text>
<text text-anchor="start" x="276" y="-513.45" font-family="Times,serif" font-size="14.00">foo2::$r1 &#45;&gt; [test2.new04]</text>
<text text-anchor="start" x="276" y="-496.95" font-family="Times,serif" font-size="14.00">}</text>
</g>
<!-- test2 test2::$r3 = staticinvoke &lt;PubTest: PubTest foo2(PubTest)&gt;(test2::$r2)&#45;&gt;foo2 foo2::r0 := @parameter0: PubTest -->
<g id="edge17" class="edge">
<title>test2 test2::$r3 = staticinvoke &lt;PubTest: PubTest foo2(PubTest)&gt;(test2::$r2)&#45;&gt;foo2 foo2::r0 := @parameter0: PubTest</title>
<path fill="none" stroke="red" stroke-dasharray="1,5" d="M345.32,-712.99C355.68,-717.57 365.47,-723.32 374,-730.5 478.4,-818.45 462.06,-879.81 498,-1011.5 528.99,-1125.04 463.48,-1176.72 529,-1274.5 608.6,-1393.29 769.87,-1457.68 867.78,-1487.27"/>
<polygon fill="red" stroke="red" points="866.78,-1490.62 877.36,-1490.11 868.77,-1483.91 866.78,-1490.62"/>
<text text-anchor="middle" x="676" y="-1261.2" font-family="Times,serif" font-size="14.00">PubTest.test2.in06</text>
<text text-anchor="start" x="529" y="-1244.7" font-family="Times,serif" font-size="14.00">[PubTest.test2.in06] =&gt; {test2::$r3 &#45;&gt; [test2.new04], </text>
<text text-anchor="start" x="529" y="-1228.2" font-family="Times,serif" font-size="14.00">test2::$r2 &#45;&gt; [test2.new04], </text>
<text text-anchor="start" x="529" y="-1211.7" font-family="Times,serif" font-size="14.00">foo2::r0 &#45;&gt; [test2.new04], </text>
<text text-anchor="start" x="529" y="-1195.2" font-family="Times,serif" font-size="14.00">bar3::r0 &#45;&gt; [test2.new04], </text>
<text text-anchor="start" x="529" y="-1178.7" font-family="Times,serif" font-size="14.00">bar2::$r1 &#45;&gt; [test2.new04], </text>
<text text-anchor="start" x="529" y="-1162.2" font-family="Times,serif" font-size="14.00">bar2::r0 &#45;&gt; [test2.new04], </text>
<text text-anchor="start" x="529" y="-1145.7" font-family="Times,serif" font-size="14.00">@parameter0: PubTest &#45;&gt; [test2.new04], </text>
<text text-anchor="start" x="529" y="-1129.2" font-family="Times,serif" font-size="14.00">foo2::$r1 &#45;&gt; [test2.new04]</text>
<text text-anchor="start" x="529" y="-1112.7" font-family="Times,serif" font-size="14.00">}</text>
<text text-anchor="start" x="529" y="-1080.2" font-family="Times,serif" font-size="14.00">[PubTest.test2.in03] =&gt; {test2::r4 &#45;&gt; [null], </text>
<text text-anchor="start" x="529" y="-1063.7" font-family="Times,serif" font-size="14.00">test2::$r0 &#45;&gt; [test2.new01], </text>
<text text-anchor="start" x="529" y="-1047.2" font-family="Times,serif" font-size="14.00">@parameter0: PubTest &#45;&gt; [test2.new01], </text>
<text text-anchor="start" x="529" y="-1030.7" font-family="Times,serif" font-size="14.00">}</text>
</g>
<!-- test2 test2::r4 = test2::$r1 -->
<g id="node9" class="node">
<title>test2 test2::r4 = test2::$r1</title>
<polygon fill="none" stroke="black" points="289.12,-125 132.88,-125 132.88,-89 289.12,-89 289.12,-125"/>
<text text-anchor="middle" x="211" y="-101.95" font-family="Times,serif" font-size="14.00">test2 test2::r4 = test2::$r1</text>
</g>
<!-- test2 if test2::$r1 != test2::$r3 goto return test2::r4&#45;&gt;test2 test2::r4 = test2::$r1 -->
<g id="edge8" class="edge">
<title>test2 if test2::$r1 != test2::$r3 goto return test2::r4&#45;&gt;test2 test2::r4 = test2::$r1</title>
<path fill="none" stroke="black" d="M277.88,-390.57C266.11,-340.87 232.3,-198.02 217.77,-136.62"/>
<polygon fill="black" stroke="black" points="221.19,-135.87 215.48,-126.95 214.38,-137.48 221.19,-135.87"/>
</g>
<!-- test2 return test2::r4 -->
<g id="node10" class="node">
<title>test2 return test2::r4</title>
<polygon fill="none" stroke="black" points="322.75,-52 197.25,-52 197.25,-16 322.75,-16 322.75,-52"/>
<text text-anchor="middle" x="260" y="-28.95" font-family="Times,serif" font-size="14.00">test2 return test2::r4</text>
</g>
<!-- test2 if test2::$r1 != test2::$r3 goto return test2::r4&#45;&gt;test2 return test2::r4 -->
<g id="edge9" class="edge">
<title>test2 if test2::$r1 != test2::$r3 goto return test2::r4&#45;&gt;test2 return test2::r4</title>
<path fill="none" stroke="black" d="M287.38,-390.64C301.92,-340.7 338.3,-193.05 298,-81 295.41,-73.8 291.15,-66.92 286.39,-60.78"/>
<polygon fill="black" stroke="black" points="289.35,-58.85 280.2,-53.51 284.02,-63.39 289.35,-58.85"/>
</g>
<!-- test2 test2::r4 = test2::$r1&#45;&gt;test2 return test2::r4 -->
<g id="edge10" class="edge">
<title>test2 test2::r4 = test2::$r1&#45;&gt;test2 return test2::r4</title>
<path fill="none" stroke="black" d="M222.86,-88.81C228.52,-80.62 235.42,-70.62 241.72,-61.48"/>
<polygon fill="black" stroke="black" points="244.59,-63.49 247.39,-53.27 238.83,-59.52 244.59,-63.49"/>
</g>
<!-- foo2 foo2::$r1 = staticinvoke &lt;PubTest: PubTest bar2(PubTest)&gt;(foo2::r0) -->
<g id="node12" class="node">
<title>foo2 foo2::$r1 = staticinvoke &lt;PubTest: PubTest bar2(PubTest)&gt;(foo2::r0)</title>
<polygon fill="none" stroke="black" points="1257.75,-1161 832.25,-1161 832.25,-1125 1257.75,-1125 1257.75,-1161"/>
<text text-anchor="middle" x="1045" y="-1137.95" font-family="Times,serif" font-size="14.00">foo2 foo2::$r1 = staticinvoke &lt;PubTest: PubTest bar2(PubTest)&gt;(foo2::r0)</text>
</g>
<!-- foo2 foo2::r0 := @parameter0: PubTest&#45;&gt;foo2 foo2::$r1 = staticinvoke &lt;PubTest: PubTest bar2(PubTest)&gt;(foo2::r0) -->
<g id="edge11" class="edge">
<title>foo2 foo2::r0 := @parameter0: PubTest&#45;&gt;foo2 foo2::$r1 = staticinvoke &lt;PubTest: PubTest bar2(PubTest)&gt;(foo2::r0)</title>
<path fill="none" stroke="black" d="M953.5,-1490.93C968.74,-1433.15 1018.5,-1244.48 1037.52,-1172.37"/>
<polygon fill="black" stroke="black" points="1040.84,-1173.48 1040.01,-1162.92 1034.08,-1171.7 1040.84,-1173.48"/>
<text text-anchor="start" x="1005" y="-1459.7" font-family="Times,serif" font-size="14.00">[PubTest.test2.in06] =&gt; {test2::$r2 &#45;&gt; [test2.new04], </text>
<text text-anchor="start" x="1005" y="-1443.2" font-family="Times,serif" font-size="14.00">foo2::r0 &#45;&gt; [test2.new04], </text>
<text text-anchor="start" x="1005" y="-1426.7" font-family="Times,serif" font-size="14.00">@parameter0: PubTest &#45;&gt; [test2.new04], </text>
<text text-anchor="start" x="1005" y="-1410.2" font-family="Times,serif" font-size="14.00">}</text>
<text text-anchor="start" x="1005" y="-1377.7" font-family="Times,serif" font-size="14.00">[PubTest.test2.in03] =&gt; {test2::r4 &#45;&gt; [null], </text>
<text text-anchor="start" x="1005" y="-1361.2" font-family="Times,serif" font-size="14.00">foo2::r0 &#45;&gt; [test2.new01], </text>
<text text-anchor="start" x="1005" y="-1344.7" font-family="Times,serif" font-size="14.00">test2::$r0 &#45;&gt; [test2.new01], </text>
<text text-anchor="start" x="1005" y="-1328.2" font-family="Times,serif" font-size="14.00">@parameter0: PubTest &#45;&gt; [test2.new01], </text>
<text text-anchor="start" x="1005" y="-1311.7" font-family="Times,serif" font-size="14.00">}</text>
</g>
<!-- foo2 return foo2::$r1 -->
<g id="node13" class="node">
<title>foo2 return foo2::$r1</title>
<polygon fill="none" stroke="black" points="995.38,-712.5 864.62,-712.5 864.62,-676.5 995.38,-676.5 995.38,-712.5"/>
<text text-anchor="middle" x="930" y="-689.45" font-family="Times,serif" font-size="14.00">foo2 return foo2::$r1</text>
</g>
<!-- foo2 foo2::$r1 = staticinvoke &lt;PubTest: PubTest bar2(PubTest)&gt;(foo2::r0)&#45;&gt;foo2 return foo2::$r1 -->
<g id="edge12" class="edge">
<title>foo2 foo2::$r1 = staticinvoke &lt;PubTest: PubTest bar2(PubTest)&gt;(foo2::r0)&#45;&gt;foo2 return foo2::$r1</title>
<path fill="none" stroke="black" d="M1040.56,-1124.77C1023.12,-1057.03 959.13,-808.59 937.33,-723.96"/>
<polygon fill="black" stroke="black" points="940.75,-723.2 934.86,-714.38 933.97,-724.94 940.75,-723.2"/>
<text text-anchor="start" x="1004" y="-980.2" font-family="Times,serif" font-size="14.00">[PubTest.test2.in06] =&gt; {test2::$r2 &#45;&gt; [test2.new04], </text>
<text text-anchor="start" x="1004" y="-963.7" font-family="Times,serif" font-size="14.00">foo2::r0 &#45;&gt; [test2.new04], </text>
<text text-anchor="start" x="1004" y="-947.2" font-family="Times,serif" font-size="14.00">bar3::r0 &#45;&gt; [test2.new04], </text>
<text text-anchor="start" x="1004" y="-930.7" font-family="Times,serif" font-size="14.00">bar2::$r1 &#45;&gt; [test2.new04], </text>
<text text-anchor="start" x="1004" y="-914.2" font-family="Times,serif" font-size="14.00">bar2::r0 &#45;&gt; [test2.new04], </text>
<text text-anchor="start" x="1004" y="-897.7" font-family="Times,serif" font-size="14.00">foo2::$r1 &#45;&gt; [test2.new04]</text>
<text text-anchor="start" x="1004" y="-881.2" font-family="Times,serif" font-size="14.00">}</text>
<text text-anchor="start" x="1004" y="-848.7" font-family="Times,serif" font-size="14.00">[PubTest.test2.in03] =&gt; {test2::$r2 &#45;&gt; [test2.new04], </text>
<text text-anchor="start" x="1004" y="-832.2" font-family="Times,serif" font-size="14.00">foo2::r0 &#45;&gt; [test2.new04], </text>
<text text-anchor="start" x="1004" y="-815.7" font-family="Times,serif" font-size="14.00">bar3::r0 &#45;&gt; [test2.new04], </text>
<text text-anchor="start" x="1004" y="-799.2" font-family="Times,serif" font-size="14.00">bar2::$r1 &#45;&gt; [test2.new04], </text>
<text text-anchor="start" x="1004" y="-782.7" font-family="Times,serif" font-size="14.00">bar2::r0 &#45;&gt; [test2.new04], </text>
<text text-anchor="start" x="1004" y="-766.2" font-family="Times,serif" font-size="14.00">foo2::$r1 &#45;&gt; [test2.new04]</text>
<text text-anchor="start" x="1004" y="-749.7" font-family="Times,serif" font-size="14.00">}</text>
</g>
<!-- bar2 bar2::r0 := @parameter0: PubTest -->
<g id="node14" class="node">
<title>bar2 bar2::r0 := @parameter0: PubTest</title>
<polygon fill="none" stroke="black" points="1514,-712.5 1282,-712.5 1282,-676.5 1514,-676.5 1514,-712.5"/>
<text text-anchor="middle" x="1398" y="-689.45" font-family="Times,serif" font-size="14.00">bar2 bar2::r0 := @parameter0: PubTest</text>
</g>
<!-- foo2 foo2::$r1 = staticinvoke &lt;PubTest: PubTest bar2(PubTest)&gt;(foo2::r0)&#45;&gt;bar2 bar2::r0 := @parameter0: PubTest -->
<g id="edge18" class="edge">
<title>foo2 foo2::$r1 = staticinvoke &lt;PubTest: PubTest bar2(PubTest)&gt;(foo2::r0)&#45;&gt;bar2 bar2::r0 := @parameter0: PubTest</title>
<path fill="none" stroke="black" stroke-dasharray="1,5" d="M1098.03,-1124.52C1156.15,-1102.74 1248.26,-1060.06 1302,-993.5 1368.65,-910.96 1389.47,-781.06 1395.6,-723.99"/>
<polygon fill="black" stroke="black" points="1399.07,-724.46 1396.58,-714.16 1392.11,-723.77 1399.07,-724.46"/>
<text text-anchor="middle" x="1595" y="-947.2" font-family="Times,serif" font-size="14.00">PubTest.foo2.in01</text>
<text text-anchor="start" x="1394" y="-930.7" font-family="Times,serif" font-size="14.00">[PubTest.test2.in06, PubTest.foo2.in01] =&gt; {test2::$r2 &#45;&gt; [test2.new04], </text>
<text text-anchor="start" x="1394" y="-914.2" font-family="Times,serif" font-size="14.00">foo2::r0 &#45;&gt; [test2.new04], </text>
<text text-anchor="start" x="1394" y="-897.7" font-family="Times,serif" font-size="14.00">@parameter0: PubTest &#45;&gt; [test2.new04], </text>
<text text-anchor="start" x="1394" y="-881.2" font-family="Times,serif" font-size="14.00">}</text>
<text text-anchor="start" x="1394" y="-848.7" font-family="Times,serif" font-size="14.00">[PubTest.test2.in03, PubTest.foo2.in01] =&gt; {test2::r4 &#45;&gt; [null], </text>
<text text-anchor="start" x="1394" y="-832.2" font-family="Times,serif" font-size="14.00">foo2::r0 &#45;&gt; [test2.new01], </text>
<text text-anchor="start" x="1394" y="-815.7" font-family="Times,serif" font-size="14.00">test2::$r0 &#45;&gt; [test2.new01], </text>
<text text-anchor="start" x="1394" y="-799.2" font-family="Times,serif" font-size="14.00">@parameter0: PubTest &#45;&gt; [test2.new01], </text>
<text text-anchor="start" x="1394" y="-782.7" font-family="Times,serif" font-size="14.00">}</text>
</g>
<!-- foo2 return foo2::$r1&#45;&gt;test2 test2::$r2 = new PubTest -->
<g id="edge19" class="edge">
<title>foo2 return foo2::$r1&#45;&gt;test2 test2::$r2 = new PubTest</title>
<path fill="none" stroke="black" stroke-dasharray="1,5" d="M864.57,-712.47C747.32,-746.74 503.68,-836.28 396.75,-1011.5 343.23,-1099.2 434.29,-1393.67 369,-1473 363.69,-1479.46 351.42,-1484.98 336.33,-1489.59"/>
<polygon fill="black" stroke="black" points="335.62,-1486.16 326.94,-1492.24 337.51,-1492.9 335.62,-1486.16"/>
<text text-anchor="middle" x="446.62" y="-1137.95" font-family="Times,serif" font-size="14.00">PubTest.test2.in03</text>
</g>
<!-- foo2 return foo2::$r1&#45;&gt;test2 if test2::$r1 != test2::$r3 goto return test2::r4 -->
<g id="edge20" class="edge">
<title>foo2 return foo2::$r1&#45;&gt;test2 if test2::$r1 != test2::$r3 goto return test2::r4</title>
<path fill="none" stroke="red" stroke-dasharray="1,5" d="M905.07,-676.19C838.36,-630.72 648.84,-507.13 473,-445 456.22,-439.07 438.24,-434.1 420.26,-429.94"/>
<polygon fill="red" stroke="red" points="421.08,-426.54 410.56,-427.78 419.56,-433.37 421.08,-426.54"/>
<text text-anchor="middle" x="922.62" y="-546.7" font-family="Times,serif" font-size="14.00">PubTest.test2.in06</text>
</g>
<!-- bar2 bar2::$r1 = staticinvoke &lt;PubTest: PubTest bar3(PubTest)&gt;(bar2::r0) -->
<g id="node15" class="node">
<title>bar2 bar2::$r1 = staticinvoke &lt;PubTest: PubTest bar3(PubTest)&gt;(bar2::r0)</title>
<polygon fill="none" stroke="black" points="1705.62,-427 1282.38,-427 1282.38,-391 1705.62,-391 1705.62,-427"/>
<text text-anchor="middle" x="1494" y="-403.95" font-family="Times,serif" font-size="14.00">bar2 bar2::$r1 = staticinvoke &lt;PubTest: PubTest bar3(PubTest)&gt;(bar2::r0)</text>
</g>
<!-- bar2 bar2::r0 := @parameter0: PubTest&#45;&gt;bar2 bar2::$r1 = staticinvoke &lt;PubTest: PubTest bar3(PubTest)&gt;(bar2::r0) -->
<g id="edge13" class="edge">
<title>bar2 bar2::r0 := @parameter0: PubTest&#45;&gt;bar2 bar2::$r1 = staticinvoke &lt;PubTest: PubTest bar3(PubTest)&gt;(bar2::r0)</title>
<path fill="none" stroke="black" d="M1322.67,-676.26C1314.98,-671.67 1308.13,-665.85 1303,-658.5 1248.73,-580.66 1242.25,-517.89 1303,-445 1307.58,-439.5 1315.89,-434.87 1326.57,-430.96"/>
<polygon fill="black" stroke="black" points="1327.61,-434.3 1336.05,-427.9 1325.45,-427.64 1327.61,-434.3"/>
<text text-anchor="start" x="1303" y="-645.2" font-family="Times,serif" font-size="14.00">[PubTest.test2.in06, PubTest.foo2.in01] =&gt; {test2::$r2 &#45;&gt; [test2.new04], </text>
<text text-anchor="start" x="1303" y="-628.7" font-family="Times,serif" font-size="14.00">foo2::r0 &#45;&gt; [test2.new04], </text>
<text text-anchor="start" x="1303" y="-612.2" font-family="Times,serif" font-size="14.00">bar2::r0 &#45;&gt; [test2.new04], </text>
<text text-anchor="start" x="1303" y="-595.7" font-family="Times,serif" font-size="14.00">@parameter0: PubTest &#45;&gt; [test2.new04], </text>
<text text-anchor="start" x="1303" y="-579.2" font-family="Times,serif" font-size="14.00">}</text>
<text text-anchor="start" x="1303" y="-546.7" font-family="Times,serif" font-size="14.00">[PubTest.test2.in03, PubTest.foo2.in01] =&gt; {test2::r4 &#45;&gt; [null], </text>
<text text-anchor="start" x="1303" y="-530.2" font-family="Times,serif" font-size="14.00">foo2::r0 &#45;&gt; [test2.new01], </text>
<text text-anchor="start" x="1303" y="-513.7" font-family="Times,serif" font-size="14.00">test2::$r0 &#45;&gt; [test2.new01], </text>
<text text-anchor="start" x="1303" y="-497.2" font-family="Times,serif" font-size="14.00">bar2::r0 &#45;&gt; [test2.new01], </text>
<text text-anchor="start" x="1303" y="-480.7" font-family="Times,serif" font-size="14.00">@parameter0: PubTest &#45;&gt; [test2.new01], </text>
<text text-anchor="start" x="1303" y="-464.2" font-family="Times,serif" font-size="14.00">}</text>
</g>
<!-- bar2 return bar2::$r1 -->
<g id="node16" class="node">
<title>bar2 return bar2::$r1</title>
<polygon fill="none" stroke="black" points="1411.62,-125 1282.38,-125 1282.38,-89 1411.62,-89 1411.62,-125"/>
<text text-anchor="middle" x="1347" y="-101.95" font-family="Times,serif" font-size="14.00">bar2 return bar2::$r1</text>
</g>
<!-- bar2 bar2::$r1 = staticinvoke &lt;PubTest: PubTest bar3(PubTest)&gt;(bar2::r0)&#45;&gt;bar2 return bar2::$r1 -->
<g id="edge14" class="edge">
<title>bar2 bar2::$r1 = staticinvoke &lt;PubTest: PubTest bar3(PubTest)&gt;(bar2::r0)&#45;&gt;bar2 return bar2::$r1</title>
<path fill="none" stroke="black" d="M1485.46,-390.57C1460.95,-340.55 1390.23,-196.23 1360.46,-135.48"/>
<polygon fill="black" stroke="black" points="1363.77,-134.27 1356.23,-126.83 1357.49,-137.35 1363.77,-134.27"/>
<text text-anchor="start" x="1475" y="-359.7" font-family="Times,serif" font-size="14.00">[PubTest.test2.in06, PubTest.foo2.in01] =&gt; {test2::$r2 &#45;&gt; [test2.new04], </text>
<text text-anchor="start" x="1475" y="-343.2" font-family="Times,serif" font-size="14.00">foo2::r0 &#45;&gt; [test2.new04], </text>
<text text-anchor="start" x="1475" y="-326.7" font-family="Times,serif" font-size="14.00">bar3::r0 &#45;&gt; [test2.new04], </text>
<text text-anchor="start" x="1475" y="-310.2" font-family="Times,serif" font-size="14.00">bar2::$r1 &#45;&gt; [test2.new04], </text>
<text text-anchor="start" x="1475" y="-293.7" font-family="Times,serif" font-size="14.00">bar2::r0 &#45;&gt; [test2.new04], </text>
<text text-anchor="start" x="1475" y="-277.2" font-family="Times,serif" font-size="14.00">}</text>
<text text-anchor="start" x="1475" y="-244.7" font-family="Times,serif" font-size="14.00">[PubTest.test2.in03, PubTest.foo2.in01] =&gt; {test2::$r2 &#45;&gt; [test2.new04], </text>
<text text-anchor="start" x="1475" y="-228.2" font-family="Times,serif" font-size="14.00">foo2::r0 &#45;&gt; [test2.new04], </text>
<text text-anchor="start" x="1475" y="-211.7" font-family="Times,serif" font-size="14.00">bar3::r0 &#45;&gt; [test2.new04], </text>
<text text-anchor="start" x="1475" y="-195.2" font-family="Times,serif" font-size="14.00">bar2::$r1 &#45;&gt; [test2.new04], </text>
<text text-anchor="start" x="1475" y="-178.7" font-family="Times,serif" font-size="14.00">bar2::r0 &#45;&gt; [test2.new04], </text>
<text text-anchor="start" x="1475" y="-162.2" font-family="Times,serif" font-size="14.00">}</text>
</g>
<!-- bar3 bar3::r0 := @parameter0: PubTest -->
<g id="node17" class="node">
<title>bar3 bar3::r0 := @parameter0: PubTest</title>
<polygon fill="none" stroke="black" points="2365,-712.5 2133,-712.5 2133,-676.5 2365,-676.5 2365,-712.5"/>
<text text-anchor="middle" x="2249" y="-689.45" font-family="Times,serif" font-size="14.00">bar3 bar3::r0 := @parameter0: PubTest</text>
</g>
<!-- bar2 bar2::$r1 = staticinvoke &lt;PubTest: PubTest bar3(PubTest)&gt;(bar2::r0)&#45;&gt;bar3 bar3::r0 := @parameter0: PubTest -->
<g id="edge21" class="edge">
<title>bar2 bar2::$r1 = staticinvoke &lt;PubTest: PubTest bar3(PubTest)&gt;(bar2::r0)&#45;&gt;bar3 bar3::r0 := @parameter0: PubTest</title>
<path fill="none" stroke="black" stroke-dasharray="1,5" d="M1657.79,-427.45C1678.64,-432.06 1695.88,-437.82 1705,-445 1785.97,-508.77 1711.83,-598.33 1795.5,-658.5 1821.5,-677.2 1996.67,-686.25 2121.5,-690.38"/>
<polygon fill="black" stroke="black" points="2121.04,-693.87 2131.15,-690.69 2121.27,-686.87 2121.04,-693.87"/>
<text text-anchor="middle" x="1995.25" y="-595.95" font-family="Times,serif" font-size="14.00">PubTest.bar2.in01</text>
<text text-anchor="start" x="1795" y="-579.45" font-family="Times,serif" font-size="14.00">[PubTest.foo2.in01, PubTest.bar2.in01] =&gt; {test2::$r2 &#45;&gt; [test2.new04], </text>
<text text-anchor="start" x="1795" y="-562.95" font-family="Times,serif" font-size="14.00">foo2::r0 &#45;&gt; [test2.new04], </text>
<text text-anchor="start" x="1795" y="-546.45" font-family="Times,serif" font-size="14.00">bar2::r0 &#45;&gt; [test2.new04], </text>
<text text-anchor="start" x="1795" y="-529.95" font-family="Times,serif" font-size="14.00">@parameter0: PubTest &#45;&gt; [test2.new04], </text>
<text text-anchor="start" x="1795" y="-513.45" font-family="Times,serif" font-size="14.00">}</text>
</g>
<!-- bar2 return bar2::$r1&#45;&gt;foo2 return foo2::$r1 -->
<g id="edge22" class="edge">
<title>bar2 return bar2::$r1&#45;&gt;foo2 return foo2::$r1</title>
<path fill="none" stroke="black" stroke-dasharray="1,5" d="M1335.76,-125.48C1278.7,-214.07 1022.13,-611.14 977,-658.5 973.51,-662.16 969.6,-665.72 965.57,-669.08"/>
<polygon fill="black" stroke="black" points="963.56,-666.21 957.86,-675.14 967.88,-671.72 963.56,-666.21"/>
<text text-anchor="middle" x="1213.25" y="-403.95" font-family="Times,serif" font-size="14.00">PubTest.foo2.in01</text>
</g>
<!-- bar3 return bar3::r0 -->
<g id="node18" class="node">
<title>bar3 return bar3::r0</title>
<polygon fill="none" stroke="black" points="2255.25,-427 2132.75,-427 2132.75,-391 2255.25,-391 2255.25,-427"/>
<text text-anchor="middle" x="2194" y="-403.95" font-family="Times,serif" font-size="14.00">bar3 return bar3::r0</text>
</g>
<!-- bar3 bar3::r0 := @parameter0: PubTest&#45;&gt;bar3 return bar3::r0 -->
<g id="edge15" class="edge">
<title>bar3 bar3::r0 := @parameter0: PubTest&#45;&gt;bar3 return bar3::r0</title>
<path fill="none" stroke="black" d="M2245.64,-676.19C2236.46,-628.84 2210.84,-496.82 2199.51,-438.41"/>
<polygon fill="black" stroke="black" points="2203.01,-438.08 2197.67,-428.93 2196.14,-439.41 2203.01,-438.08"/>
<text text-anchor="start" x="2242" y="-595.95" font-family="Times,serif" font-size="14.00">[PubTest.foo2.in01, PubTest.bar2.in01] =&gt; {test2::$r2 &#45;&gt; [test2.new04], </text>
<text text-anchor="start" x="2242" y="-579.45" font-family="Times,serif" font-size="14.00">foo2::r0 &#45;&gt; [test2.new04], </text>
<text text-anchor="start" x="2242" y="-562.95" font-family="Times,serif" font-size="14.00">bar3::r0 &#45;&gt; [test2.new04], </text>
<text text-anchor="start" x="2242" y="-546.45" font-family="Times,serif" font-size="14.00">bar2::r0 &#45;&gt; [test2.new04], </text>
<text text-anchor="start" x="2242" y="-529.95" font-family="Times,serif" font-size="14.00">@parameter0: PubTest &#45;&gt; [test2.new04], </text>
<text text-anchor="start" x="2242" y="-513.45" font-family="Times,serif" font-size="14.00">}</text>
</g>
<!-- bar3 return bar3::r0&#45;&gt;bar2 return bar2::$r1 -->
<g id="edge23" class="edge">
<title>bar3 return bar3::r0&#45;&gt;bar2 return bar2::$r1</title>
<path fill="none" stroke="black" stroke-dasharray="1,5" d="M2180.74,-390.83C2141.44,-341.45 2019.63,-199.01 1881,-143 1800.1,-110.31 1550.44,-106.75 1423.22,-107.17"/>
<polygon fill="black" stroke="black" points="1423.54,-103.67 1413.56,-107.21 1423.57,-110.67 1423.54,-103.67"/>
<text text-anchor="middle" x="2211.88" y="-252.95" font-family="Times,serif" font-size="14.00">PubTest.bar2.in01</text>
</g>
</g>
</svg>
