<?xml version="1.0" encoding="UTF-8" standalone="no"?>
<!DOCTYPE svg PUBLIC "-//W3C//DTD SVG 1.1//EN"
 "http://www.w3.org/Graphics/SVG/1.1/DTD/svg11.dtd">
<!-- Generated by graphviz version 9.0.0 (20230911.1827)
 -->
<!-- Title: G Pages: 1 -->
<svg width="2296pt" height="1220pt"
 viewBox="0.00 0.00 2296.00 1220.00" xmlns="http://www.w3.org/2000/svg" xmlns:xlink="http://www.w3.org/1999/xlink">
<g id="graph0" class="graph" transform="scale(1 1) rotate(0) translate(4 1216)">
<title>G</title>
<polygon fill="white" stroke="none" points="-4,4 -4,-1216 2292,-1216 2292,4 -4,4"/>
<g id="clust1" class="cluster">
<title>cluster_0</title>
<polygon fill="none" stroke="black" points="8,-453.5 8,-1204 478,-1204 478,-453.5 8,-453.5"/>
</g>
<g id="clust2" class="cluster">
<title>cluster_1</title>
<polygon fill="none" stroke="black" points="486,-8 486,-692.5 1028,-692.5 1028,-8 486,-8"/>
</g>
<g id="clust3" class="cluster">
<title>cluster_2</title>
<polygon fill="none" stroke="black" points="1476,-8 1476,-1083 2168,-1083 2168,-8 1476,-8"/>
</g>
<!-- f f::$r0 = new BasicTest -->
<g id="node1" class="node">
<title>f f::$r0 = new BasicTest</title>
<polygon fill="none" stroke="black" points="317.75,-1196 168.25,-1196 168.25,-1160 317.75,-1160 317.75,-1196"/>
<text text-anchor="middle" x="243" y="-1172.95" font-family="Times,serif" font-size="14.00">f f::$r0 = new BasicTest</text>
</g>
<!-- f specialinvoke f::$r0.&lt;BasicTest: void &lt;init&gt;()&gt;() -->
<g id="node2" class="node">
<title>f specialinvoke f::$r0.&lt;BasicTest: void &lt;init&gt;()&gt;()</title>
<polygon fill="none" stroke="black" points="389.75,-1075 96.25,-1075 96.25,-1039 389.75,-1039 389.75,-1075"/>
<text text-anchor="middle" x="243" y="-1051.95" font-family="Times,serif" font-size="14.00">f specialinvoke f::$r0.&lt;BasicTest: void &lt;init&gt;()&gt;()</text>
</g>
<!-- f f::$r0 = new BasicTest&#45;&gt;f specialinvoke f::$r0.&lt;BasicTest: void &lt;init&gt;()&gt;() -->
<g id="edge1" class="edge">
<title>f f::$r0 = new BasicTest&#45;&gt;f specialinvoke f::$r0.&lt;BasicTest: void &lt;init&gt;()&gt;()</title>
<path fill="none" stroke="black" d="M243,-1159.7C243,-1140.57 243,-1109.46 243,-1086.68"/>
<polygon fill="black" stroke="black" points="246.5,-1086.84 243,-1076.84 239.5,-1086.84 246.5,-1086.84"/>
<text text-anchor="start" x="243" y="-1128.7" font-family="Times,serif" font-size="14.00">[] =&gt; {f::$r0 &#45;&gt; [f.new00], </text>
<text text-anchor="start" x="243" y="-1112.2" font-family="Times,serif" font-size="14.00">}</text>
</g>
<!-- f f::$r1 = staticinvoke &lt;BasicTest: BasicTest REC_TEST_1(BasicTest)&gt;(f::$r0) -->
<g id="node3" class="node">
<title>f f::$r1 = staticinvoke &lt;BasicTest: BasicTest REC_TEST_1(BasicTest)&gt;(f::$r0)</title>
<polygon fill="none" stroke="black" points="469.62,-888 16.38,-888 16.38,-852 469.62,-852 469.62,-888"/>
<text text-anchor="middle" x="243" y="-864.95" font-family="Times,serif" font-size="14.00">f f::$r1 = staticinvoke &lt;BasicTest: BasicTest REC_TEST_1(BasicTest)&gt;(f::$r0)</text>
</g>
<!-- f specialinvoke f::$r0.&lt;BasicTest: void &lt;init&gt;()&gt;()&#45;&gt;f f::$r1 = staticinvoke &lt;BasicTest: BasicTest REC_TEST_1(BasicTest)&gt;(f::$r0) -->
<g id="edge2" class="edge">
<title>f specialinvoke f::$r0.&lt;BasicTest: void &lt;init&gt;()&gt;()&#45;&gt;f f::$r1 = staticinvoke &lt;BasicTest: BasicTest REC_TEST_1(BasicTest)&gt;(f::$r0)</title>
<path fill="none" stroke="black" d="M243,-1038.6C243,-1006.71 243,-938.64 243,-899.77"/>
<polygon fill="black" stroke="black" points="246.5,-900.01 243,-890.01 239.5,-900.01 246.5,-900.01"/>
<text text-anchor="start" x="243" y="-974.7" font-family="Times,serif" font-size="14.00">[] =&gt; {f::$r0 &#45;&gt; [f.new00], </text>
<text text-anchor="start" x="243" y="-958.2" font-family="Times,serif" font-size="14.00">}</text>
</g>
<!-- f f::$r1.&lt;BasicTest: BasicTest f&gt; = null -->
<g id="node4" class="node">
<title>f f::$r1.&lt;BasicTest: BasicTest f&gt; = null</title>
<polygon fill="none" stroke="black" points="441.75,-684.5 208.25,-684.5 208.25,-648.5 441.75,-648.5 441.75,-684.5"/>
<text text-anchor="middle" x="325" y="-661.45" font-family="Times,serif" font-size="14.00">f f::$r1.&lt;BasicTest: BasicTest f&gt; = null</text>
</g>
<!-- f f::$r1 = staticinvoke &lt;BasicTest: BasicTest REC_TEST_1(BasicTest)&gt;(f::$r0)&#45;&gt;f f::$r1.&lt;BasicTest: BasicTest f&gt; = null -->
<g id="edge3" class="edge">
<title>f f::$r1 = staticinvoke &lt;BasicTest: BasicTest REC_TEST_1(BasicTest)&gt;(f::$r0)&#45;&gt;f f::$r1.&lt;BasicTest: BasicTest f&gt; = null</title>
<path fill="none" stroke="black" d="M249.99,-851.82C264.18,-816.96 296.45,-737.65 313.68,-695.32"/>
<polygon fill="black" stroke="black" points="316.81,-696.91 317.34,-686.32 310.33,-694.27 316.81,-696.91"/>
</g>
<!-- REC_TEST_1 REC_TEST_1::r1 := @parameter0: BasicTest -->
<g id="node6" class="node">
<title>REC_TEST_1 REC_TEST_1::r1 := @parameter0: BasicTest</title>
<polygon fill="none" stroke="black" points="844.25,-684.5 493.75,-684.5 493.75,-648.5 844.25,-648.5 844.25,-684.5"/>
<text text-anchor="middle" x="669" y="-661.45" font-family="Times,serif" font-size="14.00">REC_TEST_1 REC_TEST_1::r1 := @parameter0: BasicTest</text>
</g>
<!-- f f::$r1 = staticinvoke &lt;BasicTest: BasicTest REC_TEST_1(BasicTest)&gt;(f::$r0)&#45;&gt;REC_TEST_1 REC_TEST_1::r1 := @parameter0: BasicTest -->
<g id="edge16" class="edge">
<title>f f::$r1 = staticinvoke &lt;BasicTest: BasicTest REC_TEST_1(BasicTest)&gt;(f::$r0)&#45;&gt;REC_TEST_1 REC_TEST_1::r1 := @parameter0: BasicTest</title>
<path fill="none" stroke="black" stroke-dasharray="1,5" d="M279.69,-851.65C356.99,-815.08 536.51,-730.17 622.05,-689.71"/>
<polygon fill="black" stroke="black" points="623.34,-692.97 630.88,-685.53 620.34,-686.64 623.34,-692.97"/>
<text text-anchor="middle" x="760.5" y="-795.95" font-family="Times,serif" font-size="14.00">BasicTest.f.in02</text>
<text text-anchor="start" x="588" y="-779.45" font-family="Times,serif" font-size="14.00">[BasicTest.f.in02] =&gt; {@parameter0: BasicTest &#45;&gt; [f.new00], </text>
<text text-anchor="start" x="588" y="-762.95" font-family="Times,serif" font-size="14.00">f::$r0 &#45;&gt; [f.new00], </text>
<text text-anchor="start" x="588" y="-746.45" font-family="Times,serif" font-size="14.00">}</text>
</g>
<!-- f return -->
<g id="node5" class="node">
<title>f return</title>
<polygon fill="none" stroke="black" points="409.25,-497.5 352.75,-497.5 352.75,-461.5 409.25,-461.5 409.25,-497.5"/>
<text text-anchor="middle" x="381" y="-474.45" font-family="Times,serif" font-size="14.00">f return</text>
</g>
<!-- f f::$r1.&lt;BasicTest: BasicTest f&gt; = null&#45;&gt;f return -->
<g id="edge4" class="edge">
<title>f f::$r1.&lt;BasicTest: BasicTest f&gt; = null&#45;&gt;f return</title>
<path fill="none" stroke="black" d="M332.35,-648.19C334.61,-642.59 337.03,-636.33 339,-630.5 353.18,-588.67 366.36,-539.16 374.05,-508.8"/>
<polygon fill="black" stroke="black" points="377.4,-509.8 376.44,-499.25 370.61,-508.1 377.4,-509.8"/>
</g>
<!-- REC_TEST_1 REC_TEST_1::$r0 = new BasicTest -->
<g id="node7" class="node">
<title>REC_TEST_1 REC_TEST_1::$r0 = new BasicTest</title>
<polygon fill="none" stroke="black" points="818,-497.5 520,-497.5 520,-461.5 818,-461.5 818,-497.5"/>
<text text-anchor="middle" x="669" y="-474.45" font-family="Times,serif" font-size="14.00">REC_TEST_1 REC_TEST_1::$r0 = new BasicTest</text>
</g>
<!-- REC_TEST_1 REC_TEST_1::r1 := @parameter0: BasicTest&#45;&gt;REC_TEST_1 REC_TEST_1::$r0 = new BasicTest -->
<g id="edge5" class="edge">
<title>REC_TEST_1 REC_TEST_1::r1 := @parameter0: BasicTest&#45;&gt;REC_TEST_1 REC_TEST_1::$r0 = new BasicTest</title>
<path fill="none" stroke="black" d="M668.4,-648.06C668.24,-642.45 668.08,-636.21 668,-630.5 667.27,-579.39 667.27,-566.61 668,-515.5 668.03,-513.45 668.07,-511.33 668.11,-509.19"/>
<polygon fill="black" stroke="black" points="671.61,-509.54 668.36,-499.46 664.61,-509.36 671.61,-509.54"/>
<text text-anchor="start" x="668" y="-600.7" font-family="Times,serif" font-size="14.00">[BasicTest.f.in02] =&gt; {@parameter0: BasicTest &#45;&gt; [f.new00], </text>
<text text-anchor="start" x="668" y="-584.2" font-family="Times,serif" font-size="14.00">f::$r0 &#45;&gt; [f.new00], </text>
<text text-anchor="start" x="668" y="-567.7" font-family="Times,serif" font-size="14.00">REC_TEST_1::r1 &#45;&gt; [f.new00], </text>
<text text-anchor="start" x="668" y="-551.2" font-family="Times,serif" font-size="14.00">}</text>
</g>
<!-- REC_TEST_1 specialinvoke REC_TEST_1::$r0.&lt;BasicTest: void &lt;init&gt;()&gt;() -->
<g id="node8" class="node">
<title>REC_TEST_1 specialinvoke REC_TEST_1::$r0.&lt;BasicTest: void &lt;init&gt;()&gt;()</title>
<polygon fill="none" stroke="black" points="936,-327 494,-327 494,-291 936,-291 936,-327"/>
<text text-anchor="middle" x="715" y="-303.95" font-family="Times,serif" font-size="14.00">REC_TEST_1 specialinvoke REC_TEST_1::$r0.&lt;BasicTest: void &lt;init&gt;()&gt;()</text>
</g>
<!-- REC_TEST_1 REC_TEST_1::$r0 = new BasicTest&#45;&gt;REC_TEST_1 specialinvoke REC_TEST_1::$r0.&lt;BasicTest: void &lt;init&gt;()&gt;() -->
<g id="edge6" class="edge">
<title>REC_TEST_1 REC_TEST_1::$r0 = new BasicTest&#45;&gt;REC_TEST_1 specialinvoke REC_TEST_1::$r0.&lt;BasicTest: void &lt;init&gt;()&gt;()</title>
<path fill="none" stroke="black" d="M665.85,-461.04C661.93,-434.51 657.78,-383.11 676,-345 677.61,-341.63 679.7,-338.45 682.08,-335.47"/>
<polygon fill="black" stroke="black" points="684.54,-337.97 688.86,-328.3 679.45,-333.17 684.54,-337.97"/>
<text text-anchor="start" x="676" y="-430.2" font-family="Times,serif" font-size="14.00">[BasicTest.f.in02] =&gt; {@parameter0: BasicTest &#45;&gt; [f.new00], </text>
<text text-anchor="start" x="676" y="-413.7" font-family="Times,serif" font-size="14.00">f::$r0 &#45;&gt; [f.new00], </text>
<text text-anchor="start" x="676" y="-397.2" font-family="Times,serif" font-size="14.00">REC_TEST_1::$r0 &#45;&gt; [REC_TEST_1.new01], </text>
<text text-anchor="start" x="676" y="-380.7" font-family="Times,serif" font-size="14.00">REC_TEST_1::r1 &#45;&gt; [f.new00], </text>
<text text-anchor="start" x="676" y="-364.2" font-family="Times,serif" font-size="14.00">}</text>
</g>
<!-- REC_TEST_1 staticinvoke &lt;BasicTest: BasicTest rec_test_2(BasicTest)&gt;(REC_TEST_1::r1) -->
<g id="node9" class="node">
<title>REC_TEST_1 staticinvoke &lt;BasicTest: BasicTest rec_test_2(BasicTest)&gt;(REC_TEST_1::r1)</title>
<polygon fill="none" stroke="black" points="1020,-156.5 494,-156.5 494,-120.5 1020,-120.5 1020,-156.5"/>
<text text-anchor="middle" x="757" y="-133.45" font-family="Times,serif" font-size="14.00">REC_TEST_1 staticinvoke &lt;BasicTest: BasicTest rec_test_2(BasicTest)&gt;(REC_TEST_1::r1)</text>
</g>
<!-- REC_TEST_1 specialinvoke REC_TEST_1::$r0.&lt;BasicTest: void &lt;init&gt;()&gt;()&#45;&gt;REC_TEST_1 staticinvoke &lt;BasicTest: BasicTest rec_test_2(BasicTest)&gt;(REC_TEST_1::r1) -->
<g id="edge7" class="edge">
<title>REC_TEST_1 specialinvoke REC_TEST_1::$r0.&lt;BasicTest: void &lt;init&gt;()&gt;()&#45;&gt;REC_TEST_1 staticinvoke &lt;BasicTest: BasicTest rec_test_2(BasicTest)&gt;(REC_TEST_1::r1)</title>
<path fill="none" stroke="black" d="M689.25,-290.54C683.89,-285.56 678.97,-279.65 676,-273 658.16,-233.02 651.96,-211.08 676,-174.5 678.7,-170.4 681.99,-166.77 685.69,-163.57"/>
<polygon fill="black" stroke="black" points="687.69,-166.44 693.73,-157.73 683.58,-160.77 687.69,-166.44"/>
<text text-anchor="start" x="676" y="-259.7" font-family="Times,serif" font-size="14.00">[BasicTest.f.in02] =&gt; {@parameter0: BasicTest &#45;&gt; [f.new00], </text>
<text text-anchor="start" x="676" y="-243.2" font-family="Times,serif" font-size="14.00">f::$r0 &#45;&gt; [f.new00], </text>
<text text-anchor="start" x="676" y="-226.7" font-family="Times,serif" font-size="14.00">REC_TEST_1::$r0 &#45;&gt; [REC_TEST_1.new01], </text>
<text text-anchor="start" x="676" y="-210.2" font-family="Times,serif" font-size="14.00">REC_TEST_1::r1 &#45;&gt; [f.new00], </text>
<text text-anchor="start" x="676" y="-193.7" font-family="Times,serif" font-size="14.00">}</text>
</g>
<!-- REC_TEST_1 return REC_TEST_1::$r0 -->
<g id="node10" class="node">
<title>REC_TEST_1 return REC_TEST_1::$r0</title>
<polygon fill="none" stroke="black" points="948.38,-52 709.62,-52 709.62,-16 948.38,-16 948.38,-52"/>
<text text-anchor="middle" x="829" y="-28.95" font-family="Times,serif" font-size="14.00">REC_TEST_1 return REC_TEST_1::$r0</text>
</g>
<!-- REC_TEST_1 staticinvoke &lt;BasicTest: BasicTest rec_test_2(BasicTest)&gt;(REC_TEST_1::r1)&#45;&gt;REC_TEST_1 return REC_TEST_1::$r0 -->
<g id="edge8" class="edge">
<title>REC_TEST_1 staticinvoke &lt;BasicTest: BasicTest rec_test_2(BasicTest)&gt;(REC_TEST_1::r1)&#45;&gt;REC_TEST_1 return REC_TEST_1::$r0</title>
<path fill="none" stroke="black" d="M769.21,-120.11C780.44,-104.14 797.24,-80.21 810.18,-61.79"/>
<polygon fill="black" stroke="black" points="812.97,-63.91 815.86,-53.71 807.24,-59.88 812.97,-63.91"/>
<text text-anchor="start" x="803" y="-89.2" font-family="Times,serif" font-size="14.00">[] =&gt; {}</text>
</g>
<!-- rec_test_2 rec_test_2::r1 := @parameter0: BasicTest -->
<g id="node11" class="node">
<title>rec_test_2 rec_test_2::r1 := @parameter0: BasicTest</title>
<polygon fill="none" stroke="black" points="1788,-1075 1484,-1075 1484,-1039 1788,-1039 1788,-1075"/>
<text text-anchor="middle" x="1636" y="-1051.95" font-family="Times,serif" font-size="14.00">rec_test_2 rec_test_2::r1 := @parameter0: BasicTest</text>
</g>
<!-- REC_TEST_1 staticinvoke &lt;BasicTest: BasicTest rec_test_2(BasicTest)&gt;(REC_TEST_1::r1)&#45;&gt;rec_test_2 rec_test_2::r1 := @parameter0: BasicTest -->
<g id="edge17" class="edge">
<title>REC_TEST_1 staticinvoke &lt;BasicTest: BasicTest rec_test_2(BasicTest)&gt;(REC_TEST_1::r1)&#45;&gt;rec_test_2 rec_test_2::r1 := @parameter0: BasicTest</title>
<path fill="none" stroke="black" stroke-dasharray="1,5" d="M986.49,-156.99C1001.88,-161.59 1014.03,-167.33 1021,-174.5 1062.6,-217.26 1035,-248.34 1035,-308 1035,-871 1035,-871 1035,-871 1035,-962.78 1294.27,-1013.81 1472.23,-1038.02"/>
<polygon fill="black" stroke="black" points="1471.69,-1041.48 1482.07,-1039.34 1472.62,-1034.54 1471.69,-1041.48"/>
<text text-anchor="middle" x="1293" y="-617.2" font-family="Times,serif" font-size="14.00">BasicTest.REC_TEST_1.in03</text>
<text text-anchor="start" x="1035" y="-600.7" font-family="Times,serif" font-size="14.00">[BasicTest.f.in02, BasicTest.REC_TEST_1.in03] =&gt; {@parameter0: BasicTest &#45;&gt; [f.new00], </text>
<text text-anchor="start" x="1035" y="-584.2" font-family="Times,serif" font-size="14.00">f::$r0 &#45;&gt; [f.new00], </text>
<text text-anchor="start" x="1035" y="-567.7" font-family="Times,serif" font-size="14.00">REC_TEST_1::$r0 &#45;&gt; [REC_TEST_1.new01], </text>
<text text-anchor="start" x="1035" y="-551.2" font-family="Times,serif" font-size="14.00">REC_TEST_1::r1 &#45;&gt; [f.new00], </text>
<text text-anchor="start" x="1035" y="-534.7" font-family="Times,serif" font-size="14.00">}</text>
</g>
<!-- REC_TEST_1 return REC_TEST_1::$r0&#45;&gt;f f::$r1.&lt;BasicTest: BasicTest f&gt; = null -->
<g id="edge18" class="edge">
<title>REC_TEST_1 return REC_TEST_1::$r0&#45;&gt;f f::$r1.&lt;BasicTest: BasicTest f&gt; = null</title>
<path fill="none" stroke="black" stroke-dasharray="1,5" d="M709.24,-35.83C560.18,-40.19 325,-59.43 325,-137.5 325,-480.5 325,-480.5 325,-480.5 325,-535.9 325,-600.64 325,-636.98"/>
<polygon fill="black" stroke="black" points="321.5,-636.64 325,-646.64 328.5,-636.64 321.5,-636.64"/>
<text text-anchor="middle" x="369.62" y="-303.95" font-family="Times,serif" font-size="14.00">BasicTest.f.in02</text>
</g>
<!-- rec_test_2 rec_test_2::$r0 = new BasicTest -->
<g id="node12" class="node">
<title>rec_test_2 rec_test_2::$r0 = new BasicTest</title>
<polygon fill="none" stroke="black" points="1735.75,-888 1484.25,-888 1484.25,-852 1735.75,-852 1735.75,-888"/>
<text text-anchor="middle" x="1610" y="-864.95" font-family="Times,serif" font-size="14.00">rec_test_2 rec_test_2::$r0 = new BasicTest</text>
</g>
<!-- rec_test_2 rec_test_2::r1 := @parameter0: BasicTest&#45;&gt;rec_test_2 rec_test_2::$r0 = new BasicTest -->
<g id="edge9" class="edge">
<title>rec_test_2 rec_test_2::r1 := @parameter0: BasicTest&#45;&gt;rec_test_2 rec_test_2::$r0 = new BasicTest</title>
<path fill="none" stroke="black" d="M1537.76,-1038.59C1521.6,-1033.79 1508.36,-1027.95 1503,-1021 1471.79,-980.52 1473,-947.38 1503,-906 1506.05,-901.79 1509.62,-898.08 1513.57,-894.81"/>
<polygon fill="black" stroke="black" points="1515.38,-897.82 1521.54,-889.19 1511.35,-892.09 1515.38,-897.82"/>
<text text-anchor="start" x="1503" y="-1007.7" font-family="Times,serif" font-size="14.00">[BasicTest.f.in02, BasicTest.REC_TEST_1.in03] =&gt; {@parameter0: BasicTest &#45;&gt; [f.new00], </text>
<text text-anchor="start" x="1503" y="-991.2" font-family="Times,serif" font-size="14.00">f::$r0 &#45;&gt; [f.new00], </text>
<text text-anchor="start" x="1503" y="-974.7" font-family="Times,serif" font-size="14.00">REC_TEST_1::$r0 &#45;&gt; [REC_TEST_1.new01], </text>
<text text-anchor="start" x="1503" y="-958.2" font-family="Times,serif" font-size="14.00">REC_TEST_1::r1 &#45;&gt; [f.new00], </text>
<text text-anchor="start" x="1503" y="-941.7" font-family="Times,serif" font-size="14.00">rec_test_2::r1 &#45;&gt; [f.new00], </text>
<text text-anchor="start" x="1503" y="-925.2" font-family="Times,serif" font-size="14.00">}</text>
</g>
<!-- rec_test_2 specialinvoke rec_test_2::$r0.&lt;BasicTest: void &lt;init&gt;()&gt;() -->
<g id="node13" class="node">
<title>rec_test_2 specialinvoke rec_test_2::$r0.&lt;BasicTest: void &lt;init&gt;()&gt;()</title>
<polygon fill="none" stroke="black" points="1879.75,-684.5 1484.25,-684.5 1484.25,-648.5 1879.75,-648.5 1879.75,-684.5"/>
<text text-anchor="middle" x="1682" y="-661.45" font-family="Times,serif" font-size="14.00">rec_test_2 specialinvoke rec_test_2::$r0.&lt;BasicTest: void &lt;init&gt;()&gt;()</text>
</g>
<!-- rec_test_2 rec_test_2::$r0 = new BasicTest&#45;&gt;rec_test_2 specialinvoke rec_test_2::$r0.&lt;BasicTest: void &lt;init&gt;()&gt;() -->
<g id="edge10" class="edge">
<title>rec_test_2 rec_test_2::$r0 = new BasicTest&#45;&gt;rec_test_2 specialinvoke rec_test_2::$r0.&lt;BasicTest: void &lt;init&gt;()&gt;()</title>
<path fill="none" stroke="red" d="M1525.68,-851.65C1518.04,-847.05 1511.22,-841.27 1506,-834 1471.9,-786.54 1468.92,-747.68 1506,-702.5 1510.54,-696.97 1519.12,-692.3 1530.14,-688.35"/>
<polygon fill="red" stroke="red" points="1530.99,-691.75 1539.46,-685.39 1528.87,-685.08 1530.99,-691.75"/>
<text text-anchor="start" x="1506" y="-820.7" font-family="Times,serif" font-size="14.00">[BasicTest.f.in02, BasicTest.REC_TEST_1.in03] =&gt; {rec_test_2::$r0 &#45;&gt; [rec_test_2.new01], </text>
<text text-anchor="start" x="1506" y="-804.2" font-family="Times,serif" font-size="14.00">@parameter0: BasicTest &#45;&gt; [f.new00], </text>
<text text-anchor="start" x="1506" y="-787.7" font-family="Times,serif" font-size="14.00">f::$r0 &#45;&gt; [f.new00], </text>
<text text-anchor="start" x="1506" y="-771.2" font-family="Times,serif" font-size="14.00">REC_TEST_1::$r0 &#45;&gt; [REC_TEST_1.new01], </text>
<text text-anchor="start" x="1506" y="-754.7" font-family="Times,serif" font-size="14.00">REC_TEST_1::r1 &#45;&gt; [f.new00], </text>
<text text-anchor="start" x="1506" y="-738.2" font-family="Times,serif" font-size="14.00">rec_test_2::r1 &#45;&gt; [f.new00], </text>
<text text-anchor="start" x="1506" y="-721.7" font-family="Times,serif" font-size="14.00">}</text>
</g>
<!-- rec_test_2 rec_test_2::$r2 = rec_test_2::r1.&lt;BasicTest: BasicTest f&gt; -->
<g id="node14" class="node">
<title>rec_test_2 rec_test_2::$r2 = rec_test_2::r1.&lt;BasicTest: BasicTest f&gt;</title>
<polygon fill="none" stroke="black" points="1939.38,-497.5 1550.62,-497.5 1550.62,-461.5 1939.38,-461.5 1939.38,-497.5"/>
<text text-anchor="middle" x="1745" y="-474.45" font-family="Times,serif" font-size="14.00">rec_test_2 rec_test_2::$r2 = rec_test_2::r1.&lt;BasicTest: BasicTest f&gt;</text>
</g>
<!-- rec_test_2 specialinvoke rec_test_2::$r0.&lt;BasicTest: void &lt;init&gt;()&gt;()&#45;&gt;rec_test_2 rec_test_2::$r2 = rec_test_2::r1.&lt;BasicTest: BasicTest f&gt; -->
<g id="edge11" class="edge">
<title>rec_test_2 specialinvoke rec_test_2::$r0.&lt;BasicTest: void &lt;init&gt;()&gt;()&#45;&gt;rec_test_2 rec_test_2::$r2 = rec_test_2::r1.&lt;BasicTest: BasicTest f&gt;</title>
<path fill="none" stroke="red" d="M1595.18,-648.12C1587.55,-643.53 1580.75,-637.75 1575.5,-630.5 1545.53,-589.1 1543.22,-555.13 1575.5,-515.5 1580,-509.97 1588.67,-505.29 1599.79,-501.33"/>
<polygon fill="red" stroke="red" points="1600.72,-504.7 1609.2,-498.35 1598.61,-498.03 1600.72,-504.7"/>
<text text-anchor="start" x="1575" y="-575.95" font-family="Times,serif" font-size="14.00">[] =&gt; {}</text>
</g>
<!-- rec_test_2 if rec_test_2::$r2 == null goto staticinvoke &lt;BasicTest: BasicTest rec_test_2(BasicTest)&gt;(rec_test_2::$r0) -->
<g id="node15" class="node">
<title>rec_test_2 if rec_test_2::$r2 == null goto staticinvoke &lt;BasicTest: BasicTest rec_test_2(BasicTest)&gt;(rec_test_2::$r0)</title>
<polygon fill="none" stroke="black" points="2139.88,-327 1484.12,-327 1484.12,-291 2139.88,-291 2139.88,-327"/>
<text text-anchor="middle" x="1812" y="-303.95" font-family="Times,serif" font-size="14.00">rec_test_2 if rec_test_2::$r2 == null goto staticinvoke &lt;BasicTest: BasicTest rec_test_2(BasicTest)&gt;(rec_test_2::$r0)</text>
</g>
<!-- rec_test_2 rec_test_2::$r2 = rec_test_2::r1.&lt;BasicTest: BasicTest f&gt;&#45;&gt;rec_test_2 if rec_test_2::$r2 == null goto staticinvoke &lt;BasicTest: BasicTest rec_test_2(BasicTest)&gt;(rec_test_2::$r0) -->
<g id="edge12" class="edge">
<title>rec_test_2 rec_test_2::$r2 = rec_test_2::r1.&lt;BasicTest: BasicTest f&gt;&#45;&gt;rec_test_2 if rec_test_2::$r2 == null goto staticinvoke &lt;BasicTest: BasicTest rec_test_2(BasicTest)&gt;(rec_test_2::$r0)</title>
<path fill="none" stroke="red" d="M1751.92,-461.1C1763.56,-431.82 1787.17,-372.45 1801.07,-337.48"/>
<polygon fill="red" stroke="red" points="1804.22,-339.04 1804.66,-328.46 1797.71,-336.46 1804.22,-339.04"/>
<text text-anchor="start" x="1797" y="-397.2" font-family="Times,serif" font-size="14.00">[] =&gt; {}</text>
</g>
<!-- rec_test_2 return null -->
<g id="node16" class="node">
<title>rec_test_2 return null</title>
<polygon fill="none" stroke="black" points="1631.12,-156.5 1498.88,-156.5 1498.88,-120.5 1631.12,-120.5 1631.12,-156.5"/>
<text text-anchor="middle" x="1565" y="-133.45" font-family="Times,serif" font-size="14.00">rec_test_2 return null</text>
</g>
<!-- rec_test_2 if rec_test_2::$r2 == null goto staticinvoke &lt;BasicTest: BasicTest rec_test_2(BasicTest)&gt;(rec_test_2::$r0)&#45;&gt;rec_test_2 return null -->
<g id="edge13" class="edge">
<title>rec_test_2 if rec_test_2::$r2 == null goto staticinvoke &lt;BasicTest: BasicTest rec_test_2(BasicTest)&gt;(rec_test_2::$r0)&#45;&gt;rec_test_2 return null</title>
<path fill="none" stroke="red" d="M1786.5,-290.6C1742.01,-260.25 1650.17,-197.6 1599.85,-163.27"/>
<polygon fill="red" stroke="red" points="1601.85,-160.4 1591.61,-157.66 1597.9,-166.18 1601.85,-160.4"/>
<text text-anchor="start" x="1758" y="-226.7" font-family="Times,serif" font-size="14.00">[] =&gt; {}</text>
</g>
<!-- rec_test_2 staticinvoke &lt;BasicTest: BasicTest rec_test_2(BasicTest)&gt;(rec_test_2::$r0) -->
<g id="node17" class="node">
<title>rec_test_2 staticinvoke &lt;BasicTest: BasicTest rec_test_2(BasicTest)&gt;(rec_test_2::$r0)</title>
<polygon fill="none" stroke="black" points="2135.12,-156.5 1648.88,-156.5 1648.88,-120.5 2135.12,-120.5 2135.12,-156.5"/>
<text text-anchor="middle" x="1892" y="-133.45" font-family="Times,serif" font-size="14.00">rec_test_2 staticinvoke &lt;BasicTest: BasicTest rec_test_2(BasicTest)&gt;(rec_test_2::$r0)</text>
</g>
<!-- rec_test_2 if rec_test_2::$r2 == null goto staticinvoke &lt;BasicTest: BasicTest rec_test_2(BasicTest)&gt;(rec_test_2::$r0)&#45;&gt;rec_test_2 staticinvoke &lt;BasicTest: BasicTest rec_test_2(BasicTest)&gt;(rec_test_2::$r0) -->
<g id="edge14" class="edge">
<title>rec_test_2 if rec_test_2::$r2 == null goto staticinvoke &lt;BasicTest: BasicTest rec_test_2(BasicTest)&gt;(rec_test_2::$r0)&#45;&gt;rec_test_2 staticinvoke &lt;BasicTest: BasicTest rec_test_2(BasicTest)&gt;(rec_test_2::$r0)</title>
<path fill="none" stroke="red" d="M1820.26,-290.6C1834.23,-261.19 1862.6,-201.43 1879.17,-166.53"/>
<polygon fill="red" stroke="red" points="1882.13,-168.45 1883.25,-157.92 1875.8,-165.45 1882.13,-168.45"/>
<text text-anchor="start" x="1874" y="-226.7" font-family="Times,serif" font-size="14.00">[] =&gt; {}</text>
</g>
<!-- rec_test_2 return null&#45;&gt;REC_TEST_1 return REC_TEST_1::$r0 -->
<g id="edge20" class="edge">
<title>rec_test_2 return null&#45;&gt;REC_TEST_1 return REC_TEST_1::$r0</title>
<path fill="none" stroke="black" stroke-dasharray="1,5" d="M1498.39,-128.22C1377.01,-111.32 1117.82,-75.22 959.95,-53.24"/>
<polygon fill="black" stroke="black" points="960.65,-49.8 950.26,-51.89 959.68,-56.73 960.65,-49.8"/>
<text text-anchor="middle" x="1386.75" y="-81.2" font-family="Times,serif" font-size="14.00">BasicTest.REC_TEST_1.in03</text>
</g>
<!-- rec_test_2 return rec_test_2::$r0 -->
<g id="node18" class="node">
<title>rec_test_2 return rec_test_2::$r0</title>
<polygon fill="none" stroke="black" points="1676.12,-52 1483.88,-52 1483.88,-16 1676.12,-16 1676.12,-52"/>
<text text-anchor="middle" x="1580" y="-28.95" font-family="Times,serif" font-size="14.00">rec_test_2 return rec_test_2::$r0</text>
</g>
<!-- rec_test_2 return null&#45;&gt;rec_test_2 return rec_test_2::$r0 -->
<g id="edge19" class="edge">
<title>rec_test_2 return null&#45;&gt;rec_test_2 return rec_test_2::$r0</title>
<path fill="none" stroke="red" stroke-dasharray="1,5" d="M1567.54,-120.11C1569.8,-104.72 1573.13,-81.96 1575.78,-63.85"/>
<polygon fill="red" stroke="red" points="1579.24,-64.37 1577.22,-53.97 1572.31,-63.36 1579.24,-64.37"/>
<text text-anchor="middle" x="1644.12" y="-81.2" font-family="Times,serif" font-size="14.00">BasicTest.rec_test_2.in06</text>
</g>
<!-- rec_test_2 staticinvoke &lt;BasicTest: BasicTest rec_test_2(BasicTest)&gt;(rec_test_2::$r0)&#45;&gt;rec_test_2 rec_test_2::r1 := @parameter0: BasicTest -->
<g id="edge21" class="edge">
<title>rec_test_2 staticinvoke &lt;BasicTest: BasicTest rec_test_2(BasicTest)&gt;(rec_test_2::$r0)&#45;&gt;rec_test_2 rec_test_2::r1 := @parameter0: BasicTest</title>
<path fill="none" stroke="black" stroke-dasharray="1,5" d="M1962.81,-156.92C2052.28,-182.93 2189.96,-238.54 2149,-327 2099.78,-433.3 2055.77,-451.59 1948,-497.5 1911.83,-512.91 1798.35,-486.32 1772,-515.5 1737.75,-553.44 1738.72,-591.71 1772,-630.5 1789.13,-650.47 1863.67,-641.4 1889,-648.5 1949.24,-665.38 1984.27,-650.46 2019,-702.5 2097.59,-820.24 2114.43,-916.45 2019,-1021 2003.71,-1037.75 1896.76,-1046.58 1799.76,-1051.18"/>
<polygon fill="black" stroke="black" points="1799.63,-1047.68 1789.8,-1051.63 1799.95,-1054.67 1799.63,-1047.68"/>
<text text-anchor="middle" x="2030" y="-617.2" font-family="Times,serif" font-size="14.00">BasicTest.rec_test_2.in06</text>
<text text-anchor="start" x="1772" y="-600.7" font-family="Times,serif" font-size="14.00">[BasicTest.f.in02, BasicTest.REC_TEST_1.in03] =&gt; {@parameter0: BasicTest &#45;&gt; [f.new00], </text>
<text text-anchor="start" x="1772" y="-584.2" font-family="Times,serif" font-size="14.00">f::$r0 &#45;&gt; [f.new00], </text>
<text text-anchor="start" x="1772" y="-567.7" font-family="Times,serif" font-size="14.00">REC_TEST_1::$r0 &#45;&gt; [REC_TEST_1.new01], </text>
<text text-anchor="start" x="1772" y="-551.2" font-family="Times,serif" font-size="14.00">REC_TEST_1::r1 &#45;&gt; [f.new00], </text>
<text text-anchor="start" x="1772" y="-534.7" font-family="Times,serif" font-size="14.00">}</text>
</g>
<!-- rec_test_2 staticinvoke &lt;BasicTest: BasicTest rec_test_2(BasicTest)&gt;(rec_test_2::$r0)&#45;&gt;rec_test_2 return rec_test_2::$r0 -->
<g id="edge15" class="edge">
<title>rec_test_2 staticinvoke &lt;BasicTest: BasicTest rec_test_2(BasicTest)&gt;(rec_test_2::$r0)&#45;&gt;rec_test_2 return rec_test_2::$r0</title>
<path fill="none" stroke="red" d="M1851.37,-120.12C1816.42,-105.56 1764.45,-84.84 1718,-70 1701.58,-64.76 1683.87,-59.77 1666.79,-55.29"/>
<polygon fill="red" stroke="red" points="1667.7,-51.91 1657.14,-52.81 1665.95,-58.69 1667.7,-51.91"/>
<text text-anchor="start" x="1804" y="-89.2" font-family="Times,serif" font-size="14.00">[] =&gt; {}</text>
</g>
<!-- rec_test_2 return rec_test_2::$r0&#45;&gt;REC_TEST_1 return REC_TEST_1::$r0 -->
<g id="edge23" class="edge">
<title>rec_test_2 return rec_test_2::$r0&#45;&gt;REC_TEST_1 return REC_TEST_1::$r0</title>
<path fill="none" stroke="black" stroke-dasharray="1,5" d="M1483.57,-34C1350.41,-34 1109.8,-34 960.32,-34"/>
<polygon fill="black" stroke="black" points="960.34,-30.5 950.34,-34 960.34,-37.5 960.34,-30.5"/>
<text text-anchor="middle" x="1216.12" y="-40.2" font-family="Times,serif" font-size="14.00">BasicTest.REC_TEST_1.in03</text>
</g>
<!-- rec_test_2 return rec_test_2::$r0&#45;&gt;rec_test_2 return rec_test_2::$r0 -->
<g id="edge22" class="edge">
<title>rec_test_2 return rec_test_2::$r0&#45;&gt;rec_test_2 return rec_test_2::$r0</title>
<path fill="none" stroke="red" stroke-dasharray="1,5" d="M1676.58,-42.24C1687.24,-40.68 1694.12,-37.93 1694.12,-34 1694.12,-31.67 1691.7,-29.75 1687.5,-28.25"/>
<polygon fill="red" stroke="red" points="1688.58,-24.91 1678.06,-26.1 1687.03,-31.73 1688.58,-24.91"/>
<text text-anchor="middle" x="1764.25" y="-28.95" font-family="Times,serif" font-size="14.00">BasicTest.rec_test_2.in06</text>
</g>
</g>
</svg>
