<?xml version="1.0" encoding="UTF-8" standalone="no"?>
<!DOCTYPE svg PUBLIC "-//W3C//DTD SVG 1.1//EN"
 "http://www.w3.org/Graphics/SVG/1.1/DTD/svg11.dtd">
<!-- Generated by graphviz version 9.0.0 (20230911.1827)
 -->
<!-- Title: G Pages: 1 -->
<svg width="1818pt" height="907pt"
 viewBox="0.00 0.00 1818.25 906.50" xmlns="http://www.w3.org/2000/svg" xmlns:xlink="http://www.w3.org/1999/xlink">
<g id="graph0" class="graph" transform="scale(1 1) rotate(0) translate(4 902.5)">
<title>G</title>
<polygon fill="white" stroke="none" points="-4,4 -4,-902.5 1814.25,-902.5 1814.25,4 -4,4"/>
<g id="clust1" class="cluster">
<title>cluster_0</title>
<polygon fill="none" stroke="black" points="8,-321.5 8,-890.5 478,-890.5 478,-321.5 8,-321.5"/>
</g>
<g id="clust2" class="cluster">
<title>cluster_1</title>
<polygon fill="none" stroke="black" points="486,-8 486,-494.5 1028,-494.5 1028,-8 486,-8"/>
</g>
<g id="clust3" class="cluster">
<title>cluster_2</title>
<polygon fill="none" stroke="black" points="1036,-8 1036,-769.5 1728,-769.5 1728,-8 1036,-8"/>
</g>
<!-- f f::$r0 = new BasicTest -->
<g id="node1" class="node">
<title>f f::$r0 = new BasicTest</title>
<polygon fill="none" stroke="black" points="317.75,-882.5 168.25,-882.5 168.25,-846.5 317.75,-846.5 317.75,-882.5"/>
<text text-anchor="middle" x="243" y="-859.45" font-family="Times,serif" font-size="14.00">f f::$r0 = new BasicTest</text>
</g>
<!-- f specialinvoke f::$r0.&lt;BasicTest: void &lt;init&gt;()&gt;() -->
<g id="node2" class="node">
<title>f specialinvoke f::$r0.&lt;BasicTest: void &lt;init&gt;()&gt;()</title>
<polygon fill="none" stroke="black" points="389.75,-761.5 96.25,-761.5 96.25,-725.5 389.75,-725.5 389.75,-761.5"/>
<text text-anchor="middle" x="243" y="-738.45" font-family="Times,serif" font-size="14.00">f specialinvoke f::$r0.&lt;BasicTest: void &lt;init&gt;()&gt;()</text>
</g>
<!-- f f::$r0 = new BasicTest&#45;&gt;f specialinvoke f::$r0.&lt;BasicTest: void &lt;init&gt;()&gt;() -->
<g id="edge1" class="edge">
<title>f f::$r0 = new BasicTest&#45;&gt;f specialinvoke f::$r0.&lt;BasicTest: void &lt;init&gt;()&gt;()</title>
<path fill="none" stroke="black" d="M243,-846.2C243,-827.07 243,-795.96 243,-773.18"/>
<polygon fill="black" stroke="black" points="246.5,-773.34 243,-763.34 239.5,-773.34 246.5,-773.34"/>
<text text-anchor="start" x="243" y="-815.2" font-family="Times,serif" font-size="14.00">[] =&gt; {f::$r0 &#45;&gt; [f.new00], </text>
<text text-anchor="start" x="243" y="-798.7" font-family="Times,serif" font-size="14.00">}</text>
</g>
<!-- f f::$r1 = staticinvoke &lt;BasicTest: BasicTest REC_TEST_1(BasicTest)&gt;(f::$r0) -->
<g id="node3" class="node">
<title>f f::$r1 = staticinvoke &lt;BasicTest: BasicTest REC_TEST_1(BasicTest)&gt;(f::$r0)</title>
<polygon fill="none" stroke="black" points="469.62,-640.5 16.38,-640.5 16.38,-604.5 469.62,-604.5 469.62,-640.5"/>
<text text-anchor="middle" x="243" y="-617.45" font-family="Times,serif" font-size="14.00">f f::$r1 = staticinvoke &lt;BasicTest: BasicTest REC_TEST_1(BasicTest)&gt;(f::$r0)</text>
</g>
<!-- f specialinvoke f::$r0.&lt;BasicTest: void &lt;init&gt;()&gt;()&#45;&gt;f f::$r1 = staticinvoke &lt;BasicTest: BasicTest REC_TEST_1(BasicTest)&gt;(f::$r0) -->
<g id="edge2" class="edge">
<title>f specialinvoke f::$r0.&lt;BasicTest: void &lt;init&gt;()&gt;()&#45;&gt;f f::$r1 = staticinvoke &lt;BasicTest: BasicTest REC_TEST_1(BasicTest)&gt;(f::$r0)</title>
<path fill="none" stroke="black" d="M243,-725.2C243,-706.07 243,-674.96 243,-652.18"/>
<polygon fill="black" stroke="black" points="246.5,-652.34 243,-642.34 239.5,-652.34 246.5,-652.34"/>
<text text-anchor="start" x="243" y="-694.2" font-family="Times,serif" font-size="14.00">[] =&gt; {f::$r0 &#45;&gt; [f.new00], </text>
<text text-anchor="start" x="243" y="-677.7" font-family="Times,serif" font-size="14.00">}</text>
</g>
<!-- f f::$r1.&lt;BasicTest: BasicTest f&gt; = null -->
<g id="node4" class="node">
<title>f f::$r1.&lt;BasicTest: BasicTest f&gt; = null</title>
<polygon fill="none" stroke="black" points="441.75,-486.5 208.25,-486.5 208.25,-450.5 441.75,-450.5 441.75,-486.5"/>
<text text-anchor="middle" x="325" y="-463.45" font-family="Times,serif" font-size="14.00">f f::$r1.&lt;BasicTest: BasicTest f&gt; = null</text>
</g>
<!-- f f::$r1 = staticinvoke &lt;BasicTest: BasicTest REC_TEST_1(BasicTest)&gt;(f::$r0)&#45;&gt;f f::$r1.&lt;BasicTest: BasicTest f&gt; = null -->
<g id="edge3" class="edge">
<title>f f::$r1 = staticinvoke &lt;BasicTest: BasicTest REC_TEST_1(BasicTest)&gt;(f::$r0)&#45;&gt;f f::$r1.&lt;BasicTest: BasicTest f&gt; = null</title>
<path fill="none" stroke="black" d="M252.41,-604.06C266.62,-577.72 293.68,-527.56 310.44,-496.48"/>
<polygon fill="black" stroke="black" points="313.32,-498.53 314.98,-488.07 307.16,-495.2 313.32,-498.53"/>
<text text-anchor="start" x="306" y="-548.45" font-family="Times,serif" font-size="14.00">[] =&gt; {}</text>
</g>
<!-- REC_TEST_1 REC_TEST_1::r1 := @parameter0: BasicTest -->
<g id="node6" class="node">
<title>REC_TEST_1 REC_TEST_1::r1 := @parameter0: BasicTest</title>
<polygon fill="none" stroke="black" points="853.25,-486.5 502.75,-486.5 502.75,-450.5 853.25,-450.5 853.25,-486.5"/>
<text text-anchor="middle" x="678" y="-463.45" font-family="Times,serif" font-size="14.00">REC_TEST_1 REC_TEST_1::r1 := @parameter0: BasicTest</text>
</g>
<!-- f f::$r1 = staticinvoke &lt;BasicTest: BasicTest REC_TEST_1(BasicTest)&gt;(f::$r0)&#45;&gt;REC_TEST_1 REC_TEST_1::r1 := @parameter0: BasicTest -->
<g id="edge16" class="edge">
<title>f f::$r1 = staticinvoke &lt;BasicTest: BasicTest REC_TEST_1(BasicTest)&gt;(f::$r0)&#45;&gt;REC_TEST_1 REC_TEST_1::r1 := @parameter0: BasicTest</title>
<path fill="none" stroke="red" stroke-dasharray="1,5" d="M301.24,-604.05C318.89,-598.6 338.29,-592.46 356,-586.5 449.66,-555 557.37,-515.11 621.45,-490.98"/>
<polygon fill="red" stroke="red" points="622.58,-494.3 630.7,-487.49 620.11,-487.75 622.58,-494.3"/>
<text text-anchor="middle" x="751.5" y="-573.2" font-family="Times,serif" font-size="14.00">BasicTest.f.in02</text>
<text text-anchor="start" x="579" y="-556.7" font-family="Times,serif" font-size="14.00">[BasicTest.f.in02] =&gt; {@parameter0: BasicTest &#45;&gt; [f.new00], </text>
<text text-anchor="start" x="579" y="-540.2" font-family="Times,serif" font-size="14.00">f::$r0 &#45;&gt; [f.new00], </text>
<text text-anchor="start" x="579" y="-523.7" font-family="Times,serif" font-size="14.00">}</text>
</g>
<!-- f return -->
<g id="node5" class="node">
<title>f return</title>
<polygon fill="none" stroke="black" points="409.25,-365.5 352.75,-365.5 352.75,-329.5 409.25,-329.5 409.25,-365.5"/>
<text text-anchor="middle" x="381" y="-342.45" font-family="Times,serif" font-size="14.00">f return</text>
</g>
<!-- f f::$r1.&lt;BasicTest: BasicTest f&gt; = null&#45;&gt;f return -->
<g id="edge4" class="edge">
<title>f f::$r1.&lt;BasicTest: BasicTest f&gt; = null&#45;&gt;f return</title>
<path fill="none" stroke="black" d="M333.14,-450.2C342.31,-430.72 357.32,-398.81 368.09,-375.93"/>
<polygon fill="black" stroke="black" points="371.11,-377.73 372.2,-367.19 364.78,-374.75 371.11,-377.73"/>
</g>
<!-- REC_TEST_1 REC_TEST_1::$r0 = new BasicTest -->
<g id="node7" class="node">
<title>REC_TEST_1 REC_TEST_1::$r0 = new BasicTest</title>
<polygon fill="none" stroke="black" points="846,-365.5 548,-365.5 548,-329.5 846,-329.5 846,-365.5"/>
<text text-anchor="middle" x="697" y="-342.45" font-family="Times,serif" font-size="14.00">REC_TEST_1 REC_TEST_1::$r0 = new BasicTest</text>
</g>
<!-- REC_TEST_1 REC_TEST_1::r1 := @parameter0: BasicTest&#45;&gt;REC_TEST_1 REC_TEST_1::$r0 = new BasicTest -->
<g id="edge5" class="edge">
<title>REC_TEST_1 REC_TEST_1::r1 := @parameter0: BasicTest&#45;&gt;REC_TEST_1 REC_TEST_1::$r0 = new BasicTest</title>
<path fill="none" stroke="red" d="M680.76,-450.2C683.82,-431.07 688.78,-399.96 692.42,-377.18"/>
<polygon fill="red" stroke="red" points="695.87,-377.75 694,-367.32 688.96,-376.64 695.87,-377.75"/>
<text text-anchor="start" x="691" y="-410.95" font-family="Times,serif" font-size="14.00">[] =&gt; {}</text>
</g>
<!-- REC_TEST_1 specialinvoke REC_TEST_1::$r0.&lt;BasicTest: void &lt;init&gt;()&gt;() -->
<g id="node8" class="node">
<title>REC_TEST_1 specialinvoke REC_TEST_1::$r0.&lt;BasicTest: void &lt;init&gt;()&gt;()</title>
<polygon fill="none" stroke="black" points="957,-261 515,-261 515,-225 957,-225 957,-261"/>
<text text-anchor="middle" x="736" y="-237.95" font-family="Times,serif" font-size="14.00">REC_TEST_1 specialinvoke REC_TEST_1::$r0.&lt;BasicTest: void &lt;init&gt;()&gt;()</text>
</g>
<!-- REC_TEST_1 REC_TEST_1::$r0 = new BasicTest&#45;&gt;REC_TEST_1 specialinvoke REC_TEST_1::$r0.&lt;BasicTest: void &lt;init&gt;()&gt;() -->
<g id="edge6" class="edge">
<title>REC_TEST_1 REC_TEST_1::$r0 = new BasicTest&#45;&gt;REC_TEST_1 specialinvoke REC_TEST_1::$r0.&lt;BasicTest: void &lt;init&gt;()&gt;()</title>
<path fill="none" stroke="red" d="M703.62,-329.11C709.55,-313.5 718.38,-290.31 725.32,-272.07"/>
<polygon fill="red" stroke="red" points="728.53,-273.48 728.81,-262.89 721.99,-270.99 728.53,-273.48"/>
<text text-anchor="start" x="722" y="-298.2" font-family="Times,serif" font-size="14.00">[] =&gt; {}</text>
</g>
<!-- REC_TEST_1 staticinvoke &lt;BasicTest: BasicTest rec_test_2(BasicTest)&gt;(REC_TEST_1::r1) -->
<g id="node9" class="node">
<title>REC_TEST_1 staticinvoke &lt;BasicTest: BasicTest rec_test_2(BasicTest)&gt;(REC_TEST_1::r1)</title>
<polygon fill="none" stroke="black" points="1020,-156.5 494,-156.5 494,-120.5 1020,-120.5 1020,-156.5"/>
<text text-anchor="middle" x="757" y="-133.45" font-family="Times,serif" font-size="14.00">REC_TEST_1 staticinvoke &lt;BasicTest: BasicTest rec_test_2(BasicTest)&gt;(REC_TEST_1::r1)</text>
</g>
<!-- REC_TEST_1 specialinvoke REC_TEST_1::$r0.&lt;BasicTest: void &lt;init&gt;()&gt;()&#45;&gt;REC_TEST_1 staticinvoke &lt;BasicTest: BasicTest rec_test_2(BasicTest)&gt;(REC_TEST_1::r1) -->
<g id="edge7" class="edge">
<title>REC_TEST_1 specialinvoke REC_TEST_1::$r0.&lt;BasicTest: void &lt;init&gt;()&gt;()&#45;&gt;REC_TEST_1 staticinvoke &lt;BasicTest: BasicTest rec_test_2(BasicTest)&gt;(REC_TEST_1::r1)</title>
<path fill="none" stroke="red" d="M739.56,-224.61C742.73,-209.15 747.42,-186.25 751.14,-168.09"/>
<polygon fill="red" stroke="red" points="754.54,-168.95 753.12,-158.46 747.68,-167.55 754.54,-168.95"/>
<text text-anchor="start" x="749" y="-193.7" font-family="Times,serif" font-size="14.00">[] =&gt; {}</text>
</g>
<!-- REC_TEST_1 return REC_TEST_1::$r0 -->
<g id="node10" class="node">
<title>REC_TEST_1 return REC_TEST_1::$r0</title>
<polygon fill="none" stroke="black" points="876.38,-52 637.62,-52 637.62,-16 876.38,-16 876.38,-52"/>
<text text-anchor="middle" x="757" y="-28.95" font-family="Times,serif" font-size="14.00">REC_TEST_1 return REC_TEST_1::$r0</text>
</g>
<!-- REC_TEST_1 staticinvoke &lt;BasicTest: BasicTest rec_test_2(BasicTest)&gt;(REC_TEST_1::r1)&#45;&gt;REC_TEST_1 return REC_TEST_1::$r0 -->
<g id="edge8" class="edge">
<title>REC_TEST_1 staticinvoke &lt;BasicTest: BasicTest rec_test_2(BasicTest)&gt;(REC_TEST_1::r1)&#45;&gt;REC_TEST_1 return REC_TEST_1::$r0</title>
<path fill="none" stroke="red" d="M757,-120.11C757,-104.72 757,-81.96 757,-63.85"/>
<polygon fill="red" stroke="red" points="760.5,-63.99 757,-53.99 753.5,-63.99 760.5,-63.99"/>
<text text-anchor="start" x="757" y="-89.2" font-family="Times,serif" font-size="14.00">[] =&gt; {}</text>
</g>
<!-- rec_test_2 rec_test_2::r1 := @parameter0: BasicTest -->
<g id="node11" class="node">
<title>rec_test_2 rec_test_2::r1 := @parameter0: BasicTest</title>
<polygon fill="none" stroke="black" points="1515,-761.5 1211,-761.5 1211,-725.5 1515,-725.5 1515,-761.5"/>
<text text-anchor="middle" x="1363" y="-738.45" font-family="Times,serif" font-size="14.00">rec_test_2 rec_test_2::r1 := @parameter0: BasicTest</text>
</g>
<!-- REC_TEST_1 staticinvoke &lt;BasicTest: BasicTest rec_test_2(BasicTest)&gt;(REC_TEST_1::r1)&#45;&gt;rec_test_2 rec_test_2::r1 := @parameter0: BasicTest -->
<g id="edge17" class="edge">
<title>REC_TEST_1 staticinvoke &lt;BasicTest: BasicTest rec_test_2(BasicTest)&gt;(REC_TEST_1::r1)&#45;&gt;rec_test_2 rec_test_2::r1 := @parameter0: BasicTest</title>
<path fill="none" stroke="red" stroke-dasharray="1,5" d="M919.76,-156.94C964.03,-171.33 1000,-196.9 1000,-242 1000,-623.5 1000,-623.5 1000,-623.5 1000,-672.61 1121.49,-704.73 1223.91,-723.07"/>
<polygon fill="red" stroke="red" points="1223.07,-726.48 1233.53,-724.76 1224.28,-719.59 1223.07,-726.48"/>
<text text-anchor="middle" x="1081.75" y="-419.2" font-family="Times,serif" font-size="14.00">BasicTest.REC_TEST_1.in03</text>
<text text-anchor="start" x="1000" y="-402.7" font-family="Times,serif" font-size="14.00">[] =&gt; {}</text>
</g>
<!-- REC_TEST_1 return REC_TEST_1::$r0&#45;&gt;f f::$r1.&lt;BasicTest: BasicTest f&gt; = null -->
<g id="edge18" class="edge">
<title>REC_TEST_1 return REC_TEST_1::$r0&#45;&gt;f f::$r1.&lt;BasicTest: BasicTest f&gt; = null</title>
<path fill="none" stroke="black" stroke-dasharray="1,5" d="M637.24,-40.17C509.39,-49.06 325,-73.04 325,-137.5 325,-348.5 325,-348.5 325,-348.5 325,-379.29 325,-414.56 325,-438.66"/>
<polygon fill="black" stroke="black" points="321.5,-438.64 325,-448.64 328.5,-438.64 321.5,-438.64"/>
<text text-anchor="middle" x="369.62" y="-237.95" font-family="Times,serif" font-size="14.00">BasicTest.f.in02</text>
</g>
<!-- rec_test_2 rec_test_2::$r0 = new BasicTest -->
<g id="node12" class="node">
<title>rec_test_2 rec_test_2::$r0 = new BasicTest</title>
<polygon fill="none" stroke="black" points="1488.75,-640.5 1237.25,-640.5 1237.25,-604.5 1488.75,-604.5 1488.75,-640.5"/>
<text text-anchor="middle" x="1363" y="-617.45" font-family="Times,serif" font-size="14.00">rec_test_2 rec_test_2::$r0 = new BasicTest</text>
</g>
<!-- rec_test_2 rec_test_2::r1 := @parameter0: BasicTest&#45;&gt;rec_test_2 rec_test_2::$r0 = new BasicTest -->
<g id="edge9" class="edge">
<title>rec_test_2 rec_test_2::r1 := @parameter0: BasicTest&#45;&gt;rec_test_2 rec_test_2::$r0 = new BasicTest</title>
<path fill="none" stroke="red" d="M1363,-725.2C1363,-706.07 1363,-674.96 1363,-652.18"/>
<polygon fill="red" stroke="red" points="1366.5,-652.34 1363,-642.34 1359.5,-652.34 1366.5,-652.34"/>
<text text-anchor="start" x="1363" y="-685.95" font-family="Times,serif" font-size="14.00">[] =&gt; {}</text>
</g>
<!-- rec_test_2 specialinvoke rec_test_2::$r0.&lt;BasicTest: void &lt;init&gt;()&gt;() -->
<g id="node13" class="node">
<title>rec_test_2 specialinvoke rec_test_2::$r0.&lt;BasicTest: void &lt;init&gt;()&gt;()</title>
<polygon fill="none" stroke="black" points="1560.75,-486.5 1165.25,-486.5 1165.25,-450.5 1560.75,-450.5 1560.75,-486.5"/>
<text text-anchor="middle" x="1363" y="-463.45" font-family="Times,serif" font-size="14.00">rec_test_2 specialinvoke rec_test_2::$r0.&lt;BasicTest: void &lt;init&gt;()&gt;()</text>
</g>
<!-- rec_test_2 rec_test_2::$r0 = new BasicTest&#45;&gt;rec_test_2 specialinvoke rec_test_2::$r0.&lt;BasicTest: void &lt;init&gt;()&gt;() -->
<g id="edge10" class="edge">
<title>rec_test_2 rec_test_2::$r0 = new BasicTest&#45;&gt;rec_test_2 specialinvoke rec_test_2::$r0.&lt;BasicTest: void &lt;init&gt;()&gt;()</title>
<path fill="none" stroke="red" d="M1363,-604.06C1363,-578.18 1363,-529.3 1363,-498.12"/>
<polygon fill="red" stroke="red" points="1366.5,-498.25 1363,-488.25 1359.5,-498.25 1366.5,-498.25"/>
<text text-anchor="start" x="1363" y="-548.45" font-family="Times,serif" font-size="14.00">[] =&gt; {}</text>
</g>
<!-- rec_test_2 rec_test_2::$r2 = rec_test_2::r1.&lt;BasicTest: BasicTest f&gt; -->
<g id="node14" class="node">
<title>rec_test_2 rec_test_2::$r2 = rec_test_2::r1.&lt;BasicTest: BasicTest f&gt;</title>
<polygon fill="none" stroke="black" points="1560.38,-365.5 1171.62,-365.5 1171.62,-329.5 1560.38,-329.5 1560.38,-365.5"/>
<text text-anchor="middle" x="1366" y="-342.45" font-family="Times,serif" font-size="14.00">rec_test_2 rec_test_2::$r2 = rec_test_2::r1.&lt;BasicTest: BasicTest f&gt;</text>
</g>
<!-- rec_test_2 specialinvoke rec_test_2::$r0.&lt;BasicTest: void &lt;init&gt;()&gt;()&#45;&gt;rec_test_2 rec_test_2::$r2 = rec_test_2::r1.&lt;BasicTest: BasicTest f&gt; -->
<g id="edge11" class="edge">
<title>rec_test_2 specialinvoke rec_test_2::$r0.&lt;BasicTest: void &lt;init&gt;()&gt;()&#45;&gt;rec_test_2 rec_test_2::$r2 = rec_test_2::r1.&lt;BasicTest: BasicTest f&gt;</title>
<path fill="none" stroke="red" d="M1363.44,-450.2C1363.92,-431.07 1364.7,-399.96 1365.28,-377.18"/>
<polygon fill="red" stroke="red" points="1368.77,-377.42 1365.53,-367.34 1361.77,-377.25 1368.77,-377.42"/>
<text text-anchor="start" x="1365" y="-410.95" font-family="Times,serif" font-size="14.00">[] =&gt; {}</text>
</g>
<!-- rec_test_2 if rec_test_2::$r2 == null goto staticinvoke &lt;BasicTest: BasicTest rec_test_2(BasicTest)&gt;(rec_test_2::$r0) -->
<g id="node15" class="node">
<title>rec_test_2 if rec_test_2::$r2 == null goto staticinvoke &lt;BasicTest: BasicTest rec_test_2(BasicTest)&gt;(rec_test_2::$r0)</title>
<polygon fill="none" stroke="black" points="1699.88,-261 1044.12,-261 1044.12,-225 1699.88,-225 1699.88,-261"/>
<text text-anchor="middle" x="1372" y="-237.95" font-family="Times,serif" font-size="14.00">rec_test_2 if rec_test_2::$r2 == null goto staticinvoke &lt;BasicTest: BasicTest rec_test_2(BasicTest)&gt;(rec_test_2::$r0)</text>
</g>
<!-- rec_test_2 rec_test_2::$r2 = rec_test_2::r1.&lt;BasicTest: BasicTest f&gt;&#45;&gt;rec_test_2 if rec_test_2::$r2 == null goto staticinvoke &lt;BasicTest: BasicTest rec_test_2(BasicTest)&gt;(rec_test_2::$r0) -->
<g id="edge12" class="edge">
<title>rec_test_2 rec_test_2::$r2 = rec_test_2::r1.&lt;BasicTest: BasicTest f&gt;&#45;&gt;rec_test_2 if rec_test_2::$r2 == null goto staticinvoke &lt;BasicTest: BasicTest rec_test_2(BasicTest)&gt;(rec_test_2::$r0)</title>
<path fill="none" stroke="red" d="M1367.02,-329.11C1367.92,-313.72 1369.25,-290.96 1370.31,-272.85"/>
<polygon fill="red" stroke="red" points="1373.8,-273.17 1370.89,-262.98 1366.81,-272.76 1373.8,-273.17"/>
<text text-anchor="start" x="1369" y="-298.2" font-family="Times,serif" font-size="14.00">[] =&gt; {}</text>
</g>
<!-- rec_test_2 return null -->
<g id="node16" class="node">
<title>rec_test_2 return null</title>
<polygon fill="none" stroke="black" points="1196.12,-156.5 1063.88,-156.5 1063.88,-120.5 1196.12,-120.5 1196.12,-156.5"/>
<text text-anchor="middle" x="1130" y="-133.45" font-family="Times,serif" font-size="14.00">rec_test_2 return null</text>
</g>
<!-- rec_test_2 if rec_test_2::$r2 == null goto staticinvoke &lt;BasicTest: BasicTest rec_test_2(BasicTest)&gt;(rec_test_2::$r0)&#45;&gt;rec_test_2 return null -->
<g id="edge13" class="edge">
<title>rec_test_2 if rec_test_2::$r2 == null goto staticinvoke &lt;BasicTest: BasicTest rec_test_2(BasicTest)&gt;(rec_test_2::$r0)&#45;&gt;rec_test_2 return null</title>
<path fill="none" stroke="red" d="M1330.95,-224.61C1289.75,-207.16 1226.17,-180.23 1181.59,-161.35"/>
<polygon fill="red" stroke="red" points="1183.22,-158.24 1172.65,-157.56 1180.49,-164.69 1183.22,-158.24"/>
<text text-anchor="start" x="1286" y="-193.7" font-family="Times,serif" font-size="14.00">[] =&gt; {}</text>
</g>
<!-- rec_test_2 staticinvoke &lt;BasicTest: BasicTest rec_test_2(BasicTest)&gt;(rec_test_2::$r0) -->
<g id="node17" class="node">
<title>rec_test_2 staticinvoke &lt;BasicTest: BasicTest rec_test_2(BasicTest)&gt;(rec_test_2::$r0)</title>
<polygon fill="none" stroke="black" points="1700.12,-156.5 1213.88,-156.5 1213.88,-120.5 1700.12,-120.5 1700.12,-156.5"/>
<text text-anchor="middle" x="1457" y="-133.45" font-family="Times,serif" font-size="14.00">rec_test_2 staticinvoke &lt;BasicTest: BasicTest rec_test_2(BasicTest)&gt;(rec_test_2::$r0)</text>
</g>
<!-- rec_test_2 if rec_test_2::$r2 == null goto staticinvoke &lt;BasicTest: BasicTest rec_test_2(BasicTest)&gt;(rec_test_2::$r0)&#45;&gt;rec_test_2 staticinvoke &lt;BasicTest: BasicTest rec_test_2(BasicTest)&gt;(rec_test_2::$r0) -->
<g id="edge14" class="edge">
<title>rec_test_2 if rec_test_2::$r2 == null goto staticinvoke &lt;BasicTest: BasicTest rec_test_2(BasicTest)&gt;(rec_test_2::$r0)&#45;&gt;rec_test_2 staticinvoke &lt;BasicTest: BasicTest rec_test_2(BasicTest)&gt;(rec_test_2::$r0)</title>
<path fill="none" stroke="red" d="M1386.42,-224.61C1399.79,-208.49 1419.87,-184.27 1435.2,-165.78"/>
<polygon fill="red" stroke="red" points="1437.85,-168.07 1441.54,-158.14 1432.47,-163.6 1437.85,-168.07"/>
<text text-anchor="start" x="1427" y="-193.7" font-family="Times,serif" font-size="14.00">[] =&gt; {}</text>
</g>
<!-- rec_test_2 return null&#45;&gt;REC_TEST_1 return REC_TEST_1::$r0 -->
<g id="edge20" class="edge">
<title>rec_test_2 return null&#45;&gt;REC_TEST_1 return REC_TEST_1::$r0</title>
<path fill="none" stroke="red" stroke-dasharray="1,5" d="M1063.72,-124.35C1034.93,-118.28 1000.9,-110.62 970.5,-102.5 918.68,-88.65 860.69,-70.12 818.24,-55.98"/>
<polygon fill="red" stroke="red" points="819.55,-52.73 808.96,-52.87 817.33,-59.37 819.55,-52.73"/>
<text text-anchor="middle" x="1051.75" y="-81.2" font-family="Times,serif" font-size="14.00">BasicTest.REC_TEST_1.in03</text>
</g>
<!-- rec_test_2 return rec_test_2::$r0 -->
<g id="node18" class="node">
<title>rec_test_2 return rec_test_2::$r0</title>
<polygon fill="none" stroke="black" points="1250.12,-52 1057.88,-52 1057.88,-16 1250.12,-16 1250.12,-52"/>
<text text-anchor="middle" x="1154" y="-28.95" font-family="Times,serif" font-size="14.00">rec_test_2 return rec_test_2::$r0</text>
</g>
<!-- rec_test_2 return null&#45;&gt;rec_test_2 return rec_test_2::$r0 -->
<g id="edge19" class="edge">
<title>rec_test_2 return null&#45;&gt;rec_test_2 return rec_test_2::$r0</title>
<path fill="none" stroke="red" stroke-dasharray="1,5" d="M1134.07,-120.11C1137.69,-104.65 1143.05,-81.75 1147.31,-63.59"/>
<polygon fill="red" stroke="red" points="1150.69,-64.48 1149.56,-53.95 1143.88,-62.89 1150.69,-64.48"/>
<text text-anchor="middle" x="1215.12" y="-81.2" font-family="Times,serif" font-size="14.00">BasicTest.rec_test_2.in06</text>
</g>
<!-- rec_test_2 staticinvoke &lt;BasicTest: BasicTest rec_test_2(BasicTest)&gt;(rec_test_2::$r0)&#45;&gt;rec_test_2 rec_test_2::r1 := @parameter0: BasicTest -->
<g id="edge21" class="edge">
<title>rec_test_2 staticinvoke &lt;BasicTest: BasicTest rec_test_2(BasicTest)&gt;(rec_test_2::$r0)&#45;&gt;rec_test_2 rec_test_2::r1 := @parameter0: BasicTest</title>
<path fill="none" stroke="red" stroke-dasharray="1,5" d="M1603.28,-156.97C1644.09,-169.36 1684.04,-190.17 1709,-225 1718.32,-238 1713.02,-245.51 1709,-261 1660.56,-447.81 1622.69,-493.21 1498,-640.5 1470.89,-672.53 1432,-700.57 1402.92,-719.11"/>
<polygon fill="red" stroke="red" points="1401.37,-715.95 1394.74,-724.22 1405.08,-721.88 1401.37,-715.95"/>
<text text-anchor="middle" x="1740.12" y="-419.2" font-family="Times,serif" font-size="14.00">BasicTest.rec_test_2.in06</text>
<text text-anchor="start" x="1670" y="-402.7" font-family="Times,serif" font-size="14.00">[] =&gt; {}</text>
</g>
<!-- rec_test_2 staticinvoke &lt;BasicTest: BasicTest rec_test_2(BasicTest)&gt;(rec_test_2::$r0)&#45;&gt;rec_test_2 return rec_test_2::$r0 -->
<g id="edge15" class="edge">
<title>rec_test_2 staticinvoke &lt;BasicTest: BasicTest rec_test_2(BasicTest)&gt;(rec_test_2::$r0)&#45;&gt;rec_test_2 return rec_test_2::$r0</title>
<path fill="none" stroke="red" d="M1417.82,-120.09C1384.1,-105.52 1333.94,-84.78 1289,-70 1273.06,-64.75 1255.85,-59.78 1239.23,-55.32"/>
<polygon fill="red" stroke="red" points="1240.44,-52.02 1229.88,-52.85 1238.66,-58.79 1240.44,-52.02"/>
<text text-anchor="start" x="1372" y="-89.2" font-family="Times,serif" font-size="14.00">[] =&gt; {}</text>
</g>
<!-- rec_test_2 return rec_test_2::$r0&#45;&gt;REC_TEST_1 return REC_TEST_1::$r0 -->
<g id="edge23" class="edge">
<title>rec_test_2 return rec_test_2::$r0&#45;&gt;REC_TEST_1 return REC_TEST_1::$r0</title>
<path fill="none" stroke="red" stroke-dasharray="1,5" d="M1057.55,-34C1006.59,-34 943.31,-34 887.97,-34"/>
<polygon fill="red" stroke="red" points="888.17,-30.5 878.17,-34 888.16,-37.5 888.17,-30.5"/>
<text text-anchor="middle" x="967.12" y="-40.2" font-family="Times,serif" font-size="14.00">BasicTest.REC_TEST_1.in03</text>
</g>
<!-- rec_test_2 return rec_test_2::$r0&#45;&gt;rec_test_2 return rec_test_2::$r0 -->
<g id="edge22" class="edge">
<title>rec_test_2 return rec_test_2::$r0&#45;&gt;rec_test_2 return rec_test_2::$r0</title>
<path fill="none" stroke="red" stroke-dasharray="1,5" d="M1250.58,-42.24C1261.24,-40.68 1268.12,-37.93 1268.12,-34 1268.12,-31.67 1265.7,-29.75 1261.5,-28.25"/>
<polygon fill="red" stroke="red" points="1262.58,-24.91 1252.06,-26.1 1261.03,-31.73 1262.58,-24.91"/>
<text text-anchor="middle" x="1338.25" y="-28.95" font-family="Times,serif" font-size="14.00">BasicTest.rec_test_2.in06</text>
</g>
</g>
</svg>
