<?xml version="1.0" encoding="UTF-8" standalone="no"?>
<!DOCTYPE svg PUBLIC "-//W3C//DTD SVG 1.1//EN"
 "http://www.w3.org/Graphics/SVG/1.1/DTD/svg11.dtd">
<!-- Generated by graphviz version 9.0.0 (20230911.1827)
 -->
<!-- Title: G Pages: 1 -->
<svg width="1014pt" height="2392pt"
 viewBox="0.00 0.00 1014.00 2391.50" xmlns="http://www.w3.org/2000/svg" xmlns:xlink="http://www.w3.org/1999/xlink">
<g id="graph0" class="graph" transform="scale(1 1) rotate(0) translate(4 2387.5)">
<title>G</title>
<polygon fill="white" stroke="none" points="-4,4 -4,-2387.5 1010,-2387.5 1010,4 -4,4"/>
<g id="clust1" class="cluster">
<title>cluster_0</title>
<polygon fill="none" stroke="black" points="8,-1091.5 8,-2375.5 478,-2375.5 478,-1091.5 8,-1091.5"/>
</g>
<g id="clust2" class="cluster">
<title>cluster_1</title>
<polygon fill="none" stroke="black" points="486,-8 486,-1143.5 889,-1143.5 889,-8 486,-8"/>
</g>
<!-- test1 test1::$r0 = new PubTest -->
<g id="node1" class="node">
<title>test1 test1::$r0 = new PubTest</title>
<polygon fill="none" stroke="black" points="334.25,-2367.5 151.75,-2367.5 151.75,-2331.5 334.25,-2331.5 334.25,-2367.5"/>
<text text-anchor="middle" x="243" y="-2344.45" font-family="Times,serif" font-size="14.00">test1 test1::$r0 = new PubTest</text>
</g>
<!-- test1 specialinvoke test1::$r0.&lt;PubTest: void &lt;init&gt;()&gt;() -->
<g id="node2" class="node">
<title>test1 specialinvoke test1::$r0.&lt;PubTest: void &lt;init&gt;()&gt;()</title>
<polygon fill="none" stroke="black" points="406.25,-2246.5 79.75,-2246.5 79.75,-2210.5 406.25,-2210.5 406.25,-2246.5"/>
<text text-anchor="middle" x="243" y="-2223.45" font-family="Times,serif" font-size="14.00">test1 specialinvoke test1::$r0.&lt;PubTest: void &lt;init&gt;()&gt;()</text>
</g>
<!-- test1 test1::$r0 = new PubTest&#45;&gt;test1 specialinvoke test1::$r0.&lt;PubTest: void &lt;init&gt;()&gt;() -->
<g id="edge1" class="edge">
<title>test1 test1::$r0 = new PubTest&#45;&gt;test1 specialinvoke test1::$r0.&lt;PubTest: void &lt;init&gt;()&gt;()</title>
<path fill="none" stroke="black" d="M243,-2331.2C243,-2312.07 243,-2280.96 243,-2258.18"/>
<polygon fill="black" stroke="black" points="246.5,-2258.34 243,-2248.34 239.5,-2258.34 246.5,-2258.34"/>
<text text-anchor="start" x="243" y="-2300.2" font-family="Times,serif" font-size="14.00">[] =&gt; {test1::$r0 &#45;&gt; [test1.new00], </text>
<text text-anchor="start" x="243" y="-2283.7" font-family="Times,serif" font-size="14.00">}</text>
</g>
<!-- test1 test1::$r1 = new PubTest -->
<g id="node3" class="node">
<title>test1 test1::$r1 = new PubTest</title>
<polygon fill="none" stroke="black" points="334.25,-2125.5 151.75,-2125.5 151.75,-2089.5 334.25,-2089.5 334.25,-2125.5"/>
<text text-anchor="middle" x="243" y="-2102.45" font-family="Times,serif" font-size="14.00">test1 test1::$r1 = new PubTest</text>
</g>
<!-- test1 specialinvoke test1::$r0.&lt;PubTest: void &lt;init&gt;()&gt;()&#45;&gt;test1 test1::$r1 = new PubTest -->
<g id="edge2" class="edge">
<title>test1 specialinvoke test1::$r0.&lt;PubTest: void &lt;init&gt;()&gt;()&#45;&gt;test1 test1::$r1 = new PubTest</title>
<path fill="none" stroke="black" d="M243,-2210.2C243,-2191.07 243,-2159.96 243,-2137.18"/>
<polygon fill="black" stroke="black" points="246.5,-2137.34 243,-2127.34 239.5,-2137.34 246.5,-2137.34"/>
<text text-anchor="start" x="243" y="-2179.2" font-family="Times,serif" font-size="14.00">[] =&gt; {test1::$r0 &#45;&gt; [test1.new00], </text>
<text text-anchor="start" x="243" y="-2162.7" font-family="Times,serif" font-size="14.00">}</text>
</g>
<!-- test1 specialinvoke test1::$r1.&lt;PubTest: void &lt;init&gt;()&gt;() -->
<g id="node4" class="node">
<title>test1 specialinvoke test1::$r1.&lt;PubTest: void &lt;init&gt;()&gt;()</title>
<polygon fill="none" stroke="black" points="406.25,-1988 79.75,-1988 79.75,-1952 406.25,-1952 406.25,-1988"/>
<text text-anchor="middle" x="243" y="-1964.95" font-family="Times,serif" font-size="14.00">test1 specialinvoke test1::$r1.&lt;PubTest: void &lt;init&gt;()&gt;()</text>
</g>
<!-- test1 test1::$r1 = new PubTest&#45;&gt;test1 specialinvoke test1::$r1.&lt;PubTest: void &lt;init&gt;()&gt;() -->
<g id="edge3" class="edge">
<title>test1 test1::$r1 = new PubTest&#45;&gt;test1 specialinvoke test1::$r1.&lt;PubTest: void &lt;init&gt;()&gt;()</title>
<path fill="none" stroke="black" d="M243,-2089.06C243,-2066.5 243,-2026.88 243,-1999.82"/>
<polygon fill="black" stroke="black" points="246.5,-1999.88 243,-1989.88 239.5,-1999.88 246.5,-1999.88"/>
<text text-anchor="start" x="243" y="-2058.2" font-family="Times,serif" font-size="14.00">[] =&gt; {test1::$r0 &#45;&gt; [test1.new00], </text>
<text text-anchor="start" x="243" y="-2041.7" font-family="Times,serif" font-size="14.00">test1::$r1 &#45;&gt; [test1.new02], </text>
<text text-anchor="start" x="243" y="-2025.2" font-family="Times,serif" font-size="14.00">}</text>
</g>
<!-- test1 test1::$r0.&lt;PubTest: PubTest f&gt; = test1::$r1 -->
<g id="node5" class="node">
<title>test1 test1::$r0.&lt;PubTest: PubTest f&gt; = test1::$r1</title>
<polygon fill="none" stroke="black" points="386.75,-1850.5 99.25,-1850.5 99.25,-1814.5 386.75,-1814.5 386.75,-1850.5"/>
<text text-anchor="middle" x="243" y="-1827.45" font-family="Times,serif" font-size="14.00">test1 test1::$r0.&lt;PubTest: PubTest f&gt; = test1::$r1</text>
</g>
<!-- test1 specialinvoke test1::$r1.&lt;PubTest: void &lt;init&gt;()&gt;()&#45;&gt;test1 test1::$r0.&lt;PubTest: PubTest f&gt; = test1::$r1 -->
<g id="edge4" class="edge">
<title>test1 specialinvoke test1::$r1.&lt;PubTest: void &lt;init&gt;()&gt;()&#45;&gt;test1 test1::$r0.&lt;PubTest: PubTest f&gt; = test1::$r1</title>
<path fill="none" stroke="black" d="M243,-1951.56C243,-1929 243,-1889.38 243,-1862.32"/>
<polygon fill="black" stroke="black" points="246.5,-1862.38 243,-1852.38 239.5,-1862.38 246.5,-1862.38"/>
<text text-anchor="start" x="243" y="-1920.7" font-family="Times,serif" font-size="14.00">[] =&gt; {test1::$r0 &#45;&gt; [test1.new00], </text>
<text text-anchor="start" x="243" y="-1904.2" font-family="Times,serif" font-size="14.00">test1::$r1 &#45;&gt; [test1.new02], </text>
<text text-anchor="start" x="243" y="-1887.7" font-family="Times,serif" font-size="14.00">}</text>
</g>
<!-- test1 test1::$r2 = new PubTest -->
<g id="node6" class="node">
<title>test1 test1::$r2 = new PubTest</title>
<polygon fill="none" stroke="black" points="334.25,-1696.5 151.75,-1696.5 151.75,-1660.5 334.25,-1660.5 334.25,-1696.5"/>
<text text-anchor="middle" x="243" y="-1673.45" font-family="Times,serif" font-size="14.00">test1 test1::$r2 = new PubTest</text>
</g>
<!-- test1 test1::$r0.&lt;PubTest: PubTest f&gt; = test1::$r1&#45;&gt;test1 test1::$r2 = new PubTest -->
<g id="edge5" class="edge">
<title>test1 test1::$r0.&lt;PubTest: PubTest f&gt; = test1::$r1&#45;&gt;test1 test1::$r2 = new PubTest</title>
<path fill="none" stroke="black" d="M243,-1814.06C243,-1788.18 243,-1739.3 243,-1708.12"/>
<polygon fill="black" stroke="black" points="246.5,-1708.25 243,-1698.25 239.5,-1708.25 246.5,-1708.25"/>
<text text-anchor="start" x="243" y="-1783.2" font-family="Times,serif" font-size="14.00">[] =&gt; {test1::$r0 &#45;&gt; [test1.new00], </text>
<text text-anchor="start" x="243" y="-1766.7" font-family="Times,serif" font-size="14.00">test1.new00.f &#45;&gt; [test1.new02], </text>
<text text-anchor="start" x="243" y="-1750.2" font-family="Times,serif" font-size="14.00">test1::$r1 &#45;&gt; [test1.new02], </text>
<text text-anchor="start" x="243" y="-1733.7" font-family="Times,serif" font-size="14.00">}</text>
</g>
<!-- test1 specialinvoke test1::$r2.&lt;PubTest: void &lt;init&gt;()&gt;() -->
<g id="node7" class="node">
<title>test1 specialinvoke test1::$r2.&lt;PubTest: void &lt;init&gt;()&gt;()</title>
<polygon fill="none" stroke="black" points="406.25,-1526 79.75,-1526 79.75,-1490 406.25,-1490 406.25,-1526"/>
<text text-anchor="middle" x="243" y="-1502.95" font-family="Times,serif" font-size="14.00">test1 specialinvoke test1::$r2.&lt;PubTest: void &lt;init&gt;()&gt;()</text>
</g>
<!-- test1 test1::$r2 = new PubTest&#45;&gt;test1 specialinvoke test1::$r2.&lt;PubTest: void &lt;init&gt;()&gt;() -->
<g id="edge6" class="edge">
<title>test1 test1::$r2 = new PubTest&#45;&gt;test1 specialinvoke test1::$r2.&lt;PubTest: void &lt;init&gt;()&gt;()</title>
<path fill="none" stroke="black" d="M243,-1660.1C243,-1631.07 243,-1572.47 243,-1537.39"/>
<polygon fill="black" stroke="black" points="246.5,-1537.57 243,-1527.57 239.5,-1537.57 246.5,-1537.57"/>
<text text-anchor="start" x="243" y="-1629.2" font-family="Times,serif" font-size="14.00">[] =&gt; {test1::$r0 &#45;&gt; [test1.new00], </text>
<text text-anchor="start" x="243" y="-1612.7" font-family="Times,serif" font-size="14.00">test1.new00.f &#45;&gt; [test1.new02], </text>
<text text-anchor="start" x="243" y="-1596.2" font-family="Times,serif" font-size="14.00">test1::$r1 &#45;&gt; [test1.new02], </text>
<text text-anchor="start" x="243" y="-1579.7" font-family="Times,serif" font-size="14.00">test1::$r2 &#45;&gt; [test1.new05]</text>
<text text-anchor="start" x="243" y="-1563.2" font-family="Times,serif" font-size="14.00">}</text>
</g>
<!-- test1 staticinvoke &lt;PubTest: void foo1(PubTest,PubTest)&gt;(test1::$r0, test1::$r2) -->
<g id="node8" class="node">
<title>test1 staticinvoke &lt;PubTest: void foo1(PubTest,PubTest)&gt;(test1::$r0, test1::$r2)</title>
<polygon fill="none" stroke="black" points="470.38,-1355.5 15.62,-1355.5 15.62,-1319.5 470.38,-1319.5 470.38,-1355.5"/>
<text text-anchor="middle" x="243" y="-1332.45" font-family="Times,serif" font-size="14.00">test1 staticinvoke &lt;PubTest: void foo1(PubTest,PubTest)&gt;(test1::$r0, test1::$r2)</text>
</g>
<!-- test1 specialinvoke test1::$r2.&lt;PubTest: void &lt;init&gt;()&gt;()&#45;&gt;test1 staticinvoke &lt;PubTest: void foo1(PubTest,PubTest)&gt;(test1::$r0, test1::$r2) -->
<g id="edge7" class="edge">
<title>test1 specialinvoke test1::$r2.&lt;PubTest: void &lt;init&gt;()&gt;()&#45;&gt;test1 staticinvoke &lt;PubTest: void foo1(PubTest,PubTest)&gt;(test1::$r0, test1::$r2)</title>
<path fill="none" stroke="black" d="M243,-1489.6C243,-1460.57 243,-1401.97 243,-1366.89"/>
<polygon fill="black" stroke="black" points="246.5,-1367.07 243,-1357.07 239.5,-1367.07 246.5,-1367.07"/>
<text text-anchor="start" x="243" y="-1458.7" font-family="Times,serif" font-size="14.00">[] =&gt; {test1::$r0 &#45;&gt; [test1.new00], </text>
<text text-anchor="start" x="243" y="-1442.2" font-family="Times,serif" font-size="14.00">test1.new00.f &#45;&gt; [test1.new02], </text>
<text text-anchor="start" x="243" y="-1425.7" font-family="Times,serif" font-size="14.00">test1::$r1 &#45;&gt; [test1.new02], </text>
<text text-anchor="start" x="243" y="-1409.2" font-family="Times,serif" font-size="14.00">test1::$r2 &#45;&gt; [test1.new05]</text>
<text text-anchor="start" x="243" y="-1392.7" font-family="Times,serif" font-size="14.00">}</text>
</g>
<!-- test1 return -->
<g id="node9" class="node">
<title>test1 return</title>
<polygon fill="none" stroke="black" points="397.75,-1135.5 320.25,-1135.5 320.25,-1099.5 397.75,-1099.5 397.75,-1135.5"/>
<text text-anchor="middle" x="359" y="-1112.45" font-family="Times,serif" font-size="14.00">test1 return</text>
</g>
<!-- test1 staticinvoke &lt;PubTest: void foo1(PubTest,PubTest)&gt;(test1::$r0, test1::$r2)&#45;&gt;test1 return -->
<g id="edge8" class="edge">
<title>test1 staticinvoke &lt;PubTest: void foo1(PubTest,PubTest)&gt;(test1::$r0, test1::$r2)&#45;&gt;test1 return</title>
<path fill="none" stroke="black" d="M252.3,-1319.03C272.45,-1281.15 320.31,-1191.21 344.49,-1145.77"/>
<polygon fill="black" stroke="black" points="347.5,-1147.56 349.11,-1137.09 341.32,-1144.27 347.5,-1147.56"/>
<text text-anchor="start" x="339" y="-1230.45" font-family="Times,serif" font-size="14.00">[] =&gt; {}</text>
</g>
<!-- foo1 foo1::r0 := @parameter0: PubTest -->
<g id="node10" class="node">
<title>foo1 foo1::r0 := @parameter0: PubTest</title>
<polygon fill="none" stroke="black" points="727.75,-1135.5 494.25,-1135.5 494.25,-1099.5 727.75,-1099.5 727.75,-1135.5"/>
<text text-anchor="middle" x="611" y="-1112.45" font-family="Times,serif" font-size="14.00">foo1 foo1::r0 := @parameter0: PubTest</text>
</g>
<!-- test1 staticinvoke &lt;PubTest: void foo1(PubTest,PubTest)&gt;(test1::$r0, test1::$r2)&#45;&gt;foo1 foo1::r0 := @parameter0: PubTest -->
<g id="edge17" class="edge">
<title>test1 staticinvoke &lt;PubTest: void foo1(PubTest,PubTest)&gt;(test1::$r0, test1::$r2)&#45;&gt;foo1 foo1::r0 := @parameter0: PubTest</title>
<path fill="none" stroke="black" stroke-dasharray="1,5" d="M343.62,-1319.06C359.58,-1314.46 375.56,-1308.7 390,-1301.5 471.85,-1260.67 549.98,-1184.27 587.62,-1144.33"/>
<polygon fill="black" stroke="black" points="590.16,-1146.73 594.41,-1137.03 585.04,-1141.96 590.16,-1146.73"/>
<text text-anchor="middle" x="761.5" y="-1288.2" font-family="Times,serif" font-size="14.00">PubTest.test1.in07</text>
<text text-anchor="start" x="577" y="-1271.7" font-family="Times,serif" font-size="14.00">[PubTest.test1.in07] =&gt; {@parameter1: PubTest &#45;&gt; [test1.new05], </text>
<text text-anchor="start" x="577" y="-1255.2" font-family="Times,serif" font-size="14.00">test1::$r0 &#45;&gt; [test1.new00], </text>
<text text-anchor="start" x="577" y="-1238.7" font-family="Times,serif" font-size="14.00">test1.new00.f &#45;&gt; [test1.new02], </text>
<text text-anchor="start" x="577" y="-1222.2" font-family="Times,serif" font-size="14.00">test1::$r1 &#45;&gt; [test1.new02], </text>
<text text-anchor="start" x="577" y="-1205.7" font-family="Times,serif" font-size="14.00">@parameter0: PubTest &#45;&gt; [test1.new00], </text>
<text text-anchor="start" x="577" y="-1189.2" font-family="Times,serif" font-size="14.00">test1::$r2 &#45;&gt; [test1.new05]</text>
<text text-anchor="start" x="577" y="-1172.7" font-family="Times,serif" font-size="14.00">}</text>
</g>
<!-- foo1 foo1::r2 := @parameter1: PubTest -->
<g id="node11" class="node">
<title>foo1 foo1::r2 := @parameter1: PubTest</title>
<polygon fill="none" stroke="black" points="727.75,-915.5 494.25,-915.5 494.25,-879.5 727.75,-879.5 727.75,-915.5"/>
<text text-anchor="middle" x="611" y="-892.45" font-family="Times,serif" font-size="14.00">foo1 foo1::r2 := @parameter1: PubTest</text>
</g>
<!-- foo1 foo1::r0 := @parameter0: PubTest&#45;&gt;foo1 foo1::r2 := @parameter1: PubTest -->
<g id="edge9" class="edge">
<title>foo1 foo1::r0 := @parameter0: PubTest&#45;&gt;foo1 foo1::r2 := @parameter1: PubTest</title>
<path fill="none" stroke="black" d="M611,-1099.03C611,-1061.55 611,-973.1 611,-927.22"/>
<polygon fill="black" stroke="black" points="614.5,-927.27 611,-917.27 607.5,-927.27 614.5,-927.27"/>
<text text-anchor="start" x="611" y="-1068.2" font-family="Times,serif" font-size="14.00">[PubTest.test1.in07] =&gt; {@parameter1: PubTest &#45;&gt; [test1.new05], </text>
<text text-anchor="start" x="611" y="-1051.7" font-family="Times,serif" font-size="14.00">test1::$r0 &#45;&gt; [test1.new00], </text>
<text text-anchor="start" x="611" y="-1035.2" font-family="Times,serif" font-size="14.00">foo1::r0 &#45;&gt; [test1.new00], </text>
<text text-anchor="start" x="611" y="-1018.7" font-family="Times,serif" font-size="14.00">test1.new00.f &#45;&gt; [test1.new02], </text>
<text text-anchor="start" x="611" y="-1002.2" font-family="Times,serif" font-size="14.00">test1::$r1 &#45;&gt; [test1.new02], </text>
<text text-anchor="start" x="611" y="-985.7" font-family="Times,serif" font-size="14.00">@parameter0: PubTest &#45;&gt; [test1.new00], </text>
<text text-anchor="start" x="611" y="-969.2" font-family="Times,serif" font-size="14.00">test1::$r2 &#45;&gt; [test1.new05]</text>
<text text-anchor="start" x="611" y="-952.7" font-family="Times,serif" font-size="14.00">}</text>
</g>
<!-- foo1 foo1::r1 = foo1::r0.&lt;PubTest: PubTest f&gt; -->
<g id="node12" class="node">
<title>foo1 foo1::r1 = foo1::r0.&lt;PubTest: PubTest f&gt;</title>
<polygon fill="none" stroke="black" points="778.88,-679 507.12,-679 507.12,-643 778.88,-643 778.88,-679"/>
<text text-anchor="middle" x="643" y="-655.95" font-family="Times,serif" font-size="14.00">foo1 foo1::r1 = foo1::r0.&lt;PubTest: PubTest f&gt;</text>
</g>
<!-- foo1 foo1::r2 := @parameter1: PubTest&#45;&gt;foo1 foo1::r1 = foo1::r0.&lt;PubTest: PubTest f&gt; -->
<g id="edge10" class="edge">
<title>foo1 foo1::r2 := @parameter1: PubTest&#45;&gt;foo1 foo1::r1 = foo1::r0.&lt;PubTest: PubTest f&gt;</title>
<path fill="none" stroke="red" d="M613.35,-879.26C618.81,-839.28 632.37,-739.93 639.09,-690.65"/>
<polygon fill="red" stroke="red" points="642.55,-691.15 640.44,-680.77 635.62,-690.2 642.55,-691.15"/>
<text text-anchor="start" x="637" y="-848.2" font-family="Times,serif" font-size="14.00">[PubTest.test1.in07] =&gt; {@parameter1: PubTest &#45;&gt; [test1.new05], </text>
<text text-anchor="start" x="637" y="-831.7" font-family="Times,serif" font-size="14.00">foo1::r2 &#45;&gt; [test1.new05], </text>
<text text-anchor="start" x="637" y="-815.2" font-family="Times,serif" font-size="14.00">test1::$r0 &#45;&gt; [test1.new00], </text>
<text text-anchor="start" x="637" y="-798.7" font-family="Times,serif" font-size="14.00">foo1::r0 &#45;&gt; [test1.new00], </text>
<text text-anchor="start" x="637" y="-782.2" font-family="Times,serif" font-size="14.00">test1.new00.f &#45;&gt; [test1.new02], </text>
<text text-anchor="start" x="637" y="-765.7" font-family="Times,serif" font-size="14.00">test1::$r1 &#45;&gt; [test1.new02], </text>
<text text-anchor="start" x="637" y="-749.2" font-family="Times,serif" font-size="14.00">@parameter0: PubTest &#45;&gt; [test1.new00], </text>
<text text-anchor="start" x="637" y="-732.7" font-family="Times,serif" font-size="14.00">test1::$r2 &#45;&gt; [test1.new05]</text>
<text text-anchor="start" x="637" y="-716.2" font-family="Times,serif" font-size="14.00">}</text>
</g>
<!-- foo1 foo1::r1.&lt;PubTest: PubTest f&gt; = foo1::r2 -->
<g id="node13" class="node">
<title>foo1 foo1::r1.&lt;PubTest: PubTest f&gt; = foo1::r2</title>
<polygon fill="none" stroke="black" points="785.88,-574.5 514.12,-574.5 514.12,-538.5 785.88,-538.5 785.88,-574.5"/>
<text text-anchor="middle" x="650" y="-551.45" font-family="Times,serif" font-size="14.00">foo1 foo1::r1.&lt;PubTest: PubTest f&gt; = foo1::r2</text>
</g>
<!-- foo1 foo1::r1 = foo1::r0.&lt;PubTest: PubTest f&gt;&#45;&gt;foo1 foo1::r1.&lt;PubTest: PubTest f&gt; = foo1::r2 -->
<g id="edge11" class="edge">
<title>foo1 foo1::r1 = foo1::r0.&lt;PubTest: PubTest f&gt;&#45;&gt;foo1 foo1::r1.&lt;PubTest: PubTest f&gt; = foo1::r2</title>
<path fill="none" stroke="red" d="M644.19,-642.61C645.24,-627.22 646.79,-604.46 648.03,-586.35"/>
<polygon fill="red" stroke="red" points="651.51,-586.7 648.7,-576.48 644.53,-586.22 651.51,-586.7"/>
<text text-anchor="start" x="647" y="-611.7" font-family="Times,serif" font-size="14.00">[] =&gt; {}</text>
</g>
<!-- foo1 foo1::$r3 = new PubTest -->
<g id="node14" class="node">
<title>foo1 foo1::$r3 = new PubTest</title>
<polygon fill="none" stroke="black" points="744.5,-470 563.5,-470 563.5,-434 744.5,-434 744.5,-470"/>
<text text-anchor="middle" x="654" y="-446.95" font-family="Times,serif" font-size="14.00">foo1 foo1::$r3 = new PubTest</text>
</g>
<!-- foo1 foo1::r1.&lt;PubTest: PubTest f&gt; = foo1::r2&#45;&gt;foo1 foo1::$r3 = new PubTest -->
<g id="edge12" class="edge">
<title>foo1 foo1::r1.&lt;PubTest: PubTest f&gt; = foo1::r2&#45;&gt;foo1 foo1::$r3 = new PubTest</title>
<path fill="none" stroke="red" d="M650.68,-538.11C651.28,-522.72 652.17,-499.96 652.87,-481.85"/>
<polygon fill="red" stroke="red" points="656.37,-482.11 653.26,-471.99 649.37,-481.84 656.37,-482.11"/>
<text text-anchor="start" x="652" y="-507.2" font-family="Times,serif" font-size="14.00">[] =&gt; {}</text>
</g>
<!-- foo1 specialinvoke foo1::$r3.&lt;PubTest: void &lt;init&gt;()&gt;() -->
<g id="node15" class="node">
<title>foo1 specialinvoke foo1::$r3.&lt;PubTest: void &lt;init&gt;()&gt;()</title>
<polygon fill="none" stroke="black" points="819.5,-365.5 494.5,-365.5 494.5,-329.5 819.5,-329.5 819.5,-365.5"/>
<text text-anchor="middle" x="657" y="-342.45" font-family="Times,serif" font-size="14.00">foo1 specialinvoke foo1::$r3.&lt;PubTest: void &lt;init&gt;()&gt;()</text>
</g>
<!-- foo1 foo1::$r3 = new PubTest&#45;&gt;foo1 specialinvoke foo1::$r3.&lt;PubTest: void &lt;init&gt;()&gt;() -->
<g id="edge13" class="edge">
<title>foo1 foo1::$r3 = new PubTest&#45;&gt;foo1 specialinvoke foo1::$r3.&lt;PubTest: void &lt;init&gt;()&gt;()</title>
<path fill="none" stroke="red" d="M654.51,-433.61C654.96,-418.22 655.63,-395.46 656.16,-377.35"/>
<polygon fill="red" stroke="red" points="659.65,-377.58 656.44,-367.49 652.65,-377.38 659.65,-377.58"/>
<text text-anchor="start" x="655" y="-402.7" font-family="Times,serif" font-size="14.00">[] =&gt; {}</text>
</g>
<!-- foo1 foo1::r2.&lt;PubTest: PubTest f&gt; = foo1::$r3 -->
<g id="node16" class="node">
<title>foo1 foo1::r2.&lt;PubTest: PubTest f&gt; = foo1::$r3</title>
<polygon fill="none" stroke="black" points="784.25,-261 505.75,-261 505.75,-225 784.25,-225 784.25,-261"/>
<text text-anchor="middle" x="645" y="-237.95" font-family="Times,serif" font-size="14.00">foo1 foo1::r2.&lt;PubTest: PubTest f&gt; = foo1::$r3</text>
</g>
<!-- foo1 specialinvoke foo1::$r3.&lt;PubTest: void &lt;init&gt;()&gt;()&#45;&gt;foo1 foo1::r2.&lt;PubTest: PubTest f&gt; = foo1::$r3 -->
<g id="edge14" class="edge">
<title>foo1 specialinvoke foo1::$r3.&lt;PubTest: void &lt;init&gt;()&gt;()&#45;&gt;foo1 foo1::r2.&lt;PubTest: PubTest f&gt; = foo1::$r3</title>
<path fill="none" stroke="red" d="M654.96,-329.11C653.16,-313.72 650.5,-290.96 648.38,-272.85"/>
<polygon fill="red" stroke="red" points="651.86,-272.5 647.22,-262.98 644.91,-273.32 651.86,-272.5"/>
<text text-anchor="start" x="652" y="-298.2" font-family="Times,serif" font-size="14.00">[] =&gt; {}</text>
</g>
<!-- foo1 foo1::$r3.&lt;PubTest: PubTest f&gt; = null -->
<g id="node17" class="node">
<title>foo1 foo1::$r3.&lt;PubTest: PubTest f&gt; = null</title>
<polygon fill="none" stroke="black" points="761,-156.5 505,-156.5 505,-120.5 761,-120.5 761,-156.5"/>
<text text-anchor="middle" x="633" y="-133.45" font-family="Times,serif" font-size="14.00">foo1 foo1::$r3.&lt;PubTest: PubTest f&gt; = null</text>
</g>
<!-- foo1 foo1::r2.&lt;PubTest: PubTest f&gt; = foo1::$r3&#45;&gt;foo1 foo1::$r3.&lt;PubTest: PubTest f&gt; = null -->
<g id="edge15" class="edge">
<title>foo1 foo1::r2.&lt;PubTest: PubTest f&gt; = foo1::$r3&#45;&gt;foo1 foo1::$r3.&lt;PubTest: PubTest f&gt; = null</title>
<path fill="none" stroke="red" d="M642.96,-224.61C641.16,-209.22 638.5,-186.46 636.38,-168.35"/>
<polygon fill="red" stroke="red" points="639.86,-168 635.22,-158.48 632.91,-168.82 639.86,-168"/>
<text text-anchor="start" x="640" y="-193.7" font-family="Times,serif" font-size="14.00">[] =&gt; {}</text>
</g>
<!-- foo1 return -->
<g id="node18" class="node">
<title>foo1 return</title>
<polygon fill="none" stroke="black" points="620.38,-52 543.62,-52 543.62,-16 620.38,-16 620.38,-52"/>
<text text-anchor="middle" x="582" y="-28.95" font-family="Times,serif" font-size="14.00">foo1 return</text>
</g>
<!-- foo1 foo1::$r3.&lt;PubTest: PubTest f&gt; = null&#45;&gt;foo1 return -->
<g id="edge16" class="edge">
<title>foo1 foo1::$r3.&lt;PubTest: PubTest f&gt; = null&#45;&gt;foo1 return</title>
<path fill="none" stroke="red" d="M624.35,-120.11C616.51,-104.36 604.82,-80.87 595.71,-62.56"/>
<polygon fill="red" stroke="red" points="598.96,-61.22 591.37,-53.83 592.69,-64.34 598.96,-61.22"/>
<text text-anchor="start" x="615" y="-89.2" font-family="Times,serif" font-size="14.00">[] =&gt; {}</text>
</g>
<!-- foo1 return&#45;&gt;test1 return -->
<g id="edge18" class="edge">
<title>foo1 return&#45;&gt;test1 return</title>
<path fill="none" stroke="black" stroke-dasharray="1,5" d="M543.27,-41.23C493.93,-51.63 415,-77.63 415,-137.5 415,-898.5 415,-898.5 415,-898.5 415,-968.69 387.43,-1047.7 370.98,-1088.6"/>
<polygon fill="black" stroke="black" points="367.81,-1087.11 367.24,-1097.69 374.29,-1089.77 367.81,-1087.11"/>
<text text-anchor="middle" x="465.62" y="-446.95" font-family="Times,serif" font-size="14.00">PubTest.test1.in07</text>
</g>
</g>
</svg>
