<?xml version="1.0" encoding="UTF-8" standalone="no"?>
<!DOCTYPE svg PUBLIC "-//W3C//DTD SVG 1.1//EN"
 "http://www.w3.org/Graphics/SVG/1.1/DTD/svg11.dtd">
<!-- Generated by graphviz version 9.0.0 (20230911.1827)
 -->
<!-- Title: G Pages: 1 -->
<svg width="2650pt" height="1821pt"
 viewBox="0.00 0.00 2649.50 1820.50" xmlns="http://www.w3.org/2000/svg" xmlns:xlink="http://www.w3.org/1999/xlink">
<g id="graph0" class="graph" transform="scale(1 1) rotate(0) translate(4 1816.5)">
<title>G</title>
<polygon fill="white" stroke="none" points="-4,4 -4,-1816.5 2645.5,-1816.5 2645.5,4 -4,4"/>
<g id="clust1" class="cluster">
<title>cluster_0</title>
<polygon fill="none" stroke="black" points="8,-8 8,-1804.5 460,-1804.5 460,-8 8,-8"/>
</g>
<g id="clust2" class="cluster">
<title>cluster_1</title>
<polygon fill="none" stroke="black" points="823,-471 823,-1172.5 1265,-1172.5 1265,-471 823,-471"/>
</g>
<g id="clust3" class="cluster">
<title>cluster_2</title>
<polygon fill="none" stroke="black" points="1273,-81 1273,-523 1713,-523 1713,-81 1273,-81"/>
</g>
<g id="clust4" class="cluster">
<title>cluster_3</title>
<polygon fill="none" stroke="black" points="2124,-185.5 2124,-523 2559,-523 2559,-185.5 2124,-185.5"/>
</g>
<!-- test2 test2::r4 = null -->
<g id="node1" class="node">
<title>test2 test2::r4 = null</title>
<polygon fill="none" stroke="black" points="297.12,-1796.5 170.88,-1796.5 170.88,-1760.5 297.12,-1760.5 297.12,-1796.5"/>
<text text-anchor="middle" x="234" y="-1773.45" font-family="Times,serif" font-size="14.00">test2 test2::r4 = null</text>
</g>
<!-- test2 test2::$r0 = new PubTest -->
<g id="node2" class="node">
<title>test2 test2::$r0 = new PubTest</title>
<polygon fill="none" stroke="black" points="325.25,-1675.5 142.75,-1675.5 142.75,-1639.5 325.25,-1639.5 325.25,-1675.5"/>
<text text-anchor="middle" x="234" y="-1652.45" font-family="Times,serif" font-size="14.00">test2 test2::$r0 = new PubTest</text>
</g>
<!-- test2 test2::r4 = null&#45;&gt;test2 test2::$r0 = new PubTest -->
<g id="edge1" class="edge">
<title>test2 test2::r4 = null&#45;&gt;test2 test2::$r0 = new PubTest</title>
<path fill="none" stroke="black" d="M234,-1760.2C234,-1741.07 234,-1709.96 234,-1687.18"/>
<polygon fill="black" stroke="black" points="237.5,-1687.34 234,-1677.34 230.5,-1687.34 237.5,-1687.34"/>
<text text-anchor="start" x="234" y="-1729.2" font-family="Times,serif" font-size="14.00">[] =&gt; {test2::r4 &#45;&gt; [null], </text>
<text text-anchor="start" x="234" y="-1712.7" font-family="Times,serif" font-size="14.00">}</text>
</g>
<!-- test2 specialinvoke test2::$r0.&lt;PubTest: void &lt;init&gt;()&gt;() -->
<g id="node3" class="node">
<title>test2 specialinvoke test2::$r0.&lt;PubTest: void &lt;init&gt;()&gt;()</title>
<polygon fill="none" stroke="black" points="397.25,-1538 70.75,-1538 70.75,-1502 397.25,-1502 397.25,-1538"/>
<text text-anchor="middle" x="234" y="-1514.95" font-family="Times,serif" font-size="14.00">test2 specialinvoke test2::$r0.&lt;PubTest: void &lt;init&gt;()&gt;()</text>
</g>
<!-- test2 test2::$r0 = new PubTest&#45;&gt;test2 specialinvoke test2::$r0.&lt;PubTest: void &lt;init&gt;()&gt;() -->
<g id="edge2" class="edge">
<title>test2 test2::$r0 = new PubTest&#45;&gt;test2 specialinvoke test2::$r0.&lt;PubTest: void &lt;init&gt;()&gt;()</title>
<path fill="none" stroke="black" d="M234,-1639.06C234,-1616.5 234,-1576.88 234,-1549.82"/>
<polygon fill="black" stroke="black" points="237.5,-1549.88 234,-1539.88 230.5,-1549.88 237.5,-1549.88"/>
<text text-anchor="start" x="234" y="-1608.2" font-family="Times,serif" font-size="14.00">[] =&gt; {test2::r4 &#45;&gt; [null], </text>
<text text-anchor="start" x="234" y="-1591.7" font-family="Times,serif" font-size="14.00">test2::$r0 &#45;&gt; [test2.new01], </text>
<text text-anchor="start" x="234" y="-1575.2" font-family="Times,serif" font-size="14.00">}</text>
</g>
<!-- test2 test2::$r1 = staticinvoke &lt;PubTest: PubTest foo2(PubTest)&gt;(test2::$r0) -->
<g id="node4" class="node">
<title>test2 test2::$r1 = staticinvoke &lt;PubTest: PubTest foo2(PubTest)&gt;(test2::$r0)</title>
<polygon fill="none" stroke="black" points="451.62,-1400.5 16.38,-1400.5 16.38,-1364.5 451.62,-1364.5 451.62,-1400.5"/>
<text text-anchor="middle" x="234" y="-1377.45" font-family="Times,serif" font-size="14.00">test2 test2::$r1 = staticinvoke &lt;PubTest: PubTest foo2(PubTest)&gt;(test2::$r0)</text>
</g>
<!-- test2 specialinvoke test2::$r0.&lt;PubTest: void &lt;init&gt;()&gt;()&#45;&gt;test2 test2::$r1 = staticinvoke &lt;PubTest: PubTest foo2(PubTest)&gt;(test2::$r0) -->
<g id="edge3" class="edge">
<title>test2 specialinvoke test2::$r0.&lt;PubTest: void &lt;init&gt;()&gt;()&#45;&gt;test2 test2::$r1 = staticinvoke &lt;PubTest: PubTest foo2(PubTest)&gt;(test2::$r0)</title>
<path fill="none" stroke="black" d="M234,-1501.56C234,-1479 234,-1439.38 234,-1412.32"/>
<polygon fill="black" stroke="black" points="237.5,-1412.38 234,-1402.38 230.5,-1412.38 237.5,-1412.38"/>
<text text-anchor="start" x="234" y="-1470.7" font-family="Times,serif" font-size="14.00">[] =&gt; {test2::r4 &#45;&gt; [null], </text>
<text text-anchor="start" x="234" y="-1454.2" font-family="Times,serif" font-size="14.00">test2::$r0 &#45;&gt; [test2.new01], </text>
<text text-anchor="start" x="234" y="-1437.7" font-family="Times,serif" font-size="14.00">}</text>
</g>
<!-- test2 test2::$r2 = new PubTest -->
<g id="node5" class="node">
<title>test2 test2::$r2 = new PubTest</title>
<polygon fill="none" stroke="black" points="325.25,-1164.5 142.75,-1164.5 142.75,-1128.5 325.25,-1128.5 325.25,-1164.5"/>
<text text-anchor="middle" x="234" y="-1141.45" font-family="Times,serif" font-size="14.00">test2 test2::$r2 = new PubTest</text>
</g>
<!-- test2 test2::$r1 = staticinvoke &lt;PubTest: PubTest foo2(PubTest)&gt;(test2::$r0)&#45;&gt;test2 test2::$r2 = new PubTest -->
<g id="edge4" class="edge">
<title>test2 test2::$r1 = staticinvoke &lt;PubTest: PubTest foo2(PubTest)&gt;(test2::$r0)&#45;&gt;test2 test2::$r2 = new PubTest</title>
<path fill="none" stroke="black" d="M234,-1364.29C234,-1324.4 234,-1225.26 234,-1176.09"/>
<polygon fill="black" stroke="black" points="237.5,-1176.25 234,-1166.25 230.5,-1176.25 237.5,-1176.25"/>
</g>
<!-- foo2 foo2::r0 := @parameter0: PubTest -->
<g id="node11" class="node">
<title>foo2 foo2::r0 := @parameter0: PubTest</title>
<polygon fill="none" stroke="black" points="1064.75,-1164.5 831.25,-1164.5 831.25,-1128.5 1064.75,-1128.5 1064.75,-1164.5"/>
<text text-anchor="middle" x="948" y="-1141.45" font-family="Times,serif" font-size="14.00">foo2 foo2::r0 := @parameter0: PubTest</text>
</g>
<!-- test2 test2::$r1 = staticinvoke &lt;PubTest: PubTest foo2(PubTest)&gt;(test2::$r0)&#45;&gt;foo2 foo2::r0 := @parameter0: PubTest -->
<g id="edge16" class="edge">
<title>test2 test2::$r1 = staticinvoke &lt;PubTest: PubTest foo2(PubTest)&gt;(test2::$r0)&#45;&gt;foo2 foo2::r0 := @parameter0: PubTest</title>
<path fill="none" stroke="black" stroke-dasharray="1,5" d="M287.37,-1364.01C416.3,-1321.76 744.3,-1214.26 883.72,-1168.57"/>
<polygon fill="black" stroke="black" points="884.78,-1171.9 893.19,-1165.46 882.6,-1165.25 884.78,-1171.9"/>
<text text-anchor="middle" x="975" y="-1333.2" font-family="Times,serif" font-size="14.00">PubTest.test2.in03</text>
<text text-anchor="start" x="828" y="-1316.7" font-family="Times,serif" font-size="14.00">[PubTest.test2.in06] =&gt; {test2::$r2 &#45;&gt; [test2.new04], </text>
<text text-anchor="start" x="828" y="-1300.2" font-family="Times,serif" font-size="14.00">@parameter0: PubTest &#45;&gt; [test2.new04], </text>
<text text-anchor="start" x="828" y="-1283.7" font-family="Times,serif" font-size="14.00">}</text>
<text text-anchor="start" x="828" y="-1251.2" font-family="Times,serif" font-size="14.00">[PubTest.test2.in03] =&gt; {test2::r4 &#45;&gt; [null], </text>
<text text-anchor="start" x="828" y="-1234.7" font-family="Times,serif" font-size="14.00">test2::$r0 &#45;&gt; [test2.new01], </text>
<text text-anchor="start" x="828" y="-1218.2" font-family="Times,serif" font-size="14.00">@parameter0: PubTest &#45;&gt; [test2.new01], </text>
<text text-anchor="start" x="828" y="-1201.7" font-family="Times,serif" font-size="14.00">}</text>
</g>
<!-- test2 specialinvoke test2::$r2.&lt;PubTest: void &lt;init&gt;()&gt;() -->
<g id="node6" class="node">
<title>test2 specialinvoke test2::$r2.&lt;PubTest: void &lt;init&gt;()&gt;()</title>
<polygon fill="none" stroke="black" points="342.25,-848 15.75,-848 15.75,-812 342.25,-812 342.25,-848"/>
<text text-anchor="middle" x="179" y="-824.95" font-family="Times,serif" font-size="14.00">test2 specialinvoke test2::$r2.&lt;PubTest: void &lt;init&gt;()&gt;()</text>
</g>
<!-- test2 test2::$r2 = new PubTest&#45;&gt;test2 specialinvoke test2::$r2.&lt;PubTest: void &lt;init&gt;()&gt;() -->
<g id="edge5" class="edge">
<title>test2 test2::$r2 = new PubTest&#45;&gt;test2 specialinvoke test2::$r2.&lt;PubTest: void &lt;init&gt;()&gt;()</title>
<path fill="none" stroke="black" d="M192.23,-1128.16C185.43,-1123.45 179.3,-1117.62 175.25,-1110.5 129.11,-1029.3 154.46,-912.24 169.89,-859.11"/>
<polygon fill="black" stroke="black" points="173.21,-860.23 172.75,-849.65 166.51,-858.21 173.21,-860.23"/>
<text text-anchor="start" x="176" y="-1031.45" font-family="Times,serif" font-size="14.00">[] =&gt; {test2::$r2 &#45;&gt; [test2.new04], </text>
<text text-anchor="start" x="176" y="-1014.95" font-family="Times,serif" font-size="14.00">}</text>
</g>
<!-- test2 test2::$r3 = staticinvoke &lt;PubTest: PubTest foo2(PubTest)&gt;(test2::$r2) -->
<g id="node7" class="node">
<title>test2 test2::$r3 = staticinvoke &lt;PubTest: PubTest foo2(PubTest)&gt;(test2::$r2)</title>
<polygon fill="none" stroke="black" points="451.62,-515 16.38,-515 16.38,-479 451.62,-479 451.62,-515"/>
<text text-anchor="middle" x="234" y="-491.95" font-family="Times,serif" font-size="14.00">test2 test2::$r3 = staticinvoke &lt;PubTest: PubTest foo2(PubTest)&gt;(test2::$r2)</text>
</g>
<!-- test2 specialinvoke test2::$r2.&lt;PubTest: void &lt;init&gt;()&gt;()&#45;&gt;test2 test2::$r3 = staticinvoke &lt;PubTest: PubTest foo2(PubTest)&gt;(test2::$r2) -->
<g id="edge6" class="edge">
<title>test2 specialinvoke test2::$r2.&lt;PubTest: void &lt;init&gt;()&gt;()&#45;&gt;test2 test2::$r3 = staticinvoke &lt;PubTest: PubTest foo2(PubTest)&gt;(test2::$r2)</title>
<path fill="none" stroke="black" d="M173.19,-811.83C158.09,-763.92 122.31,-626.16 175.25,-533 177.46,-529.1 180.3,-525.6 183.53,-522.45"/>
<polygon fill="black" stroke="black" points="185.53,-525.34 191.06,-516.3 181.1,-519.91 185.53,-525.34"/>
<text text-anchor="start" x="176" y="-642.7" font-family="Times,serif" font-size="14.00">[] =&gt; {test2::$r2 &#45;&gt; [test2.new04], </text>
<text text-anchor="start" x="176" y="-626.2" font-family="Times,serif" font-size="14.00">}</text>
</g>
<!-- test2 if test2::$r1 != test2::$r3 goto return test2::r4 -->
<g id="node8" class="node">
<title>test2 if test2::$r1 != test2::$r3 goto return test2::r4</title>
<polygon fill="none" stroke="black" points="415.62,-229.5 124.38,-229.5 124.38,-193.5 415.62,-193.5 415.62,-229.5"/>
<text text-anchor="middle" x="270" y="-206.45" font-family="Times,serif" font-size="14.00">test2 if test2::$r1 != test2::$r3 goto return test2::r4</text>
</g>
<!-- test2 test2::$r3 = staticinvoke &lt;PubTest: PubTest foo2(PubTest)&gt;(test2::$r2)&#45;&gt;test2 if test2::$r1 != test2::$r3 goto return test2::r4 -->
<g id="edge7" class="edge">
<title>test2 test2::$r3 = staticinvoke &lt;PubTest: PubTest foo2(PubTest)&gt;(test2::$r2)&#45;&gt;test2 if test2::$r1 != test2::$r3 goto return test2::r4</title>
<path fill="none" stroke="black" d="M236.2,-478.69C242.2,-431.44 258.91,-299.87 266.35,-241.28"/>
<polygon fill="black" stroke="black" points="269.81,-241.8 267.59,-231.44 262.86,-240.92 269.81,-241.8"/>
</g>
<!-- test2 test2::$r3 = staticinvoke &lt;PubTest: PubTest foo2(PubTest)&gt;(test2::$r2)&#45;&gt;foo2 foo2::r0 := @parameter0: PubTest -->
<g id="edge17" class="edge">
<title>test2 test2::$r3 = staticinvoke &lt;PubTest: PubTest foo2(PubTest)&gt;(test2::$r2)&#45;&gt;foo2 foo2::r0 := @parameter0: PubTest</title>
<path fill="none" stroke="black" stroke-dasharray="1,5" d="M342.26,-515.46C353.29,-520.04 363.8,-525.78 373,-533 458.11,-599.74 448.27,-647.02 487,-748 513.91,-818.15 482.28,-852.38 528,-912 616.51,-1027.42 779.27,-1093.93 874.09,-1124.62"/>
<polygon fill="black" stroke="black" points="872.99,-1127.94 883.58,-1127.63 875.11,-1121.27 872.99,-1127.94"/>
<text text-anchor="middle" x="675" y="-898.7" font-family="Times,serif" font-size="14.00">PubTest.test2.in06</text>
<text text-anchor="start" x="528" y="-882.2" font-family="Times,serif" font-size="14.00">[PubTest.test2.in06] =&gt; {test2::$r2 &#45;&gt; [test2.new04], </text>
<text text-anchor="start" x="528" y="-865.7" font-family="Times,serif" font-size="14.00">@parameter0: PubTest &#45;&gt; [test2.new04], </text>
<text text-anchor="start" x="528" y="-849.2" font-family="Times,serif" font-size="14.00">}</text>
<text text-anchor="start" x="528" y="-816.7" font-family="Times,serif" font-size="14.00">[PubTest.test2.in03] =&gt; {test2::r4 &#45;&gt; [null], </text>
<text text-anchor="start" x="528" y="-800.2" font-family="Times,serif" font-size="14.00">test2::$r0 &#45;&gt; [test2.new01], </text>
<text text-anchor="start" x="528" y="-783.7" font-family="Times,serif" font-size="14.00">@parameter0: PubTest &#45;&gt; [test2.new01], </text>
<text text-anchor="start" x="528" y="-767.2" font-family="Times,serif" font-size="14.00">}</text>
</g>
<!-- test2 test2::r4 = test2::$r1 -->
<g id="node9" class="node">
<title>test2 test2::r4 = test2::$r1</title>
<polygon fill="none" stroke="black" points="277.12,-125 120.88,-125 120.88,-89 277.12,-89 277.12,-125"/>
<text text-anchor="middle" x="199" y="-101.95" font-family="Times,serif" font-size="14.00">test2 test2::r4 = test2::$r1</text>
</g>
<!-- test2 if test2::$r1 != test2::$r3 goto return test2::r4&#45;&gt;test2 test2::r4 = test2::$r1 -->
<g id="edge8" class="edge">
<title>test2 if test2::$r1 != test2::$r3 goto return test2::r4&#45;&gt;test2 test2::r4 = test2::$r1</title>
<path fill="none" stroke="black" d="M257.96,-193.11C246.89,-177.14 230.32,-153.21 217.56,-134.79"/>
<polygon fill="black" stroke="black" points="220.54,-132.94 211.97,-126.72 214.78,-136.93 220.54,-132.94"/>
</g>
<!-- test2 return test2::r4 -->
<g id="node10" class="node">
<title>test2 return test2::r4</title>
<polygon fill="none" stroke="black" points="310.75,-52 185.25,-52 185.25,-16 310.75,-16 310.75,-52"/>
<text text-anchor="middle" x="248" y="-28.95" font-family="Times,serif" font-size="14.00">test2 return test2::r4</text>
</g>
<!-- test2 if test2::$r1 != test2::$r3 goto return test2::r4&#45;&gt;test2 return test2::r4 -->
<g id="edge9" class="edge">
<title>test2 if test2::$r1 != test2::$r3 goto return test2::r4&#45;&gt;test2 return test2::r4</title>
<path fill="none" stroke="black" d="M277.04,-193.18C286.28,-167.81 299.8,-119.37 286,-81 283.41,-73.8 279.15,-66.92 274.39,-60.78"/>
<polygon fill="black" stroke="black" points="277.35,-58.85 268.2,-53.51 272.02,-63.39 277.35,-58.85"/>
</g>
<!-- test2 test2::r4 = test2::$r1&#45;&gt;test2 return test2::r4 -->
<g id="edge10" class="edge">
<title>test2 test2::r4 = test2::$r1&#45;&gt;test2 return test2::r4</title>
<path fill="none" stroke="black" d="M210.86,-88.81C216.52,-80.62 223.42,-70.62 229.72,-61.48"/>
<polygon fill="black" stroke="black" points="232.59,-63.49 235.39,-53.27 226.83,-59.52 232.59,-63.49"/>
</g>
<!-- foo2 foo2::$r1 = staticinvoke &lt;PubTest: PubTest bar2(PubTest)&gt;(foo2::r0) -->
<g id="node12" class="node">
<title>foo2 foo2::$r1 = staticinvoke &lt;PubTest: PubTest bar2(PubTest)&gt;(foo2::r0)</title>
<polygon fill="none" stroke="black" points="1256.75,-848 831.25,-848 831.25,-812 1256.75,-812 1256.75,-848"/>
<text text-anchor="middle" x="1044" y="-824.95" font-family="Times,serif" font-size="14.00">foo2 foo2::$r1 = staticinvoke &lt;PubTest: PubTest bar2(PubTest)&gt;(foo2::r0)</text>
</g>
<!-- foo2 foo2::r0 := @parameter0: PubTest&#45;&gt;foo2 foo2::$r1 = staticinvoke &lt;PubTest: PubTest bar2(PubTest)&gt;(foo2::r0) -->
<g id="edge11" class="edge">
<title>foo2 foo2::r0 := @parameter0: PubTest&#45;&gt;foo2 foo2::$r1 = staticinvoke &lt;PubTest: PubTest bar2(PubTest)&gt;(foo2::r0)</title>
<path fill="none" stroke="black" d="M953.3,-1128.14C969.1,-1076.38 1016,-922.73 1035.42,-859.09"/>
<polygon fill="black" stroke="black" points="1038.7,-860.34 1038.28,-849.75 1032.01,-858.29 1038.7,-860.34"/>
<text text-anchor="start" x="1012" y="-1097.2" font-family="Times,serif" font-size="14.00">[PubTest.test2.in06] =&gt; {test2::$r2 &#45;&gt; [test2.new04], </text>
<text text-anchor="start" x="1012" y="-1080.7" font-family="Times,serif" font-size="14.00">foo2::r0 &#45;&gt; [test2.new04], </text>
<text text-anchor="start" x="1012" y="-1064.2" font-family="Times,serif" font-size="14.00">@parameter0: PubTest &#45;&gt; [test2.new04], </text>
<text text-anchor="start" x="1012" y="-1047.7" font-family="Times,serif" font-size="14.00">}</text>
<text text-anchor="start" x="1012" y="-1015.2" font-family="Times,serif" font-size="14.00">[PubTest.test2.in03] =&gt; {test2::r4 &#45;&gt; [null], </text>
<text text-anchor="start" x="1012" y="-998.7" font-family="Times,serif" font-size="14.00">foo2::r0 &#45;&gt; [test2.new01], </text>
<text text-anchor="start" x="1012" y="-982.2" font-family="Times,serif" font-size="14.00">test2::$r0 &#45;&gt; [test2.new01], </text>
<text text-anchor="start" x="1012" y="-965.7" font-family="Times,serif" font-size="14.00">@parameter0: PubTest &#45;&gt; [test2.new01], </text>
<text text-anchor="start" x="1012" y="-949.2" font-family="Times,serif" font-size="14.00">}</text>
</g>
<!-- foo2 return foo2::$r1 -->
<g id="node13" class="node">
<title>foo2 return foo2::$r1</title>
<polygon fill="none" stroke="black" points="1023.38,-515 892.62,-515 892.62,-479 1023.38,-479 1023.38,-515"/>
<text text-anchor="middle" x="958" y="-491.95" font-family="Times,serif" font-size="14.00">foo2 return foo2::$r1</text>
</g>
<!-- foo2 foo2::$r1 = staticinvoke &lt;PubTest: PubTest bar2(PubTest)&gt;(foo2::r0)&#45;&gt;foo2 return foo2::$r1 -->
<g id="edge12" class="edge">
<title>foo2 foo2::$r1 = staticinvoke &lt;PubTest: PubTest bar2(PubTest)&gt;(foo2::r0)&#45;&gt;foo2 return foo2::$r1</title>
<path fill="none" stroke="black" d="M1039.5,-811.67C1025.48,-757.71 982.52,-592.36 965.27,-526"/>
<polygon fill="black" stroke="black" points="968.74,-525.42 962.84,-516.62 961.97,-527.18 968.74,-525.42"/>
</g>
<!-- bar2 bar2::r0 := @parameter0: PubTest -->
<g id="node14" class="node">
<title>bar2 bar2::r0 := @parameter0: PubTest</title>
<polygon fill="none" stroke="black" points="1513,-515 1281,-515 1281,-479 1513,-479 1513,-515"/>
<text text-anchor="middle" x="1397" y="-491.95" font-family="Times,serif" font-size="14.00">bar2 bar2::r0 := @parameter0: PubTest</text>
</g>
<!-- foo2 foo2::$r1 = staticinvoke &lt;PubTest: PubTest bar2(PubTest)&gt;(foo2::r0)&#45;&gt;bar2 bar2::r0 := @parameter0: PubTest -->
<g id="edge18" class="edge">
<title>foo2 foo2::$r1 = staticinvoke &lt;PubTest: PubTest bar2(PubTest)&gt;(foo2::r0)&#45;&gt;bar2 bar2::r0 := @parameter0: PubTest</title>
<path fill="none" stroke="black" stroke-dasharray="1,5" d="M1062.48,-811.67C1120.98,-756.82 1302.24,-586.85 1370.57,-522.78"/>
<polygon fill="black" stroke="black" points="1372.7,-525.59 1377.6,-516.19 1367.91,-520.48 1372.7,-525.59"/>
<text text-anchor="middle" x="1554" y="-716.7" font-family="Times,serif" font-size="14.00">PubTest.foo2.in01</text>
<text text-anchor="start" x="1353" y="-700.2" font-family="Times,serif" font-size="14.00">[PubTest.test2.in06, PubTest.foo2.in01] =&gt; {test2::$r2 &#45;&gt; [test2.new04], </text>
<text text-anchor="start" x="1353" y="-683.7" font-family="Times,serif" font-size="14.00">foo2::r0 &#45;&gt; [test2.new04], </text>
<text text-anchor="start" x="1353" y="-667.2" font-family="Times,serif" font-size="14.00">@parameter0: PubTest &#45;&gt; [test2.new04], </text>
<text text-anchor="start" x="1353" y="-650.7" font-family="Times,serif" font-size="14.00">}</text>
<text text-anchor="start" x="1353" y="-618.2" font-family="Times,serif" font-size="14.00">[PubTest.test2.in03, PubTest.foo2.in01] =&gt; {test2::r4 &#45;&gt; [null], </text>
<text text-anchor="start" x="1353" y="-601.7" font-family="Times,serif" font-size="14.00">foo2::r0 &#45;&gt; [test2.new01], </text>
<text text-anchor="start" x="1353" y="-585.2" font-family="Times,serif" font-size="14.00">test2::$r0 &#45;&gt; [test2.new01], </text>
<text text-anchor="start" x="1353" y="-568.7" font-family="Times,serif" font-size="14.00">@parameter0: PubTest &#45;&gt; [test2.new01], </text>
<text text-anchor="start" x="1353" y="-552.2" font-family="Times,serif" font-size="14.00">}</text>
</g>
<!-- foo2 return foo2::$r1&#45;&gt;test2 test2::$r2 = new PubTest -->
<g id="edge19" class="edge">
<title>foo2 return foo2::$r1&#45;&gt;test2 test2::$r2 = new PubTest</title>
<path fill="none" stroke="black" stroke-dasharray="1,5" d="M892.54,-504.34C768.43,-520.25 500.69,-574.03 381.75,-748 290.76,-881.09 468.95,-984.79 368,-1110.5 362.91,-1116.84 351.17,-1122.27 336.64,-1126.83"/>
<polygon fill="black" stroke="black" points="335.72,-1123.45 327.08,-1129.58 337.66,-1130.18 335.72,-1123.45"/>
<text text-anchor="middle" x="431.62" y="-824.95" font-family="Times,serif" font-size="14.00">PubTest.test2.in03</text>
</g>
<!-- foo2 return foo2::$r1&#45;&gt;test2 if test2::$r1 != test2::$r3 goto return test2::r4 -->
<g id="edge20" class="edge">
<title>foo2 return foo2::$r1&#45;&gt;test2 if test2::$r1 != test2::$r3 goto return test2::r4</title>
<path fill="none" stroke="black" stroke-dasharray="1,5" d="M915.74,-478.59C796.02,-429.26 454.75,-288.63 322.89,-234.3"/>
<polygon fill="black" stroke="black" points="324.26,-231.07 313.68,-230.5 321.59,-237.54 324.26,-231.07"/>
<text text-anchor="middle" x="922.62" y="-349.2" font-family="Times,serif" font-size="14.00">PubTest.test2.in06</text>
</g>
<!-- bar2 bar2::$r1 = staticinvoke &lt;PubTest: PubTest bar3(PubTest)&gt;(bar2::r0) -->
<g id="node15" class="node">
<title>bar2 bar2::$r1 = staticinvoke &lt;PubTest: PubTest bar3(PubTest)&gt;(bar2::r0)</title>
<polygon fill="none" stroke="black" points="1704.62,-229.5 1281.38,-229.5 1281.38,-193.5 1704.62,-193.5 1704.62,-229.5"/>
<text text-anchor="middle" x="1493" y="-206.45" font-family="Times,serif" font-size="14.00">bar2 bar2::$r1 = staticinvoke &lt;PubTest: PubTest bar3(PubTest)&gt;(bar2::r0)</text>
</g>
<!-- bar2 bar2::r0 := @parameter0: PubTest&#45;&gt;bar2 bar2::$r1 = staticinvoke &lt;PubTest: PubTest bar3(PubTest)&gt;(bar2::r0) -->
<g id="edge13" class="edge">
<title>bar2 bar2::r0 := @parameter0: PubTest&#45;&gt;bar2 bar2::$r1 = staticinvoke &lt;PubTest: PubTest bar3(PubTest)&gt;(bar2::r0)</title>
<path fill="none" stroke="black" d="M1321.67,-478.76C1313.98,-474.17 1307.13,-468.35 1302,-461 1247.73,-383.16 1241.25,-320.39 1302,-247.5 1306.58,-242 1314.89,-237.37 1325.57,-233.46"/>
<polygon fill="black" stroke="black" points="1326.61,-236.8 1335.05,-230.4 1324.45,-230.14 1326.61,-236.8"/>
<text text-anchor="start" x="1302" y="-447.7" font-family="Times,serif" font-size="14.00">[PubTest.test2.in06, PubTest.foo2.in01] =&gt; {test2::$r2 &#45;&gt; [test2.new04], </text>
<text text-anchor="start" x="1302" y="-431.2" font-family="Times,serif" font-size="14.00">foo2::r0 &#45;&gt; [test2.new04], </text>
<text text-anchor="start" x="1302" y="-414.7" font-family="Times,serif" font-size="14.00">bar2::r0 &#45;&gt; [test2.new04], </text>
<text text-anchor="start" x="1302" y="-398.2" font-family="Times,serif" font-size="14.00">@parameter0: PubTest &#45;&gt; [test2.new04], </text>
<text text-anchor="start" x="1302" y="-381.7" font-family="Times,serif" font-size="14.00">}</text>
<text text-anchor="start" x="1302" y="-349.2" font-family="Times,serif" font-size="14.00">[PubTest.test2.in03, PubTest.foo2.in01] =&gt; {test2::r4 &#45;&gt; [null], </text>
<text text-anchor="start" x="1302" y="-332.7" font-family="Times,serif" font-size="14.00">foo2::r0 &#45;&gt; [test2.new01], </text>
<text text-anchor="start" x="1302" y="-316.2" font-family="Times,serif" font-size="14.00">test2::$r0 &#45;&gt; [test2.new01], </text>
<text text-anchor="start" x="1302" y="-299.7" font-family="Times,serif" font-size="14.00">bar2::r0 &#45;&gt; [test2.new01], </text>
<text text-anchor="start" x="1302" y="-283.2" font-family="Times,serif" font-size="14.00">@parameter0: PubTest &#45;&gt; [test2.new01], </text>
<text text-anchor="start" x="1302" y="-266.7" font-family="Times,serif" font-size="14.00">}</text>
</g>
<!-- bar2 return bar2::$r1 -->
<g id="node16" class="node">
<title>bar2 return bar2::$r1</title>
<polygon fill="none" stroke="black" points="1557.62,-125 1428.38,-125 1428.38,-89 1557.62,-89 1557.62,-125"/>
<text text-anchor="middle" x="1493" y="-101.95" font-family="Times,serif" font-size="14.00">bar2 return bar2::$r1</text>
</g>
<!-- bar2 bar2::$r1 = staticinvoke &lt;PubTest: PubTest bar3(PubTest)&gt;(bar2::r0)&#45;&gt;bar2 return bar2::$r1 -->
<g id="edge14" class="edge">
<title>bar2 bar2::$r1 = staticinvoke &lt;PubTest: PubTest bar3(PubTest)&gt;(bar2::r0)&#45;&gt;bar2 return bar2::$r1</title>
<path fill="none" stroke="black" d="M1493,-193.11C1493,-177.72 1493,-154.96 1493,-136.85"/>
<polygon fill="black" stroke="black" points="1496.5,-136.99 1493,-126.99 1489.5,-136.99 1496.5,-136.99"/>
<text text-anchor="start" x="1493" y="-162.2" font-family="Times,serif" font-size="14.00">[] =&gt; {}</text>
</g>
<!-- bar3 bar3::r0 := @parameter0: PubTest -->
<g id="node17" class="node">
<title>bar3 bar3::r0 := @parameter0: PubTest</title>
<polygon fill="none" stroke="black" points="2364,-515 2132,-515 2132,-479 2364,-479 2364,-515"/>
<text text-anchor="middle" x="2248" y="-491.95" font-family="Times,serif" font-size="14.00">bar3 bar3::r0 := @parameter0: PubTest</text>
</g>
<!-- bar2 bar2::$r1 = staticinvoke &lt;PubTest: PubTest bar3(PubTest)&gt;(bar2::r0)&#45;&gt;bar3 bar3::r0 := @parameter0: PubTest -->
<g id="edge21" class="edge">
<title>bar2 bar2::$r1 = staticinvoke &lt;PubTest: PubTest bar3(PubTest)&gt;(bar2::r0)&#45;&gt;bar3 bar3::r0 := @parameter0: PubTest</title>
<path fill="none" stroke="black" stroke-dasharray="1,5" d="M1656.79,-229.95C1677.64,-234.56 1694.88,-240.32 1704,-247.5 1784.97,-311.27 1710.83,-400.83 1794.5,-461 1820.5,-479.7 1995.67,-488.75 2120.5,-492.88"/>
<polygon fill="black" stroke="black" points="2120.04,-496.37 2130.15,-493.19 2120.27,-489.37 2120.04,-496.37"/>
<text text-anchor="middle" x="1994.25" y="-398.45" font-family="Times,serif" font-size="14.00">PubTest.bar2.in01</text>
<text text-anchor="start" x="1794" y="-381.95" font-family="Times,serif" font-size="14.00">[PubTest.foo2.in01, PubTest.bar2.in01] =&gt; {test2::$r2 &#45;&gt; [test2.new04], </text>
<text text-anchor="start" x="1794" y="-365.45" font-family="Times,serif" font-size="14.00">foo2::r0 &#45;&gt; [test2.new04], </text>
<text text-anchor="start" x="1794" y="-348.95" font-family="Times,serif" font-size="14.00">bar2::r0 &#45;&gt; [test2.new04], </text>
<text text-anchor="start" x="1794" y="-332.45" font-family="Times,serif" font-size="14.00">@parameter0: PubTest &#45;&gt; [test2.new04], </text>
<text text-anchor="start" x="1794" y="-315.95" font-family="Times,serif" font-size="14.00">}</text>
</g>
<!-- bar2 return bar2::$r1&#45;&gt;foo2 return foo2::$r1 -->
<g id="edge22" class="edge">
<title>bar2 return bar2::$r1&#45;&gt;foo2 return foo2::$r1</title>
<path fill="none" stroke="black" stroke-dasharray="1,5" d="M1428.02,-110.18C1358.87,-115.39 1248.96,-132.22 1171.5,-185.5 1116.13,-223.58 1012.12,-400.53 973.21,-468.92"/>
<polygon fill="black" stroke="black" points="970.38,-466.82 968.49,-477.24 976.47,-470.27 970.38,-466.82"/>
<text text-anchor="middle" x="1221.25" y="-206.45" font-family="Times,serif" font-size="14.00">PubTest.foo2.in01</text>
</g>
<!-- bar3 return bar3::r0 -->
<g id="node18" class="node">
<title>bar3 return bar3::r0</title>
<polygon fill="none" stroke="black" points="2254.25,-229.5 2131.75,-229.5 2131.75,-193.5 2254.25,-193.5 2254.25,-229.5"/>
<text text-anchor="middle" x="2193" y="-206.45" font-family="Times,serif" font-size="14.00">bar3 return bar3::r0</text>
</g>
<!-- bar3 bar3::r0 := @parameter0: PubTest&#45;&gt;bar3 return bar3::r0 -->
<g id="edge15" class="edge">
<title>bar3 bar3::r0 := @parameter0: PubTest&#45;&gt;bar3 return bar3::r0</title>
<path fill="none" stroke="red" d="M2244.64,-478.69C2235.46,-431.34 2209.84,-299.32 2198.51,-240.91"/>
<polygon fill="red" stroke="red" points="2202.01,-240.58 2196.67,-231.43 2195.14,-241.91 2202.01,-240.58"/>
<text text-anchor="start" x="2241" y="-398.45" font-family="Times,serif" font-size="14.00">[PubTest.foo2.in01, PubTest.bar2.in01] =&gt; {test2::$r2 &#45;&gt; [test2.new04], </text>
<text text-anchor="start" x="2241" y="-381.95" font-family="Times,serif" font-size="14.00">foo2::r0 &#45;&gt; [test2.new04], </text>
<text text-anchor="start" x="2241" y="-365.45" font-family="Times,serif" font-size="14.00">bar3::r0 &#45;&gt; [test2.new04], </text>
<text text-anchor="start" x="2241" y="-348.95" font-family="Times,serif" font-size="14.00">bar2::r0 &#45;&gt; [test2.new04], </text>
<text text-anchor="start" x="2241" y="-332.45" font-family="Times,serif" font-size="14.00">@parameter0: PubTest &#45;&gt; [test2.new04], </text>
<text text-anchor="start" x="2241" y="-315.95" font-family="Times,serif" font-size="14.00">}</text>
</g>
<!-- bar3 return bar3::r0&#45;&gt;bar2 return bar2::$r1 -->
<g id="edge23" class="edge">
<title>bar3 return bar3::r0&#45;&gt;bar2 return bar2::$r1</title>
<path fill="none" stroke="black" stroke-dasharray="1,5" d="M2131.49,-201.49C2003.43,-182.74 1708.51,-139.56 1568.9,-119.11"/>
<polygon fill="black" stroke="black" points="1569.81,-115.71 1559.41,-117.72 1568.79,-122.64 1569.81,-115.71"/>
<text text-anchor="middle" x="1995.88" y="-154.2" font-family="Times,serif" font-size="14.00">PubTest.bar2.in01</text>
</g>
</g>
</svg>
