<?xml version="1.0" encoding="UTF-8" standalone="no"?>
<!DOCTYPE svg PUBLIC "-//W3C//DTD SVG 1.1//EN"
 "http://www.w3.org/Graphics/SVG/1.1/DTD/svg11.dtd">
<!-- Generated by graphviz version 9.0.0 (20230911.1827)
 -->
<!-- Title: G Pages: 1 -->
<svg width="1830pt" height="940pt"
 viewBox="0.00 0.00 1830.25 939.50" xmlns="http://www.w3.org/2000/svg" xmlns:xlink="http://www.w3.org/1999/xlink">
<g id="graph0" class="graph" transform="scale(1 1) rotate(0) translate(4 935.5)">
<title>G</title>
<polygon fill="white" stroke="none" points="-4,4 -4,-935.5 1826.25,-935.5 1826.25,4 -4,4"/>
<g id="clust1" class="cluster">
<title>cluster_0</title>
<polygon fill="none" stroke="black" points="8,-321.5 8,-923.5 478,-923.5 478,-321.5 8,-321.5"/>
</g>
<g id="clust2" class="cluster">
<title>cluster_1</title>
<polygon fill="none" stroke="black" points="486,-8 486,-527.5 1028,-527.5 1028,-8 486,-8"/>
</g>
<g id="clust3" class="cluster">
<title>cluster_2</title>
<polygon fill="none" stroke="black" points="1043,-8 1043,-802.5 1735,-802.5 1735,-8 1043,-8"/>
</g>
<!-- f f::$r0 = new BasicTest -->
<g id="node1" class="node">
<title>f f::$r0 = new BasicTest</title>
<polygon fill="none" stroke="black" points="317.75,-915.5 168.25,-915.5 168.25,-879.5 317.75,-879.5 317.75,-915.5"/>
<text text-anchor="middle" x="243" y="-892.45" font-family="Times,serif" font-size="14.00">f f::$r0 = new BasicTest</text>
</g>
<!-- f specialinvoke f::$r0.&lt;BasicTest: void &lt;init&gt;()&gt;() -->
<g id="node2" class="node">
<title>f specialinvoke f::$r0.&lt;BasicTest: void &lt;init&gt;()&gt;()</title>
<polygon fill="none" stroke="black" points="389.75,-794.5 96.25,-794.5 96.25,-758.5 389.75,-758.5 389.75,-794.5"/>
<text text-anchor="middle" x="243" y="-771.45" font-family="Times,serif" font-size="14.00">f specialinvoke f::$r0.&lt;BasicTest: void &lt;init&gt;()&gt;()</text>
</g>
<!-- f f::$r0 = new BasicTest&#45;&gt;f specialinvoke f::$r0.&lt;BasicTest: void &lt;init&gt;()&gt;() -->
<g id="edge1" class="edge">
<title>f f::$r0 = new BasicTest&#45;&gt;f specialinvoke f::$r0.&lt;BasicTest: void &lt;init&gt;()&gt;()</title>
<path fill="none" stroke="black" d="M243,-879.2C243,-860.07 243,-828.96 243,-806.18"/>
<polygon fill="black" stroke="black" points="246.5,-806.34 243,-796.34 239.5,-806.34 246.5,-806.34"/>
<text text-anchor="start" x="243" y="-848.2" font-family="Times,serif" font-size="14.00">[] =&gt; {f::$r0 &#45;&gt; [f.new00], </text>
<text text-anchor="start" x="243" y="-831.7" font-family="Times,serif" font-size="14.00">}</text>
</g>
<!-- f f::$r1 = staticinvoke &lt;BasicTest: BasicTest REC_TEST_1(BasicTest)&gt;(f::$r0) -->
<g id="node3" class="node">
<title>f f::$r1 = staticinvoke &lt;BasicTest: BasicTest REC_TEST_1(BasicTest)&gt;(f::$r0)</title>
<polygon fill="none" stroke="black" points="469.62,-673.5 16.38,-673.5 16.38,-637.5 469.62,-637.5 469.62,-673.5"/>
<text text-anchor="middle" x="243" y="-650.45" font-family="Times,serif" font-size="14.00">f f::$r1 = staticinvoke &lt;BasicTest: BasicTest REC_TEST_1(BasicTest)&gt;(f::$r0)</text>
</g>
<!-- f specialinvoke f::$r0.&lt;BasicTest: void &lt;init&gt;()&gt;()&#45;&gt;f f::$r1 = staticinvoke &lt;BasicTest: BasicTest REC_TEST_1(BasicTest)&gt;(f::$r0) -->
<g id="edge2" class="edge">
<title>f specialinvoke f::$r0.&lt;BasicTest: void &lt;init&gt;()&gt;()&#45;&gt;f f::$r1 = staticinvoke &lt;BasicTest: BasicTest REC_TEST_1(BasicTest)&gt;(f::$r0)</title>
<path fill="none" stroke="black" d="M243,-758.2C243,-739.07 243,-707.96 243,-685.18"/>
<polygon fill="black" stroke="black" points="246.5,-685.34 243,-675.34 239.5,-685.34 246.5,-685.34"/>
<text text-anchor="start" x="243" y="-727.2" font-family="Times,serif" font-size="14.00">[] =&gt; {f::$r0 &#45;&gt; [f.new00], </text>
<text text-anchor="start" x="243" y="-710.7" font-family="Times,serif" font-size="14.00">}</text>
</g>
<!-- f f::$r1.&lt;BasicTest: BasicTest f&gt; = null -->
<g id="node4" class="node">
<title>f f::$r1.&lt;BasicTest: BasicTest f&gt; = null</title>
<polygon fill="none" stroke="black" points="441.75,-519.5 208.25,-519.5 208.25,-483.5 441.75,-483.5 441.75,-519.5"/>
<text text-anchor="middle" x="325" y="-496.45" font-family="Times,serif" font-size="14.00">f f::$r1.&lt;BasicTest: BasicTest f&gt; = null</text>
</g>
<!-- f f::$r1 = staticinvoke &lt;BasicTest: BasicTest REC_TEST_1(BasicTest)&gt;(f::$r0)&#45;&gt;f f::$r1.&lt;BasicTest: BasicTest f&gt; = null -->
<g id="edge3" class="edge">
<title>f f::$r1 = staticinvoke &lt;BasicTest: BasicTest REC_TEST_1(BasicTest)&gt;(f::$r0)&#45;&gt;f f::$r1.&lt;BasicTest: BasicTest f&gt; = null</title>
<path fill="none" stroke="black" d="M252.41,-637.06C266.62,-610.72 293.68,-560.56 310.44,-529.48"/>
<polygon fill="black" stroke="black" points="313.32,-531.53 314.98,-521.07 307.16,-528.2 313.32,-531.53"/>
<text text-anchor="start" x="306" y="-581.45" font-family="Times,serif" font-size="14.00">[] =&gt; {}</text>
</g>
<!-- REC_TEST_1 REC_TEST_1::r1 := @parameter0: BasicTest -->
<g id="node6" class="node">
<title>REC_TEST_1 REC_TEST_1::r1 := @parameter0: BasicTest</title>
<polygon fill="none" stroke="black" points="844.25,-519.5 493.75,-519.5 493.75,-483.5 844.25,-483.5 844.25,-519.5"/>
<text text-anchor="middle" x="669" y="-496.45" font-family="Times,serif" font-size="14.00">REC_TEST_1 REC_TEST_1::r1 := @parameter0: BasicTest</text>
</g>
<!-- f f::$r1 = staticinvoke &lt;BasicTest: BasicTest REC_TEST_1(BasicTest)&gt;(f::$r0)&#45;&gt;REC_TEST_1 REC_TEST_1::r1 := @parameter0: BasicTest -->
<g id="edge16" class="edge">
<title>f f::$r1 = staticinvoke &lt;BasicTest: BasicTest REC_TEST_1(BasicTest)&gt;(f::$r0)&#45;&gt;REC_TEST_1 REC_TEST_1::r1 := @parameter0: BasicTest</title>
<path fill="none" stroke="black" stroke-dasharray="1,5" d="M301.56,-637.06C319.14,-631.64 338.41,-625.51 356,-619.5 447.34,-588.31 552.16,-548.24 614.36,-524.01"/>
<polygon fill="black" stroke="black" points="615.26,-527.42 623.3,-520.52 612.71,-520.9 615.26,-527.42"/>
<text text-anchor="middle" x="752.5" y="-606.2" font-family="Times,serif" font-size="14.00">BasicTest.f.in02</text>
<text text-anchor="start" x="580" y="-589.7" font-family="Times,serif" font-size="14.00">[BasicTest.f.in02] =&gt; {@parameter0: BasicTest &#45;&gt; [f.new00], </text>
<text text-anchor="start" x="580" y="-573.2" font-family="Times,serif" font-size="14.00">f::$r0 &#45;&gt; [f.new00], </text>
<text text-anchor="start" x="580" y="-556.7" font-family="Times,serif" font-size="14.00">}</text>
</g>
<!-- f return -->
<g id="node5" class="node">
<title>f return</title>
<polygon fill="none" stroke="black" points="409.25,-365.5 352.75,-365.5 352.75,-329.5 409.25,-329.5 409.25,-365.5"/>
<text text-anchor="middle" x="381" y="-342.45" font-family="Times,serif" font-size="14.00">f return</text>
</g>
<!-- f f::$r1.&lt;BasicTest: BasicTest f&gt; = null&#45;&gt;f return -->
<g id="edge4" class="edge">
<title>f f::$r1.&lt;BasicTest: BasicTest f&gt; = null&#45;&gt;f return</title>
<path fill="none" stroke="black" d="M332.1,-483.1C334.35,-477.5 336.82,-471.25 339,-465.5 350.51,-435.15 362.99,-400.08 371.33,-376.31"/>
<polygon fill="black" stroke="black" points="374.57,-377.65 374.57,-367.05 367.97,-375.33 374.57,-377.65"/>
</g>
<!-- REC_TEST_1 REC_TEST_1::$r0 = new BasicTest -->
<g id="node7" class="node">
<title>REC_TEST_1 REC_TEST_1::$r0 = new BasicTest</title>
<polygon fill="none" stroke="black" points="816,-365.5 518,-365.5 518,-329.5 816,-329.5 816,-365.5"/>
<text text-anchor="middle" x="667" y="-342.45" font-family="Times,serif" font-size="14.00">REC_TEST_1 REC_TEST_1::$r0 = new BasicTest</text>
</g>
<!-- REC_TEST_1 REC_TEST_1::r1 := @parameter0: BasicTest&#45;&gt;REC_TEST_1 REC_TEST_1::$r0 = new BasicTest -->
<g id="edge5" class="edge">
<title>REC_TEST_1 REC_TEST_1::r1 := @parameter0: BasicTest&#45;&gt;REC_TEST_1 REC_TEST_1::$r0 = new BasicTest</title>
<path fill="none" stroke="red" d="M661.13,-483.04C659.03,-477.54 657.05,-471.37 656,-465.5 649.55,-429.63 650.47,-419.52 656,-383.5 656.34,-381.28 656.8,-379.01 657.33,-376.74"/>
<polygon fill="red" stroke="red" points="660.69,-377.73 660.04,-367.16 653.95,-375.83 660.69,-377.73"/>
<text text-anchor="start" x="656" y="-452.2" font-family="Times,serif" font-size="14.00">[BasicTest.f.in02] =&gt; {@parameter0: BasicTest &#45;&gt; [f.new00], </text>
<text text-anchor="start" x="656" y="-435.7" font-family="Times,serif" font-size="14.00">f::$r0 &#45;&gt; [f.new00], </text>
<text text-anchor="start" x="656" y="-419.2" font-family="Times,serif" font-size="14.00">REC_TEST_1::r1 &#45;&gt; [f.new00], </text>
<text text-anchor="start" x="656" y="-402.7" font-family="Times,serif" font-size="14.00">}</text>
</g>
<!-- REC_TEST_1 specialinvoke REC_TEST_1::$r0.&lt;BasicTest: void &lt;init&gt;()&gt;() -->
<g id="node8" class="node">
<title>REC_TEST_1 specialinvoke REC_TEST_1::$r0.&lt;BasicTest: void &lt;init&gt;()&gt;()</title>
<polygon fill="none" stroke="black" points="947,-261 505,-261 505,-225 947,-225 947,-261"/>
<text text-anchor="middle" x="726" y="-237.95" font-family="Times,serif" font-size="14.00">REC_TEST_1 specialinvoke REC_TEST_1::$r0.&lt;BasicTest: void &lt;init&gt;()&gt;()</text>
</g>
<!-- REC_TEST_1 REC_TEST_1::$r0 = new BasicTest&#45;&gt;REC_TEST_1 specialinvoke REC_TEST_1::$r0.&lt;BasicTest: void &lt;init&gt;()&gt;() -->
<g id="edge6" class="edge">
<title>REC_TEST_1 REC_TEST_1::$r0 = new BasicTest&#45;&gt;REC_TEST_1 specialinvoke REC_TEST_1::$r0.&lt;BasicTest: void &lt;init&gt;()&gt;()</title>
<path fill="none" stroke="red" d="M677.01,-329.11C686.12,-313.28 699.72,-289.65 710.28,-271.3"/>
<polygon fill="red" stroke="red" points="713.23,-273.2 715.19,-262.78 707.17,-269.71 713.23,-273.2"/>
<text text-anchor="start" x="705" y="-298.2" font-family="Times,serif" font-size="14.00">[] =&gt; {}</text>
</g>
<!-- REC_TEST_1 staticinvoke &lt;BasicTest: BasicTest rec_test_2(BasicTest)&gt;(REC_TEST_1::r1) -->
<g id="node9" class="node">
<title>REC_TEST_1 staticinvoke &lt;BasicTest: BasicTest rec_test_2(BasicTest)&gt;(REC_TEST_1::r1)</title>
<polygon fill="none" stroke="black" points="1020,-156.5 494,-156.5 494,-120.5 1020,-120.5 1020,-156.5"/>
<text text-anchor="middle" x="757" y="-133.45" font-family="Times,serif" font-size="14.00">REC_TEST_1 staticinvoke &lt;BasicTest: BasicTest rec_test_2(BasicTest)&gt;(REC_TEST_1::r1)</text>
</g>
<!-- REC_TEST_1 specialinvoke REC_TEST_1::$r0.&lt;BasicTest: void &lt;init&gt;()&gt;()&#45;&gt;REC_TEST_1 staticinvoke &lt;BasicTest: BasicTest rec_test_2(BasicTest)&gt;(REC_TEST_1::r1) -->
<g id="edge7" class="edge">
<title>REC_TEST_1 specialinvoke REC_TEST_1::$r0.&lt;BasicTest: void &lt;init&gt;()&gt;()&#45;&gt;REC_TEST_1 staticinvoke &lt;BasicTest: BasicTest rec_test_2(BasicTest)&gt;(REC_TEST_1::r1)</title>
<path fill="none" stroke="red" d="M731.26,-224.61C735.96,-209.08 742.93,-186.03 748.43,-167.83"/>
<polygon fill="red" stroke="red" points="751.73,-169.01 751.28,-158.42 745.03,-166.98 751.73,-169.01"/>
<text text-anchor="start" x="746" y="-193.7" font-family="Times,serif" font-size="14.00">[] =&gt; {}</text>
</g>
<!-- REC_TEST_1 return REC_TEST_1::$r0 -->
<g id="node10" class="node">
<title>REC_TEST_1 return REC_TEST_1::$r0</title>
<polygon fill="none" stroke="black" points="876.38,-52 637.62,-52 637.62,-16 876.38,-16 876.38,-52"/>
<text text-anchor="middle" x="757" y="-28.95" font-family="Times,serif" font-size="14.00">REC_TEST_1 return REC_TEST_1::$r0</text>
</g>
<!-- REC_TEST_1 staticinvoke &lt;BasicTest: BasicTest rec_test_2(BasicTest)&gt;(REC_TEST_1::r1)&#45;&gt;REC_TEST_1 return REC_TEST_1::$r0 -->
<g id="edge8" class="edge">
<title>REC_TEST_1 staticinvoke &lt;BasicTest: BasicTest rec_test_2(BasicTest)&gt;(REC_TEST_1::r1)&#45;&gt;REC_TEST_1 return REC_TEST_1::$r0</title>
<path fill="none" stroke="red" d="M757,-120.11C757,-104.72 757,-81.96 757,-63.85"/>
<polygon fill="red" stroke="red" points="760.5,-63.99 757,-53.99 753.5,-63.99 760.5,-63.99"/>
<text text-anchor="start" x="757" y="-89.2" font-family="Times,serif" font-size="14.00">[] =&gt; {}</text>
</g>
<!-- rec_test_2 rec_test_2::r1 := @parameter0: BasicTest -->
<g id="node11" class="node">
<title>rec_test_2 rec_test_2::r1 := @parameter0: BasicTest</title>
<polygon fill="none" stroke="black" points="1522,-794.5 1218,-794.5 1218,-758.5 1522,-758.5 1522,-794.5"/>
<text text-anchor="middle" x="1370" y="-771.45" font-family="Times,serif" font-size="14.00">rec_test_2 rec_test_2::r1 := @parameter0: BasicTest</text>
</g>
<!-- REC_TEST_1 staticinvoke &lt;BasicTest: BasicTest rec_test_2(BasicTest)&gt;(REC_TEST_1::r1)&#45;&gt;rec_test_2 rec_test_2::r1 := @parameter0: BasicTest -->
<g id="edge17" class="edge">
<title>REC_TEST_1 staticinvoke &lt;BasicTest: BasicTest rec_test_2(BasicTest)&gt;(REC_TEST_1::r1)&#45;&gt;rec_test_2 rec_test_2::r1 := @parameter0: BasicTest</title>
<path fill="none" stroke="red" stroke-dasharray="1,5" d="M848.91,-156.95C925.8,-174.25 1023,-203.71 1023,-242 1023,-656.5 1023,-656.5 1023,-656.5 1023,-704.46 1143.09,-737.17 1241.98,-755.98"/>
<polygon fill="red" stroke="red" points="1241.05,-759.37 1251.52,-757.76 1242.33,-752.49 1241.05,-759.37"/>
<text text-anchor="middle" x="1104.75" y="-435.7" font-family="Times,serif" font-size="14.00">BasicTest.REC_TEST_1.in03</text>
<text text-anchor="start" x="1023" y="-419.2" font-family="Times,serif" font-size="14.00">[] =&gt; {}</text>
</g>
<!-- REC_TEST_1 return REC_TEST_1::$r0&#45;&gt;f f::$r1.&lt;BasicTest: BasicTest f&gt; = null -->
<g id="edge18" class="edge">
<title>REC_TEST_1 return REC_TEST_1::$r0&#45;&gt;f f::$r1.&lt;BasicTest: BasicTest f&gt; = null</title>
<path fill="none" stroke="black" stroke-dasharray="1,5" d="M637.24,-40.17C509.39,-49.06 325,-73.04 325,-137.5 325,-348.5 325,-348.5 325,-348.5 325,-391.41 325,-441.13 325,-471.7"/>
<polygon fill="black" stroke="black" points="321.5,-471.66 325,-481.66 328.5,-471.66 321.5,-471.66"/>
<text text-anchor="middle" x="369.62" y="-237.95" font-family="Times,serif" font-size="14.00">BasicTest.f.in02</text>
</g>
<!-- rec_test_2 rec_test_2::$r0 = new BasicTest -->
<g id="node12" class="node">
<title>rec_test_2 rec_test_2::$r0 = new BasicTest</title>
<polygon fill="none" stroke="black" points="1495.75,-673.5 1244.25,-673.5 1244.25,-637.5 1495.75,-637.5 1495.75,-673.5"/>
<text text-anchor="middle" x="1370" y="-650.45" font-family="Times,serif" font-size="14.00">rec_test_2 rec_test_2::$r0 = new BasicTest</text>
</g>
<!-- rec_test_2 rec_test_2::r1 := @parameter0: BasicTest&#45;&gt;rec_test_2 rec_test_2::$r0 = new BasicTest -->
<g id="edge9" class="edge">
<title>rec_test_2 rec_test_2::r1 := @parameter0: BasicTest&#45;&gt;rec_test_2 rec_test_2::$r0 = new BasicTest</title>
<path fill="none" stroke="red" d="M1370,-758.2C1370,-739.07 1370,-707.96 1370,-685.18"/>
<polygon fill="red" stroke="red" points="1373.5,-685.34 1370,-675.34 1366.5,-685.34 1373.5,-685.34"/>
<text text-anchor="start" x="1370" y="-718.95" font-family="Times,serif" font-size="14.00">[] =&gt; {}</text>
</g>
<!-- rec_test_2 specialinvoke rec_test_2::$r0.&lt;BasicTest: void &lt;init&gt;()&gt;() -->
<g id="node13" class="node">
<title>rec_test_2 specialinvoke rec_test_2::$r0.&lt;BasicTest: void &lt;init&gt;()&gt;()</title>
<polygon fill="none" stroke="black" points="1567.75,-519.5 1172.25,-519.5 1172.25,-483.5 1567.75,-483.5 1567.75,-519.5"/>
<text text-anchor="middle" x="1370" y="-496.45" font-family="Times,serif" font-size="14.00">rec_test_2 specialinvoke rec_test_2::$r0.&lt;BasicTest: void &lt;init&gt;()&gt;()</text>
</g>
<!-- rec_test_2 rec_test_2::$r0 = new BasicTest&#45;&gt;rec_test_2 specialinvoke rec_test_2::$r0.&lt;BasicTest: void &lt;init&gt;()&gt;() -->
<g id="edge10" class="edge">
<title>rec_test_2 rec_test_2::$r0 = new BasicTest&#45;&gt;rec_test_2 specialinvoke rec_test_2::$r0.&lt;BasicTest: void &lt;init&gt;()&gt;()</title>
<path fill="none" stroke="red" d="M1370,-637.06C1370,-611.18 1370,-562.3 1370,-531.12"/>
<polygon fill="red" stroke="red" points="1373.5,-531.25 1370,-521.25 1366.5,-531.25 1373.5,-531.25"/>
<text text-anchor="start" x="1370" y="-581.45" font-family="Times,serif" font-size="14.00">[] =&gt; {}</text>
</g>
<!-- rec_test_2 rec_test_2::$r2 = rec_test_2::r1.&lt;BasicTest: BasicTest f&gt; -->
<g id="node14" class="node">
<title>rec_test_2 rec_test_2::$r2 = rec_test_2::r1.&lt;BasicTest: BasicTest f&gt;</title>
<polygon fill="none" stroke="black" points="1567.38,-365.5 1178.62,-365.5 1178.62,-329.5 1567.38,-329.5 1567.38,-365.5"/>
<text text-anchor="middle" x="1373" y="-342.45" font-family="Times,serif" font-size="14.00">rec_test_2 rec_test_2::$r2 = rec_test_2::r1.&lt;BasicTest: BasicTest f&gt;</text>
</g>
<!-- rec_test_2 specialinvoke rec_test_2::$r0.&lt;BasicTest: void &lt;init&gt;()&gt;()&#45;&gt;rec_test_2 rec_test_2::$r2 = rec_test_2::r1.&lt;BasicTest: BasicTest f&gt; -->
<g id="edge11" class="edge">
<title>rec_test_2 specialinvoke rec_test_2::$r0.&lt;BasicTest: void &lt;init&gt;()&gt;()&#45;&gt;rec_test_2 rec_test_2::$r2 = rec_test_2::r1.&lt;BasicTest: BasicTest f&gt;</title>
<path fill="none" stroke="red" d="M1370.34,-483.06C1370.86,-457.18 1371.82,-408.3 1372.44,-377.12"/>
<polygon fill="red" stroke="red" points="1375.93,-377.31 1372.63,-367.25 1368.93,-377.18 1375.93,-377.31"/>
<text text-anchor="start" x="1372" y="-427.45" font-family="Times,serif" font-size="14.00">[] =&gt; {}</text>
</g>
<!-- rec_test_2 if rec_test_2::$r2 == null goto staticinvoke &lt;BasicTest: BasicTest rec_test_2(BasicTest)&gt;(rec_test_2::$r0) -->
<g id="node15" class="node">
<title>rec_test_2 if rec_test_2::$r2 == null goto staticinvoke &lt;BasicTest: BasicTest rec_test_2(BasicTest)&gt;(rec_test_2::$r0)</title>
<polygon fill="none" stroke="black" points="1706.88,-261 1051.12,-261 1051.12,-225 1706.88,-225 1706.88,-261"/>
<text text-anchor="middle" x="1379" y="-237.95" font-family="Times,serif" font-size="14.00">rec_test_2 if rec_test_2::$r2 == null goto staticinvoke &lt;BasicTest: BasicTest rec_test_2(BasicTest)&gt;(rec_test_2::$r0)</text>
</g>
<!-- rec_test_2 rec_test_2::$r2 = rec_test_2::r1.&lt;BasicTest: BasicTest f&gt;&#45;&gt;rec_test_2 if rec_test_2::$r2 == null goto staticinvoke &lt;BasicTest: BasicTest rec_test_2(BasicTest)&gt;(rec_test_2::$r0) -->
<g id="edge12" class="edge">
<title>rec_test_2 rec_test_2::$r2 = rec_test_2::r1.&lt;BasicTest: BasicTest f&gt;&#45;&gt;rec_test_2 if rec_test_2::$r2 == null goto staticinvoke &lt;BasicTest: BasicTest rec_test_2(BasicTest)&gt;(rec_test_2::$r0)</title>
<path fill="none" stroke="red" d="M1374.02,-329.11C1374.92,-313.72 1376.25,-290.96 1377.31,-272.85"/>
<polygon fill="red" stroke="red" points="1380.8,-273.17 1377.89,-262.98 1373.81,-272.76 1380.8,-273.17"/>
<text text-anchor="start" x="1376" y="-298.2" font-family="Times,serif" font-size="14.00">[] =&gt; {}</text>
</g>
<!-- rec_test_2 return null -->
<g id="node16" class="node">
<title>rec_test_2 return null</title>
<polygon fill="none" stroke="black" points="1198.12,-156.5 1065.88,-156.5 1065.88,-120.5 1198.12,-120.5 1198.12,-156.5"/>
<text text-anchor="middle" x="1132" y="-133.45" font-family="Times,serif" font-size="14.00">rec_test_2 return null</text>
</g>
<!-- rec_test_2 if rec_test_2::$r2 == null goto staticinvoke &lt;BasicTest: BasicTest rec_test_2(BasicTest)&gt;(rec_test_2::$r0)&#45;&gt;rec_test_2 return null -->
<g id="edge13" class="edge">
<title>rec_test_2 if rec_test_2::$r2 == null goto staticinvoke &lt;BasicTest: BasicTest rec_test_2(BasicTest)&gt;(rec_test_2::$r0)&#45;&gt;rec_test_2 return null</title>
<path fill="none" stroke="red" d="M1337.1,-224.61C1295.05,-207.16 1230.16,-180.23 1184.65,-161.35"/>
<polygon fill="red" stroke="red" points="1186.08,-158.15 1175.5,-157.55 1183.4,-164.62 1186.08,-158.15"/>
<text text-anchor="start" x="1292" y="-193.7" font-family="Times,serif" font-size="14.00">[] =&gt; {}</text>
</g>
<!-- rec_test_2 staticinvoke &lt;BasicTest: BasicTest rec_test_2(BasicTest)&gt;(rec_test_2::$r0) -->
<g id="node17" class="node">
<title>rec_test_2 staticinvoke &lt;BasicTest: BasicTest rec_test_2(BasicTest)&gt;(rec_test_2::$r0)</title>
<polygon fill="none" stroke="black" points="1702.12,-156.5 1215.88,-156.5 1215.88,-120.5 1702.12,-120.5 1702.12,-156.5"/>
<text text-anchor="middle" x="1459" y="-133.45" font-family="Times,serif" font-size="14.00">rec_test_2 staticinvoke &lt;BasicTest: BasicTest rec_test_2(BasicTest)&gt;(rec_test_2::$r0)</text>
</g>
<!-- rec_test_2 if rec_test_2::$r2 == null goto staticinvoke &lt;BasicTest: BasicTest rec_test_2(BasicTest)&gt;(rec_test_2::$r0)&#45;&gt;rec_test_2 staticinvoke &lt;BasicTest: BasicTest rec_test_2(BasicTest)&gt;(rec_test_2::$r0) -->
<g id="edge14" class="edge">
<title>rec_test_2 if rec_test_2::$r2 == null goto staticinvoke &lt;BasicTest: BasicTest rec_test_2(BasicTest)&gt;(rec_test_2::$r0)&#45;&gt;rec_test_2 staticinvoke &lt;BasicTest: BasicTest rec_test_2(BasicTest)&gt;(rec_test_2::$r0)</title>
<path fill="none" stroke="red" d="M1392.57,-224.61C1405.1,-208.56 1423.89,-184.49 1438.29,-166.04"/>
<polygon fill="red" stroke="red" points="1441.04,-168.2 1444.43,-158.17 1435.52,-163.9 1441.04,-168.2"/>
<text text-anchor="start" x="1430" y="-193.7" font-family="Times,serif" font-size="14.00">[] =&gt; {}</text>
</g>
<!-- rec_test_2 return null&#45;&gt;REC_TEST_1 return REC_TEST_1::$r0 -->
<g id="edge20" class="edge">
<title>rec_test_2 return null&#45;&gt;REC_TEST_1 return REC_TEST_1::$r0</title>
<path fill="none" stroke="red" stroke-dasharray="1,5" d="M1065.69,-124.44C1036.64,-118.36 1002.23,-110.67 971.5,-102.5 919.44,-88.66 861.18,-70.13 818.53,-55.99"/>
<polygon fill="red" stroke="red" points="819.79,-52.72 809.2,-52.88 817.58,-59.36 819.79,-52.72"/>
<text text-anchor="middle" x="1052.75" y="-81.2" font-family="Times,serif" font-size="14.00">BasicTest.REC_TEST_1.in03</text>
</g>
<!-- rec_test_2 return rec_test_2::$r0 -->
<g id="node18" class="node">
<title>rec_test_2 return rec_test_2::$r0</title>
<polygon fill="none" stroke="black" points="1250.12,-52 1057.88,-52 1057.88,-16 1250.12,-16 1250.12,-52"/>
<text text-anchor="middle" x="1154" y="-28.95" font-family="Times,serif" font-size="14.00">rec_test_2 return rec_test_2::$r0</text>
</g>
<!-- rec_test_2 return null&#45;&gt;rec_test_2 return rec_test_2::$r0 -->
<g id="edge19" class="edge">
<title>rec_test_2 return null&#45;&gt;rec_test_2 return rec_test_2::$r0</title>
<path fill="none" stroke="red" stroke-dasharray="1,5" d="M1135.73,-120.11C1139.05,-104.65 1143.97,-81.75 1147.86,-63.59"/>
<polygon fill="red" stroke="red" points="1151.26,-64.46 1149.93,-53.95 1144.41,-63 1151.26,-64.46"/>
<text text-anchor="middle" x="1216.12" y="-81.2" font-family="Times,serif" font-size="14.00">BasicTest.rec_test_2.in06</text>
</g>
<!-- rec_test_2 staticinvoke &lt;BasicTest: BasicTest rec_test_2(BasicTest)&gt;(rec_test_2::$r0)&#45;&gt;rec_test_2 rec_test_2::r1 := @parameter0: BasicTest -->
<g id="edge21" class="edge">
<title>rec_test_2 staticinvoke &lt;BasicTest: BasicTest rec_test_2(BasicTest)&gt;(rec_test_2::$r0)&#45;&gt;rec_test_2 rec_test_2::r1 := @parameter0: BasicTest</title>
<path fill="none" stroke="red" stroke-dasharray="1,5" d="M1610.13,-156.91C1651.04,-169.34 1690.9,-190.2 1716,-225 1725.36,-237.98 1719.75,-245.45 1716,-261 1667.77,-461.2 1635.31,-514.05 1505,-673.5 1478.53,-705.89 1439.74,-733.81 1410.52,-752.2"/>
<polygon fill="red" stroke="red" points="1408.97,-749.05 1402.3,-757.28 1412.65,-755.01 1408.97,-749.05"/>
<text text-anchor="middle" x="1752.12" y="-435.7" font-family="Times,serif" font-size="14.00">BasicTest.rec_test_2.in06</text>
<text text-anchor="start" x="1682" y="-419.2" font-family="Times,serif" font-size="14.00">[] =&gt; {}</text>
</g>
<!-- rec_test_2 staticinvoke &lt;BasicTest: BasicTest rec_test_2(BasicTest)&gt;(rec_test_2::$r0)&#45;&gt;rec_test_2 return rec_test_2::$r0 -->
<g id="edge15" class="edge">
<title>rec_test_2 staticinvoke &lt;BasicTest: BasicTest rec_test_2(BasicTest)&gt;(rec_test_2::$r0)&#45;&gt;rec_test_2 return rec_test_2::$r0</title>
<path fill="none" stroke="red" d="M1419.58,-120.08C1385.66,-105.51 1335.2,-84.77 1290,-70 1273.94,-64.75 1256.6,-59.78 1239.86,-55.31"/>
<polygon fill="red" stroke="red" points="1240.99,-51.99 1230.43,-52.84 1239.22,-58.76 1240.99,-51.99"/>
<text text-anchor="start" x="1373" y="-89.2" font-family="Times,serif" font-size="14.00">[] =&gt; {}</text>
</g>
<!-- rec_test_2 return rec_test_2::$r0&#45;&gt;REC_TEST_1 return REC_TEST_1::$r0 -->
<g id="edge23" class="edge">
<title>rec_test_2 return rec_test_2::$r0&#45;&gt;REC_TEST_1 return REC_TEST_1::$r0</title>
<path fill="none" stroke="red" stroke-dasharray="1,5" d="M1057.55,-34C1006.59,-34 943.31,-34 887.97,-34"/>
<polygon fill="red" stroke="red" points="888.17,-30.5 878.17,-34 888.16,-37.5 888.17,-30.5"/>
<text text-anchor="middle" x="967.12" y="-40.2" font-family="Times,serif" font-size="14.00">BasicTest.REC_TEST_1.in03</text>
</g>
<!-- rec_test_2 return rec_test_2::$r0&#45;&gt;rec_test_2 return rec_test_2::$r0 -->
<g id="edge22" class="edge">
<title>rec_test_2 return rec_test_2::$r0&#45;&gt;rec_test_2 return rec_test_2::$r0</title>
<path fill="none" stroke="red" stroke-dasharray="1,5" d="M1250.58,-42.24C1261.24,-40.68 1268.12,-37.93 1268.12,-34 1268.12,-31.67 1265.7,-29.75 1261.5,-28.25"/>
<polygon fill="red" stroke="red" points="1262.58,-24.91 1252.06,-26.1 1261.03,-31.73 1262.58,-24.91"/>
<text text-anchor="middle" x="1338.25" y="-28.95" font-family="Times,serif" font-size="14.00">BasicTest.rec_test_2.in06</text>
</g>
</g>
</svg>
