<?xml version="1.0" standalone="no"?>
<svg xmlns="http://www.w3.org/2000/svg" xmlns:xlink="http://www.w3.org/1999/xlink" width="2025pt" height="1418pt" viewBox="0.00 0.00 2025.00 1417.60">
<g id="graph0" class="graph" transform="translate(33.964561031366884,1747.9297696860244) scale(2.1027596197323906)" data-name="G">

<polygon fill="white" stroke="none" points="-4,4 -4,-1413.6 2021,-1413.6 2021,4 -4,4" style=""/>
<g id="clust1" class="cluster" data-name="cluster_0">

<polygon fill="none" stroke="black" points="8,-8 8,-1401.6 470,-1401.6 470,-8 8,-8" style=""/>
</g>
<g id="clust2" class="cluster" data-name="cluster_1">

<polygon fill="none" stroke="black" points="839,-339.2 839,-764.8 1291,-764.8 1291,-339.2 839,-339.2" style=""/>
</g>
<g id="clust3" class="cluster" data-name="cluster_2">

<polygon fill="none" stroke="black" points="1299,-112.8 1299,-391.2 1749,-391.2 1749,-112.8 1299,-112.8" style=""/>
</g>
<g id="clust4" class="cluster" data-name="cluster_3">

<polygon fill="none" stroke="black" points="1757,-217.6 1757,-391.2 2009,-391.2 2009,-217.6 1757,-217.6" style=""/>
</g>
<!-- test2 test2::r4 = null -->
<g id="node1" class="node" pointer-events="visible" data-name="test2 test2::r4 = null">

<polygon fill="none" stroke="black" points="303.5,-1393.6 174.5,-1393.6 174.5,-1357.6 303.5,-1357.6 303.5,-1393.6" style=""/>
<text text-anchor="middle" x="239" y="-1371.4" font-family="Times,serif" font-size="14.00" style="">test2 test2::r4 = null</text>
</g>
<!-- test2 test2::$r0 = new PubTest -->
<g id="node2" class="node" pointer-events="visible" data-name="test2 test2::$r0 = new PubTest">

<polygon fill="none" stroke="black" points="332.43,-1272 145.57,-1272 145.57,-1236 332.43,-1236 332.43,-1272" style=""/>
<text text-anchor="middle" x="239" y="-1249.8" font-family="Times,serif" font-size="14.00" style="">test2 test2::$r0 = new PubTest</text>
</g>
<!-- test2 test2::r4 = null&#45;&gt;test2 test2::$r0 = new PubTest -->
<g id="edge1" class="edge" data-name="test2 test2::r4 = null-&gt;test2 test2::$r0 = new PubTest">

<path fill="none" stroke="black" d="M239,-1357.21C239,-1337.99 239,-1306.72 239,-1283.83" style=""/>
<polygon fill="black" stroke="black" points="242.5,-1283.93 239,-1273.93 235.5,-1283.93 242.5,-1283.93" style=""/>
<text text-anchor="start" x="239" y="-1327" font-family="Times,serif" font-size="14.00" style="">[] =&gt; {test2::r4 -&gt; [null], </text>
<text text-anchor="start" x="239" y="-1310.2" font-family="Times,serif" font-size="14.00" style="">}</text>
</g>
<!-- test2 specialinvoke test2::$r0.&lt;PubTest: void &lt;init&gt;()&gt;() -->
<g id="node3" class="node" pointer-events="visible" data-name="test2 specialinvoke test2::$r0.&lt;PubTest: void &lt;init&gt;()&gt;()">

<polygon fill="none" stroke="black" points="405.87,-1133.6 72.13,-1133.6 72.13,-1097.6 405.87,-1097.6 405.87,-1133.6" style=""/>
<text text-anchor="middle" x="239" y="-1111.4" font-family="Times,serif" font-size="14.00" style="">test2 specialinvoke test2::$r0.&lt;PubTest: void &lt;init&gt;()&gt;()</text>
</g>
<!-- test2 test2::$r0 = new PubTest&#45;&gt;test2 specialinvoke test2::$r0.&lt;PubTest: void &lt;init&gt;()&gt;() -->
<g id="edge2" class="edge" data-name="test2 test2::$r0 = new PubTest-&gt;test2 specialinvoke test2::$r0.&lt;PubTest: void &lt;init&gt;()&gt;()">

<path fill="none" stroke="black" d="M239,-1235.72C239,-1212.87 239,-1172.29 239,-1144.92" style=""/>
<polygon fill="black" stroke="black" points="242.5,-1145.25 239,-1135.25 235.5,-1145.25 242.5,-1145.25" style=""/>
<text text-anchor="start" x="239" y="-1205.4" font-family="Times,serif" font-size="14.00" style="">[] =&gt; {test2::r4 -&gt; [null], </text>
<text text-anchor="start" x="239" y="-1188.6" font-family="Times,serif" font-size="14.00" style="">test2::$r0 -&gt; [test2.new01], </text>
<text text-anchor="start" x="239" y="-1171.8" font-family="Times,serif" font-size="14.00" style="">}</text>
</g>
<!-- test2 test2::$r1 = staticinvoke &lt;PubTest: PubTest foo2(PubTest)&gt;(test2::$r0) -->
<g id="node4" class="node" pointer-events="visible" data-name="test2 test2::$r1 = staticinvoke &lt;PubTest: PubTest foo2(PubTest)&gt;(test2::$r0)">

<polygon fill="none" stroke="black" points="462.41,-995.2 15.59,-995.2 15.59,-959.2 462.41,-959.2 462.41,-995.2" style=""/>
<text text-anchor="middle" x="239" y="-973" font-family="Times,serif" font-size="14.00" style="">test2 test2::$r1 = staticinvoke &lt;PubTest: PubTest foo2(PubTest)&gt;(test2::$r0)</text>
</g>
<!-- test2 specialinvoke test2::$r0.&lt;PubTest: void &lt;init&gt;()&gt;()&#45;&gt;test2 test2::$r1 = staticinvoke &lt;PubTest: PubTest foo2(PubTest)&gt;(test2::$r0) -->
<g id="edge3" class="edge" data-name="test2 specialinvoke test2::$r0.&lt;PubTest: void &lt;init&gt;()&gt;()-&gt;test2 test2::$r1 = staticinvoke &lt;PubTest: PubTest foo2(PubTest)&gt;(test2::$r0)">

<path fill="none" stroke="black" d="M239,-1097.32C239,-1074.47 239,-1033.89 239,-1006.52" style=""/>
<polygon fill="black" stroke="black" points="242.5,-1006.85 239,-996.85 235.5,-1006.85 242.5,-1006.85" style=""/>
<text text-anchor="start" x="239" y="-1067" font-family="Times,serif" font-size="14.00" style="">[] =&gt; {test2::r4 -&gt; [null], </text>
<text text-anchor="start" x="239" y="-1050.2" font-family="Times,serif" font-size="14.00" style="">test2::$r0 -&gt; [test2.new01], </text>
<text text-anchor="start" x="239" y="-1033.4" font-family="Times,serif" font-size="14.00" style="">}</text>
</g>
<!-- test2 test2::$r2 = new PubTest -->
<g id="node5" class="node" pointer-events="visible" data-name="test2 test2::$r2 = new PubTest">

<polygon fill="none" stroke="black" points="332.43,-756.8 145.57,-756.8 145.57,-720.8 332.43,-720.8 332.43,-756.8" style=""/>
<text text-anchor="middle" x="239" y="-734.6" font-family="Times,serif" font-size="14.00" style="">test2 test2::$r2 = new PubTest</text>
</g>
<!-- test2 test2::$r1 = staticinvoke &lt;PubTest: PubTest foo2(PubTest)&gt;(test2::$r0)&#45;&gt;test2 test2::$r2 = new PubTest -->
<g id="edge4" class="edge" data-name="test2 test2::$r1 = staticinvoke &lt;PubTest: PubTest foo2(PubTest)&gt;(test2::$r0)-&gt;test2 test2::$r2 = new PubTest">

<path fill="none" stroke="black" d="M239,-958.82C239,-918.51 239,-818.36 239,-768.68" style=""/>
<polygon fill="black" stroke="black" points="242.5,-768.72 239,-758.72 235.5,-768.72 242.5,-768.72" style=""/>
<text text-anchor="start" x="239" y="-861.8" font-family="Times,serif" font-size="14.00" style="">[] =&gt; {}</text>
</g>
<!-- foo2 foo2::r0 := @parameter0: PubTest -->
<g id="node11" class="node" pointer-events="visible" data-name="foo2 foo2::r0 := @parameter0: PubTest">

<polygon fill="none" stroke="black" points="1085.18,-756.8 846.82,-756.8 846.82,-720.8 1085.18,-720.8 1085.18,-756.8" style=""/>
<text text-anchor="middle" x="966" y="-734.6" font-family="Times,serif" font-size="14.00" style="">foo2 foo2::r0 := @parameter0: PubTest</text>
</g>
<!-- test2 test2::$r1 = staticinvoke &lt;PubTest: PubTest foo2(PubTest)&gt;(test2::$r0)&#45;&gt;foo2 foo2::r0 := @parameter0: PubTest -->
<g id="edge16" class="edge" data-name="test2 test2::$r1 = staticinvoke &lt;PubTest: PubTest foo2(PubTest)&gt;(test2::$r0)-&gt;foo2 foo2::r0 := @parameter0: PubTest">

<path fill="none" stroke="red" stroke-dasharray="1,5" d="M292.75,-958.72C424.02,-916.04 760.47,-806.63 901.87,-760.65" style=""/>
<polygon fill="red" stroke="red" points="902.66,-764.08 911.08,-757.66 900.49,-757.42 902.66,-764.08" style=""/>
<text text-anchor="middle" x="993.54" y="-928.6" font-family="Times,serif" font-size="14.00" style="">PubTest.test2.in03</text>
<text text-anchor="start" x="844" y="-911.8" font-family="Times,serif" font-size="14.00" style="">[PubTest.test2.in06] =&gt; {test2::$r2 -&gt; [test2.new04], </text>
<text text-anchor="start" x="844" y="-895" font-family="Times,serif" font-size="14.00" style="">@parameter0: PubTest -&gt; [test2.new04], </text>
<text text-anchor="start" x="844" y="-878.2" font-family="Times,serif" font-size="14.00" style="">}</text>
<text text-anchor="start" x="844" y="-845.4" font-family="Times,serif" font-size="14.00" style="">[PubTest.test2.in03] =&gt; {test2::r4 -&gt; [null], </text>
<text text-anchor="start" x="844" y="-828.6" font-family="Times,serif" font-size="14.00" style="">test2::$r0 -&gt; [test2.new01], </text>
<text text-anchor="start" x="844" y="-811.8" font-family="Times,serif" font-size="14.00" style="">@parameter0: PubTest -&gt; [test2.new01], </text>
<text text-anchor="start" x="844" y="-795" font-family="Times,serif" font-size="14.00" style="">}</text>
</g>
<!-- test2 specialinvoke test2::$r2.&lt;PubTest: void &lt;init&gt;()&gt;() -->
<g id="node6" class="node" pointer-events="visible" data-name="test2 specialinvoke test2::$r2.&lt;PubTest: void &lt;init&gt;()&gt;()">

<polygon fill="none" stroke="black" points="349.87,-570 16.13,-570 16.13,-534 349.87,-534 349.87,-570" style=""/>
<text text-anchor="middle" x="183" y="-547.8" font-family="Times,serif" font-size="14.00" style="">test2 specialinvoke test2::$r2.&lt;PubTest: void &lt;init&gt;()&gt;()</text>
</g>
<!-- test2 test2::$r2 = new PubTest&#45;&gt;test2 specialinvoke test2::$r2.&lt;PubTest: void &lt;init&gt;()&gt;() -->
<g id="edge5" class="edge" data-name="test2 test2::$r2 = new PubTest-&gt;test2 specialinvoke test2::$r2.&lt;PubTest: void &lt;init&gt;()&gt;()">

<path fill="none" stroke="black" d="M197.85,-720.35C191.15,-715.65 185.11,-709.86 181.13,-702.8 159.84,-665.03 167.07,-612.93 174.7,-581.18" style=""/>
<polygon fill="black" stroke="black" points="178.08,-582.1 177.21,-571.54 171.31,-580.34 178.08,-582.1" style=""/>
<text text-anchor="start" x="182" y="-690.2" font-family="Times,serif" font-size="14.00" style="">[] =&gt; {test2::$r2 -&gt; [test2.new04], </text>
<text text-anchor="start" x="182" y="-673.4" font-family="Times,serif" font-size="14.00" style="">}</text>
</g>
<!-- test2 test2::$r3 = staticinvoke &lt;PubTest: PubTest foo2(PubTest)&gt;(test2::$r2) -->
<g id="node7" class="node" pointer-events="visible" data-name="test2 test2::$r3 = staticinvoke &lt;PubTest: PubTest foo2(PubTest)&gt;(test2::$r2)">

<polygon fill="none" stroke="black" points="462.41,-383.2 15.59,-383.2 15.59,-347.2 462.41,-347.2 462.41,-383.2" style=""/>
<text text-anchor="middle" x="239" y="-361" font-family="Times,serif" font-size="14.00" style="">test2 test2::$r3 = staticinvoke &lt;PubTest: PubTest foo2(PubTest)&gt;(test2::$r2)</text>
</g>
<!-- test2 specialinvoke test2::$r2.&lt;PubTest: void &lt;init&gt;()&gt;()&#45;&gt;test2 test2::$r3 = staticinvoke &lt;PubTest: PubTest foo2(PubTest)&gt;(test2::$r2) -->
<g id="edge6" class="edge" data-name="test2 specialinvoke test2::$r2.&lt;PubTest: void &lt;init&gt;()&gt;()-&gt;test2 test2::$r3 = staticinvoke &lt;PubTest: PubTest foo2(PubTest)&gt;(test2::$r2)">

<path fill="none" stroke="black" d="M177.59,-533.92C169.38,-504.62 157.12,-443.79 181.13,-401.2 183.25,-397.45 185.94,-394.06 189.01,-391" style=""/>
<polygon fill="black" stroke="black" points="191.23,-393.7 196.69,-384.61 186.76,-388.32 191.23,-393.7" style=""/>
<text text-anchor="start" x="182" y="-438.2" font-family="Times,serif" font-size="14.00" style="">[] =&gt; {test2::$r2 -&gt; [test2.new04], </text>
<text text-anchor="start" x="182" y="-421.4" font-family="Times,serif" font-size="14.00" style="">}</text>
</g>
<!-- test2 if test2::$r1 != test2::$r3 goto return test2::r4 -->
<g id="node8" class="node" pointer-events="visible" data-name="test2 if test2::$r1 != test2::$r3 goto return test2::r4">

<polygon fill="none" stroke="black" points="425.02,-261.6 126.98,-261.6 126.98,-225.6 425.02,-225.6 425.02,-261.6" style=""/>
<text text-anchor="middle" x="276" y="-239.4" font-family="Times,serif" font-size="14.00" style="">test2 if test2::$r1 != test2::$r3 goto return test2::r4</text>
</g>
<!-- test2 test2::$r3 = staticinvoke &lt;PubTest: PubTest foo2(PubTest)&gt;(test2::$r2)&#45;&gt;test2 if test2::$r1 != test2::$r3 goto return test2::r4 -->
<g id="edge7" class="edge" data-name="test2 test2::$r3 = staticinvoke &lt;PubTest: PubTest foo2(PubTest)&gt;(test2::$r2)-&gt;test2 if test2::$r1 != test2::$r3 goto return test2::r4">

<path fill="none" stroke="red" d="M236.56,-346.9C234.83,-329.24 234.21,-301.4 243.45,-279.6 244.72,-276.59 246.37,-273.68 248.26,-270.91" style=""/>
<polygon fill="red" stroke="red" points="250.87,-273.25 254.4,-263.26 245.41,-268.87 250.87,-273.25" style=""/>
<text text-anchor="start" x="244" y="-308.2" font-family="Times,serif" font-size="14.00" style="">[] =&gt; {}</text>
</g>
<!-- test2 test2::$r3 = staticinvoke &lt;PubTest: PubTest foo2(PubTest)&gt;(test2::$r2)&#45;&gt;foo2 foo2::r0 := @parameter0: PubTest -->
<g id="edge17" class="edge" data-name="test2 test2::$r3 = staticinvoke &lt;PubTest: PubTest foo2(PubTest)&gt;(test2::$r2)-&gt;foo2 foo2::r0 := @parameter0: PubTest">

<path fill="none" stroke="red" stroke-dasharray="1,5" d="M365.08,-383.65C417.78,-397.7 474.46,-423.05 508,-468.8 552.48,-529.46 487.13,-580.64 538.91,-635.2 579.27,-677.71 725.15,-706.16 835.28,-722.11" style=""/>
<polygon fill="red" stroke="red" points="834.6,-725.55 844.99,-723.5 835.59,-718.62 834.6,-725.55" style=""/>
<text text-anchor="middle" x="687.54" y="-622.6" font-family="Times,serif" font-size="14.00" style="">PubTest.test2.in06</text>
<text text-anchor="start" x="538" y="-605.8" font-family="Times,serif" font-size="14.00" style="">[PubTest.test2.in06] =&gt; {test2::$r2 -&gt; [test2.new04], </text>
<text text-anchor="start" x="538" y="-589" font-family="Times,serif" font-size="14.00" style="">@parameter0: PubTest -&gt; [test2.new04], </text>
<text text-anchor="start" x="538" y="-572.2" font-family="Times,serif" font-size="14.00" style="">}</text>
<text text-anchor="start" x="538" y="-539.4" font-family="Times,serif" font-size="14.00" style="">[PubTest.test2.in03] =&gt; {test2::r4 -&gt; [null], </text>
<text text-anchor="start" x="538" y="-522.6" font-family="Times,serif" font-size="14.00" style="">test2::$r0 -&gt; [test2.new01], </text>
<text text-anchor="start" x="538" y="-505.8" font-family="Times,serif" font-size="14.00" style="">@parameter0: PubTest -&gt; [test2.new01], </text>
<text text-anchor="start" x="538" y="-489" font-family="Times,serif" font-size="14.00" style="">}</text>
</g>
<!-- test2 test2::r4 = test2::$r1 -->
<g id="node9" class="node" pointer-events="visible" data-name="test2 test2::r4 = test2::$r1">

<polygon fill="none" stroke="black" points="281.6,-156.8 122.4,-156.8 122.4,-120.8 281.6,-120.8 281.6,-156.8" style=""/>
<text text-anchor="middle" x="202" y="-134.6" font-family="Times,serif" font-size="14.00" style="">test2 test2::r4 = test2::$r1</text>
</g>
<!-- test2 if test2::$r1 != test2::$r3 goto return test2::r4&#45;&gt;test2 test2::r4 = test2::$r1 -->
<g id="edge8" class="edge" data-name="test2 if test2::$r1 != test2::$r3 goto return test2::r4-&gt;test2 test2::r4 = test2::$r1">

<path fill="none" stroke="red" d="M263.45,-225.16C251.79,-208.97 234.27,-184.63 220.92,-166.08" style=""/>
<polygon fill="red" stroke="red" points="223.93,-164.28 215.25,-158.21 218.25,-168.37 223.93,-164.28" style=""/>
<text text-anchor="start" x="249" y="-195" font-family="Times,serif" font-size="14.00" style="">[] =&gt; {}</text>
</g>
<!-- test2 return test2::r4 -->
<g id="node10" class="node" pointer-events="visible" data-name="test2 return test2::r4">

<polygon fill="none" stroke="black" points="353.25,-52 224.75,-52 224.75,-16 353.25,-16 353.25,-52" style=""/>
<text text-anchor="middle" x="289" y="-29.8" font-family="Times,serif" font-size="14.00" style="">test2 return test2::r4</text>
</g>
<!-- test2 if test2::$r1 != test2::$r3 goto return test2::r4&#45;&gt;test2 return test2::r4 -->
<g id="edge9" class="edge" data-name="test2 if test2::$r1 != test2::$r3 goto return test2::r4-&gt;test2 return test2::r4">

<path fill="none" stroke="red" d="M289.77,-225.34C293.38,-219.94 296.86,-213.78 299,-207.6 314.3,-163.43 306,-149.51 308,-102.8 308.62,-88.24 311.59,-84.13 308,-70 307.38,-67.55 306.55,-65.09 305.58,-62.66" style=""/>
<polygon fill="red" stroke="red" points="308.81,-61.32 301.33,-53.82 302.5,-64.35 308.81,-61.32" style=""/>
<text text-anchor="start" x="308" y="-142.6" font-family="Times,serif" font-size="14.00" style="">[] =&gt; {}</text>
</g>
<!-- test2 test2::r4 = test2::$r1&#45;&gt;test2 return test2::r4 -->
<g id="edge10" class="edge" data-name="test2 test2::r4 = test2::$r1-&gt;test2 return test2::r4">

<path fill="none" stroke="red" d="M216.76,-120.36C230.59,-104.02 251.44,-79.38 267.19,-60.77" style=""/>
<polygon fill="red" stroke="red" points="269.69,-63.23 273.48,-53.34 264.35,-58.71 269.69,-63.23" style=""/>
<text text-anchor="start" x="258" y="-90.2" font-family="Times,serif" font-size="14.00" style="">[] =&gt; {}</text>
</g>
<!-- foo2 foo2::$r1 = staticinvoke &lt;PubTest: PubTest bar2(PubTest)&gt;(foo2::r0) -->
<g id="node12" class="node" pointer-events="visible" data-name="foo2 foo2::$r1 = staticinvoke &lt;PubTest: PubTest bar2(PubTest)&gt;(foo2::r0)">

<polygon fill="none" stroke="black" points="1283.29,-570 846.71,-570 846.71,-534 1283.29,-534 1283.29,-570" style=""/>
<text text-anchor="middle" x="1065" y="-547.8" font-family="Times,serif" font-size="14.00" style="">foo2 foo2::$r1 = staticinvoke &lt;PubTest: PubTest bar2(PubTest)&gt;(foo2::r0)</text>
</g>
<!-- foo2 foo2::r0 := @parameter0: PubTest&#45;&gt;foo2 foo2::$r1 = staticinvoke &lt;PubTest: PubTest bar2(PubTest)&gt;(foo2::r0) -->
<g id="edge11" class="edge" data-name="foo2 foo2::r0 := @parameter0: PubTest-&gt;foo2 foo2::$r1 = staticinvoke &lt;PubTest: PubTest bar2(PubTest)&gt;(foo2::r0)">

<path fill="none" stroke="red" d="M975.31,-720.41C992.56,-688.22 1029.59,-619.09 1050.27,-580.5" style=""/>
<polygon fill="red" stroke="red" points="1053.29,-582.28 1054.92,-571.81 1047.12,-578.97 1053.29,-582.28" style=""/>
<text text-anchor="start" x="1009" y="-681.8" font-family="Times,serif" font-size="14.00" style="">[] =&gt; {}</text>
</g>
<!-- foo2 return foo2::$r1 -->
<g id="node13" class="node" pointer-events="visible" data-name="foo2 return foo2::$r1">

<polygon fill="none" stroke="black" points="1022.19,-383.2 887.81,-383.2 887.81,-347.2 1022.19,-347.2 1022.19,-383.2" style=""/>
<text text-anchor="middle" x="955" y="-361" font-family="Times,serif" font-size="14.00" style="">foo2 return foo2::$r1</text>
</g>
<!-- foo2 foo2::$r1 = staticinvoke &lt;PubTest: PubTest bar2(PubTest)&gt;(foo2::r0)&#45;&gt;foo2 return foo2::$r1 -->
<g id="edge12" class="edge" data-name="foo2 foo2::$r1 = staticinvoke &lt;PubTest: PubTest bar2(PubTest)&gt;(foo2::r0)-&gt;foo2 return foo2::$r1">

<path fill="none" stroke="red" d="M1054.65,-533.61C1035.41,-501.28 993.99,-431.7 971.07,-393.2" style=""/>
<polygon fill="red" stroke="red" points="974.3,-391.78 966.18,-384.97 968.28,-395.36 974.3,-391.78" style=""/>
<text text-anchor="start" x="1003" y="-429.8" font-family="Times,serif" font-size="14.00" style="">[] =&gt; {}</text>
</g>
<!-- bar2 bar2::r0 := @parameter0: PubTest -->
<g id="node14" class="node" pointer-events="visible" data-name="bar2 bar2::r0 := @parameter0: PubTest">

<polygon fill="none" stroke="black" points="1593.11,-383.2 1356.89,-383.2 1356.89,-347.2 1593.11,-347.2 1593.11,-383.2" style=""/>
<text text-anchor="middle" x="1475" y="-361" font-family="Times,serif" font-size="14.00" style="">bar2 bar2::r0 := @parameter0: PubTest</text>
</g>
<!-- foo2 foo2::$r1 = staticinvoke &lt;PubTest: PubTest bar2(PubTest)&gt;(foo2::r0)&#45;&gt;bar2 bar2::r0 := @parameter0: PubTest -->
<g id="edge18" class="edge" data-name="foo2 foo2::$r1 = staticinvoke &lt;PubTest: PubTest bar2(PubTest)&gt;(foo2::r0)-&gt;bar2 bar2::r0 := @parameter0: PubTest">

<path fill="none" stroke="red" stroke-dasharray="1,5" d="M1103.57,-533.61C1178.43,-499.87 1343.3,-425.56 1425.86,-388.35" style=""/>
<polygon fill="red" stroke="red" points="1427.17,-391.6 1434.85,-384.3 1424.3,-385.21 1427.17,-391.6" style=""/>
<text text-anchor="middle" x="1447.72" y="-438.2" font-family="Times,serif" font-size="14.00" style="">PubTest.foo2.in01</text>
<text text-anchor="start" x="1396" y="-421.4" font-family="Times,serif" font-size="14.00" style="">[] =&gt; {}</text>
</g>
<!-- foo2 return foo2::$r1&#45;&gt;test2 test2::$r2 = new PubTest -->
<g id="edge19" class="edge" data-name="foo2 return foo2::$r1-&gt;test2 test2::$r2 = new PubTest">

<path fill="none" stroke="black" stroke-dasharray="1,5" d="M887.33,-369.09C754.88,-376.22 468.68,-399.47 403.78,-468.8 332.2,-545.25 445.01,-624.02 376,-702.8 370.51,-709.06 358.31,-714.47 343.34,-719.02" style=""/>
<polygon fill="black" stroke="black" points="342.72,-715.56 334.04,-721.63 344.61,-722.3 342.72,-715.56" style=""/>
<text text-anchor="middle" x="455.11" y="-547.8" font-family="Times,serif" font-size="14.00" style="">PubTest.test2.in03</text>
</g>
<!-- foo2 return foo2::$r1&#45;&gt;test2 if test2::$r1 != test2::$r3 goto return test2::r4 -->
<g id="edge20" class="edge" data-name="foo2 return foo2::$r1-&gt;test2 if test2::$r1 != test2::$r3 goto return test2::r4">

<path fill="none" stroke="red" stroke-dasharray="1,5" d="M887.41,-352.3C770.25,-331.66 528.39,-289.06 386.5,-264.06" style=""/>
<polygon fill="red" stroke="red" points="387.14,-260.62 376.69,-262.33 385.93,-267.52 387.14,-260.62" style=""/>
<text text-anchor="middle" x="806.11" y="-300.2" font-family="Times,serif" font-size="14.00" style="">PubTest.test2.in06</text>
</g>
<!-- bar2 bar2::$r1 = staticinvoke &lt;PubTest: PubTest bar3(PubTest)&gt;(bar2::r0) -->
<g id="node15" class="node" pointer-events="visible" data-name="bar2 bar2::$r1 = staticinvoke &lt;PubTest: PubTest bar3(PubTest)&gt;(bar2::r0)">

<polygon fill="none" stroke="black" points="1740.93,-261.6 1307.07,-261.6 1307.07,-225.6 1740.93,-225.6 1740.93,-261.6" style=""/>
<text text-anchor="middle" x="1524" y="-239.4" font-family="Times,serif" font-size="14.00" style="">bar2 bar2::$r1 = staticinvoke &lt;PubTest: PubTest bar3(PubTest)&gt;(bar2::r0)</text>
</g>
<!-- bar2 bar2::r0 := @parameter0: PubTest&#45;&gt;bar2 bar2::$r1 = staticinvoke &lt;PubTest: PubTest bar3(PubTest)&gt;(bar2::r0) -->
<g id="edge13" class="edge" data-name="bar2 bar2::r0 := @parameter0: PubTest-&gt;bar2 bar2::$r1 = staticinvoke &lt;PubTest: PubTest bar3(PubTest)&gt;(bar2::r0)">

<path fill="none" stroke="red" d="M1477.88,-347.02C1481.24,-329.46 1487.76,-301.69 1498.45,-279.6 1499.78,-276.84 1501.34,-274.07 1503.02,-271.36" style=""/>
<polygon fill="red" stroke="red" points="1505.82,-273.46 1508.57,-263.23 1500.04,-269.51 1505.82,-273.46" style=""/>
<text text-anchor="start" x="1498" y="-308.2" font-family="Times,serif" font-size="14.00" style="">[] =&gt; {}</text>
</g>
<!-- bar2 return bar2::$r1 -->
<g id="node16" class="node" pointer-events="visible" data-name="bar2 return bar2::$r1">

<polygon fill="none" stroke="black" points="1590.12,-156.8 1457.88,-156.8 1457.88,-120.8 1590.12,-120.8 1590.12,-156.8" style=""/>
<text text-anchor="middle" x="1524" y="-134.6" font-family="Times,serif" font-size="14.00" style="">bar2 return bar2::$r1</text>
</g>
<!-- bar2 bar2::$r1 = staticinvoke &lt;PubTest: PubTest bar3(PubTest)&gt;(bar2::r0)&#45;&gt;bar2 return bar2::$r1 -->
<g id="edge14" class="edge" data-name="bar2 bar2::$r1 = staticinvoke &lt;PubTest: PubTest bar3(PubTest)&gt;(bar2::r0)-&gt;bar2 return bar2::$r1">

<path fill="none" stroke="red" d="M1524,-225.16C1524,-209.63 1524,-186.62 1524,-168.41" style=""/>
<polygon fill="red" stroke="red" points="1527.5,-168.49 1524,-158.49 1520.5,-168.49 1527.5,-168.49" style=""/>
<text text-anchor="start" x="1524" y="-195" font-family="Times,serif" font-size="14.00" style="">[] =&gt; {}</text>
</g>
<!-- bar3 bar3::r0 := @parameter0: PubTest -->
<g id="node17" class="node" pointer-events="visible" data-name="bar3 bar3::r0 := @parameter0: PubTest">

<polygon fill="none" stroke="black" points="2001.11,-383.2 1764.89,-383.2 1764.89,-347.2 2001.11,-347.2 2001.11,-383.2" style=""/>
<text text-anchor="middle" x="1883" y="-361" font-family="Times,serif" font-size="14.00" style="">bar3 bar3::r0 := @parameter0: PubTest</text>
</g>
<!-- bar2 bar2::$r1 = staticinvoke &lt;PubTest: PubTest bar3(PubTest)&gt;(bar2::r0)&#45;&gt;bar3 bar3::r0 := @parameter0: PubTest -->
<g id="edge21" class="edge" data-name="bar2 bar2::$r1 = staticinvoke &lt;PubTest: PubTest bar3(PubTest)&gt;(bar2::r0)-&gt;bar3 bar3::r0 := @parameter0: PubTest">

<path fill="none" stroke="red" stroke-dasharray="1,5" d="M1568.61,-262.04C1615.12,-279.95 1690.31,-308.09 1756.34,-329.2 1771.97,-334.19 1788.81,-339.15 1804.95,-343.68" style=""/>
<polygon fill="red" stroke="red" points="1803.96,-347.04 1814.53,-346.35 1805.83,-340.29 1803.96,-347.04" style=""/>
<text text-anchor="middle" x="1807.33" y="-316.6" font-family="Times,serif" font-size="14.00" style="">PubTest.bar2.in01</text>
<text text-anchor="start" x="1756" y="-299.8" font-family="Times,serif" font-size="14.00" style="">[] =&gt; {}</text>
</g>
<!-- bar2 return bar2::$r1&#45;&gt;foo2 return foo2::$r1 -->
<g id="edge22" class="edge" data-name="bar2 return bar2::$r1-&gt;foo2 return foo2::$r1">

<path fill="none" stroke="red" stroke-dasharray="1,5" d="M1457.4,-149.16C1389.46,-160.16 1281.91,-181.64 1194.56,-217.6 1114.96,-250.37 1031.21,-307.66 986.9,-340.07" style=""/>
<polygon fill="red" stroke="red" points="984.99,-337.13 979.02,-345.88 989.14,-342.77 984.99,-337.13" style=""/>
<text text-anchor="middle" x="1245.72" y="-239.4" font-family="Times,serif" font-size="14.00" style="">PubTest.foo2.in01</text>
</g>
<!-- bar3 return bar3::r0 -->
<g id="node18" class="node" pointer-events="visible" data-name="bar3 return bar3::r0">

<polygon fill="none" stroke="black" points="1917.62,-261.6 1792.38,-261.6 1792.38,-225.6 1917.62,-225.6 1917.62,-261.6" style=""/>
<text text-anchor="middle" x="1855" y="-239.4" font-family="Times,serif" font-size="14.00" style="">bar3 return bar3::r0</text>
</g>
<!-- bar3 bar3::r0 := @parameter0: PubTest&#45;&gt;bar3 return bar3::r0 -->
<g id="edge15" class="edge" data-name="bar3 bar3::r0 := @parameter0: PubTest-&gt;bar3 return bar3::r0">

<path fill="none" stroke="red" d="M1878.93,-346.81C1874.41,-327.5 1867.04,-296.04 1861.67,-273.11" style=""/>
<polygon fill="red" stroke="red" points="1865.11,-272.42 1859.42,-263.49 1858.29,-274.02 1865.11,-272.42" style=""/>
<text text-anchor="start" x="1874" y="-308.2" font-family="Times,serif" font-size="14.00" style="">[] =&gt; {}</text>
</g>
<!-- bar3 return bar3::r0&#45;&gt;bar2 return bar2::$r1 -->
<g id="edge23" class="edge" data-name="bar3 return bar3::r0-&gt;bar2 return bar2::$r1">

<path fill="none" stroke="red" stroke-dasharray="1,5" d="M1798.85,-225.16C1741.34,-207.3 1651.96,-179.54 1590.84,-160.56" style=""/>
<polygon fill="red" stroke="red" points="1592.18,-157.31 1581.59,-157.69 1590.11,-164 1592.18,-157.31" style=""/>
<text text-anchor="middle" x="1789.33" y="-187" font-family="Times,serif" font-size="14.00" style="">PubTest.bar2.in01</text>
</g>
</g>
</svg>